<svg xmlns="http://www.w3.org/2000/svg" width="25" height="25" viewBox="0 0 25 25">
    <g fill="none" fill-rule="evenodd">
        <g fill-rule="nonzero">
            <g>
                <path fill="#0066D9" d="M3.107 11.61v1.708c0 .865-.696 1.566-1.554 1.566-.857 0-1.553-.7-1.553-1.566V11.61c0-.865.696-1.567 1.553-1.567.858 0 1.554.702 1.554 1.567z" transform="translate(-1132 -2523) translate(1132 2523)"/>
                <path fill="#4285F4" d="M21.894 11.654v-.044c0-.865.695-1.567 1.553-1.567.857 0 1.553.702 1.553 1.567V13.363c-.024.844-.71 1.521-1.553 1.521-.844 0-1.53-.677-1.553-1.521v-1.709z" transform="translate(-1132 -2523) translate(1132 2523)"/>
                <path fill="#EA4335" d="M8.526 16.753v1.702c0 .861-.695 1.56-1.553 1.56s-1.554-.699-1.554-1.56v-1.702c0-.86.696-1.56 1.554-1.56.857 0 1.553.7 1.553 1.56zm0-10.208v5.565c-.02.845-.707 1.524-1.553 1.524-.847 0-1.535-.679-1.553-1.524V6.545c0-.861.695-1.56 1.553-1.56.857 0 1.553.699 1.553 1.56z" transform="translate(-1132 -2523) translate(1132 2523)"/>
                <path fill="#34A853" d="M16.474 8.26c0 .865.695 1.567 1.553 1.567s1.554-.702 1.554-1.567V6.552c0-.865-.696-1.566-1.554-1.566-.857 0-1.553.7-1.553 1.566V8.26z" transform="translate(-1132 -2523) translate(1132 2523)"/>
                <path fill="#FAB908" d="M10.983 3.267c0 .863.695 1.563 1.553 1.563s1.554-.7 1.554-1.563V1.563C14.09.7 13.394 0 12.536 0c-.858 0-1.553.7-1.553 1.563v1.704zm0 18.466c0-.863.695-1.563 1.553-1.563s1.554.7 1.554 1.563v1.704c0 .863-.696 1.563-1.554 1.563-.858 0-1.553-.7-1.553-1.563v-1.704z" transform="translate(-1132 -2523) translate(1132 2523)"/>
                <path fill="#34A853" d="M16.474 12.907c0-.863.695-1.563 1.553-1.563s1.554.7 1.554 1.563v5.544c0 .863-.696 1.563-1.554 1.563-.857 0-1.553-.7-1.553-1.563v-5.544z" transform="translate(-1132 -2523) translate(1132 2523)"/>
                <path fill="#FAB908" d="M14.09 7.92v9.087c0 .863-.696 1.562-1.554 1.562-.858 0-1.553-.699-1.553-1.562V7.92c0-.862.695-1.562 1.553-1.562s1.554.7 1.554 1.562z" transform="translate(-1132 -2523) translate(1132 2523)"/>
            </g>
        </g>
    </g>
</svg>
