<svg xmlns="http://www.w3.org/2000/svg" width="25" height="25" viewBox="0 0 25 25">
    <defs>
        <linearGradient id="yubv1b4fwa" x1="50%" x2="50%" y1="0%" y2="100%">
            <stop offset="0%" stop-color="#F452FF"/>
            <stop offset="100%" stop-color="#79479D"/>
        </linearGradient>
    </defs>
    <g fill="none" fill-rule="evenodd">
        <g fill="url(#yubv1b4fwa)" fill-rule="nonzero" transform="translate(-994 -1862)">
            <path d="M999.563 1862c-3.076-.009-5.572 2.487-5.563 5.563v13.875c-.009 3.075 2.487 5.57 5.563 5.562h13.875c3.075.009 5.57-2.487 5.562-5.562v-13.875c.009-3.076-2.487-5.572-5.562-5.563h-13.875zm6.794 2.673c2.434 0 4.634.94 6.312 2.697 1.274 1.323 1.99 2.726 2.356 4.575.126.614.126 2.29.007 2.982-.39 2.2-1.594 4.17-3.373 5.518-.634.48-2.185 1.314-2.433 1.314-.094 0-.1-.093-.06-.48.077-.619.15-.745.5-.891.557-.232 1.51-.912 2.091-1.493 1.017-1.018 1.742-2.291 2.091-3.687.22-.86.191-2.768-.049-3.65-.757-2.809-3.052-4.988-5.86-5.575-.812-.167-2.298-.167-3.124 0-2.84.587-5.193 2.877-5.909 5.758-.191.785-.191 2.694 0 3.475.476 1.91 1.71 3.658 3.325 4.7.317.211.7.427.859.493.35.15.427.277.491.89.04.38.032.485-.056.485-.057 0-.484-.184-.937-.4l-.04-.032c-2.576-1.265-4.225-3.409-4.826-6.262-.146-.737-.175-2.49-.028-3.166.374-1.815 1.09-3.23 2.282-4.483 1.718-1.812 3.927-2.768 6.384-2.768h-.003zm.143 2.93c.423.004.834.04 1.15.11 2.903.646 4.957 3.549 4.558 6.428-.159 1.164-.557 2.117-1.265 3.004-.35.447-1.2 1.196-1.35 1.196-.026 0-.05-.285-.05-.627v-.631l.431-.517c1.635-1.957 1.518-4.69-.265-6.48-.691-.7-1.493-1.113-2.527-1.298-.666-.126-.805-.126-1.505-.009-1.066.171-1.889.581-2.621 1.306-1.79 1.774-1.91 4.524-.272 6.481l.43.517v.635c0 .35-.028.63-.065.63-.028 0-.272-.166-.533-.374l-.037-.012c-.866-.692-1.631-1.917-1.95-3.121-.19-.728-.19-2.107.01-2.832.524-1.957 1.969-3.475 3.967-4.187.428-.15 1.18-.232 1.888-.22l.006.001zm-.138 3.113c.326 0 .647.065.883.187.504.265.925.773 1.082 1.31.485 1.644-1.257 3.085-2.836 2.348h-.012c-.745-.346-1.144-.997-1.152-1.844 0-.765.422-1.428 1.159-1.819.232-.121.554-.183.879-.183h-.003zm-.009 4.928c1.03-.004 1.774.362 2.051 1.008.207.485.13 2.01-.228 4.48-.24 1.726-.374 2.161-.707 2.455-.46.406-1.107.52-1.726.3h-.003c-.745-.268-.904-.63-1.213-2.755-.354-2.47-.432-3.996-.223-4.48.272-.643 1.012-1.004 2.05-1.009z"/>
        </g>
    </g>
</svg>
