<svg xmlns="http://www.w3.org/2000/svg" width="25" height="25" viewBox="0 0 25 25">
    <g fill="none" fill-rule="evenodd">
        <g fill="#20D760" fill-rule="nonzero">
            <path d="M868.5 1091c-6.903 0-12.5 5.597-12.5 12.5 0 6.904 5.597 12.5 12.5 12.5 6.904 0 12.5-5.596 12.5-12.5 0-6.903-5.596-12.5-12.5-12.5zm5.732 18.029c-.224.367-.704.483-1.071.258-2.935-1.793-6.63-2.199-10.981-1.205-.42.096-.837-.167-.933-.586-.096-.42.166-.838.586-.933 4.762-1.089 8.846-.62 12.141 1.394.367.225.484.704.258 1.072zm1.53-3.404c-.282.459-.882.603-1.34.321-3.36-2.065-8.482-2.664-12.456-1.457-.515.156-1.06-.135-1.216-.65-.155-.515.135-1.058.65-1.215 4.54-1.377 10.183-.71 14.041 1.66.459.283.603.883.321 1.34zm.132-3.545c-4.029-2.393-10.676-2.613-14.522-1.445-.618.187-1.271-.161-1.458-.78-.187-.617.16-1.27.78-1.458 4.414-1.34 11.755-1.081 16.393 1.672.557.33.739 1.048.409 1.603-.329.555-1.048.738-1.602.408z" transform="translate(-856 -1091)"/>
        </g>
    </g>
</svg>
