<svg xmlns="http://www.w3.org/2000/svg" width="48" height="48" viewBox="0 0 48 48">
    <g fill="none" fill-rule="evenodd" stroke-linecap="round" stroke-linejoin="round">
        <g stroke="#FFF" stroke-width="2.48">
            <g>
                <g transform="translate(-698 -889) translate(389 580) translate(310 310)">
                    <path d="M.649 24.71C-1.501 13.37 5.95 2.433 17.29.283M8.433 23.224c-1.33-7.038 3.295-13.822 10.333-15.156M44.962 24.71c2.15-11.337-5.294-22.272-16.63-24.427M37.177 23.224c1.331-7.03-3.28-13.811-10.308-15.156M16.536 45.222L29.074 45.222M25.548 21.561L28.579 21.561M17.044 21.561L20.063 21.561M25.548 26.692L28.579 26.692M17.044 26.692L20.063 26.692M22.811 33.037L22.811 44.195"/>
                    <rect width="11.535" height="17.822" x="17.044" y="15.215" rx="4.68"/>
                </g>
            </g>
        </g>
    </g>
</svg>
