<?xml version="1.0" standalone="no"?>
<!DOCTYPE svg PUBLIC "-//W3C//DTD SVG 1.1//EN" "http://www.w3.org/Graphics/SVG/1.1/DTD/svg11.dtd" >
<svg>
<metadata>
Created by FontForge 20110222 at Wed Mar 18 10:42:25 2015
 By www-data
Copyright (c) 2008-2011 BNP Paribas
</metadata>
<defs>
<font id="BNPPRounded-ExtraBold" horiz-adv-x="530" >
  <font-face 
    font-family="BNPP Rounded Extra Bold"
    font-weight="800"
    font-stretch="normal"
    units-per-em="1000"
    panose-1="2 0 5 3 2 0 0 2 0 4"
    ascent="755"
    descent="-245"
    x-height="538"
    cap-height="700"
    bbox="-62 -259 1187 1043"
    underline-thickness="50"
    underline-position="-50"
    stemh="155"
    stemv="187"
    unicode-range="U+0020-FB04"
  />
<missing-glyph horiz-adv-x="475" 
d="M60 665h355v-665h-355v665zM178 548v-430h119v430h-119z" />
    <glyph glyph-name="f_f" unicode="ff" horiz-adv-x="687" 
d="M711 489c0 -40 -18 -94 -69 -94h-63v-441c0 -121 -75 -166 -165 -166c-57 0 -132 4 -132 83c0 45 4 82 40 82c10 0 24 -5 39 -5c19 0 36 15 36 47v400h-125v-441c0 -121 -75 -166 -165 -166c-57 0 -132 4 -132 83c0 45 4 82 40 82c10 0 24 -5 39 -5c19 0 36 15 36 47v400
h-18c-41 0 -56 32 -56 71c0 40 15 72 56 72h18v30c0 150 96 211 207 211c54 0 102 -11 102 -69c0 -40 -8 -84 -43 -84c-7 0 -21 2 -34 2c-32 0 -50 -18 -50 -52v-38h125v30c0 150 90 211 223 211c55 0 127 -6 127 -71c0 -30 -3 -87 -47 -87c-23 0 -29 6 -55 6
c-36 0 -66 -12 -66 -51v-38h88c32 0 44 -20 44 -49z" />
    <glyph glyph-name="f_i" unicode="fi" horiz-adv-x="630" 
d="M483 -15c-52 0 -93 15 -93 66v344h-118v-441c0 -121 -75 -166 -165 -166c-57 0 -132 4 -132 83c0 45 4 82 40 82c10 0 24 -5 39 -5c19 0 36 15 36 47v400h-18c-41 0 -56 32 -56 71c0 40 15 72 56 72h18v30c0 167 98 211 263 211c76 0 146 -14 181 -26
c27 -9 43 -25 43 -65c0 -41 -1 -92 -50 -92c-33 0 -106 26 -178 26c-44 0 -77 -12 -77 -51v-33h211c53 0 94 -15 94 -67v-420c0 -51 -41 -66 -94 -66z" />
    <glyph glyph-name="f_f_i" unicode="ffi" horiz-adv-x="937" 
d="M790 -15c-52 0 -93 15 -93 66v344h-118v-441c0 -121 -75 -166 -165 -166c-57 0 -132 4 -132 83c0 45 4 82 40 82c10 0 24 -5 39 -5c19 0 36 15 36 47v400h-125v-441c0 -121 -75 -166 -165 -166c-57 0 -132 4 -132 83c0 45 4 82 40 82c10 0 24 -5 39 -5c19 0 36 15 36 47
v400h-18c-41 0 -56 32 -56 71c0 40 15 72 56 72h18v30c0 150 96 211 207 211c54 0 102 -11 102 -69c0 -40 -8 -84 -43 -84c-7 0 -21 2 -34 2c-32 0 -50 -18 -50 -52v-38h125v30c0 167 98 211 263 211c76 0 146 -14 181 -26c27 -9 43 -25 43 -65c0 -41 -1 -92 -50 -92
c-33 0 -106 26 -178 26c-44 0 -77 -12 -77 -51v-33h211c53 0 94 -15 94 -67v-420c0 -51 -41 -66 -94 -66z" />
    <glyph glyph-name="f_l" unicode="fl" horiz-adv-x="678" 
d="M633 -1c-25 -11 -43 -15 -83 -15c-90 0 -160 56 -160 172v464c-14 2 -27 2 -41 2c-44 0 -77 -15 -77 -54v-30h49c32 0 44 -20 44 -49c0 -40 -18 -94 -69 -94h-24v-441c0 -121 -75 -166 -165 -166c-57 0 -132 4 -132 83c0 45 4 82 40 82c10 0 24 -5 39 -5
c19 0 36 15 36 47v400h-18c-41 0 -56 32 -56 71c0 40 15 72 56 72h18v30c0 167 98 211 263 211c76 0 146 -14 181 -26c27 -9 43 -25 43 -65v-501c0 -29 15 -39 37 -39c16 0 23 6 35 6c17 0 29 -12 29 -45c0 -55 -9 -94 -45 -110z" />
    <glyph glyph-name="f_f_l" unicode="ffl" horiz-adv-x="984" 
d="M939 -1c-25 -11 -43 -15 -83 -15c-90 0 -160 56 -160 172v464c-14 2 -27 2 -41 2c-44 0 -77 -15 -77 -54v-30h49c32 0 44 -20 44 -49c0 -40 -18 -94 -69 -94h-24v-441c0 -121 -75 -166 -165 -166c-57 0 -132 4 -132 83c0 45 4 82 40 82c10 0 24 -5 39 -5
c19 0 36 15 36 47v400h-124v-441c0 -121 -75 -166 -165 -166c-57 0 -132 4 -132 83c0 45 4 82 40 82c10 0 24 -5 39 -5c19 0 36 15 36 47v400h-18c-41 0 -56 32 -56 71c0 40 15 72 56 72h18v30c0 150 96 211 207 211c54 0 102 -11 102 -69c0 -40 -8 -84 -43 -84
c-7 0 -21 2 -34 2c-32 0 -50 -18 -50 -52v-38h124v30c0 167 98 211 263 211c76 0 146 -14 181 -26c27 -9 43 -25 43 -65v-501c0 -29 15 -39 37 -39c16 0 23 6 35 6c17 0 29 -12 29 -45c0 -55 -9 -94 -45 -110z" />
    <glyph glyph-name=".notdef" horiz-adv-x="475" 
d="M60 665h355v-665h-355v665zM178 548v-430h119v430h-119z" />
    <glyph glyph-name=".null" horiz-adv-x="0" 
 />
    <glyph glyph-name="CR" horiz-adv-x="270" 
 />
    <glyph glyph-name="space" unicode=" " horiz-adv-x="250" 
 />
    <glyph glyph-name="A" unicode="A" horiz-adv-x="602" 
d="M194 109l-17 -67c-7 -31 -30 -57 -92 -57c-52 0 -83 16 -83 56c0 8 1 16 4 26l163 578c11 39 37 55 81 55h110c39 0 64 -13 76 -56l160 -573c3 -10 4 -18 4 -26c0 -42 -35 -60 -84 -60c-74 0 -94 29 -103 63l-16 61h-203zM294 511l-62 -249h126z" />
    <glyph glyph-name="B" unicode="B" horiz-adv-x="596" 
d="M152 0c-51 0 -92 19 -92 70v559c0 52 41 71 92 71h145c139 0 254 -27 254 -178c0 -78 -42 -143 -107 -166c77 -12 128 -63 128 -152c0 -147 -97 -204 -272 -204h-148zM244 286v-139h56c51 0 70 28 70 71c0 47 -20 68 -70 68h-56zM244 553v-133h55c40 0 61 18 61 70
c0 58 -30 63 -66 63h-50z" />
    <glyph glyph-name="C" unicode="C" horiz-adv-x="571" 
d="M457 442c-107 0 -52 103 -145 103c-73 0 -103 -54 -103 -188c0 -169 66 -202 145 -202c41 0 83 10 121 25c13 5 23 7 32 7c33 0 42 -29 42 -66c0 -56 -9 -83 -59 -103c-43 -18 -98 -33 -164 -33c-188 0 -306 109 -306 372c0 249 105 358 293 358c130 0 227 -54 242 -204
c0 -51 -45 -69 -98 -69z" />
    <glyph glyph-name="D" unicode="D" horiz-adv-x="647" 
d="M152 700h185c189 0 290 -105 290 -339c0 -257 -106 -361 -294 -361h-181c-51 0 -92 19 -92 70v559c0 52 41 71 92 71zM244 535v-370h84c72 0 110 22 110 193c0 155 -38 177 -110 177h-84z" />
    <glyph glyph-name="E" unicode="E" horiz-adv-x="524" 
d="M477 345c0 -41 -16 -73 -58 -73h-175v-107h197c46 0 63 -37 63 -82c0 -46 -17 -83 -63 -83h-289c-51 0 -92 19 -92 70v559c0 52 41 71 92 71h275c46 0 63 -37 63 -82c0 -46 -17 -83 -63 -83h-183v-113h175c42 0 58 -34 58 -77z" />
    <glyph glyph-name="F" unicode="F" horiz-adv-x="516" 
d="M464 318c0 -45 -17 -81 -61 -81h-159v-167c0 -51 -41 -70 -92 -70s-92 19 -92 70v559c0 52 41 71 92 71h292c46 0 63 -37 63 -82c0 -46 -17 -83 -63 -83h-200v-138h159c44 0 61 -35 61 -79z" />
    <glyph glyph-name="G" unicode="G" horiz-adv-x="646" 
d="M421 246h-48c-42 0 -59 32 -59 73c0 43 17 76 59 76h175c42 0 58 -33 58 -76v-271c0 -46 -39 -63 -85 -63c-44 0 -81 15 -85 56c-28 -30 -70 -56 -141 -56c-132 0 -275 80 -275 366c0 270 138 364 323 364c173 0 249 -89 249 -205c0 -49 -40 -68 -92 -68
c-120 0 -54 103 -158 103c-70 0 -123 -38 -123 -188c0 -167 39 -202 113 -202c38 0 68 16 89 32v59z" />
    <glyph glyph-name="H" unicode="H" horiz-adv-x="678" 
d="M526 -15c-51 0 -92 19 -92 70v202h-190v-202c0 -51 -41 -70 -92 -70s-92 19 -92 70v589c0 52 41 71 92 71s92 -19 92 -71v-211h190v211c0 52 41 71 92 71s92 -19 92 -71v-589c0 -51 -41 -70 -92 -70z" />
    <glyph glyph-name="I" unicode="I" horiz-adv-x="304" 
d="M152 -15c-51 0 -92 19 -92 70v589c0 52 41 71 92 71s92 -19 92 -71v-589c0 -51 -41 -70 -92 -70z" />
    <glyph glyph-name="J" unicode="J" horiz-adv-x="343" 
d="M54 156c8 0 15 -1 23 -1c18 0 32 11 32 42v447c0 52 41 71 92 71s92 -19 92 -71v-469c0 -121 -71 -190 -172 -190c-60 0 -121 7 -121 79c0 35 8 92 54 92z" />
    <glyph glyph-name="K" unicode="K" horiz-adv-x="612" 
d="M244 423l151 223c38 56 74 69 124 69c45 0 69 -26 69 -54c0 -13 -5 -25 -13 -37l-143 -197l168 -351c5 -11 6 -21 6 -33c0 -34 -35 -58 -86 -58c-74 0 -101 22 -124 74l-88 202l-64 -89v-117c0 -51 -41 -70 -92 -70s-92 19 -92 70v589c0 52 41 71 92 71s92 -19 92 -71
v-221z" />
    <glyph glyph-name="L" unicode="L" horiz-adv-x="468" 
d="M244 165h161c46 0 63 -37 63 -82c0 -46 -17 -83 -63 -83h-253c-51 0 -92 19 -92 70v574c0 52 41 71 92 71s92 -19 92 -71v-479z" />
    <glyph glyph-name="M" unicode="M" horiz-adv-x="847" 
d="M424 306l99 324c15 49 40 70 94 70h49c49 0 91 -19 96 -69l51 -578v-7c0 -44 -38 -61 -86 -61c-50 0 -96 19 -99 68l-23 338l-79 -283c-14 -48 -42 -62 -102 -62c-59 0 -88 14 -102 62l-79 283l-23 -338c-4 -49 -50 -68 -99 -68c-48 0 -86 17 -86 61v7l51 578
c4 50 46 69 96 69h49c54 0 79 -21 94 -70z" />
    <glyph glyph-name="N" unicode="N" horiz-adv-x="696" 
d="M240 383v-330c0 -49 -40 -68 -90 -68s-90 19 -90 68v593c0 50 52 69 102 69c65 0 93 -22 117 -69l177 -346v346c0 50 40 69 90 69s90 -19 90 -69v-593c0 -49 -51 -68 -101 -68c-71 0 -100 33 -130 89z" />
    <glyph glyph-name="O" unicode="O" horiz-adv-x="623" 
d="M311 715c162 0 292 -96 292 -366c0 -269 -130 -364 -292 -364c-161 0 -291 95 -291 364c0 270 130 366 291 366zM311 545c-58 0 -107 -35 -107 -195c0 -159 49 -195 107 -195c59 0 97 36 97 195c0 160 -38 195 -97 195z" />
    <glyph glyph-name="P" unicode="P" horiz-adv-x="569" 
d="M244 215v-160c0 -51 -41 -70 -92 -70s-92 19 -92 70v574c0 52 41 71 92 71h125c188 0 262 -50 262 -233c0 -176 -77 -256 -246 -256c-21 0 -37 1 -49 4zM244 545v-177c6 -1 14 -2 27 -2c58 0 87 14 87 87c0 78 -24 92 -81 92h-33z" />
    <glyph glyph-name="Q" unicode="Q" horiz-adv-x="623" 
d="M311 715c162 0 292 -96 292 -366c0 -192 -66 -295 -163 -339l63 -105c6 -10 7 -20 7 -29c0 -34 -28 -56 -81 -56c-65 0 -93 16 -117 66l-49 102c-138 18 -243 119 -243 361c0 270 130 366 291 366zM311 545c-58 0 -107 -35 -107 -195c0 -159 49 -195 107 -195
c59 0 97 36 97 195c0 160 -38 195 -97 195z" />
    <glyph glyph-name="R" unicode="R" horiz-adv-x="593" 
d="M458 285l105 -210c7 -13 8 -23 8 -33c0 -34 -26 -57 -81 -57c-71 0 -100 22 -124 73l-84 179c-11 0 -30 1 -38 2v-184c0 -51 -41 -70 -92 -70s-92 19 -92 70v574c0 52 41 71 92 71h136c152 0 273 -42 273 -217c0 -118 -37 -170 -103 -198zM244 545v-153
c16 -3 18 -4 41 -4c54 0 84 28 84 79c0 50 -24 78 -81 78h-44z" />
    <glyph glyph-name="S" unicode="S" horiz-adv-x="545" 
d="M269 715c127 0 212 -45 240 -160c2 -9 3 -14 3 -21c0 -49 -51 -64 -95 -64c-74 0 -70 12 -86 46c-12 25 -31 37 -60 37c-35 0 -57 -16 -57 -48c0 -103 296 -93 296 -300c0 -131 -73 -220 -248 -220c-84 0 -170 33 -206 61c-20 15 -31 40 -31 65c0 56 34 98 72 98
c9 0 24 -3 33 -10c43 -30 90 -44 134 -44c41 0 57 11 57 33c0 86 -295 74 -295 308c0 133 94 219 243 219z" />
    <glyph glyph-name="T" unicode="T" horiz-adv-x="562" 
d="M556 614c0 -48 -18 -87 -66 -87h-117v-472c0 -51 -41 -70 -92 -70s-92 19 -92 70v472h-116c-49 0 -67 39 -67 87c0 47 18 86 67 86h417c48 0 66 -39 66 -86z" />
    <glyph glyph-name="U" unicode="U" horiz-adv-x="657" 
d="M147 715c51 0 92 -19 92 -71v-389c0 -69 33 -100 90 -100s89 29 89 100v389c0 52 41 71 92 71s92 -19 92 -71v-394c0 -156 -80 -265 -273 -265c-191 0 -274 109 -274 265v394c0 52 41 71 92 71z" />
    <glyph glyph-name="V" unicode="V" horiz-adv-x="608" 
d="M319 225l103 427c8 34 25 63 97 63c45 0 75 -18 75 -60c0 -8 -1 -16 -4 -26l-153 -570c-11 -43 -48 -59 -87 -59h-72c-44 0 -81 19 -92 58l-166 571c-3 10 -4 18 -4 26c0 42 48 60 93 60c69 0 98 -29 106 -63z" />
    <glyph glyph-name="W" unicode="W" horiz-adv-x="920" 
d="M460 429l-86 -359c-12 -49 -43 -70 -94 -70h-68c-51 0 -83 20 -93 70l-106 559c-2 10 -3 18 -3 26c0 42 47 60 92 60c74 0 96 -32 101 -67l60 -383l87 365c12 50 42 70 93 70h34c51 0 81 -20 93 -70l87 -365l60 383c5 35 27 67 101 67c45 0 92 -18 92 -60
c0 -8 -1 -16 -3 -26l-106 -559c-10 -50 -42 -70 -93 -70h-68c-51 0 -82 21 -94 70z" />
    <glyph glyph-name="X" unicode="X" horiz-adv-x="587" 
d="M300 504l73 148c16 31 33 63 105 63c45 0 83 -18 83 -60c0 -8 -2 -18 -7 -27l-154 -271l163 -286c5 -9 5 -18 5 -26c0 -42 -49 -60 -94 -60c-66 0 -93 29 -111 62l-77 147l-77 -146c-16 -31 -33 -63 -105 -63c-45 0 -87 18 -87 60c0 8 2 18 7 27l154 272l-155 285
c-5 9 -6 18 -6 26c0 42 49 60 94 60c66 0 96 -28 113 -62z" />
    <glyph glyph-name="Y" unicode="Y" horiz-adv-x="562" 
d="M282 434l85 225c11 30 33 56 105 56c45 0 83 -18 83 -60c0 -8 0 -16 -4 -26l-178 -398v-176c0 -51 -41 -70 -92 -70s-92 19 -92 70v176l-179 398c-4 10 -4 18 -4 26c0 42 45 60 90 60c69 0 94 -30 106 -63z" />
    <glyph glyph-name="Z" unicode="Z" horiz-adv-x="564" 
d="M288 538h-207c-47 0 -64 35 -64 81c0 45 17 81 64 81h391c47 0 64 -36 64 -82c0 -28 -6 -49 -21 -72l-247 -383h214c46 0 63 -36 63 -81c0 -46 -17 -82 -63 -82h-401c-47 0 -64 34 -64 80c0 28 6 44 21 67z" />
    <glyph glyph-name="Agrave" unicode="&#xc0;" horiz-adv-x="602" 
d="M194 109l-17 -67c-7 -31 -30 -57 -92 -57c-52 0 -83 16 -83 56c0 8 1 16 4 26l163 578c11 39 37 55 81 55h110c39 0 64 -13 76 -56l160 -573c3 -10 4 -18 4 -26c0 -42 -35 -60 -84 -60c-74 0 -94 29 -103 63l-16 61h-203zM294 511l-62 -249h126zM213 783l-52 69
c-7 9 -10 18 -10 27c0 25 24 45 66 45c65 0 82 -20 95 -43l42 -77c4 -8 7 -17 7 -24c0 -22 -17 -39 -58 -39c-45 0 -68 13 -90 42z" />
    <glyph glyph-name="Aacute" unicode="&#xc1;" horiz-adv-x="602" 
d="M194 109l-17 -67c-7 -31 -30 -57 -92 -57c-52 0 -83 16 -83 56c0 8 1 16 4 26l163 578c11 39 37 55 81 55h110c39 0 64 -13 76 -56l160 -573c3 -10 4 -18 4 -26c0 -42 -35 -60 -84 -60c-74 0 -94 29 -103 63l-16 61h-203zM294 511l-62 -249h126zM461 852l-52 -69
c-22 -29 -45 -42 -90 -42c-41 0 -58 17 -58 39c0 7 3 16 7 24l42 77c13 23 34 43 95 43c42 0 66 -20 66 -45c0 -9 -3 -18 -10 -27z" />
    <glyph glyph-name="Acircumflex" unicode="&#xc2;" horiz-adv-x="602" 
d="M194 109l-17 -67c-7 -31 -30 -57 -92 -57c-52 0 -83 16 -83 56c0 8 1 16 4 26l163 578c11 39 37 55 81 55h110c39 0 64 -13 76 -56l160 -573c3 -10 4 -18 4 -26c0 -42 -35 -60 -84 -60c-74 0 -94 29 -103 63l-16 61h-203zM294 511l-62 -249h126zM304 816l-32 -47
c-14 -21 -43 -26 -70 -26c-34 0 -59 12 -59 34c0 6 0 12 5 20l54 81c14 21 22 34 67 34h70c45 0 53 -13 67 -34l54 -81c5 -8 5 -14 5 -20c0 -22 -25 -34 -59 -34c-27 0 -56 5 -70 26z" />
    <glyph glyph-name="Atilde" unicode="&#xc3;" horiz-adv-x="602" 
d="M194 109l-17 -67c-7 -31 -30 -57 -92 -57c-52 0 -83 16 -83 56c0 8 1 16 4 26l163 578c11 39 37 55 81 55h110c39 0 64 -13 76 -56l160 -573c3 -10 4 -18 4 -26c0 -42 -35 -60 -84 -60c-74 0 -94 29 -103 63l-16 61h-203zM294 511l-62 -249h126zM373 754
c-44 0 -89 27 -113 27c-36 0 -14 -28 -67 -28c-23 0 -59 15 -59 52c0 59 49 99 104 99c44 0 89 -27 113 -27c36 0 24 28 64 28c23 0 61 -11 61 -51c0 -63 -49 -100 -103 -100z" />
    <glyph glyph-name="Adieresis" unicode="&#xc4;" horiz-adv-x="602" 
d="M194 109l-17 -67c-7 -31 -30 -57 -92 -57c-52 0 -83 16 -83 56c0 8 1 16 4 26l163 578c11 39 37 55 81 55h110c39 0 64 -13 76 -56l160 -573c3 -10 4 -18 4 -26c0 -42 -35 -60 -84 -60c-74 0 -94 29 -103 63l-16 61h-203zM294 511l-62 -249h126zM212 749
c-39 0 -69 14 -69 53v59c0 39 30 54 69 54s68 -15 68 -54v-59c0 -39 -29 -53 -68 -53zM395 749c-39 0 -69 14 -69 53v59c0 39 30 54 69 54s68 -15 68 -54v-59c0 -39 -29 -53 -68 -53z" />
    <glyph glyph-name="Amacron" unicode="&#x100;" horiz-adv-x="602" 
d="M194 109l-17 -67c-7 -31 -30 -57 -92 -57c-52 0 -83 16 -83 56c0 8 1 16 4 26l163 578c11 39 37 55 81 55h110c39 0 64 -13 76 -56l160 -573c3 -10 4 -18 4 -26c0 -42 -35 -60 -84 -60c-74 0 -94 29 -103 63l-16 61h-203zM294 511l-62 -249h126zM465 833
c0 -35 -13 -64 -49 -64h-230c-37 0 -50 29 -50 64s13 64 50 64h230c36 0 49 -29 49 -64z" />
    <glyph glyph-name="Abreve" unicode="&#x102;" horiz-adv-x="602" 
d="M194 109l-17 -67c-7 -31 -30 -57 -92 -57c-52 0 -83 16 -83 56c0 8 1 16 4 26l163 578c11 39 37 55 81 55h110c39 0 64 -13 76 -56l160 -573c3 -10 4 -18 4 -26c0 -42 -35 -60 -84 -60c-74 0 -94 29 -103 63l-16 61h-203zM294 511l-62 -249h126zM301 746
c-91 0 -161 55 -161 133c0 33 23 44 58 44s52 -11 58 -35c6 -23 25 -31 45 -31s39 8 45 31c6 24 23 35 58 35s58 -11 58 -44c0 -78 -70 -133 -161 -133z" />
    <glyph glyph-name="Aring" unicode="&#xc5;" horiz-adv-x="602" 
d="M194 109l-17 -67c-7 -31 -30 -57 -92 -57c-52 0 -83 16 -83 56c0 8 1 16 4 26l163 578c11 39 37 55 81 55h110c39 0 64 -13 76 -56l160 -573c3 -10 4 -18 4 -26c0 -42 -35 -60 -84 -60c-74 0 -94 29 -103 63l-16 61h-203zM294 511l-62 -249h126zM423 833
c0 -57 -47 -101 -120 -101s-120 44 -120 101s47 101 120 101s120 -44 120 -101zM335 833c0 20 -10 30 -32 30s-32 -10 -32 -30s10 -30 32 -30s32 10 32 30z" />
    <glyph glyph-name="Aringacute" unicode="&#x1fa;" horiz-adv-x="602" 
d="M423 833c0 -57 -47 -101 -120 -101s-120 44 -120 101c0 35 18 65 49 83l49 92c14 26 40 35 86 35c38 0 76 -11 76 -36c0 -6 -4 -17 -10 -25l-54 -69c28 -18 44 -47 44 -80zM335 833c0 20 -10 30 -32 30s-32 -10 -32 -30s10 -30 32 -30s32 10 32 30zM194 109l-17 -67
c-7 -31 -30 -57 -92 -57c-52 0 -83 16 -83 56c0 8 1 16 4 26l163 578c11 39 37 55 81 55h110c39 0 64 -13 76 -56l160 -573c3 -10 4 -18 4 -26c0 -42 -35 -60 -84 -60c-74 0 -94 29 -103 63l-16 61h-203zM294 511l-62 -249h126z" />
    <glyph glyph-name="Aogonek" unicode="&#x104;" horiz-adv-x="602" 
d="M194 109l-17 -67c-7 -31 -30 -57 -92 -57c-52 0 -83 16 -83 56c0 8 1 16 4 26l163 578c11 39 37 55 81 55h110c39 0 64 -13 76 -56l160 -573c3 -10 4 -18 4 -26c0 -32 -23 -44 -49 -67c-16 -15 -25 -30 -25 -44c0 -16 9 -24 25 -24c22 0 27 14 50 14c29 0 49 -30 49 -59
c0 -18 -7 -37 -23 -48c-32 -23 -71 -34 -115 -34c-72 0 -136 34 -136 113c0 37 18 83 59 111c-12 11 -18 26 -22 41l-16 61h-203zM294 511l-62 -249h126z" />
    <glyph glyph-name="AE" unicode="&#xc6;" horiz-adv-x="841" 
d="M203 109l-29 -59c-22 -45 -50 -65 -105 -65c-57 0 -83 22 -83 52c0 9 2 17 5 24l288 591c16 33 51 48 91 48h374c46 0 63 -37 63 -82c0 -46 -17 -83 -63 -83h-183v-113h175c42 0 58 -34 58 -77c0 -41 -16 -73 -58 -73h-175v-107h197c46 0 63 -37 63 -82
c0 -46 -17 -83 -63 -83h-289c-51 0 -92 19 -92 70v39h-174zM377 498l-109 -236h109v236z" />
    <glyph glyph-name="AEacute" unicode="&#x1fc;" horiz-adv-x="841" 
d="M203 109l-29 -59c-22 -45 -50 -65 -105 -65c-57 0 -83 22 -83 52c0 9 2 17 5 24l288 591c16 33 51 48 91 48h374c46 0 63 -37 63 -82c0 -46 -17 -83 -63 -83h-183v-113h175c42 0 58 -34 58 -77c0 -41 -16 -73 -58 -73h-175v-107h197c46 0 63 -37 63 -82
c0 -46 -17 -83 -63 -83h-289c-51 0 -92 19 -92 70v39h-174zM377 498l-109 -236h109v236zM612 852l-52 -69c-22 -29 -45 -42 -90 -42c-41 0 -58 17 -58 39c0 7 3 16 7 24l42 77c13 23 34 43 95 43c42 0 66 -20 66 -45c0 -9 -3 -18 -10 -27z" />
    <glyph glyph-name="Cacute" unicode="&#x106;" horiz-adv-x="571" 
d="M457 442c-107 0 -52 103 -145 103c-73 0 -103 -54 -103 -188c0 -169 66 -202 145 -202c41 0 83 10 121 25c13 5 23 7 32 7c33 0 42 -29 42 -66c0 -56 -9 -83 -59 -103c-43 -18 -98 -33 -164 -33c-188 0 -306 109 -306 372c0 249 105 358 293 358c130 0 227 -54 242 -204
c0 -51 -45 -69 -98 -69zM438 852l-52 -69c-22 -29 -45 -42 -90 -42c-41 0 -58 17 -58 39c0 7 3 16 7 24l42 77c13 23 34 43 95 43c42 0 66 -20 66 -45c0 -9 -3 -18 -10 -27z" />
    <glyph glyph-name="Ccircumflex" unicode="&#x108;" horiz-adv-x="571" 
d="M457 442c-107 0 -52 103 -145 103c-73 0 -103 -54 -103 -188c0 -169 66 -202 145 -202c41 0 83 10 121 25c13 5 23 7 32 7c33 0 42 -29 42 -66c0 -56 -9 -83 -59 -103c-43 -18 -98 -33 -164 -33c-188 0 -306 109 -306 372c0 249 105 358 293 358c130 0 227 -54 242 -204
c0 -51 -45 -69 -98 -69zM302 816l-32 -47c-14 -21 -43 -26 -70 -26c-34 0 -59 12 -59 34c0 6 0 12 5 20l54 81c14 21 22 34 67 34h70c45 0 53 -13 67 -34l54 -81c5 -8 5 -14 5 -20c0 -22 -25 -34 -59 -34c-27 0 -56 5 -70 26z" />
    <glyph glyph-name="Ccaron" unicode="&#x10c;" horiz-adv-x="571" 
d="M457 442c-107 0 -52 103 -145 103c-73 0 -103 -54 -103 -188c0 -169 66 -202 145 -202c41 0 83 10 121 25c13 5 23 7 32 7c33 0 42 -29 42 -66c0 -56 -9 -83 -59 -103c-43 -18 -98 -33 -164 -33c-188 0 -306 109 -306 372c0 249 105 358 293 358c130 0 227 -54 242 -204
c0 -51 -45 -69 -98 -69zM302 850l32 47c14 21 43 26 70 26c34 0 59 -12 59 -34c0 -6 0 -12 -5 -20l-54 -81c-14 -21 -22 -34 -67 -34h-70c-45 0 -53 13 -67 34l-54 81c-5 8 -5 14 -5 20c0 22 25 34 59 34c27 0 56 -5 70 -26z" />
    <glyph glyph-name="Cdotaccent" unicode="&#x10a;" horiz-adv-x="571" 
d="M457 442c-107 0 -52 103 -145 103c-73 0 -103 -54 -103 -188c0 -169 66 -202 145 -202c41 0 83 10 121 25c13 5 23 7 32 7c33 0 42 -29 42 -66c0 -56 -9 -83 -59 -103c-43 -18 -98 -33 -164 -33c-188 0 -306 109 -306 372c0 249 105 358 293 358c130 0 227 -54 242 -204
c0 -51 -45 -69 -98 -69zM303 751c-39 0 -69 14 -69 53v59c0 39 30 54 69 54s68 -15 68 -54v-59c0 -39 -29 -53 -68 -53z" />
    <glyph glyph-name="Ccedilla" unicode="&#xc7;" horiz-adv-x="571" 
d="M457 442c-107 0 -52 103 -145 103c-73 0 -103 -54 -103 -188c0 -169 66 -202 145 -202c41 0 83 10 121 25c13 5 23 7 32 7c33 0 42 -29 42 -66c0 -56 -9 -84 -59 -104c-25 -10 -53 -19 -85 -25c15 -22 22 -55 22 -78c0 -70 -59 -126 -143 -126c-62 0 -107 18 -133 42
c-12 12 -16 24 -16 40c0 30 25 59 54 59c12 0 18 -3 29 -10c10 -7 22 -9 30 -9c19 0 31 10 31 33c0 16 -8 32 -18 47c-150 23 -241 135 -241 367c0 249 105 358 293 358c130 0 227 -54 242 -194v-10c0 -51 -45 -69 -98 -69z" />
    <glyph glyph-name="Dcaron" unicode="&#x10e;" horiz-adv-x="647" 
d="M152 700h185c189 0 290 -105 290 -339c0 -257 -106 -361 -294 -361h-181c-51 0 -92 19 -92 70v559c0 52 41 71 92 71zM244 535v-370h84c72 0 110 22 110 193c0 155 -38 177 -110 177h-84zM319 850l32 47c14 21 43 26 70 26c34 0 59 -12 59 -34c0 -6 0 -12 -5 -20l-54 -81
c-14 -21 -22 -34 -67 -34h-70c-45 0 -53 13 -67 34l-54 81c-5 8 -5 14 -5 20c0 22 25 34 59 34c27 0 56 -5 70 -26z" />
    <glyph glyph-name="Dcroat" unicode="&#x110;" horiz-adv-x="658" 
d="M163 700h185c189 0 290 -105 290 -339c0 -257 -106 -361 -294 -361h-181c-51 0 -92 19 -92 70v208h-15c-42 0 -56 32 -56 72c0 39 14 72 56 72h15v207c0 52 41 71 92 71zM255 535v-113h59c41 0 56 -33 56 -72c0 -40 -15 -72 -56 -72h-59v-113h84c72 0 110 22 110 193
c0 155 -38 177 -110 177h-84z" />
    <glyph glyph-name="Egrave" unicode="&#xc8;" horiz-adv-x="524" 
d="M477 345c0 -41 -16 -73 -58 -73h-175v-107h197c46 0 63 -37 63 -82c0 -46 -17 -83 -63 -83h-289c-51 0 -92 19 -92 70v559c0 52 41 71 92 71h275c46 0 63 -37 63 -82c0 -46 -17 -83 -63 -83h-183v-113h175c42 0 58 -34 58 -77zM187 783l-52 69c-7 9 -10 18 -10 27
c0 25 24 45 66 45c65 0 82 -20 95 -43l42 -77c4 -8 7 -17 7 -24c0 -22 -17 -39 -58 -39c-45 0 -68 13 -90 42z" />
    <glyph glyph-name="Eacute" unicode="&#xc9;" horiz-adv-x="524" 
d="M477 345c0 -41 -16 -73 -58 -73h-175v-107h197c46 0 63 -37 63 -82c0 -46 -17 -83 -63 -83h-289c-51 0 -92 19 -92 70v559c0 52 41 71 92 71h275c46 0 63 -37 63 -82c0 -46 -17 -83 -63 -83h-183v-113h175c42 0 58 -34 58 -77zM408 852l-52 -69c-22 -29 -45 -42 -90 -42
c-41 0 -58 17 -58 39c0 7 3 16 7 24l42 77c13 23 34 43 95 43c42 0 66 -20 66 -45c0 -9 -3 -18 -10 -27z" />
    <glyph glyph-name="Ecircumflex" unicode="&#xca;" horiz-adv-x="524" 
d="M477 345c0 -41 -16 -73 -58 -73h-175v-107h197c46 0 63 -37 63 -82c0 -46 -17 -83 -63 -83h-289c-51 0 -92 19 -92 70v559c0 52 41 71 92 71h275c46 0 63 -37 63 -82c0 -46 -17 -83 -63 -83h-183v-113h175c42 0 58 -34 58 -77zM268 816l-32 -47c-14 -21 -43 -26 -70 -26
c-34 0 -59 12 -59 34c0 6 0 12 5 20l54 81c14 21 22 34 67 34h70c45 0 53 -13 67 -34l54 -81c5 -8 5 -14 5 -20c0 -22 -25 -34 -59 -34c-27 0 -56 5 -70 26z" />
    <glyph glyph-name="Ecaron" unicode="&#x11a;" horiz-adv-x="524" 
d="M477 345c0 -41 -16 -73 -58 -73h-175v-107h197c46 0 63 -37 63 -82c0 -46 -17 -83 -63 -83h-289c-51 0 -92 19 -92 70v559c0 52 41 71 92 71h275c46 0 63 -37 63 -82c0 -46 -17 -83 -63 -83h-183v-113h175c42 0 58 -34 58 -77zM267 850l32 47c14 21 43 26 70 26
c34 0 59 -12 59 -34c0 -6 0 -12 -5 -20l-54 -81c-14 -21 -22 -34 -67 -34h-70c-45 0 -53 13 -67 34l-54 81c-5 8 -5 14 -5 20c0 22 25 34 59 34c27 0 56 -5 70 -26z" />
    <glyph glyph-name="Edieresis" unicode="&#xcb;" horiz-adv-x="524" 
d="M477 345c0 -41 -16 -73 -58 -73h-175v-107h197c46 0 63 -37 63 -82c0 -46 -17 -83 -63 -83h-289c-51 0 -92 19 -92 70v559c0 52 41 71 92 71h275c46 0 63 -37 63 -82c0 -46 -17 -83 -63 -83h-183v-113h175c42 0 58 -34 58 -77zM177 749c-39 0 -69 14 -69 53v59
c0 39 30 54 69 54s68 -15 68 -54v-59c0 -39 -29 -53 -68 -53zM360 749c-39 0 -69 14 -69 53v59c0 39 30 54 69 54s68 -15 68 -54v-59c0 -39 -29 -53 -68 -53z" />
    <glyph glyph-name="Emacron" unicode="&#x112;" horiz-adv-x="524" 
d="M477 345c0 -41 -16 -73 -58 -73h-175v-107h197c46 0 63 -37 63 -82c0 -46 -17 -83 -63 -83h-289c-51 0 -92 19 -92 70v559c0 52 41 71 92 71h275c46 0 63 -37 63 -82c0 -46 -17 -83 -63 -83h-183v-113h175c42 0 58 -34 58 -77zM432 833c0 -35 -13 -64 -49 -64h-230
c-37 0 -50 29 -50 64s13 64 50 64h230c36 0 49 -29 49 -64z" />
    <glyph glyph-name="Ebreve" unicode="&#x114;" horiz-adv-x="524" 
d="M477 345c0 -41 -16 -73 -58 -73h-175v-107h197c46 0 63 -37 63 -82c0 -46 -17 -83 -63 -83h-289c-51 0 -92 19 -92 70v559c0 52 41 71 92 71h275c46 0 63 -37 63 -82c0 -46 -17 -83 -63 -83h-183v-113h175c42 0 58 -34 58 -77zM262 747c-91 0 -161 55 -161 133
c0 33 23 44 58 44s52 -11 58 -35c6 -23 25 -31 45 -31s39 8 45 31c6 24 23 35 58 35s58 -11 58 -44c0 -78 -70 -133 -161 -133z" />
    <glyph glyph-name="Edotaccent" unicode="&#x116;" horiz-adv-x="524" 
d="M477 345c0 -41 -16 -73 -58 -73h-175v-107h197c46 0 63 -37 63 -82c0 -46 -17 -83 -63 -83h-289c-51 0 -92 19 -92 70v559c0 52 41 71 92 71h275c46 0 63 -37 63 -82c0 -46 -17 -83 -63 -83h-183v-113h175c42 0 58 -34 58 -77zM267 751c-39 0 -69 14 -69 53v59
c0 39 30 54 69 54s68 -15 68 -54v-59c0 -39 -29 -53 -68 -53z" />
    <glyph glyph-name="Eogonek" unicode="&#x118;" horiz-adv-x="524" 
d="M279 0h-127c-51 0 -92 19 -92 70v559c0 52 41 71 92 71h275c46 0 63 -37 63 -82c0 -46 -17 -83 -63 -83h-183v-113h175c42 0 58 -34 58 -77c0 -41 -16 -73 -58 -73h-175v-107h197c46 0 63 -37 63 -82c0 -46 -17 -83 -63 -83h-4c-36 -19 -57 -45 -57 -66
c0 -16 9 -24 25 -24c22 0 27 14 50 14c29 0 49 -30 49 -59c0 -18 -7 -37 -23 -48c-32 -23 -71 -34 -115 -34c-72 0 -136 34 -136 113c0 37 18 83 49 104z" />
    <glyph glyph-name="Gcircumflex" unicode="&#x11c;" horiz-adv-x="646" 
d="M421 246h-48c-42 0 -59 32 -59 73c0 43 17 76 59 76h175c42 0 58 -33 58 -76v-271c0 -46 -39 -63 -85 -63c-44 0 -81 15 -85 56c-28 -30 -70 -56 -141 -56c-132 0 -275 80 -275 366c0 270 138 364 323 364c173 0 249 -89 249 -205c0 -49 -40 -68 -92 -68
c-120 0 -54 103 -158 103c-70 0 -123 -38 -123 -188c0 -167 39 -202 113 -202c38 0 68 16 89 32v59zM323 816l-32 -47c-14 -21 -43 -26 -70 -26c-34 0 -59 12 -59 34c0 6 0 12 5 20l54 81c14 21 22 34 67 34h70c45 0 53 -13 67 -34l54 -81c5 -8 5 -14 5 -20
c0 -22 -25 -34 -59 -34c-27 0 -56 5 -70 26z" />
    <glyph glyph-name="Gbreve" unicode="&#x11e;" horiz-adv-x="646" 
d="M421 246h-48c-42 0 -59 32 -59 73c0 43 17 76 59 76h175c42 0 58 -33 58 -76v-271c0 -46 -39 -63 -85 -63c-44 0 -81 15 -85 56c-28 -30 -70 -56 -141 -56c-132 0 -275 80 -275 366c0 270 138 364 323 364c173 0 249 -89 249 -205c0 -49 -40 -68 -92 -68
c-120 0 -54 103 -158 103c-70 0 -123 -38 -123 -188c0 -167 39 -202 113 -202c38 0 68 16 89 32v59zM323 747c-91 0 -161 55 -161 133c0 33 23 44 58 44s52 -11 58 -35c6 -23 25 -31 45 -31s39 8 45 31c6 24 23 35 58 35s58 -11 58 -44c0 -78 -70 -133 -161 -133z" />
    <glyph glyph-name="Gdotaccent" unicode="&#x120;" horiz-adv-x="646" 
d="M421 246h-48c-42 0 -59 32 -59 73c0 43 17 76 59 76h175c42 0 58 -33 58 -76v-271c0 -46 -39 -63 -85 -63c-44 0 -81 15 -85 56c-28 -30 -70 -56 -141 -56c-132 0 -275 80 -275 366c0 270 138 364 323 364c173 0 249 -89 249 -205c0 -49 -40 -68 -92 -68
c-120 0 -54 103 -158 103c-70 0 -123 -38 -123 -188c0 -167 39 -202 113 -202c38 0 68 16 89 32v59zM323 751c-39 0 -69 14 -69 53v59c0 39 30 54 69 54s68 -15 68 -54v-59c0 -39 -29 -53 -68 -53z" />
    <glyph glyph-name="Gcommaaccent" unicode="&#x122;" horiz-adv-x="646" 
d="M421 246h-48c-42 0 -59 32 -59 73c0 43 17 76 59 76h175c42 0 58 -33 58 -76v-271c0 -46 -39 -63 -85 -63c-44 0 -81 15 -85 56c-28 -30 -70 -56 -141 -56c-132 0 -275 80 -275 366c0 270 138 364 323 364c173 0 249 -89 249 -205c0 -49 -40 -68 -92 -68
c-120 0 -54 103 -158 103c-70 0 -123 -38 -123 -188c0 -167 39 -202 113 -202c38 0 68 16 89 32v59zM387 -110l-51 -68c-22 -28 -44 -41 -88 -41c-40 0 -57 17 -57 38c0 7 3 16 7 24l41 75c13 23 33 42 93 42c41 0 64 -19 64 -44c0 -8 -3 -17 -9 -26z" />
    <glyph glyph-name="Hcircumflex" unicode="&#x124;" horiz-adv-x="678" 
d="M526 -15c-51 0 -92 19 -92 70v202h-190v-202c0 -51 -41 -70 -92 -70s-92 19 -92 70v589c0 52 41 71 92 71s92 -19 92 -71v-211h190v211c0 52 41 71 92 71s92 -19 92 -71v-589c0 -51 -41 -70 -92 -70zM339 816l-32 -47c-14 -21 -43 -26 -70 -26c-34 0 -59 12 -59 34
c0 6 0 12 5 20l54 81c14 21 22 34 67 34h70c45 0 53 -13 67 -34l54 -81c5 -8 5 -14 5 -20c0 -22 -25 -34 -59 -34c-27 0 -56 5 -70 26z" />
    <glyph glyph-name="Hbar" unicode="&#x126;" horiz-adv-x="716" 
d="M545 -15c-51 0 -92 19 -92 70v202h-190v-202c0 -51 -41 -70 -92 -70s-92 19 -92 70v465h-38c-30 0 -41 24 -41 52c0 29 11 52 41 52h38v20c0 52 41 71 92 71s92 -19 92 -71v-20h190v20c0 52 41 71 92 71s92 -19 92 -71v-20h39c29 0 40 -23 40 -52c0 -28 -11 -52 -40 -52
h-39v-465c0 -51 -41 -70 -92 -70zM263 433h190v87h-190v-87z" />
    <glyph glyph-name="Igrave" unicode="&#xcc;" horiz-adv-x="304" 
d="M152 -15c-51 0 -92 19 -92 70v589c0 52 41 71 92 71s92 -19 92 -71v-589c0 -51 -41 -70 -92 -70zM57 783l-52 69c-7 9 -10 18 -10 27c0 25 24 45 66 45c65 0 82 -20 95 -43l42 -77c4 -8 7 -17 7 -24c0 -22 -17 -39 -58 -39c-45 0 -68 13 -90 42z" />
    <glyph glyph-name="Iacute" unicode="&#xcd;" horiz-adv-x="304" 
d="M152 -15c-51 0 -92 19 -92 70v589c0 52 41 71 92 71s92 -19 92 -71v-589c0 -51 -41 -70 -92 -70zM298 852l-52 -69c-22 -29 -45 -42 -90 -42c-41 0 -58 17 -58 39c0 7 3 16 7 24l42 77c13 23 34 43 95 43c42 0 66 -20 66 -45c0 -9 -3 -18 -10 -27z" />
    <glyph glyph-name="Icircumflex" unicode="&#xce;" horiz-adv-x="304" 
d="M152 -15c-51 0 -92 19 -92 70v589c0 52 41 71 92 71s92 -19 92 -71v-589c0 -51 -41 -70 -92 -70zM152 816l-32 -47c-14 -21 -43 -26 -70 -26c-34 0 -59 12 -59 34c0 6 0 12 5 20l54 81c14 21 22 34 67 34h70c45 0 53 -13 67 -34l54 -81c5 -8 5 -14 5 -20
c0 -22 -25 -34 -59 -34c-27 0 -56 5 -70 26z" />
    <glyph glyph-name="Itilde" unicode="&#x128;" horiz-adv-x="304" 
d="M152 -15c-51 0 -92 19 -92 70v589c0 52 41 71 92 71s92 -19 92 -71v-589c0 -51 -41 -70 -92 -70zM220 754c-44 0 -89 27 -113 27c-36 0 -14 -28 -67 -28c-23 0 -59 15 -59 52c0 59 49 99 104 99c44 0 89 -27 113 -27c36 0 24 28 64 28c23 0 61 -11 61 -51
c0 -63 -49 -100 -103 -100z" />
    <glyph glyph-name="Idieresis" unicode="&#xcf;" horiz-adv-x="304" 
d="M152 -15c-51 0 -92 19 -92 70v589c0 52 41 71 92 71s92 -19 92 -71v-589c0 -51 -41 -70 -92 -70zM61 749c-39 0 -69 14 -69 53v59c0 39 30 54 69 54s68 -15 68 -54v-59c0 -39 -29 -53 -68 -53zM244 749c-39 0 -69 14 -69 53v59c0 39 30 54 69 54s68 -15 68 -54v-59
c0 -39 -29 -53 -68 -53z" />
    <glyph glyph-name="Imacron" horiz-adv-x="304" 
d="M152 -15c-51 0 -92 19 -92 70v589c0 52 41 71 92 71s92 -19 92 -71v-589c0 -51 -41 -70 -92 -70zM317 833c0 -35 -13 -64 -49 -64h-230c-37 0 -50 29 -50 64s13 64 50 64h230c36 0 49 -29 49 -64z" />
    <glyph glyph-name="Ibreve" unicode="&#x12c;" horiz-adv-x="304" 
d="M152 -15c-51 0 -92 19 -92 70v589c0 52 41 71 92 71s92 -19 92 -71v-589c0 -51 -41 -70 -92 -70zM152 747c-91 0 -161 55 -161 133c0 33 23 44 58 44s52 -11 58 -35c6 -23 25 -31 45 -31s39 8 45 31c6 24 23 35 58 35s58 -11 58 -44c0 -78 -70 -133 -161 -133z" />
    <glyph glyph-name="Idotaccent" unicode="&#x130;" horiz-adv-x="304" 
d="M152 -15c-51 0 -92 19 -92 70v589c0 52 41 71 92 71s92 -19 92 -71v-589c0 -51 -41 -70 -92 -70zM153 751c-39 0 -69 14 -69 53v59c0 39 30 54 69 54s68 -15 68 -54v-59c0 -39 -29 -53 -68 -53z" />
    <glyph glyph-name="Iogonek" unicode="&#x12e;" horiz-adv-x="304" 
d="M244 55c0 -26 -10 -43 -26 -54c-36 -24 -56 -46 -56 -67c0 -16 9 -24 25 -24c22 0 27 14 50 14c29 0 49 -30 49 -59c0 -18 -7 -37 -23 -48c-32 -23 -71 -34 -115 -34c-72 0 -136 34 -136 113c0 41 18 87 63 115c-10 11 -15 25 -15 44v589c0 52 41 71 92 71s92 -19 92 -71
v-589z" />
    <glyph glyph-name="Jcircumflex" unicode="&#x134;" horiz-adv-x="343" 
d="M54 156c8 0 15 -1 23 -1c18 0 32 11 32 42v447c0 52 41 71 92 71s92 -19 92 -71v-469c0 -121 -71 -190 -172 -190c-60 0 -121 7 -121 79c0 35 8 92 54 92zM207 816l-32 -47c-14 -21 -43 -26 -70 -26c-34 0 -59 12 -59 34c0 6 0 12 5 20l54 81c14 21 22 34 67 34h70
c45 0 53 -13 67 -34l54 -81c5 -8 5 -14 5 -20c0 -22 -25 -34 -59 -34c-27 0 -56 5 -70 26z" />
    <glyph glyph-name="Kcommaaccent" unicode="&#x136;" horiz-adv-x="612" 
d="M244 423l151 223c38 56 74 69 124 69c45 0 69 -26 69 -54c0 -13 -5 -25 -13 -37l-143 -197l168 -351c5 -11 6 -21 6 -33c0 -34 -35 -58 -86 -58c-74 0 -101 22 -124 74l-88 202l-64 -89v-117c0 -51 -41 -70 -92 -70s-92 19 -92 70v589c0 52 41 71 92 71s92 -19 92 -71
v-221zM393 -110l-51 -68c-22 -28 -44 -41 -88 -41c-40 0 -57 17 -57 38c0 7 3 16 7 24l41 75c13 23 33 42 93 42c41 0 64 -19 64 -44c0 -8 -3 -17 -9 -26z" />
    <glyph glyph-name="Lacute" unicode="&#x139;" horiz-adv-x="468" 
d="M244 165h161c46 0 63 -37 63 -82c0 -46 -17 -83 -63 -83h-253c-51 0 -92 19 -92 70v574c0 52 41 71 92 71s92 -19 92 -71v-479zM298 852l-52 -69c-22 -29 -45 -42 -90 -42c-41 0 -58 17 -58 39c0 7 3 16 7 24l42 77c13 23 34 43 95 43c42 0 66 -20 66 -45
c0 -9 -3 -18 -10 -27z" />
    <glyph glyph-name="Lcaron" unicode="&#x13d;" horiz-adv-x="468" 
d="M244 165h161c46 0 63 -37 63 -82c0 -46 -17 -83 -63 -83h-253c-51 0 -92 19 -92 70v574c0 52 41 71 92 71s92 -19 92 -71v-479zM153 851l32 47c14 21 43 26 70 26c34 0 59 -12 59 -34c0 -6 0 -12 -5 -20l-54 -81c-14 -21 -22 -34 -67 -34h-70c-45 0 -53 13 -67 34l-54 81
c-5 8 -5 14 -5 20c0 22 25 34 59 34c27 0 56 -5 70 -26z" />
    <glyph glyph-name="Lcommaaccent" unicode="&#x13b;" horiz-adv-x="468" 
d="M244 165h161c46 0 63 -37 63 -82c0 -46 -17 -83 -63 -83h-253c-51 0 -92 19 -92 70v574c0 52 41 71 92 71s92 -19 92 -71v-479zM325 -110l-51 -68c-22 -28 -44 -41 -88 -41c-40 0 -57 17 -57 38c0 7 3 16 7 24l41 75c13 23 33 42 93 42c41 0 64 -19 64 -44
c0 -8 -3 -17 -9 -26z" />
    <glyph glyph-name="Lslash" unicode="&#x141;" horiz-adv-x="481" 
d="M257 468l87 38c10 5 20 8 29 8c26 0 44 -17 44 -60c0 -51 -23 -76 -45 -85l-115 -50v-154h161c46 0 63 -37 63 -82c0 -46 -17 -83 -63 -83h-253c-51 0 -92 19 -92 70v171c-10 -5 -20 -8 -29 -8c-26 0 -44 16 -44 60c0 51 23 76 45 85l28 12v254c0 52 41 71 92 71
s92 -19 92 -71v-176z" />
    <glyph glyph-name="Nacute" unicode="&#x143;" horiz-adv-x="696" 
d="M240 383v-330c0 -49 -40 -68 -90 -68s-90 19 -90 68v593c0 50 52 69 102 69c65 0 93 -22 117 -69l177 -346v346c0 50 40 69 90 69s90 -19 90 -69v-593c0 -49 -51 -68 -101 -68c-71 0 -100 33 -130 89zM471 852l-52 -69c-22 -29 -45 -42 -90 -42c-41 0 -58 17 -58 39
c0 7 3 16 7 24l42 77c13 23 34 43 95 43c42 0 66 -20 66 -45c0 -9 -3 -18 -10 -27z" />
    <glyph glyph-name="Ncaron" unicode="&#x147;" horiz-adv-x="696" 
d="M240 383v-330c0 -49 -40 -68 -90 -68s-90 19 -90 68v593c0 50 52 69 102 69c65 0 93 -22 117 -69l177 -346v346c0 50 40 69 90 69s90 -19 90 -69v-593c0 -49 -51 -68 -101 -68c-71 0 -100 33 -130 89zM348 851l32 47c14 21 43 26 70 26c34 0 59 -12 59 -34
c0 -6 0 -12 -5 -20l-54 -81c-14 -21 -22 -34 -67 -34h-70c-45 0 -53 13 -67 34l-54 81c-5 8 -5 14 -5 20c0 22 25 34 59 34c27 0 56 -5 70 -26z" />
    <glyph glyph-name="Ntilde" unicode="&#xd1;" horiz-adv-x="696" 
d="M240 383v-330c0 -49 -40 -68 -90 -68s-90 19 -90 68v593c0 50 52 69 102 69c65 0 93 -22 117 -69l177 -346v346c0 50 40 69 90 69s90 -19 90 -69v-593c0 -49 -51 -68 -101 -68c-71 0 -100 33 -130 89zM412 754c-44 0 -89 27 -113 27c-36 0 -14 -28 -67 -28
c-23 0 -59 15 -59 52c0 59 49 99 104 99c44 0 89 -27 113 -27c36 0 24 28 64 28c23 0 61 -11 61 -51c0 -63 -49 -100 -103 -100z" />
    <glyph glyph-name="Ncommaaccent" unicode="&#x145;" horiz-adv-x="696" 
d="M240 383v-330c0 -49 -40 -68 -90 -68s-90 19 -90 68v593c0 50 52 69 102 69c65 0 93 -22 117 -69l177 -346v346c0 50 40 69 90 69s90 -19 90 -69v-593c0 -49 -51 -68 -101 -68c-71 0 -100 33 -130 89zM411 -110l-51 -68c-22 -28 -44 -41 -88 -41c-40 0 -57 17 -57 38
c0 7 3 16 7 24l41 75c13 23 33 42 93 42c41 0 64 -19 64 -44c0 -8 -3 -17 -9 -26z" />
    <glyph glyph-name="Ograve" unicode="&#xd2;" horiz-adv-x="623" 
d="M311 715c162 0 292 -96 292 -366c0 -269 -130 -364 -292 -364c-161 0 -291 95 -291 364c0 270 130 366 291 366zM311 545c-58 0 -107 -35 -107 -195c0 -159 49 -195 107 -195c59 0 97 36 97 195c0 160 -38 195 -97 195zM219 783l-52 69c-7 9 -10 18 -10 27
c0 25 24 45 66 45c65 0 82 -20 95 -43l42 -77c4 -8 7 -17 7 -24c0 -22 -17 -39 -58 -39c-45 0 -68 13 -90 42z" />
    <glyph glyph-name="Oacute" unicode="&#xd3;" horiz-adv-x="623" 
d="M311 715c162 0 292 -96 292 -366c0 -269 -130 -364 -292 -364c-161 0 -291 95 -291 364c0 270 130 366 291 366zM311 545c-58 0 -107 -35 -107 -195c0 -159 49 -195 107 -195c59 0 97 36 97 195c0 160 -38 195 -97 195zM454 852l-52 -69c-22 -29 -45 -42 -90 -42
c-41 0 -58 17 -58 39c0 7 3 16 7 24l42 77c13 23 34 43 95 43c42 0 66 -20 66 -45c0 -9 -3 -18 -10 -27z" />
    <glyph glyph-name="Ocircumflex" unicode="&#xd4;" horiz-adv-x="623" 
d="M311 715c162 0 292 -96 292 -366c0 -269 -130 -364 -292 -364c-161 0 -291 95 -291 364c0 270 130 366 291 366zM311 545c-58 0 -107 -35 -107 -195c0 -159 49 -195 107 -195c59 0 97 36 97 195c0 160 -38 195 -97 195zM311 816l-32 -47c-14 -21 -43 -26 -70 -26
c-34 0 -59 12 -59 34c0 6 0 12 5 20l54 81c14 21 22 34 67 34h70c45 0 53 -13 67 -34l54 -81c5 -8 5 -14 5 -20c0 -22 -25 -34 -59 -34c-27 0 -56 5 -70 26z" />
    <glyph glyph-name="Otilde" unicode="&#xd5;" horiz-adv-x="623" 
d="M311 715c162 0 292 -96 292 -366c0 -269 -130 -364 -292 -364c-161 0 -291 95 -291 364c0 270 130 366 291 366zM311 545c-58 0 -107 -35 -107 -195c0 -159 49 -195 107 -195c59 0 97 36 97 195c0 160 -38 195 -97 195zM376 754c-44 0 -89 27 -113 27
c-36 0 -14 -28 -67 -28c-23 0 -59 15 -59 52c0 59 49 99 104 99c44 0 89 -27 113 -27c36 0 24 28 64 28c23 0 61 -11 61 -51c0 -63 -49 -100 -103 -100z" />
    <glyph glyph-name="Odieresis" unicode="&#xd6;" horiz-adv-x="623" 
d="M311 715c162 0 292 -96 292 -366c0 -269 -130 -364 -292 -364c-161 0 -291 95 -291 364c0 270 130 366 291 366zM311 545c-58 0 -107 -35 -107 -195c0 -159 49 -195 107 -195c59 0 97 36 97 195c0 160 -38 195 -97 195zM220 749c-39 0 -69 14 -69 53v59c0 39 30 54 69 54
s68 -15 68 -54v-59c0 -39 -29 -53 -68 -53zM403 749c-39 0 -69 14 -69 53v59c0 39 30 54 69 54s68 -15 68 -54v-59c0 -39 -29 -53 -68 -53z" />
    <glyph glyph-name="Omacron" unicode="&#x14c;" horiz-adv-x="623" 
d="M311 715c162 0 292 -96 292 -366c0 -269 -130 -364 -292 -364c-161 0 -291 95 -291 364c0 270 130 366 291 366zM311 545c-58 0 -107 -35 -107 -195c0 -159 49 -195 107 -195c59 0 97 36 97 195c0 160 -38 195 -97 195zM476 833c0 -35 -13 -64 -49 -64h-230
c-37 0 -50 29 -50 64s13 64 50 64h230c36 0 49 -29 49 -64z" />
    <glyph glyph-name="Obreve" unicode="&#x14e;" horiz-adv-x="623" 
d="M311 715c162 0 292 -96 292 -366c0 -269 -130 -364 -292 -364c-161 0 -291 95 -291 364c0 270 130 366 291 366zM311 545c-58 0 -107 -35 -107 -195c0 -159 49 -195 107 -195c59 0 97 36 97 195c0 160 -38 195 -97 195zM311 747c-91 0 -161 55 -161 133c0 33 23 44 58 44
s52 -11 58 -35c6 -23 25 -31 45 -31s39 8 45 31c6 24 23 35 58 35s58 -11 58 -44c0 -78 -70 -133 -161 -133z" />
    <glyph glyph-name="Ohungarumlaut" unicode="&#x150;" horiz-adv-x="623" 
d="M311 715c162 0 292 -96 292 -366c0 -269 -130 -364 -292 -364c-161 0 -291 95 -291 364c0 270 130 366 291 366zM311 545c-58 0 -107 -35 -107 -195c0 -159 49 -195 107 -195c59 0 97 36 97 195c0 160 -38 195 -97 195zM262 924c45 0 69 -19 69 -42c0 -7 -2 -14 -6 -22
l-43 -86c-9 -19 -25 -33 -67 -33c-33 0 -51 12 -51 32c0 2 1 5 1 7l17 98c6 33 36 46 80 46zM469 924c38 -1 60 -17 60 -43c0 -9 -4 -20 -11 -30l-53 -74c-17 -23 -33 -36 -71 -36c-26 0 -53 10 -53 39c0 7 2 16 7 26l33 71c13 28 27 47 88 47z" />
    <glyph glyph-name="Oslash" unicode="&#xd8;" horiz-adv-x="623" 
d="M471 673l31 49c7 11 19 16 30 16c9 0 18 -3 25 -8c10 -7 16 -17 16 -28c0 -7 -3 -15 -8 -23l-37 -58c46 -58 75 -146 75 -272c0 -269 -130 -364 -292 -364c-60 0 -115 13 -161 42l-31 -49c-7 -11 -19 -16 -30 -16c-9 0 -18 3 -25 8c-10 7 -16 17 -16 28c0 7 2 15 7 23
l38 59c-46 58 -73 145 -73 269c0 270 130 366 291 366c59 0 114 -13 160 -42zM311 545c-58 0 -107 -35 -107 -195c0 -34 2 -62 6 -86l163 255c-16 19 -37 26 -62 26zM408 350c0 29 -2 54 -4 76l-157 -247c18 -18 40 -24 64 -24c59 0 97 36 97 195z" />
    <glyph glyph-name="Oslashacute" unicode="&#x1fe;" horiz-adv-x="623" 
d="M471 673l31 49c7 11 19 16 30 16c9 0 18 -3 25 -8c10 -7 16 -17 16 -28c0 -7 -3 -15 -8 -23l-37 -58c46 -58 75 -146 75 -272c0 -269 -130 -364 -292 -364c-60 0 -115 13 -161 42l-31 -49c-7 -11 -19 -16 -30 -16c-9 0 -18 3 -25 8c-10 7 -16 17 -16 28c0 7 2 15 7 23
l38 59c-46 58 -73 145 -73 269c0 270 130 366 291 366c59 0 114 -13 160 -42zM311 545c-58 0 -107 -35 -107 -195c0 -34 2 -62 6 -86l163 255c-16 19 -37 26 -62 26zM408 350c0 29 -2 54 -4 76l-157 -247c18 -18 40 -24 64 -24c59 0 97 36 97 195zM454 852l-52 -69
c-22 -29 -45 -42 -90 -42c-41 0 -58 17 -58 39c0 7 3 16 7 24l42 77c13 23 34 43 95 43c42 0 66 -20 66 -45c0 -9 -3 -18 -10 -27z" />
    <glyph glyph-name="OE" unicode="&#x152;" horiz-adv-x="902" 
d="M622 535v-113h175c42 0 58 -34 58 -77c0 -41 -16 -73 -58 -73h-175v-107h197c46 0 63 -37 63 -82c0 -46 -17 -83 -63 -83h-269c-44 0 -81 24 -90 61c-25 -50 -66 -76 -149 -76c-161 0 -291 95 -291 364c0 270 130 366 291 366c83 0 124 -27 149 -77c9 37 46 62 90 62h255
c46 0 63 -37 63 -82c0 -46 -17 -83 -63 -83h-183zM311 545c-58 0 -107 -35 -107 -195c0 -159 49 -195 107 -195c59 0 97 36 97 195c0 160 -38 195 -97 195z" />
    <glyph glyph-name="Racute" unicode="&#x154;" horiz-adv-x="593" 
d="M458 285l105 -210c7 -13 8 -23 8 -33c0 -34 -26 -57 -81 -57c-71 0 -100 22 -124 73l-84 179c-11 0 -30 1 -38 2v-184c0 -51 -41 -70 -92 -70s-92 19 -92 70v574c0 52 41 71 92 71h136c152 0 273 -42 273 -217c0 -118 -37 -170 -103 -198zM244 545v-153
c16 -3 18 -4 41 -4c54 0 84 28 84 79c0 50 -24 78 -81 78h-44zM411 852l-52 -69c-22 -29 -45 -42 -90 -42c-41 0 -58 17 -58 39c0 7 3 16 7 24l42 77c13 23 34 43 95 43c42 0 66 -20 66 -45c0 -9 -3 -18 -10 -27z" />
    <glyph glyph-name="Rcaron" unicode="&#x158;" horiz-adv-x="593" 
d="M458 285l105 -210c7 -13 8 -23 8 -33c0 -34 -26 -57 -81 -57c-71 0 -100 22 -124 73l-84 179c-11 0 -30 1 -38 2v-184c0 -51 -41 -70 -92 -70s-92 19 -92 70v574c0 52 41 71 92 71h136c152 0 273 -42 273 -217c0 -118 -37 -170 -103 -198zM244 545v-153
c16 -3 18 -4 41 -4c54 0 84 28 84 79c0 50 -24 78 -81 78h-44zM308 851l32 47c14 21 43 26 70 26c34 0 59 -12 59 -34c0 -6 0 -12 -5 -20l-54 -81c-14 -21 -22 -34 -67 -34h-70c-45 0 -53 13 -67 34l-54 81c-5 8 -5 14 -5 20c0 22 25 34 59 34c27 0 56 -5 70 -26z" />
    <glyph glyph-name="Rcommaaccent" unicode="&#x156;" horiz-adv-x="593" 
d="M458 285l105 -210c7 -13 8 -23 8 -33c0 -34 -26 -57 -81 -57c-71 0 -100 22 -124 73l-84 179c-11 0 -30 1 -38 2v-184c0 -51 -41 -70 -92 -70s-92 19 -92 70v574c0 52 41 71 92 71h136c152 0 273 -42 273 -217c0 -118 -37 -170 -103 -198zM244 545v-153
c16 -3 18 -4 41 -4c54 0 84 28 84 79c0 50 -24 78 -81 78h-44zM394 -110l-51 -68c-22 -28 -44 -41 -88 -41c-40 0 -57 17 -57 38c0 7 3 16 7 24l41 75c13 23 33 42 93 42c41 0 64 -19 64 -44c0 -8 -3 -17 -9 -26z" />
    <glyph glyph-name="Sacute" unicode="&#x15a;" horiz-adv-x="545" 
d="M269 715c127 0 212 -45 240 -160c2 -9 3 -14 3 -21c0 -49 -51 -64 -95 -64c-74 0 -70 12 -86 46c-12 25 -31 37 -60 37c-35 0 -57 -16 -57 -48c0 -103 296 -93 296 -300c0 -131 -73 -220 -248 -220c-84 0 -170 33 -206 61c-20 15 -31 40 -31 65c0 56 34 98 72 98
c9 0 24 -3 33 -10c43 -30 90 -44 134 -44c41 0 57 11 57 33c0 86 -295 74 -295 308c0 133 94 219 243 219zM391 852l-52 -69c-22 -29 -45 -42 -90 -42c-41 0 -58 17 -58 39c0 7 3 16 7 24l42 77c13 23 34 43 95 43c42 0 66 -20 66 -45c0 -9 -3 -18 -10 -27z" />
    <glyph glyph-name="Scircumflex" unicode="&#x15c;" horiz-adv-x="545" 
d="M269 715c127 0 212 -45 240 -160c2 -9 3 -14 3 -21c0 -49 -51 -64 -95 -64c-74 0 -70 12 -86 46c-12 25 -31 37 -60 37c-35 0 -57 -16 -57 -48c0 -103 296 -93 296 -300c0 -131 -73 -220 -248 -220c-84 0 -170 33 -206 61c-20 15 -31 40 -31 65c0 56 34 98 72 98
c9 0 24 -3 33 -10c43 -30 90 -44 134 -44c41 0 57 11 57 33c0 86 -295 74 -295 308c0 133 94 219 243 219zM260 816l-32 -47c-14 -21 -43 -26 -70 -26c-34 0 -59 12 -59 34c0 6 0 12 5 20l54 81c14 21 22 34 67 34h70c45 0 53 -13 67 -34l54 -81c5 -8 5 -14 5 -20
c0 -22 -25 -34 -59 -34c-27 0 -56 5 -70 26z" />
    <glyph glyph-name="Scaron" unicode="&#x160;" horiz-adv-x="545" 
d="M269 715c127 0 212 -45 240 -160c2 -9 3 -14 3 -21c0 -49 -51 -64 -95 -64c-74 0 -70 12 -86 46c-12 25 -31 37 -60 37c-35 0 -57 -16 -57 -48c0 -103 296 -93 296 -300c0 -131 -73 -220 -248 -220c-84 0 -170 33 -206 61c-20 15 -31 40 -31 65c0 56 34 98 72 98
c9 0 24 -3 33 -10c43 -30 90 -44 134 -44c41 0 57 11 57 33c0 86 -295 74 -295 308c0 133 94 219 243 219zM260 851l32 47c14 21 43 26 70 26c34 0 59 -12 59 -34c0 -6 0 -12 -5 -20l-54 -81c-14 -21 -22 -34 -67 -34h-70c-45 0 -53 13 -67 34l-54 81c-5 8 -5 14 -5 20
c0 22 25 34 59 34c27 0 56 -5 70 -26z" />
    <glyph glyph-name="Scedilla" unicode="&#x15e;" horiz-adv-x="545" 
d="M269 715c127 0 212 -45 240 -160c2 -9 3 -14 3 -21c0 -49 -51 -64 -95 -64c-74 0 -71 12 -86 46c-11 25 -31 37 -60 37c-35 0 -57 -16 -57 -48c0 -103 296 -93 296 -300c0 -100 -43 -176 -141 -206c19 -21 27 -59 27 -85c0 -70 -59 -126 -143 -126c-62 0 -107 18 -133 42
c-12 12 -16 24 -16 40c0 30 25 59 54 59c12 0 18 -3 29 -10c10 -7 22 -9 30 -9c19 0 31 10 31 33c0 15 -6 30 -15 44c-74 6 -145 34 -177 59c-20 15 -31 40 -31 65c0 56 34 98 72 98c9 0 24 -3 33 -10c43 -30 90 -44 134 -44c41 0 57 11 57 33c0 86 -295 74 -295 308
c0 133 94 219 243 219z" />
    <glyph glyph-name="Scedilla" unicode="&#xf6c1;" horiz-adv-x="545" 
d="M269 715c127 0 212 -45 240 -160c2 -9 3 -14 3 -21c0 -49 -51 -64 -95 -64c-74 0 -71 12 -86 46c-11 25 -31 37 -60 37c-35 0 -57 -16 -57 -48c0 -103 296 -93 296 -300c0 -100 -43 -176 -141 -206c19 -21 27 -59 27 -85c0 -70 -59 -126 -143 -126c-62 0 -107 18 -133 42
c-12 12 -16 24 -16 40c0 30 25 59 54 59c12 0 18 -3 29 -10c10 -7 22 -9 30 -9c19 0 31 10 31 33c0 15 -6 30 -15 44c-74 6 -145 34 -177 59c-20 15 -31 40 -31 65c0 56 34 98 72 98c9 0 24 -3 33 -10c43 -30 90 -44 134 -44c41 0 57 11 57 33c0 86 -295 74 -295 308
c0 133 94 219 243 219z" />
    <glyph glyph-name="Scommaaccent" unicode="&#x218;" horiz-adv-x="545" 
d="M269 715c127 0 212 -45 240 -160c2 -9 3 -14 3 -21c0 -49 -51 -64 -95 -64c-74 0 -70 12 -86 46c-12 25 -31 37 -60 37c-35 0 -57 -16 -57 -48c0 -103 296 -93 296 -300c0 -131 -73 -220 -248 -220c-84 0 -170 33 -206 61c-20 15 -31 40 -31 65c0 56 34 98 72 98
c9 0 24 -3 33 -10c43 -30 90 -44 134 -44c41 0 57 11 57 33c0 86 -295 74 -295 308c0 133 94 219 243 219zM343 -110l-51 -68c-22 -28 -44 -41 -88 -41c-40 0 -57 17 -57 38c0 7 3 16 7 24l41 75c13 23 33 42 93 42c41 0 64 -19 64 -44c0 -8 -3 -17 -9 -26z" />
    <glyph glyph-name="Tcaron" unicode="&#x164;" horiz-adv-x="562" 
d="M556 614c0 -48 -18 -87 -66 -87h-117v-472c0 -51 -41 -70 -92 -70s-92 19 -92 70v472h-116c-49 0 -67 39 -67 87c0 47 18 86 67 86h417c48 0 66 -39 66 -86zM339 851l32 47c14 21 43 26 70 26c34 0 59 -12 59 -34c0 -6 0 -12 -5 -20l-54 -81c-14 -21 -22 -34 -67 -34h-70
c-45 0 -53 13 -67 34l-54 81c-5 8 -5 14 -5 20c0 22 25 34 59 34c27 0 56 -5 70 -26z" />
    <glyph glyph-name="Tcommaaccent" unicode="&#x162;" horiz-adv-x="562" 
d="M556 614c0 -48 -18 -87 -66 -87h-117v-472c0 -51 -41 -70 -92 -70s-92 19 -92 70v472h-116c-49 0 -67 39 -67 87c0 47 18 86 67 86h417c48 0 66 -39 66 -86zM321 -110l-51 -68c-22 -28 -44 -41 -88 -41c-40 0 -57 17 -57 38c0 7 3 16 7 24l41 75c13 23 33 42 93 42
c41 0 64 -19 64 -44c0 -8 -3 -17 -9 -26z" />
    <glyph glyph-name="Tcommaaccent" unicode="&#x21a;" horiz-adv-x="562" 
d="M556 614c0 -48 -18 -87 -66 -87h-117v-472c0 -51 -41 -70 -92 -70s-92 19 -92 70v472h-116c-49 0 -67 39 -67 87c0 47 18 86 67 86h417c48 0 66 -39 66 -86zM321 -110l-51 -68c-22 -28 -44 -41 -88 -41c-40 0 -57 17 -57 38c0 7 3 16 7 24l41 75c13 23 33 42 93 42
c41 0 64 -19 64 -44c0 -8 -3 -17 -9 -26z" />
    <glyph glyph-name="Tbar" unicode="&#x166;" horiz-adv-x="562" 
d="M556 614c0 -48 -18 -87 -66 -87h-117v-150h97c41 0 55 -32 55 -71s-14 -72 -55 -72h-97v-179c0 -51 -41 -70 -92 -70s-92 19 -92 70v179h-96c-41 0 -56 33 -56 72s15 71 56 71h96v150h-116c-49 0 -67 39 -67 87c0 47 18 86 67 86h417c48 0 66 -39 66 -86z" />
    <glyph glyph-name="Ugrave" unicode="&#xd9;" horiz-adv-x="657" 
d="M147 715c51 0 92 -19 92 -71v-389c0 -69 33 -100 90 -100s89 29 89 100v389c0 52 41 71 92 71s92 -19 92 -71v-394c0 -156 -80 -265 -273 -265c-191 0 -274 109 -274 265v394c0 52 41 71 92 71zM239 783l-52 69c-7 9 -10 18 -10 27c0 25 24 45 66 45c65 0 82 -20 95 -43
l42 -77c4 -8 7 -17 7 -24c0 -22 -17 -39 -58 -39c-45 0 -68 13 -90 42z" />
    <glyph glyph-name="Uacute" unicode="&#xda;" horiz-adv-x="657" 
d="M147 715c51 0 92 -19 92 -71v-389c0 -69 33 -100 90 -100s89 29 89 100v389c0 52 41 71 92 71s92 -19 92 -71v-394c0 -156 -80 -265 -273 -265c-191 0 -274 109 -274 265v394c0 52 41 71 92 71zM472 852l-52 -69c-22 -29 -45 -42 -90 -42c-41 0 -58 17 -58 39
c0 7 3 16 7 24l42 77c13 23 34 43 95 43c42 0 66 -20 66 -45c0 -9 -3 -18 -10 -27z" />
    <glyph glyph-name="Ucircumflex" unicode="&#xdb;" horiz-adv-x="657" 
d="M147 715c51 0 92 -19 92 -71v-389c0 -69 33 -100 90 -100s89 29 89 100v389c0 52 41 71 92 71s92 -19 92 -71v-394c0 -156 -80 -265 -273 -265c-191 0 -274 109 -274 265v394c0 52 41 71 92 71zM328 816l-32 -47c-14 -21 -43 -26 -70 -26c-34 0 -59 12 -59 34
c0 6 0 12 5 20l54 81c14 21 22 34 67 34h70c45 0 53 -13 67 -34l54 -81c5 -8 5 -14 5 -20c0 -22 -25 -34 -59 -34c-27 0 -56 5 -70 26z" />
    <glyph glyph-name="Utilde" unicode="&#x168;" horiz-adv-x="657" 
d="M147 715c51 0 92 -19 92 -71v-389c0 -69 33 -100 90 -100s89 29 89 100v389c0 52 41 71 92 71s92 -19 92 -71v-394c0 -156 -80 -265 -273 -265c-191 0 -274 109 -274 265v394c0 52 41 71 92 71zM396 754c-44 0 -89 27 -113 27c-36 0 -14 -28 -67 -28c-23 0 -59 15 -59 52
c0 59 49 99 104 99c44 0 89 -27 113 -27c36 0 24 28 64 28c23 0 61 -11 61 -51c0 -63 -49 -100 -103 -100z" />
    <glyph glyph-name="Udieresis" unicode="&#xdc;" horiz-adv-x="657" 
d="M147 715c51 0 92 -19 92 -71v-389c0 -69 33 -100 90 -100s89 29 89 100v389c0 52 41 71 92 71s92 -19 92 -71v-394c0 -156 -80 -265 -273 -265c-191 0 -274 109 -274 265v394c0 52 41 71 92 71zM237 749c-39 0 -69 14 -69 53v59c0 39 30 54 69 54s68 -15 68 -54v-59
c0 -39 -29 -53 -68 -53zM420 749c-39 0 -69 14 -69 53v59c0 39 30 54 69 54s68 -15 68 -54v-59c0 -39 -29 -53 -68 -53z" />
    <glyph glyph-name="Umacron" unicode="&#x16a;" horiz-adv-x="657" 
d="M147 715c51 0 92 -19 92 -71v-389c0 -69 33 -100 90 -100s89 29 89 100v389c0 52 41 71 92 71s92 -19 92 -71v-394c0 -156 -80 -265 -273 -265c-191 0 -274 109 -274 265v394c0 52 41 71 92 71zM493 833c0 -35 -13 -64 -49 -64h-230c-37 0 -50 29 -50 64s13 64 50 64h230
c36 0 49 -29 49 -64z" />
    <glyph glyph-name="Ubreve" unicode="&#x16c;" horiz-adv-x="657" 
d="M147 715c51 0 92 -19 92 -71v-389c0 -69 33 -100 90 -100s89 29 89 100v389c0 52 41 71 92 71s92 -19 92 -71v-394c0 -156 -80 -265 -273 -265c-191 0 -274 109 -274 265v394c0 52 41 71 92 71zM328 747c-91 0 -161 55 -161 133c0 33 23 44 58 44s52 -11 58 -35
c6 -23 25 -31 45 -31s39 8 45 31c6 24 23 35 58 35s58 -11 58 -44c0 -78 -70 -133 -161 -133z" />
    <glyph glyph-name="Uring" unicode="&#x16e;" horiz-adv-x="657" 
d="M147 715c51 0 92 -19 92 -71v-389c0 -69 33 -100 90 -100s89 29 89 100v389c0 52 41 71 92 71s92 -19 92 -71v-394c0 -156 -80 -265 -273 -265c-191 0 -274 109 -274 265v394c0 52 41 71 92 71zM448 833c0 -57 -47 -101 -120 -101s-120 44 -120 101s47 101 120 101
s120 -44 120 -101zM360 833c0 20 -10 30 -32 30s-32 -10 -32 -30s10 -30 32 -30s32 10 32 30z" />
    <glyph glyph-name="Uhungarumlaut" unicode="&#x170;" horiz-adv-x="657" 
d="M147 715c51 0 92 -19 92 -71v-389c0 -69 33 -100 90 -100s89 29 89 100v389c0 52 41 71 92 71s92 -19 92 -71v-394c0 -156 -80 -265 -273 -265c-191 0 -274 109 -274 265v394c0 52 41 71 92 71zM298 924c45 0 69 -19 69 -42c0 -7 -2 -14 -6 -22l-43 -86
c-9 -19 -25 -33 -67 -33c-33 0 -51 12 -51 32c0 2 1 5 1 7l17 98c6 33 36 46 80 46zM505 924c38 -1 60 -17 60 -43c0 -9 -4 -20 -11 -30l-53 -74c-17 -23 -33 -36 -71 -36c-26 0 -53 10 -53 39c0 7 2 16 7 26l33 71c13 28 27 47 88 47z" />
    <glyph glyph-name="Uogonek" unicode="&#x172;" horiz-adv-x="657" 
d="M147 715c51 0 92 -19 92 -71v-389c0 -69 33 -100 90 -100s89 29 89 100v389c0 52 41 71 92 71s92 -19 92 -71v-394c0 -123 -49 -216 -164 -250c-35 -19 -56 -45 -56 -66c0 -16 9 -24 25 -24c22 0 27 14 50 14c29 0 49 -30 49 -59c0 -18 -7 -37 -23 -48
c-32 -23 -71 -34 -115 -34c-72 0 -136 34 -136 113c0 32 13 70 36 93c-148 21 -213 123 -213 261v394c0 52 41 71 92 71z" />
    <glyph glyph-name="Wgrave" unicode="&#x1e80;" horiz-adv-x="920" 
d="M460 429l-86 -359c-12 -49 -43 -70 -94 -70h-68c-51 0 -83 20 -93 70l-106 559c-2 10 -3 18 -3 26c0 42 47 60 92 60c74 0 96 -32 101 -67l60 -383l87 365c12 50 42 70 93 70h34c51 0 81 -20 93 -70l87 -365l60 383c5 35 27 67 101 67c45 0 92 -18 92 -60
c0 -8 -1 -16 -3 -26l-106 -559c-10 -50 -42 -70 -93 -70h-68c-51 0 -82 21 -94 70zM366 783l-52 69c-7 9 -10 18 -10 27c0 25 24 45 66 45c65 0 82 -20 95 -43l42 -77c4 -8 7 -17 7 -24c0 -22 -17 -39 -58 -39c-45 0 -68 13 -90 42z" />
    <glyph glyph-name="Wacute" unicode="&#x1e82;" horiz-adv-x="920" 
d="M460 429l-86 -359c-12 -49 -43 -70 -94 -70h-68c-51 0 -83 20 -93 70l-106 559c-2 10 -3 18 -3 26c0 42 47 60 92 60c74 0 96 -32 101 -67l60 -383l87 365c12 50 42 70 93 70h34c51 0 81 -20 93 -70l87 -365l60 383c5 35 27 67 101 67c45 0 92 -18 92 -60
c0 -8 -1 -16 -3 -26l-106 -559c-10 -50 -42 -70 -93 -70h-68c-51 0 -82 21 -94 70zM603 852l-52 -69c-22 -29 -45 -42 -90 -42c-41 0 -58 17 -58 39c0 7 3 16 7 24l42 77c13 23 34 43 95 43c42 0 66 -20 66 -45c0 -9 -3 -18 -10 -27z" />
    <glyph glyph-name="Wcircumflex" unicode="&#x174;" horiz-adv-x="920" 
d="M460 429l-86 -359c-12 -49 -43 -70 -94 -70h-68c-51 0 -83 20 -93 70l-106 559c-2 10 -3 18 -3 26c0 42 47 60 92 60c74 0 96 -32 101 -67l60 -383l87 365c12 50 42 70 93 70h34c51 0 81 -20 93 -70l87 -365l60 383c5 35 27 67 101 67c45 0 92 -18 92 -60
c0 -8 -1 -16 -3 -26l-106 -559c-10 -50 -42 -70 -93 -70h-68c-51 0 -82 21 -94 70zM455 816l-32 -47c-14 -21 -43 -26 -70 -26c-34 0 -59 12 -59 34c0 6 0 12 5 20l54 81c14 21 22 34 67 34h70c45 0 53 -13 67 -34l54 -81c5 -8 5 -14 5 -20c0 -22 -25 -34 -59 -34
c-27 0 -56 5 -70 26z" />
    <glyph glyph-name="Wdieresis" unicode="&#x1e84;" horiz-adv-x="920" 
d="M460 429l-86 -359c-12 -49 -43 -70 -94 -70h-68c-51 0 -83 20 -93 70l-106 559c-2 10 -3 18 -3 26c0 42 47 60 92 60c74 0 96 -32 101 -67l60 -383l87 365c12 50 42 70 93 70h34c51 0 81 -20 93 -70l87 -365l60 383c5 35 27 67 101 67c45 0 92 -18 92 -60
c0 -8 -1 -16 -3 -26l-106 -559c-10 -50 -42 -70 -93 -70h-68c-51 0 -82 21 -94 70zM369 749c-39 0 -69 14 -69 53v59c0 39 30 54 69 54s68 -15 68 -54v-59c0 -39 -29 -53 -68 -53zM552 749c-39 0 -69 14 -69 53v59c0 39 30 54 69 54s68 -15 68 -54v-59
c0 -39 -29 -53 -68 -53z" />
    <glyph glyph-name="Ygrave" unicode="&#x1ef2;" horiz-adv-x="562" 
d="M282 434l85 225c11 30 33 56 105 56c45 0 83 -18 83 -60c0 -8 0 -16 -4 -26l-178 -398v-176c0 -51 -41 -70 -92 -70s-92 19 -92 70v176l-179 398c-4 10 -4 18 -4 26c0 42 45 60 90 60c69 0 94 -30 106 -63zM193 783l-52 69c-7 9 -10 18 -10 27c0 25 24 45 66 45
c65 0 82 -20 95 -43l42 -77c4 -8 7 -17 7 -24c0 -22 -17 -39 -58 -39c-45 0 -68 13 -90 42z" />
    <glyph glyph-name="Yacute" unicode="&#xdd;" horiz-adv-x="562" 
d="M282 434l85 225c11 30 33 56 105 56c45 0 83 -18 83 -60c0 -8 0 -16 -4 -26l-178 -398v-176c0 -51 -41 -70 -92 -70s-92 19 -92 70v176l-179 398c-4 10 -4 18 -4 26c0 42 45 60 90 60c69 0 94 -30 106 -63zM424 852l-52 -69c-22 -29 -45 -42 -90 -42c-41 0 -58 17 -58 39
c0 7 3 16 7 24l42 77c13 23 34 43 95 43c42 0 66 -20 66 -45c0 -9 -3 -18 -10 -27z" />
    <glyph glyph-name="Ycircumflex" unicode="&#x176;" horiz-adv-x="562" 
d="M282 434l85 225c11 30 33 56 105 56c45 0 83 -18 83 -60c0 -8 0 -16 -4 -26l-178 -398v-176c0 -51 -41 -70 -92 -70s-92 19 -92 70v176l-179 398c-4 10 -4 18 -4 26c0 42 45 60 90 60c69 0 94 -30 106 -63zM281 816l-32 -47c-14 -21 -43 -26 -70 -26c-34 0 -59 12 -59 34
c0 6 0 12 5 20l54 81c14 21 22 34 67 34h70c45 0 53 -13 67 -34l54 -81c5 -8 5 -14 5 -20c0 -22 -25 -34 -59 -34c-27 0 -56 5 -70 26z" />
    <glyph glyph-name="Ydieresis" unicode="&#x178;" horiz-adv-x="562" 
d="M282 434l85 225c11 30 33 56 105 56c45 0 83 -18 83 -60c0 -8 0 -16 -4 -26l-178 -398v-176c0 -51 -41 -70 -92 -70s-92 19 -92 70v176l-179 398c-4 10 -4 18 -4 26c0 42 45 60 90 60c69 0 94 -30 106 -63zM190 749c-39 0 -69 14 -69 53v59c0 39 30 54 69 54
s68 -15 68 -54v-59c0 -39 -29 -53 -68 -53zM373 749c-39 0 -69 14 -69 53v59c0 39 30 54 69 54s68 -15 68 -54v-59c0 -39 -29 -53 -68 -53z" />
    <glyph glyph-name="Zacute" unicode="&#x179;" horiz-adv-x="564" 
d="M288 538h-207c-47 0 -64 35 -64 81c0 45 17 81 64 81h391c47 0 64 -36 64 -82c0 -28 -6 -49 -21 -72l-247 -383h214c46 0 63 -36 63 -81c0 -46 -17 -82 -63 -82h-401c-47 0 -64 34 -64 80c0 28 6 44 21 67zM416 852l-52 -69c-22 -29 -45 -42 -90 -42c-41 0 -58 17 -58 39
c0 7 3 16 7 24l42 77c13 23 34 43 95 43c42 0 66 -20 66 -45c0 -9 -3 -18 -10 -27z" />
    <glyph glyph-name="Zcaron" unicode="&#x17d;" horiz-adv-x="564" 
d="M288 538h-207c-47 0 -64 35 -64 81c0 45 17 81 64 81h391c47 0 64 -36 64 -82c0 -28 -6 -49 -21 -72l-247 -383h214c46 0 63 -36 63 -81c0 -46 -17 -82 -63 -82h-401c-47 0 -64 34 -64 80c0 28 6 44 21 67zM291 851l32 47c14 21 43 26 70 26c34 0 59 -12 59 -34
c0 -6 0 -12 -5 -20l-54 -81c-14 -21 -22 -34 -67 -34h-70c-45 0 -53 13 -67 34l-54 81c-5 8 -5 14 -5 20c0 22 25 34 59 34c27 0 56 -5 70 -26z" />
    <glyph glyph-name="Zdotaccent" unicode="&#x17b;" horiz-adv-x="564" 
d="M288 538h-207c-47 0 -64 35 -64 81c0 45 17 81 64 81h391c47 0 64 -36 64 -82c0 -28 -6 -49 -21 -72l-247 -383h214c46 0 63 -36 63 -81c0 -46 -17 -82 -63 -82h-401c-47 0 -64 34 -64 80c0 28 6 44 21 67zM282 751c-39 0 -69 14 -69 53v59c0 39 30 54 69 54
s68 -15 68 -54v-59c0 -39 -29 -53 -68 -53z" />
    <glyph glyph-name="Eng" unicode="&#x14a;" horiz-adv-x="696" 
d="M397 -30c8 0 15 -1 23 -1c17 0 35 10 37 37c-21 16 -37 39 -52 68l-165 309v-330c0 -49 -40 -68 -90 -68s-90 19 -90 68v593c0 50 52 69 102 69c65 0 93 -22 117 -69l177 -346v346c0 50 40 69 90 69s90 -19 90 -69v-657c0 -121 -71 -190 -172 -190c-60 0 -121 7 -121 79
c0 35 8 92 54 92z" />
    <glyph glyph-name="Eth" unicode="&#xd0;" horiz-adv-x="658" 
d="M163 700h185c189 0 290 -105 290 -339c0 -257 -106 -361 -294 -361h-181c-51 0 -92 19 -92 70v208h-15c-42 0 -56 32 -56 72c0 39 14 72 56 72h15v207c0 52 41 71 92 71zM255 535v-113h59c41 0 56 -33 56 -72c0 -40 -15 -72 -56 -72h-59v-113h84c72 0 110 22 110 193
c0 155 -38 177 -110 177h-84z" />
    <glyph glyph-name="Thorn" unicode="&#xde;" horiz-adv-x="569" 
d="M152 -15c-51 0 -92 19 -92 70v589c0 52 41 71 92 71s92 -19 92 -71v-34h33c188 0 262 -50 262 -233c0 -176 -77 -256 -246 -256c-21 0 -37 1 -49 4v-70c0 -51 -41 -70 -92 -70zM244 455v-177c6 -1 14 -2 27 -2c58 0 87 14 87 87c0 78 -24 92 -81 92h-33z" />
    <glyph glyph-name="a" unicode="a" horiz-adv-x="542" 
d="M281 328v38c0 35 -10 48 -40 48c-31 0 -37 -25 -43 -35c-8 -14 -24 -29 -51 -29c-60 0 -103 11 -103 61c0 8 3 20 5 27c21 71 107 115 203 115c155 0 216 -75 216 -176v-209c0 -18 10 -30 26 -30c18 0 21 11 40 11c17 0 26 -13 26 -55c0 -75 -56 -109 -132 -109
c-42 0 -102 21 -111 75c-35 -48 -91 -75 -149 -75c-77 0 -150 48 -150 157c0 123 117 186 263 186zM281 148v80c-42 -3 -87 -16 -87 -54c0 -25 15 -39 41 -39c18 0 28 4 46 13z" />
    <glyph glyph-name="b" unicode="b" horiz-adv-x="565" 
d="M76 51c-12 8 -23 24 -23 45v588c0 52 41 67 93 67c53 0 94 -15 94 -67v-168c37 18 86 34 130 34c98 0 172 -51 172 -270c0 -238 -129 -292 -263 -292c-73 0 -146 25 -203 63zM240 397v-245c16 -11 31 -16 52 -16c36 0 58 20 58 144c0 108 -21 125 -62 125
c-16 0 -29 -4 -48 -8z" />
    <glyph glyph-name="c" unicode="c" horiz-adv-x="486" 
d="M469 110c0 -44 -14 -74 -43 -88c-50 -24 -92 -37 -163 -37c-154 0 -240 81 -240 287c0 212 79 281 245 281c130 0 200 -70 200 -179c0 -43 -50 -57 -98 -57c-105 0 -34 88 -103 88c-37 0 -51 -20 -51 -136c0 -105 34 -131 85 -131c77 0 107 30 126 30s42 -16 42 -58z" />
    <glyph glyph-name="d" unicode="d" horiz-adv-x="583" 
d="M323 531v153c0 52 41 67 93 67c53 0 94 -15 94 -67v-516c0 -18 10 -30 26 -30c18 0 27 11 41 11c20 0 28 -13 28 -55c0 -81 -59 -109 -135 -109c-42 0 -103 22 -112 78c-43 -45 -93 -78 -152 -78c-96 0 -183 92 -183 281c0 185 72 287 198 287c40 0 75 -10 102 -22z
M323 396c-13 3 -29 9 -47 9c-36 0 -60 -10 -60 -125c0 -80 25 -125 57 -125c18 0 32 5 50 17v224z" />
    <glyph glyph-name="e" unicode="e" horiz-adv-x="495" 
d="M218 223c4 -71 37 -95 89 -95c57 0 100 35 129 35c22 0 33 -18 33 -55c0 -44 -14 -74 -43 -88c-50 -24 -92 -35 -166 -35c-141 0 -237 80 -237 279c0 201 88 289 240 289c155 0 211 -97 211 -239v-29c0 -40 -12 -62 -54 -62h-202zM218 321h83c0 62 -7 84 -43 84
s-40 -30 -40 -84z" />
    <glyph glyph-name="f" unicode="f" horiz-adv-x="380" 
d="M272 538h88c32 0 44 -20 44 -49c0 -40 -18 -94 -69 -94h-63v-441c0 -121 -75 -166 -165 -166c-57 0 -132 4 -132 83c0 45 4 82 40 82c10 0 24 -5 39 -5c19 0 36 15 36 47v400h-18c-41 0 -56 32 -56 71c0 40 15 72 56 72h18v30c0 150 90 211 223 211c31 0 55 -3 82 -11
s45 -25 45 -60c0 -30 -3 -87 -47 -87c-23 0 -29 6 -55 6c-36 0 -66 -12 -66 -51v-38z" />
    <glyph glyph-name="g" unicode="g" horiz-adv-x="494" 
d="M511 465c0 -40 -11 -71 -52 -71h-9c3 -13 6 -27 6 -47c0 -133 -85 -209 -211 -209c-18 0 -35 1 -48 4c-12 -8 -22 -15 -22 -29c1 -47 308 19 308 -172c0 -133 -104 -200 -259 -200c-174 0 -234 66 -234 145c0 52 24 89 64 103c-27 21 -41 42 -41 88c0 57 44 95 83 119
c-40 34 -64 86 -64 152c0 124 71 205 214 205c31 0 59 -7 84 -15h129c41 0 52 -33 52 -73zM245 429c-28 0 -45 -19 -45 -81c0 -60 17 -83 45 -83c26 0 42 23 42 82c0 66 -16 82 -42 82zM176 -47c-12 -7 -22 -24 -22 -41c0 -30 41 -43 84 -43c42 0 74 14 74 36
c0 40 -76 39 -136 48z" />
    <glyph glyph-name="h" unicode="h" horiz-adv-x="574" 
d="M240 511c36 25 82 42 135 42c98 0 156 -50 156 -170v-332c0 -51 -41 -66 -94 -66c-52 0 -93 15 -93 66v293c0 33 -23 44 -55 44c-14 0 -36 -3 -49 -6v-331c0 -51 -41 -66 -94 -66c-52 0 -93 15 -93 66v633c0 52 41 67 93 67c53 0 94 -15 94 -67v-173z" />
    <glyph glyph-name="i" unicode="i" horiz-adv-x="293" 
d="M146 -15c-52 0 -93 15 -93 66v435c0 52 41 67 93 67c53 0 94 -15 94 -67v-435c0 -51 -41 -66 -94 -66zM146 587c-52 0 -93 15 -93 66v46c0 52 41 67 93 67c53 0 94 -15 94 -67v-46c0 -51 -41 -66 -94 -66z" />
    <glyph glyph-name="j" unicode="j" horiz-adv-x="293" 
d="M240 486v-532c0 -121 -80 -166 -170 -166c-57 0 -132 4 -132 83c0 45 4 82 40 82c10 0 24 -5 39 -5c19 0 36 15 36 47v491c0 52 41 67 93 67c53 0 94 -15 94 -67zM146 587c-52 0 -93 15 -93 66v46c0 52 41 67 93 67c53 0 94 -15 94 -67v-46c0 -51 -41 -66 -94 -66z" />
    <glyph glyph-name="k" unicode="k" horiz-adv-x="533" 
d="M242 361l103 154c14 21 38 38 95 38c40 0 84 -12 84 -48c0 -8 -2 -18 -9 -29l-103 -156l124 -247c5 -11 8 -21 8 -31c0 -35 -36 -57 -83 -57c-57 0 -104 19 -124 63l-73 157l-22 -31v-123c0 -51 -41 -66 -94 -66c-52 0 -93 15 -93 66v633c0 52 41 67 93 67
c53 0 94 -15 94 -67v-323z" />
    <glyph glyph-name="l" unicode="l" horiz-adv-x="338" 
d="M293 -1c-25 -11 -43 -15 -83 -15c-90 0 -160 56 -160 172v528c0 52 41 67 93 67c53 0 94 -15 94 -67v-497c0 -29 15 -39 37 -39c16 0 23 6 35 6c17 0 29 -12 29 -45c0 -55 -9 -94 -45 -110z" />
    <glyph glyph-name="m" unicode="m" horiz-adv-x="858" 
d="M434 -15c-52 0 -93 15 -93 66v293c0 33 -25 44 -52 44c-14 0 -36 -3 -49 -6v-331c0 -51 -41 -66 -94 -66c-52 0 -93 15 -93 66v445c0 44 35 57 79 57c46 0 81 -13 81 -57v-5c39 35 92 62 159 62c61 0 106 -19 131 -60c39 33 91 60 156 60c98 0 156 -50 156 -170v-332
c0 -51 -41 -66 -94 -66c-52 0 -93 15 -93 66v293c0 33 -20 44 -51 44c-15 0 -36 -3 -49 -6v-331c0 -51 -41 -66 -94 -66z" />
    <glyph glyph-name="n" unicode="n" horiz-adv-x="575" 
d="M438 -15c-52 0 -93 15 -93 66v293c0 33 -23 44 -55 44c-14 0 -36 -3 -50 -6v-331c0 -51 -41 -66 -94 -66c-52 0 -93 15 -93 66v445c0 44 35 57 79 57c46 0 81 -13 81 -57v-6c39 35 96 63 163 63c98 0 156 -50 156 -170v-332c0 -51 -41 -66 -94 -66z" />
    <glyph glyph-name="o" unicode="o" horiz-adv-x="551" 
d="M275 553c163 0 253 -88 253 -285c0 -196 -97 -283 -253 -283c-159 0 -252 87 -252 283c0 197 92 285 252 285zM275 410c-41 0 -62 -37 -62 -142c0 -104 21 -140 62 -140c42 0 63 36 63 140c0 105 -21 142 -63 142z" />
    <glyph glyph-name="p" unicode="p" horiz-adv-x="576" 
d="M213 482c32 33 84 71 157 71c109 0 183 -54 183 -273c0 -218 -94 -295 -235 -295c-21 0 -57 4 -78 11v-142c0 -51 -41 -66 -94 -66c-52 0 -93 15 -93 66v642c0 44 35 57 79 57c46 0 81 -13 81 -57v-14zM240 382v-237c19 -6 33 -9 52 -9c36 0 64 20 64 144
c0 108 -29 108 -68 108c-16 0 -29 -2 -48 -6z" />
    <glyph glyph-name="q" unicode="q" horiz-adv-x="549" 
d="M322 18c-33 -19 -62 -33 -102 -33c-108 0 -197 70 -197 281c0 185 80 287 207 287c53 0 88 -22 120 -45c6 34 38 45 78 45c37 0 81 -3 81 -53v-646c0 -51 -41 -66 -94 -66c-52 0 -93 15 -93 66v164zM322 151v226c-15 8 -29 12 -41 12c-58 0 -65 -59 -65 -126
c0 -111 27 -125 54 -125c19 0 35 3 52 13z" />
    <glyph glyph-name="r" unicode="r" horiz-adv-x="462" 
d="M148 -15c-52 0 -93 15 -93 66v445c0 44 35 57 79 57c46 0 81 -13 81 -57v-17c45 55 79 74 136 74c98 0 111 -81 111 -165c0 -45 -40 -61 -78 -61c-43 0 -71 6 -77 38c-4 23 -13 30 -27 30c-13 0 -26 -14 -38 -34v-310c0 -51 -41 -66 -94 -66z" />
    <glyph glyph-name="s" unicode="s" horiz-adv-x="468" 
d="M246 553c101 0 161 -37 188 -95c5 -11 9 -23 9 -36c0 -51 -51 -66 -97 -66c-26 0 -50 7 -59 30c-7 19 -17 28 -44 28c-23 0 -39 -10 -39 -28c0 -65 240 -69 240 -237c0 -97 -69 -164 -214 -164c-103 0 -211 28 -211 99c0 67 32 87 54 87c13 0 24 -4 30 -7
c43 -23 84 -36 116 -36c20 0 35 7 35 23c0 57 -225 56 -225 228c0 101 72 174 217 174z" />
    <glyph glyph-name="t" unicode="t" horiz-adv-x="403" 
d="M396 489c0 -40 -18 -94 -69 -94h-62v-200c0 -22 10 -43 42 -43c16 0 32 7 51 7c37 0 45 -45 45 -80c0 -25 -8 -49 -28 -63c-42 -29 -84 -31 -140 -31c-113 0 -157 84 -157 183v227h-27c-41 0 -56 32 -56 71c0 40 15 72 56 72h33v68c0 51 40 65 90 65c51 0 91 -14 91 -65
v-68h87c32 0 44 -20 44 -49z" />
    <glyph glyph-name="u" unicode="u" horiz-adv-x="540" 
d="M270 -15c-126 0 -235 58 -235 191v310c0 52 41 67 93 67c53 0 94 -15 94 -67v-300c0 -39 16 -58 48 -58s48 19 48 58v300c0 52 41 67 93 67c53 0 94 -15 94 -67v-310c0 -133 -109 -191 -235 -191z" />
    <glyph glyph-name="v" unicode="v" horiz-adv-x="504" 
d="M495 471l-118 -414c-12 -41 -26 -57 -61 -57h-106c-45 0 -67 19 -78 55l-122 409c-3 10 -4 19 -4 27c0 49 45 62 95 62c53 0 89 -16 102 -75l61 -284l56 290c11 54 47 69 95 69c46 0 84 -13 84 -58c0 -7 -1 -15 -4 -24z" />
    <glyph glyph-name="w" unicode="w" horiz-adv-x="792" 
d="M396 329l-54 -272c-8 -42 -26 -57 -61 -57h-87c-45 0 -68 19 -78 55l-109 409c-3 10 -4 19 -4 27c0 49 45 62 95 62c53 0 88 -15 98 -75l43 -261l57 273c8 37 26 48 84 48h32c58 0 76 -11 84 -48l57 -273l43 261c10 60 45 75 98 75c50 0 95 -13 95 -62
c0 -8 -1 -17 -4 -27l-109 -409c-10 -36 -33 -55 -78 -55h-87c-35 0 -53 15 -61 57z" />
    <glyph glyph-name="x" unicode="x" horiz-adv-x="501" 
d="M254 389l45 95c25 52 53 69 101 69c56 0 82 -13 82 -58c0 -11 -3 -21 -6 -26l-116 -193l106 -200c2 -4 6 -13 6 -28c0 -49 -30 -63 -90 -63c-53 0 -81 19 -107 75l-38 83l-48 -97c-17 -34 -36 -61 -97 -61c-64 0 -83 20 -83 53c0 9 2 19 7 29l116 199l-102 197
c-3 6 -6 19 -6 27c0 49 32 63 92 63c53 0 77 -18 101 -75z" />
    <glyph glyph-name="y" unicode="y" horiz-adv-x="508" 
d="M260 239l64 245c14 54 43 69 95 69c50 0 81 -15 81 -58c0 -7 -1 -15 -4 -24l-141 -437c-57 -178 -124 -246 -269 -246c-50 0 -133 14 -133 74c0 43 11 97 53 97c30 0 39 -13 69 -13c48 0 64 7 87 63l9 22l-167 433c-4 10 -4 19 -4 27c0 49 37 62 91 62
c57 0 86 -17 102 -75z" />
    <glyph glyph-name="z" unicode="z" horiz-adv-x="466" 
d="M17 70c0 24 8 48 25 72l179 251h-149c-42 0 -57 32 -57 72s15 73 57 73h321c41 0 58 -29 58 -70c0 -34 -14 -62 -23 -75l-174 -248h152c42 0 57 -32 57 -72s-15 -73 -57 -73h-331c-41 0 -58 29 -58 70z" />
    <glyph glyph-name="agrave" unicode="&#xe0;" horiz-adv-x="542" 
d="M281 328v38c0 35 -10 48 -40 48c-31 0 -37 -25 -43 -35c-8 -14 -24 -29 -51 -29c-60 0 -103 11 -103 61c0 8 3 20 5 27c21 71 107 115 203 115c155 0 216 -75 216 -176v-209c0 -18 10 -30 26 -30c18 0 21 11 40 11c17 0 26 -13 26 -55c0 -75 -56 -109 -132 -109
c-42 0 -102 21 -111 75c-35 -48 -91 -75 -149 -75c-77 0 -150 48 -150 157c0 123 117 186 263 186zM281 148v80c-42 -3 -87 -16 -87 -54c0 -25 15 -39 41 -39c18 0 28 4 46 13zM166 621l-52 69c-7 9 -10 18 -10 27c0 25 24 45 66 45c65 0 82 -20 95 -43l42 -77
c4 -8 7 -17 7 -24c0 -22 -17 -39 -58 -39c-45 0 -68 13 -90 42z" />
    <glyph glyph-name="aacute" unicode="&#xe1;" horiz-adv-x="542" 
d="M281 328v38c0 35 -10 48 -40 48c-31 0 -37 -25 -43 -35c-8 -14 -24 -29 -51 -29c-60 0 -103 11 -103 61c0 8 3 20 5 27c21 71 107 115 203 115c155 0 216 -75 216 -176v-209c0 -18 10 -30 26 -30c18 0 21 11 40 11c17 0 26 -13 26 -55c0 -75 -56 -109 -132 -109
c-42 0 -102 21 -111 75c-35 -48 -91 -75 -149 -75c-77 0 -150 48 -150 157c0 123 117 186 263 186zM281 148v80c-42 -3 -87 -16 -87 -54c0 -25 15 -39 41 -39c18 0 28 4 46 13zM410 690l-52 -69c-22 -29 -45 -42 -90 -42c-41 0 -58 17 -58 39c0 7 3 16 7 24l42 77
c13 23 34 43 95 43c42 0 66 -20 66 -45c0 -9 -3 -18 -10 -27z" />
    <glyph glyph-name="acircumflex" unicode="&#xe2;" horiz-adv-x="542" 
d="M281 328v38c0 35 -10 48 -40 48c-31 0 -37 -25 -43 -35c-8 -14 -24 -29 -51 -29c-60 0 -103 11 -103 61c0 8 3 20 5 27c21 71 107 115 203 115c155 0 216 -75 216 -176v-209c0 -18 10 -30 26 -30c18 0 21 11 40 11c17 0 26 -13 26 -55c0 -75 -56 -109 -132 -109
c-42 0 -102 21 -111 75c-35 -48 -91 -75 -149 -75c-77 0 -150 48 -150 157c0 123 117 186 263 186zM281 148v80c-42 -3 -87 -16 -87 -54c0 -25 15 -39 41 -39c18 0 28 4 46 13zM262 654l-32 -47c-14 -21 -43 -26 -70 -26c-34 0 -59 12 -59 34c0 6 0 12 5 20l54 81
c14 21 22 34 67 34h70c45 0 53 -13 67 -34l54 -81c5 -8 5 -14 5 -20c0 -22 -25 -34 -59 -34c-27 0 -56 5 -70 26z" />
    <glyph glyph-name="atilde" unicode="&#xe3;" horiz-adv-x="542" 
d="M281 328v38c0 35 -10 48 -40 48c-31 0 -37 -25 -43 -35c-8 -14 -24 -29 -51 -29c-60 0 -103 11 -103 61c0 8 3 20 5 27c21 71 107 115 203 115c155 0 216 -75 216 -176v-209c0 -18 10 -30 26 -30c18 0 21 11 40 11c17 0 26 -13 26 -55c0 -75 -56 -109 -132 -109
c-42 0 -102 21 -111 75c-35 -48 -91 -75 -149 -75c-77 0 -150 48 -150 157c0 123 117 186 263 186zM281 148v80c-42 -3 -87 -16 -87 -54c0 -25 15 -39 41 -39c18 0 28 4 46 13zM313 592c-44 0 -89 27 -113 27c-36 0 -14 -28 -67 -28c-23 0 -59 15 -59 52c0 59 49 99 104 99
c44 0 89 -27 113 -27c36 0 24 28 64 28c23 0 61 -11 61 -51c0 -63 -49 -100 -103 -100z" />
    <glyph glyph-name="adieresis" unicode="&#xe4;" horiz-adv-x="542" 
d="M281 328v38c0 35 -10 48 -40 48c-31 0 -37 -25 -43 -35c-8 -14 -24 -29 -51 -29c-60 0 -103 11 -103 61c0 8 3 20 5 27c21 71 107 115 203 115c155 0 216 -75 216 -176v-209c0 -18 10 -30 26 -30c18 0 21 11 40 11c17 0 26 -13 26 -55c0 -75 -56 -109 -132 -109
c-42 0 -102 21 -111 75c-35 -48 -91 -75 -149 -75c-77 0 -150 48 -150 157c0 123 117 186 263 186zM281 148v80c-42 -3 -87 -16 -87 -54c0 -25 15 -39 41 -39c18 0 28 4 46 13zM171 589c-39 0 -69 14 -69 53v59c0 39 30 54 69 54s68 -15 68 -54v-59c0 -39 -29 -53 -68 -53z
M354 589c-39 0 -69 14 -69 53v59c0 39 30 54 69 54s68 -15 68 -54v-59c0 -39 -29 -53 -68 -53z" />
    <glyph glyph-name="amacron" unicode="&#x101;" horiz-adv-x="542" 
d="M281 328v38c0 35 -10 48 -40 48c-31 0 -37 -25 -43 -35c-8 -14 -24 -29 -51 -29c-60 0 -103 11 -103 61c0 8 3 20 5 27c21 71 107 115 203 115c155 0 216 -75 216 -176v-209c0 -18 10 -30 26 -30c18 0 21 11 40 11c17 0 26 -13 26 -55c0 -75 -56 -109 -132 -109
c-42 0 -102 21 -111 75c-35 -48 -91 -75 -149 -75c-77 0 -150 48 -150 157c0 123 117 186 263 186zM281 148v80c-42 -3 -87 -16 -87 -54c0 -25 15 -39 41 -39c18 0 28 4 46 13zM428 671c0 -35 -13 -64 -49 -64h-230c-37 0 -50 29 -50 64s13 64 50 64h230c36 0 49 -29 49 -64
z" />
    <glyph glyph-name="abreve" unicode="&#x103;" horiz-adv-x="542" 
d="M281 328v38c0 35 -10 48 -40 48c-31 0 -37 -25 -43 -35c-8 -14 -24 -29 -51 -29c-60 0 -103 11 -103 61c0 8 3 20 5 27c21 71 107 115 203 115c155 0 216 -75 216 -176v-209c0 -18 10 -30 26 -30c18 0 21 11 40 11c17 0 26 -13 26 -55c0 -75 -56 -109 -132 -109
c-42 0 -102 21 -111 75c-35 -48 -91 -75 -149 -75c-77 0 -150 48 -150 157c0 123 117 186 263 186zM281 148v80c-42 -3 -87 -16 -87 -54c0 -25 15 -39 41 -39c18 0 28 4 46 13zM261 589c-91 0 -161 55 -161 133c0 33 23 44 58 44s52 -11 58 -35c6 -23 25 -31 45 -31
s39 8 45 31c6 24 23 35 58 35s58 -11 58 -44c0 -78 -70 -133 -161 -133z" />
    <glyph glyph-name="aring" unicode="&#xe5;" horiz-adv-x="542" 
d="M281 328v38c0 35 -10 48 -40 48c-31 0 -37 -25 -43 -35c-8 -14 -24 -29 -51 -29c-60 0 -103 11 -103 61c0 8 3 20 5 27c21 71 107 115 203 115c155 0 216 -75 216 -176v-209c0 -18 10 -30 26 -30c18 0 21 11 40 11c17 0 26 -13 26 -55c0 -75 -56 -109 -132 -109
c-42 0 -102 21 -111 75c-35 -48 -91 -75 -149 -75c-77 0 -150 48 -150 157c0 123 117 186 263 186zM281 148v80c-42 -3 -87 -16 -87 -54c0 -25 15 -39 41 -39c18 0 28 4 46 13zM382 671c0 -57 -47 -101 -120 -101s-120 44 -120 101s47 101 120 101s120 -44 120 -101z
M294 671c0 20 -10 30 -32 30s-32 -10 -32 -30s10 -30 32 -30s32 10 32 30z" />
    <glyph glyph-name="aringacute" unicode="&#x1fb;" horiz-adv-x="542" 
d="M396 671c0 -57 -47 -101 -120 -101s-120 44 -120 101c0 35 18 65 49 83l49 92c14 26 39 35 78 35c38 0 64 -14 64 -35c0 -6 -3 -14 -8 -21l-54 -69c38 -11 62 -43 62 -85zM308 671c0 20 -10 30 -32 30s-32 -10 -32 -30s10 -30 32 -30s32 10 32 30zM281 328v38
c0 35 -10 48 -40 48c-31 0 -37 -25 -43 -35c-8 -14 -24 -29 -51 -29c-60 0 -103 11 -103 61c0 8 3 20 5 27c21 71 107 115 203 115c155 0 216 -75 216 -176v-209c0 -18 10 -30 26 -30c18 0 21 11 40 11c17 0 26 -13 26 -55c0 -75 -56 -109 -132 -109c-42 0 -102 21 -111 75
c-35 -48 -91 -75 -149 -75c-77 0 -150 48 -150 157c0 123 117 186 263 186zM281 148v80c-42 -3 -87 -16 -87 -54c0 -25 15 -39 41 -39c18 0 28 4 46 13z" />
    <glyph glyph-name="aogonek" unicode="&#x105;" horiz-adv-x="542" 
d="M560 94c0 -44 -23 -76 -55 -93c-36 -19 -56 -46 -56 -67c0 -16 9 -24 25 -24c22 0 27 14 50 14c29 0 49 -30 49 -59c0 -18 -7 -37 -23 -48c-32 -23 -71 -34 -115 -34c-72 0 -136 34 -136 113c0 35 14 81 52 112c-17 12 -30 29 -34 52c-35 -48 -91 -75 -149 -75
c-77 0 -150 48 -150 157c0 123 117 186 263 186v38c0 35 -10 48 -40 48c-31 0 -37 -25 -43 -35c-8 -14 -24 -29 -51 -29c-60 0 -103 11 -103 61c0 8 3 20 5 27c21 71 107 115 203 115c155 0 216 -75 216 -176v-209c0 -18 10 -30 26 -30c18 0 21 11 40 11c17 0 26 -13 26 -55
zM281 148v80c-42 -3 -87 -16 -87 -54c0 -25 15 -39 41 -39c18 0 28 4 46 13z" />
    <glyph glyph-name="ae" unicode="&#xe6;" horiz-adv-x="724" 
d="M447 223c4 -71 37 -95 89 -95c57 0 100 35 129 35c22 0 33 -18 33 -55c0 -44 -14 -74 -43 -88c-50 -24 -92 -35 -166 -35c-75 0 -129 23 -163 70c-34 -37 -74 -70 -158 -70c-77 0 -150 48 -150 157c0 123 116 186 263 186v38c0 35 -10 48 -40 48c-31 0 -37 -25 -43 -35
c-9 -15 -25 -29 -56 -29c-40 0 -98 5 -98 60c0 6 1 14 3 21c21 80 109 122 205 122c58 0 96 -12 121 -30c30 19 69 30 119 30c155 0 211 -97 211 -239v-29c0 -40 -12 -62 -54 -62h-202zM280 228c-42 -3 -86 -16 -86 -54c0 -25 15 -39 41 -39c23 0 38 9 53 20
c-4 22 -7 46 -8 73zM447 321h83c0 62 -7 84 -43 84s-40 -30 -40 -84z" />
    <glyph glyph-name="aeacute" unicode="&#x1fd;" horiz-adv-x="724" 
d="M447 223c4 -71 37 -95 89 -95c57 0 100 35 129 35c22 0 33 -18 33 -55c0 -44 -14 -74 -43 -88c-50 -24 -92 -35 -166 -35c-75 0 -129 23 -163 70c-34 -37 -74 -70 -158 -70c-77 0 -150 48 -150 157c0 123 116 186 263 186v38c0 35 -10 48 -40 48c-31 0 -37 -25 -43 -35
c-9 -15 -25 -29 -56 -29c-40 0 -98 5 -98 60c0 6 1 14 3 21c21 80 109 122 205 122c58 0 96 -12 121 -30c30 19 69 30 119 30c155 0 211 -97 211 -239v-29c0 -40 -12 -62 -54 -62h-202zM280 228c-42 -3 -86 -16 -86 -54c0 -25 15 -39 41 -39c23 0 38 9 53 20
c-4 22 -7 46 -8 73zM447 321h83c0 62 -7 84 -43 84s-40 -30 -40 -84zM530 690l-52 -69c-22 -29 -45 -42 -90 -42c-41 0 -58 17 -58 39c0 7 3 16 7 24l42 77c13 23 34 43 95 43c42 0 66 -20 66 -45c0 -9 -3 -18 -10 -27z" />
    <glyph glyph-name="cacute" unicode="&#x107;" horiz-adv-x="486" 
d="M469 110c0 -44 -14 -74 -43 -88c-50 -24 -92 -37 -163 -37c-154 0 -240 81 -240 287c0 212 79 281 245 281c130 0 200 -70 200 -179c0 -43 -50 -57 -98 -57c-105 0 -34 88 -103 88c-37 0 -51 -20 -51 -136c0 -105 34 -131 85 -131c77 0 107 30 126 30s42 -16 42 -58z
M396 690l-52 -69c-22 -29 -45 -42 -90 -42c-41 0 -58 17 -58 39c0 7 3 16 7 24l42 77c13 23 34 43 95 43c42 0 66 -20 66 -45c0 -9 -3 -18 -10 -27z" />
    <glyph glyph-name="ccircumflex" unicode="&#x109;" horiz-adv-x="486" 
d="M469 110c0 -44 -14 -74 -43 -88c-50 -24 -92 -37 -163 -37c-154 0 -240 81 -240 287c0 212 79 281 245 281c130 0 200 -70 200 -179c0 -43 -50 -57 -98 -57c-105 0 -34 88 -103 88c-37 0 -51 -20 -51 -136c0 -105 34 -131 85 -131c77 0 107 30 126 30s42 -16 42 -58z
M258 654l-32 -47c-14 -21 -43 -26 -70 -26c-34 0 -59 12 -59 34c0 6 0 12 5 20l54 81c14 21 22 34 67 34h70c45 0 53 -13 67 -34l54 -81c5 -8 5 -14 5 -20c0 -22 -25 -34 -59 -34c-27 0 -56 5 -70 26z" />
    <glyph glyph-name="ccaron" unicode="&#x10d;" horiz-adv-x="486" 
d="M469 110c0 -44 -14 -74 -43 -88c-50 -24 -92 -37 -163 -37c-154 0 -240 81 -240 287c0 212 79 281 245 281c130 0 200 -70 200 -179c0 -43 -50 -57 -98 -57c-105 0 -34 88 -103 88c-37 0 -51 -20 -51 -136c0 -105 34 -131 85 -131c77 0 107 30 126 30s42 -16 42 -58z
M257 688l32 47c14 21 43 26 70 26c34 0 59 -12 59 -34c0 -6 0 -12 -5 -20l-54 -81c-14 -21 -22 -34 -67 -34h-70c-45 0 -53 13 -67 34l-54 81c-5 8 -5 14 -5 20c0 22 25 34 59 34c27 0 56 -5 70 -26z" />
    <glyph glyph-name="cdotaccent" unicode="&#x10b;" horiz-adv-x="486" 
d="M469 110c0 -44 -14 -74 -43 -88c-50 -24 -92 -37 -163 -37c-154 0 -240 81 -240 287c0 212 79 281 245 281c130 0 200 -70 200 -179c0 -43 -50 -57 -98 -57c-105 0 -34 88 -103 88c-37 0 -51 -20 -51 -136c0 -105 34 -131 85 -131c77 0 107 30 126 30s42 -16 42 -58z
M257 589c-39 0 -69 14 -69 53v59c0 39 30 54 69 54s68 -15 68 -54v-59c0 -39 -29 -53 -68 -53z" />
    <glyph glyph-name="ccedilla" unicode="&#xe7;" horiz-adv-x="486" 
d="M346 -8c15 -22 22 -55 22 -78c0 -70 -59 -126 -143 -126c-62 0 -107 18 -133 42c-12 12 -16 24 -16 40c0 30 25 59 54 59c12 0 18 -3 29 -10c10 -7 22 -9 30 -9c19 0 31 10 31 33c0 17 -8 32 -18 47c-116 20 -179 105 -179 282c0 212 79 281 245 281
c130 0 200 -70 200 -179c0 -43 -50 -57 -98 -57c-105 0 -34 88 -103 88c-37 0 -51 -20 -51 -136c0 -105 34 -131 85 -131c77 0 107 30 126 30s42 -16 42 -58c0 -44 -14 -74 -43 -88c-28 -14 -47 -23 -80 -30z" />
    <glyph glyph-name="dcaron" unicode="&#x10f;" horiz-adv-x="644" 
d="M574 661c6 37 37 54 75 54c31 0 60 -15 60 -44c0 -6 -2 -12 -4 -19l-54 -165c-9 -28 -33 -39 -56 -39c-30 0 -50 15 -50 40c0 2 0 4 1 7zM323 531v153c0 52 41 67 93 67c53 0 94 -15 94 -67v-516c0 -18 10 -30 26 -30c18 0 27 11 41 11c20 0 28 -13 28 -55
c0 -81 -59 -109 -135 -109c-42 0 -103 22 -112 78c-43 -45 -93 -78 -152 -78c-96 0 -183 92 -183 281c0 185 72 287 198 287c40 0 75 -10 102 -22zM323 396c-13 3 -29 9 -47 9c-36 0 -60 -10 -60 -125c0 -80 25 -125 57 -125c18 0 32 5 50 17v224z" />
    <glyph glyph-name="dcroat" unicode="&#x111;" horiz-adv-x="583" 
d="M323 531v69h-136c-25 0 -34 19 -34 42c0 24 9 43 34 43h136c0 51 41 66 93 66s93 -15 94 -66h61c24 0 32 -19 32 -43c0 -23 -8 -42 -32 -42h-61v-432c0 -18 10 -30 26 -30c18 0 27 11 41 11c20 0 28 -13 28 -55c0 -81 -59 -109 -135 -109c-42 0 -103 22 -112 78
c-43 -45 -93 -78 -152 -78c-96 0 -183 92 -183 281c0 185 72 287 198 287c40 0 75 -10 102 -22zM323 396c-13 3 -29 9 -47 9c-36 0 -60 -10 -60 -125c0 -80 25 -125 57 -125c18 0 32 5 50 17v224z" />
    <glyph glyph-name="egrave" unicode="&#xe8;" horiz-adv-x="495" 
d="M218 223c4 -71 37 -95 89 -95c57 0 100 35 129 35c22 0 33 -18 33 -55c0 -44 -14 -74 -43 -88c-50 -24 -92 -35 -166 -35c-141 0 -237 80 -237 279c0 201 88 289 240 289c155 0 211 -97 211 -239v-29c0 -40 -12 -62 -54 -62h-202zM218 321h83c0 62 -7 84 -43 84
s-40 -30 -40 -84zM172 621l-52 69c-7 9 -10 18 -10 27c0 25 24 45 66 45c65 0 82 -20 95 -43l42 -77c4 -8 7 -17 7 -24c0 -22 -17 -39 -58 -39c-45 0 -68 13 -90 42z" />
    <glyph glyph-name="eacute" unicode="&#xe9;" horiz-adv-x="495" 
d="M218 223c4 -71 37 -95 89 -95c57 0 100 35 129 35c22 0 33 -18 33 -55c0 -44 -14 -74 -43 -88c-50 -24 -92 -35 -166 -35c-141 0 -237 80 -237 279c0 201 88 289 240 289c155 0 211 -97 211 -239v-29c0 -40 -12 -62 -54 -62h-202zM218 321h83c0 62 -7 84 -43 84
s-40 -30 -40 -84zM401 690l-52 -69c-22 -29 -45 -42 -90 -42c-41 0 -58 17 -58 39c0 7 3 16 7 24l42 77c13 23 34 43 95 43c42 0 66 -20 66 -45c0 -9 -3 -18 -10 -27z" />
    <glyph glyph-name="ecircumflex" unicode="&#xea;" horiz-adv-x="495" 
d="M218 223c4 -71 37 -95 89 -95c57 0 100 35 129 35c22 0 33 -18 33 -55c0 -44 -14 -74 -43 -88c-50 -24 -92 -35 -166 -35c-141 0 -237 80 -237 279c0 201 88 289 240 289c155 0 211 -97 211 -239v-29c0 -40 -12 -62 -54 -62h-202zM218 321h83c0 62 -7 84 -43 84
s-40 -30 -40 -84zM252 654l-32 -47c-14 -21 -43 -26 -70 -26c-34 0 -59 12 -59 34c0 6 0 12 5 20l54 81c14 21 22 34 67 34h70c45 0 53 -13 67 -34l54 -81c5 -8 5 -14 5 -20c0 -22 -25 -34 -59 -34c-27 0 -56 5 -70 26z" />
    <glyph glyph-name="ecaron" unicode="&#x11b;" horiz-adv-x="495" 
d="M218 223c4 -71 37 -95 89 -95c57 0 100 35 129 35c22 0 33 -18 33 -55c0 -44 -14 -74 -43 -88c-50 -24 -92 -35 -166 -35c-141 0 -237 80 -237 279c0 201 88 289 240 289c155 0 211 -97 211 -239v-29c0 -40 -12 -62 -54 -62h-202zM218 321h83c0 62 -7 84 -43 84
s-40 -30 -40 -84zM252 688l32 47c14 21 43 26 70 26c34 0 59 -12 59 -34c0 -6 0 -12 -5 -20l-54 -81c-14 -21 -22 -34 -67 -34h-70c-45 0 -53 13 -67 34l-54 81c-5 8 -5 14 -5 20c0 22 25 34 59 34c27 0 56 -5 70 -26z" />
    <glyph glyph-name="edieresis" unicode="&#xeb;" horiz-adv-x="495" 
d="M218 223c4 -71 37 -95 89 -95c57 0 100 35 129 35c22 0 33 -18 33 -55c0 -44 -14 -74 -43 -88c-50 -24 -92 -35 -166 -35c-141 0 -237 80 -237 279c0 201 88 289 240 289c155 0 211 -97 211 -239v-29c0 -40 -12 -62 -54 -62h-202zM218 321h83c0 62 -7 84 -43 84
s-40 -30 -40 -84zM161 589c-39 0 -69 14 -69 53v59c0 39 30 54 69 54s68 -15 68 -54v-59c0 -39 -29 -53 -68 -53zM344 589c-39 0 -69 14 -69 53v59c0 39 30 54 69 54s68 -15 68 -54v-59c0 -39 -29 -53 -68 -53z" />
    <glyph glyph-name="emacron" unicode="&#x113;" horiz-adv-x="495" 
d="M218 223c4 -71 37 -95 89 -95c57 0 100 35 129 35c22 0 33 -18 33 -55c0 -44 -14 -74 -43 -88c-50 -24 -92 -35 -166 -35c-141 0 -237 80 -237 279c0 201 88 289 240 289c155 0 211 -97 211 -239v-29c0 -40 -12 -62 -54 -62h-202zM218 321h83c0 62 -7 84 -43 84
s-40 -30 -40 -84zM417 671c0 -35 -13 -64 -49 -64h-230c-37 0 -50 29 -50 64s13 64 50 64h230c36 0 49 -29 49 -64z" />
    <glyph glyph-name="ebreve" unicode="&#x115;" horiz-adv-x="495" 
d="M218 223c4 -71 37 -95 89 -95c57 0 100 35 129 35c22 0 33 -18 33 -55c0 -44 -14 -74 -43 -88c-50 -24 -92 -35 -166 -35c-141 0 -237 80 -237 279c0 201 88 289 240 289c155 0 211 -97 211 -239v-29c0 -40 -12 -62 -54 -62h-202zM218 321h83c0 62 -7 84 -43 84
s-40 -30 -40 -84zM252 589c-91 0 -161 55 -161 133c0 33 23 44 58 44s52 -11 58 -35c6 -23 25 -31 45 -31s39 8 45 31c6 24 23 35 58 35s58 -11 58 -44c0 -78 -70 -133 -161 -133z" />
    <glyph glyph-name="edotaccent" unicode="&#x117;" horiz-adv-x="495" 
d="M218 223c4 -71 37 -95 89 -95c57 0 100 35 129 35c22 0 33 -18 33 -55c0 -44 -14 -74 -43 -88c-50 -24 -92 -35 -166 -35c-141 0 -237 80 -237 279c0 201 88 289 240 289c155 0 211 -97 211 -239v-29c0 -40 -12 -62 -54 -62h-202zM218 321h83c0 62 -7 84 -43 84
s-40 -30 -40 -84zM253 589c-39 0 -69 14 -69 53v59c0 39 30 54 69 54s68 -15 68 -54v-59c0 -39 -29 -53 -68 -53z" />
    <glyph glyph-name="eogonek" unicode="&#x119;" horiz-adv-x="495" 
d="M218 223c4 -71 37 -95 89 -95c57 0 100 35 129 35c22 0 33 -18 33 -55c0 -44 -14 -74 -43 -88c-20 -10 -38 -17 -57 -22c-34 -19 -53 -43 -53 -64c0 -16 9 -24 25 -24c22 0 27 14 50 14c29 0 49 -30 49 -59c0 -18 -7 -37 -23 -48c-32 -23 -71 -34 -115 -34
c-72 0 -136 34 -136 113c0 32 13 71 37 94c-109 20 -180 103 -180 274c0 201 88 289 240 289c155 0 211 -97 211 -239v-29c0 -40 -12 -62 -54 -62h-202zM218 321h83c0 62 -7 84 -43 84s-40 -30 -40 -84z" />
    <glyph glyph-name="gcircumflex" unicode="&#x11d;" horiz-adv-x="494" 
d="M511 465c0 -40 -11 -71 -52 -71h-9c3 -13 6 -27 6 -47c0 -133 -85 -209 -211 -209c-18 0 -35 1 -48 4c-12 -8 -22 -15 -22 -29c1 -47 308 19 308 -172c0 -133 -104 -200 -259 -200c-174 0 -234 66 -234 145c0 52 24 89 64 103c-27 21 -41 42 -41 88c0 57 44 95 83 119
c-40 34 -64 86 -64 152c0 124 71 205 214 205c31 0 59 -7 84 -15h129c41 0 52 -33 52 -73zM245 429c-28 0 -45 -19 -45 -81c0 -60 17 -83 45 -83c26 0 42 23 42 82c0 66 -16 82 -42 82zM176 -47c-12 -7 -22 -24 -22 -41c0 -30 41 -43 84 -43c42 0 74 14 74 36
c0 40 -76 39 -136 48zM254 654l-32 -47c-14 -21 -43 -26 -70 -26c-34 0 -59 12 -59 34c0 6 0 12 5 20l54 81c14 21 22 34 67 34h70c45 0 53 -13 67 -34l54 -81c5 -8 5 -14 5 -20c0 -22 -25 -34 -59 -34c-27 0 -56 5 -70 26z" />
    <glyph glyph-name="gbreve" unicode="&#x11f;" horiz-adv-x="494" 
d="M511 465c0 -40 -11 -71 -52 -71h-9c3 -13 6 -27 6 -47c0 -133 -85 -209 -211 -209c-18 0 -35 1 -48 4c-12 -8 -22 -15 -22 -29c1 -47 308 19 308 -172c0 -133 -104 -200 -259 -200c-174 0 -234 66 -234 145c0 52 24 89 64 103c-27 21 -41 42 -41 88c0 57 44 95 83 119
c-40 34 -64 86 -64 152c0 124 71 205 214 205c31 0 59 -7 84 -15h129c41 0 52 -33 52 -73zM245 429c-28 0 -45 -19 -45 -81c0 -60 17 -83 45 -83c26 0 42 23 42 82c0 66 -16 82 -42 82zM176 -47c-12 -7 -22 -24 -22 -41c0 -30 41 -43 84 -43c42 0 74 14 74 36
c0 40 -76 39 -136 48zM252 589c-91 0 -161 55 -161 133c0 33 23 44 58 44s52 -11 58 -35c6 -23 25 -31 45 -31s39 8 45 31c6 24 23 35 58 35s58 -11 58 -44c0 -78 -70 -133 -161 -133z" />
    <glyph glyph-name="gdotaccent" unicode="&#x121;" horiz-adv-x="494" 
d="M511 465c0 -40 -11 -71 -52 -71h-9c3 -13 6 -27 6 -47c0 -133 -85 -209 -211 -209c-18 0 -35 1 -48 4c-12 -8 -22 -15 -22 -29c1 -47 308 19 308 -172c0 -133 -104 -200 -259 -200c-174 0 -234 66 -234 145c0 52 24 89 64 103c-27 21 -41 42 -41 88c0 57 44 95 83 119
c-40 34 -64 86 -64 152c0 124 71 205 214 205c31 0 59 -7 84 -15h129c41 0 52 -33 52 -73zM245 429c-28 0 -45 -19 -45 -81c0 -60 17 -83 45 -83c26 0 42 23 42 82c0 66 -16 82 -42 82zM176 -47c-12 -7 -22 -24 -22 -41c0 -30 41 -43 84 -43c42 0 74 14 74 36
c0 40 -76 39 -136 48zM253 589c-39 0 -69 14 -69 53v59c0 39 30 54 69 54s68 -15 68 -54v-59c0 -39 -29 -53 -68 -53z" />
    <glyph glyph-name="gcommaaccent" unicode="&#x123;" horiz-adv-x="494" 
d="M511 465c0 -40 -11 -71 -52 -71h-9c3 -13 6 -27 6 -47c0 -133 -85 -209 -211 -209c-18 0 -35 1 -48 4c-12 -8 -22 -15 -22 -29c1 -47 308 19 308 -172c0 -133 -104 -200 -259 -200c-174 0 -234 66 -234 145c0 52 24 89 64 103c-27 21 -41 42 -41 88c0 57 44 95 83 119
c-40 34 -64 86 -64 152c0 124 71 205 214 205c31 0 59 -7 84 -15h129c41 0 52 -33 52 -73zM245 429c-28 0 -45 -19 -45 -81c0 -60 17 -83 45 -83c26 0 42 23 42 82c0 66 -16 82 -42 82zM176 -47c-12 -7 -22 -24 -22 -41c0 -30 41 -43 84 -43c42 0 74 14 74 36
c0 40 -76 39 -136 48zM201 651l52 69c22 29 45 42 90 42c41 0 58 -17 58 -39c0 -7 -3 -16 -7 -24l-42 -77c-13 -23 -34 -43 -95 -43c-42 0 -66 20 -66 45c0 9 3 18 10 27z" />
    <glyph glyph-name="hcircumflex" unicode="&#x125;" horiz-adv-x="574" 
d="M240 511c36 25 82 42 135 42c98 0 156 -50 156 -170v-332c0 -51 -41 -66 -94 -66c-52 0 -93 15 -93 66v293c0 33 -23 44 -55 44c-14 0 -36 -3 -49 -6v-331c0 -51 -41 -66 -94 -66c-52 0 -93 15 -93 66v633c0 52 41 67 93 67c53 0 94 -15 94 -67v-173zM149 855l-32 -47
c-14 -21 -43 -26 -70 -26c-34 0 -59 12 -59 34c0 6 0 12 5 20l54 81c14 21 22 34 67 34h70c45 0 53 -13 67 -34l54 -81c5 -8 5 -14 5 -20c0 -22 -25 -34 -59 -34c-27 0 -56 5 -70 26z" />
    <glyph glyph-name="hbar" unicode="&#x127;" horiz-adv-x="613" 
d="M279 511c36 25 82 42 135 42c98 0 156 -50 156 -170v-332c0 -51 -41 -66 -94 -66c-52 0 -93 15 -93 66v293c0 33 -23 44 -55 44c-14 0 -36 -3 -49 -6v-331c0 -51 -41 -66 -94 -66c-52 0 -93 15 -93 66v549h-59c-24 0 -33 19 -33 43c0 23 9 42 33 42h59c0 51 41 66 93 66
s93 -15 94 -66h138c24 0 32 -19 32 -42c0 -24 -8 -43 -32 -43h-138v-89z" />
    <glyph glyph-name="igrave" unicode="&#xec;" horiz-adv-x="293" 
d="M146 -15c-52 0 -93 15 -93 66v435c0 52 41 67 93 67c53 0 94 -15 94 -67v-435c0 -51 -41 -66 -94 -66zM56 621l-52 69c-7 9 -10 18 -10 27c0 25 24 45 66 45c65 0 82 -20 95 -43l42 -77c4 -8 7 -17 7 -24c0 -22 -17 -39 -58 -39c-45 0 -68 13 -90 42z" />
    <glyph glyph-name="iacute" unicode="&#xed;" horiz-adv-x="293" 
d="M146 -15c-52 0 -93 15 -93 66v435c0 52 41 67 93 67c53 0 94 -15 94 -67v-435c0 -51 -41 -66 -94 -66zM291 690l-52 -69c-22 -29 -45 -42 -90 -42c-41 0 -58 17 -58 39c0 7 3 16 7 24l42 77c13 23 34 43 95 43c42 0 66 -20 66 -45c0 -9 -3 -18 -10 -27z" />
    <glyph glyph-name="icircumflex" unicode="&#xee;" horiz-adv-x="293" 
d="M146 -15c-52 0 -93 15 -93 66v435c0 52 41 67 93 67c53 0 94 -15 94 -67v-435c0 -51 -41 -66 -94 -66zM146 654l-32 -47c-14 -21 -43 -26 -70 -26c-34 0 -59 12 -59 34c0 6 0 12 5 20l54 81c14 21 22 34 67 34h70c45 0 53 -13 67 -34l54 -81c5 -8 5 -14 5 -20
c0 -22 -25 -34 -59 -34c-27 0 -56 5 -70 26z" />
    <glyph glyph-name="itilde" unicode="&#x129;" horiz-adv-x="293" 
d="M146 -15c-52 0 -93 15 -93 66v435c0 52 41 67 93 67c53 0 94 -15 94 -67v-435c0 -51 -41 -66 -94 -66zM215 592c-44 0 -89 27 -113 27c-36 0 -14 -28 -67 -28c-23 0 -59 15 -59 52c0 59 49 99 104 99c44 0 89 -27 113 -27c36 0 24 28 64 28c23 0 61 -11 61 -51
c0 -63 -49 -100 -103 -100z" />
    <glyph glyph-name="idieresis" unicode="&#xef;" horiz-adv-x="293" 
d="M146 -15c-52 0 -93 15 -93 66v435c0 52 41 67 93 67c53 0 94 -15 94 -67v-435c0 -51 -41 -66 -94 -66zM56 589c-39 0 -69 14 -69 53v59c0 39 30 54 69 54s68 -15 68 -54v-59c0 -39 -29 -53 -68 -53zM239 589c-39 0 -69 14 -69 53v59c0 39 30 54 69 54s68 -15 68 -54v-59
c0 -39 -29 -53 -68 -53z" />
    <glyph glyph-name="imacron" unicode="&#x12b;" horiz-adv-x="293" 
d="M146 -15c-52 0 -93 15 -93 66v435c0 52 41 67 93 67c53 0 94 -15 94 -67v-435c0 -51 -41 -66 -94 -66zM311 671c0 -35 -13 -64 -49 -64h-230c-37 0 -50 29 -50 64s13 64 50 64h230c36 0 49 -29 49 -64z" />
    <glyph glyph-name="ibreve" horiz-adv-x="293" 
d="M146 -15c-52 0 -93 15 -93 66v435c0 52 41 67 93 67c53 0 94 -15 94 -67v-435c0 -51 -41 -66 -94 -66zM147 589c-91 0 -161 55 -161 133c0 33 23 44 58 44s52 -11 58 -35c6 -23 25 -31 45 -31s39 8 45 31c6 24 23 35 58 35s58 -11 58 -44c0 -78 -70 -133 -161 -133z" />
    <glyph glyph-name="iogonek" unicode="&#x12f;" horiz-adv-x="293" 
d="M240 51c0 -30 -16 -46 -35 -57c-34 -20 -49 -40 -49 -60c0 -16 9 -24 25 -24c22 0 27 14 50 14c29 0 49 -30 49 -59c0 -18 -7 -37 -23 -48c-32 -23 -71 -34 -115 -34c-72 0 -136 34 -136 113c0 37 18 83 61 113c-9 10 -14 24 -14 42v435c0 52 41 67 93 67
c53 0 94 -15 94 -67v-435zM146 587c-52 0 -93 15 -93 66v46c0 52 41 67 93 67c53 0 94 -15 94 -67v-46c0 -51 -41 -66 -94 -66z" />
    <glyph glyph-name="dotlessi" unicode="&#x131;" horiz-adv-x="293" 
d="M146 -15c-52 0 -93 15 -93 66v435c0 52 41 67 93 67c53 0 94 -15 94 -67v-435c0 -51 -41 -66 -94 -66z" />
    <glyph glyph-name="jcircumflex" unicode="&#x135;" horiz-adv-x="293" 
d="M240 486v-532c0 -121 -80 -166 -170 -166c-57 0 -132 4 -132 83c0 45 4 82 40 82c10 0 24 -5 39 -5c19 0 36 15 36 47v491c0 52 41 67 93 67c53 0 94 -15 94 -67zM147 654l-32 -47c-14 -21 -43 -26 -70 -26c-34 0 -59 12 -59 34c0 6 0 12 5 20l54 81c14 21 22 34 67 34
h70c45 0 53 -13 67 -34l54 -81c5 -8 5 -14 5 -20c0 -22 -25 -34 -59 -34c-27 0 -56 5 -70 26z" />
    <glyph glyph-name="kcommaaccent" unicode="&#x137;" horiz-adv-x="533" 
d="M242 361l103 154c14 21 38 38 95 38c40 0 84 -12 84 -48c0 -8 -2 -18 -9 -29l-103 -156l124 -247c5 -11 8 -21 8 -31c0 -35 -36 -57 -83 -57c-57 0 -104 19 -124 63l-73 157l-22 -31v-123c0 -51 -41 -66 -94 -66c-52 0 -93 15 -93 66v633c0 52 41 67 93 67
c53 0 94 -15 94 -67v-323z" />
    <glyph glyph-name="lacute" unicode="&#x13a;" horiz-adv-x="338" 
d="M293 -1c-25 -11 -43 -15 -83 -15c-90 0 -160 56 -160 172v528c0 52 41 67 93 67c53 0 94 -15 94 -67v-497c0 -29 15 -39 37 -39c16 0 23 6 35 6c17 0 29 -12 29 -45c0 -55 -9 -94 -45 -110zM297 888l-52 -69c-22 -29 -45 -42 -90 -42c-41 0 -58 17 -58 39c0 7 3 16 7 24
l42 77c13 23 34 43 95 43c42 0 66 -20 66 -45c0 -9 -3 -18 -10 -27z" />
    <glyph glyph-name="lcaron" unicode="&#x13e;" horiz-adv-x="368" 
d="M298 661c6 37 37 54 75 54c31 0 60 -15 60 -44c0 -6 -2 -12 -4 -19l-54 -165c-9 -28 -33 -39 -56 -39c-30 0 -50 15 -50 40c0 2 0 4 1 7zM293 -1c-25 -11 -43 -15 -83 -15c-90 0 -160 56 -160 172v528c0 52 41 67 93 67c53 0 94 -15 94 -67v-497c0 -29 15 -39 37 -39
c16 0 23 6 35 6c17 0 29 -12 29 -45c0 -55 -9 -94 -45 -110z" />
    <glyph glyph-name="lcommaaccent" unicode="&#x13c;" horiz-adv-x="338" 
d="M293 -1c-25 -11 -43 -15 -83 -15c-90 0 -160 56 -160 172v528c0 52 41 67 93 67c53 0 94 -15 94 -67v-497c0 -29 15 -39 37 -39c16 0 23 6 35 6c17 0 29 -12 29 -45c0 -55 -9 -94 -45 -110zM245 -110l-51 -68c-22 -28 -44 -41 -88 -41c-40 0 -57 17 -57 38c0 7 3 16 7 24
l41 75c13 23 33 42 93 42c41 0 64 -19 64 -44c0 -8 -3 -17 -9 -26z" />
    <glyph glyph-name="lslash" unicode="&#x142;" horiz-adv-x="360" 
d="M259 370v-183c0 -29 15 -39 37 -39c16 0 23 6 35 6c17 0 29 -12 29 -45c0 -55 -9 -94 -45 -110c-25 -11 -43 -15 -83 -15c-90 0 -160 56 -160 172v109l-12 -6c-8 -4 -15 -5 -22 -5c-21 0 -38 18 -38 50c0 38 16 61 43 76l29 16v288c0 52 41 67 93 67c53 0 94 -15 94 -67
v-183l23 13c9 5 17 6 24 6c21 0 34 -19 34 -50c0 -52 -16 -64 -43 -79z" />
    <glyph glyph-name="nacute" unicode="&#x144;" horiz-adv-x="575" 
d="M438 -15c-52 0 -93 15 -93 66v293c0 33 -23 44 -55 44c-14 0 -36 -3 -50 -6v-331c0 -51 -41 -66 -94 -66c-52 0 -93 15 -93 66v445c0 44 35 57 79 57c46 0 81 -13 81 -57v-6c39 35 96 63 163 63c98 0 156 -50 156 -170v-332c0 -51 -41 -66 -94 -66zM437 690l-52 -69
c-22 -29 -45 -42 -90 -42c-41 0 -58 17 -58 39c0 7 3 16 7 24l42 77c13 23 34 43 95 43c42 0 66 -20 66 -45c0 -9 -3 -18 -10 -27z" />
    <glyph glyph-name="ncaron" unicode="&#x148;" horiz-adv-x="575" 
d="M438 -15c-52 0 -93 15 -93 66v293c0 33 -23 44 -55 44c-14 0 -36 -3 -50 -6v-331c0 -51 -41 -66 -94 -66c-52 0 -93 15 -93 66v445c0 44 35 57 79 57c46 0 81 -13 81 -57v-6c39 35 96 63 163 63c98 0 156 -50 156 -170v-332c0 -51 -41 -66 -94 -66zM292 688l32 47
c14 21 43 26 70 26c34 0 59 -12 59 -34c0 -6 0 -12 -5 -20l-54 -81c-14 -21 -22 -34 -67 -34h-70c-45 0 -53 13 -67 34l-54 81c-5 8 -5 14 -5 20c0 22 25 34 59 34c27 0 56 -5 70 -26z" />
    <glyph glyph-name="ntilde" unicode="&#xf1;" horiz-adv-x="575" 
d="M438 -15c-52 0 -93 15 -93 66v293c0 33 -23 44 -55 44c-14 0 -36 -3 -50 -6v-331c0 -51 -41 -66 -94 -66c-52 0 -93 15 -93 66v445c0 44 35 57 79 57c46 0 81 -13 81 -57v-6c39 35 96 63 163 63c98 0 156 -50 156 -170v-332c0 -51 -41 -66 -94 -66zM352 592
c-44 0 -89 27 -113 27c-36 0 -14 -28 -67 -28c-23 0 -59 15 -59 52c0 59 49 99 104 99c44 0 89 -27 113 -27c36 0 24 28 64 28c23 0 61 -11 61 -51c0 -63 -49 -100 -103 -100z" />
    <glyph glyph-name="ncommaaccent" unicode="&#x146;" horiz-adv-x="575" 
d="M438 -15c-52 0 -93 15 -93 66v293c0 33 -23 44 -55 44c-14 0 -36 -3 -50 -6v-331c0 -51 -41 -66 -94 -66c-52 0 -93 15 -93 66v445c0 44 35 57 79 57c46 0 81 -13 81 -57v-6c39 35 96 63 163 63c98 0 156 -50 156 -170v-332c0 -51 -41 -66 -94 -66z" />
    <glyph glyph-name="ograve" unicode="&#xf2;" horiz-adv-x="551" 
d="M275 553c163 0 253 -88 253 -285c0 -196 -97 -283 -253 -283c-159 0 -252 87 -252 283c0 197 92 285 252 285zM275 410c-41 0 -62 -37 -62 -142c0 -104 21 -140 62 -140c42 0 63 36 63 140c0 105 -21 142 -63 142zM190 621l-52 69c-7 9 -10 18 -10 27c0 25 24 45 66 45
c65 0 82 -20 95 -43l42 -77c4 -8 7 -17 7 -24c0 -22 -17 -39 -58 -39c-45 0 -68 13 -90 42z" />
    <glyph glyph-name="oacute" unicode="&#xf3;" horiz-adv-x="551" 
d="M275 553c163 0 253 -88 253 -285c0 -196 -97 -283 -253 -283c-159 0 -252 87 -252 283c0 197 92 285 252 285zM275 410c-41 0 -62 -37 -62 -142c0 -104 21 -140 62 -140c42 0 63 36 63 140c0 105 -21 142 -63 142zM413 690l-52 -69c-22 -29 -45 -42 -90 -42
c-41 0 -58 17 -58 39c0 7 3 16 7 24l42 77c13 23 34 43 95 43c42 0 66 -20 66 -45c0 -9 -3 -18 -10 -27z" />
    <glyph glyph-name="ocircumflex" unicode="&#xf4;" horiz-adv-x="551" 
d="M275 553c163 0 253 -88 253 -285c0 -196 -97 -283 -253 -283c-159 0 -252 87 -252 283c0 197 92 285 252 285zM275 410c-41 0 -62 -37 -62 -142c0 -104 21 -140 62 -140c42 0 63 36 63 140c0 105 -21 142 -63 142zM275 654l-32 -47c-14 -21 -43 -26 -70 -26
c-34 0 -59 12 -59 34c0 6 0 12 5 20l54 81c14 21 22 34 67 34h70c45 0 53 -13 67 -34l54 -81c5 -8 5 -14 5 -20c0 -22 -25 -34 -59 -34c-27 0 -56 5 -70 26z" />
    <glyph glyph-name="otilde" unicode="&#xf5;" horiz-adv-x="551" 
d="M275 553c163 0 253 -88 253 -285c0 -196 -97 -283 -253 -283c-159 0 -252 87 -252 283c0 197 92 285 252 285zM275 410c-41 0 -62 -37 -62 -142c0 -104 21 -140 62 -140c42 0 63 36 63 140c0 105 -21 142 -63 142zM340 592c-44 0 -89 27 -113 27c-36 0 -14 -28 -67 -28
c-23 0 -59 15 -59 52c0 59 49 99 104 99c44 0 89 -27 113 -27c36 0 24 28 64 28c23 0 61 -11 61 -51c0 -63 -49 -100 -103 -100z" />
    <glyph glyph-name="odieresis" unicode="&#xf6;" horiz-adv-x="551" 
d="M275 553c163 0 253 -88 253 -285c0 -196 -97 -283 -253 -283c-159 0 -252 87 -252 283c0 197 92 285 252 285zM275 410c-41 0 -62 -37 -62 -142c0 -104 21 -140 62 -140c42 0 63 36 63 140c0 105 -21 142 -63 142zM184 589c-39 0 -69 14 -69 53v59c0 39 30 54 69 54
s68 -15 68 -54v-59c0 -39 -29 -53 -68 -53zM367 589c-39 0 -69 14 -69 53v59c0 39 30 54 69 54s68 -15 68 -54v-59c0 -39 -29 -53 -68 -53z" />
    <glyph glyph-name="omacron" unicode="&#x14d;" horiz-adv-x="551" 
d="M275 553c163 0 253 -88 253 -285c0 -196 -97 -283 -253 -283c-159 0 -252 87 -252 283c0 197 92 285 252 285zM275 410c-41 0 -62 -37 -62 -142c0 -104 21 -140 62 -140c42 0 63 36 63 140c0 105 -21 142 -63 142zM440 671c0 -35 -13 -64 -49 -64h-230
c-37 0 -50 29 -50 64s13 64 50 64h230c36 0 49 -29 49 -64z" />
    <glyph glyph-name="obreve" unicode="&#x14f;" horiz-adv-x="551" 
d="M275 553c163 0 253 -88 253 -285c0 -196 -97 -283 -253 -283c-159 0 -252 87 -252 283c0 197 92 285 252 285zM275 410c-41 0 -62 -37 -62 -142c0 -104 21 -140 62 -140c42 0 63 36 63 140c0 105 -21 142 -63 142zM275 589c-91 0 -161 55 -161 133c0 33 23 44 58 44
s52 -11 58 -35c6 -23 25 -31 45 -31s39 8 45 31c6 24 23 35 58 35s58 -11 58 -44c0 -78 -70 -133 -161 -133z" />
    <glyph glyph-name="ohungarumlaut" unicode="&#x151;" horiz-adv-x="551" 
d="M275 553c163 0 253 -88 253 -285c0 -196 -97 -283 -253 -283c-159 0 -252 87 -252 283c0 197 92 285 252 285zM275 410c-41 0 -62 -37 -62 -142c0 -104 21 -140 62 -140c42 0 63 36 63 140c0 105 -21 142 -63 142zM229 762c45 0 69 -19 69 -42c0 -7 -2 -14 -6 -22
l-43 -86c-9 -19 -25 -33 -67 -33c-33 0 -51 12 -51 32c0 2 1 5 1 7l17 98c6 33 36 46 80 46zM436 762c38 -1 60 -17 60 -43c0 -9 -4 -20 -11 -30l-53 -74c-17 -23 -33 -36 -71 -36c-26 0 -53 10 -53 39c0 7 2 16 7 26l33 71c13 28 27 47 88 47z" />
    <glyph glyph-name="oslash" unicode="&#xf8;" horiz-adv-x="551" 
d="M515 520l-40 -51c35 -46 53 -113 53 -201c0 -196 -97 -283 -253 -283c-62 0 -113 13 -153 40l-35 -45c-8 -10 -18 -14 -27 -14c-16 0 -32 14 -32 31c0 7 3 14 9 22l39 49c-35 46 -53 112 -53 200c0 197 92 285 252 285c62 0 114 -13 154 -40l35 46c7 8 16 12 24 12
c18 0 34 -14 34 -31c0 -6 -2 -13 -7 -20zM322 378c-10 23 -26 32 -47 32c-41 0 -62 -37 -62 -142v-27zM337 296l-109 -137c11 -22 26 -31 47 -31c42 0 63 36 63 140c0 10 0 19 -1 28z" />
    <glyph glyph-name="oslashacute" unicode="&#x1ff;" horiz-adv-x="551" 
d="M515 520l-40 -51c35 -46 53 -113 53 -201c0 -196 -97 -283 -253 -283c-62 0 -113 13 -153 40l-35 -45c-8 -10 -18 -14 -27 -14c-16 0 -32 14 -32 31c0 7 3 14 9 22l39 49c-35 46 -53 112 -53 200c0 197 92 285 252 285c62 0 114 -13 154 -40l35 46c7 8 16 12 24 12
c18 0 34 -14 34 -31c0 -6 -2 -13 -7 -20zM322 378c-10 23 -26 32 -47 32c-41 0 -62 -37 -62 -142v-27zM337 296l-109 -137c11 -22 26 -31 47 -31c42 0 63 36 63 140c0 10 0 19 -1 28zM413 690l-52 -69c-22 -29 -45 -42 -90 -42c-41 0 -58 17 -58 39c0 7 3 16 7 24l42 77
c13 23 34 43 95 43c42 0 66 -20 66 -45c0 -9 -3 -18 -10 -27z" />
    <glyph glyph-name="oe" unicode="&#x153;" horiz-adv-x="804" 
d="M527 223c4 -71 37 -95 89 -95c58 0 98 35 129 35c19 0 33 -13 33 -54c0 -44 -13 -74 -42 -88c-50 -24 -83 -36 -157 -36c-67 0 -123 18 -153 58c-31 -40 -79 -58 -151 -58c-159 0 -252 87 -252 283c0 197 92 285 252 285c74 0 122 -18 153 -57c29 39 75 57 144 57
c155 0 211 -97 211 -239v-29c0 -40 -12 -62 -54 -62h-202zM275 410c-41 0 -62 -37 -62 -142c0 -104 21 -140 62 -140c42 0 63 36 63 140c0 105 -21 142 -63 142zM527 321h83c0 62 -7 84 -43 84s-40 -30 -40 -84z" />
    <glyph glyph-name="racute" unicode="&#x155;" horiz-adv-x="462" 
d="M148 -15c-52 0 -93 15 -93 66v445c0 44 35 57 79 57c46 0 81 -13 81 -57v-17c45 55 79 74 136 74c98 0 111 -81 111 -165c0 -45 -40 -61 -78 -61c-43 0 -71 6 -77 38c-4 23 -13 30 -27 30c-13 0 -26 -14 -38 -34v-310c0 -51 -41 -66 -94 -66zM378 690l-52 -69
c-22 -29 -45 -42 -90 -42c-41 0 -58 17 -58 39c0 7 3 16 7 24l42 77c13 23 34 43 95 43c42 0 66 -20 66 -45c0 -9 -3 -18 -10 -27z" />
    <glyph glyph-name="rcommaaccent" unicode="&#x157;" horiz-adv-x="462" 
d="M148 -15c-52 0 -93 15 -93 66v445c0 44 35 57 79 57c46 0 81 -13 81 -57v-17c45 55 79 74 136 74c98 0 111 -81 111 -165c0 -45 -40 -61 -78 -61c-43 0 -71 6 -77 38c-4 23 -13 30 -27 30c-13 0 -26 -14 -38 -34v-310c0 -51 -41 -66 -94 -66zM185 -110l-51 -68
c-22 -28 -44 -41 -88 -41c-40 0 -57 17 -57 38c0 7 3 16 7 24l41 75c13 23 33 42 93 42c41 0 64 -19 64 -44c0 -8 -3 -17 -9 -26z" />
    <glyph glyph-name="rcaron" unicode="&#x159;" horiz-adv-x="462" 
d="M148 -15c-52 0 -93 15 -93 66v445c0 44 35 57 79 57c46 0 81 -13 81 -57v-17c45 55 79 74 136 74c98 0 111 -81 111 -165c0 -45 -40 -61 -78 -61c-43 0 -71 6 -77 38c-4 23 -13 30 -27 30c-13 0 -26 -14 -38 -34v-310c0 -51 -41 -66 -94 -66zM246 688l32 47
c14 21 43 26 70 26c34 0 59 -12 59 -34c0 -6 0 -12 -5 -20l-54 -81c-14 -21 -22 -34 -67 -34h-70c-45 0 -53 13 -67 34l-54 81c-5 8 -5 14 -5 20c0 22 25 34 59 34c27 0 56 -5 70 -26z" />
    <glyph glyph-name="sacute" unicode="&#x15b;" horiz-adv-x="468" 
d="M246 553c101 0 161 -37 188 -95c5 -11 9 -23 9 -36c0 -51 -51 -66 -97 -66c-26 0 -50 7 -59 30c-7 19 -17 28 -44 28c-23 0 -39 -10 -39 -28c0 -65 240 -69 240 -237c0 -97 -69 -164 -214 -164c-103 0 -211 28 -211 99c0 67 32 87 54 87c13 0 24 -4 30 -7
c43 -23 84 -36 116 -36c20 0 35 7 35 23c0 57 -225 56 -225 228c0 101 72 174 217 174zM364 690l-52 -69c-22 -29 -45 -42 -90 -42c-41 0 -58 17 -58 39c0 7 3 16 7 24l42 77c13 23 34 43 95 43c42 0 66 -20 66 -45c0 -9 -3 -18 -10 -27z" />
    <glyph glyph-name="scircumflex" unicode="&#x15d;" horiz-adv-x="468" 
d="M246 553c101 0 161 -37 188 -95c5 -11 9 -23 9 -36c0 -51 -51 -66 -97 -66c-26 0 -50 7 -59 30c-7 19 -17 28 -44 28c-23 0 -39 -10 -39 -28c0 -65 240 -69 240 -237c0 -97 -69 -164 -214 -164c-103 0 -211 28 -211 99c0 67 32 87 54 87c13 0 24 -4 30 -7
c43 -23 84 -36 116 -36c20 0 35 7 35 23c0 57 -225 56 -225 228c0 101 72 174 217 174zM228 654l-32 -47c-14 -21 -43 -26 -70 -26c-34 0 -59 12 -59 34c0 6 0 12 5 20l54 81c14 21 22 34 67 34h70c45 0 53 -13 67 -34l54 -81c5 -8 5 -14 5 -20c0 -22 -25 -34 -59 -34
c-27 0 -56 5 -70 26z" />
    <glyph glyph-name="scaron" unicode="&#x161;" horiz-adv-x="468" 
d="M246 553c101 0 161 -37 188 -95c5 -11 9 -23 9 -36c0 -51 -51 -66 -97 -66c-26 0 -50 7 -59 30c-7 19 -17 28 -44 28c-23 0 -39 -10 -39 -28c0 -65 240 -69 240 -237c0 -97 -69 -164 -214 -164c-103 0 -211 28 -211 99c0 67 32 87 54 87c13 0 24 -4 30 -7
c43 -23 84 -36 116 -36c20 0 35 7 35 23c0 57 -225 56 -225 228c0 101 72 174 217 174zM221 688l32 47c14 21 43 26 70 26c34 0 59 -12 59 -34c0 -6 0 -12 -5 -20l-54 -81c-14 -21 -22 -34 -67 -34h-70c-45 0 -53 13 -67 34l-54 81c-5 8 -5 14 -5 20c0 22 25 34 59 34
c27 0 56 -5 70 -26z" />
    <glyph glyph-name="scedilla" unicode="&#x15f;" horiz-adv-x="468" 
d="M246 553c101 0 161 -37 188 -95c5 -11 9 -23 9 -36c0 -51 -51 -66 -97 -66c-26 0 -50 7 -59 30c-7 19 -18 28 -45 28c-23 0 -38 -10 -38 -28c0 -65 240 -69 240 -237c0 -71 -38 -127 -115 -150c19 -22 27 -59 27 -85c0 -70 -59 -126 -143 -126c-62 0 -107 18 -133 42
c-12 12 -16 24 -16 40c0 30 25 59 54 59c12 0 18 -3 29 -10c10 -7 22 -9 30 -9c19 0 31 10 31 33c0 15 -6 30 -15 44c-90 6 -174 34 -174 97c0 67 32 87 54 87c13 0 24 -4 30 -7c43 -23 84 -36 116 -36c20 0 35 7 35 23c0 57 -225 56 -225 228c0 101 72 174 217 174z" />
    <glyph glyph-name="scedilla" unicode="&#xf6c2;" horiz-adv-x="468" 
d="M246 553c101 0 161 -37 188 -95c5 -11 9 -23 9 -36c0 -51 -51 -66 -97 -66c-26 0 -50 7 -59 30c-7 19 -18 28 -45 28c-23 0 -38 -10 -38 -28c0 -65 240 -69 240 -237c0 -71 -38 -127 -115 -150c19 -22 27 -59 27 -85c0 -70 -59 -126 -143 -126c-62 0 -107 18 -133 42
c-12 12 -16 24 -16 40c0 30 25 59 54 59c12 0 18 -3 29 -10c10 -7 22 -9 30 -9c19 0 31 10 31 33c0 15 -6 30 -15 44c-90 6 -174 34 -174 97c0 67 32 87 54 87c13 0 24 -4 30 -7c43 -23 84 -36 116 -36c20 0 35 7 35 23c0 57 -225 56 -225 228c0 101 72 174 217 174z" />
    <glyph glyph-name="scommaaccent" unicode="&#x219;" horiz-adv-x="468" 
d="M246 553c101 0 161 -37 188 -95c5 -11 9 -23 9 -36c0 -51 -51 -66 -97 -66c-26 0 -50 7 -59 30c-7 19 -17 28 -44 28c-23 0 -39 -10 -39 -28c0 -65 240 -69 240 -237c0 -97 -69 -164 -214 -164c-103 0 -211 28 -211 99c0 67 32 87 54 87c13 0 24 -4 30 -7
c43 -23 84 -36 116 -36c20 0 35 7 35 23c0 57 -225 56 -225 228c0 101 72 174 217 174zM283 -110l-51 -68c-22 -28 -44 -41 -88 -41c-40 0 -57 17 -57 38c0 7 3 16 7 24l41 75c13 23 33 42 93 42c41 0 64 -19 64 -44c0 -8 -3 -17 -9 -26z" />
    <glyph glyph-name="germandbls" unicode="&#xdf;" horiz-adv-x="608" 
d="M143 -15c-52 0 -93 15 -93 66v517c0 150 111 211 244 211c134 0 245 -54 245 -180c0 -111 -70 -136 -70 -198c0 -57 122 -87 122 -234c0 -94 -51 -182 -180 -182c-62 0 -134 20 -134 79c0 43 13 88 44 88c21 0 31 -12 52 -12c27 0 33 15 33 32c0 47 -114 63 -114 203
c0 90 68 125 68 183c0 29 -25 52 -59 52c-36 0 -64 -20 -64 -59v-500c0 -51 -41 -66 -94 -66z" />
    <glyph glyph-name="longs" unicode="&#x17f;" horiz-adv-x="440" 
d="M272 576v-622c0 -121 -75 -166 -165 -166c-57 0 -132 4 -132 83c0 45 4 82 40 82c10 0 24 -5 39 -5c19 0 36 15 36 47v400h-18c-41 0 -56 32 -56 71c0 40 15 72 56 72h18v30c0 150 90 211 223 211c31 0 55 -3 82 -11s45 -25 45 -60c0 -30 -3 -87 -47 -87
c-23 0 -29 6 -55 6c-36 0 -66 -12 -66 -51z" />
    <glyph glyph-name="tcaron" unicode="&#x165;" horiz-adv-x="423" 
d="M404 779c34 0 68 -8 68 -36c0 -5 -1 -9 -3 -15l-50 -122c-9 -23 -20 -34 -59 -34c-31 0 -52 16 -52 36c0 1 0 3 1 5l19 122c6 36 30 44 76 44zM396 489c0 -40 -18 -94 -69 -94h-62v-200c0 -22 10 -43 42 -43c16 0 32 7 51 7c37 0 45 -45 45 -80c0 -25 -8 -49 -28 -63
c-42 -29 -84 -31 -140 -31c-113 0 -157 84 -157 183v227h-27c-41 0 -56 32 -56 71c0 40 15 72 56 72h33v68c0 51 40 65 90 65c51 0 91 -14 91 -65v-68h87c32 0 44 -20 44 -49z" />
    <glyph glyph-name="tcommaaccent" unicode="&#x163;" horiz-adv-x="403" 
d="M396 489c0 -40 -18 -94 -69 -94h-62v-200c0 -22 10 -43 42 -43c16 0 32 7 51 7c37 0 45 -45 45 -80c0 -25 -8 -49 -28 -63c-42 -29 -84 -31 -140 -31c-113 0 -157 84 -157 183v227h-27c-41 0 -56 32 -56 71c0 40 15 72 56 72h33v68c0 51 40 65 90 65c51 0 91 -14 91 -65
v-68h87c32 0 44 -20 44 -49zM275 -110l-51 -68c-22 -28 -44 -41 -88 -41c-40 0 -57 17 -57 38c0 7 3 16 7 24l41 75c13 23 33 42 93 42c41 0 64 -19 64 -44c0 -8 -3 -17 -9 -26z" />
    <glyph glyph-name="tcommaaccent" unicode="&#x21b;" horiz-adv-x="403" 
d="M396 489c0 -40 -18 -94 -69 -94h-62v-200c0 -22 10 -43 42 -43c16 0 32 7 51 7c37 0 45 -45 45 -80c0 -25 -8 -49 -28 -63c-42 -29 -84 -31 -140 -31c-113 0 -157 84 -157 183v227h-27c-41 0 -56 32 -56 71c0 40 15 72 56 72h33v68c0 51 40 65 90 65c51 0 91 -14 91 -65
v-68h87c32 0 44 -20 44 -49zM275 -110l-51 -68c-22 -28 -44 -41 -88 -41c-40 0 -57 17 -57 38c0 7 3 16 7 24l41 75c13 23 33 42 93 42c41 0 64 -19 64 -44c0 -8 -3 -17 -9 -26z" />
    <glyph glyph-name="tbar" unicode="&#x167;" horiz-adv-x="408" 
d="M396 489c0 -40 -18 -94 -69 -94h-62v-55h68c32 0 44 -26 44 -57c0 -32 -12 -57 -44 -57h-68v-31c0 -22 10 -43 42 -43c16 0 32 7 51 7c37 0 45 -45 45 -80c0 -25 -8 -49 -28 -63c-42 -29 -84 -31 -140 -31c-113 0 -157 84 -157 183v58h-39c-33 0 -44 25 -44 57
c0 31 11 57 44 57h39v55h-27c-41 0 -56 32 -56 71c0 40 15 72 56 72h33v68c0 51 40 65 90 65c51 0 91 -14 91 -65v-68h87c32 0 44 -20 44 -49z" />
    <glyph glyph-name="ugrave" unicode="&#xf9;" horiz-adv-x="540" 
d="M270 -15c-126 0 -235 58 -235 191v310c0 52 41 67 93 67c53 0 94 -15 94 -67v-300c0 -39 16 -58 48 -58s48 19 48 58v300c0 52 41 67 93 67c53 0 94 -15 94 -67v-310c0 -133 -109 -191 -235 -191zM178 621l-52 69c-7 9 -10 18 -10 27c0 25 24 45 66 45
c65 0 82 -20 95 -43l42 -77c4 -8 7 -17 7 -24c0 -22 -17 -39 -58 -39c-45 0 -68 13 -90 42z" />
    <glyph glyph-name="uacute" unicode="&#xfa;" horiz-adv-x="540" 
d="M270 -15c-126 0 -235 58 -235 191v310c0 52 41 67 93 67c53 0 94 -15 94 -67v-300c0 -39 16 -58 48 -58s48 19 48 58v300c0 52 41 67 93 67c53 0 94 -15 94 -67v-310c0 -133 -109 -191 -235 -191zM413 690l-52 -69c-22 -29 -45 -42 -90 -42c-41 0 -58 17 -58 39
c0 7 3 16 7 24l42 77c13 23 34 43 95 43c42 0 66 -20 66 -45c0 -9 -3 -18 -10 -27z" />
    <glyph glyph-name="ucircumflex" unicode="&#xfb;" horiz-adv-x="540" 
d="M270 -15c-126 0 -235 58 -235 191v310c0 52 41 67 93 67c53 0 94 -15 94 -67v-300c0 -39 16 -58 48 -58s48 19 48 58v300c0 52 41 67 93 67c53 0 94 -15 94 -67v-310c0 -133 -109 -191 -235 -191zM270 654l-32 -47c-14 -21 -43 -26 -70 -26c-34 0 -59 12 -59 34
c0 6 0 12 5 20l54 81c14 21 22 34 67 34h70c45 0 53 -13 67 -34l54 -81c5 -8 5 -14 5 -20c0 -22 -25 -34 -59 -34c-27 0 -56 5 -70 26z" />
    <glyph glyph-name="utilde" unicode="&#x169;" horiz-adv-x="540" 
d="M270 -15c-126 0 -235 58 -235 191v310c0 52 41 67 93 67c53 0 94 -15 94 -67v-300c0 -39 16 -58 48 -58s48 19 48 58v300c0 52 41 67 93 67c53 0 94 -15 94 -67v-310c0 -133 -109 -191 -235 -191zM338 592c-44 0 -89 27 -113 27c-36 0 -14 -28 -67 -28
c-23 0 -59 15 -59 52c0 59 49 99 104 99c44 0 89 -27 113 -27c36 0 24 28 64 28c23 0 61 -11 61 -51c0 -63 -49 -100 -103 -100z" />
    <glyph glyph-name="udieresis" unicode="&#xfc;" horiz-adv-x="540" 
d="M270 -15c-126 0 -235 58 -235 191v310c0 52 41 67 93 67c53 0 94 -15 94 -67v-300c0 -39 16 -58 48 -58s48 19 48 58v300c0 52 41 67 93 67c53 0 94 -15 94 -67v-310c0 -133 -109 -191 -235 -191zM179 589c-39 0 -69 14 -69 53v59c0 39 30 54 69 54s68 -15 68 -54v-59
c0 -39 -29 -53 -68 -53zM362 589c-39 0 -69 14 -69 53v59c0 39 30 54 69 54s68 -15 68 -54v-59c0 -39 -29 -53 -68 -53z" />
    <glyph glyph-name="umacron" unicode="&#x16b;" horiz-adv-x="540" 
d="M270 -15c-126 0 -235 58 -235 191v310c0 52 41 67 93 67c53 0 94 -15 94 -67v-300c0 -39 16 -58 48 -58s48 19 48 58v300c0 52 41 67 93 67c53 0 94 -15 94 -67v-310c0 -133 -109 -191 -235 -191zM434 671c0 -35 -13 -64 -49 -64h-230c-37 0 -50 29 -50 64s13 64 50 64
h230c36 0 49 -29 49 -64z" />
    <glyph glyph-name="ubreve" unicode="&#x16d;" horiz-adv-x="540" 
d="M270 -15c-126 0 -235 58 -235 191v310c0 52 41 67 93 67c53 0 94 -15 94 -67v-300c0 -39 16 -58 48 -58s48 19 48 58v300c0 52 41 67 93 67c53 0 94 -15 94 -67v-310c0 -133 -109 -191 -235 -191zM270 589c-91 0 -161 55 -161 133c0 33 23 44 58 44s52 -11 58 -35
c6 -23 25 -31 45 -31s39 8 45 31c6 24 23 35 58 35s58 -11 58 -44c0 -78 -70 -133 -161 -133z" />
    <glyph glyph-name="uring" unicode="&#x16f;" horiz-adv-x="540" 
d="M270 -15c-126 0 -235 58 -235 191v310c0 52 41 67 93 67c53 0 94 -15 94 -67v-300c0 -39 16 -58 48 -58s48 19 48 58v300c0 52 41 67 93 67c53 0 94 -15 94 -67v-310c0 -133 -109 -191 -235 -191zM390 671c0 -57 -47 -101 -120 -101s-120 44 -120 101s47 101 120 101
s120 -44 120 -101zM302 671c0 20 -10 30 -32 30s-32 -10 -32 -30s10 -30 32 -30s32 10 32 30z" />
    <glyph glyph-name="uhungarumlaut" unicode="&#x171;" horiz-adv-x="540" 
d="M270 -15c-126 0 -235 58 -235 191v310c0 52 41 67 93 67c53 0 94 -15 94 -67v-300c0 -39 16 -58 48 -58s48 19 48 58v300c0 52 41 67 93 67c53 0 94 -15 94 -67v-310c0 -133 -109 -191 -235 -191zM229 762c45 0 69 -19 69 -42c0 -7 -2 -14 -6 -22l-43 -86
c-9 -19 -25 -33 -67 -33c-33 0 -51 12 -51 32c0 2 1 5 1 7l17 98c6 33 36 46 80 46zM436 762c38 -1 60 -17 60 -43c0 -9 -4 -20 -11 -30l-53 -74c-17 -23 -33 -36 -71 -36c-26 0 -53 10 -53 39c0 7 2 16 7 26l33 71c13 28 27 47 88 47z" />
    <glyph glyph-name="uogonek" unicode="&#x173;" horiz-adv-x="540" 
d="M505 176c0 -99 -60 -156 -142 -179c-33 -18 -51 -43 -51 -63c0 -16 9 -24 25 -24c22 0 27 14 50 14c29 0 49 -30 49 -59c0 -18 -7 -37 -23 -48c-32 -23 -71 -34 -115 -34c-72 0 -136 34 -136 113c0 33 14 72 38 96c-94 18 -165 76 -165 184v310c0 52 41 67 93 67
c53 0 94 -15 94 -67v-300c0 -39 16 -58 48 -58s48 19 48 58v300c0 52 41 67 93 67c53 0 94 -15 94 -67v-310z" />
    <glyph glyph-name="wgrave" unicode="&#x1e81;" horiz-adv-x="792" 
d="M396 329l-54 -272c-8 -42 -26 -57 -61 -57h-87c-45 0 -68 19 -78 55l-109 409c-3 10 -4 19 -4 27c0 49 45 62 95 62c53 0 88 -15 98 -75l43 -261l57 273c8 37 26 48 84 48h32c58 0 76 -11 84 -48l57 -273l43 261c10 60 45 75 98 75c50 0 95 -13 95 -62
c0 -8 -1 -17 -4 -27l-109 -409c-10 -36 -33 -55 -78 -55h-87c-35 0 -53 15 -61 57zM308 621l-52 69c-7 9 -10 18 -10 27c0 25 24 45 66 45c65 0 82 -20 95 -43l42 -77c4 -8 7 -17 7 -24c0 -22 -17 -39 -58 -39c-45 0 -68 13 -90 42z" />
    <glyph glyph-name="wacute" unicode="&#x1e83;" horiz-adv-x="792" 
d="M396 329l-54 -272c-8 -42 -26 -57 -61 -57h-87c-45 0 -68 19 -78 55l-109 409c-3 10 -4 19 -4 27c0 49 45 62 95 62c53 0 88 -15 98 -75l43 -261l57 273c8 37 26 48 84 48h32c58 0 76 -11 84 -48l57 -273l43 261c10 60 45 75 98 75c50 0 95 -13 95 -62
c0 -8 -1 -17 -4 -27l-109 -409c-10 -36 -33 -55 -78 -55h-87c-35 0 -53 15 -61 57zM539 690l-52 -69c-22 -29 -45 -42 -90 -42c-41 0 -58 17 -58 39c0 7 3 16 7 24l42 77c13 23 34 43 95 43c42 0 66 -20 66 -45c0 -9 -3 -18 -10 -27z" />
    <glyph glyph-name="wcircumflex" unicode="&#x175;" horiz-adv-x="792" 
d="M396 329l-54 -272c-8 -42 -26 -57 -61 -57h-87c-45 0 -68 19 -78 55l-109 409c-3 10 -4 19 -4 27c0 49 45 62 95 62c53 0 88 -15 98 -75l43 -261l57 273c8 37 26 48 84 48h32c58 0 76 -11 84 -48l57 -273l43 261c10 60 45 75 98 75c50 0 95 -13 95 -62
c0 -8 -1 -17 -4 -27l-109 -409c-10 -36 -33 -55 -78 -55h-87c-35 0 -53 15 -61 57zM393 654l-32 -47c-14 -21 -43 -26 -70 -26c-34 0 -59 12 -59 34c0 6 0 12 5 20l54 81c14 21 22 34 67 34h70c45 0 53 -13 67 -34l54 -81c5 -8 5 -14 5 -20c0 -22 -25 -34 -59 -34
c-27 0 -56 5 -70 26z" />
    <glyph glyph-name="wdieresis" unicode="&#x1e85;" horiz-adv-x="792" 
d="M396 329l-54 -272c-8 -42 -26 -57 -61 -57h-87c-45 0 -68 19 -78 55l-109 409c-3 10 -4 19 -4 27c0 49 45 62 95 62c53 0 88 -15 98 -75l43 -261l57 273c8 37 26 48 84 48h32c58 0 76 -11 84 -48l57 -273l43 261c10 60 45 75 98 75c50 0 95 -13 95 -62
c0 -8 -1 -17 -4 -27l-109 -409c-10 -36 -33 -55 -78 -55h-87c-35 0 -53 15 -61 57zM302 589c-39 0 -69 14 -69 53v59c0 39 30 54 69 54s68 -15 68 -54v-59c0 -39 -29 -53 -68 -53zM485 589c-39 0 -69 14 -69 53v59c0 39 30 54 69 54s68 -15 68 -54v-59
c0 -39 -29 -53 -68 -53z" />
    <glyph glyph-name="ygrave" unicode="&#x1ef3;" horiz-adv-x="508" 
d="M260 239l64 245c14 54 43 69 95 69c50 0 81 -15 81 -58c0 -7 -1 -15 -4 -24l-141 -437c-57 -178 -124 -246 -269 -246c-50 0 -133 14 -133 74c0 43 11 97 53 97c30 0 39 -13 69 -13c48 0 64 7 87 63l9 22l-167 433c-4 10 -4 19 -4 27c0 49 37 62 91 62
c57 0 86 -17 102 -75zM160 621l-52 69c-7 9 -10 18 -10 27c0 25 24 45 66 45c65 0 82 -20 95 -43l42 -77c4 -8 7 -17 7 -24c0 -22 -17 -39 -58 -39c-45 0 -68 13 -90 42z" />
    <glyph glyph-name="yacute" unicode="&#xfd;" horiz-adv-x="508" 
d="M260 239l64 245c14 54 43 69 95 69c50 0 81 -15 81 -58c0 -7 -1 -15 -4 -24l-141 -437c-57 -178 -124 -246 -269 -246c-50 0 -133 14 -133 74c0 43 11 97 53 97c30 0 39 -13 69 -13c48 0 64 7 87 63l9 22l-167 433c-4 10 -4 19 -4 27c0 49 37 62 91 62
c57 0 86 -17 102 -75zM406 690l-52 -69c-22 -29 -45 -42 -90 -42c-41 0 -58 17 -58 39c0 7 3 16 7 24l42 77c13 23 34 43 95 43c42 0 66 -20 66 -45c0 -9 -3 -18 -10 -27z" />
    <glyph glyph-name="ycircumflex" unicode="&#x177;" horiz-adv-x="508" 
d="M260 239l64 245c14 54 43 69 95 69c50 0 81 -15 81 -58c0 -7 -1 -15 -4 -24l-141 -437c-57 -178 -124 -246 -269 -246c-50 0 -133 14 -133 74c0 43 11 97 53 97c30 0 39 -13 69 -13c48 0 64 7 87 63l9 22l-167 433c-4 10 -4 19 -4 27c0 49 37 62 91 62
c57 0 86 -17 102 -75zM260 654l-32 -47c-14 -21 -43 -26 -70 -26c-34 0 -59 12 -59 34c0 6 0 12 5 20l54 81c14 21 22 34 67 34h70c45 0 53 -13 67 -34l54 -81c5 -8 5 -14 5 -20c0 -22 -25 -34 -59 -34c-27 0 -56 5 -70 26z" />
    <glyph glyph-name="ydieresis" unicode="&#xff;" horiz-adv-x="508" 
d="M260 239l64 245c14 54 43 69 95 69c50 0 81 -15 81 -58c0 -7 -1 -15 -4 -24l-141 -437c-57 -178 -124 -246 -269 -246c-50 0 -133 14 -133 74c0 43 11 97 53 97c30 0 39 -13 69 -13c48 0 64 7 87 63l9 22l-167 433c-4 10 -4 19 -4 27c0 49 37 62 91 62
c57 0 86 -17 102 -75zM169 589c-39 0 -69 14 -69 53v59c0 39 30 54 69 54s68 -15 68 -54v-59c0 -39 -29 -53 -68 -53zM352 589c-39 0 -69 14 -69 53v59c0 39 30 54 69 54s68 -15 68 -54v-59c0 -39 -29 -53 -68 -53z" />
    <glyph glyph-name="zacute" unicode="&#x17a;" horiz-adv-x="466" 
d="M17 70c0 24 8 48 25 72l179 251h-149c-42 0 -57 32 -57 72s15 73 57 73h321c41 0 58 -29 58 -70c0 -34 -14 -62 -23 -75l-174 -248h152c42 0 57 -32 57 -72s-15 -73 -57 -73h-331c-41 0 -58 29 -58 70zM387 690l-52 -69c-22 -29 -45 -42 -90 -42c-41 0 -58 17 -58 39
c0 7 3 16 7 24l42 77c13 23 34 43 95 43c42 0 66 -20 66 -45c0 -9 -3 -18 -10 -27z" />
    <glyph glyph-name="zcaron" unicode="&#x17e;" horiz-adv-x="466" 
d="M17 70c0 24 8 48 25 72l179 251h-149c-42 0 -57 32 -57 72s15 73 57 73h321c41 0 58 -29 58 -70c0 -34 -14 -62 -23 -75l-174 -248h152c42 0 57 -32 57 -72s-15 -73 -57 -73h-331c-41 0 -58 29 -58 70zM245 688l32 47c14 21 43 26 70 26c34 0 59 -12 59 -34
c0 -6 0 -12 -5 -20l-54 -81c-14 -21 -22 -34 -67 -34h-70c-45 0 -53 13 -67 34l-54 81c-5 8 -5 14 -5 20c0 22 25 34 59 34c27 0 56 -5 70 -26z" />
    <glyph glyph-name="zdotaccent" unicode="&#x17c;" horiz-adv-x="466" 
d="M17 70c0 24 8 48 25 72l179 251h-149c-42 0 -57 32 -57 72s15 73 57 73h321c41 0 58 -29 58 -70c0 -34 -14 -62 -23 -75l-174 -248h152c42 0 57 -32 57 -72s-15 -73 -57 -73h-331c-41 0 -58 29 -58 70zM241 589c-39 0 -69 14 -69 53v59c0 39 30 54 69 54s68 -15 68 -54
v-59c0 -39 -29 -53 -68 -53z" />
    <glyph glyph-name="eng" unicode="&#x14b;" horiz-adv-x="575" 
d="M532 383v-429c0 -121 -80 -166 -170 -166c-57 0 -132 4 -132 83c0 45 4 82 40 82c10 0 24 -5 39 -5c19 0 36 15 36 47v349c0 33 -23 44 -55 44c-14 0 -36 -3 -50 -6v-331c0 -51 -41 -66 -94 -66c-52 0 -93 15 -93 66v445c0 44 35 57 79 57c46 0 81 -13 81 -57v-6
c39 35 96 63 163 63c98 0 156 -50 156 -170z" />
    <glyph glyph-name="eth" unicode="&#xf0;" horiz-adv-x="551" 
d="M282 598l-156 -19c-20 -2 -33 11 -33 36c0 22 10 35 28 37l122 14c-13 20 -20 20 -20 42c0 27 31 42 70 42c58 0 72 -12 95 -39c9 -10 7 -9 18 -24l95 10h5c18 0 28 -15 28 -32c0 -20 -10 -37 -26 -39l-64 -8c47 -90 84 -189 84 -331c0 -205 -97 -302 -253 -302
c-159 0 -252 87 -252 283c0 197 92 285 252 285c12 0 23 -2 34 -5c-8 19 -17 33 -27 50zM275 410c-41 0 -62 -37 -62 -142c0 -104 21 -140 62 -140c42 0 63 36 63 140c0 105 -21 142 -63 142z" />
    <glyph glyph-name="thorn" unicode="&#xfe;" horiz-adv-x="576" 
d="M53 -146v830c0 52 41 67 93 67c53 0 94 -15 94 -67v-178c31 25 75 47 130 47c109 0 183 -54 183 -273c0 -218 -94 -295 -235 -295c-21 0 -57 4 -78 11v-142c0 -51 -41 -66 -94 -66c-52 0 -93 15 -93 66zM240 145c19 -6 33 -9 52 -9c36 0 64 20 64 144
c0 108 -29 108 -68 108c-16 0 -29 -2 -48 -6v-237z" />
    <glyph glyph-name="ampersand" unicode="&#x26;" horiz-adv-x="672" 
d="M391 346l59 -63c14 20 -1 75 74 75c48 0 73 -17 73 -52c0 -56 -21 -115 -39 -142l96 -94c13 -13 14 -23 14 -35c0 -32 -30 -50 -86 -50c-49 0 -79 15 -97 32l-28 26c-43 -36 -107 -58 -181 -58c-185 0 -256 95 -256 213c0 77 38 145 113 182c-38 45 -57 89 -57 144
c0 111 82 191 216 191c157 0 221 -86 221 -182c0 -79 -43 -142 -122 -187zM241 266c-18 -16 -31 -37 -31 -63c0 -42 34 -64 72 -64c19 0 40 6 56 19zM283 454c40 21 54 44 54 72c0 30 -14 45 -42 45c-18 0 -42 -11 -42 -44s15 -55 30 -73z" />
    <glyph glyph-name="grave" unicode="`" horiz-adv-x="500" 
d="M179 621l-52 69c-7 9 -10 18 -10 27c0 25 24 45 66 45c65 0 82 -20 95 -43l42 -77c4 -8 7 -17 7 -24c0 -22 -17 -39 -58 -39c-45 0 -68 13 -90 42z" />
    <glyph glyph-name="acute" unicode="&#xb4;" horiz-adv-x="500" 
d="M353 690l-52 -69c-22 -29 -45 -42 -90 -42c-41 0 -58 17 -58 39c0 7 3 16 7 24l42 77c13 23 34 43 95 43c42 0 66 -20 66 -45c0 -9 -3 -18 -10 -27z" />
    <glyph glyph-name="circumflex" unicode="&#x2c6;" horiz-adv-x="500" 
d="M250 654l-32 -47c-14 -21 -43 -26 -70 -26c-34 0 -59 12 -59 34c0 6 0 12 5 20l54 81c14 21 22 34 67 34h70c45 0 53 -13 67 -34l54 -81c5 -8 5 -14 5 -20c0 -22 -25 -34 -59 -34c-27 0 -56 5 -70 26z" />
    <glyph glyph-name="caron" unicode="&#x2c7;" horiz-adv-x="500" 
d="M250 688l32 47c14 21 43 26 70 26c34 0 59 -12 59 -34c0 -6 0 -12 -5 -20l-54 -81c-14 -21 -22 -34 -67 -34h-70c-45 0 -53 13 -67 34l-54 81c-5 8 -5 14 -5 20c0 22 25 34 59 34c27 0 56 -5 70 -26z" />
    <glyph glyph-name="tilde" unicode="&#x2dc;" horiz-adv-x="500" 
d="M313 592c-44 0 -89 27 -113 27c-36 0 -14 -28 -67 -28c-23 0 -59 15 -59 52c0 59 49 99 104 99c44 0 89 -27 113 -27c36 0 24 28 64 28c23 0 61 -11 61 -51c0 -63 -49 -100 -103 -100z" />
    <glyph glyph-name="dieresis" unicode="&#xa8;" horiz-adv-x="500" 
d="M159 589c-39 0 -69 14 -69 53v59c0 39 30 54 69 54s68 -15 68 -54v-59c0 -39 -29 -53 -68 -53zM342 589c-39 0 -69 14 -69 53v59c0 39 30 54 69 54s68 -15 68 -54v-59c0 -39 -29 -53 -68 -53z" />
    <glyph glyph-name="macron" unicode="&#xaf;" horiz-adv-x="500" 
d="M414 671c0 -35 -13 -64 -49 -64h-230c-37 0 -50 29 -50 64s13 64 50 64h230c36 0 49 -29 49 -64z" />
    <glyph glyph-name="macron" unicode="&#x2c9;" horiz-adv-x="500" 
d="M414 671c0 -35 -13 -64 -49 -64h-230c-37 0 -50 29 -50 64s13 64 50 64h230c36 0 49 -29 49 -64z" />
    <glyph glyph-name="breve" unicode="&#x2d8;" horiz-adv-x="500" 
d="M250 589c-91 0 -161 55 -161 133c0 33 23 44 58 44s52 -11 58 -35c6 -23 25 -31 45 -31s39 8 45 31c6 24 23 35 58 35s58 -11 58 -44c0 -78 -70 -133 -161 -133z" />
    <glyph glyph-name="ring" unicode="&#x2da;" horiz-adv-x="500" 
d="M370 671c0 -57 -47 -101 -120 -101s-120 44 -120 101s47 101 120 101s120 -44 120 -101zM282 671c0 20 -10 30 -32 30s-32 -10 -32 -30s10 -30 32 -30s32 10 32 30z" />
    <glyph glyph-name="hungarumlaut" unicode="&#x2dd;" horiz-adv-x="500" 
d="M190 762c45 0 69 -19 69 -42c0 -7 -2 -14 -6 -22l-43 -86c-9 -19 -25 -33 -67 -33c-33 0 -51 12 -51 32c0 2 1 5 1 7l17 98c6 33 36 46 80 46zM397 762c38 -1 60 -17 60 -43c0 -9 -4 -20 -11 -30l-53 -74c-17 -23 -33 -36 -71 -36c-26 0 -53 10 -53 39c0 7 2 16 7 26
l33 71c13 28 27 47 88 47z" />
    <glyph glyph-name="dotaccent" unicode="&#x2d9;" horiz-adv-x="500" 
d="M250 589c-39 0 -69 14 -69 53v59c0 39 30 54 69 54s68 -15 68 -54v-59c0 -39 -29 -53 -68 -53z" />
    <glyph glyph-name="cedilla" unicode="&#xb8;" horiz-adv-x="500" 
d="M190 0h145c20 -21 28 -60 28 -86c0 -70 -59 -126 -143 -126c-62 0 -107 18 -133 42c-12 12 -16 24 -16 40c0 30 25 59 54 59c12 0 18 -3 29 -10c10 -7 22 -9 30 -9c19 0 31 10 31 33c0 20 -11 39 -25 57z" />
    <glyph glyph-name="ogonek" unicode="&#x2db;" horiz-adv-x="500" 
d="M186 0h158c-36 -19 -57 -45 -57 -66c0 -16 9 -24 25 -24c22 0 27 14 50 14c29 0 49 -30 49 -59c0 -18 -7 -37 -23 -48c-32 -23 -71 -34 -115 -34c-72 0 -136 34 -136 113c0 37 18 83 49 104z" />
    <glyph glyph-name="comma" unicode="," horiz-adv-x="244" 
d="M139 196c56 0 103 -19 80 -85l-72 -205c-13 -38 -36 -50 -87 -50c-46 0 -78 25 -70 61l44 207c12 58 44 72 105 72z" />
    <glyph glyph-name="semicolon" unicode=";" horiz-adv-x="244" 
d="M123 341c-54 0 -95 19 -95 72v67c0 54 41 73 95 73c52 0 92 -19 92 -73v-67c0 -53 -40 -72 -92 -72zM133 196c56 0 103 -19 80 -85l-72 -205c-13 -38 -36 -50 -87 -50c-46 0 -78 25 -70 61l44 207c12 58 44 72 105 72z" />
    <glyph glyph-name="colon" unicode=":" horiz-adv-x="244" 
d="M123 -15c-54 0 -95 19 -95 72v67c0 54 41 73 95 73c52 0 92 -19 92 -73v-67c0 -53 -40 -72 -92 -72zM123 341c-54 0 -95 19 -95 72v67c0 54 41 73 95 73c52 0 92 -19 92 -73v-67c0 -53 -40 -72 -92 -72z" />
    <glyph glyph-name="period" unicode="." horiz-adv-x="244" 
d="M123 -15c-54 0 -95 19 -95 72v67c0 54 41 73 95 73c52 0 92 -19 92 -73v-67c0 -53 -40 -72 -92 -72z" />
    <glyph glyph-name="ellipsis" unicode="&#x2026;" horiz-adv-x="811" 
d="M123 -15c-54 0 -95 19 -95 72v67c0 54 41 73 95 73c52 0 92 -19 92 -73v-67c0 -53 -40 -72 -92 -72zM407 -15c-54 0 -95 19 -95 72v67c0 54 41 73 95 73c52 0 92 -19 92 -73v-67c0 -53 -40 -72 -92 -72zM691 -15c-54 0 -95 19 -95 72v67c0 54 41 73 95 73
c52 0 92 -19 92 -73v-67c0 -53 -40 -72 -92 -72z" />
    <glyph glyph-name="hyphen" unicode="-" horiz-adv-x="399" 
d="M362 332c0 -42 -16 -77 -59 -77h-205c-45 0 -61 35 -61 77c0 43 16 78 61 78h205c43 0 59 -35 59 -78z" />
    <glyph glyph-name="hyphen" unicode="&#xad;" horiz-adv-x="399" 
d="M362 332c0 -42 -16 -77 -59 -77h-205c-45 0 -61 35 -61 77c0 43 16 78 61 78h205c43 0 59 -35 59 -78z" />
    <glyph glyph-name="exclam" unicode="!" horiz-adv-x="320" 
d="M161 -15c-54 0 -95 19 -95 72v67c0 54 41 73 95 73c52 0 92 -19 92 -73v-67c0 -53 -40 -72 -92 -72zM160 225c-49 0 -86 19 -88 70l-12 345c0 54 45 75 100 75s100 -21 100 -75l-12 -345c-2 -51 -39 -70 -88 -70z" />
    <glyph glyph-name="exclamdown" unicode="&#xa1;" horiz-adv-x="320" 
d="M159 553c52 0 92 -19 92 -72v-67c0 -54 -40 -73 -92 -73c-54 0 -95 19 -95 73v67c0 53 41 72 95 72zM158 313c49 0 86 -19 88 -70l12 -345c0 -54 -45 -75 -100 -75s-100 21 -100 75l12 345c2 51 39 70 88 70z" />
    <glyph glyph-name="question" unicode="?" horiz-adv-x="460" 
d="M375 357c-24 -24 -66 -54 -69 -78c-3 -25 -17 -54 -80 -54c-57 0 -90 23 -90 70c0 11 1 23 5 36c12 41 37 68 91 117c20 18 37 33 37 59c0 21 -13 37 -43 37c-24 0 -34 -8 -43 -27s-25 -30 -70 -30c-58 0 -107 25 -107 70c0 5 1 11 2 17c22 88 98 141 230 141
c135 0 221 -75 221 -193c0 -73 -39 -120 -84 -165zM221 -15c-54 0 -95 19 -95 72v67c0 54 41 73 95 73c52 0 92 -19 92 -73v-67c0 -53 -40 -72 -92 -72z" />
    <glyph glyph-name="questiondown" unicode="&#xbf;" horiz-adv-x="397" 
d="M70 181c24 24 66 54 69 78c3 25 17 54 80 54c57 0 90 -23 90 -70c0 -11 -1 -23 -5 -36c-12 -41 -37 -68 -91 -117c-20 -18 -37 -33 -37 -59c0 -21 13 -37 43 -37c24 0 34 8 43 27s25 30 70 30c58 0 107 -25 107 -70c0 -5 -1 -11 -2 -17c-22 -88 -98 -141 -230 -141
c-135 0 -221 75 -221 193c0 73 39 120 84 165zM224 553c54 0 95 -19 95 -72v-67c0 -54 -41 -73 -95 -73c-52 0 -92 19 -92 73v67c0 53 40 72 92 72z" />
    <glyph glyph-name="quoteleft" unicode="&#x2018;" horiz-adv-x="244" 
d="M104 447c-43 0 -82 11 -82 47c0 6 2 12 4 20l52 157c10 30 30 44 78 44c38 0 65 -21 65 -46c0 -2 0 -4 -1 -7l-25 -158c-7 -46 -36 -57 -91 -57z" />
    <glyph glyph-name="quoteright" unicode="&#x2019;" horiz-adv-x="244" 
d="M139 715c43 0 82 -11 82 -47c0 -6 -2 -12 -4 -20l-52 -157c-10 -30 -30 -44 -78 -44c-38 0 -65 21 -65 46c0 2 0 4 1 7l25 158c7 46 36 57 91 57z" />
    <glyph glyph-name="quotedblleft" unicode="&#x201c;" horiz-adv-x="474" 
d="M163 715c36 0 71 -11 71 -47c0 -6 0 -12 -2 -18l-44 -132c-12 -36 -23 -70 -95 -70c-57 0 -76 27 -76 55c0 9 2 18 6 26l57 125c21 45 45 61 83 61zM433 508c-7 -45 -39 -60 -95 -60s-78 23 -78 49c0 5 1 10 2 15l46 142c13 42 33 61 86 61c43 0 63 -18 63 -51
c0 -5 0 -10 -1 -16z" />
    <glyph glyph-name="quotedblright" unicode="&#x201d;" horiz-adv-x="474" 
d="M311 448c-36 0 -71 11 -71 47c0 6 0 12 2 18l44 132c12 36 23 70 95 70c57 0 76 -27 76 -55c0 -9 -2 -18 -6 -26l-57 -125c-21 -45 -45 -61 -83 -61zM41 655c7 45 39 60 95 60s78 -23 78 -49c0 -5 -1 -10 -2 -15l-46 -142c-13 -42 -33 -61 -86 -61c-43 0 -63 18 -63 51
c0 5 0 10 1 16z" />
    <glyph glyph-name="quotesinglbase" unicode="&#x201a;" horiz-adv-x="244" 
d="M139 98c43 0 82 -11 82 -47c0 -6 -2 -12 -4 -20l-52 -157c-10 -30 -30 -44 -78 -44c-38 0 -65 21 -65 46c0 2 0 4 1 7l25 158c7 46 36 57 91 57z" />
    <glyph glyph-name="quotedblbase" unicode="&#x201e;" horiz-adv-x="474" 
d="M311 -168c-36 0 -71 11 -71 47c0 6 0 12 2 18l44 132c12 36 23 70 95 70c57 0 76 -27 76 -55c0 -9 -2 -18 -6 -26l-57 -125c-21 -45 -45 -61 -83 -61zM41 39c7 45 39 60 95 60s78 -23 78 -49c0 -5 -1 -10 -2 -15l-46 -142c-13 -42 -33 -61 -86 -61c-43 0 -63 18 -63 51
c0 5 0 10 1 16z" />
    <glyph glyph-name="guilsinglleft" unicode="&#x2039;" horiz-adv-x="343" 
d="M319 89c0 -28 -24 -47 -69 -47c-51 0 -83 13 -121 69l-106 153c-6 8 -9 20 -9 32c0 14 4 28 10 37l103 151c38 56 71 69 121 69c45 0 69 -19 69 -47c0 -18 -13 -37 -23 -54l-95 -154l97 -155c10 -17 23 -36 23 -54z" />
    <glyph glyph-name="guilsinglright" unicode="&#x203a;" horiz-adv-x="343" 
d="M24 89c0 18 13 37 23 54l97 155l-95 154c-10 17 -23 36 -23 54c0 28 24 47 69 47c50 0 83 -13 121 -69l103 -151c6 -9 10 -23 10 -37c0 -12 -3 -24 -9 -32l-106 -153c-38 -56 -70 -69 -121 -69c-45 0 -69 19 -69 47z" />
    <glyph glyph-name="guillemotleft" unicode="&#xab;" horiz-adv-x="629" 
d="M319 89c0 -28 -24 -47 -69 -47c-51 0 -83 13 -121 69l-106 153c-6 8 -9 20 -9 32c0 14 4 28 10 37l103 151c38 56 71 69 121 69c45 0 69 -19 69 -47c0 -18 -13 -37 -23 -54l-95 -154l97 -155c10 -17 23 -36 23 -54zM605 89c0 -28 -24 -47 -69 -47c-51 0 -83 13 -121 69
l-106 153c-6 8 -9 20 -9 32c0 14 4 28 10 37l103 151c38 56 71 69 121 69c45 0 69 -19 69 -47c0 -18 -13 -37 -23 -54l-95 -154l97 -155c10 -17 23 -36 23 -54z" />
    <glyph glyph-name="guillemotright" unicode="&#xbb;" horiz-adv-x="629" 
d="M24 89c0 18 13 37 23 54l97 155l-95 154c-10 17 -23 36 -23 54c0 28 24 47 69 47c50 0 83 -13 121 -69l103 -151c6 -9 10 -23 10 -37c0 -12 -3 -24 -9 -32l-106 -153c-38 -56 -70 -69 -121 -69c-45 0 -69 19 -69 47zM310 89c0 18 13 37 23 54l97 155l-95 154
c-10 17 -23 36 -23 54c0 28 24 47 69 47c50 0 83 -13 121 -69l103 -151c6 -9 10 -23 10 -37c0 -12 -3 -24 -9 -32l-106 -153c-38 -56 -70 -69 -121 -69c-45 0 -69 19 -69 47z" />
    <glyph glyph-name="slash" unicode="/" horiz-adv-x="412" 
d="M86 -15c-41 0 -71 13 -71 46c0 7 1 15 4 24l214 589c19 52 41 71 92 71c41 0 72 -12 72 -44c0 -8 -2 -17 -6 -27l-215 -589c-18 -51 -39 -70 -90 -70z" />
    <glyph glyph-name="bar" unicode="|" horiz-adv-x="286" 
d="M143 -245c-46 0 -83 17 -83 63v882c0 47 37 64 83 64s83 -17 83 -64v-882c0 -46 -37 -63 -83 -63z" />
    <glyph glyph-name="endash" unicode="&#x2013;" horiz-adv-x="539" 
d="M502 332c0 -42 -16 -77 -59 -77h-345c-45 0 -61 35 -61 77c0 43 16 78 61 78h345c43 0 59 -35 59 -78z" />
    <glyph glyph-name="emdash" unicode="&#x2014;" horiz-adv-x="917" 
d="M880 332c0 -42 -16 -77 -59 -77h-723c-45 0 -61 35 -61 77c0 43 16 78 61 78h723c43 0 59 -35 59 -78z" />
    <glyph glyph-name="bullet" unicode="&#x2022;" horiz-adv-x="385" 
d="M30 333c0 90 72 163 162 163s163 -73 163 -163s-73 -162 -163 -162s-162 72 -162 162z" />
    <glyph glyph-name="periodcentered" unicode="&#xb7;" horiz-adv-x="244" 
d="M123 227c-54 0 -95 19 -95 72v67c0 54 41 73 95 73c52 0 92 -19 92 -73v-67c0 -53 -40 -72 -92 -72z" />
    <glyph glyph-name="parenleft" unicode="(" horiz-adv-x="344" 
d="M9 256c0 184 59 340 126 439c28 41 57 69 116 69c37 0 65 -15 65 -42c0 -13 -5 -29 -14 -43c-77 -117 -129 -264 -129 -424s52 -307 129 -424c9 -14 14 -30 14 -43c0 -27 -28 -42 -65 -42c-59 0 -88 28 -116 69c-67 99 -126 255 -126 441z" />
    <glyph glyph-name="parenright" unicode=")" horiz-adv-x="344" 
d="M335 256c0 -186 -59 -342 -126 -441c-28 -41 -57 -69 -116 -69c-37 0 -65 15 -65 42c0 13 5 29 14 43c77 117 129 264 129 424s-52 307 -129 424c-9 14 -14 30 -14 43c0 27 28 42 65 42c59 0 88 -28 116 -69c67 -99 126 -255 126 -439z" />
    <glyph glyph-name="bracketleft" unicode="[" horiz-adv-x="323" 
d="M222 613v-706h48c39 0 53 -31 53 -69c0 -37 -14 -68 -53 -68h-129c-45 0 -81 17 -81 62v855c0 46 36 63 81 63h129c39 0 53 -31 53 -69c0 -37 -14 -68 -53 -68h-48z" />
    <glyph glyph-name="bracketright" unicode="]" horiz-adv-x="323" 
d="M101 -93v706h-48c-39 0 -53 31 -53 68c0 38 14 69 53 69h129c45 0 81 -17 81 -63v-855c0 -45 -36 -62 -81 -62h-129c-39 0 -53 31 -53 68c0 38 14 69 53 69h48z" />
    <glyph glyph-name="braceleft" unicode="{" horiz-adv-x="370" 
d="M-16 261c0 41 10 66 62 77c28 6 42 19 42 48v219c0 109 67 159 169 159c52 0 113 -8 113 -67c0 -62 -19 -75 -42 -75c-13 0 -24 2 -39 2c-21 0 -38 -9 -38 -35v-228c0 -44 -22 -85 -69 -101c47 -16 69 -57 69 -101v-228c0 -26 17 -35 38 -35c15 0 26 2 39 2
c23 0 42 -13 42 -75c0 -59 -61 -67 -113 -67c-102 0 -169 50 -169 159v219c0 29 -14 42 -42 48c-52 11 -62 36 -62 79z" />
    <glyph glyph-name="braceright" unicode="}" horiz-adv-x="370" 
d="M386 261c0 -43 -10 -68 -62 -79c-28 -6 -42 -19 -42 -48v-219c0 -109 -67 -159 -169 -159c-52 0 -113 8 -113 67c0 62 19 75 42 75c13 0 24 -2 39 -2c21 0 38 9 38 35v228c0 44 22 85 69 101c-47 16 -69 57 -69 101v228c0 26 -17 35 -38 35c-15 0 -26 -2 -39 -2
c-23 0 -42 13 -42 75c0 59 61 67 113 67c102 0 169 -50 169 -159v-219c0 -29 14 -42 42 -48c52 -11 62 -36 62 -77z" />
    <glyph glyph-name="asterisk" unicode="*" horiz-adv-x="428" 
d="M215 313c-31 0 -55 11 -54 41v77l-70 -50c-7 -4 -14 -6 -20 -6c-27 0 -54 41 -54 68c0 12 6 23 20 31l69 40l-69 40c-14 8 -20 19 -20 31c0 27 27 68 54 68c6 0 13 -2 20 -6l71 -44l-1 71c-1 30 23 41 54 41c30 0 54 -11 54 -41l-1 -71l71 44c7 4 14 6 20 6
c27 0 54 -41 54 -68c0 -12 -6 -23 -20 -31l-69 -40l69 -40c14 -8 20 -19 20 -31c0 -27 -27 -68 -54 -68c-6 0 -13 2 -20 6l-72 50l2 -77c0 -30 -24 -41 -54 -41z" />
    <glyph glyph-name="dagger" unicode="&#x2020;" horiz-adv-x="430" 
d="M298 496v-193c0 -47 -37 -64 -83 -64s-83 17 -83 64v193h-81c-34 0 -46 27 -46 58c0 32 12 59 46 59h81v38c0 47 37 64 83 64s83 -17 83 -64v-38h81c34 0 46 -27 46 -59c0 -31 -12 -58 -46 -58h-81z" />
    <glyph glyph-name="daggerdbl" unicode="&#x2021;" horiz-adv-x="430" 
d="M298 331v-28c0 -47 -37 -64 -83 -64s-83 17 -83 64v28h-61c-34 0 -46 27 -46 58c0 32 12 59 46 59h61v48h-81c-34 0 -46 27 -46 58c0 32 12 59 46 59h81v38c0 47 37 64 83 64s83 -17 83 -64v-38h81c34 0 46 -27 46 -59c0 -31 -12 -58 -46 -58h-81v-48h61
c34 0 46 -27 46 -59c0 -31 -12 -58 -46 -58h-61z" />
    <glyph glyph-name="section" unicode="&#xa7;" horiz-adv-x="537" 
d="M473 135c6 -13 10 -26 10 -41c0 -131 -81 -198 -232 -198c-76 0 -147 23 -196 60c-19 14 -28 38 -28 63c0 44 27 91 63 91c9 0 19 -2 29 -9c41 -27 78 -52 119 -52c21 0 39 9 39 28c0 58 -259 81 -259 273c0 53 18 93 50 120c-7 15 -10 32 -10 50c0 120 91 195 230 195
c140 0 215 -67 228 -143c1 -4 1 -9 1 -13c0 -49 -45 -77 -97 -77c-38 0 -63 9 -74 43c-8 24 -23 39 -48 39c-22 0 -42 -9 -42 -36c0 -82 267 -99 267 -266c0 -58 -18 -100 -50 -127zM173 386c-8 -6 -9 -26 -9 -32c0 -46 91 -72 200 -136c4 7 6 21 6 27c0 47 -93 57 -197 141
z" />
    <glyph glyph-name="paragraph" unicode="&#xb6;" horiz-adv-x="728" 
d="M310 215c-12 -3 -28 -4 -49 -4c-169 0 -246 80 -246 256c0 163 84 233 262 233h325c37 0 67 -14 67 -51v-707c0 -42 -34 -58 -77 -58s-77 16 -77 58v603h-51v-603c0 -42 -34 -58 -77 -58s-77 16 -77 58v273zM310 545h-33c-57 0 -81 -14 -81 -92c0 -73 29 -87 87 -87
c13 0 21 1 27 2v177z" />
    <glyph glyph-name="uni0410" unicode="&#x410;" horiz-adv-x="602" 
d="M194 109l-17 -67c-7 -31 -30 -57 -92 -57c-52 0 -83 16 -83 56c0 8 1 16 4 26l163 578c11 39 37 55 81 55h110c39 0 64 -13 76 -56l160 -573c3 -10 4 -18 4 -26c0 -42 -35 -60 -84 -60c-74 0 -94 29 -103 63l-16 61h-203zM294 511l-62 -249h126z" />
    <glyph glyph-name="uni0411" unicode="&#x411;" horiz-adv-x="574" 
d="M244 535v-86c12 3 38 4 59 4c160 0 246 -54 246 -217c0 -161 -74 -236 -262 -236h-135c-51 0 -92 19 -92 70v559c0 52 41 71 92 71h287c46 0 63 -37 63 -82s-17 -83 -63 -83h-195zM244 308v-155h43c57 0 81 14 81 82c0 63 -29 75 -87 75c-13 0 -31 -1 -37 -2z" />
    <glyph glyph-name="uni0412" unicode="&#x412;" horiz-adv-x="592" 
d="M152 0c-51 0 -92 19 -92 70v559c0 52 41 71 92 71h145c139 0 254 -27 254 -178c0 -78 -42 -143 -107 -166c77 -12 128 -63 128 -152c0 -147 -97 -204 -272 -204h-148zM244 286v-139h56c51 0 70 28 70 71c0 47 -20 68 -70 68h-56zM244 553v-133h55c40 0 61 18 61 70
c0 58 -30 63 -66 63h-50z" />
    <glyph glyph-name="uni0413" unicode="&#x413;" horiz-adv-x="489" 
d="M244 535v-480c0 -51 -41 -70 -92 -70s-92 19 -92 70v574c0 52 41 71 92 71h266c46 0 63 -37 63 -82s-17 -83 -63 -83h-174z" />
    <glyph glyph-name="uni0414" unicode="&#x414;" horiz-adv-x="661" 
d="M66 168c21 43 37 121 37 212v249c0 52 41 71 92 71h311c51 0 92 -19 92 -71v-463c30 -7 54 -26 52 -62l-12 -213c0 -45 -35 -61 -79 -61c-43 0 -72 16 -78 61l-14 109h-278l-13 -109c-6 -45 -35 -61 -78 -61c-44 0 -76 16 -79 61l-12 213c-2 38 24 58 59 64zM286 535
v-148c0 -99 -17 -175 -37 -221h165v369h-128z" />
    <glyph glyph-name="uni0415" unicode="&#x415;" horiz-adv-x="533" 
d="M477 345c0 -41 -16 -73 -58 -73h-175v-107h197c46 0 63 -37 63 -82c0 -46 -17 -83 -63 -83h-289c-51 0 -92 19 -92 70v559c0 52 41 71 92 71h275c46 0 63 -37 63 -82c0 -46 -17 -83 -63 -83h-183v-113h175c42 0 58 -34 58 -77z" />
    <glyph glyph-name="uni0416" unicode="&#x416;" horiz-adv-x="884" 
d="M442 -15c-51 0 -92 19 -92 70v226h-19c-28 0 -42 -8 -56 -48l-26 -89c-8 -27 -14 -51 -29 -86c-22 -52 -53 -73 -124 -73c-55 0 -81 23 -81 57c0 10 3 20 8 33c14 34 26 64 34 88l48 144c14 42 36 82 85 94l-166 226c-6 8 -12 22 -12 30c0 42 36 58 84 58
c68 0 89 -31 109 -63l140 -229h5v221c0 52 41 71 92 71s92 -19 92 -71v-221h5l140 229c20 32 41 63 109 63c48 0 84 -16 84 -58c0 -8 -6 -22 -12 -30l-166 -226c49 -12 71 -52 85 -94l48 -144c8 -24 20 -54 34 -88c5 -13 8 -23 8 -33c0 -34 -26 -57 -81 -57
c-71 0 -102 21 -124 73c-15 35 -21 59 -29 86l-26 89c-14 40 -28 48 -56 48h-19v-226c0 -51 -41 -70 -92 -70z" />
    <glyph glyph-name="uni0417" unicode="&#x417;" horiz-adv-x="539" 
d="M415 369c79 -25 101 -90 101 -162c0 -149 -95 -222 -250 -222c-117 0 -238 45 -238 129c0 46 30 95 71 95c11 0 24 -3 36 -11c39 -26 80 -43 119 -43c38 0 68 17 68 56c0 40 -27 52 -68 52h-42c-47 0 -64 37 -64 83c0 45 17 82 64 82h37c36 0 59 23 59 59
c0 33 -14 58 -52 58c-29 0 -41 -16 -51 -32c-13 -20 -31 -41 -70 -41c-58 0 -108 24 -108 74c0 10 2 22 7 33c36 87 115 136 228 136c149 0 241 -76 241 -203c0 -54 -20 -107 -88 -143z" />
    <glyph glyph-name="uni0418" unicode="&#x418;" horiz-adv-x="690" 
d="M240 318l185 344c18 34 50 53 97 53c67 0 114 -19 114 -69v-592c0 -51 -40 -69 -90 -69s-90 18 -90 69v342l-185 -358c-17 -34 -50 -53 -97 -53c-67 0 -114 19 -114 69v592c0 51 40 69 90 69s90 -18 90 -69v-328z" />
    <glyph glyph-name="uni0419" unicode="&#x419;" horiz-adv-x="696" 
d="M345 762c-91 0 -161 55 -161 133c0 33 23 44 58 44s52 -11 58 -35c6 -23 25 -31 45 -31s39 8 45 31c6 24 23 35 58 35s58 -11 58 -44c0 -78 -70 -133 -161 -133zM240 318l185 344c18 34 50 53 97 53c67 0 114 -19 114 -69v-592c0 -51 -40 -69 -90 -69s-90 18 -90 69v342
l-185 -358c-17 -34 -50 -53 -97 -53c-67 0 -114 19 -114 69v592c0 51 40 69 90 69s90 -18 90 -69v-328z" />
    <glyph glyph-name="uni041A" unicode="&#x41a;" horiz-adv-x="604" 
d="M152 -15c-51 0 -92 19 -92 70v589c0 52 41 71 92 71s92 -19 92 -71v-221h5l150 229c21 32 41 63 109 63c48 0 84 -16 84 -58c0 -8 -6 -22 -12 -30l-166 -226c49 -12 71 -52 85 -94l48 -144c8 -24 20 -54 34 -88c5 -13 8 -23 8 -33c0 -34 -26 -57 -81 -57
c-71 0 -102 21 -124 73c-15 35 -21 59 -29 86l-26 89c-14 40 -28 48 -56 48h-29v-226c0 -51 -41 -70 -92 -70z" />
    <glyph glyph-name="uni041B" unicode="&#x41b;" horiz-adv-x="660" 
d="M508 -15c-51 0 -92 19 -92 70v480h-113l-14 -254c-7 -133 -27 -296 -200 -296c-70 0 -89 38 -89 83c0 44 20 75 62 84c33 7 40 67 43 129l18 348c3 52 41 71 92 71h293c51 0 92 -19 92 -71v-574c0 -51 -41 -70 -92 -70z" />
    <glyph glyph-name="uni041C" unicode="&#x41c;" horiz-adv-x="847" 
d="M424 306l99 324c15 49 40 70 94 70h49c49 0 91 -19 96 -69l51 -578v-7c0 -44 -38 -61 -86 -61c-50 0 -96 19 -99 68l-23 338l-79 -283c-14 -48 -42 -62 -102 -62c-59 0 -88 14 -102 62l-79 283l-23 -338c-4 -49 -50 -68 -99 -68c-48 0 -86 17 -86 61v7l51 578
c4 50 46 69 96 69h49c54 0 79 -21 94 -70z" />
    <glyph glyph-name="uni041D" unicode="&#x41d;" horiz-adv-x="675" 
d="M526 -15c-51 0 -92 19 -92 70v202h-190v-202c0 -51 -41 -70 -92 -70s-92 19 -92 70v589c0 52 41 71 92 71s92 -19 92 -71v-211h190v211c0 52 41 71 92 71s92 -19 92 -71v-589c0 -51 -41 -70 -92 -70z" />
    <glyph glyph-name="uni041E" unicode="&#x41e;" horiz-adv-x="623" 
d="M311 715c162 0 292 -96 292 -366c0 -269 -130 -364 -292 -364c-161 0 -291 95 -291 364c0 270 130 366 291 366zM311 545c-58 0 -107 -35 -107 -195c0 -159 49 -195 107 -195c59 0 97 36 97 195c0 160 -38 195 -97 195z" />
    <glyph glyph-name="uni041F" unicode="&#x41f;" horiz-adv-x="678" 
d="M152 -15c-51 0 -92 19 -92 70v574c0 52 41 71 92 71h374c51 0 92 -19 92 -71v-574c0 -51 -41 -70 -92 -70s-92 19 -92 70v480h-190v-480c0 -51 -41 -70 -92 -70z" />
    <glyph glyph-name="uni0420" unicode="&#x420;" horiz-adv-x="569" 
d="M244 215v-160c0 -51 -41 -70 -92 -70s-92 19 -92 70v574c0 52 41 71 92 71h125c188 0 262 -50 262 -233c0 -176 -77 -256 -246 -256c-21 0 -37 1 -49 4zM244 545v-177c6 -1 14 -2 27 -2c58 0 87 14 87 87c0 78 -24 92 -81 92h-33z" />
    <glyph glyph-name="uni0421" unicode="&#x421;" horiz-adv-x="571" 
d="M457 442c-107 0 -52 103 -145 103c-73 0 -103 -54 -103 -188c0 -169 66 -202 145 -202c41 0 83 10 121 25c13 5 23 7 32 7c33 0 42 -29 42 -66c0 -56 -9 -83 -59 -103c-43 -18 -98 -33 -164 -33c-188 0 -306 109 -306 372c0 249 105 358 293 358c130 0 227 -54 242 -204
c0 -51 -45 -69 -98 -69z" />
    <glyph glyph-name="uni0422" unicode="&#x422;" horiz-adv-x="562" 
d="M556 614c0 -48 -18 -87 -66 -87h-117v-472c0 -51 -41 -70 -92 -70s-92 19 -92 70v472h-116c-49 0 -67 39 -67 87c0 47 18 86 67 86h417c48 0 66 -39 66 -86z" />
    <glyph glyph-name="uni0423" unicode="&#x423;" horiz-adv-x="560" 
d="M194 216l-191 413c-3 10 -2 18 -2 26c0 42 41 60 86 60c69 0 93 -30 106 -63l98 -251l97 251c13 33 25 63 97 63c45 0 75 -18 75 -60c0 -8 0 -16 -4 -26l-157 -424c-50 -134 -108 -220 -278 -220c-53 0 -87 18 -87 78c0 42 16 77 81 77c44 0 63 34 79 76z" />
    <glyph glyph-name="uni0424" unicode="&#x424;" horiz-adv-x="764" 
d="M314 211v311c-56 0 -115 -50 -115 -157s59 -154 115 -154zM450 522v-311c56 0 115 47 115 154s-59 157 -115 157zM382 -15c-38 0 -68 13 -68 51v21c-168 15 -299 113 -299 309c0 194 131 292 299 307v21c0 38 30 51 68 51s68 -13 68 -51v-21c168 -15 299 -113 299 -307
c0 -196 -131 -294 -299 -309v-21c0 -38 -30 -51 -68 -51z" />
    <glyph glyph-name="uni0425" unicode="&#x425;" horiz-adv-x="565" 
d="M290 504l73 148c16 31 33 63 105 63c45 0 83 -18 83 -60c0 -8 -2 -18 -7 -27l-154 -271l163 -286c5 -9 5 -18 5 -26c0 -42 -49 -60 -94 -60c-66 0 -93 29 -111 62l-77 147l-77 -146c-16 -31 -33 -63 -105 -63c-45 0 -87 18 -87 60c0 8 2 18 7 27l154 272l-155 285
c-5 9 -6 18 -6 26c0 42 49 60 94 60c66 0 96 -28 113 -62z" />
    <glyph glyph-name="uni0426" unicode="&#x426;" horiz-adv-x="703" 
d="M244 165h190v480c0 51 41 70 92 70s92 -19 92 -70v-479c51 -2 76 -17 74 -62l-10 -213c-2 -45 -31 -61 -75 -61c-43 0 -68 16 -74 61l-16 109h-365c-51 0 -92 19 -92 71v574c0 51 41 70 92 70s92 -19 92 -70v-480z" />
    <glyph glyph-name="uni0427" unicode="&#x427;" horiz-adv-x="648" 
d="M501 -15c-51 0 -92 19 -92 70v197c-27 -8 -66 -17 -99 -17c-191 0 -260 109 -260 265v144c0 52 41 71 92 71s92 -19 92 -71v-139c0 -69 31 -100 88 -100c27 0 57 1 87 15v224c0 52 41 71 92 71s92 -19 92 -71v-589c0 -51 -41 -70 -92 -70z" />
    <glyph glyph-name="uni0428" unicode="&#x428;" horiz-adv-x="952" 
d="M244 165h140v480c0 51 41 70 92 70s92 -19 92 -70v-480h140v480c0 51 41 70 92 70s92 -19 92 -70v-574c0 -52 -41 -71 -92 -71h-648c-51 0 -92 19 -92 71v574c0 51 41 70 92 70s92 -19 92 -70v-480z" />
    <glyph glyph-name="uni0429" unicode="&#x429;" horiz-adv-x="977" 
d="M244 165h140v480c0 51 41 70 92 70s92 -19 92 -70v-480h140v480c0 51 41 70 92 70s92 -19 92 -70v-479c51 -2 76 -17 74 -62l-10 -213c-2 -45 -31 -61 -75 -61c-43 0 -68 16 -74 61l-16 109h-639c-51 0 -92 19 -92 71v574c0 51 41 70 92 70s92 -19 92 -70v-480z" />
    <glyph glyph-name="uni042A" unicode="&#x42a;" horiz-adv-x="632" 
d="M307 485c12 3 28 4 49 4c169 0 256 -70 256 -246c0 -163 -84 -243 -272 -243h-125c-51 0 -92 19 -92 71v464h-60c-46 0 -63 38 -63 83s17 82 63 82h152c51 0 92 -19 92 -70v-145zM307 332v-177h33c57 0 91 14 91 92c0 73 -39 87 -97 87c-13 0 -21 -1 -27 -2z" />
    <glyph glyph-name="uni042B" unicode="&#x42b;" horiz-adv-x="871" 
d="M719 -15c-51 0 -92 19 -92 70v589c0 52 41 71 92 71s92 -19 92 -71v-589c0 -51 -41 -70 -92 -70zM244 485c12 3 28 4 49 4c169 0 256 -70 256 -246c0 -163 -84 -243 -272 -243h-125c-51 0 -92 19 -92 71v574c0 51 41 70 92 70s92 -19 92 -70v-160zM244 332v-177h33
c57 0 91 14 91 92c0 73 -39 87 -97 87c-13 0 -21 -1 -27 -2z" />
    <glyph glyph-name="uni042C" unicode="&#x42c;" horiz-adv-x="569" 
d="M244 645v-160c12 3 28 4 49 4c169 0 256 -70 256 -246c0 -163 -84 -243 -272 -243h-125c-51 0 -92 19 -92 71v574c0 51 41 70 92 70s92 -19 92 -70zM244 332v-177h33c57 0 91 14 91 92c0 73 -39 87 -97 87c-13 0 -21 -1 -27 -2z" />
    <glyph glyph-name="uni042D" unicode="&#x42d;" horiz-adv-x="571" 
d="M361 411c-4 94 -23 134 -96 134c-93 0 -42 -83 -149 -83c-50 0 -99 15 -99 62c0 121 115 191 241 191c188 0 293 -109 293 -358c0 -263 -118 -372 -306 -372c-66 0 -121 15 -164 33c-50 20 -59 47 -59 103c0 37 9 66 42 66c9 0 19 -2 32 -7c38 -15 80 -25 121 -25
c62 0 116 20 136 109h-181c-40 0 -56 34 -56 74c0 41 16 73 56 73h189z" />
    <glyph glyph-name="uni042E" unicode="&#x42e;" horiz-adv-x="938" 
d="M152 -15c-51 0 -92 19 -92 70v589c0 52 41 71 92 71s92 -19 92 -71v-211h96c24 206 143 282 286 282c162 0 292 -96 292 -366c0 -269 -130 -364 -292 -364c-141 0 -258 73 -285 272h-97v-202c0 -51 -41 -70 -92 -70zM626 545c-58 0 -107 -35 -107 -195
c0 -159 49 -195 107 -195c59 0 97 36 97 195c0 160 -38 195 -97 195z" />
    <glyph glyph-name="uni042F" unicode="&#x42f;" horiz-adv-x="593" 
d="M349 257h-30c-43 0 -48 -44 -65 -105c-9 -31 -18 -65 -29 -95c-19 -53 -48 -72 -126 -72c-55 0 -81 23 -81 57c0 10 3 20 8 33c10 26 21 60 33 92c41 113 53 128 103 145c-69 14 -129 61 -129 171c0 164 121 217 273 217h135c51 0 92 -19 92 -71v-574
c0 -51 -41 -70 -92 -70s-92 19 -92 70v202zM349 396v149h-44c-57 0 -81 -21 -81 -71c0 -51 30 -78 84 -78h41z" />
    <glyph glyph-name="uni0403" unicode="&#x403;" horiz-adv-x="489" 
d="M244 535v-480c0 -51 -41 -70 -92 -70s-92 19 -92 70v574c0 52 41 71 92 71h266c46 0 63 -37 63 -82s-17 -83 -63 -83h-174zM398 852l-52 -69c-22 -29 -45 -42 -90 -42c-41 0 -58 17 -58 39c0 7 3 16 7 24l42 77c13 23 34 43 95 43c42 0 66 -20 66 -45
c0 -9 -3 -18 -10 -27z" />
    <glyph glyph-name="uni0490" unicode="&#x490;" horiz-adv-x="535" 
d="M244 535v-480c0 -51 -41 -70 -92 -70s-92 19 -92 70v574c0 52 41 71 92 71h185l15 104c6 45 35 61 78 61c44 0 79 -16 79 -61v-203c0 -48 -38 -66 -86 -66h-179z" />
    <glyph glyph-name="uni0402" unicode="&#x402;" horiz-adv-x="753" 
d="M713 197v-36c0 -121 -36 -194 -117 -253c-29 -21 -73 -12 -102 15c-21 19 -41 62 -10 96c32 37 45 76 45 142v26c0 69 -17 96 -74 96c-27 0 -51 -4 -81 -18v-210c0 -51 -41 -70 -92 -70s-92 19 -92 70v480h-121c-46 0 -63 38 -63 83s17 82 63 82h426c46 0 63 -37 63 -82
s-17 -83 -63 -83h-121v-105c34 11 62 20 126 20c158 0 213 -77 213 -253z" />
    <glyph glyph-name="uni0404" unicode="&#x404;" horiz-adv-x="571" 
d="M210 411h189c40 0 56 -32 56 -73c0 -40 -16 -74 -56 -74h-181c20 -89 74 -109 136 -109c41 0 83 10 121 25c13 5 23 7 32 7c33 0 42 -29 42 -66c0 -56 -9 -83 -59 -103c-43 -18 -98 -33 -164 -33c-188 0 -306 109 -306 372c0 249 105 358 293 358c126 0 241 -65 241 -191
c0 -47 -49 -62 -99 -62c-107 0 -56 83 -149 83c-73 0 -92 -40 -96 -134z" />
    <glyph glyph-name="uni0405" unicode="&#x405;" horiz-adv-x="545" 
d="M269 715c127 0 212 -45 240 -160c2 -9 3 -14 3 -21c0 -49 -51 -64 -95 -64c-74 0 -70 12 -86 46c-12 25 -31 37 -60 37c-35 0 -57 -16 -57 -48c0 -103 296 -93 296 -300c0 -131 -73 -220 -248 -220c-84 0 -170 33 -206 61c-20 15 -31 40 -31 65c0 56 34 98 72 98
c9 0 24 -3 33 -10c43 -30 90 -44 134 -44c41 0 57 11 57 33c0 86 -295 74 -295 308c0 133 94 219 243 219z" />
    <glyph glyph-name="uni0400" unicode="&#x400;" horiz-adv-x="524" 
d="M477 345c0 -41 -16 -73 -58 -73h-175v-107h197c46 0 63 -37 63 -82c0 -46 -17 -83 -63 -83h-289c-51 0 -92 19 -92 70v559c0 52 41 71 92 71h275c46 0 63 -37 63 -82c0 -46 -17 -83 -63 -83h-183v-113h175c42 0 58 -34 58 -77zM187 783l-52 69c-7 9 -10 18 -10 27
c0 25 24 45 66 45c65 0 82 -20 95 -43l42 -77c4 -8 7 -17 7 -24c0 -22 -17 -39 -58 -39c-45 0 -68 13 -90 42z" />
    <glyph glyph-name="uni0401" unicode="&#x401;" horiz-adv-x="524" 
d="M477 345c0 -41 -16 -73 -58 -73h-175v-107h197c46 0 63 -37 63 -82c0 -46 -17 -83 -63 -83h-289c-51 0 -92 19 -92 70v559c0 52 41 71 92 71h275c46 0 63 -37 63 -82c0 -46 -17 -83 -63 -83h-183v-113h175c42 0 58 -34 58 -77zM177 751c-39 0 -69 14 -69 53v59
c0 39 30 54 69 54s68 -15 68 -54v-59c0 -39 -29 -53 -68 -53zM360 751c-39 0 -69 14 -69 53v59c0 39 30 54 69 54s68 -15 68 -54v-59c0 -39 -29 -53 -68 -53z" />
    <glyph glyph-name="uni0406" unicode="&#x406;" horiz-adv-x="304" 
d="M152 -15c-51 0 -92 19 -92 70v589c0 52 41 71 92 71s92 -19 92 -71v-589c0 -51 -41 -70 -92 -70z" />
    <glyph glyph-name="uni0407" unicode="&#x407;" horiz-adv-x="304" 
d="M152 -15c-51 0 -92 19 -92 70v589c0 52 41 71 92 71s92 -19 92 -71v-589c0 -51 -41 -70 -92 -70zM61 751c-39 0 -69 14 -69 53v59c0 39 30 54 69 54s68 -15 68 -54v-59c0 -39 -29 -53 -68 -53zM244 751c-39 0 -69 14 -69 53v59c0 39 30 54 69 54s68 -15 68 -54v-59
c0 -39 -29 -53 -68 -53z" />
    <glyph glyph-name="uni0408" unicode="&#x408;" horiz-adv-x="343" 
d="M54 156c8 0 15 -1 23 -1c18 0 32 11 32 42v447c0 52 41 71 92 71s92 -19 92 -71v-469c0 -121 -71 -190 -172 -190c-60 0 -121 7 -121 79c0 35 8 92 54 92z" />
    <glyph glyph-name="uni040D" unicode="&#x40d;" horiz-adv-x="696" 
d="M240 317v330c0 49 -40 68 -90 68s-90 -19 -90 -68v-593c0 -50 52 -69 102 -69c65 0 93 22 117 69l177 346v-346c0 -50 40 -69 90 -69s90 19 90 69v593c0 49 -51 68 -101 68c-71 0 -100 -33 -130 -89zM257 783l-52 69c-7 9 -10 18 -10 27c0 25 24 45 66 45
c65 0 82 -20 95 -43l42 -77c4 -8 7 -17 7 -24c0 -22 -17 -39 -58 -39c-45 0 -68 13 -90 42z" />
    <glyph glyph-name="uni040C" unicode="&#x40c;" horiz-adv-x="604" 
d="M152 -15c-51 0 -92 19 -92 70v589c0 52 41 71 92 71s92 -19 92 -71v-221h5l150 229c21 32 41 63 109 63c48 0 84 -16 84 -58c0 -8 -6 -22 -12 -30l-166 -226c49 -12 71 -52 85 -94l48 -144c8 -24 20 -54 34 -88c5 -13 8 -23 8 -33c0 -34 -26 -57 -81 -57
c-71 0 -102 21 -124 73c-15 35 -21 59 -29 86l-26 89c-14 40 -28 48 -56 48h-29v-226c0 -51 -41 -70 -92 -70zM464 852l-52 -69c-22 -29 -45 -42 -90 -42c-41 0 -58 17 -58 39c0 7 3 16 7 24l42 77c13 23 34 43 95 43c42 0 66 -20 66 -45c0 -9 -3 -18 -10 -27z" />
    <glyph glyph-name="uni0409" unicode="&#x409;" horiz-adv-x="925" 
d="M600 485c12 3 28 4 49 4c169 0 256 -70 256 -246c0 -163 -84 -243 -272 -243h-125c-51 0 -92 19 -92 71v464h-113l-14 -254c-7 -133 -27 -296 -200 -296c-70 0 -89 38 -89 83c0 44 20 75 62 84c33 7 40 67 43 129l18 348c3 52 41 71 92 71h293c51 0 92 -19 92 -71v-144z
M600 332v-177h33c57 0 91 14 91 92c0 73 -39 87 -97 87c-13 0 -21 -1 -27 -2z" />
    <glyph glyph-name="uni040A" unicode="&#x40a;" horiz-adv-x="920" 
d="M595 485c12 3 28 4 49 4c169 0 256 -70 256 -246c0 -163 -84 -243 -272 -243h-125c-51 0 -92 19 -92 71v206h-167v-222c0 -51 -41 -70 -92 -70s-92 19 -92 70v589c0 52 41 71 92 71s92 -19 92 -71v-191h167v192c0 51 41 70 92 70s92 -19 92 -70v-160zM595 332v-177h33
c57 0 91 14 91 92c0 73 -39 87 -97 87c-13 0 -21 -1 -27 -2z" />
    <glyph glyph-name="uni040B" unicode="&#x40b;" horiz-adv-x="763" 
d="M69 700h426c46 0 63 -37 63 -82s-17 -83 -63 -83h-121v-105c34 11 62 20 126 20c158 0 213 -77 213 -253v-142c0 -51 -41 -70 -92 -70s-92 19 -92 70v132c0 69 -17 96 -74 96c-27 0 -51 -4 -81 -18v-210c0 -51 -41 -70 -92 -70s-92 19 -92 70v480h-121
c-46 0 -63 38 -63 83s17 82 63 82z" />
    <glyph glyph-name="uni040E" unicode="&#x40e;" horiz-adv-x="560" 
d="M194 216l-191 413c-3 10 -2 18 -2 26c0 42 41 60 86 60c69 0 93 -30 106 -63l98 -251l97 251c13 33 25 63 97 63c45 0 75 -18 75 -60c0 -8 0 -16 -4 -26l-157 -424c-50 -134 -108 -220 -278 -220c-53 0 -87 18 -87 78c0 42 16 77 81 77c44 0 63 34 79 76zM288 747
c-91 0 -161 55 -161 133c0 33 23 44 58 44s52 -11 58 -35c6 -23 25 -31 45 -31s39 8 45 31c6 24 23 35 58 35s58 -11 58 -44c0 -78 -70 -133 -161 -133z" />
    <glyph glyph-name="uni040F" unicode="&#x40f;" horiz-adv-x="678" 
d="M339 -168c-47 0 -81 18 -82 65l-3 103h-102c-51 0 -92 19 -92 71v574c0 51 41 70 92 70s92 -19 92 -70v-469h190v469c0 51 41 70 92 70s92 -19 92 -70v-574c0 -52 -41 -71 -92 -71h-103l-2 -103c-1 -47 -35 -65 -82 -65z" />
    <glyph glyph-name="uni0462" unicode="&#x462;" horiz-adv-x="666" 
d="M157 534h-116c-30 0 -41 23 -41 51s11 52 41 52h116v8c0 51 41 70 92 70s92 -19 92 -70v-8h198c29 0 39 -24 39 -52s-10 -51 -39 -51h-198v-49c12 3 28 4 49 4c169 0 256 -70 256 -246c0 -163 -84 -243 -272 -243h-125c-51 0 -92 19 -92 71v463zM341 332v-177h33
c57 0 91 14 91 92c0 73 -39 87 -97 87c-13 0 -21 -1 -27 -2z" />
    <glyph glyph-name="uni0472" unicode="&#x472;" horiz-adv-x="623" 
d="M311 715c162 0 292 -96 292 -366c0 -269 -130 -364 -292 -364c-161 0 -291 95 -291 364c0 270 130 366 291 366zM311 155c51 0 87 27 95 137h-200c11 -110 54 -137 105 -137zM311 545c-49 0 -91 -25 -104 -129h198c-9 104 -45 129 -94 129z" />
    <glyph glyph-name="uni0474" unicode="&#x474;" horiz-adv-x="608" 
d="M319 225l103 427c8 34 25 63 97 63c45 0 75 -18 75 -60c0 -8 -1 -16 -4 -26l-153 -570c-11 -43 -48 -59 -87 -59h-72c-44 0 -81 19 -92 58l-166 571c-3 10 -4 18 -4 26c0 42 48 60 93 60c69 0 98 -29 106 -63z" />
    <glyph glyph-name="uni0430" unicode="&#x430;" horiz-adv-x="542" 
d="M281 328v38c0 35 -10 48 -40 48c-31 0 -37 -25 -43 -35c-8 -14 -24 -29 -51 -29c-60 0 -103 11 -103 61c0 8 3 20 5 27c21 71 107 115 203 115c155 0 216 -75 216 -176v-209c0 -18 10 -30 26 -30c18 0 21 11 40 11c17 0 26 -13 26 -55c0 -75 -56 -109 -132 -109
c-42 0 -102 21 -111 75c-35 -48 -91 -75 -149 -75c-77 0 -150 48 -150 157c0 123 117 186 263 186zM281 148v80c-42 -3 -87 -16 -87 -54c0 -25 15 -39 41 -39c18 0 28 4 46 13z" />
    <glyph glyph-name="uni0431" unicode="&#x431;" horiz-adv-x="551" 
d="M275 -15c-185 0 -254 148 -254 377c0 164 35 259 104 322c76 69 192 72 286 81c9 1 17 2 25 2c37 0 62 -14 62 -69c0 -37 -12 -68 -48 -74c-100 -16 -176 2 -232 -50c-29 -27 -45 -62 -46 -107c26 44 77 71 154 71c138 0 202 -93 202 -270c0 -196 -97 -283 -253 -283z
M275 395c-41 0 -62 -26 -62 -127c0 -104 21 -140 62 -140c42 0 63 36 63 140c0 100 -21 127 -63 127z" />
    <glyph glyph-name="uni0432" unicode="&#x432;" horiz-adv-x="566" 
d="M146 0c-52 0 -93 15 -93 66v405c0 52 41 67 93 67h125c166 0 249 -27 249 -138c0 -72 -43 -109 -109 -126c78 -10 130 -45 130 -120c0 -113 -66 -154 -267 -154h-128zM240 220v-107h32c52 0 64 21 64 55c0 36 -13 52 -64 52h-32zM240 425v-102h31c41 0 57 14 57 54
c0 44 -25 48 -62 48h-26z" />
    <glyph glyph-name="uni0433" unicode="&#x433;" horiz-adv-x="421" 
d="M240 381v-330c0 -51 -41 -66 -94 -66c-52 0 -93 15 -93 66v420c0 52 41 67 93 67h203c45 0 62 -35 62 -79c0 -43 -17 -78 -62 -78h-109z" />
    <glyph glyph-name="uni0434" unicode="&#x434;" horiz-adv-x="595" 
d="M429 0h-263l-5 -109c-2 -43 -34 -58 -74 -58c-41 0 -73 15 -75 58l-8 203c-2 36 15 60 52 61c32 20 42 89 44 132l9 184c3 52 41 67 93 67h238c52 0 93 -15 93 -67v-316c42 0 60 -24 58 -61l-8 -203c-2 -43 -34 -58 -75 -58c-40 0 -72 15 -74 58zM265 381l-6 -99
c-2 -45 -13 -103 -29 -127h116v226h-81z" />
    <glyph glyph-name="uni0435" unicode="&#x435;" horiz-adv-x="495" 
d="M218 223c4 -71 37 -95 89 -95c57 0 100 35 129 35c22 0 33 -18 33 -55c0 -44 -14 -74 -43 -88c-50 -24 -92 -35 -166 -35c-141 0 -237 80 -237 279c0 201 88 289 240 289c155 0 211 -97 211 -239v-29c0 -40 -12 -62 -54 -62h-202zM218 321h83c0 62 -7 84 -43 84
s-40 -30 -40 -84z" />
    <glyph glyph-name="uni0436" unicode="&#x436;" horiz-adv-x="818" 
d="M409 -15c-52 0 -93 15 -93 66v146h-27c-57 0 -48 -44 -77 -146c-11 -51 -52 -66 -105 -66c-51 0 -97 13 -97 50c0 6 0 10 4 20c54 136 46 228 137 255l-109 159c-10 13 -15 27 -15 38c0 26 24 46 84 46c62 0 96 -19 121 -72l69 -146h15v151c0 52 41 67 93 67
s93 -15 93 -67v-151h15l69 146c25 53 59 72 121 72c60 0 84 -20 84 -46c0 -11 -5 -25 -15 -38l-109 -159c91 -27 83 -119 137 -255c4 -10 4 -14 4 -20c0 -37 -46 -50 -97 -50c-53 0 -94 15 -105 66c-29 102 -20 146 -77 146h-27v-146c0 -51 -41 -66 -93 -66z" />
    <glyph glyph-name="uni0437" unicode="&#x437;" horiz-adv-x="495" 
d="M232 423c-29 0 -40 -17 -47 -36c-9 -23 -33 -30 -59 -30c-46 0 -97 14 -97 65c0 13 4 25 9 36c24 53 84 95 201 95c134 0 225 -45 225 -159c0 -80 -55 -120 -108 -132c58 -8 114 -45 114 -121c0 -115 -117 -157 -238 -157c-110 0 -218 17 -218 96c0 45 17 71 50 71
c24 0 71 -29 139 -29c55 0 67 20 67 43c0 24 -17 38 -48 38h-80c-33 0 -46 27 -46 61s13 58 46 58h83c30 0 51 17 51 50c0 37 -17 51 -44 51z" />
    <glyph glyph-name="uni0438" unicode="&#x438;" horiz-adv-x="596" 
d="M240 257l95 230c18 45 48 66 107 66c56 0 101 -15 101 -66v-435c0 -52 -41 -67 -93 -67c-53 0 -94 15 -94 67v201l-92 -202c-20 -44 -51 -66 -110 -66c-56 0 -101 15 -101 66v435c0 52 41 67 93 67c53 0 94 -15 94 -67v-229z" />
    <glyph glyph-name="uni0439" unicode="&#x439;" horiz-adv-x="596" 
d="M293 589c-91 0 -161 55 -161 133c0 33 23 44 58 44s52 -11 58 -35c6 -23 25 -31 45 -31s39 8 45 31c6 24 23 35 58 35s58 -11 58 -44c0 -78 -70 -133 -161 -133zM240 257l95 230c18 45 48 66 107 66c56 0 101 -15 101 -66v-435c0 -52 -41 -67 -93 -67
c-53 0 -94 15 -94 67v201l-92 -202c-20 -44 -51 -66 -110 -66c-56 0 -101 15 -101 66v435c0 52 41 67 93 67c53 0 94 -15 94 -67v-229z" />
    <glyph glyph-name="uni043A" unicode="&#x43a;" horiz-adv-x="568" 
d="M147 -15c-52 0 -94 15 -94 66v435c0 52 42 67 94 67s93 -15 93 -67v-151h15l81 146c28 51 59 72 121 72c60 0 84 -20 84 -46c0 -11 -6 -24 -15 -38l-109 -159c91 -27 83 -119 137 -255c4 -10 4 -14 4 -20c0 -37 -42 -50 -93 -50c-53 0 -95 16 -110 66
c-28 96 -31 146 -88 146h-27v-146c0 -51 -41 -66 -93 -66z" />
    <glyph glyph-name="uni043B" unicode="&#x43b;" horiz-adv-x="586" 
d="M350 381h-84l-10 -181c-9 -152 -74 -215 -168 -215c-69 0 -88 26 -88 86c0 36 15 71 51 77c25 4 38 22 40 80l8 231c2 44 17 79 62 79h283c52 0 93 -15 93 -67v-420c0 -51 -41 -66 -93 -66c-53 0 -94 15 -94 66v330z" />
    <glyph glyph-name="uni043C" unicode="&#x43c;" horiz-adv-x="768" 
d="M384 220l87 267c17 54 50 66 115 66c64 0 108 -15 113 -66l42 -436c5 -51 -38 -66 -88 -66c-49 0 -84 15 -88 66l-19 263l-71 -230c-10 -32 -36 -43 -91 -43c-53 0 -81 11 -91 43l-71 230l-19 -263c-4 -51 -39 -66 -88 -66c-50 0 -93 15 -88 66l42 436c5 51 49 66 113 66
c65 0 98 -12 115 -66z" />
    <glyph glyph-name="uni043D" unicode="&#x43d;" horiz-adv-x="585" 
d="M240 350h105v136c0 52 41 67 93 67c53 0 94 -15 94 -67v-435c0 -51 -41 -66 -94 -66c-52 0 -93 15 -93 66v142h-105v-142c0 -51 -41 -66 -94 -66c-52 0 -93 15 -93 66v435c0 52 41 67 93 67c53 0 94 -15 94 -67v-136z" />
    <glyph glyph-name="uni043E" unicode="&#x43e;" horiz-adv-x="551" 
d="M275 553c163 0 253 -88 253 -285c0 -196 -97 -283 -253 -283c-159 0 -252 87 -252 283c0 197 92 285 252 285zM275 410c-41 0 -62 -37 -62 -142c0 -104 21 -140 62 -140c42 0 63 36 63 140c0 105 -21 142 -63 142z" />
    <glyph glyph-name="uni043F" unicode="&#x43f;" horiz-adv-x="585" 
d="M240 381v-330c0 -51 -41 -66 -94 -66c-52 0 -93 15 -93 66v420c0 51 40 67 92 67h294c52 0 93 -15 93 -67v-420c0 -51 -41 -66 -93 -66c-53 0 -94 15 -94 66v330h-105z" />
    <glyph glyph-name="uni0440" unicode="&#x440;" horiz-adv-x="576" 
d="M213 482c32 33 84 71 157 71c109 0 183 -54 183 -273c0 -218 -94 -295 -235 -295c-21 0 -57 4 -78 11v-142c0 -51 -41 -66 -94 -66c-52 0 -93 15 -93 66v642c0 44 35 57 79 57c46 0 81 -13 81 -57v-14zM240 382v-237c19 -6 33 -9 52 -9c36 0 64 20 64 144
c0 108 -29 108 -68 108c-16 0 -29 -2 -48 -6z" />
    <glyph glyph-name="uni0441" unicode="&#x441;" horiz-adv-x="486" 
d="M469 110c0 -44 -14 -74 -43 -88c-50 -24 -92 -37 -163 -37c-154 0 -240 81 -240 287c0 212 79 281 245 281c130 0 200 -70 200 -179c0 -43 -50 -57 -98 -57c-105 0 -34 88 -103 88c-37 0 -51 -20 -51 -136c0 -105 34 -131 85 -131c77 0 107 30 126 30s42 -16 42 -58z" />
    <glyph glyph-name="uni0442" unicode="&#x442;" horiz-adv-x="492" 
d="M340 381v-330c0 -51 -41 -66 -94 -66c-52 0 -93 15 -93 66v330h-81c-45 0 -62 35 -62 78c0 44 17 79 62 79h348c45 0 62 -35 62 -79c0 -43 -17 -78 -62 -78h-80z" />
    <glyph glyph-name="uni0443" unicode="&#x443;" horiz-adv-x="508" 
d="M260 239l64 245c14 54 43 69 95 69c50 0 81 -15 81 -58c0 -7 -1 -15 -4 -24l-141 -437c-57 -178 -124 -246 -269 -246c-50 0 -133 14 -133 74c0 43 11 97 53 97c30 0 39 -13 69 -13c48 0 64 7 87 63l9 22l-167 433c-4 10 -4 19 -4 27c0 49 37 62 91 62
c57 0 86 -17 102 -75z" />
    <glyph glyph-name="uni0444" unicode="&#x444;" horiz-adv-x="786" 
d="M393 -245c-47 0 -84 14 -84 60v175c-183 19 -286 108 -286 278c0 171 102 260 286 280v142c0 47 37 61 84 61s84 -14 84 -61v-142c184 -20 286 -109 286 -280s-103 -259 -286 -278v-175c0 -46 -37 -60 -84 -60zM573 268c0 90 -38 130 -96 144v-287c58 15 96 53 96 143z
M309 412c-58 -15 -96 -54 -96 -144c0 -89 38 -128 96 -142v286z" />
    <glyph glyph-name="uni0445" unicode="&#x445;" horiz-adv-x="501" 
d="M254 389l45 95c25 52 53 69 101 69c56 0 82 -13 82 -58c0 -11 -3 -21 -6 -26l-116 -193l106 -200c2 -4 6 -13 6 -28c0 -49 -30 -63 -90 -63c-53 0 -81 19 -107 75l-38 83l-48 -97c-17 -34 -36 -61 -97 -61c-64 0 -83 20 -83 53c0 9 2 19 7 29l116 199l-102 197
c-3 6 -6 19 -6 27c0 49 32 63 92 63c53 0 77 -18 101 -75z" />
    <glyph glyph-name="uni0446" unicode="&#x446;" horiz-adv-x="594" 
d="M428 0h-282c-52 0 -93 15 -93 67v420c0 51 41 66 93 66c53 0 94 -15 94 -66v-332h105v332c0 51 41 66 94 66c52 0 93 -15 93 -66v-332c40 0 60 -24 58 -61l-8 -203c-2 -43 -35 -58 -76 -58c-40 0 -71 15 -73 58z" />
    <glyph glyph-name="uni0447" unicode="&#x447;" horiz-adv-x="575" 
d="M335 329v157c0 52 41 67 93 67c53 0 94 -15 94 -67v-435c0 -51 -41 -66 -94 -66c-52 0 -93 15 -93 66v132c-39 -15 -58 -22 -109 -22c-95 0 -183 51 -183 178v147c0 52 41 67 93 67c53 0 94 -15 94 -67v-119c0 -35 26 -45 56 -45c16 0 34 3 49 7z" />
    <glyph glyph-name="uni0448" unicode="&#x448;" horiz-adv-x="859" 
d="M619 155v332c0 51 41 66 94 66c52 0 93 -15 93 -66v-420c0 -52 -41 -67 -93 -67h-567c-52 0 -93 15 -93 67v420c0 51 41 66 93 66c53 0 94 -15 94 -66v-332h96v332c0 51 41 66 94 66c52 0 93 -15 93 -66v-332h96z" />
    <glyph glyph-name="uni0449" unicode="&#x449;" horiz-adv-x="868" 
d="M702 0h-556c-52 0 -93 15 -93 67v420c0 51 41 66 93 66c53 0 94 -15 94 -66v-332h96v332c0 51 41 66 94 66c52 0 93 -15 93 -66v-332h96v332c0 51 41 66 94 66c52 0 93 -15 93 -66v-332c40 0 59 -24 58 -61l-8 -203c-2 -43 -34 -58 -75 -58c-40 0 -72 15 -74 58z" />
    <glyph glyph-name="uni044A" unicode="&#x44a;" horiz-adv-x="627" 
d="M330 400c15 3 40 4 51 4c132 0 231 -44 231 -202c0 -167 -116 -202 -247 -202h-129c-52 0 -93 15 -93 67v314h-80c-45 0 -62 35 -62 78c0 44 17 79 62 79h173c53 0 94 -15 94 -66v-72zM330 259v-124h35c45 0 64 18 64 61c0 41 -20 65 -69 65c-9 0 -19 0 -30 -2z" />
    <glyph glyph-name="uni044B" unicode="&#x44b;" horiz-adv-x="813" 
d="M666 -15c-52 0 -93 15 -93 66v435c0 52 41 67 93 67c53 0 94 -15 94 -67v-435c0 -51 -41 -66 -94 -66zM240 400c15 3 40 4 51 4c132 0 231 -44 231 -202c0 -167 -116 -202 -247 -202h-129c-52 0 -93 15 -93 67v420c0 51 41 66 93 66c53 0 94 -15 94 -66v-87zM240 259
v-124h35c45 0 64 18 64 61c0 41 -20 65 -69 65c-9 0 -19 0 -30 -2z" />
    <glyph glyph-name="uni044C" unicode="&#x44c;" horiz-adv-x="537" 
d="M240 400c15 3 40 4 51 4c132 0 231 -44 231 -202c0 -167 -116 -202 -247 -202h-129c-52 0 -93 15 -93 67v420c0 51 41 66 93 66c53 0 94 -15 94 -66v-87zM240 259v-124h35c45 0 64 18 64 61c0 41 -20 65 -69 65c-9 0 -19 0 -30 -2z" />
    <glyph glyph-name="uni044D" unicode="&#x44d;" horiz-adv-x="486" 
d="M54 260c0 32 12 55 44 55h171c-3 75 -18 90 -50 90c-60 0 -16 -54 -109 -54c-48 0 -88 17 -88 60c0 84 71 142 196 142c166 0 245 -69 245 -281c0 -206 -86 -287 -240 -287c-71 0 -113 13 -163 37c-29 14 -43 44 -43 88c0 42 23 58 42 58s49 -30 126 -30
c38 0 67 14 79 64h-166c-32 0 -44 26 -44 58z" />
    <glyph glyph-name="uni044E" unicode="&#x44e;" horiz-adv-x="823" 
d="M240 193v-142c0 -51 -41 -66 -94 -66c-52 0 -93 15 -93 66v435c0 52 41 67 93 67c53 0 94 -15 94 -67v-136h61c23 139 110 203 246 203c163 0 253 -88 253 -285c0 -196 -97 -283 -253 -283c-137 0 -225 64 -247 208h-60zM547 410c-41 0 -62 -37 -62 -142
c0 -104 21 -140 62 -140c42 0 63 36 63 140c0 105 -21 142 -63 142z" />
    <glyph glyph-name="uni044F" unicode="&#x44f;" horiz-adv-x="564" 
d="M122 227c-39 17 -83 61 -83 136c0 149 113 175 244 175h135c52 0 93 -15 93 -67v-420c0 -51 -41 -66 -93 -66c-53 0 -94 15 -94 66v129h-30c-32 0 -39 -22 -52 -69l-17 -60c-14 -50 -52 -66 -105 -66c-51 0 -97 13 -97 50c0 6 0 11 4 21c16 36 28 62 37 87
c9 27 34 77 58 84zM324 304v115h-35c-45 0 -64 -17 -64 -55c0 -39 23 -60 65 -60h34z" />
    <glyph glyph-name="uni0453" unicode="&#x453;" horiz-adv-x="421" 
d="M240 381v-330c0 -51 -41 -66 -94 -66c-52 0 -93 15 -93 66v420c0 52 41 67 93 67h203c45 0 62 -35 62 -79c0 -43 -17 -78 -62 -78h-109zM356 690l-52 -69c-22 -29 -45 -42 -90 -42c-41 0 -58 17 -58 39c0 7 3 16 7 24l42 77c13 23 34 43 95 43c42 0 66 -20 66 -45
c0 -9 -3 -18 -10 -27z" />
    <glyph glyph-name="uni0491" unicode="&#x491;" horiz-adv-x="449" 
d="M240 381v-330c0 -51 -41 -66 -94 -66c-52 0 -93 15 -93 66v420c0 52 41 67 93 67h131l6 72c3 38 33 51 68 51c36 0 68 -13 68 -51v-176c0 -32 -13 -53 -46 -53h-133z" />
    <glyph glyph-name="uni0452" unicode="&#x452;" horiz-adv-x="608" 
d="M279 511c36 25 82 42 135 42c98 0 156 -50 156 -170v-234c0 -108 -31 -179 -105 -233c-16 -12 -34 -17 -51 -17c-49 0 -92 42 -92 82c0 14 4 27 15 38c29 31 46 77 46 132v193c0 33 -23 44 -55 44c-14 0 -36 -3 -49 -6v-331c0 -51 -41 -66 -94 -66c-52 0 -93 15 -93 66
v549h-59c-24 0 -33 19 -33 43c0 23 9 42 33 42h59c0 51 41 66 93 66s93 -15 94 -66h138c24 0 32 -19 32 -42c0 -24 -8 -43 -32 -43h-138v-89z" />
    <glyph glyph-name="uni0454" unicode="&#x454;" horiz-adv-x="486" 
d="M432 260c0 -32 -12 -58 -44 -58h-166c12 -50 41 -64 79 -64c77 0 107 30 126 30s42 -16 42 -58c0 -44 -14 -74 -43 -88c-50 -24 -92 -37 -163 -37c-154 0 -240 81 -240 287c0 212 79 281 245 281c125 0 196 -58 196 -142c0 -43 -40 -60 -88 -60c-93 0 -49 54 -109 54
c-32 0 -47 -15 -50 -90h171c32 0 44 -23 44 -55z" />
    <glyph glyph-name="uni0455" unicode="&#x455;" horiz-adv-x="468" 
d="M246 553c101 0 161 -37 188 -95c5 -11 9 -23 9 -36c0 -51 -51 -66 -97 -66c-26 0 -50 7 -59 30c-7 19 -17 28 -44 28c-23 0 -39 -10 -39 -28c0 -65 240 -69 240 -237c0 -97 -69 -164 -214 -164c-103 0 -211 28 -211 99c0 67 32 87 54 87c13 0 24 -4 30 -7
c43 -23 84 -36 116 -36c20 0 35 7 35 23c0 57 -225 56 -225 228c0 101 72 174 217 174z" />
    <glyph glyph-name="uni0450" unicode="&#x450;" horiz-adv-x="495" 
d="M218 223c4 -71 37 -95 89 -95c57 0 100 35 129 35c22 0 33 -18 33 -55c0 -44 -14 -74 -43 -88c-50 -24 -92 -35 -166 -35c-141 0 -237 80 -237 279c0 201 88 289 240 289c155 0 211 -97 211 -239v-29c0 -40 -12 -62 -54 -62h-202zM218 321h83c0 62 -7 84 -43 84
s-40 -30 -40 -84zM172 621l-52 69c-7 9 -10 18 -10 27c0 25 24 45 66 45c65 0 82 -20 95 -43l42 -77c4 -8 7 -17 7 -24c0 -22 -17 -39 -58 -39c-45 0 -68 13 -90 42z" />
    <glyph glyph-name="uni0451" unicode="&#x451;" horiz-adv-x="495" 
d="M218 223c4 -71 37 -95 89 -95c57 0 100 35 129 35c22 0 33 -18 33 -55c0 -44 -14 -74 -43 -88c-50 -24 -92 -35 -166 -35c-141 0 -237 80 -237 279c0 201 88 289 240 289c155 0 211 -97 211 -239v-29c0 -40 -12 -62 -54 -62h-202zM218 321h83c0 62 -7 84 -43 84
s-40 -30 -40 -84zM161 589c-39 0 -69 14 -69 53v59c0 39 30 54 69 54s68 -15 68 -54v-59c0 -39 -29 -53 -68 -53zM344 589c-39 0 -69 14 -69 53v59c0 39 30 54 69 54s68 -15 68 -54v-59c0 -39 -29 -53 -68 -53z" />
    <glyph glyph-name="uni0456" unicode="&#x456;" horiz-adv-x="293" 
d="M146 -15c-52 0 -93 15 -93 66v435c0 52 41 67 93 67c53 0 94 -15 94 -67v-435c0 -51 -41 -66 -94 -66zM146 587c-52 0 -93 15 -93 66v46c0 52 41 67 93 67c53 0 94 -15 94 -67v-46c0 -51 -41 -66 -94 -66z" />
    <glyph glyph-name="uni0457" unicode="&#x457;" horiz-adv-x="293" 
d="M146 -15c-52 0 -93 15 -93 66v435c0 52 41 67 93 67c53 0 94 -15 94 -67v-435c0 -51 -41 -66 -94 -66zM56 589c-39 0 -69 14 -69 53v59c0 39 30 54 69 54s68 -15 68 -54v-59c0 -39 -29 -53 -68 -53zM239 589c-39 0 -69 14 -69 53v59c0 39 30 54 69 54s68 -15 68 -54v-59
c0 -39 -29 -53 -68 -53z" />
    <glyph glyph-name="uni0458" unicode="&#x458;" horiz-adv-x="293" 
d="M240 486v-532c0 -121 -80 -166 -170 -166c-57 0 -132 4 -132 83c0 45 4 82 40 82c10 0 24 -5 39 -5c19 0 36 15 36 47v491c0 52 41 67 93 67c53 0 94 -15 94 -67zM146 587c-52 0 -93 15 -93 66v46c0 52 41 67 93 67c53 0 94 -15 94 -67v-46c0 -51 -41 -66 -94 -66z" />
    <glyph glyph-name="uni045D" unicode="&#x45d;" horiz-adv-x="596" 
d="M203 621l-52 69c-7 9 -10 18 -10 27c0 25 24 45 66 45c65 0 82 -20 95 -43l42 -77c4 -8 7 -17 7 -24c0 -22 -17 -39 -58 -39c-45 0 -68 13 -90 42zM240 257l95 230c18 45 48 66 107 66c56 0 101 -15 101 -66v-435c0 -52 -41 -67 -93 -67c-53 0 -94 15 -94 67v201
l-92 -202c-20 -44 -51 -66 -110 -66c-56 0 -101 15 -101 66v435c0 52 41 67 93 67c53 0 94 -15 94 -67v-229z" />
    <glyph glyph-name="uni045C" unicode="&#x45c;" horiz-adv-x="568" 
d="M147 -15c-52 0 -94 15 -94 66v435c0 52 42 67 94 67s93 -15 93 -67v-151h15l81 146c28 51 59 72 121 72c60 0 84 -20 84 -46c0 -11 -6 -24 -15 -38l-109 -159c91 -27 83 -119 137 -255c4 -10 4 -14 4 -20c0 -37 -42 -50 -93 -50c-53 0 -95 16 -110 66
c-28 96 -31 146 -88 146h-27v-146c0 -51 -41 -66 -93 -66zM442 690l-52 -69c-22 -29 -45 -42 -90 -42c-41 0 -58 17 -58 39c0 7 3 16 7 24l42 77c13 23 34 43 95 43c42 0 66 -20 66 -45c0 -9 -3 -18 -10 -27z" />
    <glyph glyph-name="uni0459" unicode="&#x459;" horiz-adv-x="834" 
d="M350 381h-84l-10 -181c-9 -152 -74 -215 -168 -215c-69 0 -88 26 -88 86c0 36 15 71 51 77c25 4 38 22 40 80l8 231c2 44 17 79 62 79h283c52 0 93 -15 93 -67v-71c15 3 40 4 51 4c132 0 231 -44 231 -202c0 -167 -116 -202 -247 -202h-129c-52 0 -93 15 -93 67v314z
M537 259v-124h35c45 0 64 18 64 61c0 41 -20 65 -69 65c-9 0 -19 0 -30 -2z" />
    <glyph glyph-name="uni045A" unicode="&#x45a;" horiz-adv-x="829" 
d="M146 -15c-52 0 -93 15 -93 66v435c0 52 41 67 93 67c53 0 94 -15 94 -67v-136h105v137c0 51 41 66 93 66c53 0 94 -15 94 -66v-87c15 3 40 4 51 4c132 0 231 -44 231 -202c0 -167 -116 -202 -247 -202h-129c-52 0 -93 15 -93 67v126h-105v-142c0 -51 -41 -66 -94 -66z
M532 259v-124h35c45 0 64 18 64 61c0 41 -20 65 -69 65c-9 0 -19 0 -30 -2z" />
    <glyph glyph-name="uni045B" unicode="&#x45b;" horiz-adv-x="613" 
d="M279 511c36 25 82 42 135 42c98 0 156 -50 156 -170v-332c0 -51 -41 -66 -94 -66c-52 0 -93 15 -93 66v293c0 33 -23 44 -55 44c-14 0 -36 -3 -49 -6v-331c0 -51 -41 -66 -94 -66c-52 0 -93 15 -93 66v549h-59c-24 0 -33 19 -33 43c0 23 9 42 33 42h59c0 51 41 66 93 66
s93 -15 94 -66h138c24 0 32 -19 32 -42c0 -24 -8 -43 -32 -43h-138v-89z" />
    <glyph glyph-name="uni045E" unicode="&#x45e;" horiz-adv-x="508" 
d="M260 239l64 245c14 54 43 69 95 69c50 0 81 -15 81 -58c0 -7 -1 -15 -4 -24l-141 -437c-57 -178 -124 -246 -269 -246c-50 0 -133 14 -133 74c0 43 11 97 53 97c30 0 39 -13 69 -13c48 0 64 7 87 63l9 22l-167 433c-4 10 -4 19 -4 27c0 49 37 62 91 62
c57 0 86 -17 102 -75zM250 589c-91 0 -161 55 -161 133c0 33 23 44 58 44s52 -11 58 -35c6 -23 25 -31 45 -31s39 8 45 31c6 24 23 35 58 35s58 -11 58 -44c0 -78 -70 -133 -161 -133z" />
    <glyph glyph-name="uni045F" unicode="&#x45f;" horiz-adv-x="585" 
d="M215 0h-69c-52 0 -93 15 -93 67v420c0 51 41 66 93 66c53 0 94 -15 94 -66v-332h105v332c0 51 41 66 94 66c52 0 93 -15 93 -66v-420c0 -52 -41 -67 -93 -67h-70l-4 -109c-2 -43 -31 -58 -72 -58c-40 0 -71 15 -73 58z" />
    <glyph glyph-name="uni0463" unicode="&#x463;" horiz-adv-x="626" 
d="M487 503c0 -28 -11 -51 -39 -51h-119v-66c15 3 40 4 51 4c132 0 231 -30 231 -188c0 -167 -116 -202 -247 -202h-129c-52 0 -93 15 -93 67v385h-102c-29 0 -40 23 -40 51s11 50 40 50h102v132c0 51 41 66 93 66c53 0 94 -15 94 -66v-132h119c28 0 39 -22 39 -50zM329 259
v-124h35c45 0 64 18 64 61c0 41 -20 65 -69 65c-9 0 -19 0 -30 -2z" />
    <glyph glyph-name="uni0473" unicode="&#x473;" horiz-adv-x="551" 
d="M275 553c163 0 253 -88 253 -285c0 -196 -97 -283 -253 -283c-159 0 -252 87 -252 283c0 197 92 285 252 285zM275 128c35 0 56 25 61 95h-122c6 -70 26 -95 61 -95zM275 410c-34 0 -54 -26 -60 -94h121c-6 68 -26 94 -61 94z" />
    <glyph glyph-name="uni0475" unicode="&#x475;" horiz-adv-x="504" 
d="M495 471l-118 -414c-12 -41 -26 -57 -61 -57h-106c-45 0 -67 19 -78 55l-122 409c-3 10 -4 19 -4 27c0 49 45 62 95 62c53 0 89 -16 102 -75l61 -284l56 290c11 54 47 69 95 69c46 0 84 -13 84 -58c0 -7 -1 -15 -4 -24z" />
    <glyph glyph-name="asciicircum" unicode="^" horiz-adv-x="533" 
d="M267 508l-65 -116c-21 -38 -40 -55 -91 -55c-44 0 -75 20 -75 48c0 7 2 15 6 23l130 244c21 39 33 48 83 48h24c50 0 62 -9 83 -48l130 -244c4 -8 6 -16 6 -23c0 -28 -31 -48 -75 -48c-51 0 -70 17 -91 55z" />
    <glyph glyph-name="asciitilde" unicode="~" 
d="M342 246c-51 0 -109 32 -154 32c-34 0 -28 -42 -76 -42c-41 0 -85 21 -85 61c0 4 0 8 1 12c16 73 68 118 155 118c62 0 128 -33 158 -33c34 0 28 42 76 42c41 0 85 -22 85 -61c0 -80 -77 -129 -160 -129z" />
    <glyph glyph-name="brokenbar" unicode="&#xa6;" horiz-adv-x="286" 
d="M143 341c-46 0 -83 17 -83 63v296c0 47 37 64 83 64s83 -17 83 -64v-296c0 -46 -37 -63 -83 -63zM143 -245c-46 0 -83 17 -83 63v296c0 47 37 64 83 64s83 -17 83 -64v-296c0 -46 -37 -63 -83 -63z" />
    <glyph glyph-name="backslash" unicode="\" horiz-adv-x="412" 
d="M328 -15c-51 0 -72 19 -90 70l-215 589c-4 10 -6 19 -6 27c0 32 31 44 72 44c51 0 73 -19 92 -71l214 -589c3 -9 4 -17 4 -24c0 -33 -30 -46 -71 -46z" />
    <glyph glyph-name="underscore" unicode="_" horiz-adv-x="557" 
d="M572 -93c0 -42 -16 -77 -59 -77h-465c-45 0 -61 35 -61 77c0 43 16 78 61 78h465c43 0 59 -35 59 -78z" />
    <glyph glyph-name="quotesingle" unicode="'" horiz-adv-x="244" 
d="M122 449c-45 0 -80 16 -80 61v144c0 45 35 61 80 61c44 0 79 -16 79 -61v-144c0 -45 -35 -61 -79 -61z" />
    <glyph glyph-name="quotedbl" unicode="&#x22;" horiz-adv-x="474" 
d="M122 449c-45 0 -80 16 -80 61v144c0 45 35 61 80 61c44 0 79 -16 79 -61v-144c0 -45 -35 -61 -79 -61zM353 449c-45 0 -80 16 -80 61v144c0 45 35 61 80 61c44 0 79 -16 79 -61v-144c0 -45 -35 -61 -79 -61z" />
    <glyph glyph-name="at" unicode="@" horiz-adv-x="766" 
d="M417 216v134c-9 5 -19 8 -35 8c-23 0 -49 -16 -49 -79c0 -68 21 -88 42 -88c17 0 30 8 42 25zM584 25c6 2 11 2 16 2c26 0 40 -18 40 -51c0 -27 -13 -40 -34 -47c-62 -19 -117 -27 -179 -27c-214 0 -407 120 -407 374c0 217 149 357 365 357c217 0 366 -130 366 -329
c0 -153 -68 -245 -184 -245c-46 0 -91 14 -108 56c-27 -28 -64 -47 -103 -47c-76 0 -166 44 -166 210c0 167 113 203 189 203c50 0 99 -12 143 -35c21 -11 35 -27 35 -55v-165c0 -28 11 -40 35 -40c34 0 48 50 48 118c0 151 -109 234 -255 234s-262 -94 -262 -262
c0 -185 141 -276 307 -276c50 0 102 9 154 25z" />
    <glyph glyph-name="copyright" unicode="&#xa9;" horiz-adv-x="744" 
d="M484 266c5 3 10 4 14 4c27 0 37 -28 37 -58c0 -59 -97 -78 -152 -78c-109 0 -193 71 -193 215c0 159 76 218 189 218c86 0 151 -53 151 -133c0 -28 -31 -40 -63 -40c-26 0 -43 8 -47 26c-6 27 -22 36 -43 36c-39 0 -62 -28 -62 -107c0 -77 34 -107 85 -107
c32 0 58 10 84 24zM25 350c0 202 155 365 347 365s347 -163 347 -365s-155 -365 -347 -365s-347 163 -347 365zM95 350c0 -162 123 -292 277 -292c153 0 277 130 277 292c0 161 -124 292 -277 292c-154 0 -277 -131 -277 -292z" />
    <glyph glyph-name="registered" unicode="&#xae;" 
d="M510 459c0 -142 -109 -256 -245 -256s-245 114 -245 256s109 256 245 256s245 -114 245 -256zM450 459c0 107 -82 196 -185 196s-185 -89 -185 -196s82 -196 185 -196s185 89 185 196zM203 320c-25 0 -46 10 -46 35v203c0 26 21 36 46 36h54c86 0 128 -21 128 -93
c0 -36 -16 -56 -41 -66l32 -68c3 -7 5 -14 5 -19c0 -20 -22 -28 -43 -28c-25 0 -41 11 -51 34l-25 56h-12v-55c0 -25 -20 -35 -47 -35zM250 526v-49h11c22 0 30 7 30 23c0 20 -8 26 -30 26h-11z" />
    <glyph glyph-name="trademark" unicode="&#x2122;" horiz-adv-x="880" 
d="M232 596v-218c0 -33 -28 -48 -65 -48c-36 0 -63 15 -63 48v218h-70c-29 0 -40 23 -40 52s11 52 40 52h271c29 0 40 -23 40 -52s-11 -52 -40 -52h-73zM602 504l42 152c7 27 17 44 52 44h69c36 0 51 -23 54 -50l33 -272c4 -33 -23 -48 -59 -48c-37 0 -64 11 -67 44l-15 169
l-34 -123c-9 -32 -23 -47 -58 -47h-35c-35 0 -49 15 -58 47l-34 123l-15 -169c-3 -33 -30 -44 -67 -44c-36 0 -63 15 -59 48l33 272c3 27 18 50 54 50h69c35 0 45 -18 52 -44z" />
    <glyph glyph-name="Euro" unicode="&#x20ac;" 
d="M241 354c0 -12 0 -17 2 -34h128c21 0 29 -14 29 -33c0 -25 -14 -59 -45 -59h-98c10 -53 38 -73 88 -73c42 0 76 10 111 25c10 4 19 6 26 6c32 0 38 -36 38 -69c0 -47 -9 -77 -42 -94c-43 -22 -92 -38 -165 -38c-154 0 -223 73 -252 243h-21c-26 0 -36 21 -36 46
s10 46 36 46h12c-1 5 -1 16 -1 20v14h-11c-26 0 -36 21 -36 46s10 46 36 46h15c5 182 81 269 245 269c123 0 195 -41 223 -140c1 -4 2 -12 2 -16c0 -54 -44 -82 -99 -82c-33 0 -61 6 -74 35c-10 22 -22 33 -49 33c-46 0 -56 -35 -59 -99h153c21 0 29 -14 29 -33
c0 -25 -14 -59 -45 -59h-140z" />
    <glyph glyph-name="dollar" unicode="$" 
d="M269 -101c-40 0 -69 14 -69 52v68c-55 9 -176 47 -176 125c0 52 31 96 69 96c12 0 26 -4 38 -15c36 -31 81 -51 122 -51c22 0 38 8 38 29c0 56 -260 51 -260 251c0 106 61 178 169 197v63c0 38 29 52 69 52c37 0 67 -14 67 -52v-66c91 -16 141 -74 155 -137
c1 -6 2 -12 2 -17c0 -48 -49 -68 -101 -68c-40 0 -62 17 -68 35c-9 26 -23 39 -52 39c-23 0 -45 -10 -45 -38c0 -71 278 -69 278 -242c0 -110 -63 -176 -169 -197v-72c0 -38 -30 -52 -67 -52z" />
    <glyph glyph-name="cent" unicode="&#xa2;" 
d="M275 -101c-40 0 -69 14 -69 52v110c-105 26 -166 111 -166 278c0 172 57 249 166 273v102c0 38 29 52 69 52c37 0 67 -14 67 -52v-98c93 -14 146 -75 146 -167c0 -39 -42 -61 -91 -61c-37 0 -66 8 -73 41c-5 23 -13 43 -39 43c-37 0 -57 -20 -57 -136
c0 -105 45 -128 96 -128c31 0 71 10 106 23c12 4 21 7 29 7c26 0 36 -22 36 -67c0 -82 -51 -95 -153 -116v-104c0 -38 -30 -52 -67 -52z" />
    <glyph glyph-name="sterling" unicode="&#xa3;" 
d="M260 406h154c37 0 50 -28 50 -65c0 -36 -13 -65 -50 -65h-142c2 -16 2 -26 2 -40c0 -27 -7 -49 -24 -71h212c46 0 63 -37 63 -82c0 -46 -17 -83 -63 -83h-352c-50 0 -91 19 -91 67v27c0 34 17 47 41 62c28 17 37 40 37 67c0 19 -1 30 -6 53h-35c-39 0 -52 29 -52 65
c0 37 13 65 52 65h25c-6 75 -6 85 -6 94c0 111 57 215 224 215c127 0 199 -45 222 -152c1 -7 2 -14 2 -21c0 -47 -47 -71 -91 -71s-76 3 -85 38c-6 23 -22 36 -49 36c-32 0 -45 -24 -45 -58c0 -4 0 -10 7 -81z" />
    <glyph glyph-name="florin" unicode="&#x192;" 
d="M167 -15c-51 0 -92 19 -92 70v221h-21c-39 0 -52 29 -52 65c0 37 13 65 52 65h21v69c0 121 45 240 226 240c128 0 199 -45 222 -152c1 -7 2 -14 2 -21c0 -47 -48 -71 -92 -71s-75 3 -84 38c-6 22 -21 36 -47 36c-36 0 -43 -25 -43 -66v-73h157c37 0 50 -28 50 -65
c0 -36 -13 -65 -50 -65h-157v-221c0 -51 -41 -70 -92 -70z" />
    <glyph glyph-name="yen" unicode="&#xa5;" 
d="M411 406h53c37 0 50 -28 50 -65c0 -36 -13 -65 -50 -65h-106v-221c0 -51 -41 -70 -92 -70s-92 19 -92 70v221h-113c-39 0 -52 29 -52 65c0 37 13 65 52 65h59l-107 229c-4 9 -4 17 -4 24c0 39 44 56 86 56c66 0 90 -28 101 -59l71 -196l76 203c10 28 31 52 100 52
c44 0 78 -17 78 -56c0 -7 0 -15 -4 -24z" />
    <glyph glyph-name="ordfeminine" unicode="&#xaa;" horiz-adv-x="430" 
d="M233 443v54c-34 -2 -66 -12 -66 -38c0 -17 11 -27 30 -27c15 0 23 3 36 11zM233 564v26c0 24 -10 32 -32 32c-18 0 -25 -10 -30 -25c-5 -14 -19 -20 -47 -20c-32 0 -67 10 -67 44c0 8 3 16 8 27c23 46 83 67 146 67c116 0 161 -50 161 -118v-140c0 -13 8 -21 19 -21
c16 0 18 6 30 6c13 0 22 -7 22 -40c0 -36 -20 -49 -30 -54c-20 -10 -46 -16 -71 -16c-32 0 -77 16 -82 52c-27 -35 -70 -53 -111 -53c-58 0 -113 33 -113 108c0 86 86 121 197 125z" />
    <glyph glyph-name="ordmasculine" unicode="&#xba;" horiz-adv-x="430" 
d="M214 715c122 0 189 -59 189 -192c0 -132 -72 -191 -189 -191c-118 0 -188 59 -188 191c0 133 69 192 188 192zM214 619c-30 0 -46 -25 -46 -96c0 -70 16 -93 46 -93c31 0 47 23 47 93c0 71 -16 96 -47 96z" />
    <glyph glyph-name="numbersign" unicode="#" horiz-adv-x="634" 
d="M127 -15c-38 0 -66 13 -66 46c0 4 0 8 1 12l21 119h-41c-32 0 -44 21 -44 49c0 47 23 92 69 92h41l17 94h-41c-32 0 -45 21 -45 49c0 47 24 92 70 92h41l20 118c7 43 44 59 86 59c37 0 66 -13 66 -46c0 -4 0 -9 -1 -13l-20 -118h96l20 118c7 43 45 59 87 59
c37 0 65 -13 65 -46c0 -4 0 -8 -1 -13l-20 -118h44c31 0 43 -21 43 -49c0 -46 -23 -92 -68 -92h-44l-17 -94h44c31 0 44 -21 44 -50c0 -46 -24 -91 -69 -91h-44l-21 -119c-8 -42 -43 -58 -85 -58c-38 0 -67 13 -67 47c0 3 0 7 1 11l21 119h-96l-21 -119
c-8 -42 -44 -58 -86 -58zM276 397l-17 -94h96l17 94h-96z" />
    <glyph glyph-name="zero" unicode="0" 
d="M267 715c160 0 252 -100 252 -364c0 -266 -99 -366 -258 -366c-151 0 -251 100 -251 364c0 256 101 366 257 366zM265 545c-49 0 -69 -61 -69 -195c0 -140 20 -195 69 -195c50 0 69 55 69 196c0 139 -19 194 -69 194z" />
    <glyph glyph-name="one" unicode="1" 
d="M373 174h84c46 0 63 -42 63 -87c0 -46 -17 -87 -63 -87h-363c-47 0 -64 41 -64 87c0 45 17 87 64 87h95v313l-66 -33c-13 -6 -26 -10 -37 -10c-33 0 -55 25 -55 73c0 63 30 92 56 105l127 63c18 9 42 15 67 15c51 0 92 -19 92 -71v-455z" />
    <glyph glyph-name="two" unicode="2" 
d="M276 178h169c49 0 68 -39 68 -88c0 -51 -19 -90 -68 -90h-361c-52 0 -65 39 -65 90c0 38 5 62 40 101l200 225c19 21 34 45 34 81c0 25 -13 47 -48 47c-22 0 -40 -9 -48 -32c-14 -40 -37 -52 -72 -52c-51 0 -113 20 -113 74c0 7 0 13 2 21c22 87 98 160 233 160
c151 0 242 -76 242 -220c0 -84 -48 -153 -118 -223z" />
    <glyph glyph-name="three" unicode="3" 
d="M400 369c79 -25 101 -90 101 -162c0 -149 -95 -222 -250 -222c-117 0 -238 45 -238 129c0 46 30 95 71 95c11 0 24 -3 36 -11c39 -26 80 -43 119 -43c38 0 68 17 68 56c0 40 -27 52 -68 52h-42c-47 0 -64 37 -64 83c0 45 17 82 64 82h37c36 0 59 23 59 59
c0 33 -14 58 -52 58c-29 0 -41 -16 -51 -32c-13 -20 -31 -41 -70 -41c-58 0 -108 24 -108 74c0 10 2 22 7 33c36 87 115 136 228 136c149 0 241 -76 241 -203c0 -54 -20 -107 -88 -143z" />
    <glyph glyph-name="four" unicode="4" 
d="M278 128h-202c-45 0 -69 34 -69 86c0 44 2 68 18 100l156 315c26 53 49 71 109 71h78c50 0 90 -19 90 -69v-344h13c44 0 59 -36 59 -79c0 -44 -15 -80 -59 -80h-13v-75c0 -49 -40 -68 -90 -68s-90 19 -90 68v75zM278 512l-108 -225h108v225z" />
    <glyph glyph-name="five" unicode="5" 
d="M229 522v-88h18c191 0 248 -85 248 -213c0 -149 -92 -236 -245 -236c-78 0 -228 32 -228 117c0 46 24 100 67 100c45 0 62 -47 137 -47c44 0 74 20 74 63c0 48 -33 64 -78 64c-36 0 -63 -10 -95 -10c-42 0 -75 17 -75 57v302c0 51 40 69 89 69h282c46 0 63 -44 63 -89
c0 -46 -17 -89 -63 -89h-194z" />
    <glyph glyph-name="six" unicode="6" 
d="M217 421c23 10 59 17 97 17c95 0 209 -44 209 -204c0 -165 -106 -249 -246 -249c-152 0 -258 100 -258 364c0 256 108 366 264 366c100 0 187 -35 221 -143c3 -8 3 -17 3 -24c0 -54 -51 -76 -96 -76c-43 0 -69 12 -83 43c-10 21 -25 30 -49 30c-48 0 -62 -50 -62 -124z
M215 271c0 -65 10 -116 64 -116c34 0 52 28 52 72c0 38 -17 58 -57 58c-17 0 -47 -6 -59 -14z" />
    <glyph glyph-name="seven" unicode="7" 
d="M288 524h-213c-45 0 -62 42 -62 88c0 44 17 88 62 88h348c48 0 88 -18 88 -68v-36c0 -20 -9 -45 -20 -70l-221 -486c-14 -31 -36 -55 -102 -55c-63 0 -103 19 -103 61c0 10 1 22 7 34z" />
    <glyph glyph-name="eight" unicode="8" 
d="M265 288c-48 0 -70 -28 -70 -72c0 -43 26 -70 69 -70c45 0 71 27 71 70c0 44 -22 72 -70 72zM265 -15c-152 0 -260 86 -260 220c0 69 25 129 90 161c-41 27 -72 73 -72 140c0 138 93 209 242 209s242 -71 242 -209c0 -67 -31 -113 -72 -140c65 -32 90 -92 90 -161
c0 -134 -108 -220 -260 -220zM265 422c36 0 57 29 57 66c0 45 -22 63 -57 63s-57 -18 -57 -63c0 -37 21 -66 57 -66z" />
    <glyph glyph-name="nine" unicode="9" 
d="M315 422c-1 91 -18 123 -57 123c-36 0 -53 -30 -53 -68c0 -40 24 -65 59 -65c14 0 34 3 51 10zM310 264c-31 -7 -42 -9 -80 -9c-122 0 -218 66 -218 218c0 148 93 242 246 242c176 0 256 -102 256 -364c0 -250 -117 -366 -269 -366c-69 0 -224 31 -224 128
c0 47 30 95 69 95c44 0 75 -53 142 -53c52 0 78 37 78 109z" />
    <glyph glyph-name="onesuperior" unicode="&#xb9;" horiz-adv-x="320" 
d="M103 560l-28 -14c-9 -4 -17 -5 -24 -5c-21 0 -35 17 -35 48c0 40 20 57 36 65l60 30c18 9 33 16 56 16h37c25 0 37 -12 37 -41v-222h35c31 0 43 -26 43 -57s-12 -56 -43 -56h-216c-32 0 -44 25 -44 56s12 57 44 57h42v123z" />
    <glyph glyph-name="twosuperior" unicode="&#xb2;" horiz-adv-x="320" 
d="M192 437h77c31 0 43 -26 43 -57s-12 -56 -43 -56h-214c-32 0 -44 25 -44 56c0 26 9 36 30 59l102 109c14 14 22 25 22 39s-9 23 -24 23c-11 0 -20 -4 -25 -15c-6 -11 -23 -20 -38 -20c-38 0 -69 16 -69 46c0 4 1 13 3 17c19 47 64 77 136 77c89 0 144 -41 144 -112
c0 -45 -22 -82 -56 -119z" />
    <glyph glyph-name="threesuperior" unicode="&#xb3;" horiz-adv-x="320" 
d="M241 527c45 -11 62 -51 62 -89c0 -82 -66 -117 -148 -117c-45 0 -78 5 -112 26c-16 10 -25 25 -25 41c0 29 18 59 44 59c11 0 18 -2 26 -7c14 -9 26 -17 51 -17c15 0 32 6 32 23s-11 24 -30 24h-22c-25 0 -35 20 -35 44c0 25 10 46 35 46h28c13 0 22 11 22 25
s-7 25 -24 25c-11 0 -17 -3 -25 -15c-3 -4 -8 -18 -33 -18c-7 0 -16 1 -27 4c-23 6 -42 21 -42 42c0 6 1 13 4 21c17 45 62 71 130 71c89 0 144 -39 144 -110c0 -29 -14 -66 -55 -78z" />
    <glyph glyph-name="fraction" unicode="&#x2044;" horiz-adv-x="584" 
d="M549 645l-396 -621c-16 -25 -37 -39 -73 -39s-54 22 -54 42c0 7 2 19 8 28l396 621c16 25 37 39 73 39s54 -22 54 -42c0 -7 -2 -19 -8 -28z" />
    <glyph glyph-name="fraction" unicode="&#x2215;" horiz-adv-x="584" 
d="M549 645l-396 -621c-16 -25 -37 -39 -73 -39s-54 22 -54 42c0 7 2 19 8 28l396 621c16 25 37 39 73 39s54 -22 54 -42c0 -7 -2 -19 -8 -28z" />
    <glyph glyph-name="onequarter" unicode="&#xbc;" horiz-adv-x="832" 
d="M673 645l-396 -621c-16 -25 -37 -39 -73 -39s-54 22 -54 42c0 7 2 19 8 28l396 621c16 25 37 39 73 39s54 -22 54 -42c0 -7 -2 -19 -8 -28zM508 58c-28 0 -39 22 -39 49c0 30 7 45 14 59l84 161c20 39 37 48 86 48h55c34 0 63 -13 63 -49v-168h11c27 0 38 -23 38 -51
c0 -27 -11 -49 -38 -49h-11v-22c0 -38 -29 -51 -63 -51c-36 0 -65 13 -65 51v22h-135zM101 560l-28 -14c-9 -4 -17 -5 -24 -5c-21 0 -35 17 -35 48c0 40 20 57 36 65l60 30c18 9 33 16 56 16h37c25 0 37 -12 37 -41v-222h35c31 0 43 -26 43 -57s-12 -56 -43 -56h-216
c-32 0 -44 25 -44 56s12 57 44 57h42v123zM643 256l-52 -98h52v98z" />
    <glyph glyph-name="onehalf" unicode="&#xbd;" horiz-adv-x="832" 
d="M101 560l-28 -14c-9 -4 -17 -5 -24 -5c-21 0 -35 17 -35 48c0 40 20 57 36 65l60 30c18 9 33 16 56 16h37c25 0 37 -12 37 -41v-222h35c31 0 43 -26 43 -57s-12 -56 -43 -56h-216c-32 0 -44 25 -44 56s12 57 44 57h42v123zM788 279c0 -45 -22 -82 -56 -119l-44 -47h77
c31 0 43 -26 43 -57s-12 -56 -43 -56h-214c-32 0 -44 25 -44 56c0 26 9 36 30 59l102 109c14 14 22 25 22 39s-9 23 -24 23c-11 0 -20 -4 -25 -15c-6 -11 -23 -20 -38 -20c-38 0 -69 16 -69 46c0 4 1 13 3 17c19 47 64 77 136 77c89 0 144 -41 144 -112zM673 645l-396 -621
c-16 -25 -37 -39 -73 -39s-54 22 -54 42c0 7 2 19 8 28l396 621c16 25 37 39 73 39s54 -22 54 -42c0 -7 -2 -19 -8 -28z" />
    <glyph glyph-name="threequarters" unicode="&#xbe;" horiz-adv-x="832" 
d="M673 645l-396 -621c-16 -25 -37 -39 -73 -39s-54 22 -54 42c0 7 2 19 8 28l396 621c16 25 37 39 73 39s54 -22 54 -42c0 -7 -2 -19 -8 -28zM643 58h-135c-28 0 -39 22 -39 49c0 30 7 45 14 59l84 161c20 39 37 48 86 48h55c34 0 63 -13 63 -49v-168h11
c27 0 38 -23 38 -51c0 -27 -11 -49 -38 -49h-11v-22c0 -38 -29 -51 -63 -51c-36 0 -65 13 -65 51v22zM643 256l-52 -98h52v98zM241 527c45 -11 62 -51 62 -89c0 -82 -66 -117 -148 -117c-45 0 -78 5 -112 26c-16 10 -25 25 -25 41c0 29 18 59 44 59c11 0 18 -2 26 -7
c14 -9 26 -17 51 -17c15 0 32 6 32 23s-11 24 -30 24h-22c-25 0 -35 20 -35 44c0 25 10 46 35 46h28c13 0 22 11 22 25s-7 25 -24 25c-11 0 -17 -3 -25 -15c-3 -4 -8 -18 -33 -18c-7 0 -16 1 -27 4c-23 6 -42 21 -42 42c0 6 1 13 4 21c17 45 62 71 130 71
c89 0 144 -39 144 -110c0 -29 -14 -66 -55 -78z" />
    <glyph glyph-name="percent" unicode="%" horiz-adv-x="832" 
d="M218 528c0 48 -12 74 -37 74s-37 -26 -37 -74s12 -74 37 -74s37 26 37 74zM13 529c0 123 62 187 167 187c107 0 169 -64 169 -187c0 -125 -62 -189 -169 -189c-105 0 -167 64 -167 189zM688 173c0 48 -12 74 -37 74s-37 -26 -37 -74s12 -74 37 -74s37 26 37 74zM483 174
c0 123 62 187 167 187c107 0 169 -64 169 -187c0 -125 -62 -189 -169 -189c-105 0 -167 64 -167 189zM673 645l-396 -621c-16 -25 -37 -39 -73 -39s-54 22 -54 42c0 7 2 19 8 28l396 621c16 25 37 39 73 39s54 -22 54 -42c0 -7 -2 -19 -8 -28z" />
    <glyph glyph-name="perthousand" unicode="&#x2030;" horiz-adv-x="1201" 
d="M1056 173c0 48 -12 74 -37 74s-37 -26 -37 -74s12 -74 37 -74s37 26 37 74zM851 174c0 123 62 187 167 187c107 0 169 -64 169 -187c0 -125 -62 -189 -169 -189c-105 0 -167 64 -167 189zM218 528c0 48 -12 74 -37 74s-37 -26 -37 -74s12 -74 37 -74s37 26 37 74zM13 529
c0 123 62 187 167 187c107 0 169 -64 169 -187c0 -125 -62 -189 -169 -189c-105 0 -167 64 -167 189zM688 173c0 48 -12 74 -37 74s-37 -26 -37 -74s12 -74 37 -74s37 26 37 74zM483 174c0 123 62 187 167 187c107 0 169 -64 169 -187c0 -125 -62 -189 -169 -189
c-105 0 -167 64 -167 189zM673 645l-396 -621c-16 -25 -37 -39 -73 -39s-54 22 -54 42c0 7 2 19 8 28l396 621c16 25 37 39 73 39s54 -22 54 -42c0 -7 -2 -19 -8 -28z" />
    <glyph glyph-name="plus" unicode="+" 
d="M497 332c0 -42 -16 -77 -59 -77h-96v-91c0 -45 -35 -61 -77 -61c-43 0 -78 16 -78 61v91h-94c-45 0 -61 35 -61 77c0 43 16 78 61 78h94v84c0 43 35 59 78 59c42 0 77 -16 77 -59v-84h96c43 0 59 -35 59 -78z" />
    <glyph glyph-name="minus" unicode="&#x2212;" 
d="M497 332c0 -42 -16 -77 -59 -77h-345c-45 0 -61 35 -61 77c0 43 16 78 61 78h345c43 0 59 -35 59 -78z" />
    <glyph glyph-name="plusminus" unicode="&#xb1;" 
d="M497 372c0 -42 -16 -77 -59 -77h-96v-61c0 -45 -35 -61 -77 -61c-43 0 -78 16 -78 61v61h-94c-45 0 -61 35 -61 77c0 43 16 78 61 78h94v44c0 43 35 59 78 59c42 0 77 -16 77 -59v-44h96c43 0 59 -35 59 -78zM497 76c0 -42 -16 -77 -59 -77h-345c-45 0 -61 35 -61 77
c0 43 16 78 61 78h345c43 0 59 -35 59 -78z" />
    <glyph glyph-name="multiply" unicode="&#xd7;" 
d="M371 332l105 -101c12 -12 17 -25 17 -38c0 -38 -50 -89 -88 -89c-13 0 -27 5 -39 17l-101 105l-101 -105c-12 -12 -26 -17 -39 -17c-38 0 -88 51 -88 89c0 13 5 26 17 38l105 101l-105 102c-12 12 -17 25 -17 38c0 38 50 89 88 89c13 0 27 -5 39 -17l101 -105l101 105
c12 12 26 17 39 17c38 0 88 -51 88 -89c0 -13 -5 -26 -17 -38z" />
    <glyph glyph-name="divide" unicode="&#xf7;" 
d="M497 332c0 -42 -16 -77 -59 -77h-345c-45 0 -61 35 -61 77c0 43 16 78 61 78h345c43 0 59 -35 59 -78zM268 55c-48 0 -85 17 -85 64v49c0 48 37 65 85 65c46 0 82 -17 82 -65v-49c0 -47 -36 -64 -82 -64zM268 431c-48 0 -85 17 -85 64v49c0 48 37 65 85 65
c46 0 82 -17 82 -65v-49c0 -47 -36 -64 -82 -64z" />
    <glyph glyph-name="equal" unicode="=" 
d="M497 433c0 -42 -16 -77 -59 -77h-345c-45 0 -61 35 -61 77c0 43 16 78 61 78h345c43 0 59 -35 59 -78zM497 220c0 -42 -16 -77 -59 -77h-345c-45 0 -61 35 -61 77c0 43 16 78 61 78h345c43 0 59 -35 59 -78z" />
    <glyph glyph-name="notequal" unicode="&#x2260;" 
d="M424 511h14c43 0 59 -35 59 -78c0 -42 -16 -77 -59 -77h-99l-35 -58h134c43 0 59 -35 59 -78c0 -42 -16 -77 -59 -77h-227l-37 -63c-14 -23 -28 -33 -57 -33c-38 0 -52 18 -52 34c0 5 1 9 3 13l29 49h-4c-45 0 -61 35 -61 77c0 43 16 78 61 78h94l33 58h-127
c-45 0 -61 35 -61 77c0 43 16 78 61 78h216l38 63c14 23 28 33 57 33c38 0 52 -18 52 -34c0 -5 -1 -9 -3 -13z" />
    <glyph glyph-name="approxequal" unicode="&#x2248;" 
d="M342 345c-51 0 -109 32 -154 32c-34 0 -28 -42 -76 -42c-41 0 -85 21 -85 61c0 4 0 8 1 12c16 73 68 118 155 118c62 0 128 -33 158 -33c34 0 28 42 76 42c41 0 85 -22 85 -61c0 -80 -77 -129 -160 -129zM342 129c-51 0 -109 32 -154 32c-34 0 -28 -42 -76 -42
c-41 0 -85 21 -85 61c0 4 0 8 1 12c16 73 68 118 155 118c62 0 128 -33 158 -33c34 0 28 42 76 42c41 0 85 -22 85 -61c0 -80 -77 -129 -160 -129z" />
    <glyph glyph-name="less" unicode="&#x3c;" 
d="M194 331l256 -58c26 -6 45 -18 45 -74c0 -53 -18 -75 -44 -75c-9 0 -18 1 -29 4l-332 92c-34 9 -44 32 -44 56v112c0 24 10 45 44 54l332 92c11 3 20 4 29 4c26 0 44 -22 44 -75c0 -56 -19 -68 -45 -74z" />
    <glyph glyph-name="greater" unicode="&#x3e;" 
d="M80 273l256 58l-256 58c-26 6 -45 18 -45 74c0 53 18 75 44 75c9 0 18 -1 29 -4l332 -92c34 -9 44 -30 44 -54v-112c0 -24 -10 -47 -44 -56l-332 -92c-11 -3 -20 -4 -29 -4c-26 0 -44 22 -44 75c0 56 19 68 45 74z" />
    <glyph glyph-name="lessequal" unicode="&#x2264;" 
d="M452 396l-267 -40l267 -38c23 -3 45 -8 45 -74c0 -53 -18 -75 -44 -75c-9 0 -18 1 -29 4l-341 74c-34 8 -44 30 -44 54v112c0 24 10 46 44 54l341 74c11 3 20 4 29 4c26 0 44 -22 44 -75c0 -68 -22 -70 -45 -74zM497 77c0 -42 -16 -77 -59 -77h-345c-45 0 -61 35 -61 77
c0 43 16 78 61 78h345c43 0 59 -35 59 -78z" />
    <glyph glyph-name="greaterequal" unicode="&#x2265;" 
d="M490 413v-112c0 -24 -10 -46 -44 -54l-341 -74c-11 -3 -20 -4 -29 -4c-26 0 -44 22 -44 75c0 68 22 70 45 74l267 38l-267 40c-23 4 -45 6 -45 74c0 53 18 75 44 75c9 0 18 -1 29 -4l341 -74c34 -8 44 -30 44 -54zM497 77c0 -42 -16 -77 -59 -77h-345
c-45 0 -61 35 -61 77c0 43 16 78 61 78h345c43 0 59 -35 59 -78z" />
    <glyph glyph-name="logicalnot" unicode="&#xac;" 
d="M329 255h-236c-45 0 -61 35 -61 77c0 43 16 78 61 78h332c43 0 59 -35 59 -78v-168c0 -45 -35 -61 -77 -61c-43 0 -78 16 -78 61v91z" />
    <glyph glyph-name="Delta" unicode="&#x394;" horiz-adv-x="563" 
d="M489 0h-415c-46 0 -63 37 -63 81c0 26 9 49 14 67l134 499c13 48 32 53 82 53h81c50 0 69 -5 82 -53l134 -499c5 -18 14 -41 14 -67c0 -44 -17 -81 -63 -81zM208 162h143l-71 306z" />
    <glyph glyph-name="Delta" unicode="&#x2206;" horiz-adv-x="563" 
d="M489 0h-415c-46 0 -63 37 -63 81c0 26 9 49 14 67l134 499c13 48 32 53 82 53h81c50 0 69 -5 82 -53l134 -499c5 -18 14 -41 14 -67c0 -44 -17 -81 -63 -81zM208 162h143l-71 306z" />
    <glyph glyph-name="Omega" unicode="&#x3a9;" horiz-adv-x="639" 
d="M319 715c161 0 281 -64 281 -334c0 -82 -21 -152 -71 -212h48c46 0 63 -39 63 -84c0 -46 -17 -85 -63 -85h-138c-51 0 -92 21 -92 72v48c0 37 7 49 16 65c23 41 43 86 43 178c0 160 -29 182 -87 182s-87 -22 -87 -182c0 -92 20 -137 43 -178c9 -16 16 -28 16 -65v-48
c0 -51 -41 -72 -92 -72h-138c-46 0 -63 39 -63 85c0 45 17 84 63 84h49c-50 60 -72 130 -72 212c0 270 120 334 281 334z" />
    <glyph glyph-name="Omega" unicode="&#x2126;" horiz-adv-x="639" 
d="M319 715c161 0 281 -64 281 -334c0 -82 -21 -152 -71 -212h48c46 0 63 -39 63 -84c0 -46 -17 -85 -63 -85h-138c-51 0 -92 21 -92 72v48c0 37 7 49 16 65c23 41 43 86 43 178c0 160 -29 182 -87 182s-87 -22 -87 -182c0 -92 20 -137 43 -178c9 -16 16 -28 16 -65v-48
c0 -51 -41 -72 -92 -72h-138c-46 0 -63 39 -63 85c0 45 17 84 63 84h49c-50 60 -72 130 -72 212c0 270 120 334 281 334z" />
    <glyph glyph-name="mu" unicode="&#xb5;" horiz-adv-x="558" 
d="M53 486c0 52 41 67 93 67c53 0 94 -15 94 -67v-296c0 -35 17 -52 48 -52c32 0 48 19 48 58v290c0 52 41 67 93 67c53 0 94 -15 94 -67v-310c0 -115 -57 -191 -166 -191c-45 0 -89 7 -117 33v-164c0 -51 -41 -66 -94 -66c-52 0 -93 15 -93 66v632z" />
    <glyph glyph-name="mu" unicode="&#x3bc;" horiz-adv-x="558" 
d="M53 486c0 52 41 67 93 67c53 0 94 -15 94 -67v-296c0 -35 17 -52 48 -52c32 0 48 19 48 58v290c0 52 41 67 93 67c53 0 94 -15 94 -67v-310c0 -115 -57 -191 -166 -191c-45 0 -89 7 -117 33v-164c0 -51 -41 -66 -94 -66c-52 0 -93 15 -93 66v632z" />
    <glyph glyph-name="pi" unicode="&#x3c0;" horiz-adv-x="619" 
d="M171 -15c-51 0 -91 15 -91 65v325h-13c-47 0 -64 37 -64 81c0 45 17 82 64 82h487c45 0 62 -37 62 -82c0 -44 -17 -81 -62 -81h-14v-325c0 -50 -40 -65 -91 -65s-91 15 -91 65v325h-96v-325c0 -50 -40 -65 -91 -65z" />
    <glyph glyph-name="degree" unicode="&#xb0;" horiz-adv-x="320" 
d="M22 577c0 76 61 138 137 138s138 -62 138 -138s-62 -137 -138 -137s-137 61 -137 137zM117 577c0 -23 19 -42 42 -42c24 0 43 19 43 42c0 24 -19 43 -43 43c-23 0 -42 -19 -42 -43z" />
    <glyph glyph-name="infinity" unicode="&#x221e;" horiz-adv-x="674" 
d="M644 333c0 -105 -69 -166 -163 -166c-62 0 -104 27 -144 63c-40 -36 -82 -63 -144 -63c-94 0 -163 61 -163 166s69 165 163 165c62 0 104 -26 144 -62c40 36 82 62 144 62c94 0 163 -60 163 -165zM403 333c21 -19 47 -30 68 -30c12 0 29 9 29 30s-17 30 -29 30
c-21 0 -47 -11 -68 -30zM271 333c-21 19 -47 30 -68 30c-12 0 -29 -9 -29 -30s17 -30 29 -30c21 0 47 11 68 30z" />
    <glyph glyph-name="partialdiff" unicode="&#x2202;" horiz-adv-x="542" 
d="M342 421c4 23 6 42 6 59c0 37 -12 58 -45 58c-20 0 -35 -5 -49 -21c-19 -22 -42 -39 -74 -39c-39 0 -95 26 -95 73c0 13 4 27 13 43c52 90 140 121 232 121c129 0 212 -85 212 -245c0 -36 -3 -76 -11 -121c-46 -264 -172 -364 -324 -364c-122 0 -207 64 -207 190
c0 208 148 263 250 263c38 0 71 -7 92 -17zM318 271c-17 9 -34 14 -51 14c-49 0 -73 -39 -73 -81c0 -30 13 -47 41 -47c39 0 75 37 83 114z" />
    <glyph glyph-name="integral" unicode="&#x222b;" horiz-adv-x="322" 
d="M242 -46c0 -121 -80 -166 -170 -166c-57 0 -132 4 -132 83c0 45 4 82 40 82c10 0 24 -5 39 -5c19 0 36 15 36 47v573c0 150 95 211 228 211c20 0 38 -1 50 -4c26 -6 36 -16 36 -50c0 -10 0 -22 -2 -36c-7 -56 -25 -63 -42 -63c-6 0 -12 1 -17 1c-36 0 -66 -12 -66 -51
v-622z" />
    <glyph glyph-name="radical" unicode="&#x221a;" horiz-adv-x="600" 
d="M301 181l110 462c13 56 49 72 100 72c48 0 88 -14 88 -61c0 -7 -1 -16 -4 -25l-163 -573c-11 -39 -18 -56 -64 -56h-118c-57 0 -75 21 -85 57l-85 318h-4c-48 0 -65 37 -65 81c0 45 17 82 65 82h97c37 0 55 -25 62 -59z" />
    <glyph glyph-name="summation" unicode="&#x2211;" horiz-adv-x="520" 
d="M223 352l-164 186c-22 24 -30 51 -30 79c0 46 9 83 56 83h341c46 0 63 -37 63 -83c0 -45 -17 -82 -63 -82h-153l115 -127c19 -21 27 -40 27 -58s-8 -35 -27 -57l-115 -128h163c46 0 63 -37 63 -82c0 -46 -17 -83 -63 -83h-347c-47 0 -64 37 -64 83c0 28 8 54 30 79z" />
    <glyph glyph-name="product" unicode="&#x220f;" horiz-adv-x="668" 
d="M516 -15c-51 0 -92 19 -92 70v465h-180v-465c0 -51 -41 -70 -92 -70s-92 19 -92 70v574c0 52 41 71 92 71h364c51 0 92 -19 92 -71v-574c0 -51 -41 -70 -92 -70z" />
    <glyph glyph-name="lozenge" unicode="&#x25ca;" 
d="M525 346c0 -16 -10 -31 -14 -39l-123 -259c-19 -40 -33 -48 -83 -48h-79c-50 0 -64 8 -83 48l-123 259c-4 8 -14 23 -14 39s10 39 14 47l123 259c19 40 33 48 83 48h79c50 0 64 -8 83 -48l123 -259c4 -8 14 -31 14 -47zM264 186l75 164l-75 164l-76 -164z" />
    </font>
</defs>
</svg>
