<?xml version="1.0" standalone="no"?>
<!DOCTYPE svg PUBLIC "-//W3C//DTD SVG 20010904//EN"
 "http://www.w3.org/TR/2001/REC-SVG-20010904/DTD/svg10.dtd">
<svg version="1.0" xmlns="http://www.w3.org/2000/svg"
 width="260.000000pt" height="260.000000pt" viewBox="0 0 260.000000 260.000000"
 preserveAspectRatio="xMidYMid meet">
<metadata>
Created by potrace 1.11, written by Peter Selinger 2001-2013
</metadata>
<g transform="translate(0.000000,260.000000) scale(0.100000,-0.100000)"
fill="#000000" stroke="none">
<path d="M0 1300 l0 -1300 1300 0 1300 0 0 1300 0 1300 -1300 0 -1300 0 0
-1300z m1690 978 c119 -25 248 -67 346 -113 48 -21 85 -33 98 -29 29 7 176 21
176 16 0 -17 -38 -67 -73 -96 -39 -31 -43 -39 -39 -70 9 -78 -36 -357 -77
-478 l-18 -53 -6 135 c-4 85 -13 164 -26 212 -34 132 -22 128 -169 51 -70 -36
-152 -79 -182 -96 -60 -33 -60 -34 21 63 49 59 99 130 99 142 0 11 -346 -20
-469 -42 -30 -6 -56 -8 -58 -6 -15 15 353 134 484 157 35 6 63 15 63 19 0 12
-117 84 -255 157 l-120 64 55 -6 c30 -4 98 -16 150 -27z m-631 -520 c-40 -74
-38 -84 17 -92 66 -9 213 -60 291 -101 61 -32 64 -35 31 -30 -150 23 -345 23
-418 0 -20 -6 -70 -147 -91 -258 -12 -62 -14 -66 -25 -45 -7 13 -27 71 -45
131 -18 59 -36 107 -40 107 -11 0 -148 -107 -231 -181 -42 -38 -79 -69 -83
-69 -19 0 110 200 191 296 l54 63 -24 16 c-13 9 -66 26 -117 39 l-94 23 90 16
c50 10 133 17 185 17 80 0 100 3 125 21 39 27 185 99 201 99 8 0 1 -21 -17
-52z m-574 -919 c15 -30 28 -55 29 -55 0 -1 30 4 66 12 36 7 77 14 92 14 l26
0 -40 -77 -40 -78 41 -36 c22 -20 71 -52 108 -72 l68 -36 -45 6 c-25 3 -73 11
-108 19 -35 8 -68 14 -74 14 -6 0 -9 -26 -6 -71 l4 -72 -41 46 c-23 25 -54 69
-70 99 -26 50 -35 57 -122 103 -52 28 -97 53 -99 57 -2 4 28 17 67 30 l72 23
-7 71 c-3 40 -3 108 1 153 l6 82 22 -89 c13 -49 35 -113 50 -143z m863 -269
c4 0 27 12 52 26 25 14 61 35 80 46 25 14 12 -3 -44 -55 -76 -73 -78 -76 -72
-111 l7 -36 -49 0 c-34 0 -63 -8 -93 -24 -45 -25 -198 -80 -205 -74 -2 2 24
25 58 51 38 29 56 48 47 51 -8 2 -39 13 -69 24 l-55 21 40 1 c22 0 70 7 106
14 69 13 83 23 159 121 l25 33 3 -44 c2 -24 6 -44 10 -44z"/>
</g>
</svg>
