<svg id="Contents" xmlns="http://www.w3.org/2000/svg" viewBox="0 0 271.2 56.1"><style>.st0{fill:url(#SVGID_1_)}.st1{fill:url(#SVGID_2_)}.st2{fill:url(#SVGID_3_)}.st3{fill:url(#SVGID_4_)}.st4{fill:url(#SVGID_5_)}.st5{fill:url(#SVGID_6_)}.st6{fill:#fff}</style><linearGradient id="SVGID_1_" gradientUnits="userSpaceOnUse" x1="28.063" y1="-1.381" x2="28.063" y2="57.866"><stop offset="0" stop-color="#008053"/><stop offset=".6" stop-color="#7fcbae"/><stop offset="1" stop-color="#00a76d"/></linearGradient><path class="st0" d="M0 0h56.1v56.1H0z"/><linearGradient id="SVGID_2_" gradientUnits="userSpaceOnUse" x1="27.974" y1="-13.942" x2="27.974" y2="52.635"><stop offset="0" stop-color="#00a76d"/><stop offset=".3" stop-color="#7fcbae"/><stop offset=".55" stop-color="#00a76d"/><stop offset=".835" stop-color="#008053"/><stop offset=".869" stop-color="#008558"/><stop offset=".924" stop-color="#009264"/><stop offset=".994" stop-color="#00a97a"/><stop offset="1" stop-color="#00ad7d"/></linearGradient><path class="st1" d="M54.4 28.4c0 11.7.5 23.7.5 23.7 0 1.3-.9 2.2-2 2.2H4.4c-1.1 0-1.8-1-2-2.2 0 0-1.4-10.2-1.4-25.9 0-15.6 1.4-23 1.4-23 .2-1.3.9-2.2 2-2.2H53c1.1 0 2 1 2 2.2-.1 0-.6 13.5-.6 25.2z"/><linearGradient id="SVGID_3_" gradientUnits="userSpaceOnUse" x1="38.639" y1="48.959" x2="38.639" y2="5.875"><stop offset="0" stop-color="#00b387"/><stop offset="1" stop-color="#00a76d"/></linearGradient><path class="st2" d="M43.6 15.2c-3.5 2-4.5 2.2-8.3 4.5l.2-.4c2-2.2 2.8-3.1 4.1-5-3.5.2-8.5.6-12.1 1.4l.2-.4c3.3-1.6 9.4-3.2 12.4-3.6-.8-1.1-6.9-4.4-8.4-5l.2-.4c4.7.5 10.8 2.7 13.5 4.4 1.1-.4 2.3-.4 4.4-.6 0 0-.3 1.3-2.6 2.9.6 1.5-.8 10-1.9 12.2-.1-3.6-.4-8.1-1.7-10z"/><linearGradient id="SVGID_4_" gradientUnits="userSpaceOnUse" x1="11.908" y1="48.961" x2="11.908" y2="5.865"><stop offset="0" stop-color="#00b387"/><stop offset="1" stop-color="#00a76d"/></linearGradient><path class="st3" d="M18.2 45.5l.2-.4c-1.8-.7-3.7-1.3-5.2-2.7.5-1.3 1-2.3 1.9-3.6l.2-.4c-1.6.2-3 .8-4.4 1.1-1.1-1.9-1.5-4.5-2-7l-.2.4c-.3 2.8-.4 4.8 0 7.1-1.1.3-2.1.4-3.1.8l-.2.4c1.5.9 2.7 1.6 4.3 2.4.9 1.9 1.8 3.2 3.3 4.6l.2-.4c-.3-1.1-.6-2-.5-3.2 1.8.6 3.4.8 5.5.9z"/><linearGradient id="SVGID_5_" gradientUnits="userSpaceOnUse" x1="20.235" y1="48.952" x2="20.235" y2="5.881"><stop offset="0" stop-color="#00b387"/><stop offset="1" stop-color="#00a76d"/></linearGradient><path class="st4" d="M23.3 17.3s-.7 1.3-1.3 3.1h-.1c4.3.6 8.4 2.3 9.4 2.9l-.2.4c-4.5-.8-6.8-.7-8.5-.5-1.7.2-2 .4-2 .4-1 2.1-1.5 5.5-1.8 6.8l-.2.4c-.8-2-2-5.9-2-5.9-2.3 1.2-7.5 6.1-7.5 6.1 2.9-5.7 5.8-8.3 5.8-8.3-1-1-3.6-1.5-5.5-1.6l.2-.4c1.2-.4 3.7-.5 5.3-.6 2-.1 3.1.1 3.1.1 1.8-1.5 4.4-2.8 5.3-2.9z"/><linearGradient id="SVGID_6_" gradientUnits="userSpaceOnUse" x1="27.434" y1="48.958" x2="27.434" y2="5.874"><stop offset="0" stop-color="#00b387"/><stop offset="1" stop-color="#00a76d"/></linearGradient><path class="st5" d="M28.8 41.9c-.9 1.2-1.7 2.2-2.7 3.3-1.5.4-3.2.2-4.6.3l-.2.4c1 .5 2 .9 3.1 1.1-.9.8-2 1.4-2.9 1.9l-.2.4c1.8-.4 4.1-1.2 5.8-2.2.9 0 1.7 0 2.3-.1l.2-.4c-.1-.4-.5-.6-.6-1.2 1.6-1.3 2.8-2.4 4.1-3.7l.2-.4c-1.3.9-2.9 2.2-4.5 2.9.1-.7.1-1.4 0-2.3z"/><g><path class="st6" d="M43.8 14.8c-3.5 2-4.5 2.2-8.3 4.5 2.2-2.4 3-3.4 4.3-5.4-3.5.2-8.5.6-12.1 1.4 3.1-1.7 9.4-3.5 12.6-4-.8-1.1-6.9-4.4-8.5-5 4.9.4 10.8 2.2 13.7 4 1.1-.4 2.3-.4 4.4-.6-.5.9-.6 1.5-2.6 2.8.6 1.5-.8 10-1.9 12.2 0-3.5-.3-8-1.6-9.9zM18.4 45.1c-2-.7-3.4-1.6-5-3.1.5-1.3 1-2.3 1.9-3.6-1.6.2-2.8.4-4.2.7-1.1-2-1.6-3.9-2.2-6.6-.3 2.8-.4 4.8 0 7.1-1.3.4-2.2.7-3.2 1.1 1.5.9 2.7 1.6 4.3 2.4.9 1.9 1.8 3.2 3.3 4.6-.3-1.2-.4-2.2-.3-3.5 1.7.6 3.3.8 5.4.9zM23.6 17c-.6.8-1.3 2.3-1.5 3 5.1.7 9.2 3.3 9.2 3.3-4.5-.8-6.8-.7-8.5-.5-1.7.2-2 .4-2 .4-1.2 2.7-1.9 7.2-1.9 7.2-.8-2-2-5.9-2-5.9-2.3 1.2-7.5 6.1-7.5 6.1 2.9-5.7 5.8-8.3 5.8-8.3-1-1-3.6-1.5-5.5-1.6 1-.4 3.5-.9 5.5-1 2-.1 3.2.1 3.2.1 1.6-1.5 4.3-2.7 5.2-2.8zM29 41.6c-.9 1.2-1.7 2.2-2.7 3.3-1.7.5-3.1.7-4.8.7 1 .5 2 .9 3.1 1.1-1.1 1-2 1.7-3 2.3 1.8-.4 4.1-1.2 5.8-2.2.9 0 1.7 0 2.4-.1-.2-.5-.3-.9-.4-1.6 1.6-1.3 2.8-2.4 4.1-3.7-1.4 1-2.7 1.7-4.3 2.5-.1-.8-.1-1.5-.2-2.3z"/></g><g><path d="M70.2 18.5c.1 2 .2 7.2.2 9.1 0 1.7 0 7.5-.3 10v.2h9.1c4.5 0 9.2-1.4 9.2-5.3 0-2.5-1.8-4.3-5.1-5.3 2.5-.7 4.1-2.4 4.1-4.3 0-3.2-3.7-4.4-7.2-4.5h-10v.1zm7 2c3.8 0 5.2.8 5.2 2.9 0 .6-.2 1.1-.5 1.5-.7.9-2.1 1.3-3.9 1.2h-.1l-1.1 2.8h1.1c2.1-.1 3.9.6 4.8 1.7.4.5.6 1.1.6 1.8 0 2.1-1.9 3.3-5.6 3.3h-2.3c-.1-2.9-.2-6.8-.2-7.9 0-1.4.1-4.4.2-7 .5-.3 1.2-.3 1.8-.3zM109.3 18.3h-4.4l.2 4.9c.1 2.4.2 4.9.3 7.4-.3-.8-.6-1.2-1.9-3.1 0-.1-4.6-7.1-6.2-9.1h-5.1v.2c.2 2 .2 7.2.2 9.1 0 1.7 0 7.5-.2 10v.2h4.6v-.2c-.3-4.8-.3-9.6-.3-14.2.2.6.4 1 1.1 2.1.1.1 7.9 11.6 8.3 12.2v.1h3.7v-.2c-.3-2.5-.3-8.3-.3-10 0-1.9.1-7 .2-9.1l.1-.2h-.3zM114.6 18.5c.2 2 .2 7.2.2 9.1 0 1.7 0 7.5-.3 10v.2h5.4v-.2c-.2-1.8-.3-5.2-.3-7.9.3 0 1 .1 1 .1h.8c7.1 0 10.6-1.9 10.6-5.9 0-4.5-4.9-5.6-8.9-5.6h-8.6v.2zm6.7 2.2c2.5 0 4.3.5 5.2 1.5.4.5.6 1.1.6 1.8 0 2.8-3.2 3.4-5.8 3.4l-1.1-.1h-.4v-2.5c0-1.2 0-2.7.1-4 .2-.1.8-.1 1.4-.1zM142.4 18.5c.2 2 .3 7.2.3 9.1 0 1.7 0 7.5-.3 10v.2h5.4v-.2c-.2-1.8-.3-5.2-.3-7.9.3 0 1 .1 1 .1h.8c7.1 0 10.6-1.9 10.6-5.9 0-4.5-4.9-5.6-9-5.6h-8.5v.2zm6.7 2.2c2.5 0 4.3.5 5.2 1.5.4.5.6 1.1.6 1.8 0 2.8-3.2 3.4-5.8 3.4l-1.1-.1h-.4v-2.5c0-1.2 0-2.7.1-4 .2-.1.8-.1 1.4-.1zM167.2 18.3l-.1.1c-1 2.8-7.5 17-8.5 19.2l-.1.2h4.6v-.1c.4-1.3 1-2.8 1.5-4.5.2 0 3.9-.1 3.9-.1H172.4c.8 2.1 1.5 3.7 1.7 4.5l.1.1h5.4l-8.7-19.5h-3.7zm1.3 5.8c.4.9 1.5 3.5 2.8 6.6h-2.8-2.9c1.1-2.5 2.1-4.7 2.9-6.6zM181.7 18.5c.2 2 .2 7.2.2 9.1 0 1.7 0 7.5-.3 10v.2h5.5v-.2c-.3-2.5-.3-8.3-.3-10 0-1.4 0-4.4.2-6.8.4 0 1-.1 1.5-.1 2.5 0 4.3.5 5.1 1.5.4.5.6 1.1.6 1.8 0 2.3-2.1 3.4-4.1 3.5-.7 0-1.1-.1-1.1-.1l-.4-.1.2.4c1.9 2.8 4.8 7.7 6 10v.1h5.8l-.1-.3c-.2-.3-4-5.9-5.6-8.3l-.1-.1c3-.9 4.4-2.6 4.4-5.1 0-4.5-4.9-5.6-9-5.6h-8.5v.1zM208.4 18.3h-5.2v.2c.1 2 .2 7.2.2 9.1 0 1.7 0 7.5-.3 10v.2h5.4v-.2c-.2-2.5-.3-8.3-.3-10 0-1.9.1-7 .3-9.1v-.2h-.1zM213.4 18.5c.2 2 .3 7.2.3 9.1 0 1.7 0 7.5-.3 10v.2h9.1c4.4 0 9.2-1.4 9.2-5.3 0-2.5-1.8-4.3-5.2-5.3 2.5-.7 4.2-2.4 4.2-4.3 0-3.2-3.7-4.4-7.2-4.5h-10l-.1.1zm7 2c3.8 0 5.2.8 5.2 2.9 0 .6-.2 1.1-.5 1.5-.7.9-2.2 1.3-3.9 1.2h-.1l-1 2.8h1c2.1-.1 3.9.6 4.8 1.7.5.5.7 1.1.7 1.8 0 2.1-1.9 3.3-5.7 3.3h-2.3c-.2-2.9-.2-6.8-.2-7.9 0-1.4.1-4.4.2-7 .5-.3 1.2-.3 1.8-.3zM245 18.3h-3.6v.1c-1.1 3-8 17.9-8.5 19.1l-.1.3h4.6v-.1c.4-1.3.9-2.8 1.5-4.5.1 0 3.8-.1 3.8-.1H246.6c.8 2.1 1.5 3.7 1.7 4.5l.1.1h5.4l-8.6-19.5h-.2zm-2.3 5.8c.4.9 1.5 3.5 2.8 6.6h-2.8s-2.5-.1-2.9-.1c1.1-2.4 2.1-4.6 2.9-6.5zM255.2 23.4c0 3.4 3.4 4.8 6.5 6.1 2.4.9 4.8 1.9 4.8 3.6 0 .5-.1.9-.4 1.2-.6.7-1.7 1-3.5.9-1.8-.1-3.9-.6-6.1-1.7l-.9-.4v4.3l.6.2.4.1c1.1.3 3.3.8 5.5.8 5.7 0 9.1-2.3 9.1-6.1 0-3.5-3.5-4.9-6.6-6.2-2.3-.9-4.7-1.9-4.7-3.4 0-.4 0-1.7 3-1.7 2.2 0 4.3.9 5.5 1.4l1.1.5v-4.2l-1.1-.2c-1.1-.2-3-.6-4.9-.6-5-.4-8.3 2-8.3 5.4z"/></g></svg>