<svg id="Layer_1" data-name="Layer 1" xmlns="http://www.w3.org/2000/svg" xmlns:xlink="http://www.w3.org/1999/xlink" viewBox="0 0 211.43 45.35"><defs><linearGradient id="linear-gradient" x1="22.67" y1="46.12" x2="22.67" y2="-1.76" gradientTransform="matrix(1, 0, 0, -1, 0, 45)" gradientUnits="userSpaceOnUse"><stop offset="0" stop-color="#00774a"/><stop offset="0.6" stop-color="#8ccaae"/><stop offset="1" stop-color="#00975f"/></linearGradient><linearGradient id="linear-gradient-2" x1="22.63" y1="56.27" x2="22.63" y2="2.47" gradientTransform="matrix(1, 0, 0, -1, 0, 45)" gradientUnits="userSpaceOnUse"><stop offset="0" stop-color="#00975f"/><stop offset="0.3" stop-color="#8ccaae"/><stop offset="0.55" stop-color="#00975f"/><stop offset="0.84" stop-color="#00774a"/><stop offset="0.89" stop-color="#008052"/><stop offset="0.98" stop-color="#009869"/><stop offset="1" stop-color="#00a070"/></linearGradient><linearGradient id="linear-gradient-3" x1="31.22" y1="5.44" x2="31.22" y2="40.25" gradientTransform="matrix(1, 0, 0, -1, 0, 45)" gradientUnits="userSpaceOnUse"><stop offset="0" stop-color="#00a97c"/><stop offset="1" stop-color="#00975f"/></linearGradient><linearGradient id="linear-gradient-4" x1="9.63" y1="5.43" x2="9.63" y2="40.26" xlink:href="#linear-gradient-3"/><linearGradient id="linear-gradient-5" x1="16.37" y1="5.44" x2="16.37" y2="40.25" xlink:href="#linear-gradient-3"/><linearGradient id="linear-gradient-6" x1="22.15" y1="5.44" x2="22.15" y2="40.25" xlink:href="#linear-gradient-3"/></defs><title>bnpf-logo</title><path d="M0,0H45.35V45.35H0V0Z" style="fill:url(#linear-gradient)"/><path d="M44,22.94c0,9.47.44,19.16,0.44,19.16a1.64,1.64,0,0,1-1.49,1.77H3.54A1.76,1.76,0,0,1,2,42.1,170.5,170.5,0,0,1,.82,21.18C0.82,8.53,2,2.58,2,2.58A1.75,1.75,0,0,1,3.54.8H42.8a1.69,1.69,0,0,1,1.59,1.78S44,13.47,44,22.94Z" style="fill:url(#linear-gradient-2)"/><path d="M35.22,12.25c-2.8,1.64-3.66,1.77-6.7,3.6l0.15-.34a31.21,31.21,0,0,0,3.34-4,68.45,68.45,0,0,0-9.81,1.13l0.15-.31a41.67,41.67,0,0,1,10.06-2.9c-0.61-.86-5.59-3.55-6.83-4.07L25.73,5a32.59,32.59,0,0,1,11,3.56,17.4,17.4,0,0,1,3.57-.47s-0.25,1-2.11,2.31c0.46,1.24-.65,8.08-1.56,9.89C36.53,17.43,36.28,13.82,35.22,12.25Z" style="fill:url(#linear-gradient-3)"/><path d="M14.73,36.77l0.14-.32a12,12,0,0,1-4.18-2.17,12.31,12.31,0,0,1,1.52-2.93L12.36,31c-1.28.19-2.44,0.66-3.55,0.88a21.06,21.06,0,0,1-1.65-5.63L7,26.6a19.19,19.19,0,0,0,0,5.73,21.29,21.29,0,0,0-2.47.61l-0.14.31a31.67,31.67,0,0,0,3.48,1.91,11.89,11.89,0,0,0,2.65,3.76l0.15-.32a6.79,6.79,0,0,1-.39-2.55A16.64,16.64,0,0,0,14.73,36.77Z" style="fill:url(#linear-gradient-4)"/><path d="M18.86,14a16.25,16.25,0,0,0-1.08,2.47H17.67a24.92,24.92,0,0,1,7.62,2.37l-0.15.31a24.5,24.5,0,0,0-6.88-.44,5,5,0,0,0-1.62.3,26.31,26.31,0,0,0-1.42,5.5l-0.15.32C14.41,23.22,13.45,20,13.45,20c-1.83,1-6,4.93-6,4.93a24.34,24.34,0,0,1,4.67-6.74C11.31,17.38,9.19,17,7.65,16.9l0.14-.31a23.86,23.86,0,0,1,4.31-.47,22.62,22.62,0,0,1,2.54,0A12.65,12.65,0,0,1,18.86,14Z" style="fill:url(#linear-gradient-5)"/><path d="M23.31,33.89a31.71,31.71,0,0,1-2.17,2.68,16.34,16.34,0,0,1-3.73.22l-0.14.32a9.56,9.56,0,0,0,2.51.87,19.15,19.15,0,0,1-2.31,1.58l-0.15.31A18,18,0,0,0,22,38.11,8.29,8.29,0,0,0,23.89,38L24,37.68a6.18,6.18,0,0,1-.46-1,32.88,32.88,0,0,0,3.34-3L27,33.36a28.37,28.37,0,0,1-3.64,2.36C23.38,35.11,23.34,34.59,23.31,33.89Z" style="fill:url(#linear-gradient-6)"/><path d="M35.36,11.93c-2.8,1.65-3.66,1.78-6.7,3.61a31.06,31.06,0,0,0,3.49-4.35,67.5,67.5,0,0,0-9.79,1.13A39,39,0,0,1,32.57,9.1C32,8.25,27,5.55,25.73,5a29.29,29.29,0,0,1,11.1,3.24,18.25,18.25,0,0,1,3.58-.45,4.73,4.73,0,0,1-2.13,2.29c0.46,1.24-.65,8.08-1.56,9.89C36.68,17.11,36.43,13.5,35.36,11.93ZM14.87,36.45a11.13,11.13,0,0,1-4-2.48,12.57,12.57,0,0,1,1.49-3c-1.31.2-2.27,0.34-3.4,0.56H9a17.43,17.43,0,0,1-1.8-5.31A19.26,19.26,0,0,0,7.2,32a16.88,16.88,0,0,0-2.62.92A32.6,32.6,0,0,0,8,34.85a11.89,11.89,0,0,0,2.66,3.75,7,7,0,0,1-.24-2.87A16.62,16.62,0,0,0,14.87,36.45Zm4.19-22.73a9.29,9.29,0,0,0-1.24,2.43,20.63,20.63,0,0,1,7.47,2.69,24.24,24.24,0,0,0-6.89-.44,5.26,5.26,0,0,0-1.62.29,28.7,28.7,0,0,0-1.56,5.82c-0.66-1.59-1.61-4.78-1.61-4.78-1.83,1-6,4.94-6,4.94a24,24,0,0,1,4.66-6.74c-0.81-.82-2.93-1.23-4.47-1.29a17.44,17.44,0,0,1,4.45-.79,23.23,23.23,0,0,1,2.55,0A12.75,12.75,0,0,1,19.06,13.72Zm4.39,19.86a34.11,34.11,0,0,1-2.17,2.68,13.34,13.34,0,0,1-3.87.54,9.63,9.63,0,0,0,2.51.87,17.49,17.49,0,0,1-2.45,1.89,18,18,0,0,0,4.67-1.76,8.54,8.54,0,0,0,1.9-.12,10.72,10.72,0,0,1-.31-1.28,31.81,31.81,0,0,0,3.34-3,22.55,22.55,0,0,1-3.49,2C23.52,34.8,23.49,34.27,23.45,33.58Z" style="fill:#fff"/><path d="M57.08,23.44h153.5v2.29H57.08V23.44Z" style="fill:#e63312"/><path d="M57.15,4.28c0.12,1.58.2,5.53,0.2,7s0,5.77-.22,7.69v0.16h7c3.4,0,7-1.08,7-4.11,0-1.9-1.38-3.31-4-4.08,1.89-.5,3.17-1.82,3.17-3.32,0-2.47-2.85-3.41-5.51-3.46H57.14V4.28h0ZM62.53,5.8c2.91,0,4,.61,4,2.2a1.67,1.67,0,0,1-.39,1.1,3.68,3.68,0,0,1-3,.94H63l-0.8,2.11H63a4.58,4.58,0,0,1,3.7,1.33,2.08,2.08,0,0,1,.5,1.35c0,1.67-1.45,2.52-4.32,2.52H61.12C61,15.13,61,12.14,61,11.26s0-3.38.11-5.36a8.26,8.26,0,0,1,1.42-.09h0ZM87.15,4.13H83.78L83.92,7.9c0.06,1.88.12,3.79,0.25,5.65a12.23,12.23,0,0,0-1.43-2.37c0-.05-3.54-5.48-4.76-7H74v0.1c0.11,1.58.2,5.52,0.2,7S74.19,17,74,19v0.16h3.5V19c-0.21-3.67-.21-7.35-0.21-10.92a5.2,5.2,0,0,0,.84,1.64c0.06,0.09,6.06,8.86,6.37,9.38v0.06h2.8V19c-0.21-1.92-.22-6.37-0.22-7.7s0.09-5.41.2-7V4.13H87.15Zm4.07,0.14c0.11,1.58.2,5.53,0.2,7s0,5.77-.22,7.69V19.1h4.17V19c-0.15-1.37-.2-4-0.21-6h1.35c5.49,0,8.16-1.47,8.16-4.51,0-3.47-3.74-4.28-6.88-4.34H91.21V4.27h0Zm5.11,1.65c2,0,3.32.37,4,1.18a2.12,2.12,0,0,1,.45,1.36c0,2.17-2.43,2.63-4.46,2.63H95.16v-5a7.7,7.7,0,0,1,1.16-.18h0Zm16.26-1.65c0.12,1.58.2,5.53,0.2,7s0,5.77-.22,7.69V19.1h4.17V19c-0.14-1.37-.2-4-0.21-6h1.35c5.49,0,8.16-1.47,8.16-4.51,0-3.47-3.74-4.28-6.88-4.34h-6.54V4.27h0Zm5.11,1.65c1.95,0,3.33.37,4,1.18a2.14,2.14,0,0,1,.45,1.36c0,2.17-2.42,2.63-4.46,2.63h-1.15V9.19c0-1,0-2,.05-3.09a7.68,7.68,0,0,1,1.11-.17h0Zm13.89-1.78h-0.07V4.22c-0.78,2.13-5.76,13-6.54,14.69l-0.09.21h3.57V19c0.31-1,.71-2.18,1.18-3.43h6c0.64,1.61,1.12,2.84,1.33,3.44v0.08h4.14l-6.67-15h-2.8Zm1,4.41c0.33,0.7,1.19,2.71,2.15,5.08H130.4c0.78-1.91,1.55-3.63,2.2-5.08h0Zm10.12-4.27c0.11,1.58.2,5.52,0.2,7s0,5.77-.23,7.69v0.16h4.17V19c-0.21-1.93-.22-6.37-0.22-7.7,0-1,0-3.38.12-5.23,0.34,0,.81-0.08,1.13-0.09,1.95,0,3.33.37,4,1.18a2.08,2.08,0,0,1,.45,1.36c0,1.73-1.63,2.6-3.14,2.68a4.54,4.54,0,0,1-.88,0H148l0.18,0.27c1.46,2.16,3.68,5.93,4.61,7.72v0.06h4.46L157.14,19c-0.16-.24-3.08-4.53-4.32-6.37l-0.08-.11c2.27-.68,3.39-2,3.39-3.94,0-3.47-3.75-4.27-6.88-4.34H142.7v0h0Zm20.48-.16h-4V4.27c0.12,1.59.2,5.53,0.2,7s0,5.76-.22,7.69V19.1h4.17V19c-0.2-1.93-.22-6.37-0.22-7.69s0.09-5.4.2-7V4.12h-0.13Zm3.9,0.16c0.12,1.58.2,5.53,0.2,7s0,5.77-.22,7.69v0.16h7c3.4,0,7-1.08,7-4.11,0-1.9-1.38-3.31-4-4.08,1.89-.5,3.18-1.82,3.18-3.32,0-2.47-2.84-3.41-5.51-3.46h-7.68V4.28h0Zm5.38,1.52c2.9,0,4,.61,4,2.2a1.67,1.67,0,0,1-.4,1.1,3.66,3.66,0,0,1-3,.94H173l-0.79,2.11H173a4.57,4.57,0,0,1,3.7,1.33,2.08,2.08,0,0,1,.5,1.35c0,1.67-1.45,2.52-4.31,2.52h-1.77c-0.1-2.19-.11-5.17-0.11-6.06s0-3.38.12-5.36a8.15,8.15,0,0,1,1.34-.12h0Zm18.82-1.68h-2.81V4.2c-0.82,2.26-6.1,13.75-6.54,14.69l-0.1.2h3.58V19c0.31-1,.71-2.18,1.18-3.43h5.92c0.65,1.61,1.12,2.83,1.33,3.44v0.08H198l-6.67-15h-0.06Zm-1.72,4.41c0.33,0.71,1.18,2.71,2.15,5.07h-4.34C188.15,11.7,188.92,10,189.57,8.53ZM199.19,8c0,2.63,2.65,3.7,5,4.64,1.82,0.73,3.69,1.5,3.69,2.75a1.36,1.36,0,0,1-.29.92c-0.43.51-1.33,0.73-2.73,0.67a13,13,0,0,1-4.69-1.32l-0.73-.33V18.6l0.47,0.1,0.29,0.06a18.61,18.61,0,0,0,4.22.61c4.39,0,7-1.74,7-4.65,0-2.7-2.71-3.78-5.1-4.73-1.77-.7-3.59-1.43-3.59-2.58,0-.34,0-1.34,2.26-1.34a11.45,11.45,0,0,1,4.24,1.06l0.86,0.35V4.19L209.24,4a19.57,19.57,0,0,0-3.74-.44C201.73,3.61,199.19,5.37,199.19,8ZM105.26,29.65v2.09c-1.95-.14-5.38-0.17-5.41-0.17a8.6,8.6,0,0,0-.88,0v3.49l4.38-.09v2H98.93v0.26a51.62,51.62,0,0,0,.24,5.17H94.92c0.19-2,.19-5.6.19-6.69s0-4.65-.14-6.09h10.29v0Zm9,13.15a6.61,6.61,0,0,1-7-6.21q0-.27,0-0.53c0-4,3-6.74,7-6.74a6.74,6.74,0,0,1,0,13.48h0Zm0-11.84c-1.85,0-3,1.8-3,5.1s1.16,5,3,5,3-1.75,3-5-1.17-5.06-3-5.06v0Zm16.26-1.31c2.8,0,6.14,1,6.14,4,0,1.59-1.19,2.73-3,3.46,0.38,0.67,3.49,4.7,4.1,5.36h-4.58q-1.78-3.32-3.87-6.45c1.82,0.23,3.42-.64,3.42-2.4s-1.95-2.18-2.89-2.18H128.3c-0.07,1.56-.1,3.44-0.1,4.29,0,1.11,0,4.77.21,6.71h-4.27a62.78,62.78,0,0,0,.26-6.71,55,55,0,0,0-.21-6.07h6.31Zm20.22,0v2.09a40.82,40.82,0,0,0-4.08-.31c-0.07,1.49-.1,3.46-0.1,4.29,0,1.09,0,4.77.24,6.71h-4.29c0.21-2,.24-5.62.24-6.71,0-.81-0.07-2.94-0.07-4.29a36.82,36.82,0,0,0-4.12.31V29.65h12.18Zm7.16,0c-0.1,1.44-.17,4.87-0.17,6.09s0,4.94.17,6.69h-4.22c0.21-2,.24-5.6.24-6.69s-0.07-4.65-.17-6.09h4.15Zm9.12-.33a15.49,15.49,0,0,1,4.22.55v3.25a8.83,8.83,0,0,0-4.6-1.5c-1.45,0-1.54.57-1.54,1,0,2.16,7.29,2.18,7.29,6,0,2.52-2.35,4.1-6.26,4.1a14.17,14.17,0,0,1-4.56-.76V38.9c2.68,1.26,4.1,1.66,5.34,1.66,1,0,1.73-.45,1.73-1.3,0-2.44-7.26-2.21-7.26-6.35C161.33,30.63,163.61,29.32,167,29.32Z" style="fill:#1d1d1b"/></svg>