<svg xmlns="http://www.w3.org/2000/svg" width="458" height="87" viewBox="0 0 458 87">
    <g fill="none" fill-rule="nonzero" stroke="#00BD8C" stroke-linecap="round" stroke-linejoin="round" stroke-width="3">
        <path d="M1.5 39v7.804M7.5 36.822v12.384M13.5 36.822v12.384M20.5 36.822v12.384M26.5 33.5v20M32.5 40v6.075M38.5 33.5v20M44.5 36.5v13M94.5 39.5v8.304M100.5 35.5V51M112.5 35.5V51M106.5 39.5v8.304M131.5 39.5v8.304M149.5 39.5v8.304M155.5 36.5v14M162.5 32.5v21M50.5 33.5v20M87.5 33.5v20M57.5 28.5v29M81.5 24.5v38M118.5 20.5v45M125.5 25.5v35M137.5 32.5v21M143.5 30.5v26M63.5 17.5v52M75.5 17.5v52M69.5 6.5v74M168.5 39v7.804M174.5 36.822v12.384M180.5 36.822v12.384M186.5 36.822v12.384M193.5 33.5v20M199.5 40v6.075M205.5 33.5v20M211.5 36.5v13M261.5 25.477v36.327M268.5 17.373V68M280.5 35.5V51M274.5 25.477v36.327M299.5 39.5v8.304M317.5 39.5v8.304M323.5 36.5v14M329.5 32.5v21M217.5 33.5v20M255.5 33.5v20M223.5 28.5v29M249.5 24.5v38M286.5 20.5v45M292.5 25.5v35M305.5 32.5v21M311.5 30.5v26M231.5 35.5v15M243.5 30.25V55.5M237.5 24.5v37M336.5 39v7.804M342.5 36.822v12.384M348.5 36.822v12.384M354.5 36.822v12.384M360.5 33.5v20M374.5 18.72v49.848M399.5 18.72v49.848M380.5 7.49v72.06M430.5 39.5v8.304M436.5 35.5V51M449.5 35.5V51M443.5 39.5v8.304M456 39.5v8.304M386.5 1.49V85.5M424.5 33.5v20M392.5 6.49v73.059M418.5 24.5v38M412.5 30.25V55.5M367.5 30.25V55.5M406.5 30.25V55.5"/>
    </g>
</svg>
