<?xml version="1.0" standalone="no"?>
<!DOCTYPE svg PUBLIC "-//W3C//DTD SVG 1.1//EN" "http://www.w3.org/Graphics/SVG/1.1/DTD/svg11.dtd" >
<svg xmlns="http://www.w3.org/2000/svg" width="100%" height="100%">
<metadata>
Created by FontXChange 20110222 at Thu Jan 10 22:22:00 2013
 By Sébastien Goffin
Copyright (c) 2010 BNP Paribas
</metadata>
<defs>
<font id="BNPPSansCondensed" horiz-adv-x="500" >
  <font-face 
    font-family="BNPPSansCondensed"
    font-weight="400"
    font-stretch="normal"
    units-per-em="1000"
    panose-1="2 0 0 0 0 0 0 0 0 0"
    ascent="750"
    descent="-250"
    x-height="530"
    cap-height="700"
    bbox="-37 -250 689 884"
    underline-thickness="50"
    underline-position="-50"
    stemh="75"
    stemv="75"
    unicode-range="U+0020-FB02"
  />
<missing-glyph horiz-adv-x="308" 
d="M39 688h230v-688h-230v688zM99 624v-559h110v559h-110z" />
    <glyph glyph-name="fi" unicode="fi" horiz-adv-x="344" 
d="M129 465v-478c0 -134 -97 -150 -164 -131v66c62 -19 88 5 88 61v482h-45v65h45v70c0 80 43 100 97 100h50v-67h-39c-24 0 -32 -7 -32 -35v-68h170v-530h-75v465h-95zM224 700h75v-100h-75v100z" />
    <glyph glyph-name="fl" unicode="fl" horiz-adv-x="344" 
d="M53 530v70c0 80 43 100 97 100h50v-67h-39c-24 0 -32 -7 -32 -35v-68h69v-65h-69v-478c0 -134 -97 -150 -164 -131v66c62 -19 88 5 88 61v482h-45v65h45zM299 0h-75v700l75 15v-715z" />
    <glyph glyph-name=".notdef" horiz-adv-x="308" 
d="M39 688h230v-688h-230v688zM99 624v-559h110v559h-110z" />
    <glyph glyph-name="Eth" unicode="&#xd0;" horiz-adv-x="386" 
d="M35 700h148c81 0 151 -43 151 -171v-358c0 -128 -70 -171 -151 -171h-148v332h-35v61h35v307zM203 393v-61h-87v-257h67c41 0 71 21 71 96v358c0 75 -30 96 -71 96h-67v-232h87z" />
    <glyph glyph-name="eth" unicode="&#xf0;" horiz-adv-x="345" 
d="M180 750c20 -26 39 -53 56 -82l63 16v-46l-42 -10c31 -62 50 -134 50 -226v-273c0 -104 -68 -141 -134 -141c-67 0 -135 37 -135 141v272c0 99 62 141 123 141c23 0 44 -8 67 -22c-6 29 -19 62 -36 93l-95 -23v46l74 17c-22 38 -48 72 -68 97h77zM232 126v278
c0 53 -26 74 -59 74c-34 0 -59 -21 -59 -74v-278c0 -53 25 -74 59 -74c33 0 59 21 59 74z" />
    <glyph glyph-name="Lslash" unicode="&#x141;" horiz-adv-x="269" 
d="M223 451v-60l-95 -47v-271h123v-73h-203v304l-48 -24v60l48 24v336h80v-296z" />
    <glyph glyph-name="lslash" unicode="&#x142;" horiz-adv-x="165" 
d="M120 0h-75v314l-38 -19v61l38 19v325l75 15v-303l41 20v-61l-41 -20v-351z" />
    <glyph glyph-name="Scaron" unicode="&#x160;" horiz-adv-x="361" 
d="M45 492v83c0 91 67 137 136 137c73 0 135 -53 135 -138v-69l-78 -17v82c0 44 -21 67 -57 67c-38 0 -56 -25 -56 -68v-58c0 -42 19 -62 46 -86l93 -86c32 -29 59 -66 59 -118v-95c0 -91 -74 -138 -143 -138c-77 0 -142 51 -142 138v70l79 17v-82c0 -46 23 -68 63 -68
c38 0 63 26 63 69v71c0 42 -22 60 -41 78l-91 84c-37 34 -66 71 -66 127zM142 870l40 -78l39 78h57l-63 -122h-68l-63 122h58z" />
    <glyph glyph-name="scaron" unicode="&#x161;" horiz-adv-x="317" 
d="M146 327l86 -72c34 -29 52 -58 52 -93v-58c0 -75 -60 -116 -123 -116c-73 0 -123 42 -123 117v51l71 12v-60c0 -39 22 -57 53 -57c29 0 48 18 48 56v45c0 19 -14 34 -34 51l-83 69c-32 27 -54 58 -54 97v57c0 75 57 116 120 116c73 0 121 -42 121 -117v-44l-71 -12v53
c0 39 -20 57 -51 57c-29 0 -45 -18 -45 -56v-44c0 -19 11 -33 33 -52zM120 700l40 -78l39 78h57l-63 -122h-68l-63 122h58z" />
    <glyph glyph-name="Yacute" unicode="&#xdd;" horiz-adv-x="353" 
d="M182 364l84 336h77l-126 -432v-268h-80v268l-127 432h86zM201 870h78l-79 -122h-52z" />
    <glyph glyph-name="yacute" unicode="&#xfd;" horiz-adv-x="323" 
d="M-12 -77c19 -6 34 -9 47 -9c48 0 75 40 91 116l-114 500h78l77 -377l74 377h73l-115 -508c-21 -96 -68 -173 -153 -173c-18 0 -37 3 -58 11v63zM189 700h78l-79 -122h-52z" />
    <glyph glyph-name="Thorn" unicode="&#xde;" horiz-adv-x="360" 
d="M327 440v-161c0 -103 -66 -142 -150 -142h-45v-137h-80v700h80v-119h51c82 0 144 -38 144 -141zM132 212h47c43 0 68 20 68 67v161c0 46 -25 69 -67 69h-48v-297z" />
    <glyph glyph-name="thorn" unicode="&#xfe;" horiz-adv-x="341" 
d="M120 30v-176l-75 -13v859l75 15v-216c18 22 49 41 86 41c64 0 106 -42 106 -132v-286c0 -89 -58 -129 -112 -129c-30 0 -60 12 -80 37zM120 442v-353c16 -22 40 -35 61 -35c29 0 55 21 55 71v279c0 53 -22 74 -53 74c-23 0 -46 -15 -63 -36z" />
    <glyph glyph-name="Zcaron" unicode="&#x17d;" horiz-adv-x="356" 
d="M33 700h301v-60l-222 -563h221v-77h-311v59l222 564h-211v77zM146 870l40 -78l39 78h57l-63 -122h-68l-63 122h58z" />
    <glyph glyph-name="zcaron" unicode="&#x17e;" horiz-adv-x="322" 
d="M37 530h255v-61l-183 -397h186v-72h-269v61l183 397h-172v72zM128 700l40 -78l39 78h57l-63 -122h-68l-63 122h58z" />
    <glyph glyph-name="onehalf" unicode="&#xbd;" horiz-adv-x="442" 
d="M32 695l93 13v-374h-54v318l-39 -5v48zM306 700h56l-267 -700h-55zM308 52h104v-52h-159v49c0 71 35 101 65 132c19 22 37 41 37 65v53c0 19 -10 29 -26 29c-15 0 -26 -10 -26 -29v-50l-52 10v42c0 48 36 79 79 79c42 0 80 -25 80 -78v-57c0 -41 -24 -67 -50 -94
s-51 -47 -52 -99z" />
    <glyph glyph-name="onequarter" unicode="&#xbc;" horiz-adv-x="407" 
d="M203 74v44l78 252h73v-245h24v-51h-24v-74h-55v74h-96zM299 317l-55 -192h55v192zM33 695l93 13v-374h-54v318l-39 -5v48zM307 700h56l-267 -700h-55z" />
    <glyph glyph-name="onesuperior" unicode="&#xb9;" horiz-adv-x="165" 
d="M30 695l93 13v-374h-54v318l-39 -5v48z" />
    <glyph glyph-name="threequarters" unicode="&#xbe;" horiz-adv-x="450" 
d="M245 74v44l78 252h73v-245h24v-51h-24v-74h-55v74h-96zM341 317l-55 -192h55v192zM351 700h56l-267 -700h-55zM190 456v-53c0 -55 -38 -79 -78 -79c-43 0 -76 31 -76 79v39l50 11v-48c0 -19 9 -29 25 -29s26 10 26 30v49c0 30 -12 43 -33 43h-29v45h32c17 0 30 10 30 38
v50c0 19 -10 29 -26 29s-25 -10 -25 -29v-50l-53 10v42c0 48 36 79 79 79c40 0 78 -25 78 -78v-48c0 -28 -8 -46 -29 -61c20 -10 29 -26 29 -69z" />
    <glyph glyph-name="threesuperior" unicode="&#xb3;" horiz-adv-x="227" 
d="M190 456v-53c0 -55 -38 -79 -78 -79c-43 0 -76 31 -76 79v39l50 11v-48c0 -19 9 -29 25 -29s26 10 26 30v49c0 30 -12 43 -33 43h-29v45h32c17 0 30 10 30 38v50c0 19 -10 29 -26 29s-25 -10 -25 -29v-50l-53 10v42c0 48 36 79 79 79c40 0 78 -25 78 -78v-48
c0 -28 -8 -46 -29 -61c20 -10 29 -26 29 -69z" />
    <glyph glyph-name="twosuperior" unicode="&#xb2;" horiz-adv-x="239" 
d="M97 384h104v-52h-159v49c0 71 35 101 65 132c19 22 37 41 37 65v53c0 19 -10 29 -26 29c-15 0 -26 -10 -26 -29v-50l-52 10v42c0 48 36 79 79 79c42 0 80 -25 80 -78v-57c0 -41 -24 -67 -50 -94s-51 -47 -52 -99z" />
    <glyph glyph-name="brokenbar" unicode="&#xa6;" horiz-adv-x="160" 
d="M50 750h60v-392h-60v392zM50 182h60v-432h-60v432z" />
    <glyph glyph-name="minus" unicode="&#x2212;" horiz-adv-x="325" 
d="M291 366v-68h-258v68h258z" />
    <glyph glyph-name="multiply" unicode="&#xd7;" horiz-adv-x="326" 
d="M213 331l84 -83l-46 -46l-84 84l-83 -84l-46 46l84 83l-84 84l46 46l84 -83l83 83l46 -46z" />
    <glyph glyph-name="space" unicode=" " horiz-adv-x="145" 
 />
    <glyph glyph-name="exclam" unicode="!" horiz-adv-x="177" 
d="M50 700h77l-6 -551h-66zM52 91h73v-91h-73v91z" />
    <glyph glyph-name="quotedbl" unicode="&#x22;" horiz-adv-x="234" 
d="M33 700h69v-237h-69v237zM132 700h69v-237h-69v237z" />
    <glyph glyph-name="numbersign" unicode="#" horiz-adv-x="384" 
d="M27 446l3 69h77l19 185h65l-19 -185h75l19 185h65l-19 -185h68l-3 -69h-73l-20 -197h71l-3 -69h-76l-18 -180h-65l18 180h-75l-18 -180h-65l18 180h-69l3 69h74l21 197h-73zM164 446l-20 -197h75l21 197h-76z" />
    <glyph glyph-name="dollar" unicode="$" horiz-adv-x="345" 
d="M203 750v-75c59 -11 106 -60 106 -133v-57l-78 -16v68c0 44 -20 67 -57 67s-56 -25 -56 -68v-34c0 -35 18 -54 44 -79l92 -86c32 -29 61 -64 61 -116v-72c0 -78 -54 -123 -112 -134v-103h-53v101c-66 9 -118 58 -118 137v50l78 17v-63c0 -46 23 -68 64 -68
c37 0 63 26 63 69v48c0 39 -22 60 -40 78l-91 84c-37 34 -66 71 -66 127v50c0 81 50 125 110 135v73h53z" />
    <glyph glyph-name="percent" unicode="%" horiz-adv-x="512" 
d="M362 700h56l-267 -700h-55zM149 417v203c0 35 -12 43 -28 43c-18 0 -29 -8 -29 -43v-203c0 -37 11 -44 29 -44c16 0 28 7 28 44zM38 420v196c0 74 34 96 83 96c47 0 82 -22 82 -96v-196c0 -73 -35 -96 -82 -96c-49 0 -83 23 -83 96zM419 81v203c0 35 -12 43 -28 43
c-18 0 -29 -8 -29 -43v-203c0 -37 11 -44 29 -44c16 0 28 7 28 44zM308 84v196c0 74 34 96 83 96c47 0 82 -22 82 -96v-196c0 -73 -35 -96 -82 -96c-49 0 -83 23 -83 96z" />
    <glyph glyph-name="ampersand" unicode="&#x26;" horiz-adv-x="421" 
d="M185 712c80 0 128 -50 128 -132v-52c0 -69 -55 -116 -111 -161l108 -187c2 17 4 35 4 55c0 38 -6 77 -16 110h67c10 -28 14 -62 14 -95c0 -51 -9 -100 -27 -142l64 -108h-76l-27 47c-29 -36 -70 -59 -122 -59c-104 0 -163 56 -163 150v93c0 71 44 113 87 146
c-31 50 -58 96 -58 148v55c0 82 49 132 128 132zM192 52c40 0 68 20 86 51l-129 220c-28 -24 -50 -50 -50 -92v-94c0 -57 37 -85 93 -85zM184 649c-31 0 -53 -17 -53 -70v-52c0 -39 20 -77 39 -109c42 35 69 63 69 109v52c0 52 -23 70 -55 70z" />
    <glyph glyph-name="quotesingle" unicode="'" horiz-adv-x="135" 
d="M33 700h69v-237h-69v237z" />
    <glyph glyph-name="parenleft" unicode="(" horiz-adv-x="212" 
d="M28 295c0 240 65 365 115 455h69c-52 -89 -120 -224 -120 -455s68 -366 120 -455h-69c-50 90 -115 214 -115 455z" />
    <glyph glyph-name="parenright" unicode=")" horiz-adv-x="212" 
d="M184 295c0 -241 -65 -365 -115 -455h-69c52 89 120 224 120 455s-68 366 -120 455h69c50 -90 115 -215 115 -455z" />
    <glyph glyph-name="asterisk" unicode="*" horiz-adv-x="238" 
d="M155 605l60 -22l-28 -50l-50 41l11 -63h-57l10 63l-50 -41l-28 50l60 22l-60 23l28 49l50 -41l-10 64h57l-11 -64l50 41l28 -49z" />
    <glyph glyph-name="plus" unicode="+" horiz-adv-x="331" 
d="M131 508h68v-142h106v-68h-106v-140h-68v140h-104v68h104v142z" />
    <glyph glyph-name="comma" unicode="," horiz-adv-x="124" 
d="M31 91h75l-59 -223h-62z" />
    <glyph glyph-name="hyphen" unicode="-" horiz-adv-x="211" 
d="M187 367v-71h-164v71h164z" />
    <glyph glyph-name="period" unicode="." horiz-adv-x="140" 
d="M33 91h74v-91h-74v91z" />
    <glyph glyph-name="slash" unicode="/" horiz-adv-x="217" 
d="M173 710h54l-183 -789h-54z" />
    <glyph glyph-name="zero" unicode="0" horiz-adv-x="350" 
d="M238 159v382c0 78 -22 96 -63 96c-40 0 -63 -18 -63 -96v-382c0 -78 23 -97 63 -97c41 0 63 19 63 97zM37 159v382c0 131 56 171 138 171c81 0 139 -40 139 -171v-382c0 -131 -58 -171 -139 -171c-82 0 -138 40 -138 171z" />
    <glyph glyph-name="one" unicode="1" horiz-adv-x="214" 
d="M18 678l146 22v-700h-76v620l-70 -11v69z" />
    <glyph glyph-name="two" unicode="2" horiz-adv-x="338" 
d="M113 73h190v-73h-268v72c0 236 189 276 189 398v99c0 41 -19 68 -57 68c-37 0 -57 -23 -57 -67v-82l-75 17v43c0 14 1 29 2 42c7 75 63 122 130 122c65 0 129 -40 135 -122c2 -12 2 -25 2 -39v-72c0 -15 -1 -29 -4 -42c-21 -125 -187 -176 -187 -342v-22z" />
    <glyph glyph-name="three" unicode="3" horiz-adv-x="334" 
d="M297 234v-109c0 -94 -65 -137 -135 -137c-72 0 -129 53 -129 138v69l73 17v-82c0 -44 20 -67 57 -67s56 25 56 68v97c0 68 -22 95 -69 95h-45v69h49c40 0 65 21 65 84v93c0 43 -19 68 -56 68s-57 -23 -57 -67v-82l-73 17v69c0 85 57 138 129 138c70 0 135 -46 135 -137
v-95c0 -54 -22 -90 -68 -118v-1c47 -19 68 -42 68 -127z" />
    <glyph glyph-name="four" unicode="4" horiz-adv-x="327" 
d="M10 155v67l164 478h98v-472h43v-73h-43v-155h-76v155h-186zM196 593l-123 -365h123v365z" />
    <glyph glyph-name="five" unicode="5" horiz-adv-x="331" 
d="M116 627v-189c15 4 31 6 46 6c72 0 135 -46 135 -153v-137c0 -15 0 -31 -2 -45c-6 -84 -68 -121 -133 -121c-68 0 -121 47 -127 122c-1 13 -2 27 -2 42v43l73 17v-82c0 -44 20 -67 57 -67s56 25 56 68v150c0 73 -42 97 -87 93c-18 -1 -38 -7 -56 -16l-30 34v308h244v-73
h-174z" />
    <glyph glyph-name="six" unicode="6" horiz-adv-x="346" 
d="M312 284v-125c0 -131 -58 -171 -139 -171c-82 0 -140 42 -140 171v382c0 131 58 171 140 171c76 0 125 -46 130 -119c1 -15 2 -30 2 -45v-43l-77 -17v82c0 44 -19 67 -56 67c-40 0 -62 -18 -62 -96v-164c24 26 69 40 110 33c48 -7 92 -44 92 -126zM173 62
c42 0 63 21 63 104v111c0 50 -33 71 -69 69c-21 -2 -43 -12 -57 -27v-153c0 -83 21 -104 63 -104z" />
    <glyph glyph-name="seven" unicode="7" horiz-adv-x="300" 
d="M12 700h281v-68l-180 -632h-80l184 627h-205v73z" />
    <glyph glyph-name="eight" unicode="8" horiz-adv-x="349" 
d="M175 393c40 0 64 25 64 82v97c0 43 -22 68 -64 68c-43 0 -65 -25 -65 -68v-97c0 -57 25 -82 65 -82zM175 60c43 0 64 25 64 68v101c0 66 -18 92 -64 92s-65 -26 -65 -92v-101c0 -43 21 -68 65 -68zM175 -12c-75 0 -142 43 -142 137v109c0 70 18 104 58 124
c-38 27 -58 60 -58 119v98c0 91 65 137 142 137s141 -46 141 -137v-98c0 -59 -20 -92 -58 -119c40 -20 58 -54 58 -124v-109c0 -94 -67 -137 -141 -137z" />
    <glyph glyph-name="nine" unicode="9" horiz-adv-x="346" 
d="M34 416v125c0 131 58 171 139 171c82 0 140 -42 140 -171v-382c0 -131 -58 -171 -140 -171c-76 0 -125 46 -130 119c-1 15 -2 30 -2 45v43l77 17v-82c0 -44 19 -67 56 -67c40 0 62 18 62 96v164c-24 -26 -69 -40 -110 -33c-48 7 -92 44 -92 126zM173 638
c-42 0 -63 -21 -63 -104v-111c0 -50 33 -71 69 -69c21 2 43 12 57 27v153c0 83 -21 104 -63 104z" />
    <glyph glyph-name="colon" unicode=":" horiz-adv-x="147" 
d="M36 91h74v-91h-74v91zM36 530h74v-91h-74v91z" />
    <glyph glyph-name="semicolon" unicode=";" horiz-adv-x="149" 
d="M38 530h74v-91h-74v91zM38 91h75l-59 -223h-62z" />
    <glyph glyph-name="less" unicode="&#x3c;" horiz-adv-x="305" 
d="M271 536v-80l-183 -125l183 -121v-81l-241 163v79z" />
    <glyph glyph-name="equal" unicode="=" horiz-adv-x="325" 
d="M291 445v-68h-258v68h258zM291 287v-68h-258v68h258z" />
    <glyph glyph-name="greater" unicode="&#x3e;" horiz-adv-x="305" 
d="M34 456v80l241 -165v-79l-241 -163v81l183 121z" />
    <glyph glyph-name="question" unicode="?" horiz-adv-x="301" 
d="M279 575v-87c0 -98 -109 -155 -109 -250v-90h-73v89c0 125 102 167 102 251v81c0 43 -19 68 -56 68s-51 -23 -51 -67v-82l-77 17v69c0 85 56 138 128 138c70 0 136 -46 136 -137zM97 91h73v-91h-73v91z" />
    <glyph glyph-name="at" unicode="@" horiz-adv-x="533" 
d="M300 129v239c-32 23 -71 13 -71 -44v-192c0 -35 18 -43 38 -33c12 4 23 15 33 30zM444 -42v-60c-49 -14 -111 -24 -170 -24c-125 0 -227 43 -227 189v312c0 159 100 213 218 213c119 0 222 -58 222 -198v-244c0 -74 -45 -111 -98 -111c-28 0 -56 10 -72 42
c-24 -35 -58 -49 -87 -45c-35 5 -63 35 -63 85v226c0 70 47 95 96 95c38 0 75 -13 101 -35v-268c0 -29 7 -43 30 -43c21 0 31 19 31 54v239c0 110 -72 147 -162 147c-86 0 -155 -32 -155 -157v-306c0 -107 73 -139 172 -139c58 0 120 13 164 28z" />
    <glyph glyph-name="A" unicode="A" horiz-adv-x="369" 
d="M278 0l-27 168h-139l-27 -168h-77l122 700h107l124 -700h-83zM179 603l-58 -368h120l-59 368h-3z" />
    <glyph glyph-name="B" unicode="B" horiz-adv-x="384" 
d="M132 321v-249h59c35 0 65 17 65 58v124c0 45 -31 67 -68 67h-56zM132 628v-237h58c35 0 60 25 60 69v103c0 45 -22 65 -63 65h-55zM52 700h140c81 0 137 -31 137 -133v-102c0 -53 -27 -88 -67 -106v-1c41 -15 77 -39 77 -109v-118c0 -89 -61 -131 -148 -131h-139v700z
" />
    <glyph glyph-name="C" unicode="C" horiz-adv-x="365" 
d="M336 228v-69c0 -128 -70 -171 -150 -171c-83 0 -151 43 -151 171v382c0 128 68 171 151 171c80 0 150 -43 150 -171v-35l-80 -17v52c0 76 -29 96 -70 96s-71 -20 -71 -96v-383c0 -75 30 -96 71 -96s70 21 70 96v53z" />
    <glyph glyph-name="D" unicode="D" horiz-adv-x="386" 
d="M52 700h148c81 0 151 -43 151 -171v-358c0 -128 -70 -171 -151 -171h-148v700zM200 625h-68v-550h68c41 0 71 21 71 96v358c0 75 -30 96 -71 96z" />
    <glyph glyph-name="E" unicode="E" horiz-adv-x="300" 
d="M52 700h212v-73h-132v-235h115v-74h-115v-245h141v-73h-221v700z" />
    <glyph glyph-name="F" unicode="F" horiz-adv-x="286" 
d="M52 700h212v-73h-132v-239h109v-73h-109v-315h-80v700z" />
    <glyph glyph-name="G" unicode="G" horiz-adv-x="392" 
d="M35 159v382c0 128 68 171 151 171c80 0 154 -43 154 -171v-35l-80 -17v52c0 75 -32 96 -73 96c-40 0 -72 -21 -72 -96v-382c0 -76 33 -96 73 -96c41 0 74 24 74 109v135h-84v73h162v-380h-74v37c-20 -29 -51 -47 -95 -47c-79 0 -136 51 -136 169z" />
    <glyph glyph-name="H" unicode="H" horiz-adv-x="412" 
d="M52 700h80v-314h148v314h80v-700h-80v312h-148v-312h-80v700z" />
    <glyph glyph-name="I" unicode="I" horiz-adv-x="183" 
d="M52 700h80v-700h-80v700z" />
    <glyph glyph-name="J" unicode="J" horiz-adv-x="208" 
d="M77 700h80v-583c0 -85 -37 -127 -95 -127c-21 0 -43 6 -61 15l3 76c13 -5 28 -10 39 -11c38 -1 34 53 34 125v505z" />
    <glyph glyph-name="K" unicode="K" horiz-adv-x="360" 
d="M351 700l-130 -296l132 -404h-85l-100 313l-36 -85v-228h-80v700h80v-329l136 329h83z" />
    <glyph glyph-name="L" unicode="L" horiz-adv-x="269" 
d="M48 700h80v-627h123v-73h-203v700z" />
    <glyph glyph-name="M" unicode="M" horiz-adv-x="536" 
d="M71 700h103l96 -537l91 537h104l29 -700h-80l-17 555l-87 -499h-83l-90 498l-15 -554h-80z" />
    <glyph glyph-name="N" unicode="N" horiz-adv-x="422" 
d="M271 0l-144 543v-543h-75v700h96l143 -547v547h76v-700h-96z" />
    <glyph glyph-name="O" unicode="O" horiz-adv-x="371" 
d="M256 159v382c0 76 -29 96 -70 96s-71 -20 -71 -96v-382c0 -76 30 -96 71 -96s70 20 70 96zM35 159v382c0 128 68 171 151 171c80 0 150 -43 150 -171v-382c0 -128 -70 -171 -150 -171c-83 0 -151 43 -151 171z" />
    <glyph glyph-name="P" unicode="P" horiz-adv-x="360" 
d="M132 331h47c43 0 68 20 68 67v161c0 46 -25 69 -67 69h-48v-297zM327 559v-161c0 -103 -66 -142 -150 -142h-45v-256h-80v700h131c82 0 144 -38 144 -141z" />
    <glyph glyph-name="Q" unicode="Q" horiz-adv-x="371" 
d="M35 159v382c0 128 68 171 151 171c80 0 150 -43 150 -171v-382c0 -93 -37 -141 -88 -160l59 -119h-79l-44 108c-82 1 -149 44 -149 171zM256 159v382c0 75 -29 96 -70 96s-71 -21 -71 -96v-382c0 -75 30 -97 71 -97s70 22 70 97z" />
    <glyph glyph-name="R" unicode="R" horiz-adv-x="363" 
d="M132 628v-255h48c34 0 67 19 67 69v121c0 45 -26 65 -67 65h-48zM325 0h-82v222c0 49 -25 78 -65 78h-46v-300h-80v700h133c81 0 141 -31 141 -133v-122c0 -49 -24 -90 -69 -107v-1c37 -15 68 -41 68 -117v-220z" />
    <glyph glyph-name="S" unicode="S" horiz-adv-x="361" 
d="M45 492v83c0 91 67 137 136 137c73 0 135 -53 135 -138v-69l-78 -17v82c0 44 -21 67 -57 67c-38 0 -56 -25 -56 -68v-58c0 -42 19 -62 46 -86l93 -86c32 -29 59 -66 59 -118v-95c0 -91 -74 -138 -143 -138c-77 0 -142 51 -142 138v70l79 17v-82c0 -46 23 -68 63 -68
c38 0 63 26 63 69v71c0 42 -22 60 -41 78l-91 84c-37 34 -66 71 -66 127z" />
    <glyph glyph-name="T" unicode="T" horiz-adv-x="300" 
d="M10 700h280v-73h-100v-627h-80v627h-100v73z" />
    <glyph glyph-name="U" unicode="U" horiz-adv-x="390" 
d="M341 700v-541c0 -128 -66 -171 -147 -171c-82 0 -146 43 -146 171v541h80v-541c0 -75 26 -97 66 -97s66 22 66 97v541h81z" />
    <glyph glyph-name="V" unicode="V" horiz-adv-x="367" 
d="M8 700h84l94 -600h3l93 600h76l-122 -700h-103z" />
    <glyph glyph-name="W" unicode="W" horiz-adv-x="560" 
d="M235 700h95l71 -566l65 566h84l-95 -700h-101l-72 591l-74 -591h-101l-97 700h83l70 -567z" />
    <glyph glyph-name="X" unicode="X" horiz-adv-x="368" 
d="M273 0l-92 266l-90 -266h-81l129 356l-122 344h85l87 -250l82 250h81l-123 -343l129 -357h-85z" />
    <glyph glyph-name="Y" unicode="Y" horiz-adv-x="353" 
d="M182 364l84 336h77l-126 -432v-268h-80v268l-127 432h86z" />
    <glyph glyph-name="Z" unicode="Z" horiz-adv-x="356" 
d="M33 700h301v-60l-222 -563h221v-77h-311v59l222 564h-211v77z" />
    <glyph glyph-name="bracketleft" unicode="[" horiz-adv-x="192" 
d="M48 750h131v-57h-68v-796h68v-57h-131v910z" />
    <glyph glyph-name="backslash" unicode="\" horiz-adv-x="227" 
d="M0 710h54l183 -789h-54z" />
    <glyph glyph-name="bracketright" unicode="]" horiz-adv-x="192" 
d="M13 750h131v-910h-131v57h68v796h-68v57z" />
    <glyph glyph-name="asciicircum" unicode="^" horiz-adv-x="325" 
d="M304 351h-67l-75 260l-75 -260h-67l108 349h68z" />
    <glyph glyph-name="underscore" unicode="_" horiz-adv-x="313" 
d="M313 -8v-62h-313v62h313z" />
    <glyph glyph-name="grave" unicode="`" 
d="M184 700h79l52 -122h-51z" />
    <glyph glyph-name="a" unicode="a" horiz-adv-x="330" 
d="M203 90v153h-48c-36 0 -57 -20 -57 -57v-82c0 -37 17 -53 43 -53c21 0 46 17 62 39zM106 413v-47l-72 10v22c0 81 43 144 121 144c62 0 112 -26 119 -103c3 -21 4 -43 4 -68v-274c0 -18 4 -29 12 -33c4 -6 12 -7 31 1v-54c-17 -13 -35 -19 -53 -19c-26 0 -50 13 -57 42
c-19 -28 -51 -46 -86 -46c-45 0 -100 26 -100 102v96c0 77 58 113 127 113h51v115c0 52 -23 64 -49 64c-28 0 -48 -17 -48 -65z" />
    <glyph glyph-name="b" unicode="b" horiz-adv-x="352" 
d="M118 30v-30h-73v700l75 15v-216c18 22 55 43 92 43c64 0 101 -44 101 -134v-283c0 -87 -56 -132 -111 -132c-29 0 -64 13 -84 37zM120 442v-353c16 -22 39 -35 61 -35c29 0 57 21 57 71v279c0 53 -24 74 -56 74c-23 0 -45 -15 -62 -36z" />
    <glyph glyph-name="c" unicode="c" horiz-adv-x="339" 
d="M114 404v-278c0 -53 25 -74 59 -74c33 0 59 21 59 74v45l75 11v-53c0 -104 -68 -141 -134 -141c-67 0 -135 37 -135 141v272c0 104 68 141 135 141c66 0 134 -37 134 -141v-34l-75 -10v47c0 53 -26 74 -59 74c-34 0 -59 -21 -59 -74z" />
    <glyph glyph-name="d" unicode="d" horiz-adv-x="348" 
d="M230 0v31c-22 -24 -55 -39 -87 -39c-54 0 -105 42 -105 130v286c0 72 36 114 79 126c34 12 75 4 111 -24v190l75 15v-715h-73zM228 89v366c-22 15 -49 26 -72 22c-24 -3 -42 -23 -42 -73v-267c0 -63 20 -83 54 -83c22 0 44 13 60 35z" />
    <glyph glyph-name="e" unicode="e" horiz-adv-x="345" 
d="M307 278h-193v-152c0 -53 25 -74 59 -74c33 0 59 21 59 74v45l75 11v-53c0 -104 -68 -141 -134 -141c-67 0 -135 37 -135 141v272c0 104 68 141 135 141c66 0 134 -37 134 -141v-123zM114 404v-72h118v72c0 53 -26 74 -59 74c-34 0 -59 -21 -59 -74z" />
    <glyph glyph-name="f" unicode="f" horiz-adv-x="182" 
d="M129 465v-478c0 -134 -97 -150 -164 -131v66c62 -19 88 5 88 61v482h-45v65h45v65c0 134 102 151 169 131v-67c-62 18 -93 -6 -93 -61v-68h71l-4 -65h-67z" />
    <glyph glyph-name="g" unicode="g" horiz-adv-x="343" 
d="M305 530v-499c0 -19 -1 -39 -2 -58c-8 -95 -93 -130 -172 -123c-23 2 -45 7 -66 15v65c26 -9 50 -14 71 -15c58 -3 94 23 94 72v46c-20 -24 -54 -38 -84 -38c-54 0 -108 43 -108 129v284c0 90 45 134 109 134c37 0 67 -22 83 -43v31h75zM230 91v349c-17 21 -40 38 -67 38
c-35 0 -49 -22 -49 -84v-256c0 -60 23 -82 55 -82c21 0 45 13 61 35z" />
    <glyph glyph-name="h" unicode="h" horiz-adv-x="353" 
d="M120 439v-439h-75v700l75 15v-216c17 21 50 43 91 43c53 0 101 -38 101 -125v-417h-76v409c0 44 -22 67 -51 67c-27 0 -49 -18 -65 -37z" />
    <glyph glyph-name="i" unicode="i" horiz-adv-x="165" 
d="M45 530h75v-530h-75v530zM45 700h75v-100h-75v100z" />
    <glyph glyph-name="j" unicode="j" horiz-adv-x="165" 
d="M120 530v-543c0 -135 -90 -150 -157 -131v66c63 -19 82 5 82 61v547h75zM45 700h75v-100h-75v100z" />
    <glyph glyph-name="k" unicode="k" horiz-adv-x="314" 
d="M307 530l-106 -210l109 -320h-80l-84 242l-26 -50v-192h-75v700l75 15v-396l106 211h81z" />
    <glyph glyph-name="l" unicode="l" horiz-adv-x="165" 
d="M120 0h-75v700l75 15v-715z" />
    <glyph glyph-name="m" unicode="m" horiz-adv-x="528" 
d="M45 530h73v-35c17 24 47 47 88 47c33 0 68 -18 85 -52c25 35 60 52 95 52c53 0 100 -40 100 -125v-417h-75v407c0 47 -24 69 -51 69c-20 0 -41 -13 -57 -36v-440h-75v407c0 48 -19 69 -48 69c-27 0 -45 -18 -60 -36v-440h-75v530z" />
    <glyph glyph-name="n" unicode="n" horiz-adv-x="355" 
d="M45 530h73v-35c17 24 54 47 95 47c53 0 100 -38 100 -125v-417h-75v409c0 45 -22 67 -52 67c-27 0 -50 -18 -66 -37v-439h-75v530z" />
    <glyph glyph-name="o" unicode="o" horiz-adv-x="345" 
d="M232 126v278c0 53 -26 74 -59 74c-34 0 -59 -21 -59 -74v-278c0 -53 25 -74 59 -74c33 0 59 21 59 74zM173 -12c-67 0 -135 37 -135 141v272c0 104 68 141 135 141c66 0 134 -37 134 -141v-272c0 -104 -68 -141 -134 -141z" />
    <glyph glyph-name="p" unicode="p" horiz-adv-x="350" 
d="M120 30v-176l-75 -13v689h75v-31c18 22 49 41 86 41c64 0 106 -42 106 -132v-286c0 -89 -58 -129 -112 -129c-30 0 -60 12 -80 37zM120 442v-353c16 -22 40 -35 61 -35c29 0 55 21 55 71v279c0 53 -22 74 -53 74c-23 0 -46 -15 -63 -36z" />
    <glyph glyph-name="q" unicode="q" horiz-adv-x="350" 
d="M230 -158v189c-20 -24 -55 -38 -85 -38c-54 0 -107 43 -107 129v288c0 91 44 131 108 131c37 0 68 -21 84 -42v31h75v-673zM230 89v351c-17 21 -40 38 -67 38c-31 0 -49 -21 -49 -74v-279c0 -50 26 -71 55 -71c21 0 45 13 61 35z" />
    <glyph glyph-name="r" unicode="r" horiz-adv-x="222" 
d="M214 541v-93c-39 -2 -73 -15 -94 -44v-404h-76v530h74v-46c24 30 59 54 96 57z" />
    <glyph glyph-name="s" unicode="s" horiz-adv-x="317" 
d="M146 327l86 -72c34 -29 52 -58 52 -93v-58c0 -75 -60 -116 -123 -116c-73 0 -123 42 -123 117v51l71 12v-60c0 -39 22 -57 53 -57c29 0 48 18 48 56v45c0 19 -14 34 -34 51l-83 69c-32 27 -54 58 -54 97v57c0 75 57 116 120 116c73 0 121 -42 121 -117v-44l-71 -12v53
c0 39 -20 57 -51 57c-29 0 -45 -18 -45 -56v-44c0 -19 11 -33 33 -52z" />
    <glyph glyph-name="t" unicode="t" horiz-adv-x="219" 
d="M125 465v-350c0 -36 17 -51 45 -51c12 0 26 4 41 10v-69c-12 -4 -27 -8 -41 -9c-56 -7 -120 13 -120 117v352h-40v65h42v108l73 18v-126h78v-65h-78z" />
    <glyph glyph-name="u" unicode="u" horiz-adv-x="348" 
d="M231 530h75v-401c0 -104 -65 -141 -132 -141s-132 37 -132 141v401h75v-404c0 -53 24 -74 57 -74s57 21 57 74v404z" />
    <glyph glyph-name="v" unicode="v" horiz-adv-x="329" 
d="M8 530h79l80 -433h2l78 433h73l-109 -530h-90z" />
    <glyph glyph-name="w" unicode="w" horiz-adv-x="492" 
d="M207 530h81l59 -400h2l55 400h75l-89 -530h-84l-58 410h-2l-59 -410h-83l-91 530h77l59 -400h2z" />
    <glyph glyph-name="x" unicode="x" horiz-adv-x="326" 
d="M93 530l74 -195l67 195h74l-101 -264l109 -266h-80l-78 195l-74 -195h-74l107 272l-106 258h82z" />
    <glyph glyph-name="y" unicode="y" horiz-adv-x="323" 
d="M-12 -77c19 -6 34 -9 47 -9c48 0 75 40 91 116l-114 500h78l77 -377l74 377h73l-115 -508c-21 -96 -68 -173 -153 -173c-18 0 -37 3 -58 11v63z" />
    <glyph glyph-name="z" unicode="z" horiz-adv-x="316" 
d="M34 530h255v-61l-183 -397h186v-72h-269v61l183 397h-172v72z" />
    <glyph glyph-name="braceleft" unicode="{" horiz-adv-x="199" 
d="M64 295c33 -16 56 -59 56 -109v-237c0 -25 5 -38 13 -46c7 -15 21 -19 50 -14v-59c-13 -3 -26 -3 -38 -3c-55 3 -86 34 -86 146v208c0 51 -23 87 -55 87v54c32 0 55 36 55 87v205c0 112 31 143 86 145c12 1 25 0 38 -2v-55c-29 4 -43 1 -50 -15c-8 -8 -13 -21 -13 -45
v-238c0 -50 -23 -93 -56 -109z" />
    <glyph glyph-name="bar" unicode="|" horiz-adv-x="160" 
d="M50 750h60v-1000h-60v1000z" />
    <glyph glyph-name="braceright" unicode="}" horiz-adv-x="199" 
d="M135 295c-33 16 -56 59 -56 109v238c0 24 -5 37 -13 45c-7 16 -21 19 -50 15v55c13 2 26 3 38 2c55 -2 86 -33 86 -145v-205c0 -51 23 -87 55 -87v-54c-32 0 -55 -36 -55 -87v-208c0 -112 -31 -143 -86 -146c-12 0 -25 0 -38 3v59c29 -5 43 -1 50 14c8 8 13 21 13 46v237
c0 50 23 93 56 109z" />
    <glyph glyph-name="asciitilde" unicode="~" horiz-adv-x="324" 
d="M80 275l-59 16c6 54 33 97 80 97c37 0 82 -37 113 -37c13 0 19 13 19 31c4 3 7 9 8 23l61 -12c-1 -7 -1 -13 -2 -20c-5 -53 -32 -88 -80 -88c-41 0 -77 35 -110 35c-22 0 -30 -20 -30 -45z" />
    <glyph glyph-name="Adieresis" unicode="&#xc4;" horiz-adv-x="364" 
d="M275 0l-27 168h-139l-27 -168h-77l122 700h107l124 -700h-83zM176 603l-58 -368h120l-59 368h-3zM98 861h63v-104h-63v104zM198 861h63v-104h-63v104z" />
    <glyph glyph-name="Aring" unicode="&#xc5;" horiz-adv-x="364" 
d="M275 0l-27 168h-139l-27 -168h-77l122 700h107l124 -700h-83zM176 603l-58 -368h120l-59 368h-3zM112 816c0 38 29 68 70 68c42 0 71 -30 71 -68c0 -39 -29 -69 -71 -69c-41 0 -70 30 -70 69zM145 816c0 -22 15 -41 37 -41c23 0 38 19 38 41c0 21 -15 40 -38 40
c-22 0 -37 -19 -37 -40z" />
    <glyph glyph-name="Ccedilla" unicode="&#xc7;" horiz-adv-x="365" 
d="M336 228v-69c0 -115 -57 -161 -126 -169c5 -13 8 -25 8 -38c0 -45 -30 -76 -80 -76c-15 0 -30 5 -42 13v45c14 -7 28 -10 38 -10c23 0 30 17 30 37c0 10 -2 20 -4 29c-71 8 -125 54 -125 169v382c0 128 68 171 151 171c80 0 150 -43 150 -171v-35l-80 -17v52
c0 76 -29 96 -70 96s-71 -20 -71 -96v-383c0 -75 30 -96 71 -96s70 21 70 96v53z" />
    <glyph glyph-name="Eacute" unicode="&#xc9;" horiz-adv-x="300" 
d="M52 700h212v-73h-132v-235h115v-74h-115v-245h141v-73h-221v700zM169 870h78l-79 -122h-52z" />
    <glyph glyph-name="Ntilde" unicode="&#xd1;" horiz-adv-x="422" 
d="M271 0l-144 543v-543h-75v700h96l143 -547v547h76v-700h-96zM152 749l-49 11c5 47 26 81 63 81c29 0 62 -27 83 -27c14 0 20 12 20 36l50 -8c-5 -50 -27 -83 -63 -83c-31 0 -59 27 -81 27c-19 0 -22 -22 -23 -37z" />
    <glyph glyph-name="Odieresis" unicode="&#xd6;" horiz-adv-x="371" 
d="M256 159v382c0 76 -29 96 -70 96s-71 -20 -71 -96v-382c0 -76 30 -96 71 -96s70 20 70 96zM35 159v382c0 128 68 171 151 171c80 0 150 -43 150 -171v-382c0 -128 -70 -171 -150 -171c-83 0 -151 43 -151 171zM105 861h63v-104h-63v104zM205 861h63v-104h-63v104z" />
    <glyph glyph-name="Udieresis" unicode="&#xdc;" horiz-adv-x="390" 
d="M341 700v-541c0 -128 -66 -171 -147 -171c-82 0 -146 43 -146 171v541h80v-541c0 -75 26 -97 66 -97s66 22 66 97v541h81zM114 861h63v-104h-63v104zM214 861h63v-104h-63v104z" />
    <glyph glyph-name="aacute" unicode="&#xe1;" horiz-adv-x="330" 
d="M203 90v153h-48c-36 0 -57 -20 -57 -57v-82c0 -37 17 -53 43 -53c21 0 46 17 62 39zM106 413v-47l-72 10v22c0 81 43 144 121 144c62 0 112 -26 119 -103c3 -21 4 -43 4 -68v-274c0 -18 4 -29 12 -33c4 -6 12 -7 31 1v-54c-17 -13 -35 -19 -53 -19c-26 0 -50 13 -57 42
c-19 -28 -51 -46 -86 -46c-45 0 -100 26 -100 102v96c0 77 58 113 127 113h51v115c0 52 -23 64 -49 64c-28 0 -48 -17 -48 -65zM181 700h78l-79 -122h-52z" />
    <glyph glyph-name="agrave" unicode="&#xe0;" horiz-adv-x="330" 
d="M203 90v153h-48c-36 0 -57 -20 -57 -57v-82c0 -37 17 -53 43 -53c21 0 46 17 62 39zM106 413v-47l-72 10v22c0 81 43 144 121 144c62 0 112 -26 119 -103c3 -21 4 -43 4 -68v-274c0 -18 4 -29 12 -33c4 -6 12 -7 31 1v-54c-17 -13 -35 -19 -53 -19c-26 0 -50 13 -57 42
c-19 -28 -51 -46 -86 -46c-45 0 -100 26 -100 102v96c0 77 58 113 127 113h51v115c0 52 -23 64 -49 64c-28 0 -48 -17 -48 -65zM56 700h79l52 -122h-51z" />
    <glyph glyph-name="acircumflex" unicode="&#xe2;" horiz-adv-x="330" 
d="M203 90v153h-48c-36 0 -57 -20 -57 -57v-82c0 -37 17 -53 43 -53c21 0 46 17 62 39zM106 413v-47l-72 10v22c0 81 43 144 121 144c62 0 112 -26 119 -103c3 -21 4 -43 4 -68v-274c0 -18 4 -29 12 -33c4 -6 12 -7 31 1v-54c-17 -13 -35 -19 -53 -19c-26 0 -50 13 -57 42
c-19 -28 -51 -46 -86 -46c-45 0 -100 26 -100 102v96c0 77 58 113 127 113h51v115c0 52 -23 64 -49 64c-28 0 -48 -17 -48 -65zM160 656l-39 -78h-57l63 122h68l63 -122h-58z" />
    <glyph glyph-name="adieresis" unicode="&#xe4;" horiz-adv-x="330" 
d="M203 90v153h-48c-36 0 -57 -20 -57 -57v-82c0 -37 17 -53 43 -53c21 0 46 17 62 39zM106 413v-47l-72 10v22c0 81 43 144 121 144c62 0 112 -26 119 -103c3 -21 4 -43 4 -68v-274c0 -18 4 -29 12 -33c4 -6 12 -7 31 1v-54c-17 -13 -35 -19 -53 -19c-26 0 -50 13 -57 42
c-19 -28 -51 -46 -86 -46c-45 0 -100 26 -100 102v96c0 77 58 113 127 113h51v115c0 52 -23 64 -49 64c-28 0 -48 -17 -48 -65zM80 691h63v-104h-63v104zM180 691h63v-104h-63v104z" />
    <glyph glyph-name="atilde" unicode="&#xe3;" horiz-adv-x="330" 
d="M203 90v153h-48c-36 0 -57 -20 -57 -57v-82c0 -37 17 -53 43 -53c21 0 46 17 62 39zM106 413v-47l-72 10v22c0 81 43 144 121 144c62 0 112 -26 119 -103c3 -21 4 -43 4 -68v-274c0 -18 4 -29 12 -33c4 -6 12 -7 31 1v-54c-17 -13 -35 -19 -53 -19c-26 0 -50 13 -57 42
c-19 -28 -51 -46 -86 -46c-45 0 -100 26 -100 102v96c0 77 58 113 127 113h51v115c0 52 -23 64 -49 64c-28 0 -48 -17 -48 -65zM102 579l-49 11c5 47 26 81 63 81c29 0 62 -27 83 -27c14 0 20 12 20 36l50 -8c-5 -50 -27 -83 -63 -83c-31 0 -59 27 -81 27
c-19 0 -22 -22 -23 -37z" />
    <glyph glyph-name="aring" unicode="&#xe5;" horiz-adv-x="330" 
d="M203 90v153h-48c-36 0 -57 -20 -57 -57v-82c0 -37 17 -53 43 -53c21 0 46 17 62 39zM106 413v-47l-72 10v22c0 81 43 144 121 144c62 0 112 -26 119 -103c3 -21 4 -43 4 -68v-274c0 -18 4 -29 12 -33c4 -6 12 -7 31 1v-54c-17 -13 -35 -19 -53 -19c-26 0 -50 13 -57 42
c-19 -28 -51 -46 -86 -46c-45 0 -100 26 -100 102v96c0 77 58 113 127 113h51v115c0 52 -23 64 -49 64c-28 0 -48 -17 -48 -65zM94 646c0 38 29 68 70 68c42 0 71 -30 71 -68c0 -39 -29 -69 -71 -69c-41 0 -70 30 -70 69zM127 646c0 -22 15 -41 37 -41c23 0 38 19 38 41
c0 21 -15 40 -38 40c-22 0 -37 -19 -37 -40z" />
    <glyph glyph-name="ccedilla" unicode="&#xe7;" horiz-adv-x="339" 
d="M114 404v-278c0 -53 25 -74 59 -74c33 0 59 21 59 74v45l75 11v-53c0 -90 -51 -130 -108 -139c6 -12 9 -25 9 -38c0 -45 -30 -76 -80 -76c-15 0 -30 5 -42 13v45c14 -7 28 -10 38 -10c23 0 30 18 30 37c0 10 -2 20 -4 29c-59 7 -112 46 -112 139v272
c0 104 68 141 135 141c66 0 134 -37 134 -141v-34l-75 -10v47c0 53 -26 74 -59 74c-34 0 -59 -21 -59 -74z" />
    <glyph glyph-name="eacute" unicode="&#xe9;" horiz-adv-x="345" 
d="M307 278h-193v-152c0 -53 25 -74 59 -74c33 0 59 21 59 74v45l75 11v-53c0 -104 -68 -141 -134 -141c-67 0 -135 37 -135 141v272c0 104 68 141 135 141c66 0 134 -37 134 -141v-123zM114 404v-72h118v72c0 53 -26 74 -59 74c-34 0 -59 -21 -59 -74zM194 700h78l-79 -122
h-52z" />
    <glyph glyph-name="egrave" unicode="&#xe8;" horiz-adv-x="345" 
d="M307 278h-193v-152c0 -53 25 -74 59 -74c33 0 59 21 59 74v45l75 11v-53c0 -104 -68 -141 -134 -141c-67 0 -135 37 -135 141v272c0 104 68 141 135 141c66 0 134 -37 134 -141v-123zM114 404v-72h118v72c0 53 -26 74 -59 74c-34 0 -59 -21 -59 -74zM69 700h79l52 -122
h-51z" />
    <glyph glyph-name="ecircumflex" unicode="&#xea;" horiz-adv-x="345" 
d="M307 278h-193v-152c0 -53 25 -74 59 -74c33 0 59 21 59 74v45l75 11v-53c0 -104 -68 -141 -134 -141c-67 0 -135 37 -135 141v272c0 104 68 141 135 141c66 0 134 -37 134 -141v-123zM114 404v-72h118v72c0 53 -26 74 -59 74c-34 0 -59 -21 -59 -74zM173 656l-39 -78h-57
l63 122h68l63 -122h-58z" />
    <glyph glyph-name="edieresis" unicode="&#xeb;" horiz-adv-x="352" 
d="M310 278h-193v-152c0 -53 25 -74 59 -74c33 0 59 21 59 74v45l75 11v-53c0 -104 -68 -141 -134 -141c-67 0 -135 37 -135 141v272c0 104 68 141 135 141c66 0 134 -37 134 -141v-123zM117 404v-72h118v72c0 53 -26 74 -59 74c-34 0 -59 -21 -59 -74zM95 691h63v-104h-63
v104zM195 691h63v-104h-63v104z" />
    <glyph glyph-name="iacute" unicode="&#xed;" horiz-adv-x="158" 
d="M43 530h72v-530h-72v530zM108 700h78l-79 -122h-52z" />
    <glyph glyph-name="igrave" unicode="&#xec;" horiz-adv-x="158" 
d="M43 530h72v-530h-72v530zM-28 700h79l52 -122h-51z" />
    <glyph glyph-name="icircumflex" unicode="&#xee;" horiz-adv-x="158" 
d="M43 530h72v-530h-72v530zM77 656l-39 -78h-57l63 122h68l63 -122h-58z" />
    <glyph glyph-name="idieresis" unicode="&#xef;" horiz-adv-x="158" 
d="M43 530h72v-530h-72v530zM-2 691h63v-104h-63v104zM98 691h63v-104h-63v104z" />
    <glyph glyph-name="ntilde" unicode="&#xf1;" horiz-adv-x="355" 
d="M45 530h73v-35c17 24 54 47 95 47c53 0 100 -38 100 -125v-417h-75v409c0 45 -22 67 -52 67c-27 0 -50 -18 -66 -37v-439h-75v530zM121 579l-49 11c5 47 26 81 63 81c29 0 62 -27 83 -27c14 0 20 12 20 36l50 -8c-5 -50 -27 -83 -63 -83c-31 0 -59 27 -81 27
c-19 0 -22 -22 -23 -37z" />
    <glyph glyph-name="oacute" unicode="&#xf3;" horiz-adv-x="345" 
d="M232 126v278c0 53 -26 74 -59 74c-34 0 -59 -21 -59 -74v-278c0 -53 25 -74 59 -74c33 0 59 21 59 74zM173 -12c-67 0 -135 37 -135 141v272c0 104 68 141 135 141c66 0 134 -37 134 -141v-272c0 -104 -68 -141 -134 -141zM198 700h78l-79 -122h-52z" />
    <glyph glyph-name="ograve" unicode="&#xf2;" horiz-adv-x="345" 
d="M232 126v278c0 53 -26 74 -59 74c-34 0 -59 -21 -59 -74v-278c0 -53 25 -74 59 -74c33 0 59 21 59 74zM173 -12c-67 0 -135 37 -135 141v272c0 104 68 141 135 141c66 0 134 -37 134 -141v-272c0 -104 -68 -141 -134 -141zM66 700h79l52 -122h-51z" />
    <glyph glyph-name="ocircumflex" unicode="&#xf4;" horiz-adv-x="345" 
d="M232 126v278c0 53 -26 74 -59 74c-34 0 -59 -21 -59 -74v-278c0 -53 25 -74 59 -74c33 0 59 21 59 74zM173 -12c-67 0 -135 37 -135 141v272c0 104 68 141 135 141c66 0 134 -37 134 -141v-272c0 -104 -68 -141 -134 -141zM172 656l-39 -78h-57l63 122h68l63 -122h-58z
" />
    <glyph glyph-name="odieresis" unicode="&#xf6;" horiz-adv-x="345" 
d="M232 126v278c0 53 -26 74 -59 74c-34 0 -59 -21 -59 -74v-278c0 -53 25 -74 59 -74c33 0 59 21 59 74zM173 -12c-67 0 -135 37 -135 141v272c0 104 68 141 135 141c66 0 134 -37 134 -141v-272c0 -104 -68 -141 -134 -141zM92 691h63v-104h-63v104zM192 691h63v-104h-63
v104z" />
    <glyph glyph-name="otilde" unicode="&#xf5;" horiz-adv-x="345" 
d="M232 126v278c0 53 -26 74 -59 74c-34 0 -59 -21 -59 -74v-278c0 -53 25 -74 59 -74c33 0 59 21 59 74zM173 -12c-67 0 -135 37 -135 141v272c0 104 68 141 135 141c66 0 134 -37 134 -141v-272c0 -104 -68 -141 -134 -141zM114 579l-49 11c5 47 26 81 63 81
c29 0 62 -27 83 -27c14 0 20 12 20 36l50 -8c-5 -50 -27 -83 -63 -83c-31 0 -59 27 -81 27c-19 0 -22 -22 -23 -37z" />
    <glyph glyph-name="uacute" unicode="&#xfa;" horiz-adv-x="348" 
d="M231 530h75v-401c0 -104 -65 -141 -132 -141s-132 37 -132 141v401h75v-404c0 -53 24 -74 57 -74s57 21 57 74v404zM195 700h78l-79 -122h-52z" />
    <glyph glyph-name="ugrave" unicode="&#xf9;" horiz-adv-x="348" 
d="M231 530h75v-401c0 -104 -65 -141 -132 -141s-132 37 -132 141v401h75v-404c0 -53 24 -74 57 -74s57 21 57 74v404zM72 700h79l52 -122h-51z" />
    <glyph glyph-name="ucircumflex" unicode="&#xfb;" horiz-adv-x="348" 
d="M231 530h75v-401c0 -104 -65 -141 -132 -141s-132 37 -132 141v401h75v-404c0 -53 24 -74 57 -74s57 21 57 74v404zM173 656l-39 -78h-57l63 122h68l63 -122h-58z" />
    <glyph glyph-name="udieresis" unicode="&#xfc;" horiz-adv-x="348" 
d="M231 530h75v-401c0 -104 -65 -141 -132 -141s-132 37 -132 141v401h75v-404c0 -53 24 -74 57 -74s57 21 57 74v404zM93 691h63v-104h-63v104zM193 691h63v-104h-63v104z" />
    <glyph glyph-name="dagger" unicode="&#x2020;" horiz-adv-x="271" 
d="M247 596v-60h-79v-264h-64v264h-81v60h81v104h64v-104h79z" />
    <glyph glyph-name="degree" unicode="&#xb0;" horiz-adv-x="200" 
d="M25 625c0 58 32 87 75 87s75 -29 75 -87s-32 -87 -75 -87s-75 29 -75 87zM60 625c0 -36 16 -52 40 -52s40 16 40 52s-16 52 -40 52s-40 -16 -40 -52z" />
    <glyph glyph-name="cent" unicode="&#xa2;" horiz-adv-x="367" 
d="M333 259v-69c0 -114 -55 -160 -123 -169v-109h-52v108c-71 8 -126 55 -126 170v320c0 115 55 161 126 169v71h52v-72c68 -9 123 -55 123 -168v-35l-80 -17v52c0 75 -30 96 -71 96c-40 0 -70 -21 -70 -96v-320c0 -76 30 -96 70 -96c41 0 71 20 71 96v52z" />
    <glyph glyph-name="sterling" unicode="&#xa3;" horiz-adv-x="354" 
d="M73 388v186c0 96 60 138 130 138s128 -42 128 -138v-45l-75 -15v57c0 57 -18 76 -54 76c-35 0 -54 -19 -54 -76v-183h132v-68h-132v-121c0 -58 -7 -99 -29 -126h201v-73h-295v61c32 20 48 48 48 113v146h-44v68h44z" />
    <glyph glyph-name="section" unicode="&#xa7;" horiz-adv-x="318" 
d="M288 274c0 -56 -40 -92 -83 -110l25 -20c36 -29 55 -61 55 -105v-49c0 -75 -57 -116 -120 -116c-74 0 -122 42 -122 117v44l72 12v-53c0 -39 19 -57 50 -57c30 0 46 18 46 56v44c0 19 -12 33 -34 52c-73 59 -138 104 -138 173v50c0 56 40 91 82 110l-24 20
c-35 31 -55 59 -54 105v49c0 75 57 116 120 116c73 0 121 -42 121 -117v-44l-71 -12v53c0 38 -22 57 -51 57s-45 -18 -45 -56v-44c0 -19 11 -34 33 -52c73 -58 138 -106 138 -173v-50zM189 361c-6 12 -17 20 -29 30c-26 -9 -47 -35 -47 -73v-43c0 -35 22 -53 54 -80
c25 8 47 33 47 73v43c0 17 -9 33 -25 50z" />
    <glyph glyph-name="bullet" unicode="&#x2022;" horiz-adv-x="198" 
d="M30 324c0 53 29 80 69 80s69 -27 69 -80s-29 -80 -69 -80s-69 27 -69 80z" />
    <glyph glyph-name="paragraph" unicode="&#xb6;" horiz-adv-x="404" 
d="M169 306h23v327h-23c-45 0 -69 -22 -69 -73v-181c0 -51 24 -73 69 -73zM30 381v177c0 96 60 142 139 142h192v-802h-64v735h-41v-735h-64v341h-23c-79 0 -139 46 -139 142z" />
    <glyph glyph-name="germandbls" unicode="&#xdf;" horiz-adv-x="430" 
d="M248 391v-27c0 -22 15 -37 37 -57l73 -63c33 -28 53 -59 53 -99v-41c0 -75 -59 -116 -122 -116c-74 0 -124 42 -124 117v48l72 12v-57c0 -39 22 -57 52 -57s48 18 48 56v34c0 19 -14 35 -35 54l-77 65c-31 26 -50 53 -50 93v39c0 55 48 81 93 98v66c0 57 -35 87 -74 87
c-38 0 -74 -27 -74 -87v-556h-75v555c0 111 77 156 150 156c76 0 151 -47 151 -155v-97c-55 -17 -98 -30 -98 -68z" />
    <glyph glyph-name="registered" unicode="&#xae;" horiz-adv-x="255" 
d="M28 603c0 70 39 109 99 109s99 -39 99 -109s-39 -109 -99 -109s-99 39 -99 109zM54 603c0 -56 27 -86 73 -86s73 30 73 86s-27 86 -73 86s-73 -30 -73 -86zM119 640v-33h9c7 0 9 2 9 13v8c0 9 -2 12 -9 12h-9zM166 539h-28v24c0 11 -3 18 -11 18h-8v-42h-27v127h37
c22 0 36 -6 36 -38v-9c0 -11 -8 -20 -18 -22c13 -4 19 -12 19 -29v-29z" />
    <glyph glyph-name="copyright" unicode="&#xa9;" horiz-adv-x="697" 
d="M349 712c201 0 313 -161 313 -362s-112 -362 -313 -362s-314 161 -314 362s113 362 314 362zM349 670c-174 0 -264 -147 -264 -320c0 -175 90 -320 264 -320c173 0 264 145 264 320c0 173 -91 320 -264 320zM286 450v-204c0 -53 26 -74 59 -74s59 21 59 74v45l75 11v-53
c0 -104 -67 -141 -134 -141s-134 37 -134 141v198c0 104 67 141 134 141s134 -37 134 -141v-34l-75 -10v47c0 53 -26 74 -59 74s-59 -21 -59 -74z" />
    <glyph glyph-name="trademark" unicode="&#x2122;" horiz-adv-x="340" 
d="M27 700h113v-42h-36v-150h-41v150h-36v42zM145 508l14 192h45l25 -122l26 122h46l13 -192h-40l-5 111l-22 -96h-37l-22 96l-4 -111h-39z" />
    <glyph glyph-name="acute" unicode="&#xb4;" 
d="M237 700h78l-79 -122h-52z" />
    <glyph glyph-name="dieresis" unicode="&#xa8;" 
d="M168 691h63v-104h-63v104zM268 691h63v-104h-63v104z" />
    <glyph glyph-name="notequal" unicode="&#x2260;" horiz-adv-x="325" 
d="M291 287v-68h-139l-49 -130h-54l48 130h-64v68h89l34 90h-123v68h147l49 129h54l-48 -129h56v-68h-81l-34 -90h115z" />
    <glyph glyph-name="AE" unicode="&#xc6;" 
d="M251 0v188h-131l-56 -188h-79l213 700h266v-73h-133v-235h116v-74h-116v-245h142v-73h-222zM249 624l-112 -368h114v368h-2z" />
    <glyph glyph-name="Oslash" unicode="&#xd8;" horiz-adv-x="371" 
d="M35 159v356c0 15 0 30 1 44c6 115 72 153 150 153c28 0 55 -6 78 -19l11 35h43l-20 -63c23 -26 38 -66 38 -124v-382c0 -128 -70 -171 -150 -171c-30 0 -57 5 -80 17l-13 -42h-43l21 71c-22 26 -36 67 -36 125zM256 159v315c0 21 -2 39 -6 52l-92 -345l-20 -90
c10 -20 25 -28 48 -28c41 0 70 20 70 96zM115 541v-324c0 -17 1 -32 3 -45l92 342l20 98c-10 18 -23 25 -44 25c-41 0 -71 -20 -71 -96z" />
    <glyph glyph-name="infinity" unicode="&#x221e;" horiz-adv-x="405" 
d="M178 334c-17 37 -36 68 -56 68c-18 0 -36 -25 -36 -68c0 -44 18 -69 36 -69c21 0 37 27 56 69zM222 334c19 -42 35 -69 56 -69c18 0 36 25 36 69c0 43 -18 68 -36 68c-20 0 -39 -31 -56 -68zM200 269c-25 -40 -49 -68 -82 -68c-53 0 -91 47 -91 133s38 132 91 132
c33 0 57 -26 82 -66c25 40 49 66 82 66c53 0 91 -46 91 -132s-38 -133 -91 -133c-33 0 -57 28 -82 68z" />
    <glyph glyph-name="plusminus" unicode="&#xb1;" horiz-adv-x="332" 
d="M131 508h68v-142h106v-68h-106v-140h-68v140h-104v68h104v142zM305 68v-68h-278v68h278z" />
    <glyph glyph-name="lessequal" unicode="&#x2264;" horiz-adv-x="325" 
d="M291 68v-68h-258v68h258zM291 533v-80l-193 -122l193 -118v-81l-258 166v68z" />
    <glyph glyph-name="greaterequal" unicode="&#x2265;" horiz-adv-x="325" 
d="M34 0v68h258v-68h-258zM34 453v80l258 -167v-68l-258 -166v81l193 118z" />
    <glyph glyph-name="yen" unicode="&#xa5;" horiz-adv-x="344" 
d="M174 412l86 288h76l-121 -349h101v-68h-108v-283h-72v283h-108v68h101l-121 349h79z" />
    <glyph glyph-name="mu" unicode="&#xb5;" horiz-adv-x="348" 
d="M231 530h75v-407c0 -99 -61 -135 -115 -135c-30 0 -61 13 -80 32l2 -158l-71 -14v682h75v-404c0 -51 25 -74 57 -74c33 0 57 21 57 74v404z" />
    <glyph glyph-name="mu" unicode="&#x3bc;" horiz-adv-x="348" 
d="M231 530h75v-407c0 -99 -61 -135 -115 -135c-30 0 -61 13 -80 32l2 -158l-71 -14v682h75v-404c0 -51 25 -74 57 -74c33 0 57 21 57 74v404z" />
    <glyph glyph-name="partialdiff" unicode="&#x2202;" horiz-adv-x="344" 
d="M171 -12c-69 0 -133 39 -133 149v182c0 98 62 136 119 136c32 0 60 -14 77 -31v30c0 78 -35 155 -135 204l34 54c76 -26 171 -105 171 -261v-314c0 -110 -65 -149 -133 -149zM230 137v184c-4 43 -30 64 -59 64c-32 0 -59 -24 -59 -75v-173c0 -52 25 -76 59 -76
c35 0 59 24 59 76z" />
    <glyph glyph-name="summation" unicode="&#x2211;" horiz-adv-x="329" 
d="M23 700h276v-73h-195l132 -276l-132 -278h203v-73h-284v64l137 287l-137 284v65z" />
    <glyph glyph-name="product" unicode="&#x220f;" horiz-adv-x="397" 
d="M49 700h286v-700h-71v627h-144v-627h-71v700z" />
    <glyph glyph-name="pi" unicode="&#x3c0;" horiz-adv-x="388" 
d="M14 453v77h360v-77h-59v-453h-71v453h-101v-453h-70v453h-59z" />
    <glyph glyph-name="integral" unicode="&#x222b;" horiz-adv-x="217" 
d="M58 -15v534c0 122 19 180 86 191c19 3 43 1 68 -7v-72c-37 13 -57 11 -68 -7c-11 -10 -16 -28 -16 -58v-526c0 -27 -2 -53 -5 -77c-8 -97 -63 -124 -131 -109c-5 0 -9 1 -13 2v64c18 -6 33 -8 44 -7c26 3 35 26 35 72z" />
    <glyph glyph-name="ordfeminine" unicode="&#xaa;" horiz-adv-x="230" 
d="M131 461v79h-22c-17 0 -27 -8 -27 -26v-47c0 -15 9 -22 20 -22c13 0 22 7 29 16zM87 638v-30l-50 6v22c0 47 32 76 73 76s74 -18 74 -74v-182c0 -14 14 -15 29 -7v-36c-11 -8 -26 -12 -37 -12c-18 0 -30 9 -36 23c-12 -13 -29 -23 -48 -23c-26 0 -59 16 -59 61v52
c0 45 34 67 75 67h24v57c0 25 -10 29 -22 29c-13 0 -23 -7 -23 -29z" />
    <glyph glyph-name="ordmasculine" unicode="&#xba;" horiz-adv-x="221" 
d="M138 481v152c0 25 -12 34 -28 34c-15 0 -27 -9 -27 -34v-152c0 -25 12 -34 27 -34c16 0 28 9 28 34zM110 401c-38 0 -80 21 -80 83v147c0 60 42 81 80 81c40 0 81 -21 81 -81v-147c0 -62 -41 -83 -81 -83z" />
    <glyph glyph-name="Omega" unicode="&#x3a9;" horiz-adv-x="390" 
d="M195 637c-40 0 -76 -18 -76 -96v-313c0 -101 31 -135 62 -161v-67h-151v73h78c-28 22 -65 65 -65 162v306c0 131 70 171 152 171c81 0 152 -40 152 -171v-306c0 -97 -44 -140 -65 -162h79v-73h-151v67c31 26 61 60 61 161v313c0 78 -35 96 -76 96z" />
    <glyph glyph-name="Omega" unicode="&#x2126;" horiz-adv-x="390" 
d="M195 637c-40 0 -76 -18 -76 -96v-313c0 -101 31 -135 62 -161v-67h-151v73h78c-28 22 -65 65 -65 162v306c0 131 70 171 152 171c81 0 152 -40 152 -171v-306c0 -97 -44 -140 -65 -162h79v-73h-151v67c31 26 61 60 61 161v313c0 78 -35 96 -76 96z" />
    <glyph glyph-name="ae" unicode="&#xe6;" horiz-adv-x="510" 
d="M472 278h-194v-152c0 -54 23 -74 59 -74c34 0 59 21 59 74v45l76 11v-53c0 -104 -68 -141 -135 -141c-50 0 -85 14 -112 53c-34 -41 -65 -53 -101 -53c-45 0 -99 26 -99 102v96c0 77 58 113 127 113h51v114c0 52 -22 65 -49 65c-28 0 -48 -17 -48 -65v-47l-72 10v36
c0 75 53 130 121 130c39 0 72 -18 90 -44c21 26 52 44 92 44c67 0 135 -37 135 -141v-123zM203 93v150h-48c-36 0 -57 -20 -57 -57v-87c0 -33 19 -48 43 -48s46 18 62 42zM337 478c-32 0 -59 -22 -59 -75v-71h118v72c0 53 -25 74 -59 74z" />
    <glyph glyph-name="oslash" unicode="&#xf8;" horiz-adv-x="345" 
d="M173 -12c-22 0 -43 4 -62 12l-12 -37h-43l21 60c-30 27 -39 63 -39 128v228c0 13 1 25 2 37c5 93 70 126 133 126c23 0 48 -5 69 -16l10 32h44l-21 -59c24 -28 32 -62 32 -120v-228c0 -13 0 -25 -1 -37c-6 -93 -71 -126 -133 -126zM114 404v-232c0 -15 2 -29 6 -39
l76 254l16 66c-9 19 -22 25 -39 25c-34 0 -59 -21 -59 -74zM232 126v229c0 9 -1 18 -2 25l-90 -306c7 -18 18 -22 33 -22c33 0 59 21 59 74z" />
    <glyph glyph-name="questiondown" unicode="&#xbf;" horiz-adv-x="301" 
d="M15 -45v87c0 98 109 155 109 250v90h73v-89c0 -125 -102 -167 -102 -251v-81c0 -43 19 -68 56 -68s51 23 51 67v82l77 -17v-69c0 -85 -56 -138 -128 -138c-70 0 -136 46 -136 137zM197 439h-73v91h73v-91z" />
    <glyph glyph-name="exclamdown" unicode="&#xa1;" horiz-adv-x="177" 
d="M127 -170h-77l5 551h66zM125 439h-73v91h73v-91z" />
    <glyph glyph-name="logicalnot" unicode="&#xac;" horiz-adv-x="331" 
d="M37 366h258v-235h-67v167h-191v68z" />
    <glyph glyph-name="radical" unicode="&#x221a;" horiz-adv-x="392" 
d="M20 457v73h105l69 -427l109 597h69l-139 -700h-82l-85 457h-46z" />
    <glyph glyph-name="florin" unicode="&#x192;" horiz-adv-x="337" 
d="M136 0h-75v320h-49v68h49v186c0 96 60 138 130 138s128 -42 128 -138v-42l-75 -14v53c0 57 -18 76 -54 76c-35 0 -54 -19 -54 -76v-183h132v-68h-132v-320z" />
    <glyph glyph-name="approxequal" unicode="&#x2248;" horiz-adv-x="356" 
d="M96 354l-59 17c5 51 30 90 73 93c6 1 13 0 21 -1c35 -7 68 -33 94 -33c18 0 27 15 29 36c2 4 2 10 3 16l61 -17c0 -6 0 -12 -1 -18c-5 -51 -35 -87 -83 -87c-42 0 -77 34 -106 34c-19 0 -29 -13 -32 -40zM96 191l-59 17c5 52 30 90 73 94c6 0 13 0 21 -2
c35 -6 68 -33 94 -33c18 0 27 15 29 36c2 5 2 10 3 16l61 -16c0 -7 0 -12 -1 -19c-5 -50 -35 -87 -83 -87c-42 0 -77 35 -106 35c-19 0 -29 -14 -32 -41z" />
    <glyph glyph-name="Delta" unicode="&#x394;" horiz-adv-x="391" 
d="M25 0l126 700h88l127 -700h-341zM194 606l-85 -536h171z" />
    <glyph glyph-name="Delta" unicode="&#x2206;" horiz-adv-x="391" 
d="M25 0l126 700h88l127 -700h-341zM194 606l-85 -536h171z" />
    <glyph glyph-name="guillemotleft" unicode="&#xab;" horiz-adv-x="376" 
d="M212 78h-72l-119 217l119 218h72l-120 -218zM358 78h-72l-119 217l119 218h72l-120 -218z" />
    <glyph glyph-name="guillemotright" unicode="&#xbb;" horiz-adv-x="376" 
d="M93 78h-72l120 217l-120 218h72l119 -218zM238 78h-72l120 217l-120 218h72l119 -218z" />
    <glyph glyph-name="ellipsis" unicode="&#x2026;" horiz-adv-x="387" 
d="M33 91h74v-91h-74v91zM157 91h73v-91h-73v91zM280 91h73v-91h-73v91z" />
    <glyph glyph-name="uni00A0" unicode="&#xa0;" horiz-adv-x="50" 
 />
    <glyph glyph-name="Agrave" unicode="&#xc0;" horiz-adv-x="364" 
d="M275 0l-27 168h-139l-27 -168h-77l122 700h107l124 -700h-83zM176 603l-58 -368h120l-59 368h-3zM74 870h79l52 -122h-51z" />
    <glyph glyph-name="Atilde" unicode="&#xc3;" horiz-adv-x="364" 
d="M275 0l-27 168h-139l-27 -168h-77l122 700h107l124 -700h-83zM176 603l-58 -368h120l-59 368h-3zM123 749l-49 11c5 47 26 81 63 81c29 0 62 -27 83 -27c14 0 20 12 20 36l50 -8c-5 -50 -27 -83 -63 -83c-31 0 -59 27 -81 27c-19 0 -22 -22 -23 -37z" />
    <glyph glyph-name="Otilde" unicode="&#xd5;" horiz-adv-x="371" 
d="M256 159v382c0 76 -29 96 -70 96s-71 -20 -71 -96v-382c0 -76 30 -96 71 -96s70 20 70 96zM35 159v382c0 128 68 171 151 171c80 0 150 -43 150 -171v-382c0 -128 -70 -171 -150 -171c-83 0 -151 43 -151 171zM127 749l-49 11c5 47 26 81 63 81c29 0 62 -27 83 -27
c14 0 20 12 20 36l50 -8c-5 -50 -27 -83 -63 -83c-31 0 -59 27 -81 27c-19 0 -22 -22 -23 -37z" />
    <glyph glyph-name="OE" unicode="&#x152;" horiz-adv-x="505" 
d="M271 700h198v-73h-133v-235h116v-74h-116v-245h142v-73h-207v17c-20 -18 -53 -29 -87 -29c-80 0 -149 42 -149 171v382c0 128 68 171 148 171c33 0 66 -11 88 -28v16zM256 155v386c0 73 -29 96 -70 96c-45 0 -71 -26 -71 -111v-367c0 -76 30 -96 71 -96c40 0 70 22 70 92
z" />
    <glyph glyph-name="oe" unicode="&#x153;" horiz-adv-x="524" 
d="M497 278h-193v-152c0 -53 25 -74 59 -74c33 0 59 21 59 74v45l75 11v-53c0 -104 -68 -141 -134 -141c-39 0 -75 14 -97 43c-23 -30 -62 -43 -97 -43c-66 0 -134 37 -134 141v272c0 104 68 141 134 141c37 0 74 -16 97 -45c23 29 59 45 97 45c66 0 134 -37 134 -141v-123z
M228 126v278c0 53 -25 74 -59 74c-33 0 -59 -21 -59 -74v-278c0 -53 26 -74 59 -74c34 0 59 21 59 74zM304 404v-72h118v72c0 53 -26 74 -59 74c-34 0 -59 -21 -59 -74z" />
    <glyph glyph-name="endash" unicode="&#x2013;" horiz-adv-x="315" 
d="M291 364v-65h-268v65h268z" />
    <glyph glyph-name="emdash" unicode="&#x2014;" horiz-adv-x="516" 
d="M499 364v-65h-482v65h482z" />
    <glyph glyph-name="quotedblleft" unicode="&#x201c;" horiz-adv-x="234" 
d="M177 488h-70l55 212h60zM82 488h-70l55 212h60z" />
    <glyph glyph-name="quotedblright" unicode="&#x201d;" horiz-adv-x="234" 
d="M152 700h70l-55 -212h-60zM57 700h70l-55 -212h-60z" />
    <glyph glyph-name="quoteleft" unicode="&#x2018;" horiz-adv-x="139" 
d="M82 488h-70l55 212h60z" />
    <glyph glyph-name="quoteright" unicode="&#x2019;" horiz-adv-x="139" 
d="M57 700h70l-55 -212h-60z" />
    <glyph glyph-name="divide" unicode="&#xf7;" horiz-adv-x="321" 
d="M291 370v-75h-258v75h258zM124 218h77v-92h-77v92zM124 538h77v-91h-77v91z" />
    <glyph glyph-name="lozenge" unicode="&#x25ca;" horiz-adv-x="337" 
d="M12 351l123 349h67l122 -349l-122 -351h-67zM168 91l85 260l-85 257l-85 -257z" />
    <glyph glyph-name="ydieresis" unicode="&#xff;" horiz-adv-x="323" 
d="M-12 -77c19 -6 34 -9 47 -9c48 0 75 40 91 116l-114 500h78l77 -377l74 377h73l-115 -508c-21 -96 -68 -173 -153 -173c-18 0 -37 3 -58 11v63zM85 691h63v-104h-63v104zM185 691h63v-104h-63v104z" />
    <glyph glyph-name="Ydieresis" unicode="&#x178;" horiz-adv-x="353" 
d="M182 364l84 336h77l-126 -432v-268h-80v268l-127 432h86zM95 861h63v-104h-63v104zM195 861h63v-104h-63v104z" />
    <glyph glyph-name="fraction" unicode="&#x2044;" horiz-adv-x="302" 
d="M256 700h56l-267 -700h-55z" />
    <glyph glyph-name="Euro" unicode="&#x20ac;" horiz-adv-x="371" 
d="M345 201v-42c0 -128 -70 -171 -151 -171c-82 0 -151 43 -151 171v108h-35v58h35v56h-35v58h35v102c0 128 69 171 151 171c81 0 151 -43 151 -171v-22l-80 -16v38c0 76 -30 96 -71 96s-71 -20 -71 -96v-102h176l-7 -58h-169v-56h161l-6 -58h-155v-109c0 -75 30 -96 71 -96
s71 21 71 96v26z" />
    <glyph glyph-name="guilsinglleft" unicode="&#x2039;" horiz-adv-x="231" 
d="M212 78h-72l-119 217l119 218h72l-120 -218z" />
    <glyph glyph-name="guilsinglright" unicode="&#x203a;" horiz-adv-x="231" 
d="M91 78h-72l120 217l-120 218h72l119 -218z" />
    <glyph glyph-name="daggerdbl" unicode="&#x2021;" horiz-adv-x="271" 
d="M247 437v-61h-79v-104h-64v104h-81v61h81v99h-81v60h81v104h64v-104h79v-60h-79v-99h79z" />
    <glyph glyph-name="periodcentered" unicode="&#xb7;" horiz-adv-x="150" 
d="M38 367h74v-91h-74v91z" />
    <glyph glyph-name="quotesinglbase" unicode="&#x201a;" horiz-adv-x="150" 
d="M62 63h70l-55 -212h-60z" />
    <glyph glyph-name="quotedblbase" unicode="&#x201e;" horiz-adv-x="247" 
d="M57 63h70l-55 -212h-60zM161 63h70l-55 -212h-60z" />
    <glyph glyph-name="perthousand" unicode="&#x2030;" horiz-adv-x="727" 
d="M635 81v203c0 35 -12 43 -29 43c-18 0 -28 -8 -28 -43v-203c0 -37 10 -44 28 -44c17 0 29 7 29 44zM524 84v196c0 74 34 96 82 96c47 0 83 -22 83 -96v-196c0 -73 -36 -96 -83 -96c-48 0 -82 23 -82 96zM362 700h56l-267 -700h-55zM149 417v203c0 35 -12 43 -28 43
c-18 0 -29 -8 -29 -43v-203c0 -37 11 -44 29 -44c16 0 28 7 28 44zM38 420v196c0 74 34 96 83 96c47 0 82 -22 82 -96v-196c0 -73 -35 -96 -82 -96c-49 0 -83 23 -83 96zM419 81v203c0 35 -12 43 -28 43c-18 0 -29 -8 -29 -43v-203c0 -37 11 -44 29 -44c16 0 28 7 28 44z
M308 84v196c0 74 34 96 83 96c47 0 82 -22 82 -96v-196c0 -73 -35 -96 -82 -96c-49 0 -83 23 -83 96z" />
    <glyph glyph-name="Acircumflex" unicode="&#xc2;" horiz-adv-x="364" 
d="M275 0l-27 168h-139l-27 -168h-77l122 700h107l124 -700h-83zM176 603l-58 -368h120l-59 368h-3zM179 826l-39 -78h-57l63 122h68l63 -122h-58z" />
    <glyph glyph-name="Ecircumflex" unicode="&#xca;" horiz-adv-x="300" 
d="M52 700h212v-73h-132v-235h115v-74h-115v-245h141v-73h-221v700zM154 826l-39 -78h-57l63 122h68l63 -122h-58z" />
    <glyph glyph-name="Aacute" unicode="&#xc1;" horiz-adv-x="364" 
d="M275 0l-27 168h-139l-27 -168h-77l122 700h107l124 -700h-83zM176 603l-58 -368h120l-59 368h-3zM205 870h78l-79 -122h-52z" />
    <glyph glyph-name="Edieresis" unicode="&#xcb;" horiz-adv-x="300" 
d="M52 700h212v-73h-132v-235h115v-74h-115v-245h141v-73h-221v700zM69 861h63v-104h-63v104zM169 861h63v-104h-63v104z" />
    <glyph glyph-name="Egrave" unicode="&#xc8;" horiz-adv-x="300" 
d="M52 700h212v-73h-132v-235h115v-74h-115v-245h141v-73h-221v700zM61 870h79l52 -122h-51z" />
    <glyph glyph-name="Iacute" unicode="&#xcd;" horiz-adv-x="183" 
d="M52 700h80v-700h-80v700zM118 870h78l-79 -122h-52z" />
    <glyph glyph-name="Icircumflex" unicode="&#xce;" horiz-adv-x="183" 
d="M52 700h80v-700h-80v700zM91 826l-39 -78h-57l63 122h68l63 -122h-58z" />
    <glyph glyph-name="Idieresis" unicode="&#xcf;" horiz-adv-x="183" 
d="M52 700h80v-700h-80v700zM11 861h63v-104h-63v104zM111 861h63v-104h-63v104z" />
    <glyph glyph-name="Igrave" unicode="&#xcc;" horiz-adv-x="183" 
d="M52 700h80v-700h-80v700zM-14 870h79l52 -122h-51z" />
    <glyph glyph-name="Oacute" unicode="&#xd3;" horiz-adv-x="371" 
d="M256 159v382c0 76 -29 96 -70 96s-71 -20 -71 -96v-382c0 -76 30 -96 71 -96s70 20 70 96zM35 159v382c0 128 68 171 151 171c80 0 150 -43 150 -171v-382c0 -128 -70 -171 -150 -171c-83 0 -151 43 -151 171zM213 870h78l-79 -122h-52z" />
    <glyph glyph-name="Ocircumflex" unicode="&#xd4;" horiz-adv-x="371" 
d="M256 159v382c0 76 -29 96 -70 96s-71 -20 -71 -96v-382c0 -76 30 -96 71 -96s70 20 70 96zM35 159v382c0 128 68 171 151 171c80 0 150 -43 150 -171v-382c0 -128 -70 -171 -150 -171c-83 0 -151 43 -151 171zM185 826l-39 -78h-57l63 122h68l63 -122h-58z" />
    <glyph glyph-name="Ograve" unicode="&#xd2;" horiz-adv-x="371" 
d="M256 159v382c0 76 -29 96 -70 96s-71 -20 -71 -96v-382c0 -76 30 -96 71 -96s70 20 70 96zM35 159v382c0 128 68 171 151 171c80 0 150 -43 150 -171v-382c0 -128 -70 -171 -150 -171c-83 0 -151 43 -151 171zM82 870h79l52 -122h-51z" />
    <glyph glyph-name="Uacute" unicode="&#xda;" horiz-adv-x="390" 
d="M341 700v-541c0 -128 -66 -171 -147 -171c-82 0 -146 43 -146 171v541h80v-541c0 -75 26 -97 66 -97s66 22 66 97v541h81zM215 870h78l-79 -122h-52z" />
    <glyph glyph-name="Ucircumflex" unicode="&#xdb;" horiz-adv-x="390" 
d="M341 700v-541c0 -128 -66 -171 -147 -171c-82 0 -146 43 -146 171v541h80v-541c0 -75 26 -97 66 -97s66 22 66 97v541h81zM194 826l-39 -78h-57l63 122h68l63 -122h-58z" />
    <glyph glyph-name="Ugrave" unicode="&#xd9;" horiz-adv-x="390" 
d="M341 700v-541c0 -128 -66 -171 -147 -171c-82 0 -146 43 -146 171v541h80v-541c0 -75 26 -97 66 -97s66 22 66 97v541h81zM95 870h79l52 -122h-51z" />
    <glyph glyph-name="dotlessi" unicode="&#x131;" horiz-adv-x="171" 
d="M50 530h72v-530h-72v530z" />
    <glyph glyph-name="circumflex" unicode="&#x2c6;" 
d="M249 656l-39 -78h-57l63 122h68l63 -122h-58z" />
    <glyph glyph-name="tilde" unicode="&#x2dc;" 
d="M191 579l-49 11c5 47 26 81 63 81c29 0 62 -27 83 -27c14 0 20 12 20 36l50 -8c-5 -50 -27 -83 -63 -83c-31 0 -59 27 -81 27c-19 0 -22 -22 -23 -37z" />
    <glyph glyph-name="macron" unicode="&#xaf;" 
d="M338 630h-176v62h176v-62z" />
    <glyph glyph-name="breve" unicode="&#x2d8;" 
d="M250 601c-52 0 -86 39 -90 115h54c3 -40 13 -61 36 -61s33 21 36 61h54c-4 -76 -38 -115 -90 -115z" />
    <glyph glyph-name="dotaccent" unicode="&#x2d9;" 
d="M213 707h74v-89h-74v89z" />
    <glyph glyph-name="ring" unicode="&#x2da;" 
d="M179 646c0 38 29 68 70 68c42 0 71 -30 71 -68c0 -39 -29 -69 -71 -69c-41 0 -70 30 -70 69zM212 646c0 -22 15 -41 37 -41c23 0 38 19 38 41c0 21 -15 40 -38 40c-22 0 -37 -19 -37 -40z" />
    <glyph glyph-name="cedilla" unicode="&#xb8;" 
d="M250 0h48c8 -16 13 -32 13 -48c0 -39 -24 -71 -65 -75c-5 -1 -10 -1 -15 -1c-15 1 -29 5 -42 13v45c14 -7 28 -10 38 -10c18 0 29 11 30 29c3 13 -1 30 -7 47z" />
    <glyph glyph-name="hungarumlaut" unicode="&#x2dd;" 
d="M195 700h66l-44 -122h-52zM286 700h65l-42 -122h-50z" />
    <glyph glyph-name="ogonek" unicode="&#x2db;" 
d="M193 0h48c-3 -13 -6 -27 -6 -39c0 -30 14 -45 39 -45c11 0 25 4 39 12l4 -44c-19 -9 -39 -14 -57 -14c-49 0 -78 33 -78 83c0 15 4 31 11 47z" />
    <glyph glyph-name="caron" unicode="&#x2c7;" 
d="M211 700l40 -78l39 78h57l-63 -122h-68l-63 122h58z" />
    <glyph glyph-name=".null" horiz-adv-x="0" 
 />
    </font>
</defs>
</svg>
