<?xml version="1.0" standalone="no"?>
<!DOCTYPE svg PUBLIC "-//W3C//DTD SVG 1.1//EN" "http://www.w3.org/Graphics/SVG/1.1/DTD/svg11.dtd" >
<svg>
<metadata>
Created by FontForge 20110222 at Wed Mar 18 10:42:47 2015
 By www-data
Copyright (c) 2008-2011 BNP Paribas
</metadata>
<defs>
<font id="BNPPRounded-Light" horiz-adv-x="530" >
  <font-face 
    font-family="BNPP Rounded Light"
    font-weight="300"
    font-stretch="normal"
    units-per-em="1000"
    panose-1="2 0 5 3 2 0 0 2 0 4"
    ascent="755"
    descent="-245"
    x-height="527"
    cap-height="700"
    bbox="-48 -245 909 2043"
    underline-thickness="50"
    underline-position="-50"
    stemh="53"
    stemv="57"
    unicode-range="U+0020-FB04"
  />
<missing-glyph horiz-adv-x="565" 
d="M105 665h355v-665h-355v665zM159 612v-559h247v559h-247z" />
    <glyph glyph-name="f_f" unicode="ff" horiz-adv-x="571" 
d="M383 476h-221v-581c0 -66 -51 -107 -113 -107c-24 0 -51 5 -74 19c-8 5 -12 14 -12 23c0 11 7 28 21 28c3 0 7 0 11 -2c18 -8 37 -13 54 -13c31 0 56 17 56 61v572h-65c-16 0 -22 11 -22 26c0 14 6 25 22 25h65v53c0 116 63 170 156 170c24 0 45 -4 59 -8
c15 -4 20 -14 20 -27c0 -12 -7 -24 -21 -24c-10 0 -32 9 -59 9c-64 0 -98 -35 -98 -120v-53h221v53c0 116 63 170 156 170c24 0 45 -4 59 -8c15 -4 20 -14 20 -27c0 -12 -7 -24 -21 -24c-10 0 -32 9 -59 9c-64 0 -98 -35 -98 -120v-53h118c13 0 19 -8 19 -18
c0 -15 -9 -33 -27 -33h-110v-581c0 -66 -51 -107 -113 -107c-24 0 -51 5 -74 19c-8 5 -12 14 -12 23c0 11 7 28 21 28c3 0 7 0 11 -2c18 -8 37 -13 54 -13c31 0 56 17 56 61v572z" />
    <glyph glyph-name="f_i" unicode="fi" horiz-adv-x="535" 
d="M162 527h250c16 0 28 -7 28 -24v-486c0 -17 -12 -24 -28 -24s-29 7 -29 24v459h-221v-581c0 -66 -51 -107 -113 -107c-24 0 -51 5 -74 19c-8 5 -12 14 -12 23c0 11 7 28 21 28c3 0 7 0 11 -2c18 -8 37 -13 54 -13c31 0 56 17 56 61v572h-65c-16 0 -22 11 -22 26
c0 14 6 25 22 25h65v53c0 112 59 170 164 170c67 0 120 -24 152 -45c10 -7 19 -18 19 -30c0 -16 -9 -27 -26 -27c-14 0 -31 14 -31 14c-29 22 -73 37 -115 37c-74 0 -106 -34 -106 -119v-53z" />
    <glyph glyph-name="f_f_i" unicode="ffi" horiz-adv-x="813" 
d="M440 527h250c16 0 28 -7 28 -24v-486c0 -17 -12 -24 -28 -24s-29 7 -29 24v459h-221v-581c0 -66 -51 -107 -113 -107c-24 0 -51 5 -74 19c-8 5 -12 14 -12 23c0 11 7 28 21 28c3 0 7 0 11 -2c18 -8 37 -13 54 -13c31 0 56 17 56 61v572h-221v-581
c0 -66 -51 -107 -113 -107c-24 0 -51 5 -74 19c-8 5 -12 14 -12 23c0 11 7 28 21 28c3 0 7 0 11 -2c18 -8 37 -13 54 -13c31 0 56 17 56 61v572h-65c-16 0 -22 11 -22 26c0 14 6 25 22 25h65v53c0 116 63 170 156 170c24 0 45 -4 59 -8c15 -4 20 -14 20 -27
c0 -12 -7 -24 -21 -24c-10 0 -32 9 -59 9c-64 0 -98 -35 -98 -120v-53h221v53c0 112 59 170 164 170c67 0 120 -24 152 -45c10 -7 19 -18 19 -30c0 -16 -9 -27 -26 -27c-14 0 -31 14 -31 14c-29 22 -73 37 -115 37c-74 0 -106 -34 -106 -119v-53z" />
    <glyph glyph-name="f_l" unicode="fl" horiz-adv-x="581" 
d="M162 476v-581c0 -66 -51 -107 -113 -107c-27 0 -86 8 -86 42c0 11 7 28 21 28c20 0 45 -15 65 -15c31 0 56 17 56 61v572h-65c-16 0 -22 11 -22 26c0 14 6 25 22 25h65v53c0 112 59 170 164 170c67 0 120 -24 152 -45c12 -8 19 -18 19 -35v-590c0 -28 16 -39 37 -39
c17 0 36 4 53 14c9 5 20 12 28 12c12 0 18 -12 18 -25c0 -10 -4 -19 -14 -26c-30 -19 -66 -28 -95 -28c-47 0 -84 30 -84 91v584c-29 23 -73 36 -115 36c-74 0 -106 -34 -106 -119v-53h118c13 0 19 -8 19 -18c0 -15 -9 -33 -27 -33h-110z" />
    <glyph glyph-name="f_f_l" unicode="ffl" horiz-adv-x="859" 
d="M440 476v-581c0 -66 -51 -107 -113 -107c-27 0 -86 8 -86 42c0 11 7 28 21 28c20 0 45 -15 65 -15c31 0 56 17 56 61v572h-221v-581c0 -66 -51 -107 -113 -107c-24 0 -51 5 -74 19c-8 5 -12 14 -12 23c0 11 7 28 21 28c3 0 7 0 11 -2c18 -8 37 -13 54 -13
c31 0 56 17 56 61v572h-65c-16 0 -22 11 -22 26c0 14 6 25 22 25h65v53c0 116 63 170 156 170c24 0 45 -4 59 -8c15 -4 20 -14 20 -27c0 -12 -7 -24 -21 -24c-10 0 -32 9 -59 9c-64 0 -98 -35 -98 -120v-53h221v53c0 112 59 170 164 170c67 0 120 -24 152 -45
c12 -8 19 -18 19 -35v-590c0 -28 16 -39 37 -39c17 0 36 4 53 14c9 5 20 12 28 12c12 0 18 -12 18 -25c0 -10 -4 -19 -14 -26c-30 -19 -66 -28 -95 -28c-47 0 -84 30 -84 91v584c-29 23 -73 36 -115 36c-74 0 -106 -34 -106 -119v-53h118c13 0 19 -8 19 -18
c0 -15 -9 -33 -27 -33h-110z" />
    <glyph glyph-name=".notdef" horiz-adv-x="565" 
d="M105 665h355v-665h-355v665zM159 612v-559h247v559h-247z" />
    <glyph glyph-name=".null" horiz-adv-x="0" 
 />
    <glyph glyph-name="CR" horiz-adv-x="230" 
 />
    <glyph glyph-name="space" unicode=" " horiz-adv-x="280" 
 />
    <glyph glyph-name="A" unicode="A" horiz-adv-x="531" 
d="M131 210l-59 -193c-5 -16 -16 -24 -32 -24c-17 0 -27 8 -27 20c0 2 0 5 1 8l212 662c3 9 11 17 26 17h30c17 0 20 -8 23 -17l212 -660c1 -3 1 -5 1 -8c0 -13 -11 -22 -29 -22c-17 0 -29 9 -34 26l-60 191h-264zM264 633l-116 -371h231z" />
    <glyph glyph-name="B" unicode="B" horiz-adv-x="557" 
d="M105 676c0 17 13 24 29 24h135c133 0 208 -49 208 -178c0 -69 -32 -125 -106 -161c88 -20 126 -71 126 -174c0 -137 -85 -187 -223 -187h-140c-16 0 -29 7 -29 24v652zM163 325v-269h111c108 0 164 33 164 128c0 94 -42 141 -164 141h-111zM163 644v-264h110
c90 0 144 67 144 140c0 87 -45 124 -148 124h-106z" />
    <glyph glyph-name="C" unicode="C" horiz-adv-x="549" 
d="M486 549v-4c0 -15 -7 -29 -28 -29c-15 0 -25 8 -29 25c-12 57 -37 118 -134 118c-133 0 -175 -81 -175 -310c0 -227 65 -308 196 -308c60 0 102 15 138 33c6 3 12 5 18 5c15 0 21 -13 21 -28c0 -12 -6 -19 -21 -26c-40 -20 -92 -37 -159 -37c-161 0 -253 99 -253 360
c0 264 71 364 238 364c126 0 177 -84 188 -163z" />
    <glyph glyph-name="D" unicode="D" horiz-adv-x="628" 
d="M105 676c0 17 13 24 29 24h161c178 0 273 -99 273 -341c0 -259 -110 -359 -275 -359h-159c-16 0 -29 7 -29 24v652zM163 644v-588h126c132 0 219 79 219 304c0 206 -81 284 -219 284h-126z" />
    <glyph glyph-name="E" unicode="E" horiz-adv-x="533" 
d="M163 644v-254h266c16 0 23 -13 23 -28c0 -16 -7 -27 -23 -27h-266v-279h292c16 0 23 -13 23 -28c0 -16 -7 -28 -23 -28h-321c-16 0 -29 7 -29 24v652c0 17 13 24 29 24h307c16 0 23 -13 23 -28c0 -16 -7 -28 -23 -28h-278z" />
    <glyph glyph-name="F" unicode="F" horiz-adv-x="504" 
d="M163 644v-260h240c16 0 23 -13 23 -28c0 -16 -7 -28 -23 -28h-240v-311c0 -17 -13 -24 -29 -24s-29 7 -29 24v659c0 17 13 24 29 24h307c16 0 23 -13 23 -28c0 -16 -7 -28 -23 -28h-278z" />
    <glyph glyph-name="G" unicode="G" horiz-adv-x="647" 
d="M499 306h-157c-16 0 -23 12 -23 28c0 15 7 28 23 28h192c16 0 23 -13 23 -28v-318c0 -16 -13 -23 -28 -23s-28 7 -28 23v31c-38 -30 -111 -59 -179 -59c-162 0 -262 105 -262 374c0 250 101 350 274 350c130 0 201 -85 213 -162v-6c0 -18 -12 -28 -27 -28
c-19 0 -25 6 -31 27c-15 55 -56 116 -158 116c-139 0 -211 -81 -211 -299c0 -236 74 -319 208 -319c72 0 135 35 171 65v200z" />
    <glyph glyph-name="H" unicode="H" horiz-adv-x="675" 
d="M512 683c0 17 13 24 29 24s29 -7 29 -24v-666c0 -17 -13 -24 -29 -24s-29 7 -29 24v316h-349v-316c0 -17 -13 -24 -29 -24s-29 7 -29 24v666c0 17 13 24 29 24s29 -7 29 -24v-294h349v294z" />
    <glyph glyph-name="I" unicode="I" horiz-adv-x="268" 
d="M105 683c0 17 13 24 29 24s29 -7 29 -24v-666c0 -17 -13 -24 -29 -24s-29 7 -29 24v666z" />
    <glyph glyph-name="J" unicode="J" horiz-adv-x="293" 
d="M130 683c0 17 13 24 29 24s29 -7 29 -24v-583c0 -67 -37 -112 -104 -112c-34 0 -84 13 -84 44c0 15 9 27 21 27c3 0 6 -1 9 -2c13 -7 29 -16 54 -16c31 0 46 19 46 63v579z" />
    <glyph glyph-name="K" unicode="K" horiz-adv-x="545" 
d="M105 683c0 17 13 24 29 24s29 -7 29 -24v-370l274 370c12 16 22 24 40 24c15 0 22 -8 22 -18c0 -5 -2 -11 -6 -17l-199 -272l222 -375c2 -3 3 -6 3 -10c0 -11 -8 -22 -25 -22c-22 0 -30 8 -40 26l-198 332l-93 -127v-207c0 -17 -13 -24 -29 -24s-29 7 -29 24v666z" />
    <glyph glyph-name="L" unicode="L" horiz-adv-x="455" 
d="M105 683c0 17 13 24 29 24s29 -7 29 -24v-627h259c16 0 23 -13 23 -28c0 -16 -7 -28 -23 -28h-289c-16 0 -28 7 -28 24v659z" />
    <glyph glyph-name="M" unicode="M" horiz-adv-x="824" 
d="M178 601l-51 -584c-2 -17 -12 -24 -28 -24s-30 8 -28 25l62 663c1 9 6 19 19 19h31c13 0 18 -7 22 -17l207 -554l207 554c4 10 9 17 22 17h31c13 0 18 -10 19 -19l62 -663c2 -17 -12 -25 -28 -25s-26 7 -28 24l-52 584l-194 -525c-6 -16 -20 -20 -27 -20h-24
c-7 0 -21 4 -27 20z" />
    <glyph glyph-name="N" unicode="N" horiz-adv-x="690" 
d="M161 585v-568c0 -17 -12 -24 -28 -24s-28 7 -28 24v666c0 17 10 24 26 24c13 0 20 -4 28 -16l370 -569v561c0 17 12 24 28 24s28 -7 28 -24v-666c0 -17 -9 -24 -25 -24c-13 0 -21 4 -32 22z" />
    <glyph glyph-name="O" unicode="O" horiz-adv-x="621" 
d="M313 712c152 0 248 -100 248 -361c0 -264 -102 -363 -254 -363c-145 0 -247 99 -247 360c0 264 104 364 253 364zM310 659c-117 0 -190 -81 -190 -310c0 -227 73 -308 190 -308c121 0 191 81 191 310c0 227 -70 308 -191 308z" />
    <glyph glyph-name="P" unicode="P" horiz-adv-x="560" 
d="M163 262v-249c0 -14 -14 -20 -29 -20c-16 0 -29 7 -29 24v659c0 17 13 24 29 24h139c162 0 232 -56 232 -226c0 -164 -123 -222 -244 -222c-49 0 -69 4 -98 10zM163 644v-326c28 -5 46 -10 98 -10c109 0 184 46 184 166c0 121 -51 170 -172 170h-110z" />
    <glyph glyph-name="Q" unicode="Q" horiz-adv-x="621" 
d="M313 712c152 0 248 -100 248 -361c0 -219 -70 -325 -181 -354l79 -142c2 -5 2 -8 2 -12c0 -11 -11 -20 -26 -20c-23 0 -31 8 -40 26l-71 140c-5 -1 -11 -1 -17 -1c-145 0 -247 99 -247 360c0 264 104 364 253 364zM310 659c-117 0 -190 -81 -190 -310
c0 -227 73 -308 190 -308c121 0 191 81 191 310c0 227 -70 308 -191 308z" />
    <glyph glyph-name="R" unicode="R" horiz-adv-x="563" 
d="M163 290v-273c0 -17 -13 -24 -29 -24s-29 7 -29 24v659c0 13 8 24 33 24h133c152 0 224 -47 224 -212c0 -112 -48 -165 -118 -187l116 -276c2 -5 2 -8 2 -12c0 -11 -10 -20 -25 -20c-20 0 -31 7 -39 26l-111 269c-19 -2 -39 -3 -59 -3c-52 0 -76 2 -98 5zM163 644v-300
c22 -2 46 -5 106 -5c111 0 166 37 166 148c0 130 -53 157 -165 157h-107z" />
    <glyph glyph-name="S" unicode="S" horiz-adv-x="531" 
d="M393 544c-12 56 -37 115 -133 115c-67 0 -129 -38 -129 -118c0 -168 337 -169 337 -371c0 -129 -95 -182 -203 -182c-72 0 -149 32 -197 82c-5 5 -8 14 -8 21c0 15 12 30 27 30c6 0 13 -3 20 -10c37 -40 102 -70 160 -70c77 0 142 37 142 121c0 165 -337 169 -337 373
c0 130 102 177 191 177c123 0 178 -83 187 -161c2 -16 -3 -34 -28 -34c-16 0 -25 9 -29 27z" />
    <glyph glyph-name="T" unicode="T" horiz-adv-x="540" 
d="M241 644h-193c-16 0 -23 12 -23 28c0 15 7 28 22 28h445c16 0 23 -13 23 -28c0 -16 -7 -28 -23 -28h-193v-627c0 -17 -13 -24 -29 -24s-29 7 -29 24v627z" />
    <glyph glyph-name="U" unicode="U" horiz-adv-x="660" 
d="M508 683c0 17 13 24 29 24s28 -7 28 -24v-459c0 -146 -74 -236 -234 -236c-163 0 -236 90 -236 236v459c0 17 13 24 29 24s29 -7 29 -24v-458c0 -113 46 -184 178 -184c130 0 177 67 177 184v458z" />
    <glyph glyph-name="V" unicode="V" horiz-adv-x="568" 
d="M284 81l194 600c5 17 16 26 33 26c14 0 25 -9 25 -22c0 -3 0 -5 -1 -8l-216 -659c-4 -12 -12 -18 -24 -18h-19c-14 0 -24 6 -28 17l-215 659c-1 3 -1 6 -1 8c0 15 14 23 28 23c16 0 27 -8 33 -27z" />
    <glyph glyph-name="W" unicode="W" horiz-adv-x="864" 
d="M432 616l-158 -598c-3 -12 -12 -18 -24 -18h-26c-14 0 -25 6 -28 17l-167 659c-1 3 -1 5 -1 7c0 15 14 24 28 24c16 0 29 -8 34 -27l144 -603l155 603c3 11 14 20 27 20h32c11 0 23 -9 26 -20l156 -603l144 604c4 17 19 26 36 26c15 0 26 -10 26 -24c0 -2 0 -3 -1 -6
l-167 -659c-4 -14 -12 -18 -24 -18h-26c-14 0 -25 6 -28 17z" />
    <glyph glyph-name="X" unicode="X" horiz-adv-x="545" 
d="M275 405l174 276c9 15 16 26 37 26c16 0 26 -9 26 -20c0 -3 -1 -7 -3 -10l-200 -318l205 -335c2 -4 3 -8 3 -11c0 -13 -11 -20 -28 -20c-21 0 -29 10 -40 27l-177 290l-181 -291c-9 -15 -17 -26 -38 -26c-14 0 -25 8 -25 20c0 3 1 8 2 10l209 334l-192 318
c-2 3 -3 8 -3 11c0 12 12 21 29 21c21 0 29 -10 39 -27z" />
    <glyph glyph-name="Y" unicode="Y" horiz-adv-x="522" 
d="M262 363l169 318c8 16 15 26 36 26c14 0 25 -9 25 -21c0 -3 0 -6 -2 -9l-200 -378v-282c0 -17 -13 -24 -29 -24s-29 7 -29 24v282l-199 377c-2 4 -3 7 -3 10c0 13 14 21 28 21c21 0 29 -9 38 -27z" />
    <glyph glyph-name="Z" unicode="Z" horiz-adv-x="534" 
d="M422 644h-351c-16 0 -23 12 -23 28c0 15 7 28 23 28h404c16 0 24 -11 24 -26c0 -12 -10 -24 -17 -36l-370 -582h351c16 0 23 -12 23 -28c0 -15 -7 -28 -23 -28h-404c-16 0 -24 11 -24 26c0 12 7 18 14 30z" />
    <glyph glyph-name="Agrave" unicode="&#xc0;" horiz-adv-x="531" 
d="M131 210l-59 -193c-5 -16 -16 -24 -32 -24c-17 0 -27 8 -27 20c0 2 0 5 1 8l212 662c3 9 11 17 26 17h30c17 0 20 -8 23 -17l212 -660c1 -3 1 -5 1 -8c0 -13 -11 -22 -29 -22c-17 0 -29 9 -34 26l-60 191h-264zM264 633l-116 -371h231zM228 770l-79 110c-5 6 -7 12 -7 18
c0 12 11 19 24 19c12 0 25 -5 34 -18l80 -117c4 -6 6 -11 6 -16c0 -11 -7 -18 -22 -18s-25 7 -36 22z" />
    <glyph glyph-name="Aacute" unicode="&#xc1;" horiz-adv-x="531" 
d="M131 210l-59 -193c-5 -16 -16 -24 -32 -24c-17 0 -27 8 -27 20c0 2 0 5 1 8l212 662c3 9 11 17 26 17h30c17 0 20 -8 23 -17l212 -660c1 -3 1 -5 1 -8c0 -13 -11 -22 -29 -22c-17 0 -29 9 -34 26l-60 191h-264zM264 633l-116 -371h231zM383 880l-79 -110
c-11 -15 -20 -22 -36 -22c-12 0 -22 7 -22 18c0 5 2 10 6 16l80 117c9 13 22 18 34 18c13 0 24 -7 24 -19c0 -6 -2 -12 -7 -18z" />
    <glyph glyph-name="Acircumflex" unicode="&#xc2;" horiz-adv-x="531" 
d="M131 210l-59 -193c-5 -16 -16 -24 -32 -24c-17 0 -27 8 -27 20c0 2 0 5 1 8l212 662c3 9 11 17 26 17h30c17 0 20 -8 23 -17l212 -660c1 -3 1 -5 1 -8c0 -13 -11 -22 -29 -22c-17 0 -29 9 -34 26l-60 191h-264zM264 633l-116 -371h231zM265 864l-56 -94
c-8 -13 -13 -22 -33 -22c-13 0 -21 6 -21 13c0 3 1 7 3 10l71 128c5 10 11 13 22 13h28c11 0 17 -3 22 -13l71 -128c2 -3 3 -7 3 -10c0 -7 -8 -13 -21 -13c-20 0 -25 9 -33 22z" />
    <glyph glyph-name="Atilde" unicode="&#xc3;" horiz-adv-x="531" 
d="M131 210l-59 -193c-5 -16 -16 -24 -32 -24c-17 0 -27 8 -27 20c0 2 0 5 1 8l212 662c3 9 11 17 26 17h30c17 0 20 -8 23 -17l212 -660c1 -3 1 -5 1 -8c0 -13 -11 -22 -29 -22c-17 0 -29 9 -34 26l-60 191h-264zM264 633l-116 -371h231zM320 792c-35 0 -79 37 -109 37
c-16 0 -25 -11 -30 -24c-4 -11 -13 -16 -22 -16c-15 0 -22 10 -22 22c0 3 1 6 2 9c12 30 32 56 68 56c45 0 79 -36 112 -36c16 0 25 11 30 24c4 11 13 16 22 16c15 0 22 -10 22 -22c0 -3 -1 -6 -2 -9c-12 -30 -35 -57 -71 -57z" />
    <glyph glyph-name="Adieresis" unicode="&#xc4;" horiz-adv-x="531" 
d="M131 210l-59 -193c-5 -16 -16 -24 -32 -24c-17 0 -27 8 -27 20c0 2 0 5 1 8l212 662c3 9 11 17 26 17h30c17 0 20 -8 23 -17l212 -660c1 -3 1 -5 1 -8c0 -13 -11 -22 -29 -22c-17 0 -29 9 -34 26l-60 191h-264zM264 633l-116 -371h231zM165 856c0 14 14 20 28 20
s29 -6 29 -20v-46c0 -14 -15 -20 -29 -20s-28 6 -28 20v46zM308 856c0 14 14 20 28 20s29 -6 29 -20v-46c0 -14 -15 -20 -29 -20s-28 6 -28 20v46z" />
    <glyph glyph-name="Amacron" unicode="&#x100;" horiz-adv-x="531" 
d="M131 210l-59 -193c-5 -16 -16 -24 -32 -24c-17 0 -27 8 -27 20c0 2 0 5 1 8l212 662c3 9 11 17 26 17h30c17 0 20 -8 23 -17l212 -660c1 -3 1 -5 1 -8c0 -13 -11 -22 -29 -22c-17 0 -29 9 -34 26l-60 191h-264zM264 633l-116 -371h231zM162 808c-15 0 -21 11 -21 25
c0 13 6 25 21 25h208c13 0 20 -12 20 -25c0 -14 -7 -25 -20 -25h-208z" />
    <glyph glyph-name="Abreve" unicode="&#x102;" horiz-adv-x="531" 
d="M131 210l-59 -193c-5 -16 -16 -24 -32 -24c-17 0 -27 8 -27 20c0 2 0 5 1 8l212 662c3 9 11 17 26 17h30c17 0 20 -8 23 -17l212 -660c1 -3 1 -5 1 -8c0 -13 -11 -22 -29 -22c-17 0 -29 9 -34 26l-60 191h-264zM264 633l-116 -371h231zM265 777c-66 0 -116 46 -116 95
c0 12 9 18 22 18c15 0 20 -5 25 -19c10 -30 34 -45 69 -45s59 15 69 45c5 14 10 19 25 19c13 0 22 -6 22 -18c0 -49 -50 -95 -116 -95z" />
    <glyph glyph-name="Aring" unicode="&#xc5;" horiz-adv-x="531" 
d="M131 210l-59 -193c-5 -16 -16 -24 -32 -24c-17 0 -27 8 -27 20c0 2 0 5 1 8l212 662c3 9 11 17 26 17h30c17 0 20 -8 23 -17l212 -660c1 -3 1 -5 1 -8c0 -13 -11 -22 -29 -22c-17 0 -29 9 -34 26l-60 191h-264zM264 633l-116 -371h231zM180 832c0 46 37 81 85 81
s86 -35 86 -81s-38 -80 -86 -80s-85 34 -85 80zM265 872c-24 0 -39 -15 -39 -40c0 -24 15 -39 39 -39s40 15 40 39s-16 40 -40 40z" />
    <glyph glyph-name="Aringacute" unicode="&#x1fa;" horiz-adv-x="531" 
d="M180 832c0 38 25 68 61 78l75 109c9 13 22 18 34 18c13 0 24 -7 24 -19c0 -6 -2 -12 -7 -18l-71 -93c32 -11 55 -40 55 -75c0 -46 -38 -80 -86 -80s-85 34 -85 80zM265 872c-24 0 -39 -15 -39 -40c0 -24 15 -39 39 -39s40 15 40 39s-16 40 -40 40zM131 210l-59 -193
c-5 -16 -16 -24 -32 -24c-17 0 -27 8 -27 20c0 2 0 5 1 8l212 662c3 9 11 17 26 17h30c17 0 20 -8 23 -17l212 -660c1 -3 1 -5 1 -8c0 -13 -11 -22 -29 -22c-17 0 -29 9 -34 26l-60 191h-264zM264 633l-116 -371h231z" />
    <glyph glyph-name="Aogonek" unicode="&#x104;" horiz-adv-x="531" 
d="M131 210l-59 -193c-5 -16 -16 -24 -32 -24c-17 0 -27 8 -27 20c0 2 0 5 1 8l212 662c3 9 11 17 26 17h30c17 0 20 -8 23 -17l212 -660c1 -3 1 -5 1 -8c0 -6 -2 -12 -6 -15c-28 -25 -55 -52 -55 -90c0 -22 14 -36 38 -36c10 0 21 2 31 10c8 6 11 8 18 8c5 0 8 -1 13 -5
c4 -4 8 -12 8 -19s-3 -14 -12 -22c-17 -13 -40 -21 -64 -21c-54 0 -81 36 -81 80c0 41 20 73 53 95l3 2c-4 4 -7 10 -9 17l-60 191h-264zM264 633l-116 -371h231z" />
    <glyph glyph-name="AE" unicode="&#xc6;" horiz-adv-x="807" 
d="M437 644v-254h266c16 0 23 -13 23 -28c0 -16 -7 -27 -23 -27h-266v-279h292c16 0 23 -13 23 -28c0 -16 -7 -28 -23 -28h-321c-16 0 -29 7 -29 24v186h-247l-115 -194c-8 -13 -15 -23 -39 -23c-15 0 -23 9 -23 19c0 3 0 6 2 9l390 654c11 19 20 25 38 25h330
c16 0 23 -13 23 -28c0 -16 -7 -28 -23 -28h-278zM379 629l-216 -367h216v367z" />
    <glyph glyph-name="AEacute" unicode="&#x1fc;" horiz-adv-x="807" 
d="M437 644v-254h266c16 0 23 -13 23 -28c0 -16 -7 -27 -23 -27h-266v-279h292c16 0 23 -13 23 -28c0 -16 -7 -28 -23 -28h-321c-16 0 -29 7 -29 24v186h-247l-115 -194c-8 -13 -15 -23 -39 -23c-15 0 -23 9 -23 19c0 3 0 6 2 9l390 654c11 19 20 25 38 25h330
c16 0 23 -13 23 -28c0 -16 -7 -28 -23 -28h-278zM379 629l-216 -367h216v367zM581 880l-79 -110c-11 -15 -20 -22 -36 -22c-12 0 -22 7 -22 18c0 5 2 10 6 16l80 117c9 13 22 18 34 18c13 0 24 -7 24 -19c0 -6 -2 -12 -7 -18z" />
    <glyph glyph-name="Cacute" unicode="&#x106;" horiz-adv-x="549" 
d="M486 549v-4c0 -15 -7 -29 -28 -29c-15 0 -25 8 -29 25c-12 57 -37 118 -134 118c-133 0 -175 -81 -175 -310c0 -227 65 -308 196 -308c60 0 102 15 138 33c6 3 12 5 18 5c15 0 21 -13 21 -28c0 -12 -6 -19 -21 -26c-40 -20 -92 -37 -159 -37c-161 0 -253 99 -253 360
c0 264 71 364 238 364c126 0 177 -84 188 -163zM412 881l-79 -110c-11 -15 -20 -22 -36 -22c-12 0 -22 7 -22 18c0 5 2 10 6 16l80 117c9 13 22 18 34 18c13 0 24 -7 24 -19c0 -6 -2 -12 -7 -18z" />
    <glyph glyph-name="Ccircumflex" unicode="&#x108;" horiz-adv-x="549" 
d="M486 549v-4c0 -15 -7 -29 -28 -29c-15 0 -25 8 -29 25c-12 57 -37 118 -134 118c-133 0 -175 -81 -175 -310c0 -227 65 -308 196 -308c60 0 102 15 138 33c6 3 12 5 18 5c15 0 21 -13 21 -28c0 -12 -6 -19 -21 -26c-40 -20 -92 -37 -159 -37c-161 0 -253 99 -253 360
c0 264 71 364 238 364c126 0 177 -84 188 -163zM293 864l-56 -94c-8 -13 -13 -22 -33 -22c-13 0 -21 6 -21 13c0 3 1 7 3 10l71 128c5 10 11 13 22 13h28c11 0 17 -3 22 -13l71 -128c2 -3 3 -7 3 -10c0 -7 -8 -13 -21 -13c-20 0 -25 9 -33 22z" />
    <glyph glyph-name="Ccaron" unicode="&#x10c;" horiz-adv-x="549" 
d="M486 549v-4c0 -15 -7 -29 -28 -29c-15 0 -25 8 -29 25c-12 57 -37 118 -134 118c-133 0 -175 -81 -175 -310c0 -227 65 -308 196 -308c60 0 102 15 138 33c6 3 12 5 18 5c15 0 21 -13 21 -28c0 -12 -6 -19 -21 -26c-40 -20 -92 -37 -159 -37c-161 0 -253 99 -253 360
c0 264 71 364 238 364c126 0 177 -84 188 -163zM294 801l56 94c8 13 13 22 33 22c13 0 21 -6 21 -13c0 -3 -1 -7 -3 -10l-71 -128c-5 -10 -11 -13 -22 -13h-28c-11 0 -17 3 -22 13l-71 128c-2 3 -3 7 -3 10c0 7 8 13 21 13c20 0 25 -9 33 -22z" />
    <glyph glyph-name="Cdotaccent" unicode="&#x10a;" horiz-adv-x="549" 
d="M486 549v-4c0 -15 -7 -29 -28 -29c-15 0 -25 8 -29 25c-12 57 -37 118 -134 118c-133 0 -175 -81 -175 -310c0 -227 65 -308 196 -308c60 0 102 15 138 33c6 3 12 5 18 5c15 0 21 -13 21 -28c0 -12 -6 -19 -21 -26c-40 -20 -92 -37 -159 -37c-161 0 -253 99 -253 360
c0 264 71 364 238 364c126 0 177 -84 188 -163zM266 856c0 14 14 20 28 20s29 -6 29 -20v-46c0 -14 -15 -20 -29 -20s-28 6 -28 20v46z" />
    <glyph glyph-name="Ccedilla" unicode="&#xc7;" horiz-adv-x="549" 
d="M458 516c-15 0 -25 8 -29 25c-12 57 -37 118 -134 118c-133 0 -175 -81 -175 -310c0 -227 65 -308 196 -308c60 0 102 15 138 33c6 3 12 5 18 5c15 0 21 -13 21 -28c0 -12 -6 -19 -21 -26c-36 -18 -81 -33 -138 -36c12 -26 17 -48 17 -72c0 -62 -36 -94 -89 -94
c-28 0 -52 9 -70 25c-8 8 -9 13 -9 20c0 12 9 25 22 25c10 0 13 -4 23 -11c9 -6 20 -9 30 -9c29 0 43 13 43 50c0 18 -6 42 -17 66c-143 11 -224 114 -224 359c0 264 71 364 238 364c126 0 177 -84 188 -163v-4c0 -15 -7 -29 -28 -29z" />
    <glyph glyph-name="Dcaron" unicode="&#x10e;" horiz-adv-x="628" 
d="M105 676c0 17 13 24 29 24h161c178 0 273 -99 273 -341c0 -259 -110 -359 -275 -359h-159c-16 0 -29 7 -29 24v652zM163 644v-588h126c132 0 219 79 219 304c0 206 -81 284 -219 284h-126zM324 801l56 94c8 13 13 22 33 22c13 0 21 -6 21 -13c0 -3 -1 -7 -3 -10l-71 -128
c-5 -10 -11 -13 -22 -13h-28c-11 0 -17 3 -22 13l-71 128c-2 3 -3 7 -3 10c0 7 8 13 21 13c20 0 25 -9 33 -22z" />
    <glyph glyph-name="Dcroat" unicode="&#x110;" horiz-adv-x="628" 
d="M32 330c-16 0 -22 11 -22 26c0 14 6 27 22 27h73v293c0 17 13 24 29 24h161c178 0 273 -99 273 -341c0 -259 -110 -359 -275 -359h-159c-16 0 -29 7 -29 24v306h-73zM163 644v-261h161c14 0 22 -13 22 -27c0 -15 -8 -26 -22 -26h-161v-274h126c132 0 219 79 219 304
c0 206 -81 284 -219 284h-126z" />
    <glyph glyph-name="Egrave" unicode="&#xc8;" horiz-adv-x="533" 
d="M163 644v-254h266c16 0 23 -13 23 -28c0 -16 -7 -27 -23 -27h-266v-279h292c16 0 23 -13 23 -28c0 -16 -7 -28 -23 -28h-321c-16 0 -29 7 -29 24v652c0 17 13 24 29 24h307c16 0 23 -13 23 -28c0 -16 -7 -28 -23 -28h-278zM244 770l-79 110c-5 6 -7 12 -7 18
c0 12 11 19 24 19c12 0 25 -5 34 -18l80 -117c4 -6 6 -11 6 -16c0 -11 -7 -18 -22 -18s-25 7 -36 22z" />
    <glyph glyph-name="Eacute" unicode="&#xc9;" horiz-adv-x="533" 
d="M163 644v-254h266c16 0 23 -13 23 -28c0 -16 -7 -27 -23 -27h-266v-279h292c16 0 23 -13 23 -28c0 -16 -7 -28 -23 -28h-321c-16 0 -29 7 -29 24v652c0 17 13 24 29 24h307c16 0 23 -13 23 -28c0 -16 -7 -28 -23 -28h-278zM397 880l-79 -110c-11 -15 -20 -22 -36 -22
c-12 0 -22 7 -22 18c0 5 2 10 6 16l80 117c9 13 22 18 34 18c13 0 24 -7 24 -19c0 -6 -2 -12 -7 -18z" />
    <glyph glyph-name="Ecircumflex" unicode="&#xca;" horiz-adv-x="533" 
d="M163 644v-254h266c16 0 23 -13 23 -28c0 -16 -7 -27 -23 -27h-266v-279h292c16 0 23 -13 23 -28c0 -16 -7 -28 -23 -28h-321c-16 0 -29 7 -29 24v652c0 17 13 24 29 24h307c16 0 23 -13 23 -28c0 -16 -7 -28 -23 -28h-278zM282 864l-56 -94c-8 -13 -13 -22 -33 -22
c-13 0 -21 6 -21 13c0 3 1 7 3 10l71 128c5 10 11 13 22 13h28c11 0 17 -3 22 -13l71 -128c2 -3 3 -7 3 -10c0 -7 -8 -13 -21 -13c-20 0 -25 9 -33 22z" />
    <glyph glyph-name="Ecaron" unicode="&#x11a;" horiz-adv-x="533" 
d="M163 644v-254h266c16 0 23 -13 23 -28c0 -16 -7 -27 -23 -27h-266v-279h292c16 0 23 -13 23 -28c0 -16 -7 -28 -23 -28h-321c-16 0 -29 7 -29 24v652c0 17 13 24 29 24h307c16 0 23 -13 23 -28c0 -16 -7 -28 -23 -28h-278zM266 801l56 94c8 13 13 22 33 22
c13 0 21 -6 21 -13c0 -3 -1 -7 -3 -10l-71 -128c-5 -10 -11 -13 -22 -13h-28c-11 0 -17 3 -22 13l-71 128c-2 3 -3 7 -3 10c0 7 8 13 21 13c20 0 25 -9 33 -22z" />
    <glyph glyph-name="Edieresis" unicode="&#xcb;" horiz-adv-x="533" 
d="M163 644v-254h266c16 0 23 -13 23 -28c0 -16 -7 -27 -23 -27h-266v-279h292c16 0 23 -13 23 -28c0 -16 -7 -28 -23 -28h-321c-16 0 -29 7 -29 24v652c0 17 13 24 29 24h307c16 0 23 -13 23 -28c0 -16 -7 -28 -23 -28h-278zM182 856c0 14 14 20 28 20s29 -6 29 -20v-46
c0 -14 -15 -20 -29 -20s-28 6 -28 20v46zM325 856c0 14 14 20 28 20s29 -6 29 -20v-46c0 -14 -15 -20 -29 -20s-28 6 -28 20v46z" />
    <glyph glyph-name="Emacron" unicode="&#x112;" horiz-adv-x="533" 
d="M163 644v-254h266c16 0 23 -13 23 -28c0 -16 -7 -27 -23 -27h-266v-279h292c16 0 23 -13 23 -28c0 -16 -7 -28 -23 -28h-321c-16 0 -29 7 -29 24v652c0 17 13 24 29 24h307c16 0 23 -13 23 -28c0 -16 -7 -28 -23 -28h-278zM163 819c-15 0 -21 11 -21 25c0 13 6 25 21 25
h208c13 0 20 -12 20 -25c0 -14 -7 -25 -20 -25h-208z" />
    <glyph glyph-name="Ebreve" unicode="&#x114;" horiz-adv-x="533" 
d="M163 644v-254h266c16 0 23 -13 23 -28c0 -16 -7 -27 -23 -27h-266v-279h292c16 0 23 -13 23 -28c0 -16 -7 -28 -23 -28h-321c-16 0 -29 7 -29 24v652c0 17 13 24 29 24h307c16 0 23 -13 23 -28c0 -16 -7 -28 -23 -28h-278zM266 789c-66 0 -116 46 -116 95
c0 12 9 18 22 18c15 0 20 -5 25 -19c10 -30 34 -45 69 -45s59 15 69 45c5 14 10 19 25 19c13 0 22 -6 22 -18c0 -49 -50 -95 -116 -95z" />
    <glyph glyph-name="Edotaccent" unicode="&#x116;" horiz-adv-x="533" 
d="M163 644v-254h266c16 0 23 -13 23 -28c0 -16 -7 -27 -23 -27h-266v-279h292c16 0 23 -13 23 -28c0 -16 -7 -28 -23 -28h-321c-16 0 -29 7 -29 24v652c0 17 13 24 29 24h307c16 0 23 -13 23 -28c0 -16 -7 -28 -23 -28h-278zM238 868c0 14 14 20 28 20s29 -6 29 -20v-46
c0 -14 -15 -20 -29 -20s-28 6 -28 20v46z" />
    <glyph glyph-name="Eogonek" unicode="&#x118;" horiz-adv-x="533" 
d="M374 0h-240c-16 0 -29 7 -29 24v652c0 17 13 24 29 24h307c16 0 23 -13 23 -28c0 -16 -7 -28 -23 -28h-278v-254h266c16 0 23 -13 23 -28c0 -16 -7 -27 -23 -27h-266v-279h292c16 0 23 -13 23 -28c0 -16 -7 -28 -23 -28h-24c-33 -24 -61 -52 -61 -90c0 -22 14 -36 38 -36
c10 0 21 2 31 10c8 6 11 8 18 8c5 0 8 -1 13 -5c4 -4 8 -12 8 -19s-3 -14 -12 -22c-17 -13 -40 -21 -64 -21c-54 0 -81 36 -81 80c0 41 20 73 53 95z" />
    <glyph glyph-name="Gcircumflex" unicode="&#x11c;" horiz-adv-x="647" 
d="M499 306h-157c-16 0 -23 12 -23 28c0 15 7 28 23 28h192c16 0 23 -13 23 -28v-318c0 -16 -13 -23 -28 -23s-28 7 -28 23v31c-38 -30 -111 -59 -179 -59c-162 0 -262 105 -262 374c0 250 101 350 274 350c130 0 201 -85 213 -162v-6c0 -18 -12 -28 -27 -28
c-19 0 -25 6 -31 27c-15 55 -56 116 -158 116c-139 0 -211 -81 -211 -299c0 -236 74 -319 208 -319c72 0 135 35 171 65v200zM323 864l-56 -94c-8 -13 -13 -22 -33 -22c-13 0 -21 6 -21 13c0 3 1 7 3 10l71 128c5 10 11 13 22 13h28c11 0 17 -3 22 -13l71 -128
c2 -3 3 -7 3 -10c0 -7 -8 -13 -21 -13c-20 0 -25 9 -33 22z" />
    <glyph glyph-name="Gbreve" unicode="&#x11e;" horiz-adv-x="647" 
d="M499 306h-157c-16 0 -23 12 -23 28c0 15 7 28 23 28h192c16 0 23 -13 23 -28v-318c0 -16 -13 -23 -28 -23s-28 7 -28 23v31c-38 -30 -111 -59 -179 -59c-162 0 -262 105 -262 374c0 250 101 350 274 350c130 0 201 -85 213 -162v-6c0 -18 -12 -28 -27 -28
c-19 0 -25 6 -31 27c-15 55 -56 116 -158 116c-139 0 -211 -81 -211 -299c0 -236 74 -319 208 -319c72 0 135 35 171 65v200zM323 776c-66 0 -116 46 -116 95c0 12 9 18 22 18c15 0 20 -5 25 -19c10 -30 34 -45 69 -45s59 15 69 45c5 14 10 19 25 19c13 0 22 -6 22 -18
c0 -49 -50 -95 -116 -95z" />
    <glyph glyph-name="Gdotaccent" unicode="&#x120;" horiz-adv-x="647" 
d="M499 306h-157c-16 0 -23 12 -23 28c0 15 7 28 23 28h192c16 0 23 -13 23 -28v-318c0 -16 -13 -23 -28 -23s-28 7 -28 23v31c-38 -30 -111 -59 -179 -59c-162 0 -262 105 -262 374c0 250 101 350 274 350c130 0 201 -85 213 -162v-6c0 -18 -12 -28 -27 -28
c-19 0 -25 6 -31 27c-15 55 -56 116 -158 116c-139 0 -211 -81 -211 -299c0 -236 74 -319 208 -319c72 0 135 35 171 65v200zM295 856c0 14 14 20 28 20s29 -6 29 -20v-46c0 -14 -15 -20 -29 -20s-28 6 -28 20v46z" />
    <glyph glyph-name="Gcommaaccent" unicode="&#x122;" horiz-adv-x="647" 
d="M499 306h-157c-16 0 -23 12 -23 28c0 15 7 28 23 28h192c16 0 23 -13 23 -28v-318c0 -16 -13 -23 -28 -23s-28 7 -28 23v31c-38 -30 -111 -59 -179 -59c-162 0 -262 105 -262 374c0 250 101 350 274 350c130 0 201 -85 213 -162v-6c0 -18 -12 -28 -27 -28
c-19 0 -25 6 -31 27c-15 55 -56 116 -158 116c-139 0 -211 -81 -211 -299c0 -236 74 -319 208 -319c72 0 135 35 171 65v200zM338 -72l-79 -110c-11 -15 -20 -22 -36 -22c-12 0 -22 7 -22 18c0 5 2 10 6 16l80 117c9 13 22 18 34 18c13 0 24 -7 24 -19c0 -6 -2 -12 -7 -18z
" />
    <glyph glyph-name="Hcircumflex" unicode="&#x124;" horiz-adv-x="675" 
d="M512 683c0 17 13 24 29 24s29 -7 29 -24v-666c0 -17 -13 -24 -29 -24s-29 7 -29 24v316h-349v-316c0 -17 -13 -24 -29 -24s-29 7 -29 24v666c0 17 13 24 29 24s29 -7 29 -24v-294h349v294zM337 864l-56 -94c-8 -13 -13 -22 -33 -22c-13 0 -21 6 -21 13c0 3 1 7 3 10
l71 128c5 10 11 13 22 13h28c11 0 17 -3 22 -13l71 -128c2 -3 3 -7 3 -10c0 -7 -8 -13 -21 -13c-20 0 -25 9 -33 22z" />
    <glyph glyph-name="Hbar" unicode="&#x126;" horiz-adv-x="675" 
d="M512 683c0 17 13 24 29 24s29 -7 29 -24v-108h76c12 0 19 -12 19 -24c0 -13 -7 -24 -19 -24h-76v-510c0 -17 -13 -24 -29 -24s-29 7 -29 24v316h-349v-316c0 -17 -13 -24 -29 -24s-29 7 -29 24v510h-75c-14 0 -20 11 -20 24c0 12 6 24 20 24h75v108c0 17 13 24 29 24
s29 -7 29 -24v-108h349v108zM163 389h349v138h-349v-138z" />
    <glyph glyph-name="Igrave" unicode="&#xcc;" horiz-adv-x="268" 
d="M105 683c0 17 13 24 29 24s29 -7 29 -24v-666c0 -17 -13 -24 -29 -24s-29 7 -29 24v666zM95 770l-79 110c-5 6 -7 12 -7 18c0 12 11 19 24 19c12 0 25 -5 34 -18l80 -117c4 -6 6 -11 6 -16c0 -11 -7 -18 -22 -18s-25 7 -36 22z" />
    <glyph glyph-name="Iacute" unicode="&#xcd;" horiz-adv-x="268" 
d="M105 683c0 17 13 24 29 24s29 -7 29 -24v-666c0 -17 -13 -24 -29 -24s-29 7 -29 24v666zM254 880l-79 -110c-11 -15 -20 -22 -36 -22c-12 0 -22 7 -22 18c0 5 2 10 6 16l80 117c9 13 22 18 34 18c13 0 24 -7 24 -19c0 -6 -2 -12 -7 -18z" />
    <glyph glyph-name="Icircumflex" unicode="&#xce;" horiz-adv-x="268" 
d="M105 683c0 17 13 24 29 24s29 -7 29 -24v-666c0 -17 -13 -24 -29 -24s-29 7 -29 24v666zM134 864l-56 -94c-8 -13 -13 -22 -33 -22c-13 0 -21 6 -21 13c0 3 1 7 3 10l71 128c5 10 11 13 22 13h28c11 0 17 -3 22 -13l71 -128c2 -3 3 -7 3 -10c0 -7 -8 -13 -21 -13
c-20 0 -25 9 -33 22z" />
    <glyph glyph-name="Itilde" unicode="&#x128;" horiz-adv-x="268" 
d="M105 683c0 17 13 24 29 24s29 -7 29 -24v-666c0 -17 -13 -24 -29 -24s-29 7 -29 24v666zM189 793c-35 0 -79 37 -109 37c-16 0 -25 -11 -30 -24c-4 -11 -13 -16 -22 -16c-15 0 -22 10 -22 22c0 3 1 6 2 9c12 30 32 56 68 56c45 0 79 -36 112 -36c16 0 25 11 30 24
c4 11 13 16 22 16c15 0 22 -10 22 -22c0 -3 -1 -6 -2 -9c-12 -30 -35 -57 -71 -57z" />
    <glyph glyph-name="Idieresis" unicode="&#xcf;" horiz-adv-x="268" 
d="M105 683c0 17 13 24 29 24s29 -7 29 -24v-666c0 -17 -13 -24 -29 -24s-29 7 -29 24v666zM34 856c0 14 14 20 28 20s29 -6 29 -20v-46c0 -14 -15 -20 -29 -20s-28 6 -28 20v46zM177 856c0 14 14 20 28 20s29 -6 29 -20v-46c0 -14 -15 -20 -29 -20s-28 6 -28 20v46z" />
    <glyph glyph-name="Imacron" horiz-adv-x="268" 
d="M105 683c0 17 13 24 29 24s29 -7 29 -24v-666c0 -17 -13 -24 -29 -24s-29 7 -29 24v666zM31 808c-15 0 -21 11 -21 25c0 13 6 25 21 25h208c13 0 20 -12 20 -25c0 -14 -7 -25 -20 -25h-208z" />
    <glyph glyph-name="Ibreve" unicode="&#x12c;" horiz-adv-x="268" 
d="M105 683c0 17 13 24 29 24s29 -7 29 -24v-666c0 -17 -13 -24 -29 -24s-29 7 -29 24v666zM134 777c-66 0 -116 46 -116 95c0 12 9 18 22 18c15 0 20 -5 25 -19c10 -30 34 -45 69 -45s59 15 69 45c5 14 10 19 25 19c13 0 22 -6 22 -18c0 -49 -50 -95 -116 -95z" />
    <glyph glyph-name="Idotaccent" unicode="&#x130;" horiz-adv-x="268" 
d="M105 683c0 17 13 24 29 24s29 -7 29 -24v-666c0 -17 -13 -24 -29 -24s-29 7 -29 24v666zM106 856c0 14 14 20 28 20s29 -6 29 -20v-46c0 -14 -15 -20 -29 -20s-28 6 -28 20v46z" />
    <glyph glyph-name="Iogonek" unicode="&#x12e;" horiz-adv-x="268" 
d="M105 683c0 17 13 24 29 24s29 -7 29 -24v-666c0 -10 -5 -16 -10 -21c-31 -28 -51 -52 -51 -86c0 -22 14 -36 38 -36c10 0 21 2 31 10c8 6 11 8 18 8c5 0 8 -1 13 -5c4 -4 8 -12 8 -19s-3 -14 -12 -22c-17 -13 -40 -21 -64 -21c-54 0 -81 36 -81 80c0 41 20 73 53 95l3 2
c-3 4 -4 9 -4 15v666z" />
    <glyph glyph-name="Jcircumflex" unicode="&#x134;" horiz-adv-x="293" 
d="M130 683c0 17 13 24 29 24s29 -7 29 -24v-583c0 -67 -37 -112 -104 -112c-34 0 -84 13 -84 44c0 15 9 27 21 27c3 0 6 -1 9 -2c13 -7 29 -16 54 -16c31 0 46 19 46 63v579zM160 864l-56 -94c-8 -13 -13 -22 -33 -22c-13 0 -21 6 -21 13c0 3 1 7 3 10l71 128
c5 10 11 13 22 13h28c11 0 17 -3 22 -13l71 -128c2 -3 3 -7 3 -10c0 -7 -8 -13 -21 -13c-20 0 -25 9 -33 22z" />
    <glyph glyph-name="Kcommaaccent" unicode="&#x136;" horiz-adv-x="545" 
d="M105 683c0 17 13 24 29 24s29 -7 29 -24v-370l274 370c12 16 22 24 40 24c15 0 22 -8 22 -18c0 -5 -2 -11 -6 -17l-199 -272l222 -375c2 -3 3 -6 3 -10c0 -11 -8 -22 -25 -22c-22 0 -30 8 -40 26l-198 332l-93 -127v-207c0 -17 -13 -24 -29 -24s-29 7 -29 24v666z
M344 -72l-79 -110c-11 -15 -20 -22 -36 -22c-12 0 -22 7 -22 18c0 5 2 10 6 16l80 117c9 13 22 18 34 18c13 0 24 -7 24 -19c0 -6 -2 -12 -7 -18z" />
    <glyph glyph-name="Lacute" unicode="&#x139;" horiz-adv-x="455" 
d="M105 683c0 17 13 24 29 24s29 -7 29 -24v-627h259c16 0 23 -13 23 -28c0 -16 -7 -28 -23 -28h-289c-16 0 -28 7 -28 24v659zM254 880l-79 -110c-11 -15 -20 -22 -36 -22c-12 0 -22 7 -22 18c0 5 2 10 6 16l80 117c9 13 22 18 34 18c13 0 24 -7 24 -19c0 -6 -2 -12 -7 -18
z" />
    <glyph glyph-name="Lcaron" unicode="&#x13d;" horiz-adv-x="455" 
d="M105 683c0 17 13 24 29 24s29 -7 29 -24v-627h259c16 0 23 -13 23 -28c0 -16 -7 -28 -23 -28h-289c-16 0 -28 7 -28 24v659zM134 801l56 94c8 13 13 22 33 22c13 0 21 -6 21 -13c0 -3 -1 -7 -3 -10l-71 -128c-5 -10 -11 -13 -22 -13h-28c-11 0 -17 3 -22 13l-71 128
c-2 3 -3 7 -3 10c0 7 8 13 21 13c20 0 25 -9 33 -22z" />
    <glyph glyph-name="Lcommaaccent" unicode="&#x13b;" horiz-adv-x="455" 
d="M105 683c0 17 13 24 29 24s29 -7 29 -24v-627h259c16 0 23 -13 23 -28c0 -16 -7 -28 -23 -28h-289c-16 0 -28 7 -28 24v659zM293 -72l-79 -110c-11 -15 -20 -22 -36 -22c-12 0 -22 7 -22 18c0 5 2 10 6 16l80 117c9 13 22 18 34 18c13 0 24 -7 24 -19c0 -6 -2 -12 -7 -18
z" />
    <glyph glyph-name="Lslash" unicode="&#x141;" horiz-adv-x="455" 
d="M105 354v329c0 17 13 24 29 24s29 -7 29 -24v-305l172 73c5 2 10 3 14 3c13 0 19 -10 19 -24c0 -15 -9 -25 -23 -31l-182 -78v-265h259c16 0 23 -13 23 -28c0 -16 -7 -28 -23 -28h-289c-16 0 -28 7 -28 24v273l-60 -25c-6 -2 -10 -3 -15 -3c-13 0 -19 11 -19 23
c0 13 7 25 23 32z" />
    <glyph glyph-name="Nacute" unicode="&#x143;" horiz-adv-x="690" 
d="M161 585v-568c0 -17 -12 -24 -28 -24s-28 7 -28 24v666c0 17 10 24 26 24c13 0 20 -4 28 -16l370 -569v561c0 17 12 24 28 24s28 -7 28 -24v-666c0 -17 -9 -24 -25 -24c-13 0 -21 4 -32 22zM462 880l-79 -110c-11 -15 -20 -22 -36 -22c-12 0 -22 7 -22 18c0 5 2 10 6 16
l80 117c9 13 22 18 34 18c13 0 24 -7 24 -19c0 -6 -2 -12 -7 -18z" />
    <glyph glyph-name="Ncaron" unicode="&#x147;" horiz-adv-x="690" 
d="M161 585v-568c0 -17 -12 -24 -28 -24s-28 7 -28 24v666c0 17 10 24 26 24c13 0 20 -4 28 -16l370 -569v561c0 17 12 24 28 24s28 -7 28 -24v-666c0 -17 -9 -24 -25 -24c-13 0 -21 4 -32 22zM345 801l56 94c8 13 13 22 33 22c13 0 21 -6 21 -13c0 -3 -1 -7 -3 -10
l-71 -128c-5 -10 -11 -13 -22 -13h-28c-11 0 -17 3 -22 13l-71 128c-2 3 -3 7 -3 10c0 7 8 13 21 13c20 0 25 -9 33 -22z" />
    <glyph glyph-name="Ntilde" unicode="&#xd1;" horiz-adv-x="690" 
d="M161 585v-568c0 -17 -12 -24 -28 -24s-28 7 -28 24v666c0 17 10 24 26 24c13 0 20 -4 28 -16l370 -569v561c0 17 12 24 28 24s28 -7 28 -24v-666c0 -17 -9 -24 -25 -24c-13 0 -21 4 -32 22zM400 792c-35 0 -79 37 -109 37c-16 0 -25 -11 -30 -24c-4 -11 -13 -16 -22 -16
c-15 0 -22 10 -22 22c0 3 1 6 2 9c12 30 32 56 68 56c45 0 79 -36 112 -36c16 0 25 11 30 24c4 11 13 16 22 16c15 0 22 -10 22 -22c0 -3 -1 -6 -2 -9c-12 -30 -35 -57 -71 -57z" />
    <glyph glyph-name="Ncommaaccent" unicode="&#x145;" horiz-adv-x="690" 
d="M161 585v-568c0 -17 -12 -24 -28 -24s-28 7 -28 24v666c0 17 10 24 26 24c13 0 20 -4 28 -16l370 -569v561c0 17 12 24 28 24s28 -7 28 -24v-666c0 -17 -9 -24 -25 -24c-13 0 -21 4 -32 22zM372 -72l-79 -110c-11 -15 -20 -22 -36 -22c-12 0 -22 7 -22 18c0 5 2 10 6 16
l80 117c9 13 22 18 34 18c13 0 24 -7 24 -19c0 -6 -2 -12 -7 -18z" />
    <glyph glyph-name="Ograve" unicode="&#xd2;" horiz-adv-x="621" 
d="M313 712c152 0 248 -100 248 -361c0 -264 -102 -363 -254 -363c-145 0 -247 99 -247 360c0 264 104 364 253 364zM310 659c-117 0 -190 -81 -190 -310c0 -227 73 -308 190 -308c121 0 191 81 191 310c0 227 -70 308 -191 308zM271 770l-79 110c-5 6 -7 12 -7 18
c0 12 11 19 24 19c12 0 25 -5 34 -18l80 -117c4 -6 6 -11 6 -16c0 -11 -7 -18 -22 -18s-25 7 -36 22z" />
    <glyph glyph-name="Oacute" unicode="&#xd3;" horiz-adv-x="621" 
d="M313 712c152 0 248 -100 248 -361c0 -264 -102 -363 -254 -363c-145 0 -247 99 -247 360c0 264 104 364 253 364zM310 659c-117 0 -190 -81 -190 -310c0 -227 73 -308 190 -308c121 0 191 81 191 310c0 227 -70 308 -191 308zM427 880l-79 -110c-11 -15 -20 -22 -36 -22
c-12 0 -22 7 -22 18c0 5 2 10 6 16l80 117c9 13 22 18 34 18c13 0 24 -7 24 -19c0 -6 -2 -12 -7 -18z" />
    <glyph glyph-name="Ocircumflex" unicode="&#xd4;" horiz-adv-x="621" 
d="M313 712c152 0 248 -100 248 -361c0 -264 -102 -363 -254 -363c-145 0 -247 99 -247 360c0 264 104 364 253 364zM310 659c-117 0 -190 -81 -190 -310c0 -227 73 -308 190 -308c121 0 191 81 191 310c0 227 -70 308 -191 308zM310 864l-56 -94c-8 -13 -13 -22 -33 -22
c-13 0 -21 6 -21 13c0 3 1 7 3 10l71 128c5 10 11 13 22 13h28c11 0 17 -3 22 -13l71 -128c2 -3 3 -7 3 -10c0 -7 -8 -13 -21 -13c-20 0 -25 9 -33 22z" />
    <glyph glyph-name="Otilde" unicode="&#xd5;" horiz-adv-x="621" 
d="M313 712c152 0 248 -100 248 -361c0 -264 -102 -363 -254 -363c-145 0 -247 99 -247 360c0 264 104 364 253 364zM310 659c-117 0 -190 -81 -190 -310c0 -227 73 -308 190 -308c121 0 191 81 191 310c0 227 -70 308 -191 308zM365 792c-35 0 -79 37 -109 37
c-16 0 -25 -11 -30 -24c-4 -11 -13 -16 -22 -16c-15 0 -22 10 -22 22c0 3 1 6 2 9c12 30 32 56 68 56c45 0 79 -36 112 -36c16 0 25 11 30 24c4 11 13 16 22 16c15 0 22 -10 22 -22c0 -3 -1 -6 -2 -9c-12 -30 -35 -57 -71 -57z" />
    <glyph glyph-name="Odieresis" unicode="&#xd6;" horiz-adv-x="621" 
d="M313 712c152 0 248 -100 248 -361c0 -264 -102 -363 -254 -363c-145 0 -247 99 -247 360c0 264 104 364 253 364zM310 659c-117 0 -190 -81 -190 -310c0 -227 73 -308 190 -308c121 0 191 81 191 310c0 227 -70 308 -191 308zM210 856c0 14 14 20 28 20s29 -6 29 -20v-46
c0 -14 -15 -20 -29 -20s-28 6 -28 20v46zM353 856c0 14 14 20 28 20s29 -6 29 -20v-46c0 -14 -15 -20 -29 -20s-28 6 -28 20v46z" />
    <glyph glyph-name="Omacron" unicode="&#x14c;" horiz-adv-x="621" 
d="M313 712c152 0 248 -100 248 -361c0 -264 -102 -363 -254 -363c-145 0 -247 99 -247 360c0 264 104 364 253 364zM310 659c-117 0 -190 -81 -190 -310c0 -227 73 -308 190 -308c121 0 191 81 191 310c0 227 -70 308 -191 308zM207 807c-15 0 -21 11 -21 25
c0 13 6 25 21 25h208c13 0 20 -12 20 -25c0 -14 -7 -25 -20 -25h-208z" />
    <glyph glyph-name="Obreve" unicode="&#x14e;" horiz-adv-x="621" 
d="M313 712c152 0 248 -100 248 -361c0 -264 -102 -363 -254 -363c-145 0 -247 99 -247 360c0 264 104 364 253 364zM310 659c-117 0 -190 -81 -190 -310c0 -227 73 -308 190 -308c121 0 191 81 191 310c0 227 -70 308 -191 308zM310 777c-66 0 -116 46 -116 95
c0 12 9 18 22 18c15 0 20 -5 25 -19c10 -30 34 -45 69 -45s59 15 69 45c5 14 10 19 25 19c13 0 22 -6 22 -18c0 -49 -50 -95 -116 -95z" />
    <glyph glyph-name="Ohungarumlaut" unicode="&#x150;" horiz-adv-x="621" 
d="M313 712c152 0 248 -100 248 -361c0 -264 -102 -363 -254 -363c-145 0 -247 99 -247 360c0 264 104 364 253 364zM310 659c-117 0 -190 -81 -190 -310c0 -227 73 -308 190 -308c121 0 191 81 191 310c0 227 -70 308 -191 308zM434 916c15 0 26 -7 26 -19
c0 -3 -1 -9 -3 -12l-64 -115c-8 -15 -14 -22 -30 -22c-12 0 -22 6 -22 15c0 3 1 6 3 10l56 120c8 16 17 23 34 23zM311 917c15 0 24 -7 24 -18c0 -4 -2 -10 -3 -13l-54 -117c-7 -14 -15 -21 -29 -21s-21 6 -21 16c0 2 1 5 2 8l46 119c8 21 19 26 35 26z" />
    <glyph glyph-name="Oslash" unicode="&#xd8;" horiz-adv-x="621" 
d="M473 653l33 53c8 13 14 16 25 16c14 0 25 -8 25 -21c0 -6 -2 -13 -8 -22l-42 -67c35 -58 55 -143 55 -261c0 -264 -102 -363 -254 -363c-64 0 -119 19 -161 62l-34 -54c-7 -12 -16 -17 -25 -17c-12 0 -23 8 -23 22c0 6 2 12 7 20l44 69c-35 57 -55 141 -55 258
c0 264 104 364 253 364c64 0 119 -18 160 -59zM469 555l-291 -455c32 -42 77 -59 132 -59c121 0 191 81 191 310c0 89 -11 156 -32 204zM441 602c-32 40 -76 57 -131 57c-117 0 -190 -81 -190 -310c0 -89 11 -155 31 -203z" />
    <glyph glyph-name="Oslashacute" unicode="&#x1fe;" horiz-adv-x="621" 
d="M473 653l33 53c8 13 14 16 25 16c14 0 25 -8 25 -21c0 -6 -2 -13 -8 -22l-42 -67c35 -58 55 -143 55 -261c0 -264 -102 -363 -254 -363c-64 0 -119 19 -161 62l-34 -54c-7 -12 -16 -17 -25 -17c-12 0 -23 8 -23 22c0 6 2 12 7 20l44 69c-35 57 -55 141 -55 258
c0 264 104 364 253 364c64 0 119 -18 160 -59zM469 555l-291 -455c32 -42 77 -59 132 -59c121 0 191 81 191 310c0 89 -11 156 -32 204zM441 602c-32 40 -76 57 -131 57c-117 0 -190 -81 -190 -310c0 -89 11 -155 31 -203zM427 880l-79 -110c-11 -15 -20 -22 -36 -22
c-12 0 -22 7 -22 18c0 5 2 10 6 16l80 117c9 13 22 18 34 18c13 0 24 -7 24 -19c0 -6 -2 -12 -7 -18z" />
    <glyph glyph-name="OE" unicode="&#x152;" horiz-adv-x="929" 
d="M501 608v68c0 17 13 24 29 24h307c16 0 23 -13 23 -28c0 -16 -7 -28 -23 -28h-278v-254h266c16 0 23 -13 23 -28c0 -16 -7 -27 -23 -27h-266v-279h292c16 0 23 -13 23 -28c0 -16 -7 -28 -23 -28h-321c-16 0 -29 7 -29 24v72c-41 -76 -108 -108 -194 -108
c-145 0 -247 99 -247 360c0 264 104 364 253 364c84 0 148 -32 188 -104zM310 659c-117 0 -190 -81 -190 -310c0 -227 73 -308 190 -308c121 0 191 81 191 310v17c-4 214 -73 291 -191 291z" />
    <glyph glyph-name="Racute" unicode="&#x154;" horiz-adv-x="563" 
d="M163 290v-273c0 -17 -13 -24 -29 -24s-29 7 -29 24v659c0 13 8 24 33 24h133c152 0 224 -47 224 -212c0 -112 -48 -165 -118 -187l116 -276c2 -5 2 -8 2 -12c0 -11 -10 -20 -25 -20c-20 0 -31 7 -39 26l-111 269c-19 -2 -39 -3 -59 -3c-52 0 -76 2 -98 5zM163 644v-300
c22 -2 46 -5 106 -5c111 0 166 37 166 148c0 130 -53 157 -165 157h-107zM406 881l-79 -110c-11 -15 -20 -22 -36 -22c-12 0 -22 7 -22 18c0 5 2 10 6 16l80 117c9 13 22 18 34 18c13 0 24 -7 24 -19c0 -6 -2 -12 -7 -18z" />
    <glyph glyph-name="Rcaron" unicode="&#x158;" horiz-adv-x="563" 
d="M163 290v-273c0 -17 -13 -24 -29 -24s-29 7 -29 24v659c0 13 8 24 33 24h133c152 0 224 -47 224 -212c0 -112 -48 -165 -118 -187l116 -276c2 -5 2 -8 2 -12c0 -11 -10 -20 -25 -20c-20 0 -31 7 -39 26l-111 269c-19 -2 -39 -3 -59 -3c-52 0 -76 2 -98 5zM163 644v-300
c22 -2 46 -5 106 -5c111 0 166 37 166 148c0 130 -53 157 -165 157h-107zM290 801l56 94c8 13 13 22 33 22c13 0 21 -6 21 -13c0 -3 -1 -7 -3 -10l-71 -128c-5 -10 -11 -13 -22 -13h-28c-11 0 -17 3 -22 13l-71 128c-2 3 -3 7 -3 10c0 7 8 13 21 13c20 0 25 -9 33 -22z" />
    <glyph glyph-name="Rcommaaccent" unicode="&#x156;" horiz-adv-x="563" 
d="M163 290v-273c0 -17 -13 -24 -29 -24s-29 7 -29 24v659c0 13 8 24 33 24h133c152 0 224 -47 224 -212c0 -112 -48 -165 -118 -187l116 -276c2 -5 2 -8 2 -12c0 -11 -10 -20 -25 -20c-20 0 -31 7 -39 26l-111 269c-19 -2 -39 -3 -59 -3c-52 0 -76 2 -98 5zM163 644v-300
c22 -2 46 -5 106 -5c111 0 166 37 166 148c0 130 -53 157 -165 157h-107zM316 -72l-79 -110c-11 -15 -20 -22 -36 -22c-12 0 -22 7 -22 18c0 5 2 10 6 16l80 117c9 13 22 18 34 18c13 0 24 -7 24 -19c0 -6 -2 -12 -7 -18z" />
    <glyph glyph-name="Sacute" unicode="&#x15a;" horiz-adv-x="531" 
d="M393 544c-12 56 -37 115 -133 115c-67 0 -129 -38 -129 -118c0 -168 337 -169 337 -371c0 -129 -95 -182 -203 -182c-72 0 -149 32 -197 82c-5 5 -8 14 -8 21c0 15 12 30 27 30c6 0 13 -3 20 -10c37 -40 102 -70 160 -70c77 0 142 37 142 121c0 165 -337 169 -337 373
c0 130 102 177 191 177c123 0 178 -83 187 -161c2 -16 -3 -34 -28 -34c-16 0 -25 9 -29 27zM383 880l-79 -110c-11 -15 -20 -22 -36 -22c-12 0 -22 7 -22 18c0 5 2 10 6 16l80 117c9 13 22 18 34 18c13 0 24 -7 24 -19c0 -6 -2 -12 -7 -18z" />
    <glyph glyph-name="Scircumflex" unicode="&#x15c;" horiz-adv-x="531" 
d="M393 544c-12 56 -37 115 -133 115c-67 0 -129 -38 -129 -118c0 -168 337 -169 337 -371c0 -129 -95 -182 -203 -182c-72 0 -149 32 -197 82c-5 5 -8 14 -8 21c0 15 12 30 27 30c6 0 13 -3 20 -10c37 -40 102 -70 160 -70c77 0 142 37 142 121c0 165 -337 169 -337 373
c0 130 102 177 191 177c123 0 178 -83 187 -161c2 -16 -3 -34 -28 -34c-16 0 -25 9 -29 27zM266 864l-56 -94c-8 -13 -13 -22 -33 -22c-13 0 -21 6 -21 13c0 3 1 7 3 10l71 128c5 10 11 13 22 13h28c11 0 17 -3 22 -13l71 -128c2 -3 3 -7 3 -10c0 -7 -8 -13 -21 -13
c-20 0 -25 9 -33 22z" />
    <glyph glyph-name="Scaron" unicode="&#x160;" horiz-adv-x="531" 
d="M393 544c-12 56 -37 115 -133 115c-67 0 -129 -38 -129 -118c0 -168 337 -169 337 -371c0 -129 -95 -182 -203 -182c-72 0 -149 32 -197 82c-5 5 -8 14 -8 21c0 15 12 30 27 30c6 0 13 -3 20 -10c37 -40 102 -70 160 -70c77 0 142 37 142 121c0 165 -337 169 -337 373
c0 130 102 177 191 177c123 0 178 -83 187 -161c2 -16 -3 -34 -28 -34c-16 0 -25 9 -29 27zM265 801l56 94c8 13 13 22 33 22c13 0 21 -6 21 -13c0 -3 -1 -7 -3 -10l-71 -128c-5 -10 -11 -13 -22 -13h-28c-11 0 -17 3 -22 13l-71 128c-2 3 -3 7 -3 10c0 7 8 13 21 13
c20 0 25 -9 33 -22z" />
    <glyph glyph-name="Scedilla" unicode="&#x15e;" horiz-adv-x="531" 
d="M393 544c-12 56 -37 115 -133 115c-67 0 -129 -38 -129 -118c0 -168 337 -169 337 -371c0 -112 -72 -167 -161 -179c12 -27 18 -49 18 -74c0 -62 -36 -94 -89 -94c-28 0 -52 9 -70 25c-8 8 -9 13 -9 20c0 12 9 25 22 25c10 0 13 -4 23 -11c9 -6 20 -9 30 -9
c29 0 43 13 43 50c0 17 -6 41 -16 65c-71 2 -145 33 -191 82c-5 5 -8 14 -8 21c0 15 12 30 27 30c6 0 13 -3 20 -10c37 -40 102 -70 160 -70c77 0 142 37 142 121c0 165 -337 169 -337 373c0 130 102 177 191 177c123 0 178 -83 187 -161c2 -16 -3 -34 -28 -34
c-16 0 -25 9 -29 27z" />
    <glyph glyph-name="Scedilla" unicode="&#xf6c1;" horiz-adv-x="531" 
d="M393 544c-12 56 -37 115 -133 115c-67 0 -129 -38 -129 -118c0 -168 337 -169 337 -371c0 -112 -72 -167 -161 -179c12 -27 18 -49 18 -74c0 -62 -36 -94 -89 -94c-28 0 -52 9 -70 25c-8 8 -9 13 -9 20c0 12 9 25 22 25c10 0 13 -4 23 -11c9 -6 20 -9 30 -9
c29 0 43 13 43 50c0 17 -6 41 -16 65c-71 2 -145 33 -191 82c-5 5 -8 14 -8 21c0 15 12 30 27 30c6 0 13 -3 20 -10c37 -40 102 -70 160 -70c77 0 142 37 142 121c0 165 -337 169 -337 373c0 130 102 177 191 177c123 0 178 -83 187 -161c2 -16 -3 -34 -28 -34
c-16 0 -25 9 -29 27z" />
    <glyph glyph-name="Scommaaccent" unicode="&#x218;" horiz-adv-x="531" 
d="M393 544c-12 56 -37 115 -133 115c-67 0 -129 -38 -129 -118c0 -168 337 -169 337 -371c0 -129 -95 -182 -203 -182c-72 0 -149 32 -197 82c-5 5 -8 14 -8 21c0 15 12 30 27 30c6 0 13 -3 20 -10c37 -40 102 -70 160 -70c77 0 142 37 142 121c0 165 -337 169 -337 373
c0 130 102 177 191 177c123 0 178 -83 187 -161c2 -16 -3 -34 -28 -34c-16 0 -25 9 -29 27zM308 -72l-79 -110c-11 -15 -20 -22 -36 -22c-12 0 -22 7 -22 18c0 5 2 10 6 16l80 117c9 13 22 18 34 18c13 0 24 -7 24 -19c0 -6 -2 -12 -7 -18z" />
    <glyph glyph-name="Tcaron" unicode="&#x164;" horiz-adv-x="540" 
d="M241 644h-193c-16 0 -23 12 -23 28c0 15 7 28 22 28h445c16 0 23 -13 23 -28c0 -16 -7 -28 -23 -28h-193v-627c0 -17 -13 -24 -29 -24s-29 7 -29 24v627zM270 801l56 94c8 13 13 22 33 22c13 0 21 -6 21 -13c0 -3 -1 -7 -3 -10l-71 -128c-5 -10 -11 -13 -22 -13h-28
c-11 0 -17 3 -22 13l-71 128c-2 3 -3 7 -3 10c0 7 8 13 21 13c20 0 25 -9 33 -22z" />
    <glyph glyph-name="Tcommaaccent" unicode="&#x162;" horiz-adv-x="540" 
d="M241 644h-193c-16 0 -23 12 -23 28c0 15 7 28 22 28h445c16 0 23 -13 23 -28c0 -16 -7 -28 -23 -28h-193v-627c0 -17 -13 -24 -29 -24s-29 7 -29 24v627zM285 -72l-79 -110c-11 -15 -20 -22 -36 -22c-12 0 -22 7 -22 18c0 5 2 10 6 16l80 117c9 13 22 18 34 18
c13 0 24 -7 24 -19c0 -6 -2 -12 -7 -18z" />
    <glyph glyph-name="Tcommaaccent" unicode="&#x21a;" horiz-adv-x="540" 
d="M241 644h-193c-16 0 -23 12 -23 28c0 15 7 28 22 28h445c16 0 23 -13 23 -28c0 -16 -7 -28 -23 -28h-193v-627c0 -17 -13 -24 -29 -24s-29 7 -29 24v627zM285 -72l-79 -110c-11 -15 -20 -22 -36 -22c-12 0 -22 7 -22 18c0 5 2 10 6 16l80 117c9 13 22 18 34 18
c13 0 24 -7 24 -19c0 -6 -2 -12 -7 -18z" />
    <glyph glyph-name="Tbar" unicode="&#x166;" horiz-adv-x="540" 
d="M241 644h-193c-16 0 -23 12 -23 28c0 15 7 28 23 28h444c16 0 23 -13 23 -28c0 -16 -7 -28 -23 -28h-193v-252h144c14 0 21 -13 21 -26c0 -15 -7 -26 -21 -26h-144v-323c0 -17 -13 -24 -29 -24s-29 7 -29 24v323h-144c-16 0 -22 11 -22 26c0 13 6 26 22 26h144v252z" />
    <glyph glyph-name="Ugrave" unicode="&#xd9;" horiz-adv-x="660" 
d="M508 683c0 17 13 24 29 24s28 -7 28 -24v-459c0 -146 -74 -236 -234 -236c-163 0 -236 90 -236 236v459c0 17 13 24 29 24s29 -7 29 -24v-458c0 -113 46 -184 178 -184c130 0 177 67 177 184v458zM286 770l-79 110c-5 6 -7 12 -7 18c0 12 11 19 24 19c12 0 25 -5 34 -18
l80 -117c4 -6 6 -11 6 -16c0 -11 -7 -18 -22 -18s-25 7 -36 22z" />
    <glyph glyph-name="Uacute" unicode="&#xda;" horiz-adv-x="660" 
d="M508 683c0 17 13 24 29 24s28 -7 28 -24v-459c0 -146 -74 -236 -234 -236c-163 0 -236 90 -236 236v459c0 17 13 24 29 24s29 -7 29 -24v-458c0 -113 46 -184 178 -184c130 0 177 67 177 184v458zM447 880l-79 -110c-11 -15 -20 -22 -36 -22c-12 0 -22 7 -22 18
c0 5 2 10 6 16l80 117c9 13 22 18 34 18c13 0 24 -7 24 -19c0 -6 -2 -12 -7 -18z" />
    <glyph glyph-name="Ucircumflex" unicode="&#xdb;" horiz-adv-x="660" 
d="M508 683c0 17 13 24 29 24s28 -7 28 -24v-459c0 -146 -74 -236 -234 -236c-163 0 -236 90 -236 236v459c0 17 13 24 29 24s29 -7 29 -24v-458c0 -113 46 -184 178 -184c130 0 177 67 177 184v458zM330 864l-56 -94c-8 -13 -13 -22 -33 -22c-13 0 -21 6 -21 13
c0 3 1 7 3 10l71 128c5 10 11 13 22 13h28c11 0 17 -3 22 -13l71 -128c2 -3 3 -7 3 -10c0 -7 -8 -13 -21 -13c-20 0 -25 9 -33 22z" />
    <glyph glyph-name="Utilde" unicode="&#x168;" horiz-adv-x="660" 
d="M508 683c0 17 13 24 29 24s28 -7 28 -24v-459c0 -146 -74 -236 -234 -236c-163 0 -236 90 -236 236v459c0 17 13 24 29 24s29 -7 29 -24v-458c0 -113 46 -184 178 -184c130 0 177 67 177 184v458zM385 793c-35 0 -79 37 -109 37c-16 0 -25 -11 -30 -24
c-4 -11 -13 -16 -22 -16c-15 0 -22 10 -22 22c0 3 1 6 2 9c12 30 32 56 68 56c45 0 79 -36 112 -36c16 0 25 11 30 24c4 11 13 16 22 16c15 0 22 -10 22 -22c0 -3 -1 -6 -2 -9c-12 -30 -35 -57 -71 -57z" />
    <glyph glyph-name="Udieresis" unicode="&#xdc;" horiz-adv-x="660" 
d="M508 683c0 17 13 24 29 24s28 -7 28 -24v-459c0 -146 -74 -236 -234 -236c-163 0 -236 90 -236 236v459c0 17 13 24 29 24s29 -7 29 -24v-458c0 -113 46 -184 178 -184c130 0 177 67 177 184v458zM230 856c0 14 14 20 28 20s29 -6 29 -20v-46c0 -14 -15 -20 -29 -20
s-28 6 -28 20v46zM373 856c0 14 14 20 28 20s29 -6 29 -20v-46c0 -14 -15 -20 -29 -20s-28 6 -28 20v46z" />
    <glyph glyph-name="Umacron" unicode="&#x16a;" horiz-adv-x="660" 
d="M508 683c0 17 13 24 29 24s28 -7 28 -24v-459c0 -146 -74 -236 -234 -236c-163 0 -236 90 -236 236v459c0 17 13 24 29 24s29 -7 29 -24v-458c0 -113 46 -184 178 -184c130 0 177 67 177 184v458zM226 808c-15 0 -21 11 -21 25c0 13 6 25 21 25h208c13 0 20 -12 20 -25
c0 -14 -7 -25 -20 -25h-208z" />
    <glyph glyph-name="Ubreve" unicode="&#x16c;" horiz-adv-x="660" 
d="M508 683c0 17 13 24 29 24s28 -7 28 -24v-459c0 -146 -74 -236 -234 -236c-163 0 -236 90 -236 236v459c0 17 13 24 29 24s29 -7 29 -24v-458c0 -113 46 -184 178 -184c130 0 177 67 177 184v458zM330 778c-66 0 -116 46 -116 95c0 12 9 18 22 18c15 0 20 -5 25 -19
c10 -30 34 -45 69 -45s59 15 69 45c5 14 10 19 25 19c13 0 22 -6 22 -18c0 -49 -50 -95 -116 -95z" />
    <glyph glyph-name="Uring" unicode="&#x16e;" horiz-adv-x="660" 
d="M508 683c0 17 13 24 29 24s28 -7 28 -24v-459c0 -146 -74 -236 -234 -236c-163 0 -236 90 -236 236v459c0 17 13 24 29 24s29 -7 29 -24v-458c0 -113 46 -184 178 -184c130 0 177 67 177 184v458zM245 832c0 46 37 81 85 81s86 -35 86 -81s-38 -80 -86 -80s-85 34 -85 80
zM330 872c-24 0 -39 -15 -39 -40c0 -24 15 -39 39 -39s40 15 40 39s-16 40 -40 40z" />
    <glyph glyph-name="Uhungarumlaut" unicode="&#x170;" horiz-adv-x="660" 
d="M508 683c0 17 13 24 29 24s28 -7 28 -24v-459c0 -146 -74 -236 -234 -236c-163 0 -236 90 -236 236v459c0 17 13 24 29 24s29 -7 29 -24v-458c0 -113 46 -184 178 -184c130 0 177 67 177 184v458zM457 916c15 0 26 -7 26 -19c0 -3 -1 -9 -3 -12l-64 -115
c-8 -15 -14 -22 -30 -22c-12 0 -22 6 -22 15c0 3 1 6 3 10l56 120c8 16 17 23 34 23zM334 917c15 0 24 -7 24 -18c0 -4 -2 -10 -3 -13l-54 -117c-7 -14 -15 -21 -29 -21s-21 6 -21 16c0 2 1 5 2 8l46 119c8 21 19 26 35 26z" />
    <glyph glyph-name="Uogonek" unicode="&#x172;" horiz-adv-x="660" 
d="M508 683c0 17 13 24 29 24s28 -7 28 -24v-459c0 -134 -62 -220 -195 -234c-27 -21 -47 -47 -47 -80c0 -22 14 -36 38 -36c10 0 21 2 31 10c8 6 11 8 18 8c5 0 8 -1 13 -5c4 -4 8 -12 8 -19s-3 -14 -12 -22c-17 -13 -40 -21 -64 -21c-54 0 -81 36 -81 80c0 35 14 63 38 84
c-150 7 -217 95 -217 235v459c0 17 13 24 29 24s29 -7 29 -24v-458c0 -113 46 -184 178 -184c130 0 177 67 177 184v458z" />
    <glyph glyph-name="Wgrave" unicode="&#x1e80;" horiz-adv-x="864" 
d="M432 616l-158 -598c-3 -12 -12 -18 -24 -18h-26c-14 0 -25 6 -28 17l-167 659c-1 3 -1 5 -1 7c0 15 14 24 28 24c16 0 29 -8 34 -27l144 -603l155 603c3 11 14 20 27 20h32c11 0 23 -9 26 -20l156 -603l144 604c4 17 19 26 36 26c15 0 26 -10 26 -24c0 -2 0 -3 -1 -6
l-167 -659c-4 -14 -12 -18 -24 -18h-26c-14 0 -25 6 -28 17zM393 770l-79 110c-5 6 -7 12 -7 18c0 12 11 19 24 19c12 0 25 -5 34 -18l80 -117c4 -6 6 -11 6 -16c0 -11 -7 -18 -22 -18s-25 7 -36 22z" />
    <glyph glyph-name="Wacute" unicode="&#x1e82;" horiz-adv-x="864" 
d="M432 616l-158 -598c-3 -12 -12 -18 -24 -18h-26c-14 0 -25 6 -28 17l-167 659c-1 3 -1 5 -1 7c0 15 14 24 28 24c16 0 29 -8 34 -27l144 -603l155 603c3 11 14 20 27 20h32c11 0 23 -9 26 -20l156 -603l144 604c4 17 19 26 36 26c15 0 26 -10 26 -24c0 -2 0 -3 -1 -6
l-167 -659c-4 -14 -12 -18 -24 -18h-26c-14 0 -25 6 -28 17zM550 880l-79 -110c-11 -15 -20 -22 -36 -22c-12 0 -22 7 -22 18c0 5 2 10 6 16l80 117c9 13 22 18 34 18c13 0 24 -7 24 -19c0 -6 -2 -12 -7 -18z" />
    <glyph glyph-name="Wcircumflex" unicode="&#x174;" horiz-adv-x="864" 
d="M432 616l-158 -598c-3 -12 -12 -18 -24 -18h-26c-14 0 -25 6 -28 17l-167 659c-1 3 -1 5 -1 7c0 15 14 24 28 24c16 0 29 -8 34 -27l144 -603l155 603c3 11 14 20 27 20h32c11 0 23 -9 26 -20l156 -603l144 604c4 17 19 26 36 26c15 0 26 -10 26 -24c0 -2 0 -3 -1 -6
l-167 -659c-4 -14 -12 -18 -24 -18h-26c-14 0 -25 6 -28 17zM432 864l-56 -94c-8 -13 -13 -22 -33 -22c-13 0 -21 6 -21 13c0 3 1 7 3 10l71 128c5 10 11 13 22 13h28c11 0 17 -3 22 -13l71 -128c2 -3 3 -7 3 -10c0 -7 -8 -13 -21 -13c-20 0 -25 9 -33 22z" />
    <glyph glyph-name="Wdieresis" unicode="&#x1e84;" horiz-adv-x="864" 
d="M432 616l-158 -598c-3 -12 -12 -18 -24 -18h-26c-14 0 -25 6 -28 17l-167 659c-1 3 -1 5 -1 7c0 15 14 24 28 24c16 0 29 -8 34 -27l144 -603l155 603c3 11 14 20 27 20h32c11 0 23 -9 26 -20l156 -603l144 604c4 17 19 26 36 26c15 0 26 -10 26 -24c0 -2 0 -3 -1 -6
l-167 -659c-4 -14 -12 -18 -24 -18h-26c-14 0 -25 6 -28 17zM332 856c0 14 14 20 28 20s29 -6 29 -20v-46c0 -14 -15 -20 -29 -20s-28 6 -28 20v46zM475 856c0 14 14 20 28 20s29 -6 29 -20v-46c0 -14 -15 -20 -29 -20s-28 6 -28 20v46z" />
    <glyph glyph-name="Ygrave" unicode="&#x1ef2;" horiz-adv-x="522" 
d="M262 363l169 318c8 16 15 26 36 26c14 0 25 -9 25 -21c0 -3 0 -6 -2 -9l-200 -378v-282c0 -17 -13 -24 -29 -24s-29 7 -29 24v282l-199 377c-2 4 -3 7 -3 10c0 13 14 21 28 21c21 0 29 -9 38 -27zM228 770l-79 110c-5 6 -7 12 -7 18c0 12 11 19 24 19c12 0 25 -5 34 -18
l80 -117c4 -6 6 -11 6 -16c0 -11 -7 -18 -22 -18s-25 7 -36 22z" />
    <glyph glyph-name="Yacute" unicode="&#xdd;" horiz-adv-x="522" 
d="M262 363l169 318c8 16 15 26 36 26c14 0 25 -9 25 -21c0 -3 0 -6 -2 -9l-200 -378v-282c0 -17 -13 -24 -29 -24s-29 7 -29 24v282l-199 377c-2 4 -3 7 -3 10c0 13 14 21 28 21c21 0 29 -9 38 -27zM376 880l-79 -110c-11 -15 -20 -22 -36 -22c-12 0 -22 7 -22 18
c0 5 2 10 6 16l80 117c9 13 22 18 34 18c13 0 24 -7 24 -19c0 -6 -2 -12 -7 -18z" />
    <glyph glyph-name="Ycircumflex" unicode="&#x176;" horiz-adv-x="522" 
d="M262 363l169 318c8 16 15 26 36 26c14 0 25 -9 25 -21c0 -3 0 -6 -2 -9l-200 -378v-282c0 -17 -13 -24 -29 -24s-29 7 -29 24v282l-199 377c-2 4 -3 7 -3 10c0 13 14 21 28 21c21 0 29 -9 38 -27zM261 864l-56 -94c-8 -13 -13 -22 -33 -22c-13 0 -21 6 -21 13
c0 3 1 7 3 10l71 128c5 10 11 13 22 13h28c11 0 17 -3 22 -13l71 -128c2 -3 3 -7 3 -10c0 -7 -8 -13 -21 -13c-20 0 -25 9 -33 22z" />
    <glyph glyph-name="Ydieresis" unicode="&#x178;" horiz-adv-x="522" 
d="M262 363l169 318c8 16 15 26 36 26c14 0 25 -9 25 -21c0 -3 0 -6 -2 -9l-200 -378v-282c0 -17 -13 -24 -29 -24s-29 7 -29 24v282l-199 377c-2 4 -3 7 -3 10c0 13 14 21 28 21c21 0 29 -9 38 -27zM164 856c0 14 14 20 28 20s29 -6 29 -20v-46c0 -14 -15 -20 -29 -20
s-28 6 -28 20v46zM307 856c0 14 14 20 28 20s29 -6 29 -20v-46c0 -14 -15 -20 -29 -20s-28 6 -28 20v46z" />
    <glyph glyph-name="Zacute" unicode="&#x179;" horiz-adv-x="534" 
d="M422 644h-351c-16 0 -23 12 -23 28c0 15 7 28 23 28h404c16 0 24 -11 24 -26c0 -12 -10 -24 -17 -36l-370 -582h351c16 0 23 -12 23 -28c0 -15 -7 -28 -23 -28h-404c-16 0 -24 11 -24 26c0 12 7 18 14 30zM385 880l-79 -110c-11 -15 -20 -22 -36 -22c-12 0 -22 7 -22 18
c0 5 2 10 6 16l80 117c9 13 22 18 34 18c13 0 24 -7 24 -19c0 -6 -2 -12 -7 -18z" />
    <glyph glyph-name="Zcaron" unicode="&#x17d;" horiz-adv-x="534" 
d="M422 644h-351c-16 0 -23 12 -23 28c0 15 7 28 23 28h404c16 0 24 -11 24 -26c0 -12 -10 -24 -17 -36l-370 -582h351c16 0 23 -12 23 -28c0 -15 -7 -28 -23 -28h-404c-16 0 -24 11 -24 26c0 12 7 18 14 30zM267 801l56 94c8 13 13 22 33 22c13 0 21 -6 21 -13
c0 -3 -1 -7 -3 -10l-71 -128c-5 -10 -11 -13 -22 -13h-28c-11 0 -17 3 -22 13l-71 128c-2 3 -3 7 -3 10c0 7 8 13 21 13c20 0 25 -9 33 -22z" />
    <glyph glyph-name="Zdotaccent" unicode="&#x17b;" horiz-adv-x="534" 
d="M422 644h-351c-16 0 -23 12 -23 28c0 15 7 28 23 28h404c16 0 24 -11 24 -26c0 -12 -10 -24 -17 -36l-370 -582h351c16 0 23 -12 23 -28c0 -15 -7 -28 -23 -28h-404c-16 0 -24 11 -24 26c0 12 7 18 14 30zM238 856c0 14 14 20 28 20s29 -6 29 -20v-46
c0 -14 -15 -20 -29 -20s-28 6 -28 20v46z" />
    <glyph glyph-name="Eng" unicode="&#x14a;" horiz-adv-x="690" 
d="M161 585v-568c0 -17 -12 -24 -28 -24s-28 7 -28 24v666c0 17 10 24 26 24c13 0 20 -4 28 -16l370 -569v561c0 17 12 24 28 24s28 -7 28 -24v-747c0 -67 -37 -112 -104 -112c-34 0 -84 13 -84 44c0 15 9 27 21 27c3 0 6 -1 9 -2c13 -7 29 -16 54 -16c31 0 48 19 48 63v74z
" />
    <glyph glyph-name="Eth" unicode="&#xd0;" horiz-adv-x="628" 
d="M32 330c-16 0 -22 11 -22 26c0 14 6 27 22 27h73v293c0 17 13 24 29 24h161c178 0 273 -99 273 -341c0 -259 -110 -359 -275 -359h-159c-16 0 -29 7 -29 24v306h-73zM163 644v-261h161c14 0 22 -13 22 -27c0 -15 -8 -26 -22 -26h-161v-274h126c132 0 219 79 219 304
c0 206 -81 284 -219 284h-126z" />
    <glyph glyph-name="Thorn" unicode="&#xde;" horiz-adv-x="560" 
d="M105 683c0 17 13 24 29 24s29 -7 29 -24v-100h110c162 0 232 -56 232 -226c0 -164 -123 -222 -244 -222c-49 0 -69 4 -98 10v-132c0 -14 -14 -20 -29 -20c-16 0 -29 7 -29 24v666zM163 527v-326c28 -5 46 -10 98 -10c109 0 184 46 184 166c0 121 -51 170 -172 170h-110z
" />
    <glyph glyph-name="a" unicode="a" horiz-adv-x="509" 
d="M347 129v123c-8 0 -16 1 -24 1c-123 0 -207 -52 -207 -131c0 -52 30 -81 79 -81c57 0 114 40 152 88zM347 303v91c0 61 -47 92 -102 92c-57 0 -104 -28 -115 -84c-3 -17 -16 -23 -26 -23c-15 0 -26 8 -26 24v5c10 85 90 131 171 131c79 0 155 -44 155 -136v-321
c0 -31 14 -41 31 -41c10 0 21 4 31 9c2 1 5 2 8 2c7 0 15 -6 15 -21c0 -17 -7 -25 -18 -32c-13 -8 -30 -11 -47 -11c-35 0 -72 20 -74 81c-47 -51 -109 -81 -163 -81c-68 0 -129 43 -129 131c0 135 141 185 267 185c7 0 15 -1 22 -1z" />
    <glyph glyph-name="b" unicode="b" horiz-adv-x="536" 
d="M95 726c0 17 13 24 29 24s28 -7 28 -24v-242c47 32 89 55 155 55c78 0 174 -55 174 -274c0 -198 -94 -277 -205 -277c-54 0 -113 18 -166 51c-11 7 -15 13 -15 28v659zM152 428v-345c40 -28 84 -42 123 -42c80 0 145 67 145 224c0 163 -62 221 -121 221
c-62 0 -101 -25 -147 -58z" />
    <glyph glyph-name="c" unicode="c" horiz-adv-x="464" 
d="M383 369c-18 0 -25 8 -27 21c-10 54 -47 96 -113 96c-93 0 -127 -50 -127 -223c0 -171 46 -222 139 -222c51 0 85 18 110 36c8 6 14 8 20 8c10 0 20 -10 20 -25c0 -9 -2 -18 -12 -26c-33 -26 -79 -46 -138 -46c-127 0 -200 76 -200 275c0 200 60 276 193 276
c110 0 161 -77 161 -148c0 -7 -4 -22 -26 -22z" />
    <glyph glyph-name="d" unicode="d" horiz-adv-x="546" 
d="M384 498v228c0 17 13 24 29 24s28 -7 28 -24v-644c0 -22 6 -41 31 -41c10 0 21 4 31 9c2 1 5 2 8 2c7 0 15 -6 15 -21c0 -17 -7 -25 -18 -32c-13 -8 -30 -11 -47 -11c-35 0 -70 21 -72 81c-39 -38 -95 -81 -165 -81c-78 0 -169 55 -169 274s103 277 182 277
c48 0 88 -12 147 -41zM384 129v312c-45 24 -83 45 -144 45c-60 0 -124 -50 -124 -224c0 -163 57 -221 116 -221c68 0 121 47 152 88z" />
    <glyph glyph-name="e" unicode="e" horiz-adv-x="490" 
d="M116 270c0 -175 63 -229 156 -229c49 0 86 20 112 40c8 6 14 8 20 8c10 0 20 -10 20 -25c0 -9 -3 -17 -12 -26c-19 -18 -78 -50 -144 -50c-127 0 -213 79 -213 278c0 194 74 273 199 273c126 0 179 -86 179 -212v-30c0 -16 -7 -27 -22 -27h-295zM117 321h257
c0 109 -39 165 -121 165c-83 0 -128 -45 -136 -165z" />
    <glyph glyph-name="f" unicode="f" horiz-adv-x="293" 
d="M105 476h-65c-16 0 -22 11 -22 26c0 14 6 25 22 25h65v53c0 116 63 170 156 170c24 0 45 -4 59 -8c15 -4 20 -14 20 -27c0 -12 -7 -24 -21 -24c-10 0 -32 9 -59 9c-64 0 -98 -35 -98 -120v-53h118c13 0 19 -8 19 -18c0 -15 -9 -33 -27 -33h-110v-581
c0 -66 -51 -107 -113 -107c-24 0 -51 5 -74 19c-8 5 -12 14 -12 23c0 11 7 28 21 28c3 0 7 0 11 -2c18 -8 37 -13 54 -13c31 0 56 17 56 61v572z" />
    <glyph glyph-name="g" unicode="g" horiz-adv-x="503" 
d="M390 477c28 -35 42 -82 42 -141c0 -120 -73 -198 -182 -198c-27 0 -40 1 -62 8c-19 -11 -41 -28 -41 -49c0 -77 338 4 338 -182c0 -103 -131 -157 -246 -157c-104 0 -196 33 -196 122c0 58 42 115 108 143c-31 11 -57 28 -57 68c0 31 20 58 49 77c-48 33 -77 91 -77 170
c0 123 73 201 185 201c26 0 50 -4 71 -12h153c16 0 22 -11 22 -25c0 -15 -6 -26 -22 -26zM250 488c-78 0 -128 -47 -128 -150c0 -99 50 -150 128 -150c77 0 126 51 126 148c0 108 -49 152 -126 152zM225 7c-66 -22 -129 -64 -129 -121c0 -60 71 -78 146 -78
c86 0 187 38 187 101c0 85 -108 86 -204 98z" />
    <glyph glyph-name="h" unicode="h" horiz-adv-x="559" 
d="M152 480c41 26 91 59 167 59c94 0 155 -55 155 -168v-354c0 -17 -12 -24 -28 -24s-29 7 -29 24v344c0 86 -39 125 -109 125c-58 0 -109 -27 -156 -56v-413c0 -17 -12 -24 -28 -24s-29 7 -29 24v709c0 17 13 24 29 24s28 -7 28 -24v-246z" />
    <glyph glyph-name="i" unicode="i" horiz-adv-x="247" 
d="M95 510c0 17 13 24 29 24s28 -7 28 -24v-493c0 -17 -12 -24 -28 -24s-29 7 -29 24v493zM95 687c0 14 14 20 28 20s29 -6 29 -20v-68c0 -14 -15 -20 -29 -20s-28 6 -28 20v68z" />
    <glyph glyph-name="j" unicode="j" horiz-adv-x="247" 
d="M95 510c0 17 13 24 29 24s28 -7 28 -24v-615c0 -66 -51 -107 -113 -107c-24 0 -51 5 -74 19c-8 5 -12 14 -12 23c0 11 7 28 21 28c3 0 7 0 11 -2c18 -8 37 -13 54 -13c31 0 56 17 56 61v606zM95 687c0 14 14 20 28 20s29 -6 29 -20v-68c0 -14 -15 -20 -29 -20
s-28 6 -28 20v68z" />
    <glyph glyph-name="k" unicode="k" horiz-adv-x="466" 
d="M95 726c0 17 13 24 29 24s28 -7 28 -24v-460l212 243c11 13 21 25 42 25c16 0 27 -7 27 -17c0 -5 -2 -10 -7 -16l-161 -184l191 -294c3 -4 3 -8 3 -11c0 -11 -12 -19 -24 -19c-23 0 -31 10 -40 23l-169 257l-74 -83v-173c0 -17 -12 -24 -28 -24s-29 7 -29 24v709z" />
    <glyph glyph-name="l" unicode="l" horiz-adv-x="293" 
d="M95 726c0 17 13 24 29 24s28 -7 28 -24v-646c0 -28 16 -39 37 -39c17 0 36 4 53 14c9 5 20 12 28 12c12 0 18 -12 18 -25c0 -10 -4 -19 -14 -26c-30 -19 -58 -28 -95 -28c-47 0 -84 30 -84 91v647z" />
    <glyph glyph-name="m" unicode="m" horiz-adv-x="841" 
d="M152 430v-413c0 -17 -12 -24 -28 -24s-29 7 -29 24v494c0 17 13 23 28 23s27 -6 27 -23v-32c39 28 93 60 159 60c60 0 97 -19 124 -64c43 27 115 64 178 64c94 0 145 -55 145 -168v-354c0 -17 -12 -24 -28 -24s-29 7 -29 24v344c0 86 -29 125 -99 125
c-51 0 -107 -26 -152 -56c3 -17 6 -39 6 -59v-354c0 -17 -12 -24 -28 -24s-29 7 -29 24v344c0 86 -29 125 -99 125c-53 0 -100 -24 -146 -56z" />
    <glyph glyph-name="n" unicode="n" horiz-adv-x="559" 
d="M150 479c45 29 94 60 169 60c94 0 155 -55 155 -168v-354c0 -17 -12 -24 -28 -24s-29 7 -29 24v344c0 86 -39 125 -109 125c-58 0 -109 -27 -156 -56v-413c0 -17 -12 -24 -28 -24s-29 7 -29 24v494c0 17 13 23 28 23s27 -6 27 -23v-32z" />
    <glyph glyph-name="o" unicode="o" horiz-adv-x="505" 
d="M254 539c139 0 196 -76 196 -279c0 -176 -63 -272 -197 -272c-127 0 -198 76 -198 275c0 194 66 276 199 276zM253 486c-93 0 -139 -50 -139 -223c0 -171 46 -222 139 -222c92 0 137 51 137 219c0 176 -45 226 -137 226z" />
    <glyph glyph-name="p" unicode="p" horiz-adv-x="536" 
d="M150 479c47 35 92 60 157 60c78 0 174 -55 174 -274c0 -198 -94 -277 -205 -277c-42 0 -83 14 -124 36v-212c0 -17 -12 -24 -28 -24s-29 7 -29 24v699c0 17 13 23 28 23s27 -6 27 -23v-32zM152 428v-343c40 -28 84 -44 123 -44c80 0 145 67 145 224
c0 163 -62 221 -121 221c-62 0 -101 -25 -147 -58z" />
    <glyph glyph-name="q" unicode="q" horiz-adv-x="536" 
d="M441 511v-699c0 -17 -12 -24 -28 -24s-29 7 -29 24v250c-38 -36 -89 -74 -160 -74c-78 0 -169 55 -169 274s103 277 182 277c66 0 124 -38 149 -55v27c0 17 13 23 28 23s27 -6 27 -23zM384 132v296c-33 24 -83 58 -144 58c-60 0 -124 -50 -124 -224
c0 -163 57 -221 116 -221c66 0 121 50 152 91z" />
    <glyph glyph-name="r" unicode="r" horiz-adv-x="388" 
d="M150 468c44 47 94 71 136 71c55 0 86 -45 86 -104c0 -17 -9 -23 -26 -23c-16 0 -24 6 -26 20c-5 33 -17 54 -43 54c-37 0 -86 -36 -125 -75v-394c0 -17 -12 -24 -28 -24s-29 7 -29 24v494c0 17 13 23 28 23s27 -6 27 -23v-43z" />
    <glyph glyph-name="s" unicode="s" horiz-adv-x="432" 
d="M347 381c-20 0 -26 7 -31 25c-13 49 -51 80 -110 80c-50 0 -94 -22 -94 -80c0 -111 267 -127 267 -273c0 -99 -76 -145 -165 -145c-59 0 -120 21 -160 60c-8 8 -10 16 -10 23c0 13 9 27 25 27c8 0 14 -5 21 -11c32 -29 78 -46 127 -46c57 0 105 26 105 87
c0 112 -267 121 -267 273c0 97 78 138 151 138c97 0 153 -54 166 -123c1 -3 1 -6 1 -9c0 -14 -7 -26 -26 -26z" />
    <glyph glyph-name="t" unicode="t" horiz-adv-x="350" 
d="M111 626c0 17 13 24 29 24s28 -7 28 -24v-99h123c13 0 19 -8 19 -18c0 -15 -9 -33 -27 -33h-115v-371c0 -47 21 -64 49 -64c32 0 58 13 86 29c6 3 11 4 15 4c12 0 19 -11 19 -26c0 -13 -6 -20 -14 -26c-30 -21 -71 -34 -109 -34c-57 0 -103 29 -103 112v376h-55
c-16 0 -22 11 -22 26c0 14 6 25 22 25h55v99z" />
    <glyph glyph-name="u" unicode="u" horiz-adv-x="522" 
d="M380 510c0 17 13 24 29 24s28 -7 28 -24v-352c0 -118 -84 -170 -176 -170s-176 52 -176 170v352c0 17 13 24 29 24s28 -7 28 -24v-350c0 -96 59 -119 119 -119s119 23 119 119v350z" />
    <glyph glyph-name="v" unicode="v" horiz-adv-x="488" 
d="M246 70l162 441c5 14 13 23 34 23c15 0 24 -10 24 -21c0 -5 -1 -8 -2 -11l-185 -487c-3 -9 -7 -15 -21 -15h-26c-14 0 -20 7 -23 15l-185 488c-1 3 -2 7 -2 10c0 11 8 21 24 21c21 0 29 -9 34 -23z" />
    <glyph glyph-name="w" unicode="w" horiz-adv-x="735" 
d="M197 87l133 422c5 15 13 18 28 18h18c15 0 23 -3 28 -18l133 -422l120 422c4 13 7 25 31 25c17 0 28 -10 28 -22c0 -2 0 -3 -1 -6l-144 -491c-2 -8 -8 -15 -22 -15h-22c-14 0 -18 6 -21 15l-139 436l-139 -436c-3 -9 -7 -15 -21 -15h-22c-14 0 -20 7 -22 15l-144 491
c-1 3 -1 4 -1 6c0 12 11 22 28 22c24 0 27 -12 31 -25z" />
    <glyph glyph-name="x" unicode="x" horiz-adv-x="470" 
d="M237 312l134 202c9 13 14 20 34 20c17 0 25 -10 25 -20c0 -4 -1 -8 -3 -11l-158 -234l165 -245c2 -3 3 -7 3 -10c0 -10 -9 -21 -27 -21c-20 0 -26 7 -35 20l-142 213l-142 -213c-9 -13 -15 -20 -34 -20c-17 0 -25 9 -25 19c0 4 2 9 4 12l165 243l-158 236
c-2 3 -3 7 -3 10c0 10 9 21 27 21c20 0 26 -7 35 -20z" />
    <glyph glyph-name="y" unicode="y" horiz-adv-x="472" 
d="M234 101l160 410c5 14 13 23 34 23c15 0 23 -9 23 -20c0 -3 -1 -7 -2 -10l-192 -487c-44 -110 -96 -229 -214 -229c-22 0 -49 2 -73 16c-13 7 -16 17 -16 26c0 16 9 27 22 27c6 0 9 -2 15 -5c19 -10 33 -12 53 -12c81 0 119 90 158 182l-175 480c-1 3 -2 6 -2 9
c0 12 9 23 25 23c21 0 31 -9 36 -23z" />
    <glyph glyph-name="z" unicode="z" horiz-adv-x="467" 
d="M118 52h289c16 0 22 -10 22 -27c0 -14 -6 -25 -22 -25h-344c-14 0 -20 9 -20 22s5 21 11 29l296 424h-283c-16 0 -22 10 -22 27c0 14 6 25 22 25h334c14 0 20 -9 20 -22s-5 -21 -11 -29z" />
    <glyph glyph-name="agrave" unicode="&#xe0;" horiz-adv-x="509" 
d="M347 129v123c-8 0 -16 1 -24 1c-123 0 -207 -52 -207 -131c0 -52 30 -81 79 -81c57 0 114 40 152 88zM347 303v91c0 61 -47 92 -102 92c-57 0 -104 -28 -115 -84c-3 -17 -16 -23 -26 -23c-15 0 -26 8 -26 24v5c10 85 90 131 171 131c79 0 155 -44 155 -136v-321
c0 -31 14 -41 31 -41c10 0 21 4 31 9c2 1 5 2 8 2c7 0 15 -6 15 -21c0 -17 -7 -25 -18 -32c-13 -8 -30 -11 -47 -11c-35 0 -72 20 -74 81c-47 -51 -109 -81 -163 -81c-68 0 -129 43 -129 131c0 135 141 185 267 185c7 0 15 -1 22 -1zM214 608l-79 110c-5 6 -7 12 -7 18
c0 12 11 19 24 19c12 0 25 -5 34 -18l80 -117c4 -6 6 -11 6 -16c0 -11 -10 -18 -22 -18c-16 0 -25 7 -36 22z" />
    <glyph glyph-name="aacute" unicode="&#xe1;" horiz-adv-x="509" 
d="M347 129v123c-8 0 -16 1 -24 1c-123 0 -207 -52 -207 -131c0 -52 30 -81 79 -81c57 0 114 40 152 88zM347 303v91c0 61 -47 92 -102 92c-57 0 -104 -28 -115 -84c-3 -17 -16 -23 -26 -23c-15 0 -26 8 -26 24v5c10 85 90 131 171 131c79 0 155 -44 155 -136v-321
c0 -31 14 -41 31 -41c10 0 21 4 31 9c2 1 5 2 8 2c7 0 15 -6 15 -21c0 -17 -7 -25 -18 -32c-13 -8 -30 -11 -47 -11c-35 0 -72 20 -74 81c-47 -51 -109 -81 -163 -81c-68 0 -129 43 -129 131c0 135 141 185 267 185c7 0 15 -1 22 -1zM368 718l-79 -110
c-11 -15 -20 -22 -36 -22c-12 0 -22 7 -22 18c0 5 2 10 6 16l80 117c9 13 22 18 34 18c13 0 24 -7 24 -19c0 -6 -2 -12 -7 -18z" />
    <glyph glyph-name="acircumflex" unicode="&#xe2;" horiz-adv-x="509" 
d="M347 129v123c-8 0 -16 1 -24 1c-123 0 -207 -52 -207 -131c0 -52 30 -81 79 -81c57 0 114 40 152 88zM347 303v91c0 61 -47 92 -102 92c-57 0 -104 -28 -115 -84c-3 -17 -16 -23 -26 -23c-15 0 -26 8 -26 24v5c10 85 90 131 171 131c79 0 155 -44 155 -136v-321
c0 -31 14 -41 31 -41c10 0 21 4 31 9c2 1 5 2 8 2c7 0 15 -6 15 -21c0 -17 -7 -25 -18 -32c-13 -8 -30 -11 -47 -11c-35 0 -72 20 -74 81c-47 -51 -109 -81 -163 -81c-68 0 -129 43 -129 131c0 135 141 185 267 185c7 0 15 -1 22 -1zM254 702l-56 -94
c-8 -13 -13 -22 -33 -22c-13 0 -21 6 -21 13c0 3 1 7 3 10l71 128c5 10 11 13 22 13h28c11 0 17 -3 22 -13l71 -128c2 -3 3 -7 3 -10c0 -7 -8 -13 -21 -13c-20 0 -25 9 -33 22z" />
    <glyph glyph-name="atilde" unicode="&#xe3;" horiz-adv-x="509" 
d="M347 129v123c-8 0 -16 1 -24 1c-123 0 -207 -52 -207 -131c0 -52 30 -81 79 -81c57 0 114 40 152 88zM347 303v91c0 61 -47 92 -102 92c-57 0 -104 -28 -115 -84c-3 -17 -16 -23 -26 -23c-15 0 -26 8 -26 24v5c10 85 90 131 171 131c79 0 155 -44 155 -136v-321
c0 -31 14 -41 31 -41c10 0 21 4 31 9c2 1 5 2 8 2c7 0 15 -6 15 -21c0 -17 -7 -25 -18 -32c-13 -8 -30 -11 -47 -11c-35 0 -72 20 -74 81c-47 -51 -109 -81 -163 -81c-68 0 -129 43 -129 131c0 135 141 185 267 185c7 0 15 -1 22 -1zM311 631c-35 0 -79 37 -109 37
c-16 0 -25 -11 -30 -24c-4 -11 -13 -16 -22 -16c-15 0 -22 10 -22 22c0 3 1 6 2 9c12 30 32 56 68 56c45 0 79 -36 112 -36c16 0 25 11 30 24c4 11 13 16 22 16c15 0 22 -10 22 -22c0 -3 -1 -6 -2 -9c-12 -30 -35 -57 -71 -57z" />
    <glyph glyph-name="adieresis" unicode="&#xe4;" horiz-adv-x="509" 
d="M347 129v123c-8 0 -16 1 -24 1c-123 0 -207 -52 -207 -131c0 -52 30 -81 79 -81c57 0 114 40 152 88zM347 303v91c0 61 -47 92 -102 92c-57 0 -104 -28 -115 -84c-3 -17 -16 -23 -26 -23c-15 0 -26 8 -26 24v5c10 85 90 131 171 131c79 0 155 -44 155 -136v-321
c0 -31 14 -41 31 -41c10 0 21 4 31 9c2 1 5 2 8 2c7 0 15 -6 15 -21c0 -17 -7 -25 -18 -32c-13 -8 -30 -11 -47 -11c-35 0 -72 20 -74 81c-47 -51 -109 -81 -163 -81c-68 0 -129 43 -129 131c0 135 141 185 267 185c7 0 15 -1 22 -1zM154 695c0 14 14 20 28 20s29 -6 29 -20
v-46c0 -14 -15 -20 -29 -20s-28 6 -28 20v46zM297 695c0 14 14 20 28 20s29 -6 29 -20v-46c0 -14 -15 -20 -29 -20s-28 6 -28 20v46z" />
    <glyph glyph-name="amacron" unicode="&#x101;" horiz-adv-x="509" 
d="M347 129v123c-8 0 -16 1 -24 1c-123 0 -207 -52 -207 -131c0 -52 30 -81 79 -81c57 0 114 40 152 88zM347 303v91c0 61 -47 92 -102 92c-57 0 -104 -28 -115 -84c-3 -17 -16 -23 -26 -23c-15 0 -26 8 -26 24v5c10 85 90 131 171 131c79 0 155 -44 155 -136v-321
c0 -31 14 -41 31 -41c10 0 21 4 31 9c2 1 5 2 8 2c7 0 15 -6 15 -21c0 -17 -7 -25 -18 -32c-13 -8 -30 -11 -47 -11c-35 0 -72 20 -74 81c-47 -51 -109 -81 -163 -81c-68 0 -129 43 -129 131c0 135 141 185 267 185c7 0 15 -1 22 -1zM151 646c-15 0 -21 11 -21 25
c0 13 6 25 21 25h208c13 0 20 -12 20 -25c0 -14 -7 -25 -20 -25h-208z" />
    <glyph glyph-name="abreve" unicode="&#x103;" horiz-adv-x="509" 
d="M347 129v123c-8 0 -16 1 -24 1c-123 0 -207 -52 -207 -131c0 -52 30 -81 79 -81c57 0 114 40 152 88zM347 303v91c0 61 -47 92 -102 92c-57 0 -104 -28 -115 -84c-3 -17 -16 -23 -26 -23c-15 0 -26 8 -26 24v5c10 85 90 131 171 131c79 0 155 -44 155 -136v-321
c0 -31 14 -41 31 -41c10 0 21 4 31 9c2 1 5 2 8 2c7 0 15 -6 15 -21c0 -17 -7 -25 -18 -32c-13 -8 -30 -11 -47 -11c-35 0 -72 20 -74 81c-47 -51 -109 -81 -163 -81c-68 0 -129 43 -129 131c0 135 141 185 267 185c7 0 15 -1 22 -1zM254 616c-66 0 -116 46 -116 95
c0 12 9 18 22 18c15 0 20 -5 25 -19c10 -30 34 -45 69 -45s59 15 69 45c5 14 10 19 25 19c13 0 22 -6 22 -18c0 -49 -50 -95 -116 -95z" />
    <glyph glyph-name="aring" unicode="&#xe5;" horiz-adv-x="509" 
d="M347 129v123c-8 0 -16 1 -24 1c-123 0 -207 -52 -207 -131c0 -52 30 -81 79 -81c57 0 114 40 152 88zM347 303v91c0 61 -47 92 -102 92c-57 0 -104 -28 -115 -84c-3 -17 -16 -23 -26 -23c-15 0 -26 8 -26 24v5c10 85 90 131 171 131c79 0 155 -44 155 -136v-321
c0 -31 14 -41 31 -41c10 0 21 4 31 9c2 1 5 2 8 2c7 0 15 -6 15 -21c0 -17 -7 -25 -18 -32c-13 -8 -30 -11 -47 -11c-35 0 -72 20 -74 81c-47 -51 -109 -81 -163 -81c-68 0 -129 43 -129 131c0 135 141 185 267 185c7 0 15 -1 22 -1zM169 671c0 46 37 81 85 81
s86 -35 86 -81s-38 -80 -86 -80s-85 34 -85 80zM254 711c-24 0 -39 -15 -39 -40c0 -24 15 -39 39 -39s40 15 40 39s-16 40 -40 40z" />
    <glyph glyph-name="aringacute" unicode="&#x1fb;" horiz-adv-x="509" 
d="M169 672c0 38 25 68 61 78l75 109c9 13 22 18 34 18c13 0 24 -7 24 -19c0 -6 -2 -12 -7 -18l-71 -93c32 -11 55 -40 55 -75c0 -46 -38 -80 -86 -80s-85 34 -85 80zM254 712c-24 0 -39 -15 -39 -40c0 -24 15 -39 39 -39s40 15 40 39s-16 40 -40 40zM347 129v123
c-8 0 -16 1 -24 1c-123 0 -207 -52 -207 -131c0 -52 30 -81 79 -81c57 0 114 40 152 88zM347 303v91c0 61 -47 92 -102 92c-57 0 -104 -28 -115 -84c-3 -17 -16 -23 -26 -23c-15 0 -26 8 -26 24v5c10 85 90 131 171 131c79 0 155 -44 155 -136v-321c0 -31 14 -41 31 -41
c10 0 21 4 31 9c2 1 5 2 8 2c7 0 15 -6 15 -21c0 -17 -7 -25 -18 -32c-13 -8 -30 -11 -47 -11c-35 0 -72 20 -74 81c-47 -51 -109 -81 -163 -81c-68 0 -129 43 -129 131c0 135 141 185 267 185c7 0 15 -1 22 -1z" />
    <glyph glyph-name="aogonek" unicode="&#x105;" horiz-adv-x="509" 
d="M347 303v91c0 61 -47 92 -102 92c-57 0 -104 -28 -115 -84c-3 -17 -16 -23 -26 -23c-15 0 -26 8 -26 24v5c10 85 90 131 171 131c79 0 155 -44 155 -136v-321c0 -31 14 -41 31 -41c10 0 21 4 31 9c2 1 5 2 8 2c7 0 15 -6 15 -21c0 -17 -7 -25 -18 -32
c-13 -8 -29 -11 -46 -11c-26 -21 -45 -46 -45 -78c0 -22 14 -36 38 -36c10 0 21 2 31 10c8 6 11 8 18 8c5 0 8 -1 13 -5c4 -4 8 -12 8 -19s-3 -14 -12 -22c-17 -13 -40 -21 -64 -21c-54 0 -81 36 -81 80c0 41 19 73 52 95c-18 11 -32 32 -33 69c-47 -51 -109 -81 -163 -81
c-68 0 -129 43 -129 131c0 135 141 185 267 185c7 0 15 -1 22 -1zM347 129v123c-8 0 -16 1 -24 1c-123 0 -207 -52 -207 -131c0 -52 30 -81 79 -81c57 0 114 40 152 88z" />
    <glyph glyph-name="ae" unicode="&#xe6;" horiz-adv-x="778" 
d="M347 304v90c0 61 -47 92 -102 92c-56 0 -104 -28 -115 -84c-3 -17 -16 -23 -26 -23c-15 0 -26 8 -26 24v5c10 85 90 131 171 131c59 0 117 -25 142 -76c32 52 83 76 151 76c126 0 179 -86 179 -212v-30c0 -16 -7 -27 -22 -27h-295v-13c3 -165 65 -216 156 -216
c49 0 86 20 112 40c8 6 14 8 20 8c10 0 20 -10 20 -25c0 -9 -3 -17 -12 -26c-19 -18 -78 -50 -144 -50c-80 0 -141 30 -177 100c-35 -47 -92 -100 -189 -100c-71 0 -132 43 -132 131c0 135 141 185 267 185h22zM358 141c-7 30 -12 71 -13 112h-21c-124 0 -208 -52 -208 -131
c0 -52 29 -81 83 -81c73 0 120 41 159 100zM405 321h257c0 109 -39 165 -121 165c-83 0 -128 -45 -136 -165z" />
    <glyph glyph-name="aeacute" unicode="&#x1fd;" horiz-adv-x="778" 
d="M347 304v90c0 61 -47 92 -102 92c-56 0 -104 -28 -115 -84c-3 -17 -16 -23 -26 -23c-15 0 -26 8 -26 24v5c10 85 90 131 171 131c59 0 117 -25 142 -76c32 52 83 76 151 76c126 0 179 -86 179 -212v-30c0 -16 -7 -27 -22 -27h-295v-13c3 -165 65 -216 156 -216
c49 0 86 20 112 40c8 6 14 8 20 8c10 0 20 -10 20 -25c0 -9 -3 -17 -12 -26c-19 -18 -78 -50 -144 -50c-80 0 -141 30 -177 100c-35 -47 -92 -100 -189 -100c-71 0 -132 43 -132 131c0 135 141 185 267 185h22zM358 141c-7 30 -12 71 -13 112h-21c-124 0 -208 -52 -208 -131
c0 -52 29 -81 83 -81c73 0 120 41 159 100zM405 321h257c0 109 -39 165 -121 165c-83 0 -128 -45 -136 -165zM507 718l-79 -110c-11 -15 -20 -22 -36 -22c-12 0 -22 7 -22 18c0 5 2 10 6 16l80 117c9 13 22 18 34 18c13 0 24 -7 24 -19c0 -6 -2 -12 -7 -18z" />
    <glyph glyph-name="cacute" unicode="&#x107;" horiz-adv-x="464" 
d="M383 369c-18 0 -25 8 -27 21c-10 54 -47 96 -113 96c-93 0 -127 -50 -127 -223c0 -171 46 -222 139 -222c51 0 85 18 110 36c8 6 14 8 20 8c10 0 20 -10 20 -25c0 -9 -2 -18 -12 -26c-33 -26 -79 -46 -138 -46c-127 0 -200 76 -200 275c0 200 60 276 193 276
c110 0 161 -77 161 -148c0 -7 -4 -22 -26 -22zM356 718l-79 -110c-11 -15 -20 -22 -36 -22c-12 0 -22 7 -22 18c0 5 2 10 6 16l80 117c9 13 22 18 34 18c13 0 24 -7 24 -19c0 -6 -2 -12 -7 -18z" />
    <glyph glyph-name="ccircumflex" unicode="&#x109;" horiz-adv-x="464" 
d="M383 369c-18 0 -25 8 -27 21c-10 54 -47 96 -113 96c-93 0 -127 -50 -127 -223c0 -171 46 -222 139 -222c51 0 85 18 110 36c8 6 14 8 20 8c10 0 20 -10 20 -25c0 -9 -2 -18 -12 -26c-33 -26 -79 -46 -138 -46c-127 0 -200 76 -200 275c0 200 60 276 193 276
c110 0 161 -77 161 -148c0 -7 -4 -22 -26 -22zM241 702l-56 -94c-8 -13 -13 -22 -33 -22c-13 0 -21 6 -21 13c0 3 1 7 3 10l71 128c5 10 11 13 22 13h28c11 0 17 -3 22 -13l71 -128c2 -3 3 -7 3 -10c0 -7 -8 -13 -21 -13c-20 0 -25 9 -33 22z" />
    <glyph glyph-name="ccaron" unicode="&#x10d;" horiz-adv-x="464" 
d="M383 369c-18 0 -25 8 -27 21c-10 54 -47 96 -113 96c-93 0 -127 -50 -127 -223c0 -171 46 -222 139 -222c51 0 85 18 110 36c8 6 14 8 20 8c10 0 20 -10 20 -25c0 -9 -2 -18 -12 -26c-33 -26 -79 -46 -138 -46c-127 0 -200 76 -200 275c0 200 60 276 193 276
c110 0 161 -77 161 -148c0 -7 -4 -22 -26 -22zM242 640l56 94c8 13 13 22 33 22c13 0 21 -6 21 -13c0 -3 -1 -7 -3 -10l-71 -128c-5 -10 -11 -13 -22 -13h-28c-11 0 -17 3 -22 13l-71 128c-2 3 -3 7 -3 10c0 7 8 13 21 13c20 0 25 -9 33 -22z" />
    <glyph glyph-name="cdotaccent" unicode="&#x10b;" horiz-adv-x="464" 
d="M383 369c-18 0 -25 8 -27 21c-10 54 -47 96 -113 96c-93 0 -127 -50 -127 -223c0 -171 46 -222 139 -222c51 0 85 18 110 36c8 6 14 8 20 8c10 0 20 -10 20 -25c0 -9 -2 -18 -12 -26c-33 -26 -79 -46 -138 -46c-127 0 -200 76 -200 275c0 200 60 276 193 276
c110 0 161 -77 161 -148c0 -7 -4 -22 -26 -22zM214 695c0 14 14 20 28 20s29 -6 29 -20v-46c0 -14 -15 -20 -29 -20s-28 6 -28 20v46z" />
    <glyph glyph-name="ccedilla" unicode="&#xe7;" horiz-adv-x="464" 
d="M383 369c-18 0 -25 8 -27 21c-10 54 -47 96 -113 96c-93 0 -127 -50 -127 -223c0 -171 46 -222 139 -222c51 0 85 18 110 36c8 6 14 8 20 8c10 0 20 -10 20 -25c0 -9 -2 -18 -12 -26c-27 -22 -63 -38 -107 -44c11 -26 17 -49 17 -73c0 -62 -36 -94 -89 -94
c-28 0 -52 9 -70 25c-8 8 -9 13 -9 20c0 12 9 25 22 25c10 0 13 -4 23 -11c9 -6 20 -9 30 -9c29 0 43 13 43 50c0 17 -6 42 -17 66c-115 7 -181 85 -181 274c0 200 60 276 193 276c110 0 161 -77 161 -148c0 -7 -4 -22 -26 -22z" />
    <glyph glyph-name="dcaron" unicode="&#x10f;" horiz-adv-x="546" 
d="M503 484l41 194c4 19 12 29 32 29c16 0 27 -8 27 -20c0 -3 0 -6 -1 -10l-51 -195c-4 -14 -8 -23 -27 -23c-15 0 -22 9 -22 19c0 2 1 4 1 6zM384 498v228c0 17 13 24 29 24s28 -7 28 -24v-644c0 -22 6 -41 31 -41c10 0 21 4 31 9c2 1 5 2 8 2c7 0 15 -6 15 -21
c0 -17 -7 -25 -18 -32c-13 -8 -30 -11 -47 -11c-35 0 -70 21 -72 81c-39 -38 -95 -81 -165 -81c-78 0 -169 55 -169 274s103 277 182 277c48 0 88 -12 147 -41zM384 129v312c-45 24 -83 45 -144 45c-60 0 -124 -50 -124 -224c0 -163 57 -221 116 -221c68 0 121 47 152 88z
" />
    <glyph glyph-name="dcroat" unicode="&#x111;" horiz-adv-x="546" 
d="M249 613c-14 0 -20 10 -20 24c0 12 6 22 20 22h135v67c0 17 13 24 29 24s28 -7 28 -24v-67h66c13 0 19 -10 19 -22c0 -14 -6 -24 -19 -24h-66v-531c0 -22 6 -41 31 -41c10 0 21 4 31 9c2 1 5 2 8 2c7 0 15 -6 15 -21c0 -17 -7 -25 -18 -32c-13 -8 -30 -11 -47 -11
c-35 0 -70 21 -72 81c-39 -38 -95 -81 -165 -81c-78 0 -169 55 -169 274s103 277 182 277c48 0 88 -12 147 -41v115h-135zM384 129v312c-45 24 -83 45 -144 45c-60 0 -124 -50 -124 -224c0 -163 57 -221 116 -221c68 0 121 47 152 88z" />
    <glyph glyph-name="egrave" unicode="&#xe8;" horiz-adv-x="490" 
d="M116 270c0 -175 63 -229 156 -229c49 0 86 20 112 40c8 6 14 8 20 8c10 0 20 -10 20 -25c0 -9 -3 -17 -12 -26c-19 -18 -78 -50 -144 -50c-127 0 -213 79 -213 278c0 194 74 273 199 273c126 0 179 -86 179 -212v-30c0 -16 -7 -27 -22 -27h-295zM117 321h257
c0 109 -39 165 -121 165c-83 0 -128 -45 -136 -165zM213 608l-79 110c-5 6 -7 12 -7 18c0 12 11 19 24 19c12 0 25 -5 34 -18l80 -117c4 -6 6 -11 6 -16c0 -11 -7 -18 -22 -18s-25 7 -36 22z" />
    <glyph glyph-name="eacute" unicode="&#xe9;" horiz-adv-x="490" 
d="M116 270c0 -175 63 -229 156 -229c49 0 86 20 112 40c8 6 14 8 20 8c10 0 20 -10 20 -25c0 -9 -3 -17 -12 -26c-19 -18 -78 -50 -144 -50c-127 0 -213 79 -213 278c0 194 74 273 199 273c126 0 179 -86 179 -212v-30c0 -16 -7 -27 -22 -27h-295zM117 321h257
c0 109 -39 165 -121 165c-83 0 -128 -45 -136 -165zM370 718l-79 -110c-11 -15 -20 -22 -36 -22c-12 0 -22 7 -22 18c0 5 2 10 6 16l80 117c9 13 22 18 34 18c13 0 24 -7 24 -19c0 -6 -2 -12 -7 -18z" />
    <glyph glyph-name="ecircumflex" unicode="&#xea;" horiz-adv-x="490" 
d="M116 270c0 -175 63 -229 156 -229c49 0 86 20 112 40c8 6 14 8 20 8c10 0 20 -10 20 -25c0 -9 -3 -17 -12 -26c-19 -18 -78 -50 -144 -50c-127 0 -213 79 -213 278c0 194 74 273 199 273c126 0 179 -86 179 -212v-30c0 -16 -7 -27 -22 -27h-295zM117 321h257
c0 109 -39 165 -121 165c-83 0 -128 -45 -136 -165zM252 702l-56 -94c-8 -13 -13 -22 -33 -22c-13 0 -21 6 -21 13c0 3 1 7 3 10l71 128c5 10 11 13 22 13h28c11 0 17 -3 22 -13l71 -128c2 -3 3 -7 3 -10c0 -7 -8 -13 -21 -13c-20 0 -25 9 -33 22z" />
    <glyph glyph-name="ecaron" unicode="&#x11b;" horiz-adv-x="490" 
d="M116 270c0 -175 63 -229 156 -229c49 0 86 20 112 40c8 6 14 8 20 8c10 0 20 -10 20 -25c0 -9 -3 -17 -12 -26c-19 -18 -78 -50 -144 -50c-127 0 -213 79 -213 278c0 194 74 273 199 273c126 0 179 -86 179 -212v-30c0 -16 -7 -27 -22 -27h-295zM117 321h257
c0 109 -39 165 -121 165c-83 0 -128 -45 -136 -165zM252 640l56 94c8 13 13 22 33 22c13 0 21 -6 21 -13c0 -3 -1 -7 -3 -10l-71 -128c-5 -10 -11 -13 -22 -13h-28c-11 0 -17 3 -22 13l-71 128c-2 3 -3 7 -3 10c0 7 8 13 21 13c20 0 25 -9 33 -22z" />
    <glyph glyph-name="edieresis" unicode="&#xeb;" horiz-adv-x="490" 
d="M116 270c0 -175 63 -229 156 -229c49 0 86 20 112 40c8 6 14 8 20 8c10 0 20 -10 20 -25c0 -9 -3 -17 -12 -26c-19 -18 -78 -50 -144 -50c-127 0 -213 79 -213 278c0 194 74 273 199 273c126 0 179 -86 179 -212v-30c0 -16 -7 -27 -22 -27h-295zM117 321h257
c0 109 -39 165 -121 165c-83 0 -128 -45 -136 -165zM152 695c0 14 14 20 28 20s29 -6 29 -20v-46c0 -14 -15 -20 -29 -20s-28 6 -28 20v46zM295 695c0 14 14 20 28 20s29 -6 29 -20v-46c0 -14 -15 -20 -29 -20s-28 6 -28 20v46z" />
    <glyph glyph-name="emacron" unicode="&#x113;" horiz-adv-x="490" 
d="M116 270c0 -175 63 -229 156 -229c49 0 86 20 112 40c8 6 14 8 20 8c10 0 20 -10 20 -25c0 -9 -3 -17 -12 -26c-19 -18 -78 -50 -144 -50c-127 0 -213 79 -213 278c0 194 74 273 199 273c126 0 179 -86 179 -212v-30c0 -16 -7 -27 -22 -27h-295zM117 321h257
c0 109 -39 165 -121 165c-83 0 -128 -45 -136 -165zM149 646c-15 0 -21 11 -21 25c0 13 6 25 21 25h208c13 0 20 -12 20 -25c0 -14 -7 -25 -20 -25h-208z" />
    <glyph glyph-name="ebreve" unicode="&#x115;" horiz-adv-x="490" 
d="M116 270c0 -175 63 -229 156 -229c49 0 86 20 112 40c8 6 14 8 20 8c10 0 20 -10 20 -25c0 -9 -3 -17 -12 -26c-19 -18 -78 -50 -144 -50c-127 0 -213 79 -213 278c0 194 74 273 199 273c126 0 179 -86 179 -212v-30c0 -16 -7 -27 -22 -27h-295zM117 321h257
c0 109 -39 165 -121 165c-83 0 -128 -45 -136 -165zM252 616c-66 0 -116 46 -116 95c0 12 9 18 22 18c15 0 20 -5 25 -19c10 -30 34 -45 69 -45s59 15 69 45c5 14 10 19 25 19c13 0 22 -6 22 -18c0 -49 -50 -95 -116 -95z" />
    <glyph glyph-name="edotaccent" unicode="&#x117;" horiz-adv-x="490" 
d="M116 270c0 -175 63 -229 156 -229c49 0 86 20 112 40c8 6 14 8 20 8c10 0 20 -10 20 -25c0 -9 -3 -17 -12 -26c-19 -18 -78 -50 -144 -50c-127 0 -213 79 -213 278c0 194 74 273 199 273c126 0 179 -86 179 -212v-30c0 -16 -7 -27 -22 -27h-295zM117 321h257
c0 109 -39 165 -121 165c-83 0 -128 -45 -136 -165zM224 695c0 14 14 20 28 20s29 -6 29 -20v-46c0 -14 -15 -20 -29 -20s-28 6 -28 20v46z" />
    <glyph glyph-name="eogonek" unicode="&#x119;" horiz-adv-x="490" 
d="M116 270c0 -175 63 -229 156 -229c49 0 86 20 112 40c8 6 14 8 20 8c10 0 20 -10 20 -25c0 -9 -3 -17 -12 -26c-12 -12 -40 -29 -76 -39c-32 -24 -59 -52 -59 -89c0 -22 14 -36 38 -36c10 0 21 2 31 10c8 6 11 8 18 8c5 0 8 -1 13 -5c4 -4 8 -12 8 -19s-3 -14 -12 -22
c-17 -13 -40 -21 -64 -21c-54 0 -81 36 -81 80c0 34 14 62 37 83c-125 1 -210 80 -210 278c0 194 74 273 199 273c126 0 179 -86 179 -212v-30c0 -16 -7 -27 -22 -27h-295zM117 321h257c0 109 -39 165 -121 165c-83 0 -128 -45 -136 -165z" />
    <glyph glyph-name="gcircumflex" unicode="&#x11d;" horiz-adv-x="503" 
d="M390 477c28 -35 42 -82 42 -141c0 -120 -73 -198 -182 -198c-27 0 -40 1 -62 8c-19 -11 -41 -28 -41 -49c0 -77 338 4 338 -182c0 -103 -131 -157 -246 -157c-104 0 -196 33 -196 122c0 58 42 115 108 143c-31 11 -57 28 -57 68c0 31 20 58 49 77c-48 33 -77 91 -77 170
c0 123 73 201 185 201c26 0 50 -4 71 -12h153c16 0 22 -11 22 -25c0 -15 -6 -26 -22 -26zM250 488c-78 0 -128 -47 -128 -150c0 -99 50 -150 128 -150c77 0 126 51 126 148c0 108 -49 152 -126 152zM225 7c-66 -22 -129 -64 -129 -121c0 -60 71 -78 146 -78
c86 0 187 38 187 101c0 85 -108 86 -204 98zM251 702l-56 -94c-8 -13 -13 -22 -33 -22c-13 0 -21 6 -21 13c0 3 1 7 3 10l71 128c5 10 11 13 22 13h28c11 0 17 -3 22 -13l71 -128c2 -3 3 -7 3 -10c0 -7 -8 -13 -21 -13c-20 0 -25 9 -33 22z" />
    <glyph glyph-name="gbreve" unicode="&#x11f;" horiz-adv-x="503" 
d="M390 477c28 -35 42 -82 42 -141c0 -120 -73 -198 -182 -198c-27 0 -40 1 -62 8c-19 -11 -41 -28 -41 -49c0 -77 338 4 338 -182c0 -103 -131 -157 -246 -157c-104 0 -196 33 -196 122c0 58 42 115 108 143c-31 11 -57 28 -57 68c0 31 20 58 49 77c-48 33 -77 91 -77 170
c0 123 73 201 185 201c26 0 50 -4 71 -12h153c16 0 22 -11 22 -25c0 -15 -6 -26 -22 -26zM250 488c-78 0 -128 -47 -128 -150c0 -99 50 -150 128 -150c77 0 126 51 126 148c0 108 -49 152 -126 152zM225 7c-66 -22 -129 -64 -129 -121c0 -60 71 -78 146 -78
c86 0 187 38 187 101c0 85 -108 86 -204 98zM250 640l56 94c8 13 13 22 33 22c13 0 21 -6 21 -13c0 -3 -1 -7 -3 -10l-71 -128c-5 -10 -11 -13 -22 -13h-28c-11 0 -17 3 -22 13l-71 128c-2 3 -3 7 -3 10c0 7 8 13 21 13c20 0 25 -9 33 -22z" />
    <glyph glyph-name="gdotaccent" unicode="&#x121;" horiz-adv-x="503" 
d="M390 477c28 -35 42 -82 42 -141c0 -120 -73 -198 -182 -198c-27 0 -40 1 -62 8c-19 -11 -41 -28 -41 -49c0 -77 338 4 338 -182c0 -103 -131 -157 -246 -157c-104 0 -196 33 -196 122c0 58 42 115 108 143c-31 11 -57 28 -57 68c0 31 20 58 49 77c-48 33 -77 91 -77 170
c0 123 73 201 185 201c26 0 50 -4 71 -12h153c16 0 22 -11 22 -25c0 -15 -6 -26 -22 -26zM250 488c-78 0 -128 -47 -128 -150c0 -99 50 -150 128 -150c77 0 126 51 126 148c0 108 -49 152 -126 152zM225 7c-66 -22 -129 -64 -129 -121c0 -60 71 -78 146 -78
c86 0 187 38 187 101c0 85 -108 86 -204 98zM223 695c0 14 14 20 28 20s29 -6 29 -20v-46c0 -14 -15 -20 -29 -20s-28 6 -28 20v46z" />
    <glyph glyph-name="gcommaaccent" unicode="&#x123;" horiz-adv-x="503" 
d="M390 477c28 -35 42 -82 42 -141c0 -120 -73 -198 -182 -198c-27 0 -40 1 -62 8c-19 -11 -41 -28 -41 -49c0 -77 338 4 338 -182c0 -103 -131 -157 -246 -157c-104 0 -196 33 -196 122c0 58 42 115 108 143c-31 11 -57 28 -57 68c0 31 20 58 49 77c-48 33 -77 91 -77 170
c0 123 73 201 185 201c26 0 50 -4 71 -12h153c16 0 22 -11 22 -25c0 -15 -6 -26 -22 -26zM250 488c-78 0 -128 -47 -128 -150c0 -99 50 -150 128 -150c77 0 126 51 126 148c0 108 -49 152 -126 152zM225 7c-66 -22 -129 -64 -129 -121c0 -60 71 -78 146 -78
c86 0 187 38 187 101c0 85 -108 86 -204 98zM421 1820l53 194c5 19 13 29 33 29c16 0 28 -8 28 -20c0 -3 0 -6 -1 -10l-57 -195c-4 -14 -12 -23 -31 -23c-18 0 -28 12 -25 25zM317 722l-79 -110c-5 -6 -7 -12 -7 -18c0 -12 11 -19 24 -19c12 0 25 5 34 18l80 117
c4 6 6 11 6 16c0 11 -7 18 -22 18s-25 -7 -36 -22z" />
    <glyph glyph-name="hcircumflex" unicode="&#x125;" horiz-adv-x="559" 
d="M152 480c41 26 91 59 167 59c94 0 155 -55 155 -168v-354c0 -17 -12 -24 -28 -24s-29 7 -29 24v344c0 86 -39 125 -109 125c-58 0 -109 -27 -156 -56v-413c0 -17 -12 -24 -28 -24s-29 7 -29 24v709c0 17 13 24 29 24s28 -7 28 -24v-246zM123 905l-56 -94
c-8 -13 -13 -22 -33 -22c-13 0 -21 6 -21 13c0 3 1 7 3 10l71 128c5 10 11 13 22 13h28c11 0 17 -3 22 -13l71 -128c2 -3 3 -7 3 -10c0 -7 -8 -13 -21 -13c-20 0 -25 9 -33 22z" />
    <glyph glyph-name="hbar" unicode="&#x127;" horiz-adv-x="548" 
d="M84 726c0 17 13 24 29 24s28 -7 28 -24v-67h176c12 0 18 -11 18 -23c0 -13 -6 -23 -18 -23h-176v-133c41 26 91 59 167 59c94 0 155 -55 155 -168v-354c0 -17 -12 -24 -28 -24s-29 7 -29 24v344c0 86 -39 125 -109 125c-58 0 -109 -27 -156 -56v-413
c0 -17 -12 -24 -28 -24s-29 7 -29 24v596h-64c-14 0 -20 10 -20 23c0 12 6 23 20 23h64v67z" />
    <glyph glyph-name="igrave" unicode="&#xec;" horiz-adv-x="247" 
d="M95 510c0 17 13 24 29 24s28 -7 28 -24v-493c0 -17 -12 -24 -28 -24s-29 7 -29 24v493zM82 608l-79 110c-5 6 -7 12 -7 18c0 12 11 19 24 19c12 0 25 -5 34 -18l80 -117c4 -6 6 -11 6 -16c0 -11 -7 -18 -22 -18s-25 7 -36 22z" />
    <glyph glyph-name="iacute" unicode="&#xed;" horiz-adv-x="247" 
d="M95 510c0 17 13 24 29 24s28 -7 28 -24v-493c0 -17 -12 -24 -28 -24s-29 7 -29 24v493zM243 718l-79 -110c-11 -15 -20 -22 -36 -22c-12 0 -22 7 -22 18c0 5 2 10 6 16l80 117c9 13 22 18 34 18c13 0 24 -7 24 -19c0 -6 -2 -12 -7 -18z" />
    <glyph glyph-name="icircumflex" unicode="&#xee;" horiz-adv-x="247" 
d="M95 510c0 17 13 24 29 24s28 -7 28 -24v-493c0 -17 -12 -24 -28 -24s-29 7 -29 24v493zM123 702l-56 -94c-8 -13 -13 -22 -33 -22c-13 0 -21 6 -21 13c0 3 1 7 3 10l71 128c5 10 11 13 22 13h28c11 0 17 -3 22 -13l71 -128c2 -3 3 -7 3 -10c0 -7 -8 -13 -21 -13
c-20 0 -25 9 -33 22z" />
    <glyph glyph-name="itilde" unicode="&#x129;" horiz-adv-x="247" 
d="M95 510c0 17 13 24 29 24s28 -7 28 -24v-493c0 -17 -12 -24 -28 -24s-29 7 -29 24v493zM179 631c-35 0 -79 37 -109 37c-16 0 -25 -11 -30 -24c-4 -11 -13 -16 -22 -16c-15 0 -22 10 -22 22c0 3 1 6 2 9c12 30 32 56 68 56c45 0 79 -36 112 -36c16 0 25 11 30 24
c4 11 13 16 22 16c15 0 22 -10 22 -22c0 -3 -1 -6 -2 -9c-12 -30 -35 -57 -71 -57z" />
    <glyph glyph-name="idieresis" unicode="&#xef;" horiz-adv-x="247" 
d="M95 510c0 17 13 24 29 24s28 -7 28 -24v-493c0 -17 -12 -24 -28 -24s-29 7 -29 24v493zM23 695c0 14 14 20 28 20s29 -6 29 -20v-46c0 -14 -15 -20 -29 -20s-28 6 -28 20v46zM166 695c0 14 14 20 28 20s29 -6 29 -20v-46c0 -14 -15 -20 -29 -20s-28 6 -28 20v46z" />
    <glyph glyph-name="imacron" unicode="&#x12b;" horiz-adv-x="247" 
d="M95 510c0 17 13 24 29 24s28 -7 28 -24v-493c0 -17 -12 -24 -28 -24s-29 7 -29 24v493zM20 646c-15 0 -21 11 -21 25c0 13 6 25 21 25h208c13 0 20 -12 20 -25c0 -14 -7 -25 -20 -25h-208z" />
    <glyph glyph-name="ibreve" horiz-adv-x="247" 
d="M95 510c0 17 13 24 29 24s28 -7 28 -24v-493c0 -17 -12 -24 -28 -24s-29 7 -29 24v493zM124 616c-66 0 -116 46 -116 95c0 12 9 18 22 18c15 0 20 -5 25 -19c10 -30 34 -45 69 -45s59 15 69 45c5 14 10 19 25 19c13 0 22 -6 22 -18c0 -49 -50 -95 -116 -95z" />
    <glyph glyph-name="iogonek" unicode="&#x12f;" horiz-adv-x="247" 
d="M95 510c0 17 13 24 29 24s28 -7 28 -24v-493c0 -8 -2 -13 -6 -17c-25 -24 -55 -52 -55 -90c0 -22 14 -36 38 -36c10 0 21 2 31 10c8 6 11 8 18 8c5 0 8 -1 13 -5c4 -4 8 -12 8 -19s-3 -14 -12 -22c-17 -13 -40 -21 -64 -21c-54 0 -81 36 -81 80c0 40 17 73 57 97
c-3 4 -4 9 -4 15v493zM95 687c0 14 14 20 28 20s29 -6 29 -20v-68c0 -14 -15 -20 -29 -20s-28 6 -28 20v68z" />
    <glyph glyph-name="dotlessi" unicode="&#x131;" horiz-adv-x="247" 
d="M95 510c0 17 13 24 29 24s28 -7 28 -24v-493c0 -17 -12 -24 -28 -24s-29 7 -29 24v493z" />
    <glyph glyph-name="jcircumflex" unicode="&#x135;" horiz-adv-x="247" 
d="M95 510c0 17 13 24 29 24s28 -7 28 -24v-615c0 -66 -51 -107 -113 -107c-24 0 -51 5 -74 19c-8 5 -12 14 -12 23c0 11 7 28 21 28c3 0 7 0 11 -2c18 -8 37 -13 54 -13c31 0 56 17 56 61v606zM124 702l-56 -94c-8 -13 -13 -22 -33 -22c-13 0 -21 6 -21 13c0 3 1 7 3 10
l71 128c5 10 11 13 22 13h28c11 0 17 -3 22 -13l71 -128c2 -3 3 -7 3 -10c0 -7 -8 -13 -21 -13c-20 0 -25 9 -33 22z" />
    <glyph glyph-name="kcommaaccent" unicode="&#x137;" horiz-adv-x="466" 
d="M95 726c0 17 13 24 29 24s28 -7 28 -24v-460l212 243c11 13 21 25 42 25c16 0 27 -7 27 -17c0 -5 -2 -10 -7 -16l-161 -184l191 -294c3 -4 3 -8 3 -11c0 -11 -12 -19 -24 -19c-23 0 -31 10 -40 23l-169 257l-74 -83v-173c0 -17 -12 -24 -28 -24s-29 7 -29 24v709z
M296 -72l-79 -110c-11 -15 -20 -22 -36 -22c-12 0 -22 7 -22 18c0 5 2 10 6 16l80 117c9 13 22 18 34 18c13 0 24 -7 24 -19c0 -6 -2 -12 -7 -18z" />
    <glyph glyph-name="lacute" unicode="&#x13a;" horiz-adv-x="293" 
d="M95 726c0 17 13 24 29 24s28 -7 28 -24v-646c0 -28 16 -39 37 -39c17 0 36 4 53 14c9 5 20 12 28 12c12 0 18 -12 18 -25c0 -10 -4 -19 -14 -26c-30 -19 -58 -28 -95 -28c-47 0 -84 30 -84 91v647zM247 919l-79 -110c-11 -15 -20 -22 -36 -22c-12 0 -22 7 -22 18
c0 5 2 10 6 16l80 117c9 13 22 18 34 18c13 0 24 -7 24 -19c0 -6 -2 -12 -7 -18z" />
    <glyph glyph-name="lcaron" unicode="&#x13e;" horiz-adv-x="293" 
d="M214 484l41 194c4 19 12 29 32 29c16 0 27 -8 27 -20c0 -3 0 -6 -1 -10l-51 -195c-4 -14 -8 -23 -27 -23c-18 0 -24 12 -21 25zM95 726c0 17 13 24 29 24s28 -7 28 -24v-646c0 -28 16 -39 37 -39c17 0 36 4 53 14c9 5 20 12 28 12c12 0 18 -12 18 -25
c0 -10 -4 -19 -14 -26c-30 -19 -58 -28 -95 -28c-47 0 -84 30 -84 91v647z" />
    <glyph glyph-name="lcommaaccent" unicode="&#x13c;" horiz-adv-x="293" 
d="M95 726c0 17 13 24 29 24s28 -7 28 -24v-646c0 -28 16 -39 37 -39c17 0 36 4 53 14c9 5 20 12 28 12c12 0 18 -12 18 -25c0 -10 -4 -19 -14 -26c-30 -19 -58 -28 -95 -28c-47 0 -84 30 -84 91v647zM219 -72l-79 -110c-11 -15 -20 -22 -36 -22c-12 0 -22 7 -22 18
c0 5 2 10 6 16l80 117c9 13 22 18 34 18c13 0 24 -7 24 -19c0 -6 -2 -12 -7 -18z" />
    <glyph glyph-name="lslash" unicode="&#x142;" horiz-adv-x="293" 
d="M95 726c0 17 13 24 29 24s28 -7 28 -24v-298l56 32c4 2 8 3 12 3c11 0 19 -8 19 -20c0 -18 -9 -26 -19 -32l-68 -39v-292c0 -28 16 -39 37 -39c17 0 36 4 53 14c9 5 20 12 28 12c12 0 18 -12 18 -25c0 -10 -4 -19 -14 -26c-30 -19 -58 -28 -95 -28c-47 0 -84 30 -84 91
v261l-55 -31c-5 -3 -9 -4 -13 -4c-11 0 -18 9 -18 21c0 18 9 26 19 32l67 38v330z" />
    <glyph glyph-name="nacute" unicode="&#x144;" horiz-adv-x="559" 
d="M150 479c45 29 94 60 169 60c94 0 155 -55 155 -168v-354c0 -17 -12 -24 -28 -24s-29 7 -29 24v344c0 86 -39 125 -109 125c-58 0 -109 -27 -156 -56v-413c0 -17 -12 -24 -28 -24s-29 7 -29 24v494c0 17 13 23 28 23s27 -6 27 -23v-32zM405 718l-79 -110
c-11 -15 -20 -22 -36 -22c-12 0 -22 7 -22 18c0 5 2 10 6 16l80 117c9 13 22 18 34 18c13 0 24 -7 24 -19c0 -6 -2 -12 -7 -18z" />
    <glyph glyph-name="ncaron" unicode="&#x148;" horiz-adv-x="559" 
d="M150 479c45 29 94 60 169 60c94 0 155 -55 155 -168v-354c0 -17 -12 -24 -28 -24s-29 7 -29 24v344c0 86 -39 125 -109 125c-58 0 -109 -27 -156 -56v-413c0 -17 -12 -24 -28 -24s-29 7 -29 24v494c0 17 13 23 28 23s27 -6 27 -23v-32zM287 640l56 94c8 13 13 22 33 22
c13 0 21 -6 21 -13c0 -3 -1 -7 -3 -10l-71 -128c-5 -10 -11 -13 -22 -13h-28c-11 0 -17 3 -22 13l-71 128c-2 3 -3 7 -3 10c0 7 8 13 21 13c20 0 25 -9 33 -22z" />
    <glyph glyph-name="ntilde" unicode="&#xf1;" horiz-adv-x="559" 
d="M150 479c45 29 94 60 169 60c94 0 155 -55 155 -168v-354c0 -17 -12 -24 -28 -24s-29 7 -29 24v344c0 86 -39 125 -109 125c-58 0 -109 -27 -156 -56v-413c0 -17 -12 -24 -28 -24s-29 7 -29 24v494c0 17 13 23 28 23s27 -6 27 -23v-32zM342 631c-35 0 -79 37 -109 37
c-16 0 -25 -11 -30 -24c-4 -11 -13 -16 -22 -16c-15 0 -22 10 -22 22c0 3 1 6 2 9c12 30 32 56 68 56c45 0 79 -36 112 -36c16 0 25 11 30 24c4 11 13 16 22 16c15 0 22 -10 22 -22c0 -3 -1 -6 -2 -9c-12 -30 -35 -57 -71 -57z" />
    <glyph glyph-name="ncommaaccent" unicode="&#x146;" horiz-adv-x="559" 
d="M150 479c45 29 94 60 169 60c94 0 155 -55 155 -168v-354c0 -17 -12 -24 -28 -24s-29 7 -29 24v344c0 86 -39 125 -109 125c-58 0 -109 -27 -156 -56v-413c0 -17 -12 -24 -28 -24s-29 7 -29 24v494c0 17 13 23 28 23s27 -6 27 -23v-32zM308 -72l-79 -110
c-11 -15 -20 -22 -36 -22c-12 0 -22 7 -22 18c0 5 2 10 6 16l80 117c9 13 22 18 34 18c13 0 24 -7 24 -19c0 -6 -2 -12 -7 -18z" />
    <glyph glyph-name="ograve" unicode="&#xf2;" horiz-adv-x="505" 
d="M254 539c139 0 196 -76 196 -279c0 -176 -63 -272 -197 -272c-127 0 -198 76 -198 275c0 194 66 276 199 276zM253 486c-93 0 -139 -50 -139 -223c0 -171 46 -222 139 -222c92 0 137 51 137 219c0 176 -45 226 -137 226zM211 608l-79 110c-5 6 -7 12 -7 18
c0 12 11 19 24 19c12 0 25 -5 34 -18l80 -117c4 -6 6 -11 6 -16c0 -11 -7 -18 -22 -18s-25 7 -36 22z" />
    <glyph glyph-name="oacute" unicode="&#xf3;" horiz-adv-x="505" 
d="M254 539c139 0 196 -76 196 -279c0 -176 -63 -272 -197 -272c-127 0 -198 76 -198 275c0 194 66 276 199 276zM253 486c-93 0 -139 -50 -139 -223c0 -171 46 -222 139 -222c92 0 137 51 137 219c0 176 -45 226 -137 226zM370 718l-79 -110c-11 -15 -20 -22 -36 -22
c-12 0 -22 7 -22 18c0 5 2 10 6 16l80 117c9 13 22 18 34 18c13 0 24 -7 24 -19c0 -6 -2 -12 -7 -18z" />
    <glyph glyph-name="ocircumflex" unicode="&#xf4;" horiz-adv-x="505" 
d="M254 539c139 0 196 -76 196 -279c0 -176 -63 -272 -197 -272c-127 0 -198 76 -198 275c0 194 66 276 199 276zM253 486c-93 0 -139 -50 -139 -223c0 -171 46 -222 139 -222c92 0 137 51 137 219c0 176 -45 226 -137 226zM252 702l-56 -94c-8 -13 -13 -22 -33 -22
c-13 0 -21 6 -21 13c0 3 1 7 3 10l71 128c5 10 11 13 22 13h28c11 0 17 -3 22 -13l71 -128c2 -3 3 -7 3 -10c0 -7 -8 -13 -21 -13c-20 0 -25 9 -33 22z" />
    <glyph glyph-name="otilde" unicode="&#xf5;" horiz-adv-x="505" 
d="M254 539c139 0 196 -76 196 -279c0 -176 -63 -272 -197 -272c-127 0 -198 76 -198 275c0 194 66 276 199 276zM253 486c-93 0 -139 -50 -139 -223c0 -171 46 -222 139 -222c92 0 137 51 137 219c0 176 -45 226 -137 226zM307 631c-35 0 -79 37 -109 37
c-16 0 -25 -11 -30 -24c-4 -11 -13 -16 -22 -16c-15 0 -22 10 -22 22c0 3 1 6 2 9c12 30 32 56 68 56c45 0 79 -36 112 -36c16 0 25 11 30 24c4 11 13 16 22 16c15 0 22 -10 22 -22c0 -3 -1 -6 -2 -9c-12 -30 -35 -57 -71 -57z" />
    <glyph glyph-name="odieresis" unicode="&#xf6;" horiz-adv-x="505" 
d="M254 539c139 0 196 -76 196 -279c0 -176 -63 -272 -197 -272c-127 0 -198 76 -198 275c0 194 66 276 199 276zM253 486c-93 0 -139 -50 -139 -223c0 -171 46 -222 139 -222c92 0 137 51 137 219c0 176 -45 226 -137 226zM152 695c0 14 14 20 28 20s29 -6 29 -20v-46
c0 -14 -15 -20 -29 -20s-28 6 -28 20v46zM295 695c0 14 14 20 28 20s29 -6 29 -20v-46c0 -14 -15 -20 -29 -20s-28 6 -28 20v46z" />
    <glyph glyph-name="omacron" unicode="&#x14d;" horiz-adv-x="505" 
d="M254 539c139 0 196 -76 196 -279c0 -176 -63 -272 -197 -272c-127 0 -198 76 -198 275c0 194 66 276 199 276zM253 486c-93 0 -139 -50 -139 -223c0 -171 46 -222 139 -222c92 0 137 51 137 219c0 176 -45 226 -137 226zM149 646c-15 0 -21 11 -21 25c0 13 6 25 21 25
h208c13 0 20 -12 20 -25c0 -14 -7 -25 -20 -25h-208z" />
    <glyph glyph-name="obreve" unicode="&#x14f;" horiz-adv-x="505" 
d="M254 539c139 0 196 -76 196 -279c0 -176 -63 -272 -197 -272c-127 0 -198 76 -198 275c0 194 66 276 199 276zM253 486c-93 0 -139 -50 -139 -223c0 -171 46 -222 139 -222c92 0 137 51 137 219c0 176 -45 226 -137 226zM252 616c-66 0 -116 46 -116 95c0 12 9 18 22 18
c15 0 20 -5 25 -19c10 -30 34 -45 69 -45s59 15 69 45c5 14 10 19 25 19c13 0 22 -6 22 -18c0 -49 -50 -95 -116 -95z" />
    <glyph glyph-name="ohungarumlaut" unicode="&#x151;" horiz-adv-x="505" 
d="M254 539c139 0 196 -76 196 -279c0 -176 -63 -272 -197 -272c-127 0 -198 76 -198 275c0 194 66 276 199 276zM253 486c-93 0 -139 -50 -139 -223c0 -171 46 -222 139 -222c92 0 137 51 137 219c0 176 -45 226 -137 226zM378 754c15 0 26 -7 26 -19c0 -3 -1 -9 -3 -12
l-64 -115c-8 -15 -14 -22 -30 -22c-12 0 -22 6 -22 15c0 3 1 6 3 10l56 120c8 16 17 23 34 23zM255 755c15 0 24 -7 24 -18c0 -4 -2 -10 -3 -13l-54 -117c-7 -14 -15 -21 -29 -21s-21 6 -21 16c0 2 1 5 2 8l46 119c8 21 19 26 35 26z" />
    <glyph glyph-name="oslash" unicode="&#xf8;" horiz-adv-x="505" 
d="M386 496l27 38c7 9 15 13 23 13c5 0 9 -1 12 -3c6 -3 12 -9 12 -18c0 -5 -2 -11 -7 -18l-37 -53c23 -44 34 -108 34 -195c0 -176 -63 -272 -197 -272c-56 0 -101 15 -134 48l-38 -53c-4 -6 -10 -8 -16 -8c-12 0 -25 11 -25 24c0 4 1 8 4 12l46 65c-23 43 -35 104 -35 187
c0 194 66 276 199 276c58 0 101 -13 132 -43zM375 397l-223 -314c23 -31 57 -42 101 -42c92 0 137 51 137 219c0 59 -5 103 -15 137zM351 445c-23 30 -55 41 -98 41c-93 0 -139 -50 -139 -223c0 -57 5 -100 15 -133z" />
    <glyph glyph-name="oslashacute" unicode="&#x1ff;" horiz-adv-x="505" 
d="M371 718l-79 -110c-11 -15 -20 -22 -36 -22c-12 0 -22 7 -22 18c0 5 2 10 6 16l80 117c9 13 22 18 34 18c13 0 24 -7 24 -19c0 -6 -2 -12 -7 -18zM386 496l27 38c7 9 15 13 23 13c5 0 9 -1 12 -3c6 -3 12 -9 12 -18c0 -5 -2 -11 -7 -18l-37 -53c23 -44 34 -108 34 -195
c0 -176 -63 -272 -197 -272c-56 0 -101 15 -134 48l-38 -53c-4 -6 -10 -8 -16 -8c-12 0 -25 11 -25 24c0 4 1 8 4 12l46 65c-23 43 -35 104 -35 187c0 194 66 276 199 276c58 0 101 -13 132 -43zM375 397l-223 -314c23 -31 57 -42 101 -42c92 0 137 51 137 219
c0 59 -5 103 -15 137zM351 445c-23 30 -55 41 -98 41c-93 0 -139 -50 -139 -223c0 -57 5 -100 15 -133z" />
    <glyph glyph-name="oe" unicode="&#x153;" horiz-adv-x="824" 
d="M420 431c30 75 87 108 168 108c126 0 179 -86 179 -212v-30c0 -16 -7 -27 -22 -27h-295c0 -175 63 -229 156 -229c49 0 86 20 112 40c8 6 14 8 20 8c10 0 20 -10 20 -25c0 -9 -3 -17 -12 -26c-19 -18 -78 -50 -144 -50c-85 0 -149 35 -183 118
c-26 -77 -79 -118 -166 -118c-127 0 -198 76 -198 275c0 194 66 276 199 276c89 0 140 -32 166 -108zM253 486c-93 0 -139 -50 -139 -223c0 -171 46 -222 139 -222c92 0 137 51 137 219c0 176 -45 226 -137 226zM451 321h257c0 109 -39 165 -121 165
c-83 0 -128 -45 -136 -165z" />
    <glyph glyph-name="racute" unicode="&#x155;" horiz-adv-x="388" 
d="M150 468c44 47 94 71 136 71c55 0 86 -45 86 -104c0 -17 -9 -23 -26 -23c-16 0 -24 6 -26 20c-5 33 -17 54 -43 54c-37 0 -86 -36 -125 -75v-394c0 -17 -12 -24 -28 -24s-29 7 -29 24v494c0 17 13 23 28 23s27 -6 27 -23v-43zM349 718l-79 -110c-11 -15 -20 -22 -36 -22
c-12 0 -22 7 -22 18c0 5 2 10 6 16l80 117c9 13 22 18 34 18c13 0 24 -7 24 -19c0 -6 -2 -12 -7 -18z" />
    <glyph glyph-name="rcommaaccent" unicode="&#x157;" horiz-adv-x="388" 
d="M150 468c44 47 94 71 136 71c55 0 86 -45 86 -104c0 -17 -9 -23 -26 -23c-16 0 -24 6 -26 20c-5 33 -17 54 -43 54c-37 0 -86 -36 -125 -75v-394c0 -17 -12 -24 -28 -24s-29 7 -29 24v494c0 17 13 23 28 23s27 -6 27 -23v-43zM137 -72l-79 -110c-11 -15 -20 -22 -36 -22
c-12 0 -22 7 -22 18c0 5 2 10 6 16l80 117c9 13 22 18 34 18c13 0 24 -7 24 -19c0 -6 -2 -12 -7 -18z" />
    <glyph glyph-name="rcaron" unicode="&#x159;" horiz-adv-x="388" 
d="M150 468c44 47 94 71 136 71c55 0 86 -45 86 -104c0 -17 -9 -23 -26 -23c-16 0 -24 6 -26 20c-5 33 -17 54 -43 54c-37 0 -86 -36 -125 -75v-394c0 -17 -12 -24 -28 -24s-29 7 -29 24v494c0 17 13 23 28 23s27 -6 27 -23v-43zM231 640l56 94c8 13 13 22 33 22
c13 0 21 -6 21 -13c0 -3 -1 -7 -3 -10l-71 -128c-5 -10 -11 -13 -22 -13h-28c-11 0 -17 3 -22 13l-71 128c-2 3 -3 7 -3 10c0 7 8 13 21 13c20 0 25 -9 33 -22z" />
    <glyph glyph-name="sacute" unicode="&#x15b;" horiz-adv-x="432" 
d="M347 381c-20 0 -26 7 -31 25c-13 49 -51 80 -110 80c-50 0 -94 -22 -94 -80c0 -111 267 -127 267 -273c0 -99 -76 -145 -165 -145c-59 0 -120 21 -160 60c-8 8 -10 16 -10 23c0 13 9 27 25 27c8 0 14 -5 21 -11c32 -29 78 -46 127 -46c57 0 105 26 105 87
c0 112 -267 121 -267 273c0 97 78 138 151 138c97 0 153 -54 166 -123c1 -3 1 -6 1 -9c0 -14 -7 -26 -26 -26zM332 718l-79 -110c-11 -15 -20 -22 -36 -22c-12 0 -22 7 -22 18c0 5 2 10 6 16l80 117c9 13 22 18 34 18c13 0 24 -7 24 -19c0 -6 -2 -12 -7 -18z" />
    <glyph glyph-name="scircumflex" unicode="&#x15d;" horiz-adv-x="432" 
d="M347 381c-20 0 -26 7 -31 25c-13 49 -51 80 -110 80c-50 0 -94 -22 -94 -80c0 -111 267 -127 267 -273c0 -99 -76 -145 -165 -145c-59 0 -120 21 -160 60c-8 8 -10 16 -10 23c0 13 9 27 25 27c8 0 14 -5 21 -11c32 -29 78 -46 127 -46c57 0 105 26 105 87
c0 112 -267 121 -267 273c0 97 78 138 151 138c97 0 153 -54 166 -123c1 -3 1 -6 1 -9c0 -14 -7 -26 -26 -26zM218 702l-56 -94c-8 -13 -13 -22 -33 -22c-13 0 -21 6 -21 13c0 3 1 7 3 10l71 128c5 10 11 13 22 13h28c11 0 17 -3 22 -13l71 -128c2 -3 3 -7 3 -10
c0 -7 -8 -13 -21 -13c-20 0 -25 9 -33 22z" />
    <glyph glyph-name="scaron" unicode="&#x161;" horiz-adv-x="432" 
d="M347 381c-20 0 -26 7 -31 25c-13 49 -51 80 -110 80c-50 0 -94 -22 -94 -80c0 -111 267 -127 267 -273c0 -99 -76 -145 -165 -145c-59 0 -120 21 -160 60c-8 8 -10 16 -10 23c0 13 9 27 25 27c8 0 14 -5 21 -11c32 -29 78 -46 127 -46c57 0 105 26 105 87
c0 112 -267 121 -267 273c0 97 78 138 151 138c97 0 153 -54 166 -123c1 -3 1 -6 1 -9c0 -14 -7 -26 -26 -26zM219 640l56 94c8 13 13 22 33 22c13 0 21 -6 21 -13c0 -3 -1 -7 -3 -10l-71 -128c-5 -10 -11 -13 -22 -13h-28c-11 0 -17 3 -22 13l-71 128c-2 3 -3 7 -3 10
c0 7 8 13 21 13c20 0 25 -9 33 -22z" />
    <glyph glyph-name="scedilla" unicode="&#x15f;" horiz-adv-x="432" 
d="M347 381c-20 0 -26 7 -31 25c-13 49 -51 80 -110 80c-50 0 -94 -22 -94 -80c0 -111 267 -127 267 -273c0 -83 -54 -129 -124 -141c12 -27 18 -50 18 -75c0 -62 -36 -94 -89 -94c-28 0 -52 9 -70 25c-8 8 -9 13 -9 20c0 12 9 25 22 25c10 0 13 -4 23 -11c9 -6 20 -9 30 -9
c29 0 43 13 43 50c0 17 -6 41 -16 65c-57 2 -115 22 -153 60c-8 8 -10 16 -10 23c0 13 9 27 25 27c8 0 14 -5 21 -11c32 -29 78 -46 127 -46c57 0 105 26 105 87c0 112 -267 121 -267 273c0 97 78 138 151 138c97 0 153 -54 166 -123c1 -3 1 -6 1 -9c0 -14 -7 -26 -26 -26z
" />
    <glyph glyph-name="scedilla" unicode="&#xf6c2;" horiz-adv-x="432" 
d="M347 381c-20 0 -26 7 -31 25c-13 49 -51 80 -110 80c-50 0 -94 -22 -94 -80c0 -111 267 -127 267 -273c0 -83 -54 -129 -124 -141c12 -27 18 -50 18 -75c0 -62 -36 -94 -89 -94c-28 0 -52 9 -70 25c-8 8 -9 13 -9 20c0 12 9 25 22 25c10 0 13 -4 23 -11c9 -6 20 -9 30 -9
c29 0 43 13 43 50c0 17 -6 41 -16 65c-57 2 -115 22 -153 60c-8 8 -10 16 -10 23c0 13 9 27 25 27c8 0 14 -5 21 -11c32 -29 78 -46 127 -46c57 0 105 26 105 87c0 112 -267 121 -267 273c0 97 78 138 151 138c97 0 153 -54 166 -123c1 -3 1 -6 1 -9c0 -14 -7 -26 -26 -26z
" />
    <glyph glyph-name="scommaaccent" unicode="&#x219;" horiz-adv-x="432" 
d="M347 381c-20 0 -26 7 -31 25c-13 49 -51 80 -110 80c-50 0 -94 -22 -94 -80c0 -111 267 -127 267 -273c0 -99 -76 -145 -165 -145c-59 0 -120 21 -160 60c-8 8 -10 16 -10 23c0 13 9 27 25 27c8 0 14 -5 21 -11c32 -29 78 -46 127 -46c57 0 105 26 105 87
c0 112 -267 121 -267 273c0 97 78 138 151 138c97 0 153 -54 166 -123c1 -3 1 -6 1 -9c0 -14 -7 -26 -26 -26zM241 -72l-79 -110c-11 -15 -20 -22 -36 -22c-12 0 -22 7 -22 18c0 5 2 10 6 16l80 117c9 13 22 18 34 18c13 0 24 -7 24 -19c0 -6 -2 -12 -7 -18z" />
    <glyph glyph-name="germandbls" unicode="&#xdf;" horiz-adv-x="552" 
d="M152 17c0 -17 -12 -24 -28 -24s-29 7 -29 24v548c0 116 75 185 180 185c112 0 181 -59 181 -159c0 -90 -84 -142 -84 -211c0 -102 155 -104 155 -250c0 -85 -66 -142 -151 -142c-66 0 -120 26 -157 67c-6 6 -8 13 -8 21s11 27 27 27c7 0 14 -2 21 -10
c29 -32 64 -52 116 -52c57 0 94 30 94 87c0 114 -154 117 -154 247c0 80 82 127 82 213c0 66 -38 112 -118 112c-81 0 -127 -49 -127 -135v-548z" />
    <glyph glyph-name="longs" unicode="&#x17f;" horiz-adv-x="360" 
d="M125 476h-65c-16 0 -22 11 -22 26c0 14 6 25 22 25h65v53c0 116 63 170 156 170c24 0 45 -4 59 -8c15 -4 20 -14 20 -27c0 -12 -7 -24 -21 -24c-10 0 -32 9 -59 9c-64 0 -98 -35 -98 -120v-685c0 -66 -51 -107 -113 -107c-24 0 -51 5 -74 19c-8 5 -12 14 -12 23
c0 11 7 28 21 28c3 0 7 0 11 -2c18 -8 37 -13 54 -13c31 0 56 17 56 61v572z" />
    <glyph glyph-name="tcaron" unicode="&#x165;" horiz-adv-x="350" 
d="M216 588l41 142c5 16 13 25 29 25c15 0 25 -7 25 -17c0 -3 -1 -7 -2 -10l-47 -142c-3 -11 -9 -18 -24 -18c-14 0 -24 10 -22 20zM111 626c0 17 13 24 29 24s28 -7 28 -24v-99h123c13 0 19 -8 19 -18c0 -15 -9 -33 -27 -33h-115v-371c0 -47 21 -64 49 -64
c32 0 58 13 86 29c6 3 11 4 15 4c12 0 19 -11 19 -26c0 -13 -6 -20 -14 -26c-30 -21 -71 -34 -109 -34c-57 0 -103 29 -103 112v376h-55c-16 0 -22 11 -22 26c0 14 6 25 22 25h55v99z" />
    <glyph glyph-name="tcommaaccent" unicode="&#x163;" horiz-adv-x="350" 
d="M111 626c0 17 13 24 29 24s28 -7 28 -24v-99h123c13 0 19 -8 19 -18c0 -15 -9 -33 -27 -33h-115v-371c0 -47 21 -64 49 -64c32 0 58 13 86 29c6 3 11 4 15 4c12 0 19 -11 19 -26c0 -13 -6 -20 -14 -26c-30 -21 -71 -34 -109 -34c-57 0 -103 29 -103 112v376h-55
c-16 0 -22 11 -22 26c0 14 6 25 22 25h55v99zM247 -72l-79 -110c-11 -15 -20 -22 -36 -22c-12 0 -22 7 -22 18c0 5 2 10 6 16l80 117c9 13 22 18 34 18c13 0 24 -7 24 -19c0 -6 -2 -12 -7 -18z" />
    <glyph glyph-name="tcommaaccent" unicode="&#x21b;" horiz-adv-x="350" 
d="M111 626c0 17 13 24 29 24s28 -7 28 -24v-99h123c13 0 19 -8 19 -18c0 -15 -9 -33 -27 -33h-115v-371c0 -47 21 -64 49 -64c32 0 58 13 86 29c6 3 11 4 15 4c12 0 19 -11 19 -26c0 -13 -6 -20 -14 -26c-30 -21 -71 -34 -109 -34c-57 0 -103 29 -103 112v376h-55
c-16 0 -22 11 -22 26c0 14 6 25 22 25h55v99zM247 -72l-79 -110c-11 -15 -20 -22 -36 -22c-12 0 -22 7 -22 18c0 5 2 10 6 16l80 117c9 13 22 18 34 18c13 0 24 -7 24 -19c0 -6 -2 -12 -7 -18z" />
    <glyph glyph-name="tbar" unicode="&#x167;" horiz-adv-x="350" 
d="M111 626c0 17 13 24 29 24s28 -7 28 -24v-99h123c13 0 19 -8 19 -18c0 -15 -9 -33 -27 -33h-115v-143h112c13 0 20 -12 20 -24c0 -14 -7 -25 -20 -25h-112v-179c0 -47 21 -64 49 -64c32 0 58 13 86 29c6 3 11 4 15 4c12 0 19 -11 19 -26c0 -13 -6 -20 -14 -26
c-30 -21 -71 -34 -109 -34c-57 0 -103 29 -103 112v184h-56c-15 0 -21 11 -21 25c0 12 6 24 21 24h56v143h-55c-16 0 -22 11 -22 26c0 14 6 25 22 25h55v99z" />
    <glyph glyph-name="ugrave" unicode="&#xf9;" horiz-adv-x="522" 
d="M380 510c0 17 13 24 29 24s28 -7 28 -24v-352c0 -118 -84 -170 -176 -170s-176 52 -176 170v352c0 17 13 24 29 24s28 -7 28 -24v-350c0 -96 59 -119 119 -119s119 23 119 119v350zM222 608l-79 110c-5 6 -7 12 -7 18c0 12 11 19 24 19c12 0 25 -5 34 -18l80 -117
c4 -6 6 -11 6 -16c0 -11 -7 -18 -22 -18s-25 7 -36 22z" />
    <glyph glyph-name="uacute" unicode="&#xfa;" horiz-adv-x="522" 
d="M380 510c0 17 13 24 29 24s28 -7 28 -24v-352c0 -118 -84 -170 -176 -170s-176 52 -176 170v352c0 17 13 24 29 24s28 -7 28 -24v-350c0 -96 59 -119 119 -119s119 23 119 119v350zM377 718l-79 -110c-11 -15 -20 -22 -36 -22c-12 0 -22 7 -22 18c0 5 2 10 6 16l80 117
c9 13 22 18 34 18c13 0 24 -7 24 -19c0 -6 -2 -12 -7 -18z" />
    <glyph glyph-name="ucircumflex" unicode="&#xfb;" horiz-adv-x="522" 
d="M380 510c0 17 13 24 29 24s28 -7 28 -24v-352c0 -118 -84 -170 -176 -170s-176 52 -176 170v352c0 17 13 24 29 24s28 -7 28 -24v-350c0 -96 59 -119 119 -119s119 23 119 119v350zM261 702l-56 -94c-8 -13 -13 -22 -33 -22c-13 0 -21 6 -21 13c0 3 1 7 3 10l71 128
c5 10 11 13 22 13h28c11 0 17 -3 22 -13l71 -128c2 -3 3 -7 3 -10c0 -7 -8 -13 -21 -13c-20 0 -25 9 -33 22z" />
    <glyph glyph-name="utilde" unicode="&#x169;" horiz-adv-x="522" 
d="M380 510c0 17 13 24 29 24s28 -7 28 -24v-352c0 -118 -84 -170 -176 -170s-176 52 -176 170v352c0 17 13 24 29 24s28 -7 28 -24v-350c0 -96 59 -119 119 -119s119 23 119 119v350zM316 631c-35 0 -79 37 -109 37c-16 0 -25 -11 -30 -24c-4 -11 -13 -16 -22 -16
c-15 0 -22 10 -22 22c0 3 1 6 2 9c12 30 32 56 68 56c45 0 79 -36 112 -36c16 0 25 11 30 24c4 11 13 16 22 16c15 0 22 -10 22 -22c0 -3 -1 -6 -2 -9c-12 -30 -35 -57 -71 -57z" />
    <glyph glyph-name="udieresis" unicode="&#xfc;" horiz-adv-x="522" 
d="M380 510c0 17 13 24 29 24s28 -7 28 -24v-352c0 -118 -84 -170 -176 -170s-176 52 -176 170v352c0 17 13 24 29 24s28 -7 28 -24v-350c0 -96 59 -119 119 -119s119 23 119 119v350zM161 695c0 14 14 20 28 20s29 -6 29 -20v-46c0 -14 -15 -20 -29 -20s-28 6 -28 20v46z
M304 695c0 14 14 20 28 20s29 -6 29 -20v-46c0 -14 -15 -20 -29 -20s-28 6 -28 20v46z" />
    <glyph glyph-name="umacron" unicode="&#x16b;" horiz-adv-x="522" 
d="M380 510c0 17 13 24 29 24s28 -7 28 -24v-352c0 -118 -84 -170 -176 -170s-176 52 -176 170v352c0 17 13 24 29 24s28 -7 28 -24v-350c0 -96 59 -119 119 -119s119 23 119 119v350zM157 646c-15 0 -21 11 -21 25c0 13 6 25 21 25h208c13 0 20 -12 20 -25
c0 -14 -7 -25 -20 -25h-208z" />
    <glyph glyph-name="ubreve" unicode="&#x16d;" horiz-adv-x="522" 
d="M380 510c0 17 13 24 29 24s28 -7 28 -24v-352c0 -118 -84 -170 -176 -170s-176 52 -176 170v352c0 17 13 24 29 24s28 -7 28 -24v-350c0 -96 59 -119 119 -119s119 23 119 119v350zM261 616c-66 0 -116 46 -116 95c0 12 9 18 22 18c15 0 20 -5 25 -19
c10 -30 34 -45 69 -45s59 15 69 45c5 14 10 19 25 19c13 0 22 -6 22 -18c0 -49 -50 -95 -116 -95z" />
    <glyph glyph-name="uring" unicode="&#x16f;" horiz-adv-x="522" 
d="M380 510c0 17 13 24 29 24s28 -7 28 -24v-352c0 -118 -84 -170 -176 -170s-176 52 -176 170v352c0 17 13 24 29 24s28 -7 28 -24v-350c0 -96 59 -119 119 -119s119 23 119 119v350zM175 671c0 46 37 81 85 81s86 -35 86 -81s-38 -80 -86 -80s-85 34 -85 80zM260 711
c-24 0 -39 -15 -39 -40c0 -24 15 -39 39 -39s40 15 40 39s-16 40 -40 40z" />
    <glyph glyph-name="uhungarumlaut" unicode="&#x171;" horiz-adv-x="522" 
d="M380 510c0 17 13 24 29 24s28 -7 28 -24v-352c0 -118 -84 -170 -176 -170s-176 52 -176 170v352c0 17 13 24 29 24s28 -7 28 -24v-350c0 -96 59 -119 119 -119s119 23 119 119v350zM389 754c15 0 26 -7 26 -19c0 -3 -1 -9 -3 -12l-64 -115c-8 -15 -14 -22 -30 -22
c-12 0 -22 6 -22 15c0 3 1 6 3 10l56 120c8 16 17 23 34 23zM266 755c15 0 24 -7 24 -18c0 -4 -2 -10 -3 -13l-54 -117c-7 -14 -15 -21 -29 -21s-21 6 -21 16c0 2 1 5 2 8l46 119c8 21 19 26 35 26z" />
    <glyph glyph-name="uogonek" unicode="&#x173;" horiz-adv-x="522" 
d="M380 510c0 17 13 24 29 24s28 -7 28 -24v-352c0 -92 -51 -144 -117 -162c-31 -23 -55 -50 -55 -86c0 -22 14 -36 38 -36c10 0 21 2 31 10c8 6 11 8 18 8c5 0 8 -1 13 -5c4 -4 8 -12 8 -19s-3 -14 -12 -22c-17 -13 -40 -21 -64 -21c-54 0 -81 36 -81 80c0 34 14 62 37 83
c-89 3 -168 55 -168 170v352c0 17 13 24 29 24s28 -7 28 -24v-350c0 -96 59 -119 119 -119s119 23 119 119v350z" />
    <glyph glyph-name="wgrave" unicode="&#x1e81;" horiz-adv-x="735" 
d="M197 87l133 422c5 15 13 18 28 18h18c15 0 23 -3 28 -18l133 -422l120 422c4 13 7 25 31 25c17 0 28 -10 28 -22c0 -2 0 -3 -1 -6l-144 -491c-2 -8 -8 -15 -22 -15h-22c-14 0 -18 6 -21 15l-139 436l-139 -436c-3 -9 -7 -15 -21 -15h-22c-14 0 -20 7 -22 15l-144 491
c-1 3 -1 4 -1 6c0 12 11 22 28 22c24 0 27 -12 31 -25zM325 608l-79 110c-5 6 -7 12 -7 18c0 12 11 19 24 19c12 0 25 -5 34 -18l80 -117c4 -6 6 -11 6 -16c0 -11 -7 -18 -22 -18s-25 7 -36 22z" />
    <glyph glyph-name="wacute" unicode="&#x1e83;" horiz-adv-x="735" 
d="M197 87l133 422c5 15 13 18 28 18h18c15 0 23 -3 28 -18l133 -422l120 422c4 13 7 25 31 25c17 0 28 -10 28 -22c0 -2 0 -3 -1 -6l-144 -491c-2 -8 -8 -15 -22 -15h-22c-14 0 -18 6 -21 15l-139 436l-139 -436c-3 -9 -7 -15 -21 -15h-22c-14 0 -20 7 -22 15l-144 491
c-1 3 -1 4 -1 6c0 12 11 22 28 22c24 0 27 -12 31 -25zM487 718l-79 -110c-11 -15 -20 -22 -36 -22c-12 0 -22 7 -22 18c0 5 2 10 6 16l80 117c9 13 22 18 34 18c13 0 24 -7 24 -19c0 -6 -2 -12 -7 -18z" />
    <glyph glyph-name="wcircumflex" unicode="&#x175;" horiz-adv-x="735" 
d="M197 87l133 422c5 15 13 18 28 18h18c15 0 23 -3 28 -18l133 -422l120 422c4 13 7 25 31 25c17 0 28 -10 28 -22c0 -2 0 -3 -1 -6l-144 -491c-2 -8 -8 -15 -22 -15h-22c-14 0 -18 6 -21 15l-139 436l-139 -436c-3 -9 -7 -15 -21 -15h-22c-14 0 -20 7 -22 15l-144 491
c-1 3 -1 4 -1 6c0 12 11 22 28 22c24 0 27 -12 31 -25zM367 702l-56 -94c-8 -13 -13 -22 -33 -22c-13 0 -21 6 -21 13c0 3 1 7 3 10l71 128c5 10 11 13 22 13h28c11 0 17 -3 22 -13l71 -128c2 -3 3 -7 3 -10c0 -7 -8 -13 -21 -13c-20 0 -25 9 -33 22z" />
    <glyph glyph-name="wdieresis" unicode="&#x1e85;" horiz-adv-x="735" 
d="M197 87l133 422c5 15 13 18 28 18h18c15 0 23 -3 28 -18l133 -422l120 422c4 13 7 25 31 25c17 0 28 -10 28 -22c0 -2 0 -3 -1 -6l-144 -491c-2 -8 -8 -15 -22 -15h-22c-14 0 -18 6 -21 15l-139 436l-139 -436c-3 -9 -7 -15 -21 -15h-22c-14 0 -20 7 -22 15l-144 491
c-1 3 -1 4 -1 6c0 12 11 22 28 22c24 0 27 -12 31 -25zM267 695c0 14 14 20 28 20s29 -6 29 -20v-46c0 -14 -15 -20 -29 -20s-28 6 -28 20v46zM410 695c0 14 14 20 28 20s29 -6 29 -20v-46c0 -14 -15 -20 -29 -20s-28 6 -28 20v46z" />
    <glyph glyph-name="ygrave" unicode="&#x1ef3;" horiz-adv-x="472" 
d="M234 101l160 410c5 14 13 23 34 23c15 0 23 -9 23 -20c0 -3 -1 -7 -2 -10l-192 -487c-44 -110 -96 -229 -214 -229c-22 0 -49 2 -73 16c-13 7 -16 17 -16 26c0 16 9 27 22 27c6 0 9 -2 15 -5c19 -10 33 -12 53 -12c81 0 119 90 158 182l-175 480c-1 3 -2 6 -2 9
c0 12 9 23 25 23c21 0 31 -9 36 -23zM200 608l-79 110c-5 6 -7 12 -7 18c0 12 11 19 24 19c12 0 25 -5 34 -18l80 -117c4 -6 6 -11 6 -16c0 -11 -7 -18 -22 -18s-25 7 -36 22z" />
    <glyph glyph-name="yacute" unicode="&#xfd;" horiz-adv-x="472" 
d="M234 101l160 410c5 14 13 23 34 23c15 0 23 -9 23 -20c0 -3 -1 -7 -2 -10l-192 -487c-44 -110 -96 -229 -214 -229c-22 0 -49 2 -73 16c-13 7 -16 17 -16 26c0 16 9 27 22 27c6 0 9 -2 15 -5c19 -10 33 -12 53 -12c81 0 119 90 158 182l-175 480c-1 3 -2 6 -2 9
c0 12 9 23 25 23c21 0 31 -9 36 -23zM352 718l-79 -110c-11 -15 -20 -22 -36 -22c-12 0 -22 7 -22 18c0 5 2 10 6 16l80 117c9 13 22 18 34 18c13 0 24 -7 24 -19c0 -6 -2 -12 -7 -18z" />
    <glyph glyph-name="ycircumflex" unicode="&#x177;" horiz-adv-x="472" 
d="M234 101l160 410c5 14 13 23 34 23c15 0 23 -9 23 -20c0 -3 -1 -7 -2 -10l-192 -487c-44 -110 -96 -229 -214 -229c-22 0 -49 2 -73 16c-13 7 -16 17 -16 26c0 16 9 27 22 27c6 0 9 -2 15 -5c19 -10 33 -12 53 -12c81 0 119 90 158 182l-175 480c-1 3 -2 6 -2 9
c0 12 9 23 25 23c21 0 31 -9 36 -23zM236 702l-56 -94c-8 -13 -13 -22 -33 -22c-13 0 -21 6 -21 13c0 3 1 7 3 10l71 128c5 10 11 13 22 13h28c11 0 17 -3 22 -13l71 -128c2 -3 3 -7 3 -10c0 -7 -8 -13 -21 -13c-20 0 -25 9 -33 22z" />
    <glyph glyph-name="ydieresis" unicode="&#xff;" horiz-adv-x="472" 
d="M234 101l160 410c5 14 13 23 34 23c15 0 23 -9 23 -20c0 -3 -1 -7 -2 -10l-192 -487c-44 -110 -96 -229 -214 -229c-22 0 -49 2 -73 16c-13 7 -16 17 -16 26c0 16 9 27 22 27c6 0 9 -2 15 -5c19 -10 33 -12 53 -12c81 0 119 90 158 182l-175 480c-1 3 -2 6 -2 9
c0 12 9 23 25 23c21 0 31 -9 36 -23zM136 695c0 14 14 20 28 20s29 -6 29 -20v-46c0 -14 -15 -20 -29 -20s-28 6 -28 20v46zM279 695c0 14 14 20 28 20s29 -6 29 -20v-46c0 -14 -15 -20 -29 -20s-28 6 -28 20v46z" />
    <glyph glyph-name="zacute" unicode="&#x17a;" horiz-adv-x="467" 
d="M118 52h289c16 0 22 -10 22 -27c0 -14 -6 -25 -22 -25h-344c-14 0 -20 9 -20 22s5 21 11 29l296 424h-283c-16 0 -22 10 -22 27c0 14 6 25 22 25h334c14 0 20 -9 20 -22s-5 -21 -11 -29zM349 718l-79 -110c-11 -15 -20 -22 -36 -22c-12 0 -22 7 -22 18c0 5 2 10 6 16
l80 117c9 13 22 18 34 18c13 0 24 -7 24 -19c0 -6 -2 -12 -7 -18z" />
    <glyph glyph-name="zcaron" unicode="&#x17e;" horiz-adv-x="467" 
d="M118 52h289c16 0 22 -10 22 -27c0 -14 -6 -25 -22 -25h-344c-14 0 -20 9 -20 22s5 21 11 29l296 424h-283c-16 0 -22 10 -22 27c0 14 6 25 22 25h334c14 0 20 -9 20 -22s-5 -21 -11 -29zM234 639l56 94c8 13 13 22 33 22c13 0 21 -6 21 -13c0 -3 -1 -7 -3 -10l-71 -128
c-5 -10 -11 -13 -22 -13h-28c-11 0 -17 3 -22 13l-71 128c-2 3 -3 7 -3 10c0 7 8 13 21 13c20 0 25 -9 33 -22z" />
    <glyph glyph-name="zdotaccent" unicode="&#x17c;" horiz-adv-x="467" 
d="M118 52h289c16 0 22 -10 22 -27c0 -14 -6 -25 -22 -25h-344c-14 0 -20 9 -20 22s5 21 11 29l296 424h-283c-16 0 -22 10 -22 27c0 14 6 25 22 25h334c14 0 20 -9 20 -22s-5 -21 -11 -29zM205 695c0 14 14 20 28 20s29 -6 29 -20v-46c0 -14 -15 -20 -29 -20s-28 6 -28 20
v46z" />
    <glyph glyph-name="eng" unicode="&#x14b;" horiz-adv-x="559" 
d="M150 479c45 29 94 60 169 60c94 0 155 -55 155 -168v-476c0 -66 -51 -107 -113 -107c-24 0 -51 5 -74 19c-8 5 -12 14 -12 23c0 11 7 28 21 28c3 0 7 0 11 -2c18 -8 37 -13 54 -13c31 0 56 17 56 61v457c0 86 -39 125 -109 125c-58 0 -109 -27 -156 -56v-413
c0 -17 -12 -24 -28 -24s-29 7 -29 24v494c0 17 13 23 28 23s27 -6 27 -23v-32z" />
    <glyph glyph-name="eth" unicode="&#xf0;" horiz-adv-x="505" 
d="M449 259c0 -176 -62 -271 -196 -271c-127 0 -198 76 -198 275c0 194 66 276 199 276c40 0 70 -13 89 -28c-18 42 -40 83 -62 116l-117 -20c-4 -1 -7 -1 -10 -1c-15 0 -21 8 -21 21c0 10 3 22 29 27l89 15c-11 14 -21 29 -32 41c-5 5 -8 12 -8 18c0 11 9 22 26 22
c13 0 23 -7 28 -13c14 -15 31 -38 45 -58l86 15c3 1 6 1 9 1c12 0 20 -6 20 -19c0 -12 -2 -24 -28 -29l-57 -10c58 -90 108 -214 109 -378zM253 486c-93 0 -139 -50 -139 -223c0 -171 46 -222 139 -222c92 0 137 51 137 219c0 176 -45 226 -137 226z" />
    <glyph glyph-name="thorn" unicode="&#xfe;" horiz-adv-x="536" 
d="M95 726c0 17 13 24 29 24s28 -7 28 -24v-245c46 34 91 58 155 58c78 0 174 -55 174 -274c0 -198 -94 -277 -205 -277c-42 0 -83 14 -124 36v-212c0 -17 -12 -24 -28 -24s-29 7 -29 24v914zM152 428v-343c40 -28 84 -44 123 -44c80 0 145 67 145 224
c0 163 -62 221 -121 221c-62 0 -101 -25 -147 -58z" />
    <glyph glyph-name="ampersand" unicode="&#x26;" horiz-adv-x="625" 
d="M460 182c12 34 18 73 18 114c0 24 8 35 27 35c20 0 30 -9 30 -38c0 -54 -11 -107 -31 -154l116 -110c4 -4 7 -11 7 -16c0 -11 -10 -20 -24 -20c-21 0 -34 8 -49 23l-77 74c-42 -61 -109 -102 -199 -102c-164 0 -232 88 -232 194c0 90 57 143 143 185
c-52 55 -91 111 -91 179c0 92 65 166 178 166c126 0 180 -73 180 -156c0 -102 -72 -159 -171 -203zM228 328c-72 -33 -123 -71 -123 -150c0 -91 78 -137 171 -137c73 0 127 34 161 87zM246 392c113 48 150 97 150 164c0 69 -48 103 -121 103c-39 0 -115 -18 -115 -109
c0 -68 40 -105 86 -158z" />
    <glyph glyph-name="grave" unicode="`" horiz-adv-x="500" 
d="M209 608l-79 110c-5 6 -7 12 -7 18c0 12 11 19 24 19c12 0 25 -5 34 -18l80 -117c4 -6 6 -11 6 -16c0 -11 -7 -18 -22 -18s-25 7 -36 22z" />
    <glyph glyph-name="acute" unicode="&#xb4;" horiz-adv-x="500" 
d="M368 718l-79 -110c-11 -15 -20 -22 -36 -22c-12 0 -22 7 -22 18c0 5 2 10 6 16l80 117c9 13 22 18 34 18c13 0 24 -7 24 -19c0 -6 -2 -12 -7 -18z" />
    <glyph glyph-name="circumflex" unicode="&#x2c6;" horiz-adv-x="500" 
d="M250 702l-56 -94c-8 -13 -13 -22 -33 -22c-13 0 -21 6 -21 13c0 3 1 7 3 10l71 128c5 10 11 13 22 13h28c11 0 17 -3 22 -13l71 -128c2 -3 3 -7 3 -10c0 -7 -8 -13 -21 -13c-20 0 -25 9 -33 22z" />
    <glyph glyph-name="caron" unicode="&#x2c7;" horiz-adv-x="500" 
d="M250 640l56 94c8 13 13 22 33 22c13 0 21 -6 21 -13c0 -3 -1 -7 -3 -10l-71 -128c-5 -10 -11 -13 -22 -13h-28c-11 0 -17 3 -22 13l-71 128c-2 3 -3 7 -3 10c0 7 8 13 21 13c20 0 25 -9 33 -22z" />
    <glyph glyph-name="tilde" unicode="&#x2dc;" horiz-adv-x="500" 
d="M305 631c-35 0 -79 37 -109 37c-16 0 -25 -11 -30 -24c-4 -11 -13 -16 -22 -16c-15 0 -22 10 -22 22c0 3 1 6 2 9c12 30 32 56 68 56c45 0 79 -36 112 -36c16 0 25 11 30 24c4 11 13 16 22 16c15 0 22 -10 22 -22c0 -3 -1 -6 -2 -9c-12 -30 -35 -57 -71 -57z" />
    <glyph glyph-name="dieresis" unicode="&#xa8;" horiz-adv-x="500" 
d="M150 695c0 14 14 20 28 20s29 -6 29 -20v-46c0 -14 -15 -20 -29 -20s-28 6 -28 20v46zM293 695c0 14 14 20 28 20s29 -6 29 -20v-46c0 -14 -15 -20 -29 -20s-28 6 -28 20v46z" />
    <glyph glyph-name="macron" unicode="&#xaf;" horiz-adv-x="500" 
d="M146 646c-15 0 -21 11 -21 25c0 13 6 25 21 25h208c13 0 20 -12 20 -25c0 -14 -7 -25 -20 -25h-208z" />
    <glyph glyph-name="macron" unicode="&#x2c9;" horiz-adv-x="500" 
d="M146 646c-15 0 -21 11 -21 25c0 13 6 25 21 25h208c13 0 20 -12 20 -25c0 -14 -7 -25 -20 -25h-208z" />
    <glyph glyph-name="breve" unicode="&#x2d8;" horiz-adv-x="500" 
d="M250 616c-66 0 -116 46 -116 95c0 12 9 18 22 18c15 0 20 -5 25 -19c10 -30 34 -45 69 -45s59 15 69 45c5 14 10 19 25 19c13 0 22 -6 22 -18c0 -49 -50 -95 -116 -95z" />
    <glyph glyph-name="ring" unicode="&#x2da;" horiz-adv-x="500" 
d="M164 671c0 46 37 81 85 81s86 -35 86 -81s-38 -80 -86 -80s-85 34 -85 80zM249 711c-24 0 -39 -15 -39 -40c0 -24 15 -39 39 -39s40 15 40 39s-16 40 -40 40z" />
    <glyph glyph-name="hungarumlaut" unicode="&#x2dd;" horiz-adv-x="500" 
d="M371 754c15 0 26 -7 26 -19c0 -3 -1 -9 -3 -12l-64 -115c-8 -15 -14 -22 -30 -22c-12 0 -22 6 -22 15c0 3 1 6 3 10l56 120c8 16 17 23 34 23zM248 755c15 0 24 -7 24 -18c0 -4 -2 -10 -3 -13l-54 -117c-7 -14 -15 -21 -29 -21s-21 6 -21 16c0 2 1 5 2 8l46 119
c8 21 19 26 35 26z" />
    <glyph glyph-name="dotaccent" unicode="&#x2d9;" horiz-adv-x="500" 
d="M221 695c0 14 14 20 28 20s29 -6 29 -20v-46c0 -14 -15 -20 -29 -20s-28 6 -28 20v46z" />
    <glyph glyph-name="cedilla" unicode="&#xb8;" horiz-adv-x="500" 
d="M234 0h50c15 -31 22 -56 22 -83c0 -62 -36 -94 -89 -94c-28 0 -52 9 -70 25c-8 8 -9 13 -9 20c0 12 9 25 22 25c10 0 13 -4 23 -11c9 -6 20 -9 30 -9c29 0 43 13 43 50c0 20 -8 49 -22 77z" />
    <glyph glyph-name="ogonek" unicode="&#x2db;" horiz-adv-x="500" 
d="M227 0h57c-33 -24 -61 -52 -61 -90c0 -22 14 -36 38 -36c10 0 21 2 31 10c8 6 11 8 18 8c5 0 8 -1 13 -5c4 -4 8 -12 8 -19s-3 -14 -12 -22c-17 -13 -40 -21 -64 -21c-54 0 -81 36 -81 80c0 41 20 73 53 95z" />
    <glyph glyph-name="comma" unicode="," horiz-adv-x="230" 
d="M120 78c17 0 27 -8 27 -21c0 -4 -1 -8 -3 -13l-75 -160c-7 -15 -14 -22 -32 -22c-13 0 -21 7 -21 17c0 3 1 6 2 9l62 159c9 23 23 31 40 31z" />
    <glyph glyph-name="semicolon" unicode=";" horiz-adv-x="230" 
d="M81 510c0 17 17 24 33 24c17 0 34 -7 34 -24v-37c0 -17 -17 -24 -34 -24c-16 0 -33 7 -33 24v37zM120 78c17 0 27 -8 27 -21c0 -4 -1 -8 -3 -13l-75 -160c-7 -15 -14 -22 -32 -22c-13 0 -21 7 -21 17c0 3 1 6 2 9l62 159c9 23 23 31 40 31z" />
    <glyph glyph-name="colon" unicode=":" horiz-adv-x="230" 
d="M81 54c0 17 17 24 33 24c17 0 34 -7 34 -24v-37c0 -17 -17 -24 -34 -24c-16 0 -33 7 -33 24v37zM81 510c0 17 17 24 33 24c17 0 34 -7 34 -24v-37c0 -17 -17 -24 -34 -24c-16 0 -33 7 -33 24v37z" />
    <glyph glyph-name="period" unicode="." horiz-adv-x="230" 
d="M81 54c0 17 17 24 33 24c17 0 34 -7 34 -24v-37c0 -17 -17 -24 -34 -24c-16 0 -33 7 -33 24v37z" />
    <glyph glyph-name="ellipsis" unicode="&#x2026;" horiz-adv-x="684" 
d="M81 54c0 17 17 24 33 24c17 0 34 -7 34 -24v-37c0 -17 -17 -24 -34 -24c-16 0 -33 7 -33 24v37zM308 54c0 17 17 24 33 24c17 0 34 -7 34 -24v-37c0 -17 -17 -24 -34 -24c-16 0 -33 7 -33 24v37zM535 54c0 17 17 24 33 24c17 0 34 -7 34 -24v-37c0 -17 -17 -24 -34 -24
c-16 0 -33 7 -33 24v37z" />
    <glyph glyph-name="hyphen" unicode="-" horiz-adv-x="429" 
d="M112 305c-16 0 -23 12 -23 28c0 15 7 27 23 27h206c16 0 23 -12 23 -27c0 -16 -7 -28 -23 -28h-206z" />
    <glyph glyph-name="hyphen" unicode="&#xad;" horiz-adv-x="429" 
d="M112 305c-16 0 -23 12 -23 28c0 15 7 27 23 27h206c16 0 23 -12 23 -27c0 -16 -7 -28 -23 -28h-206z" />
    <glyph glyph-name="exclam" unicode="!" horiz-adv-x="268" 
d="M105 683c0 17 13 24 29 24s29 -7 29 -24l-1 -514c0 -17 -12 -24 -28 -24s-28 7 -28 24zM100 54c0 17 17 24 33 24c17 0 34 -7 34 -24v-37c0 -17 -17 -24 -34 -24c-16 0 -33 7 -33 24v37z" />
    <glyph glyph-name="exclamdown" unicode="&#xa1;" horiz-adv-x="268" 
d="M104 -152l1 514c0 17 12 24 28 24s28 -7 28 -24l1 -514c0 -17 -13 -24 -29 -24s-29 7 -29 24zM99 477v37c0 17 17 24 33 24c17 0 34 -7 34 -24v-37c0 -17 -17 -24 -34 -24c-16 0 -33 7 -33 24z" />
    <glyph glyph-name="question" unicode="?" horiz-adv-x="451" 
d="M176 169c2 134 32 162 93 217c50 46 81 78 81 150c0 60 -37 123 -117 123c-98 0 -123 -63 -134 -119c-3 -12 -9 -24 -27 -24c-17 0 -30 9 -30 27v6c11 80 62 163 188 163c129 0 181 -94 181 -170c0 -87 -44 -142 -104 -195c-51 -45 -72 -65 -74 -178
c0 -17 -12 -24 -28 -24s-29 7 -29 24zM171 54c0 17 17 24 33 24c17 0 34 -7 34 -24v-37c0 -17 -17 -24 -34 -24c-16 0 -33 7 -33 24v37z" />
    <glyph glyph-name="questiondown" unicode="&#xbf;" horiz-adv-x="451" 
d="M275 358c-2 -134 -32 -162 -93 -217c-50 -46 -81 -78 -81 -150c0 -60 37 -123 117 -123c98 0 123 63 134 119c3 12 9 24 27 24c17 0 30 -9 30 -27v-6c-11 -80 -62 -163 -188 -163c-129 0 -181 94 -181 170c0 87 44 142 104 195c51 45 72 65 74 178c0 17 12 24 28 24
s29 -7 29 -24zM280 473c0 -17 -17 -24 -33 -24c-17 0 -34 7 -34 24v37c0 17 17 24 34 24c16 0 33 -7 33 -24v-37z" />
    <glyph glyph-name="quoteleft" unicode="&#x2018;" horiz-adv-x="230" 
d="M171 679l-53 -194c-5 -19 -13 -29 -33 -29c-16 0 -28 8 -28 20c0 3 0 6 1 10l57 195c4 14 12 23 31 23c18 0 28 -12 25 -25z" />
    <glyph glyph-name="quoteright" unicode="&#x2019;" horiz-adv-x="230" 
d="M58 484l53 194c5 19 13 29 33 29c16 0 28 -8 28 -20c0 -3 0 -6 -1 -10l-57 -195c-4 -14 -12 -23 -31 -23c-18 0 -28 12 -25 25z" />
    <glyph glyph-name="quotedblleft" unicode="&#x201c;" horiz-adv-x="398" 
d="M337 682l-50 -194c-5 -19 -13 -29 -33 -29c-16 0 -28 8 -28 20c0 3 0 6 1 10l54 195c4 14 12 23 31 23c18 0 28 -12 25 -25zM188 682l-65 -194c-6 -20 -17 -29 -37 -29c-16 0 -27 8 -27 21c0 3 1 6 2 10l71 194c5 14 12 23 31 23c18 0 28 -12 25 -25z" />
    <glyph glyph-name="quotedblright" unicode="&#x201d;" horiz-adv-x="398" 
d="M60 484l50 194c5 19 13 29 33 29c16 0 28 -8 28 -20c0 -3 0 -6 -1 -10l-54 -195c-4 -14 -12 -23 -31 -23c-18 0 -28 12 -25 25zM209 484l65 194c6 20 17 29 37 29c16 0 27 -8 27 -21c0 -3 -1 -6 -2 -10l-71 -194c-5 -14 -12 -23 -31 -23c-18 0 -29 12 -25 25z" />
    <glyph glyph-name="quotesinglbase" unicode="&#x201a;" horiz-adv-x="230" 
d="M58 -162l53 194c5 19 13 29 33 29c16 0 28 -8 28 -20c0 -3 0 -6 -1 -10l-57 -195c-4 -14 -12 -23 -31 -23c-18 0 -28 12 -25 25z" />
    <glyph glyph-name="quotedblbase" unicode="&#x201e;" horiz-adv-x="398" 
d="M83 -187c-18 0 -28 12 -25 25l49 194c5 19 14 29 34 29c16 0 28 -8 28 -20c0 -3 0 -6 -1 -10l-54 -195c-4 -14 -12 -23 -31 -23zM231 -187c-18 0 -29 12 -25 25l65 194c6 20 17 29 37 29s32 -13 25 -31l-71 -194c-5 -14 -12 -23 -31 -23z" />
    <glyph glyph-name="guilsinglleft" unicode="&#x2039;" horiz-adv-x="383" 
d="M124 299l174 -194c7 -8 12 -15 12 -22c0 -14 -13 -19 -23 -19c-12 0 -27 5 -38 18l-181 201c-5 5 -7 11 -7 15c0 6 2 12 7 17l181 201c11 13 26 18 38 18c10 0 23 -5 23 -19c0 -7 -5 -14 -12 -22z" />
    <glyph glyph-name="guilsinglright" unicode="&#x203a;" horiz-adv-x="383" 
d="M85 105l174 194l-174 194c-7 8 -12 15 -12 22c0 14 13 19 23 19c12 0 27 -5 38 -18l181 -201c5 -5 7 -11 7 -17c0 -4 -2 -10 -7 -15l-181 -201c-11 -13 -26 -18 -38 -18c-10 0 -23 5 -23 19c0 7 5 14 12 22z" />
    <glyph glyph-name="guillemotleft" unicode="&#xab;" horiz-adv-x="619" 
d="M124 299l174 -194c7 -8 12 -15 12 -22c0 -14 -13 -19 -23 -19c-12 0 -27 5 -38 18l-181 201c-5 5 -7 11 -7 15c0 6 2 12 7 17l181 201c11 13 26 18 38 18c10 0 23 -5 23 -19c0 -7 -5 -14 -12 -22zM360 299l174 -194c7 -8 12 -15 12 -22c0 -14 -13 -19 -23 -19
c-12 0 -27 5 -38 18l-181 201c-5 5 -7 11 -7 15c0 6 2 12 7 17l181 201c11 13 26 18 38 18c10 0 23 -5 23 -19c0 -7 -5 -14 -12 -22z" />
    <glyph glyph-name="guillemotright" unicode="&#xbb;" horiz-adv-x="619" 
d="M85 105l174 194l-174 194c-7 8 -12 15 -12 22c0 14 13 19 23 19c12 0 27 -5 38 -18l181 -201c5 -5 7 -11 7 -17c0 -4 -2 -10 -7 -15l-181 -201c-11 -13 -26 -18 -38 -18c-10 0 -23 5 -23 19c0 7 5 14 12 22zM321 105l174 194l-174 194c-7 8 -12 15 -12 22
c0 14 13 19 23 19c12 0 27 -5 38 -18l181 -201c5 -5 7 -11 7 -17c0 -4 -2 -10 -7 -15l-181 -201c-11 -13 -26 -18 -38 -18c-10 0 -23 5 -23 19c0 7 5 14 12 22z" />
    <glyph glyph-name="slash" unicode="/" horiz-adv-x="342" 
d="M263 683c5 16 14 24 30 24c17 0 28 -9 28 -21c0 -3 -1 -6 -2 -9l-241 -660c-6 -16 -14 -24 -30 -24c-14 0 -26 8 -26 20c0 2 0 5 1 7z" />
    <glyph glyph-name="bar" unicode="|" horiz-adv-x="266" 
d="M105 735c0 16 13 23 28 23s28 -7 28 -23v-948c0 -17 -13 -23 -28 -23s-28 6 -28 23v948z" />
    <glyph glyph-name="endash" unicode="&#x2013;" horiz-adv-x="569" 
d="M112 305c-16 0 -23 12 -23 28c0 15 7 27 23 27h346c16 0 23 -12 23 -27c0 -16 -7 -28 -23 -28h-346z" />
    <glyph glyph-name="emdash" unicode="&#x2014;" horiz-adv-x="948" 
d="M112 305c-16 0 -23 12 -23 28c0 15 7 27 23 27h725c16 0 23 -12 23 -27c0 -16 -7 -28 -23 -28h-725z" />
    <glyph glyph-name="bullet" unicode="&#x2022;" horiz-adv-x="381" 
d="M90 332c0 56 44 101 100 101s101 -45 101 -101s-45 -100 -101 -100s-100 44 -100 100z" />
    <glyph glyph-name="periodcentered" unicode="&#xb7;" horiz-adv-x="230" 
d="M81 351c0 17 17 24 33 24c17 0 34 -7 34 -24v-37c0 -17 -17 -24 -34 -24c-16 0 -33 7 -33 24v37z" />
    <glyph glyph-name="parenleft" unicode="(" horiz-adv-x="340" 
d="M75 256c0 228 95 381 177 472c17 19 28 27 46 27c16 0 23 -9 23 -19c0 -5 -3 -11 -7 -16c-83 -95 -183 -251 -183 -465s101 -370 184 -465c4 -5 7 -11 7 -16c0 -10 -7 -19 -23 -19c-18 0 -30 8 -47 27c-82 91 -177 244 -177 474z" />
    <glyph glyph-name="parenright" unicode=")" horiz-adv-x="340" 
d="M265 256c0 -230 -95 -383 -177 -474c-17 -19 -29 -27 -47 -27c-16 0 -23 9 -23 19c0 5 3 11 7 16c83 95 184 251 184 465s-100 370 -183 465c-4 5 -7 11 -7 16c0 10 7 19 23 19c18 0 29 -8 46 -27c82 -91 177 -244 177 -472z" />
    <glyph glyph-name="bracketleft" unicode="[" horiz-adv-x="307" 
d="M105 726c0 17 13 24 29 24h116c16 0 23 -13 23 -28c0 -16 -7 -27 -23 -27h-89v-870h89c16 0 23 -12 23 -27c0 -16 -7 -28 -23 -28h-116c-16 0 -29 7 -29 24v932z" />
    <glyph glyph-name="bracketright" unicode="]" horiz-adv-x="307" 
d="M202 726v-932c0 -17 -13 -24 -29 -24h-116c-16 0 -23 12 -23 28c0 15 7 27 23 27h89v870h-89c-16 0 -23 11 -23 27c0 15 7 28 23 28h116c16 0 29 -7 29 -24z" />
    <glyph glyph-name="braceleft" unicode="{" horiz-adv-x="327" 
d="M96 260c53 -11 80 -55 80 -110v-263c0 -54 27 -74 65 -74c11 0 23 1 35 3c4 1 8 1 11 1c16 0 26 -9 26 -26c0 -28 -48 -31 -77 -31c-66 0 -116 43 -116 127v266c0 45 -32 70 -70 79c-26 6 -31 12 -31 28c0 18 5 24 31 30c38 9 70 34 70 79v264c0 84 50 127 116 127
c29 0 77 -3 77 -31c0 -20 -12 -26 -26 -26c-3 0 -7 0 -11 1c-12 2 -24 3 -35 3c-38 0 -65 -20 -65 -74v-261c0 -55 -27 -99 -80 -112z" />
    <glyph glyph-name="braceright" unicode="}" horiz-adv-x="327" 
d="M231 260c-53 13 -80 57 -80 112v261c0 54 -27 74 -65 74c-11 0 -23 -1 -35 -3c-4 -1 -8 -1 -11 -1c-14 0 -26 6 -26 26c0 28 48 31 77 31c66 0 116 -43 116 -127v-264c0 -45 32 -70 70 -79c26 -6 31 -12 31 -30c0 -16 -5 -22 -31 -28c-38 -9 -70 -34 -70 -79v-266
c0 -84 -50 -127 -116 -127c-29 0 -77 3 -77 31c0 17 10 26 26 26c3 0 7 0 11 -1c12 -2 24 -3 35 -3c38 0 65 20 65 74v263c0 55 27 99 80 110z" />
    <glyph glyph-name="asterisk" unicode="*" horiz-adv-x="532" 
d="M244 550l-4 136c-1 14 10 21 26 21s26 -7 26 -21l-4 -136l137 83c4 2 7 3 11 3c13 0 23 -17 23 -29c0 -7 -3 -13 -10 -17l-133 -74l133 -74c7 -4 10 -10 10 -17c0 -12 -10 -29 -23 -29c-4 0 -7 1 -11 3l-137 83l4 -136c0 -14 -10 -21 -26 -21s-27 7 -26 21l4 136
l-137 -83c-4 -2 -8 -3 -11 -3c-14 0 -23 17 -23 29c0 7 3 13 10 17l133 74l-133 74c-7 4 -10 10 -10 17c0 12 9 29 23 29c3 0 7 -1 11 -3z" />
    <glyph glyph-name="dagger" unicode="&#x2020;" horiz-adv-x="429" 
d="M63 539c-16 0 -23 12 -23 28c0 15 7 23 23 23h124v93c0 17 13 24 28 24c16 0 27 -7 27 -24v-93h125c16 0 22 -8 22 -23c0 -16 -6 -28 -22 -28h-125v-252c0 -16 -11 -23 -27 -23c-15 0 -28 7 -28 23v252h-124z" />
    <glyph glyph-name="daggerdbl" unicode="&#x2021;" horiz-adv-x="429" 
d="M242 539v-99h105c16 0 22 -8 22 -23c0 -16 -6 -28 -22 -28h-105v-102c0 -16 -11 -23 -27 -23c-15 0 -28 7 -28 23v102h-104c-16 0 -23 12 -23 28c0 15 7 23 23 23h104v99h-124c-16 0 -23 12 -23 28c0 15 7 23 23 23h124v93c0 17 13 24 28 24c16 0 27 -7 27 -24v-93h125
c16 0 22 -8 22 -23c0 -16 -6 -28 -22 -28h-125z" />
    <glyph glyph-name="section" unicode="&#xa7;" horiz-adv-x="569" 
d="M458 110c3 -11 5 -22 5 -34c0 -116 -95 -164 -192 -164c-64 0 -131 26 -175 73c-9 9 -10 16 -10 23c0 13 10 23 24 23c8 0 14 -4 23 -13c36 -36 89 -58 140 -58c69 0 137 33 137 109c0 148 -343 145 -343 335c0 52 18 89 45 114c-2 11 -4 22 -4 34c0 117 92 160 172 160
c115 0 159 -70 169 -142c0 -3 1 -6 1 -9c0 -14 -9 -25 -27 -25c-11 0 -22 4 -26 24c-10 48 -38 104 -120 104c-60 0 -116 -34 -116 -106c0 -151 343 -152 343 -334c0 -50 -18 -87 -46 -114zM433 158c11 16 18 35 18 59c0 122 -234 143 -315 252c-10 -15 -16 -35 -16 -59
c0 -124 230 -147 313 -252z" />
    <glyph glyph-name="paragraph" unicode="&#xb6;" horiz-adv-x="696" 
d="M425 644v-731c0 -17 -13 -24 -29 -24s-29 7 -29 24v342c-15 -2 -40 -3 -58 -3c-121 0 -244 58 -244 222c0 150 70 226 232 226h265c16 0 29 -7 29 -24v-763c0 -17 -13 -24 -29 -24s-29 7 -29 24v731h-108zM367 644h-70c-121 0 -171 -49 -171 -170
c0 -120 74 -166 183 -166c19 0 42 1 58 3v333z" />
    <glyph glyph-name="uni0410" unicode="&#x410;" horiz-adv-x="531" 
d="M131 210l-59 -193c-5 -16 -16 -24 -32 -24c-17 0 -27 8 -27 20c0 2 0 5 1 8l212 662c3 9 11 17 26 17h30c17 0 20 -8 23 -17l212 -660c1 -3 1 -5 1 -8c0 -13 -11 -22 -29 -22c-17 0 -29 9 -34 26l-60 191h-264zM264 633l-116 -371h231z" />
    <glyph glyph-name="uni0411" unicode="&#x411;" horiz-adv-x="560" 
d="M163 644v-206c29 6 50 10 99 10c125 0 243 -58 243 -222c0 -150 -70 -226 -232 -226h-139c-16 0 -29 7 -29 24v652c0 17 13 24 29 24h307c16 0 23 -13 23 -28c0 -16 -7 -28 -23 -28h-278zM163 382v-326h110c121 0 172 49 172 170c0 120 -75 166 -184 166
c-47 0 -75 -3 -98 -10z" />
    <glyph glyph-name="uni0412" unicode="&#x412;" horiz-adv-x="561" 
d="M105 676c0 17 13 24 29 24h135c133 0 208 -49 208 -178c0 -69 -32 -125 -106 -161c88 -20 126 -71 126 -174c0 -137 -85 -187 -223 -187h-140c-16 0 -29 7 -29 24v652zM163 325v-269h111c108 0 164 33 164 128c0 94 -42 141 -164 141h-111zM163 644v-264h110
c90 0 144 67 144 140c0 87 -45 124 -148 124h-106z" />
    <glyph glyph-name="uni0413" unicode="&#x413;" horiz-adv-x="470" 
d="M163 644v-627c0 -17 -13 -24 -29 -24s-29 7 -29 24v659c0 17 13 24 29 24h287c16 0 23 -13 23 -28c0 -16 -7 -28 -23 -28h-258z" />
    <glyph glyph-name="uni0414" unicode="&#x414;" horiz-adv-x="611" 
d="M10 33c0 16 12 23 27 23h14c52 128 83 240 83 483v137c0 17 13 24 29 24h320c16 0 23 -13 23 -28v-616h27c16 0 27 -7 27 -23l-3 -171c0 -16 -8 -23 -24 -23c-15 0 -24 7 -24 23l-3 138h-442l-3 -138c0 -16 -8 -23 -24 -23c-15 0 -24 7 -24 23zM190 644v-105
c0 -232 -31 -369 -80 -483h338v588h-258z" />
    <glyph glyph-name="uni0415" unicode="&#x415;" horiz-adv-x="533" 
d="M163 644v-254h266c16 0 23 -13 23 -28c0 -16 -7 -27 -23 -27h-266v-279h292c16 0 23 -13 23 -28c0 -16 -7 -28 -23 -28h-321c-16 0 -29 7 -29 24v652c0 17 13 24 29 24h307c16 0 23 -13 23 -28c0 -16 -7 -28 -23 -28h-278z" />
    <glyph glyph-name="uni0416" unicode="&#x416;" horiz-adv-x="794" 
d="M368 388v295c0 17 13 24 29 24s29 -7 29 -24v-295h57l213 294c12 17 21 25 40 25c18 0 27 -9 27 -18c0 -4 -1 -8 -3 -11l-213 -291c103 -9 134 -90 166 -191c21 -68 46 -130 66 -173c1 -3 2 -6 2 -9c0 -12 -10 -21 -25 -21c-23 0 -33 11 -39 23c-14 28 -44 113 -59 163
c-31 100 -50 156 -139 156h-93v-318c0 -17 -13 -24 -29 -24s-29 7 -29 24v318h-93c-89 0 -108 -56 -139 -156c-15 -50 -45 -135 -59 -163c-6 -12 -16 -23 -39 -23c-15 0 -25 9 -25 21c0 3 1 6 2 9c20 43 45 105 66 173c32 101 63 182 166 191l-213 291c-2 3 -3 7 -3 11
c0 9 9 18 27 18c19 0 28 -8 40 -25l213 -294h57z" />
    <glyph glyph-name="uni0417" unicode="&#x417;" horiz-adv-x="519" 
d="M257 41c85 1 154 46 154 139s-54 144 -137 144h-86c-16 0 -23 12 -23 28c0 15 7 28 23 28h68c80 0 131 72 131 140c0 82 -42 139 -145 139c-95 0 -131 -60 -143 -115c-4 -22 -13 -25 -28 -25c-13 0 -30 5 -30 24c0 3 0 7 1 11c16 74 75 158 197 158
c133 0 208 -71 208 -190c0 -69 -33 -132 -107 -163c81 -21 130 -73 130 -176c0 -127 -89 -195 -214 -195c-68 0 -144 24 -197 80c-5 5 -8 14 -8 21c0 15 12 30 27 30c6 0 13 -3 20 -10c37 -40 101 -68 159 -68z" />
    <glyph glyph-name="uni0418" unicode="&#x418;" horiz-adv-x="690" 
d="M161 111l367 574c7 11 16 22 31 22s26 -7 26 -23v-668c0 -16 -13 -23 -28 -23c-16 0 -28 7 -28 23v566l-367 -568c-7 -11 -16 -21 -31 -21s-26 7 -26 23v668c0 16 13 23 28 23c16 0 28 -7 28 -23v-573z" />
    <glyph glyph-name="uni0419" unicode="&#x419;" horiz-adv-x="690" 
d="M345 769c-66 0 -116 46 -116 95c0 12 9 18 22 18c15 0 20 -5 25 -19c10 -30 34 -45 69 -45s59 15 69 45c5 14 10 19 25 19c13 0 22 -6 22 -18c0 -49 -50 -95 -116 -95zM161 111l367 574c7 11 16 22 31 22s26 -7 26 -23v-668c0 -16 -13 -23 -28 -23c-16 0 -28 7 -28 23
v566l-367 -568c-7 -11 -16 -21 -31 -21s-26 7 -26 23v668c0 16 13 23 28 23c16 0 28 -7 28 -23v-573z" />
    <glyph glyph-name="uni041A" unicode="&#x41a;" horiz-adv-x="531" 
d="M163 388h57l213 294c12 17 21 25 40 25c18 0 27 -9 27 -18c0 -4 -1 -8 -3 -11l-213 -291c103 -9 134 -90 166 -191c21 -68 46 -130 66 -173c1 -3 2 -6 2 -9c0 -12 -10 -21 -25 -21c-23 0 -33 11 -39 23c-14 28 -44 113 -59 163c-31 100 -50 156 -139 156h-93v-318
c0 -17 -13 -24 -29 -24s-29 7 -29 24v666c0 17 13 24 29 24s29 -7 29 -24v-295z" />
    <glyph glyph-name="uni041B" unicode="&#x41b;" horiz-adv-x="567" 
d="M193 644l-20 -395c-7 -128 -18 -256 -144 -256c-24 0 -29 12 -29 28c0 15 5 28 29 28c73 0 81 97 86 204l19 423c1 14 9 24 26 24h279c16 0 23 -13 23 -28v-655c0 -17 -13 -24 -29 -24s-29 7 -29 24v627h-211z" />
    <glyph glyph-name="uni041C" unicode="&#x41c;" horiz-adv-x="824" 
d="M178 601l-51 -584c-2 -17 -12 -24 -28 -24s-30 8 -28 25l62 663c1 9 6 19 19 19h31c13 0 18 -7 22 -17l207 -554l207 554c4 10 9 17 22 17h31c13 0 18 -10 19 -19l62 -663c2 -17 -12 -25 -28 -25s-26 7 -28 24l-52 584l-194 -525c-6 -16 -20 -20 -27 -20h-24
c-7 0 -21 4 -27 20z" />
    <glyph glyph-name="uni041D" unicode="&#x41d;" horiz-adv-x="675" 
d="M512 683c0 17 13 24 29 24s29 -7 29 -24v-666c0 -17 -13 -24 -29 -24s-29 7 -29 24v316h-349v-316c0 -17 -13 -24 -29 -24s-29 7 -29 24v666c0 17 13 24 29 24s29 -7 29 -24v-294h349v294z" />
    <glyph glyph-name="uni041E" unicode="&#x41e;" horiz-adv-x="621" 
d="M313 712c152 0 248 -100 248 -361c0 -264 -102 -363 -254 -363c-145 0 -247 99 -247 360c0 264 104 364 253 364zM310 659c-117 0 -190 -81 -190 -310c0 -227 73 -308 190 -308c121 0 191 81 191 310c0 227 -70 308 -191 308z" />
    <glyph glyph-name="uni041F" unicode="&#x41f;" horiz-adv-x="675" 
d="M163 644v-627c0 -17 -13 -24 -29 -24s-29 7 -29 24v659c0 17 13 24 29 24h407c16 0 29 -7 29 -24v-659c0 -17 -13 -24 -29 -24s-29 7 -29 24v627h-349z" />
    <glyph glyph-name="uni0420" unicode="&#x420;" horiz-adv-x="560" 
d="M163 262v-249c0 -14 -14 -20 -29 -20c-16 0 -29 7 -29 24v659c0 17 13 24 29 24h139c162 0 232 -56 232 -226c0 -164 -123 -222 -244 -222c-49 0 -69 4 -98 10zM163 644v-326c28 -5 46 -10 98 -10c109 0 184 46 184 166c0 121 -51 170 -172 170h-110z" />
    <glyph glyph-name="uni0421" unicode="&#x421;" horiz-adv-x="549" 
d="M486 549v-4c0 -15 -7 -29 -28 -29c-15 0 -25 8 -29 25c-12 57 -37 118 -134 118c-133 0 -175 -81 -175 -310c0 -227 65 -308 196 -308c60 0 102 15 138 33c6 3 12 5 18 5c15 0 21 -13 21 -28c0 -12 -6 -19 -21 -26c-40 -20 -92 -37 -159 -37c-161 0 -253 99 -253 360
c0 264 71 364 238 364c126 0 177 -84 188 -163z" />
    <glyph glyph-name="uni0422" unicode="&#x422;" horiz-adv-x="540" 
d="M241 644h-193c-16 0 -23 12 -23 28c0 15 7 28 22 28h445c16 0 23 -13 23 -28c0 -16 -7 -28 -23 -28h-193v-627c0 -17 -13 -24 -29 -24s-29 7 -29 24v627z" />
    <glyph glyph-name="uni0423" unicode="&#x423;" horiz-adv-x="518" 
d="M228 245l-225 431c-2 4 -3 7 -3 12c0 12 11 19 27 19c20 0 27 -9 36 -25l196 -376l199 376c9 16 17 25 36 25c16 0 24 -8 24 -20c0 -5 -1 -6 -2 -10l-286 -546c-41 -79 -74 -138 -181 -138c-16 0 -23 12 -23 28c0 15 7 28 23 28c81 0 105 51 133 106z" />
    <glyph glyph-name="uni0424" unicode="&#x424;" horiz-adv-x="650" 
d="M299 692c0 14 13 20 26 20c14 0 27 -6 27 -20v-65c134 -6 253 -71 253 -279c0 -207 -119 -272 -253 -278v-62c0 -14 -13 -20 -27 -20c-13 0 -26 6 -26 20v62c-135 6 -254 71 -254 278c0 209 119 273 254 279v65zM103 348c0 -183 90 -221 196 -225v451
c-106 -5 -196 -44 -196 -226zM547 348c0 182 -90 221 -195 226v-451c105 5 195 43 195 225z" />
    <glyph glyph-name="uni0425" unicode="&#x425;" horiz-adv-x="509" 
d="M257 405l174 276c9 15 16 26 37 26c16 0 26 -9 26 -20c0 -3 -1 -7 -3 -10l-200 -318l205 -335c2 -4 3 -8 3 -11c0 -13 -11 -20 -28 -20c-21 0 -29 10 -40 27l-177 290l-181 -291c-9 -15 -17 -26 -38 -26c-14 0 -25 8 -25 20c0 3 1 8 2 10l209 334l-192 318
c-2 3 -3 8 -3 11c0 12 12 21 29 21c21 0 29 -10 39 -27z" />
    <glyph glyph-name="uni0426" unicode="&#x426;" horiz-adv-x="675" 
d="M570 683v-627h27c16 0 27 -7 27 -23l-3 -171c0 -16 -8 -23 -24 -23c-15 0 -24 7 -24 23l-3 138h-436c-16 0 -29 7 -29 24v659c0 17 13 24 29 24s29 -7 29 -24v-627h349v627c0 17 13 24 29 24s29 -7 29 -24z" />
    <glyph glyph-name="uni0427" unicode="&#x427;" horiz-adv-x="636" 
d="M462 359v324c0 17 13 24 29 24s29 -7 29 -24v-666c0 -17 -13 -24 -29 -24s-29 7 -29 24v284c-39 -22 -94 -42 -163 -42c-168 0 -226 88 -226 236v188c0 17 13 24 29 24s29 -7 29 -24v-187c0 -113 36 -184 168 -184c76 0 123 19 163 47z" />
    <glyph glyph-name="uni0428" unicode="&#x428;" horiz-adv-x="960" 
d="M163 56h288v627c0 17 13 24 29 24s29 -7 29 -24v-627h288v627c0 17 13 24 29 24s29 -7 29 -24v-659c0 -17 -13 -24 -29 -24h-692c-16 0 -29 7 -29 24v659c0 17 13 24 29 24s29 -7 29 -24v-627z" />
    <glyph glyph-name="uni0429" unicode="&#x429;" horiz-adv-x="960" 
d="M451 56v627c0 17 13 24 29 24s29 -7 29 -24v-627h288v627c0 17 13 24 29 24s29 -7 29 -24v-627h27c16 0 27 -7 27 -23l-3 -171c0 -16 -8 -23 -24 -23c-15 0 -24 7 -24 23l-3 138h-721c-16 0 -29 7 -29 24v659c0 17 13 24 29 24s29 -7 29 -24v-627h288z" />
    <glyph glyph-name="uni042A" unicode="&#x42a;" horiz-adv-x="627" 
d="M187 644h-139c-16 0 -23 12 -23 28c0 15 7 28 23 28h168c16 0 29 -7 29 -24v-238c29 6 50 10 99 10c125 0 243 -58 243 -222c0 -150 -70 -226 -232 -226h-139c-16 0 -29 7 -29 24v620zM245 382v-326h110c121 0 172 49 172 170c0 120 -75 166 -184 166
c-47 0 -75 -3 -98 -10z" />
    <glyph glyph-name="uni042B" unicode="&#x42b;" horiz-adv-x="793" 
d="M630 683c0 17 13 24 29 24s29 -7 29 -24v-666c0 -17 -13 -24 -29 -24s-29 7 -29 24v666zM163 438c29 6 50 10 99 10c125 0 243 -58 243 -222c0 -150 -70 -226 -232 -226h-139c-16 0 -29 7 -29 24v659c0 17 13 24 29 24s29 -7 29 -24v-245zM163 382v-326h110
c121 0 172 49 172 170c0 120 -75 166 -184 166c-47 0 -75 -3 -98 -10z" />
    <glyph glyph-name="uni042C" unicode="&#x42c;" horiz-adv-x="545" 
d="M163 438c29 6 50 10 99 10c125 0 243 -58 243 -222c0 -150 -70 -226 -232 -226h-139c-16 0 -29 7 -29 24v659c0 17 13 24 29 24s29 -7 29 -24v-245zM163 382v-326h110c121 0 172 49 172 170c0 120 -75 166 -184 166c-47 0 -75 -3 -98 -10z" />
    <glyph glyph-name="uni042D" unicode="&#x42d;" horiz-adv-x="549" 
d="M429 388c-5 199 -50 271 -175 271c-97 0 -122 -61 -134 -118c-4 -17 -14 -25 -29 -25c-21 0 -28 14 -28 29v4c11 79 62 163 188 163c167 0 238 -100 238 -364c0 -261 -92 -360 -253 -360c-67 0 -119 17 -159 37c-15 7 -21 14 -21 26c0 15 6 28 21 28c6 0 12 -2 18 -5
c36 -18 78 -33 138 -33c128 0 193 77 196 292h-247c-16 0 -23 12 -23 27s7 28 23 28h247z" />
    <glyph glyph-name="uni042E" unicode="&#x42e;" horiz-adv-x="895" 
d="M105 683c0 17 13 24 29 24s29 -7 29 -24v-294h172c10 233 111 323 252 323c152 0 248 -100 248 -361c0 -264 -102 -363 -254 -363c-142 0 -243 95 -247 345h-171v-316c0 -17 -13 -24 -29 -24s-29 7 -29 24v666zM584 659c-117 0 -190 -81 -190 -310
c0 -227 73 -308 190 -308c121 0 191 81 191 310c0 227 -70 308 -191 308z" />
    <glyph glyph-name="uni042F" unicode="&#x42f;" horiz-adv-x="550" 
d="M387 292h-89c-100 0 -117 -24 -151 -133c-16 -50 -37 -115 -51 -143c-6 -12 -16 -23 -39 -23c-15 0 -25 9 -25 21c0 3 1 6 2 9c20 43 36 85 58 153c24 74 44 125 94 141c-59 18 -123 60 -123 172c0 156 72 211 224 211h129c16 0 29 -7 29 -24v-659c0 -17 -13 -24 -29 -24
s-29 7 -29 24v275zM387 644h-99c-112 0 -165 -26 -165 -156c0 -103 70 -142 168 -142h96v298z" />
    <glyph glyph-name="uni0403" unicode="&#x403;" horiz-adv-x="470" 
d="M163 644v-627c0 -17 -13 -24 -29 -24s-29 7 -29 24v659c0 17 13 24 29 24h287c16 0 23 -13 23 -28c0 -16 -7 -28 -23 -28h-258zM387 891l-79 -110c-11 -15 -20 -22 -36 -22c-12 0 -22 7 -22 18c0 5 2 10 6 16l80 117c9 13 22 18 34 18c13 0 24 -7 24 -19
c0 -6 -2 -12 -7 -18z" />
    <glyph glyph-name="uni0490" unicode="&#x490;" horiz-adv-x="490" 
d="M459 798v-126c0 -16 -7 -28 -23 -28h-273v-627c0 -17 -13 -24 -29 -24s-29 7 -29 24v659c0 17 13 24 29 24h271l4 98c0 17 9 24 25 24c17 0 25 -7 25 -24z" />
    <glyph glyph-name="uni0402" unicode="&#x402;" horiz-adv-x="731" 
d="M241 644h-193c-16 0 -23 12 -23 28c0 15 7 28 22 28h445c16 0 23 -13 23 -28c0 -16 -7 -28 -23 -28h-193v-245c39 21 92 42 161 42c150 0 208 -80 211 -220v-17c0 -166 -38 -222 -103 -290c-4 -4 -10 -7 -17 -7c-19 0 -31 13 -31 28c0 6 3 13 7 17c44 49 86 92 86 252v16
c-3 104 -36 168 -154 168c-73 0 -120 -19 -160 -47v-324c0 -17 -13 -24 -29 -24s-29 7 -29 24v627z" />
    <glyph glyph-name="uni0404" unicode="&#x404;" horiz-adv-x="549" 
d="M486 549v-4c0 -15 -7 -29 -28 -29c-15 0 -25 8 -29 25c-12 57 -37 118 -134 118c-125 0 -170 -72 -175 -271h247c16 0 23 -13 23 -28s-7 -27 -23 -27h-247c3 -215 68 -292 196 -292c60 0 102 15 138 33c6 3 12 5 18 5c15 0 21 -13 21 -28c0 -12 -6 -19 -21 -26
c-40 -20 -92 -37 -159 -37c-161 0 -253 99 -253 360c0 264 71 364 238 364c126 0 177 -84 188 -163z" />
    <glyph glyph-name="uni0405" unicode="&#x405;" horiz-adv-x="531" 
d="M393 544c-12 56 -37 115 -133 115c-67 0 -129 -38 -129 -118c0 -168 337 -169 337 -371c0 -129 -95 -182 -203 -182c-72 0 -149 32 -197 82c-5 5 -8 14 -8 21c0 15 12 30 27 30c6 0 13 -3 20 -10c37 -40 102 -70 160 -70c77 0 142 37 142 121c0 165 -337 169 -337 373
c0 130 102 177 191 177c123 0 178 -83 187 -161c2 -16 -3 -34 -28 -34c-16 0 -25 9 -29 27z" />
    <glyph glyph-name="uni0400" unicode="&#x400;" horiz-adv-x="533" 
d="M163 644v-254h266c16 0 23 -13 23 -28c0 -16 -7 -27 -23 -27h-266v-279h292c16 0 23 -13 23 -28c0 -16 -7 -28 -23 -28h-321c-16 0 -29 7 -29 24v652c0 17 13 24 29 24h307c16 0 23 -13 23 -28c0 -16 -7 -28 -23 -28h-278zM244 770l-79 110c-5 6 -7 12 -7 18
c0 12 11 19 24 19c12 0 25 -5 34 -18l80 -117c4 -6 6 -11 6 -16c0 -11 -7 -18 -22 -18s-25 7 -36 22z" />
    <glyph glyph-name="uni0401" unicode="&#x401;" horiz-adv-x="533" 
d="M163 644v-254h266c16 0 23 -13 23 -28c0 -16 -7 -27 -23 -27h-266v-279h292c16 0 23 -13 23 -28c0 -16 -7 -28 -23 -28h-321c-16 0 -29 7 -29 24v652c0 17 13 24 29 24h307c16 0 23 -13 23 -28c0 -16 -7 -28 -23 -28h-278zM182 856c0 14 14 20 28 20s29 -6 29 -20v-46
c0 -14 -15 -20 -29 -20s-28 6 -28 20v46zM325 856c0 14 14 20 28 20s29 -6 29 -20v-46c0 -14 -15 -20 -29 -20s-28 6 -28 20v46z" />
    <glyph glyph-name="uni0406" unicode="&#x406;" horiz-adv-x="268" 
d="M105 683c0 17 13 24 29 24s29 -7 29 -24v-666c0 -17 -13 -24 -29 -24s-29 7 -29 24v666z" />
    <glyph glyph-name="uni0407" unicode="&#x407;" horiz-adv-x="268" 
d="M105 683c0 17 13 24 29 24s29 -7 29 -24v-666c0 -17 -13 -24 -29 -24s-29 7 -29 24v666zM34 856c0 14 14 20 28 20s29 -6 29 -20v-46c0 -14 -15 -20 -29 -20s-28 6 -28 20v46zM177 856c0 14 14 20 28 20s29 -6 29 -20v-46c0 -14 -15 -20 -29 -20s-28 6 -28 20v46z" />
    <glyph glyph-name="uni0408" unicode="&#x408;" horiz-adv-x="293" 
d="M130 683c0 17 13 24 29 24s29 -7 29 -24v-583c0 -67 -37 -112 -104 -112c-34 0 -84 13 -84 44c0 15 9 27 21 27c3 0 6 -1 9 -2c13 -7 29 -16 54 -16c31 0 46 19 46 63v579z" />
    <glyph glyph-name="uni040D" unicode="&#x40d;" horiz-adv-x="690" 
d="M161 115v568c0 17 -12 24 -28 24s-28 -7 -28 -24v-666c0 -17 10 -24 26 -24c13 0 20 4 28 16l370 569v-561c0 -17 12 -24 28 -24s28 7 28 24v666c0 17 -9 24 -25 24c-13 0 -21 -4 -32 -22zM324 770l-79 110c-5 6 -7 12 -7 18c0 12 11 19 24 19c12 0 25 -5 34 -18l80 -117
c4 -6 6 -11 6 -16c0 -11 -7 -18 -22 -18s-25 7 -36 22z" />
    <glyph glyph-name="uni040C" unicode="&#x40c;" horiz-adv-x="531" 
d="M163 388h57l213 294c12 17 21 25 40 25c18 0 27 -9 27 -18c0 -4 -1 -8 -3 -11l-213 -291c103 -9 134 -90 166 -191c21 -68 46 -130 66 -173c1 -3 2 -6 2 -9c0 -12 -10 -21 -25 -21c-23 0 -33 11 -39 23c-14 28 -44 113 -59 163c-31 100 -50 156 -139 156h-93v-318
c0 -17 -13 -24 -29 -24s-29 7 -29 24v666c0 17 13 24 29 24s29 -7 29 -24v-295zM404 881l-79 -110c-11 -15 -20 -22 -36 -22c-12 0 -22 7 -22 18c0 5 2 10 6 16l80 117c9 13 22 18 34 18c13 0 24 -7 24 -19c0 -6 -2 -12 -7 -18z" />
    <glyph glyph-name="uni0409" unicode="&#x409;" horiz-adv-x="844" 
d="M160 700h279c16 0 23 -13 23 -28v-234c29 6 50 10 99 10c125 0 243 -58 243 -222c0 -150 -70 -226 -232 -226h-139c-16 0 -29 7 -29 24v620h-211l-20 -395c-7 -128 -18 -256 -144 -256c-24 0 -29 12 -29 28c0 15 5 28 29 28c73 0 81 97 86 204l19 423c1 14 9 24 26 24z
M462 382v-326h110c121 0 172 49 172 170c0 120 -75 166 -184 166c-47 0 -75 -3 -98 -10z" />
    <glyph glyph-name="uni040A" unicode="&#x40a;" horiz-adv-x="892" 
d="M163 420h289v263c0 17 13 24 29 24s29 -7 29 -24v-248c29 6 50 10 99 10c125 0 243 -55 243 -219c0 -150 -70 -226 -232 -226h-139c-16 0 -29 7 -29 24v340h-289v-347c0 -17 -13 -24 -29 -24s-29 7 -29 24v666c0 17 13 24 29 24s29 -7 29 -24v-263zM510 379v-323h110
c121 0 172 49 172 170c0 120 -75 163 -184 163c-47 0 -75 -3 -98 -10z" />
    <glyph glyph-name="uni040B" unicode="&#x40b;" horiz-adv-x="741" 
d="M613 17v187c0 113 -30 184 -154 184c-73 0 -120 -19 -160 -47v-324c0 -17 -13 -24 -29 -24s-29 7 -29 24v627h-193c-16 0 -23 12 -23 28c0 15 7 28 22 28h445c16 0 23 -13 23 -28c0 -16 -7 -28 -23 -28h-193v-245c39 21 92 42 161 42c160 0 211 -88 211 -236v-188
c0 -17 -13 -24 -29 -24s-29 7 -29 24z" />
    <glyph glyph-name="uni040E" unicode="&#x40e;" horiz-adv-x="518" 
d="M228 245l-225 431c-2 4 -3 7 -3 12c0 12 11 19 27 19c20 0 27 -9 36 -25l196 -376l199 376c9 16 17 25 36 25c16 0 24 -8 24 -20c0 -5 -1 -6 -2 -10l-286 -546c-41 -79 -74 -138 -181 -138c-16 0 -23 12 -23 28c0 15 7 28 23 28c81 0 105 51 133 106zM259 769
c-66 0 -116 46 -116 95c0 12 9 18 22 18c15 0 20 -5 25 -19c10 -30 34 -45 69 -45s59 15 69 45c5 14 10 19 25 19c13 0 22 -6 22 -18c0 -49 -50 -95 -116 -95z" />
    <glyph glyph-name="uni040F" unicode="&#x40f;" horiz-adv-x="675" 
d="M163 683v-627h349v627c0 17 13 24 29 24s29 -7 29 -24v-659c0 -17 -13 -24 -29 -24h-176l-2 -138c0 -16 -9 -23 -26 -23c-16 0 -26 7 -26 23l-2 138h-175c-16 0 -29 7 -29 24v659c0 17 13 24 29 24s29 -7 29 -24z" />
    <glyph glyph-name="uni0462" unicode="&#x462;" horiz-adv-x="627" 
d="M438 568h-193v-130c29 6 50 10 99 10c125 0 243 -58 243 -222c0 -150 -70 -226 -232 -226h-139c-16 0 -29 7 -29 24v544h-139c-16 0 -23 12 -23 28c0 15 7 28 22 28h140v59c0 17 13 24 29 24s29 -7 29 -24v-59h193c16 0 23 -13 23 -28c0 -16 -7 -28 -23 -28zM245 382
v-326h110c121 0 172 49 172 170c0 120 -75 166 -184 166c-47 0 -75 -3 -98 -10z" />
    <glyph glyph-name="uni0472" unicode="&#x472;" horiz-adv-x="621" 
d="M313 712c152 0 248 -100 248 -361c0 -264 -102 -363 -254 -363c-145 0 -247 99 -247 360c0 264 104 364 253 364zM120 333c3 -215 76 -292 190 -292c118 0 187 76 191 292h-381zM120 389h380c-7 198 -76 270 -190 270c-110 0 -181 -72 -190 -270z" />
    <glyph glyph-name="uni0474" unicode="&#x474;" horiz-adv-x="568" 
d="M284 81l194 600c5 17 16 26 33 26c14 0 25 -9 25 -22c0 -3 0 -5 -1 -8l-216 -659c-4 -12 -12 -18 -24 -18h-19c-14 0 -24 6 -28 17l-215 659c-1 3 -1 6 -1 8c0 15 14 23 28 23c16 0 27 -8 33 -27z" />
    <glyph glyph-name="uni0430" unicode="&#x430;" horiz-adv-x="509" 
d="M347 129v123c-8 0 -16 1 -24 1c-123 0 -207 -52 -207 -131c0 -52 30 -81 79 -81c57 0 114 40 152 88zM347 303v91c0 61 -47 92 -102 92c-57 0 -104 -28 -115 -84c-3 -17 -16 -23 -26 -23c-15 0 -26 8 -26 24v5c10 85 90 131 171 131c79 0 155 -44 155 -136v-321
c0 -31 14 -41 31 -41c10 0 21 4 31 9c2 1 5 2 8 2c7 0 15 -6 15 -21c0 -17 -7 -25 -18 -32c-13 -8 -30 -11 -47 -11c-35 0 -72 20 -74 81c-47 -51 -109 -81 -163 -81c-68 0 -129 43 -129 131c0 135 141 185 267 185c7 0 15 -1 22 -1z" />
    <glyph glyph-name="uni0431" unicode="&#x431;" horiz-adv-x="505" 
d="M116 470c24 44 78 69 138 69c139 0 196 -76 196 -279c0 -176 -63 -272 -197 -272c-127 0 -198 80 -198 295c0 206 20 310 69 369c55 66 148 75 291 106c5 1 9 2 13 2c14 0 21 -13 21 -30c0 -14 -6 -23 -17 -27c-119 -30 -221 -22 -275 -94c-22 -30 -33 -75 -41 -139z
M253 486c-93 0 -141 -50 -141 -223c0 -171 48 -222 141 -222c92 0 137 51 137 219c0 176 -45 226 -137 226z" />
    <glyph glyph-name="uni0432" unicode="&#x432;" horiz-adv-x="505" 
d="M124 527h149c103 0 162 -37 162 -136c0 -50 -25 -92 -73 -119c60 -18 88 -54 88 -129c0 -105 -67 -143 -173 -143h-153c-16 0 -29 7 -29 24v479c0 17 13 24 29 24zM152 239v-188h124c76 0 116 24 116 90s-29 98 -116 98h-124zM152 476v-186h123c63 0 101 49 101 99
c0 60 -31 87 -104 87h-120z" />
    <glyph glyph-name="uni0433" unicode="&#x433;" horiz-adv-x="390" 
d="M152 476v-459c0 -17 -12 -24 -28 -24s-29 7 -29 24v486c0 17 13 24 29 24h235c15 0 21 -11 21 -26c0 -14 -6 -25 -21 -25h-207z" />
    <glyph glyph-name="uni0434" unicode="&#x434;" horiz-adv-x="517" 
d="M101 503c0 17 13 24 29 24h258c16 0 29 -7 29 -24v-452h19c15 0 27 -7 27 -23l-3 -166c0 -16 -10 -23 -25 -23c-16 0 -25 7 -25 23l-3 138h-330l-3 -138c0 -16 -9 -23 -25 -23c-15 0 -25 7 -25 23l-3 166c0 16 12 23 30 23c32 89 50 162 50 347v105zM157 476v-79
c0 -172 -18 -262 -48 -346h251v425h-203z" />
    <glyph glyph-name="uni0435" unicode="&#x435;" horiz-adv-x="490" 
d="M116 270c0 -175 63 -229 156 -229c49 0 86 20 112 40c8 6 14 8 20 8c10 0 20 -10 20 -25c0 -9 -3 -17 -12 -26c-19 -18 -78 -50 -144 -50c-127 0 -213 79 -213 278c0 194 74 273 199 273c126 0 179 -86 179 -212v-30c0 -16 -7 -27 -22 -27h-295zM117 321h257
c0 109 -39 165 -121 165c-83 0 -128 -45 -136 -165z" />
    <glyph glyph-name="uni0436" unicode="&#x436;" horiz-adv-x="681" 
d="M312 295v215c0 17 13 24 29 24s28 -7 28 -24v-215h43l178 215c11 14 21 24 42 24c14 0 25 -7 25 -16c0 -4 0 -7 -4 -12l-179 -215c72 -10 117 -51 149 -142c17 -47 28 -85 45 -124c2 -4 3 -9 3 -13c0 -10 -9 -19 -26 -19c-18 0 -28 8 -35 25c-11 27 -21 63 -40 115
c-35 95 -70 110 -136 110h-65v-226c0 -17 -12 -24 -28 -24s-29 7 -29 24v226h-65c-66 0 -101 -15 -136 -110c-19 -52 -29 -88 -40 -115c-7 -17 -17 -25 -35 -25c-17 0 -26 9 -26 19c0 4 1 9 3 13c17 39 28 77 45 124c32 91 77 132 149 142l-179 215c-4 5 -4 8 -4 12
c0 9 11 16 25 16c21 0 31 -10 42 -24l178 -215h43z" />
    <glyph glyph-name="uni0437" unicode="&#x437;" horiz-adv-x="451" 
d="M211 239h-64c-15 0 -21 11 -21 25c0 15 6 26 21 26h58c73 0 124 27 124 103c0 62 -42 93 -117 93c-85 0 -113 -48 -122 -102c-2 -11 -13 -16 -24 -16c-15 0 -30 7 -30 22v3c8 75 60 146 176 146c112 0 177 -53 177 -147c0 -60 -30 -105 -89 -124c55 -14 96 -55 96 -126
c0 -90 -59 -154 -187 -154c-75 0 -126 22 -159 49c-7 6 -11 15 -11 22c0 19 14 32 26 32c3 0 9 -2 11 -4c35 -29 78 -46 136 -46c79 0 126 30 126 100c0 75 -57 97 -127 98z" />
    <glyph glyph-name="uni0438" unicode="&#x438;" horiz-adv-x="569" 
d="M152 94l255 416c8 13 16 23 35 23c16 0 32 -7 32 -24v-493c0 -17 -13 -24 -29 -24s-28 7 -28 24v416l-255 -416c-8 -13 -16 -23 -35 -23c-16 0 -32 7 -32 24v493c0 17 13 24 29 24s28 -7 28 -24v-416z" />
    <glyph glyph-name="uni0439" unicode="&#x439;" horiz-adv-x="569" 
d="M152 94l255 416c8 13 16 23 35 23c16 0 32 -7 32 -24v-493c0 -17 -13 -24 -29 -24s-28 7 -28 24v416l-255 -416c-8 -13 -16 -23 -35 -23c-16 0 -32 7 -32 24v493c0 17 13 24 29 24s28 -7 28 -24v-416zM284 616c-66 0 -116 46 -116 95c0 12 9 18 22 18c15 0 20 -5 25 -19
c10 -30 34 -45 69 -45s59 15 69 45c5 14 10 19 25 19c13 0 22 -6 22 -18c0 -49 -50 -95 -116 -95z" />
    <glyph glyph-name="uni043A" unicode="&#x43a;" horiz-adv-x="483" 
d="M95 510c0 17 13 24 29 24s28 -7 28 -24v-215h62l178 215c11 14 21 24 42 24c14 0 25 -7 25 -16c0 -4 0 -7 -4 -12l-179 -215c72 -10 117 -51 149 -142c17 -47 27 -85 45 -124c2 -4 3 -9 3 -13c0 -10 -6 -19 -26 -19c-18 0 -28 8 -35 25c-11 27 -21 63 -40 115
c-35 95 -70 110 -136 110h-84v-226c0 -17 -12 -24 -28 -24s-29 7 -29 24v493z" />
    <glyph glyph-name="uni043B" unicode="&#x43b;" horiz-adv-x="533" 
d="M381 476h-218l-11 -238c-4 -97 -16 -245 -123 -245c-18 0 -29 6 -29 25c0 20 10 26 22 27c62 7 68 84 74 196l13 262c1 17 13 24 29 24h271c16 0 29 -7 29 -24v-486c0 -17 -12 -24 -28 -24s-29 7 -29 24v459z" />
    <glyph glyph-name="uni043C" unicode="&#x43c;" horiz-adv-x="684" 
d="M342 110l158 399c5 13 11 18 24 18h20c12 0 21 -5 23 -17l64 -495c2 -15 -10 -22 -25 -22s-26 7 -28 22l-56 417l-144 -371c-4 -11 -11 -20 -28 -20h-16c-17 0 -24 9 -28 20l-144 371l-56 -417c-2 -15 -13 -22 -28 -22s-27 7 -25 22l64 495c2 12 11 17 23 17h20
c13 0 19 -5 24 -18z" />
    <glyph glyph-name="uni043D" unicode="&#x43d;" horiz-adv-x="569" 
d="M417 510c0 17 13 24 29 24s28 -7 28 -24v-493c0 -17 -12 -24 -28 -24s-29 7 -29 24v244h-265v-244c0 -17 -12 -24 -28 -24s-29 7 -29 24v493c0 17 13 24 29 24s28 -7 28 -24v-198h265v198z" />
    <glyph glyph-name="uni043E" unicode="&#x43e;" horiz-adv-x="505" 
d="M254 539c139 0 196 -76 196 -279c0 -176 -63 -272 -197 -272c-127 0 -198 76 -198 275c0 194 66 276 199 276zM253 486c-93 0 -139 -50 -139 -223c0 -171 46 -222 139 -222c92 0 137 51 137 219c0 176 -45 226 -137 226z" />
    <glyph glyph-name="uni043F" unicode="&#x43f;" horiz-adv-x="569" 
d="M417 17v459h-265v-459c0 -17 -12 -24 -28 -24s-29 7 -29 24v486c0 17 13 24 29 24h321c16 0 29 -7 29 -24v-486c0 -17 -13 -24 -29 -24s-28 7 -28 24z" />
    <glyph glyph-name="uni0440" unicode="&#x440;" horiz-adv-x="536" 
d="M150 479c47 35 92 60 157 60c78 0 174 -55 174 -274c0 -198 -94 -277 -205 -277c-42 0 -83 14 -124 36v-212c0 -17 -12 -24 -28 -24s-29 7 -29 24v699c0 17 13 23 28 23s27 -6 27 -23v-32zM152 428v-343c40 -28 84 -44 123 -44c80 0 145 67 145 224
c0 163 -62 221 -121 221c-62 0 -101 -25 -147 -58z" />
    <glyph glyph-name="uni0441" unicode="&#x441;" horiz-adv-x="464" 
d="M383 369c-18 0 -25 8 -27 21c-10 54 -47 96 -113 96c-93 0 -127 -50 -127 -223c0 -171 46 -222 139 -222c51 0 85 18 110 36c8 6 14 8 20 8c10 0 20 -10 20 -25c0 -9 -2 -18 -12 -26c-33 -26 -79 -46 -138 -46c-127 0 -200 76 -200 275c0 200 60 276 193 276
c110 0 161 -77 161 -148c0 -7 -4 -22 -26 -22z" />
    <glyph glyph-name="uni0442" unicode="&#x442;" horiz-adv-x="443" 
d="M193 476h-162c-15 0 -21 11 -21 25c0 15 6 26 21 26h381c15 0 21 -11 21 -26c0 -14 -6 -25 -21 -25h-162v-459c0 -17 -12 -24 -28 -24s-29 7 -29 24v459z" />
    <glyph glyph-name="uni0443" unicode="&#x443;" horiz-adv-x="472" 
d="M234 101l160 410c5 14 13 23 34 23c15 0 23 -9 23 -20c0 -3 -1 -7 -2 -10l-192 -487c-44 -110 -96 -229 -214 -229c-22 0 -49 2 -73 16c-13 7 -16 17 -16 26c0 16 9 27 22 27c6 0 9 -2 15 -5c19 -10 33 -12 53 -12c81 0 119 90 158 182l-175 480c-1 3 -2 6 -2 9
c0 12 9 23 25 23c21 0 31 -9 36 -23z" />
    <glyph glyph-name="uni0444" unicode="&#x444;" horiz-adv-x="650" 
d="M299 714c0 15 12 21 27 21c14 0 25 -6 25 -21v-175c162 -8 244 -93 244 -276c0 -188 -88 -267 -244 -275v-202c0 -15 -11 -21 -25 -21c-15 0 -27 6 -27 21v202c-156 8 -244 87 -244 275c0 183 82 268 244 276v175zM351 486v-445c125 4 188 62 188 222
c0 161 -63 218 -188 223zM299 486c-125 -5 -188 -62 -188 -223c0 -160 63 -218 188 -222v445z" />
    <glyph glyph-name="uni0445" unicode="&#x445;" horiz-adv-x="470" 
d="M237 312l134 202c9 13 14 20 34 20c17 0 25 -10 25 -20c0 -4 -1 -8 -3 -11l-158 -234l165 -245c2 -3 3 -7 3 -10c0 -10 -9 -21 -27 -21c-20 0 -26 7 -35 20l-142 213l-142 -213c-9 -13 -15 -20 -34 -20c-17 0 -25 9 -25 19c0 4 2 9 4 12l165 243l-158 236
c-2 3 -3 7 -3 10c0 10 9 21 27 21c20 0 26 -7 35 -20z" />
    <glyph glyph-name="uni0446" unicode="&#x446;" horiz-adv-x="564" 
d="M464 510v-459h19c15 0 27 -7 27 -23l-3 -166c0 -16 -10 -23 -25 -23c-16 0 -25 7 -25 23l-3 138h-330c-16 0 -29 7 -29 24v486c0 17 13 24 29 24s28 -7 28 -24v-459h255v459c0 17 12 24 28 24s29 -7 29 -24z" />
    <glyph glyph-name="uni0447" unicode="&#x447;" horiz-adv-x="539" 
d="M387 510c0 17 13 24 29 24s28 -7 28 -24v-493c0 -17 -12 -24 -28 -24s-29 7 -29 24v220c-45 -28 -93 -56 -166 -56c-94 0 -156 55 -156 168v161c0 17 13 24 29 24s28 -7 28 -24v-151c0 -91 39 -125 109 -125c58 0 109 27 156 56v220z" />
    <glyph glyph-name="uni0448" unicode="&#x448;" horiz-adv-x="791" 
d="M152 51h215v459c0 17 12 24 28 24s29 -7 29 -24v-459h215v459c0 17 12 24 28 24s29 -7 29 -24v-486c0 -17 -13 -24 -29 -24h-543c-16 0 -29 7 -29 24v486c0 17 13 24 29 24s28 -7 28 -24v-459z" />
    <glyph glyph-name="uni0449" unicode="&#x449;" horiz-adv-x="796" 
d="M367 51v459c0 17 13 24 29 24s28 -7 28 -24v-459h215v459c0 17 12 24 28 24s29 -7 29 -24v-459h19c15 0 27 -7 27 -23l-3 -166c0 -16 -10 -23 -25 -23c-16 0 -25 7 -25 23l-3 138h-562c-16 0 -29 7 -29 24v486c0 17 13 24 29 24s28 -7 28 -24v-459h215z" />
    <glyph glyph-name="uni044A" unicode="&#x44a;" horiz-adv-x="563" 
d="M213 0c-16 0 -29 7 -29 24v452h-153c-15 0 -21 11 -21 25c0 15 6 26 21 26h182c16 0 28 -7 28 -24v-149c26 5 53 8 80 8c119 0 207 -49 207 -180c0 -120 -56 -182 -187 -182h-128zM241 302v-251h100c90 0 129 40 129 131c0 98 -64 127 -151 127c-36 0 -55 -3 -78 -7z" />
    <glyph glyph-name="uni044B" unicode="&#x44b;" horiz-adv-x="695" 
d="M543 510c0 17 13 24 29 24s28 -7 28 -24v-493c0 -17 -12 -24 -28 -24s-29 7 -29 24v493zM95 510c0 17 13 24 29 24s28 -7 28 -24v-156c26 5 53 8 80 8c119 0 207 -49 207 -180c0 -120 -56 -182 -187 -182h-128c-16 0 -29 7 -29 24v486zM152 302v-251h100
c90 0 129 40 129 131c0 98 -64 127 -151 127c-36 0 -55 -3 -78 -7z" />
    <glyph glyph-name="uni044C" unicode="&#x44c;" horiz-adv-x="474" 
d="M95 510c0 17 13 24 29 24s28 -7 28 -24v-156c26 5 53 8 80 8c119 0 207 -49 207 -180c0 -120 -56 -182 -187 -182h-128c-16 0 -29 7 -29 24v486zM152 302v-251h100c90 0 129 40 129 131c0 98 -64 127 -151 127c-36 0 -55 -3 -78 -7z" />
    <glyph glyph-name="uni044D" unicode="&#x44d;" horiz-adv-x="468" 
d="M85 369c-22 0 -26 15 -26 22c0 71 51 148 161 148c133 0 193 -76 193 -276c0 -199 -73 -275 -200 -275c-59 0 -105 20 -138 46c-10 8 -12 17 -12 26c0 15 10 25 20 25c6 0 12 -2 20 -8c25 -18 59 -36 110 -36c90 0 136 48 139 206h-198c-15 0 -21 11 -21 25
c0 15 6 26 21 26h198c-5 145 -40 188 -127 188c-66 0 -103 -42 -113 -96c-2 -13 -9 -21 -27 -21z" />
    <glyph glyph-name="uni044E" unicode="&#x44e;" horiz-adv-x="732" 
d="M95 510c0 17 13 24 29 24s28 -7 28 -24v-198h131c11 159 77 227 198 227c139 0 196 -76 196 -279c0 -176 -63 -272 -197 -272c-127 0 -198 76 -198 273h-130v-244c0 -17 -12 -24 -28 -24s-29 7 -29 24v493zM480 486c-93 0 -139 -50 -139 -223c0 -171 46 -222 139 -222
c92 0 137 51 137 219c0 176 -45 226 -137 226z" />
    <glyph glyph-name="uni044F" unicode="&#x44f;" horiz-adv-x="503" 
d="M351 240h-102c-76 0 -93 -49 -117 -114c-12 -33 -28 -76 -45 -108c-9 -16 -17 -25 -35 -25c-17 0 -27 8 -27 18s5 16 9 25c16 30 31 64 45 102c21 58 39 105 84 122c-52 13 -95 51 -95 129c0 98 65 138 162 138h149c16 0 29 -7 29 -24v-486c0 -17 -13 -24 -29 -24
s-28 7 -28 24v223zM351 290v186h-120c-73 0 -104 -29 -104 -89c0 -57 38 -97 101 -97h123z" />
    <glyph glyph-name="uni0453" unicode="&#x453;" horiz-adv-x="390" 
d="M152 476v-459c0 -17 -12 -24 -28 -24s-29 7 -29 24v486c0 17 13 24 29 24h235c15 0 21 -11 21 -26c0 -14 -6 -25 -21 -25h-207zM344 718l-79 -110c-11 -15 -20 -22 -36 -22c-12 0 -22 7 -22 18c0 5 2 10 6 16l80 117c9 13 22 18 34 18c13 0 24 -7 24 -19
c0 -6 -2 -12 -7 -18z" />
    <glyph glyph-name="uni0491" unicode="&#x491;" horiz-adv-x="410" 
d="M152 476v-459c0 -17 -12 -24 -28 -24s-29 7 -29 24v486c0 17 13 24 29 24h211l5 102c1 16 9 23 25 23c15 0 25 -7 25 -23v-130c0 -16 -12 -23 -27 -23h-211z" />
    <glyph glyph-name="uni0452" unicode="&#x452;" horiz-adv-x="538" 
d="M406 362c0 86 -39 125 -109 125c-58 0 -109 -27 -156 -56v-414c0 -17 -12 -24 -28 -24s-29 7 -29 24v597h-64c-14 0 -20 10 -20 23c0 12 6 23 20 23h64v67c0 17 13 24 29 24s28 -7 28 -24v-67h176c12 0 18 -11 18 -23c0 -13 -6 -23 -18 -23h-176v-133c41 26 91 59 167 59
c94 0 155 -55 155 -168v-106c0 -186 -45 -247 -104 -302c-5 -5 -11 -7 -17 -7c-14 0 -29 13 -29 27c0 5 2 10 6 16c47 49 87 100 87 256v106z" />
    <glyph glyph-name="uni0454" unicode="&#x454;" horiz-adv-x="464" 
d="M383 369c-18 0 -25 8 -27 21c-10 54 -47 96 -113 96c-87 0 -122 -43 -127 -188h198c15 0 21 -11 21 -26c0 -14 -6 -25 -21 -25h-198c3 -158 49 -206 139 -206c51 0 85 18 110 36c8 6 14 8 20 8c10 0 20 -10 20 -25c0 -9 -2 -18 -12 -26c-33 -26 -79 -46 -138 -46
c-127 0 -200 76 -200 275c0 200 60 276 193 276c110 0 161 -77 161 -148c0 -7 -4 -22 -26 -22z" />
    <glyph glyph-name="uni0455" unicode="&#x455;" horiz-adv-x="432" 
d="M347 381c-20 0 -26 7 -31 25c-13 49 -51 80 -110 80c-50 0 -94 -22 -94 -80c0 -111 267 -127 267 -273c0 -99 -76 -145 -165 -145c-59 0 -120 21 -160 60c-8 8 -10 16 -10 23c0 13 9 27 25 27c8 0 14 -5 21 -11c32 -29 78 -46 127 -46c57 0 105 26 105 87
c0 112 -267 121 -267 273c0 97 78 138 151 138c97 0 153 -54 166 -123c1 -3 1 -6 1 -9c0 -14 -7 -26 -26 -26z" />
    <glyph glyph-name="uni0450" unicode="&#x450;" horiz-adv-x="490" 
d="M116 270c0 -175 63 -229 156 -229c49 0 86 20 112 40c8 6 14 8 20 8c10 0 20 -10 20 -25c0 -9 -3 -17 -12 -26c-19 -18 -78 -50 -144 -50c-127 0 -213 79 -213 278c0 194 74 273 199 273c126 0 179 -86 179 -212v-30c0 -16 -7 -27 -22 -27h-295zM117 321h257
c0 109 -39 165 -121 165c-83 0 -128 -45 -136 -165zM213 608l-79 110c-5 6 -7 12 -7 18c0 12 11 19 24 19c12 0 25 -5 34 -18l80 -117c4 -6 6 -11 6 -16c0 -11 -7 -18 -22 -18s-25 7 -36 22z" />
    <glyph glyph-name="uni0451" unicode="&#x451;" horiz-adv-x="490" 
d="M116 270c0 -175 63 -229 156 -229c49 0 86 20 112 40c8 6 14 8 20 8c10 0 20 -10 20 -25c0 -9 -3 -17 -12 -26c-19 -18 -78 -50 -144 -50c-127 0 -213 79 -213 278c0 194 74 273 199 273c126 0 179 -86 179 -212v-30c0 -16 -7 -27 -22 -27h-295zM117 321h257
c0 109 -39 165 -121 165c-83 0 -128 -45 -136 -165zM152 695c0 14 14 20 28 20s29 -6 29 -20v-46c0 -14 -15 -20 -29 -20s-28 6 -28 20v46zM295 695c0 14 14 20 28 20s29 -6 29 -20v-46c0 -14 -15 -20 -29 -20s-28 6 -28 20v46z" />
    <glyph glyph-name="uni0456" unicode="&#x456;" horiz-adv-x="247" 
d="M95 510c0 17 13 24 29 24s28 -7 28 -24v-493c0 -17 -12 -24 -28 -24s-29 7 -29 24v493zM95 687c0 14 14 20 28 20s29 -6 29 -20v-68c0 -14 -15 -20 -29 -20s-28 6 -28 20v68z" />
    <glyph glyph-name="uni0457" unicode="&#x457;" horiz-adv-x="247" 
d="M95 510c0 17 13 24 29 24s28 -7 28 -24v-493c0 -17 -12 -24 -28 -24s-29 7 -29 24v493zM23 695c0 14 14 20 28 20s29 -6 29 -20v-46c0 -14 -15 -20 -29 -20s-28 6 -28 20v46zM166 695c0 14 14 20 28 20s29 -6 29 -20v-46c0 -14 -15 -20 -29 -20s-28 6 -28 20v46z" />
    <glyph glyph-name="uni0458" unicode="&#x458;" horiz-adv-x="247" 
d="M95 510c0 17 13 24 29 24s28 -7 28 -24v-615c0 -66 -51 -107 -113 -107c-24 0 -51 5 -74 19c-8 5 -12 14 -12 23c0 11 7 28 21 28c3 0 7 0 11 -2c18 -8 37 -13 54 -13c31 0 56 17 56 61v606zM95 687c0 14 14 20 28 20s29 -6 29 -20v-68c0 -14 -15 -20 -29 -20
s-28 6 -28 20v68z" />
    <glyph glyph-name="uni045D" unicode="&#x45d;" horiz-adv-x="569" 
d="M152 94l255 416c8 13 16 23 35 23c16 0 32 -7 32 -24v-493c0 -17 -13 -24 -29 -24s-28 7 -28 24v416l-255 -416c-8 -13 -16 -23 -35 -23c-16 0 -32 7 -32 24v493c0 17 13 24 29 24s28 -7 28 -24v-416zM256 608l-79 110c-5 6 -7 12 -7 18c0 12 11 19 24 19
c12 0 25 -5 34 -18l80 -117c4 -6 6 -11 6 -16c0 -11 -7 -18 -22 -18s-25 7 -36 22z" />
    <glyph glyph-name="uni045C" unicode="&#x45c;" horiz-adv-x="483" 
d="M95 510c0 17 13 24 29 24s28 -7 28 -24v-215h62l178 215c11 14 21 24 42 24c14 0 25 -7 25 -16c0 -4 0 -7 -4 -12l-179 -215c72 -10 117 -51 149 -142c17 -47 27 -85 45 -124c2 -4 3 -9 3 -13c0 -10 -6 -19 -26 -19c-18 0 -28 8 -35 25c-11 27 -21 63 -40 115
c-35 95 -70 110 -136 110h-84v-226c0 -17 -12 -24 -28 -24s-29 7 -29 24v493zM389 718l-79 -110c-11 -15 -20 -22 -36 -22c-12 0 -22 7 -22 18c0 5 2 10 6 16l80 117c9 13 22 18 34 18c13 0 24 -7 24 -19c0 -6 -2 -12 -7 -18z" />
    <glyph glyph-name="uni0459" unicode="&#x459;" horiz-adv-x="747" 
d="M368 476h-205l-11 -238c-4 -95 -16 -245 -123 -245c-18 0 -29 6 -29 25c0 20 10 26 22 27c62 7 68 84 74 196l13 262c1 17 13 24 29 24h258c16 0 29 -7 29 -24v-149c26 5 53 8 80 8c119 0 207 -49 207 -180c0 -120 -56 -182 -187 -182h-128c-16 0 -29 7 -29 24v452z
M425 302v-251h100c90 0 129 40 129 131c0 98 -64 127 -151 127c-36 0 -55 -3 -78 -7z" />
    <glyph glyph-name="uni045A" unicode="&#x45a;" horiz-adv-x="776" 
d="M397 510c0 17 13 24 29 24s28 -7 28 -24v-161c26 5 53 8 80 8c119 0 207 -44 207 -175c0 -120 -56 -182 -187 -182h-128c-16 0 -29 7 -29 24v247h-245v-254c0 -17 -12 -24 -28 -24s-29 7 -29 24v493c0 17 13 24 29 24s28 -7 28 -24v-188h245v188zM454 297v-246h100
c90 0 129 40 129 131c0 98 -64 122 -151 122c-36 0 -55 -3 -78 -7z" />
    <glyph glyph-name="uni045B" unicode="&#x45b;" horiz-adv-x="548" 
d="M84 726c0 17 13 24 29 24s28 -7 28 -24v-67h176c12 0 18 -11 18 -23c0 -13 -6 -23 -18 -23h-176v-133c41 26 91 59 167 59c94 0 155 -55 155 -168v-354c0 -17 -12 -24 -28 -24s-29 7 -29 24v344c0 86 -39 125 -109 125c-58 0 -109 -27 -156 -56v-413
c0 -17 -12 -24 -28 -24s-29 7 -29 24v596h-64c-14 0 -20 10 -20 23c0 12 6 23 20 23h64v67z" />
    <glyph glyph-name="uni045E" unicode="&#x45e;" horiz-adv-x="472" 
d="M234 101l160 410c5 14 13 23 34 23c15 0 23 -9 23 -20c0 -3 -1 -7 -2 -10l-192 -487c-44 -110 -96 -229 -214 -229c-22 0 -49 2 -73 16c-13 7 -16 17 -16 26c0 16 9 27 22 27c6 0 9 -2 15 -5c19 -10 33 -12 53 -12c81 0 119 90 158 182l-175 480c-1 3 -2 6 -2 9
c0 12 9 23 25 23c21 0 31 -9 36 -23zM236 616c-66 0 -116 46 -116 95c0 12 9 18 22 18c15 0 20 -5 25 -19c10 -30 34 -45 69 -45s59 15 69 45c5 14 10 19 25 19c13 0 22 -6 22 -18c0 -49 -50 -95 -116 -95z" />
    <glyph glyph-name="uni045F" unicode="&#x45f;" horiz-adv-x="559" 
d="M435 0h-128l-2 -143c0 -16 -10 -23 -25 -23c-16 0 -25 7 -25 23l-3 143h-128c-16 0 -29 7 -29 24v486c0 17 13 24 29 24s28 -7 28 -24v-459h255v459c0 17 12 24 28 24s29 -7 29 -24v-486c0 -17 -13 -24 -29 -24z" />
    <glyph glyph-name="uni0463" unicode="&#x463;" horiz-adv-x="542" 
d="M163 476h-134c-15 0 -21 11 -21 25c0 15 6 26 21 26h134v199c0 17 13 24 29 24s28 -7 28 -24v-199h162c15 0 21 -11 21 -26c0 -14 -6 -25 -21 -25h-162v-122c26 5 53 8 80 8c119 0 207 -49 207 -180c0 -120 -56 -182 -187 -182h-128c-16 0 -29 7 -29 24v452zM220 302
v-251h100c90 0 129 40 129 131c0 98 -64 127 -151 127c-36 0 -55 -3 -78 -7z" />
    <glyph glyph-name="uni0473" unicode="&#x473;" horiz-adv-x="505" 
d="M254 539c139 0 196 -76 196 -279c0 -176 -63 -272 -197 -272c-127 0 -198 76 -198 275c0 194 66 276 199 276zM253 41c88 0 134 47 137 200h-276c4 -154 50 -200 139 -200zM253 486c-88 0 -134 -45 -139 -194h275c-6 150 -50 194 -136 194z" />
    <glyph glyph-name="uni0475" unicode="&#x475;" horiz-adv-x="488" 
d="M246 70l162 441c5 14 13 23 34 23c15 0 24 -10 24 -21c0 -5 -1 -8 -2 -11l-185 -487c-3 -9 -7 -15 -21 -15h-26c-14 0 -20 7 -23 15l-185 488c-1 3 -2 7 -2 10c0 11 8 21 24 21c21 0 29 -9 34 -23z" />
    <glyph glyph-name="asciicircum" unicode="^" 
d="M251 700h28c12 0 18 -3 24 -15l162 -308c3 -6 4 -10 4 -14c0 -12 -11 -17 -25 -17c-19 0 -26 5 -38 28l-141 269l-141 -269c-12 -23 -19 -28 -38 -28c-14 0 -25 5 -25 17c0 4 1 8 4 14l162 308c6 12 12 15 24 15z" />
    <glyph glyph-name="asciitilde" unicode="~" 
d="M121 298c-8 -14 -16 -20 -29 -20s-26 8 -26 22c0 5 2 13 5 19c19 36 53 61 100 61c60 0 147 -42 188 -42c30 0 43 13 54 32c7 12 11 16 24 16c14 0 27 -10 27 -25c0 -5 -1 -11 -4 -16c-20 -35 -53 -60 -100 -60c-57 0 -143 42 -188 42c-28 0 -41 -11 -51 -29z" />
    <glyph glyph-name="brokenbar" unicode="&#xa6;" horiz-adv-x="266" 
d="M105 735c0 16 13 23 28 23s28 -7 28 -23v-360c0 -17 -13 -23 -28 -23s-28 6 -28 23v360zM105 147c0 16 13 23 28 23s28 -7 28 -23v-360c0 -17 -13 -23 -28 -23s-28 6 -28 23v360z" />
    <glyph glyph-name="backslash" unicode="\" horiz-adv-x="342" 
d="M64 683l240 -663c1 -2 1 -5 1 -7c0 -12 -12 -20 -26 -20c-16 0 -24 8 -30 24l-241 660c-1 3 -2 6 -2 9c0 12 11 21 28 21c16 0 25 -8 30 -24z" />
    <glyph glyph-name="underscore" unicode="_" horiz-adv-x="534" 
d="M52 -67c-16 0 -23 12 -23 27s7 28 23 28h432c15 0 22 -13 22 -28s-7 -27 -22 -27h-432z" />
    <glyph glyph-name="quotesingle" unicode="'" horiz-adv-x="230" 
d="M86 683c0 17 13 24 28 24c16 0 29 -7 29 -24v-203c0 -17 -13 -24 -29 -24c-15 0 -28 7 -28 24v203z" />
    <glyph glyph-name="quotedbl" unicode="&#x22;" horiz-adv-x="398" 
d="M86 683c0 17 13 24 28 24c16 0 29 -7 29 -24v-203c0 -17 -13 -24 -29 -24c-15 0 -28 7 -28 24v203zM255 683c0 17 13 24 28 24c16 0 29 -7 29 -24v-203c0 -17 -13 -24 -29 -24c-15 0 -28 7 -28 24v203z" />
    <glyph glyph-name="at" unicode="@" horiz-adv-x="798" 
d="M485 191v203c-29 15 -50 24 -91 24c-43 0 -103 -28 -103 -147c0 -108 45 -142 86 -142c48 0 86 32 108 62zM601 0c6 3 12 5 17 5c14 0 22 -13 22 -26c0 -11 -6 -22 -19 -29c-72 -36 -153 -47 -222 -47c-210 0 -344 142 -344 362s134 362 344 362s344 -149 344 -351
c0 -144 -69 -210 -147 -210c-51 0 -86 23 -103 59c-35 -31 -73 -54 -123 -54c-64 0 -140 44 -140 200c0 157 97 204 162 204c60 0 100 -18 137 -37c10 -5 16 -11 16 -23v-225c0 -45 20 -66 58 -66c57 0 88 73 88 151c0 170 -111 299 -292 299c-182 0 -292 -119 -292 -309
s110 -308 292 -308c61 0 137 11 202 43z" />
    <glyph glyph-name="copyright" unicode="&#xa9;" horiz-adv-x="798" 
d="M527 472c0 -2 1 -4 1 -6c0 -14 -8 -25 -27 -25c-18 0 -21 10 -24 20c-8 29 -29 62 -75 62c-72 0 -106 -42 -106 -174c0 -129 42 -171 115 -171c30 0 51 7 71 17c8 4 14 9 23 9c10 0 18 -11 18 -25c0 -16 -9 -21 -17 -25c-26 -14 -58 -26 -97 -26c-101 0 -167 60 -167 221
c0 163 58 224 162 224c76 0 112 -52 123 -101zM55 350c0 200 154 362 344 362s344 -162 344 -362s-154 -362 -344 -362s-344 162 -344 362zM104 350c0 -172 131 -311 295 -311c163 0 295 139 295 311s-132 311 -295 311c-164 0 -295 -139 -295 -311z" />
    <glyph glyph-name="registered" unicode="&#xae;" horiz-adv-x="516" 
d="M30 472c0 133 102 240 228 240c125 0 228 -107 228 -240s-103 -240 -228 -240c-126 0 -228 107 -228 240zM74 472c0 -107 81 -194 184 -194c102 0 184 87 184 194s-82 194 -184 194c-103 0 -184 -87 -184 -194zM176 591c0 12 12 17 23 17h49c69 0 101 -18 101 -82
c0 -41 -18 -60 -44 -70l43 -96c1 -2 1 -5 1 -7c0 -9 -9 -16 -20 -16c-16 0 -23 7 -28 18l-40 92c-7 -1 -9 -1 -16 -1c-9 0 -15 1 -24 2v-93c0 -11 -11 -18 -22 -18s-23 7 -23 18v236zM221 569v-80c7 -1 17 -2 27 -2c42 0 57 9 57 38c0 39 -14 44 -57 44h-27z" />
    <glyph glyph-name="trademark" unicode="&#x2122;" horiz-adv-x="794" 
d="M527 454l95 225c4 9 9 21 25 21h9c13 0 22 -8 24 -22l43 -313c2 -14 -7 -23 -22 -23c-19 0 -28 6 -30 20l-32 230l-85 -202c-4 -9 -10 -19 -28 -19c-17 0 -22 10 -26 19l-85 202l-32 -230c-2 -14 -11 -20 -30 -20c-15 0 -24 9 -22 23l43 313c2 14 11 22 24 22h9
c16 0 21 -12 25 -21zM51 650c-15 0 -21 10 -21 25c0 13 6 25 21 25h233c15 0 21 -12 21 -25c0 -15 -6 -25 -21 -25h-91v-287c0 -14 -9 -21 -25 -21c-13 0 -26 7 -26 21v287h-91z" />
    <glyph glyph-name="currency" unicode="&#xa4;" 
d="M450 333c0 -41 -13 -79 -35 -110l75 -75c6 -7 9 -14 9 -21c0 -17 -14 -31 -31 -31c-7 0 -15 3 -23 11l-72 72c-31 -23 -70 -36 -112 -36s-81 13 -112 36l-72 -72c-8 -8 -16 -11 -24 -11c-16 0 -30 14 -30 31c0 7 3 14 9 21l75 75c-22 31 -35 69 -35 110s13 79 35 110
l-75 75c-6 7 -9 14 -9 21c0 16 14 30 30 30c8 0 16 -3 24 -10l72 -72c31 23 70 36 112 36s81 -13 112 -36l72 72c8 7 16 10 23 10c17 0 31 -14 31 -30c0 -7 -3 -14 -9 -21l-75 -75c22 -31 35 -69 35 -110zM130 333c0 -71 60 -132 131 -132s131 61 131 132s-60 132 -131 132
s-131 -61 -131 -132z" />
    <glyph glyph-name="Euro" unicode="&#x20ac;" horiz-adv-x="521" 
d="M508 549v-4c0 -15 -8 -29 -29 -29c-15 0 -25 8 -29 25c-12 57 -39 118 -133 118c-112 0 -160 -58 -172 -213h266c11 0 17 -7 17 -18c0 -2 0 -5 -1 -8c-2 -14 -11 -26 -25 -26h-260v-45c0 -21 0 -41 1 -59h242c11 0 17 -7 17 -18c0 -2 0 -5 -1 -8c-2 -14 -11 -26 -25 -26
h-227c19 -143 82 -197 189 -197c60 0 102 15 138 33c6 3 12 5 18 5c15 0 21 -13 21 -28c0 -12 -6 -19 -21 -26c-40 -20 -92 -37 -159 -37c-136 0 -223 71 -247 250h-60c-14 0 -21 12 -21 26s7 26 21 26h55c-1 18 -1 37 -1 58v46h-54c-14 0 -21 12 -21 26s7 26 21 26h58
c17 191 89 266 234 266c126 0 177 -84 188 -163z" />
    <glyph glyph-name="dollar" unicode="$" 
d="M283 17v-88c0 -18 -11 -24 -27 -24c-14 0 -26 6 -26 24v88c-65 5 -129 34 -173 82c-6 7 -8 14 -8 21c0 15 11 27 25 27c7 0 16 -3 24 -11c40 -41 100 -68 158 -68c77 0 142 30 142 111c0 154 -337 78 -337 294c0 119 86 164 169 172v90c0 16 12 24 26 24
c16 0 27 -8 27 -24v-91c108 -12 148 -88 157 -160c0 -3 1 -5 1 -7c0 -17 -10 -27 -26 -27c-17 0 -27 6 -32 25c-13 57 -38 118 -135 118c-66 0 -128 -34 -128 -114c0 -168 337 -88 337 -292c0 -115 -79 -162 -174 -170z" />
    <glyph glyph-name="cent" unicode="&#xa2;" 
d="M293 610c96 -6 149 -69 158 -142c2 -16 -10 -27 -28 -27c-11 0 -22 4 -27 23c-13 53 -57 94 -122 94c-93 0 -147 -50 -147 -223c0 -171 66 -222 159 -222c52 0 94 19 122 38c7 5 13 7 19 7c12 0 21 -12 21 -25c0 -10 -3 -19 -16 -28c-35 -25 -83 -43 -139 -45v-131
c0 -18 -11 -24 -27 -24c-14 0 -26 6 -26 24v134c-103 18 -174 98 -174 272s64 258 174 273v127c0 16 12 24 26 24c16 0 27 -8 27 -24v-125z" />
    <glyph glyph-name="sterling" unicode="&#xa3;" 
d="M121 318h-85c-16 0 -22 11 -22 27c0 14 6 25 22 25h81l-6 104c-1 10 -1 19 -1 29c0 108 44 209 194 209c126 0 177 -84 188 -163v-6c0 -18 -10 -27 -29 -27c-14 0 -25 7 -28 22c-11 58 -35 121 -134 121c-114 0 -133 -83 -133 -153c0 -11 0 -22 1 -32l7 -104h218
c15 0 22 -11 22 -25c0 -16 -7 -27 -22 -27h-215l9 -116c1 -7 1 -12 1 -17c0 -55 -22 -102 -52 -129h326c16 0 23 -13 23 -28c0 -16 -7 -28 -23 -28h-404c-14 0 -23 9 -23 24c0 21 12 23 27 34c45 34 67 82 67 128v15z" />
    <glyph glyph-name="florin" unicode="&#x192;" 
d="M36 318c-16 0 -22 11 -22 27c0 14 6 25 22 25h77v104c0 119 33 238 196 238c126 0 178 -84 188 -164v-5c0 -18 -14 -27 -28 -27c-15 0 -26 7 -29 23c-13 60 -35 120 -134 120c-130 0 -135 -110 -135 -185v-104h226c15 0 22 -13 22 -25c0 -14 -8 -27 -22 -27h-226v-301
c0 -17 -13 -24 -29 -24s-29 7 -29 24v301h-77z" />
    <glyph glyph-name="yen" unicode="&#xa5;" 
d="M270 379l166 302c9 16 15 26 36 26c13 0 26 -8 26 -20c0 -3 -1 -7 -3 -10l-172 -308h145c15 0 22 -10 22 -24c0 -16 -7 -26 -22 -26h-172v-302c0 -17 -13 -24 -29 -24s-29 7 -29 24v302h-172c-16 0 -22 10 -22 26c0 14 6 24 22 24h144l-171 307c-2 4 -2 7 -2 10
c0 12 14 21 28 21c21 0 27 -9 37 -27z" />
    <glyph glyph-name="ordfeminine" unicode="&#xaa;" horiz-adv-x="350" 
d="M224 437v77c-48 0 -135 -10 -135 -78c0 -30 19 -46 50 -46c35 0 64 20 85 47zM224 558v50c0 33 -21 55 -59 55c-32 0 -58 -16 -66 -48c-4 -12 -14 -14 -23 -14c-12 0 -24 7 -24 21c0 2 0 4 1 7c14 55 63 83 116 83c59 0 107 -34 107 -99v-204c0 -14 7 -19 17 -19
c7 0 12 2 20 6c3 1 4 2 8 2c9 0 13 -8 13 -18c0 -14 -3 -20 -12 -28c-11 -9 -27 -12 -41 -12c-23 0 -50 13 -53 45c-17 -21 -50 -45 -90 -45c-53 0 -101 28 -101 94c0 95 100 124 187 124z" />
    <glyph glyph-name="ordmasculine" unicode="&#xba;" horiz-adv-x="350" 
d="M175 712c98 0 137 -53 137 -193c0 -121 -43 -188 -137 -188c-90 0 -138 53 -138 190c0 135 45 191 138 191zM175 663c-57 0 -87 -32 -87 -142c0 -108 30 -141 87 -141c56 0 85 33 85 139c0 112 -29 144 -85 144z" />
    <glyph glyph-name="numbersign" unicode="#" horiz-adv-x="607" 
d="M188 459h-124c-13 0 -18 9 -18 20c0 15 9 31 27 31h124l30 173c3 17 16 24 32 24s27 -7 24 -24l-30 -173h159l30 173c3 17 16 24 32 24s27 -7 24 -24l-30 -173h122c12 0 18 -6 18 -17c0 -15 -9 -34 -27 -34h-122l-39 -219h122c13 0 18 -7 18 -19c0 -15 -9 -32 -27 -32
h-122l-30 -172c-3 -17 -16 -24 -32 -24s-27 7 -24 24l30 172h-159l-30 -172c-3 -17 -16 -24 -32 -24s-27 7 -24 24l30 172h-124c-12 0 -18 8 -18 19c0 16 9 32 27 32h124zM244 459l-39 -219h159l39 219h-159z" />
    <glyph glyph-name="zero" unicode="0" 
d="M267 712c137 0 219 -100 219 -361c0 -264 -88 -363 -225 -363c-130 0 -218 99 -218 360c0 254 90 364 224 364zM264 659c-105 0 -162 -92 -162 -310c0 -226 57 -308 162 -308c109 0 164 82 164 310c0 226 -55 308 -164 308z" />
    <glyph glyph-name="one" unicode="1" 
d="M99 0c-16 0 -23 12 -23 28c0 15 7 28 23 28h157v582l-142 -72c-5 -3 -10 -4 -14 -4c-12 0 -20 9 -20 22c0 17 4 24 21 33l134 72s16 11 42 11h11c16 0 26 -6 26 -26v-618h139c16 0 23 -13 23 -28c0 -16 -7 -28 -23 -28h-354z" />
    <glyph glyph-name="two" unicode="2" 
d="M88 0c-15 0 -21 12 -21 28c0 10 4 19 12 28l232 268c56 64 83 125 83 176c0 115 -54 159 -141 159c-93 0 -129 -61 -141 -115c-5 -22 -15 -26 -30 -26c-13 0 -28 5 -28 24c0 76 75 170 196 170c130 0 202 -67 202 -207c0 -69 -29 -138 -92 -210l-209 -239h300
c16 0 23 -13 23 -28c0 -16 -7 -28 -23 -28h-363z" />
    <glyph glyph-name="three" unicode="3" 
d="M268 41c85 1 154 46 154 139s-54 144 -137 144h-86c-16 0 -23 12 -23 28c0 15 7 28 23 28h68c80 0 131 72 131 140c0 82 -42 139 -145 139c-95 0 -131 -60 -143 -115c-4 -22 -14 -26 -29 -26c-21 0 -33 14 -28 35c16 74 75 159 197 159c133 0 208 -71 208 -190
c0 -69 -33 -132 -107 -163c81 -21 130 -73 130 -176c0 -127 -89 -195 -214 -195c-68 0 -144 24 -197 80c-5 5 -8 14 -8 21c0 15 12 30 27 30c6 0 13 -3 20 -10c37 -40 101 -68 159 -68z" />
    <glyph glyph-name="four" unicode="4" 
d="M43 186c-16 0 -23 10 -23 26c0 15 9 25 13 31l285 436c6 9 16 21 33 21h22c16 0 29 -7 29 -24v-434h75c16 0 23 -13 23 -28c0 -16 -7 -28 -23 -28h-75v-169c0 -17 -13 -24 -29 -24s-29 7 -29 24v169h-301zM344 622l-246 -380h246v380z" />
    <glyph glyph-name="five" unicode="5" 
d="M152 644v-232c32 7 66 9 94 9c163 0 228 -100 228 -212c0 -129 -81 -221 -212 -221c-68 0 -143 21 -192 75c-5 5 -8 14 -8 21c0 15 12 30 27 30c6 0 13 -3 20 -10c36 -39 88 -63 153 -63c92 0 153 64 153 165c0 85 -45 160 -169 160c-38 0 -80 -4 -116 -14
c-3 -1 -5 -1 -8 -1c-16 0 -26 13 -26 23v298c0 15 7 28 23 28h312c16 0 23 -14 23 -29c0 -16 -7 -27 -23 -27h-279z" />
    <glyph glyph-name="six" unicode="6" 
d="M123 298c8 -185 65 -257 162 -257c90 0 148 60 148 165c0 95 -47 148 -130 148c-75 0 -130 -22 -180 -56zM122 357c46 28 106 52 182 52c110 0 185 -74 185 -200c0 -147 -90 -221 -207 -221c-130 0 -218 99 -218 360c0 264 90 364 224 364c124 0 176 -81 188 -160
c3 -24 -12 -32 -28 -32s-27 5 -31 22c-12 57 -39 117 -132 117c-104 0 -162 -90 -163 -302z" />
    <glyph glyph-name="seven" unicode="7" 
d="M409 644h-337c-16 0 -23 12 -23 28c0 15 7 28 23 28h387c16 0 23 -11 23 -26c0 -13 -9 -26 -12 -33l-290 -621c-9 -18 -20 -27 -35 -27c-17 0 -28 8 -28 21c0 4 1 7 3 12z" />
    <glyph glyph-name="eight" unicode="8" 
d="M264 326c-112 0 -165 -48 -165 -142c0 -95 76 -143 164 -143c90 0 166 48 166 143c0 94 -53 142 -165 142zM265 -12c-140 0 -225 82 -225 199c0 103 56 151 124 171c-67 34 -104 95 -104 164c0 119 71 190 204 190s204 -71 204 -190c0 -69 -37 -130 -104 -164
c68 -20 124 -68 124 -171c0 -117 -85 -199 -223 -199zM264 379c90 0 144 68 144 141c0 87 -41 139 -144 139s-144 -52 -144 -139c0 -73 54 -141 144 -141z" />
    <glyph glyph-name="nine" unicode="9" 
d="M418 336c-45 -28 -104 -49 -176 -49c-109 0 -191 72 -191 204c0 143 94 221 211 221c134 0 214 -104 214 -365c0 -251 -90 -359 -224 -359c-68 0 -136 20 -189 74c-5 5 -8 14 -8 21c0 15 12 30 27 30c6 0 13 -3 20 -10c37 -40 92 -62 150 -62c103 0 164 98 166 295z
M417 396c-8 189 -61 263 -158 263c-90 0 -152 -67 -152 -165c0 -95 53 -152 136 -152c63 0 125 18 174 54z" />
    <glyph glyph-name="onesuperior" unicode="&#xb9;" horiz-adv-x="320" 
d="M141 639l-57 -29c-4 -2 -8 -3 -11 -3c-11 0 -18 10 -18 22c0 15 5 22 14 27l69 36c10 5 16 8 26 8h11c11 0 17 -5 17 -16v-311h64c14 0 20 -11 20 -24c0 -14 -6 -25 -20 -25h-187c-14 0 -20 11 -20 25c0 13 6 24 20 24h72v266z" />
    <glyph glyph-name="twosuperior" unicode="&#xb2;" horiz-adv-x="320" 
d="M66 324c-14 0 -20 11 -20 25c0 9 3 14 8 20l120 142c23 27 39 60 39 82c0 51 -23 70 -61 70s-55 -27 -62 -54c-4 -17 -9 -20 -23 -20c-12 0 -26 6 -26 20c0 3 0 7 1 10c9 44 42 93 109 93c72 0 112 -39 112 -117c0 -36 -14 -74 -48 -113l-97 -109h139c14 0 20 -11 20 -24
c0 -14 -6 -25 -20 -25h-191z" />
    <glyph glyph-name="threesuperior" unicode="&#xb3;" horiz-adv-x="320" 
d="M119 541h35c46 0 65 31 65 64c0 37 -18 61 -63 61c-40 0 -59 -23 -68 -53c-4 -16 -13 -19 -22 -19c-14 0 -23 8 -23 23v6c9 46 45 89 111 89c74 0 112 -40 112 -106c0 -32 -12 -67 -46 -84c37 -14 58 -41 58 -91c0 -67 -46 -106 -118 -106c-39 0 -81 13 -108 44
c-5 6 -7 13 -7 19c0 12 8 23 20 23c6 0 13 -3 20 -10c22 -22 48 -31 77 -31c42 0 69 18 69 60c0 48 -29 67 -78 67h-34c-12 0 -20 10 -20 23c0 12 8 21 20 21z" />
    <glyph glyph-name="fraction" unicode="&#x2044;" horiz-adv-x="504" 
d="M483 669l-410 -648c-14 -21 -22 -28 -36 -28c-19 0 -23 10 -23 20c0 7 3 13 6 18l410 648c14 21 22 28 36 28c19 0 23 -10 23 -20c0 -7 -3 -13 -6 -18z" />
    <glyph glyph-name="onequarter" unicode="&#xbc;" horiz-adv-x="700" 
d="M593 669l-410 -648c-14 -21 -22 -28 -36 -28c-19 0 -25 10 -25 20c0 7 5 13 8 18l410 648c14 21 22 28 36 28c19 0 25 -10 25 -20c0 -7 -5 -13 -8 -18zM59 656l69 36c10 5 16 8 26 8h11c11 0 17 -5 17 -16v-311h64c14 0 20 -11 20 -24c0 -14 -6 -25 -20 -25h-187
c-14 0 -20 11 -20 25c0 13 6 24 20 24h72v266l-57 -29c-4 -2 -8 -3 -11 -3c-11 0 -18 10 -18 22c0 15 5 22 14 27zM619 144h32c16 0 21 -12 21 -25c0 -12 -5 -24 -21 -24h-32v-78c0 -18 -12 -24 -27 -24c-12 0 -24 6 -24 24v78h-141c-14 0 -23 8 -23 20s4 17 8 24l142 218
c10 15 17 20 29 20h9c15 0 27 -7 27 -21v-212zM568 298l-100 -154h100v154z" />
    <glyph glyph-name="onehalf" unicode="&#xbd;" horiz-adv-x="700" 
d="M593 669l-410 -648c-14 -21 -22 -28 -36 -28c-19 0 -25 10 -25 20c0 7 5 13 8 18l410 648c14 21 22 28 36 28c19 0 25 -10 25 -20c0 -7 -5 -13 -8 -18zM461 0c-14 0 -20 11 -20 25c0 9 3 14 8 20l120 142c23 27 39 60 39 82c0 51 -23 70 -61 70s-55 -27 -62 -54
c-4 -17 -9 -20 -23 -20c-12 0 -26 6 -26 20c0 3 0 7 1 10c9 44 42 93 109 93c72 0 112 -39 112 -117c0 -36 -14 -74 -48 -113l-97 -109h139c14 0 20 -11 20 -24c0 -14 -6 -25 -20 -25h-191zM59 656l69 36c10 5 16 8 26 8h11c11 0 17 -5 17 -16v-311h64c14 0 20 -11 20 -24
c0 -14 -6 -25 -20 -25h-187c-14 0 -20 11 -20 25c0 13 6 24 20 24h72v266l-57 -29c-4 -2 -8 -3 -11 -3c-11 0 -18 10 -18 22c0 15 5 22 14 27z" />
    <glyph glyph-name="threequarters" unicode="&#xbe;" horiz-adv-x="700" 
d="M619 144h32c16 0 21 -12 21 -25c0 -12 -5 -24 -21 -24h-32v-78c0 -18 -12 -24 -27 -24c-12 0 -24 6 -24 24v78h-141c-14 0 -23 8 -23 20s4 17 8 24l142 218c10 15 17 20 29 20h9c15 0 27 -7 27 -21v-212zM568 298l-100 -154h100v154zM109 541h35c46 0 65 31 65 64
c0 37 -18 61 -63 61c-40 0 -59 -23 -68 -53c-4 -16 -13 -19 -22 -19c-14 0 -23 8 -23 23v6c9 46 45 89 111 89c74 0 112 -40 112 -106c0 -32 -12 -67 -46 -84c37 -14 58 -41 58 -91c0 -67 -46 -106 -118 -106c-39 0 -81 13 -108 44c-5 6 -7 13 -7 19c0 12 8 23 20 23
c6 0 13 -3 20 -10c22 -22 48 -31 77 -31c42 0 69 18 69 60c0 48 -29 67 -78 67h-34c-12 0 -20 10 -20 23c0 12 8 21 20 21zM593 669l-410 -648c-14 -21 -22 -28 -36 -28c-19 0 -25 10 -25 20c0 7 5 13 8 18l410 648c14 21 22 28 36 28c19 0 25 -10 25 -20
c0 -7 -5 -13 -8 -18z" />
    <glyph glyph-name="percent" unicode="%" horiz-adv-x="641" 
d="M156 712c87 0 122 -46 122 -170c0 -107 -39 -166 -122 -166c-78 0 -123 47 -123 168c0 119 41 168 123 168zM156 664c-48 0 -73 -28 -73 -120c0 -91 25 -119 73 -119c47 0 71 28 71 117c0 94 -24 122 -71 122zM486 324c87 0 122 -46 122 -170c0 -107 -39 -166 -122 -166
c-78 0 -123 47 -123 168c0 119 41 168 123 168zM486 276c-48 0 -73 -28 -73 -120c0 -91 25 -119 73 -119c47 0 71 28 71 117c0 94 -24 122 -71 122zM553 669l-410 -648c-14 -21 -22 -28 -36 -28c-19 0 -25 10 -25 20c0 7 5 13 8 18l410 648c14 21 22 28 36 28
c19 0 25 -10 25 -20c0 -7 -5 -13 -8 -18z" />
    <glyph glyph-name="perthousand" unicode="&#x2030;" horiz-adv-x="931" 
d="M776 324c87 0 122 -46 122 -170c0 -107 -39 -166 -122 -166c-78 0 -123 47 -123 168c0 119 41 168 123 168zM776 276c-48 0 -73 -28 -73 -120c0 -91 25 -119 73 -119c47 0 71 28 71 117c0 94 -24 122 -71 122zM156 712c87 0 122 -46 122 -170c0 -107 -39 -166 -122 -166
c-78 0 -123 47 -123 168c0 119 41 168 123 168zM156 664c-48 0 -73 -28 -73 -120c0 -91 25 -119 73 -119c47 0 71 28 71 117c0 94 -24 122 -71 122zM486 324c87 0 122 -46 122 -170c0 -107 -39 -166 -122 -166c-78 0 -123 47 -123 168c0 119 41 168 123 168zM486 276
c-48 0 -73 -28 -73 -120c0 -91 25 -119 73 -119c47 0 71 28 71 117c0 94 -24 122 -71 122zM553 669l-410 -648c-14 -21 -22 -28 -36 -28c-19 0 -25 10 -25 20c0 7 5 13 8 18l410 648c14 21 22 28 36 28c19 0 25 -10 25 -20c0 -7 -5 -13 -8 -18z" />
    <glyph glyph-name="plus" unicode="+" 
d="M237 305h-149c-18 0 -24 12 -24 29c0 14 6 26 24 26h149v149c0 16 12 24 26 24c17 0 29 -8 29 -24v-149h149c16 0 24 -12 24 -26c0 -17 -8 -29 -24 -29h-149v-149c0 -18 -12 -24 -29 -24c-14 0 -26 6 -26 24v149z" />
    <glyph glyph-name="minus" unicode="&#x2212;" 
d="M88 305c-18 0 -24 12 -24 29c0 14 6 26 24 26h353c16 0 24 -12 24 -26c0 -17 -8 -29 -24 -29h-353z" />
    <glyph glyph-name="plusminus" unicode="&#xb1;" 
d="M237 305h-149c-18 0 -24 12 -24 29c0 14 6 26 24 26h149v149c0 16 12 24 26 24c17 0 29 -8 29 -24v-149h149c16 0 24 -12 24 -26c0 -17 -8 -29 -24 -29h-149v-149c0 -18 -12 -24 -29 -24c-14 0 -26 6 -26 24v149zM88 0c-18 0 -24 12 -24 29c0 14 6 26 24 26h353
c16 0 24 -12 24 -26c0 -17 -8 -29 -24 -29h-353z" />
    <glyph glyph-name="multiply" unicode="&#xd7;" 
d="M304 333l142 -143c5 -5 8 -12 8 -17c0 -16 -18 -29 -30 -29c-6 0 -12 2 -17 7l-142 143l-142 -143c-5 -5 -11 -7 -17 -7c-12 0 -30 13 -30 29c0 5 3 12 8 17l142 143l-142 141c-5 5 -8 12 -8 17c0 16 18 29 30 29c6 0 12 -2 17 -7l142 -141l142 141c5 5 11 7 17 7
c12 0 30 -13 30 -29c0 -5 -3 -12 -8 -17z" />
    <glyph glyph-name="divide" unicode="&#xf7;" 
d="M232 509c0 17 17 24 33 24c17 0 34 -7 34 -24v-37c0 -17 -17 -24 -34 -24c-16 0 -33 7 -33 24v37zM232 191c0 17 17 24 33 24c17 0 34 -7 34 -24v-37c0 -17 -17 -24 -34 -24c-16 0 -33 7 -33 24v37zM88 305c-18 0 -24 12 -24 29c0 14 6 26 24 26h353c16 0 24 -12 24 -26
c0 -17 -8 -29 -24 -29h-353z" />
    <glyph glyph-name="equal" unicode="=" 
d="M88 193c-18 0 -24 12 -24 29c0 14 6 26 24 26h353c16 0 24 -12 24 -26c0 -17 -8 -29 -24 -29h-353zM88 406c-18 0 -24 12 -24 29c0 14 6 26 24 26h353c16 0 24 -12 24 -26c0 -17 -8 -29 -24 -29h-353z" />
    <glyph glyph-name="notequal" unicode="&#x2260;" 
d="M154 193h-66c-18 0 -24 12 -24 29c0 14 6 26 24 26h99l98 158h-197c-18 0 -24 12 -24 29c0 14 6 26 24 26h231l73 118c11 18 20 23 35 23c12 0 20 -8 20 -18c0 -4 -2 -8 -4 -12l-69 -111h67c16 0 24 -12 24 -26c0 -17 -8 -29 -24 -29h-100l-98 -158h198
c16 0 24 -12 24 -26c0 -17 -8 -29 -24 -29h-232l-73 -118c-11 -18 -20 -23 -35 -23c-12 0 -20 8 -20 18c0 4 2 8 4 12z" />
    <glyph glyph-name="approxequal" unicode="&#x2248;" 
d="M121 385c-8 -14 -16 -20 -29 -20s-26 8 -26 22c0 5 2 13 5 19c19 36 53 61 100 61c60 0 147 -42 188 -42c30 0 43 13 54 32c7 12 11 16 24 16c14 0 27 -10 27 -25c0 -5 -1 -11 -4 -16c-20 -35 -53 -60 -100 -60c-57 0 -143 42 -188 42c-28 0 -41 -11 -51 -29zM121 202
c-8 -14 -16 -20 -29 -20s-26 8 -26 22c0 5 2 13 5 19c19 36 53 61 100 61c60 0 147 -42 188 -42c30 0 43 13 54 32c7 12 11 16 24 16c14 0 27 -10 27 -25c0 -5 -1 -11 -4 -16c-20 -35 -53 -60 -100 -60c-57 0 -143 42 -188 42c-28 0 -41 -11 -51 -29z" />
    <glyph glyph-name="less" unicode="&#x3c;" 
d="M130 333l306 -127c20 -9 25 -21 25 -33c0 -16 -7 -28 -20 -28c-3 0 -7 1 -11 3l-345 146c-11 5 -17 14 -17 27v24c0 13 6 22 17 27l345 146c4 2 8 2 11 2c13 0 20 -11 20 -27c0 -13 -5 -25 -25 -33z" />
    <glyph glyph-name="greater" unicode="&#x3e;" 
d="M97 206l306 127l-306 127c-20 8 -25 20 -25 33c0 16 7 27 20 27c3 0 7 0 11 -2l345 -146c11 -5 17 -14 17 -27v-24c0 -13 -6 -22 -17 -27l-345 -146c-4 -2 -8 -3 -11 -3c-13 0 -20 12 -20 28c0 12 5 24 25 33z" />
    <glyph glyph-name="lessequal" unicode="&#x2264;" 
d="M134 333l306 -127c20 -9 25 -21 25 -33c0 -16 -7 -28 -20 -28c-3 0 -7 1 -11 3l-345 146c-11 5 -17 14 -17 27v24c0 13 6 22 17 27l345 146c4 2 8 2 11 2c13 0 20 -11 20 -27c0 -13 -5 -25 -25 -33zM89 0c-18 0 -24 12 -24 29c0 14 6 26 24 26h353c16 0 24 -12 24 -26
c0 -17 -8 -29 -24 -29h-353z" />
    <glyph glyph-name="greaterequal" unicode="&#x2265;" 
d="M398 333l-306 127c-20 8 -25 20 -25 33c0 16 7 27 20 27c3 0 7 0 11 -2l345 -146c11 -5 17 -14 17 -27v-24c0 -13 -6 -22 -17 -27l-345 -146c-4 -2 -8 -3 -11 -3c-13 0 -20 12 -20 28c0 12 5 24 25 33zM89 0c-18 0 -24 12 -24 29c0 14 6 26 24 26h353c16 0 24 -12 24 -26
c0 -17 -8 -29 -24 -29h-353z" />
    <glyph glyph-name="logicalnot" unicode="&#xac;" 
d="M404 305h-316c-18 0 -24 12 -24 29c0 14 6 26 24 26h347c16 0 24 -12 24 -26v-178c0 -18 -12 -24 -29 -24c-14 0 -26 6 -26 24v149z" />
    <glyph glyph-name="Delta" unicode="&#x394;" horiz-adv-x="518" 
d="M248 700h25c15 0 19 -7 24 -21l211 -648c2 -5 3 -9 3 -13c0 -12 -8 -18 -24 -18h-455c-14 0 -24 7 -24 20c0 3 1 7 2 11l210 648c5 14 13 21 28 21zM257 633l-181 -579h360z" />
    <glyph glyph-name="Delta" unicode="&#x2206;" horiz-adv-x="518" 
d="M248 700h25c15 0 19 -7 24 -21l211 -648c2 -5 3 -9 3 -13c0 -12 -8 -18 -24 -18h-455c-14 0 -24 7 -24 20c0 3 1 7 2 11l210 648c5 14 13 21 28 21zM257 633l-181 -579h360z" />
    <glyph glyph-name="Omega" unicode="&#x3a9;" horiz-adv-x="620" 
d="M310 712c147 -2 250 -102 250 -364c0 -162 -61 -252 -121 -298h100c16 0 23 -10 23 -25c0 -16 -7 -25 -23 -25h-174c-14 0 -24 9 -24 22c0 21 15 24 36 39c72 51 123 128 123 288c0 229 -73 310 -190 310s-190 -81 -190 -310c0 -160 51 -237 123 -288
c21 -15 36 -18 36 -39c0 -13 -10 -22 -24 -22h-174c-16 0 -23 9 -23 25c0 15 7 25 23 25h100c-60 46 -121 136 -121 298c0 262 103 362 250 364z" />
    <glyph glyph-name="Omega" unicode="&#x2126;" horiz-adv-x="620" 
d="M310 712c147 -2 250 -102 250 -364c0 -162 -61 -252 -121 -298h100c16 0 23 -10 23 -25c0 -16 -7 -25 -23 -25h-174c-14 0 -24 9 -24 22c0 21 15 24 36 39c72 51 123 128 123 288c0 229 -73 310 -190 310s-190 -81 -190 -310c0 -160 51 -237 123 -288
c21 -15 36 -18 36 -39c0 -13 -10 -22 -24 -22h-174c-16 0 -23 9 -23 25c0 15 7 25 23 25h100c-60 46 -121 136 -121 298c0 262 103 362 250 364z" />
    <glyph glyph-name="mu" unicode="&#xb5;" horiz-adv-x="522" 
d="M85 -188v698c0 17 13 24 29 24s28 -7 28 -24v-357c0 -90 60 -112 119 -112c60 0 119 23 119 119v350c0 17 13 24 29 24s28 -7 28 -24v-352c0 -118 -84 -170 -176 -170c-49 0 -90 16 -119 48v-224c0 -17 -12 -24 -28 -24s-29 7 -29 24z" />
    <glyph glyph-name="mu" unicode="&#x3bc;" horiz-adv-x="522" 
d="M85 -188v698c0 17 13 24 29 24s28 -7 28 -24v-357c0 -90 60 -112 119 -112c60 0 119 23 119 119v350c0 17 13 24 29 24s28 -7 28 -24v-352c0 -118 -84 -170 -176 -170c-49 0 -90 16 -119 48v-224c0 -17 -12 -24 -28 -24s-29 7 -29 24z" />
    <glyph glyph-name="pi" unicode="&#x3c0;" horiz-adv-x="608" 
d="M40 475c-15 0 -22 11 -22 26s7 26 22 26h529c15 0 21 -11 21 -26s-6 -26 -21 -26h-91v-458c0 -17 -12 -24 -28 -24s-29 7 -29 24v458h-234v-458c0 -17 -12 -24 -28 -24s-29 7 -29 24v458h-90z" />
    <glyph glyph-name="degree" unicode="&#xb0;" horiz-adv-x="320" 
d="M41 593c0 66 52 119 118 119s119 -53 119 -119s-53 -118 -119 -118s-118 52 -118 118zM88 593c0 -39 32 -71 71 -71c40 0 72 32 72 71c0 40 -32 72 -72 72c-39 0 -71 -32 -71 -72z" />
    <glyph glyph-name="infinity" unicode="&#x221e;" horiz-adv-x="646" 
d="M294 334c-45 45 -75 71 -112 71c-41 0 -72 -19 -72 -71s31 -71 72 -71c37 0 67 25 112 71zM352 334c45 -46 75 -71 112 -71c41 0 72 19 72 71s-31 71 -72 71c-37 0 -67 -26 -112 -71zM323 293c-47 -53 -91 -80 -142 -80c-73 0 -126 42 -126 121s53 121 126 121
c51 0 95 -27 142 -80c47 53 91 80 142 80c73 0 126 -42 126 -121s-53 -121 -126 -121c-51 0 -95 27 -142 80z" />
    <glyph glyph-name="partialdiff" unicode="&#x2202;" horiz-adv-x="560" 
d="M438 352c8 50 13 99 13 136c0 81 -25 171 -137 171c-64 0 -116 -31 -144 -98c-6 -14 -14 -20 -25 -20c-13 0 -28 8 -28 24c0 3 1 6 2 10c35 91 109 137 204 137c113 0 184 -65 184 -227c0 -40 -4 -85 -13 -137c-46 -261 -148 -360 -278 -360c-102 0 -176 66 -176 177
c0 158 92 243 221 243c76 0 136 -29 177 -56zM426 298c-44 34 -99 56 -175 56c-90 0 -155 -59 -155 -180c0 -79 46 -133 123 -133c97 0 166 73 207 257z" />
    <glyph glyph-name="integral" unicode="&#x222b;" horiz-adv-x="357" 
d="M187 -45c0 -116 -63 -167 -156 -167c-21 0 -45 4 -59 8c-15 4 -20 14 -20 27c0 12 8 23 22 23c3 0 6 0 9 -1c15 -4 32 -7 49 -7c64 0 98 32 98 117v625c0 116 63 167 156 167c21 0 45 -4 59 -8c15 -4 20 -14 20 -27c0 -14 -11 -28 -31 -22c-15 4 -32 7 -49 7
c-64 0 -98 -32 -98 -117v-625z" />
    <glyph glyph-name="radical" unicode="&#x221a;" horiz-adv-x="610" 
d="M113 475h-60c-15 0 -22 11 -22 26s7 26 22 26h82c14 0 21 -4 25 -16l145 -436l206 603c7 21 16 29 32 29c13 0 24 -8 24 -20c0 -4 -1 -11 -3 -16l-224 -653c-4 -12 -12 -18 -23 -18h-22c-17 0 -25 8 -28 18z" />
    <glyph glyph-name="summation" unicode="&#x2211;" 
d="M299 352l-241 293c-7 8 -14 14 -14 27c0 15 7 28 23 28h390c16 0 23 -13 23 -28c0 -16 -7 -28 -23 -28h-324l227 -280c3 -4 7 -8 7 -13c0 -4 -2 -7 -7 -13l-227 -282h335c16 0 23 -12 23 -28c0 -15 -7 -28 -23 -28h-401c-16 0 -23 13 -23 28c0 13 7 19 14 27z" />
    <glyph glyph-name="product" unicode="&#x220f;" horiz-adv-x="675" 
d="M163 644v-627c0 -17 -13 -24 -29 -24s-29 7 -29 24v659c0 17 13 24 29 24h407c16 0 29 -7 29 -24v-659c0 -17 -13 -24 -29 -24s-29 7 -29 24v627h-349z" />
    <glyph glyph-name="lozenge" unicode="&#x25ca;" 
d="M494 350c0 -6 -3 -12 -6 -17l-186 -316c-6 -11 -14 -17 -27 -17h-20c-13 0 -21 6 -27 17l-186 316c-3 5 -6 11 -6 17s3 12 6 17l186 316c6 11 14 17 27 17h20c13 0 21 -6 27 -17l186 -316c3 -5 6 -11 6 -17zM437 350l-172 290l-172 -290l172 -290z" />
    <glyph glyph-name="uni00A0" unicode="&#xa0;" horiz-adv-x="140" 
 />
    </font>
</defs>
</svg>
