<?xml version="1.0" standalone="no"?>
<!DOCTYPE svg PUBLIC "-//W3C//DTD SVG 1.1//EN" "http://www.w3.org/Graphics/SVG/1.1/DTD/svg11.dtd" >
<svg xmlns="http://www.w3.org/2000/svg" width="100%" height="100%">
<metadata>
Created by FontXChange 20110222 at Thu Jan 10 22:32:17 2013
 By Sébastien Goffin
Copyright (c) 2008 BNP Paribas
</metadata>
<defs>
<font id="BNPPSans-Bold" horiz-adv-x="530" >
  <font-face 
    font-family="BNPPSans"
    font-weight="700"
    font-stretch="normal"
    units-per-em="1000"
    panose-1="2 0 0 0 0 0 0 0 0 0"
    ascent="755"
    descent="-245"
    x-height="535"
    cap-height="700"
    bbox="-65 -256 1129 1031"
    underline-thickness="50"
    underline-position="-50"
    stemh="146"
    stemv="161"
    unicode-range="U+0020-FB04"
  />
<missing-glyph horiz-adv-x="500" 
d="M72 665h355v-665h-355v665zM177 561v-456h145v456h-145z" />
    <glyph glyph-name="f_i" unicode="fi" horiz-adv-x="600" 
d="M78 -23v434h-66v124h66v35c0 143 94 201 216 201c22 0 40 -1 62 -5l-11 -130c-11 3 -22 5 -34 5c-41 0 -72 -16 -72 -65v-41h300v-535h-161v411h-139v-457c0 -116 -66 -166 -158 -166c-40 0 -81 10 -117 27l15 126c18 -7 37 -13 55 -13c24 0 44 13 44 49zM378 740h161
v-141h-161v141z" />
    <glyph glyph-name="f_l" unicode="fl" horiz-adv-x="620" 
d="M78 535v35c0 143 94 201 216 201c22 0 40 -1 62 -5l-11 -130c-11 3 -22 5 -34 5c-41 0 -72 -16 -72 -65v-41h99l-10 -124h-89v-449c0 -128 -72 -173 -168 -173c-34 0 -74 9 -107 26l15 126c18 -7 37 -13 55 -13c24 0 44 13 44 49v434h-66v124h66zM376 730l161 20v-578
c0 -29 16 -40 38 -40c20 0 32 4 49 12l4 -130c-39 -22 -71 -28 -114 -28c-96 0 -138 62 -138 172v572z" />
    <glyph glyph-name=".notdef" horiz-adv-x="500" 
d="M72 665h355v-665h-355v665zM177 561v-456h145v456h-145z" />
    <glyph glyph-name=".null" horiz-adv-x="0" 
 />
    <glyph glyph-name="CR" horiz-adv-x="262" 
 />
    <glyph glyph-name="space" unicode=" " horiz-adv-x="256" 
 />
    <glyph glyph-name="A" unicode="A" horiz-adv-x="570" 
d="M417 0l-35 129h-216l-35 -129h-143l203 700h189l202 -700h-165zM273 535l-73 -273h147z" />
    <glyph glyph-name="B" unicode="B" horiz-adv-x="585" 
d="M228 287v-149h64c62 0 92 20 92 73c0 57 -28 76 -92 76h-64zM228 561v-142h63c50 0 80 18 80 74c0 64 -36 68 -85 68h-58zM69 700h222c152 0 245 -41 245 -178c0 -76 -36 -139 -103 -165c80 -18 124 -65 124 -156c0 -145 -89 -201 -262 -201h-226v700z" />
    <glyph glyph-name="C" unicode="C" horiz-adv-x="567" 
d="M545 478l-154 -13c-2 62 -25 103 -82 103c-85 0 -118 -60 -118 -213c0 -180 66 -223 155 -223c65 0 121 22 172 50l17 -137c-53 -30 -117 -59 -212 -59c-182 0 -295 107 -295 369c0 252 98 359 282 359c144 0 234 -75 235 -236z" />
    <glyph glyph-name="D" unicode="D" horiz-adv-x="643" 
d="M69 700h260c186 0 286 -104 286 -339c0 -258 -107 -361 -290 -361h-256v700zM228 557v-414h92c84 0 132 34 132 215c0 166 -47 199 -132 199h-92z" />
    <glyph glyph-name="E" unicode="E" horiz-adv-x="525" 
d="M69 700h403v-143h-244v-139h232v-135h-232v-140h258v-143h-417v700z" />
    <glyph glyph-name="F" unicode="F" horiz-adv-x="514" 
d="M69 700h416v-143h-257v-162h215v-140h-215v-255h-159v700z" />
    <glyph glyph-name="G" unicode="G" horiz-adv-x="646" 
d="M435 465c-3 69 -38 103 -102 103c-81 0 -134 -52 -134 -211c0 -181 46 -225 132 -225c45 0 81 20 105 38v81h-109v135h269v-386h-144v42c-30 -30 -82 -56 -152 -56c-138 0 -272 83 -272 367c0 266 127 361 310 361c175 0 248 -92 249 -236z" />
    <glyph glyph-name="H" unicode="H" horiz-adv-x="677" 
d="M69 700h159v-276h222v276h158v-700h-158v272h-222v-272h-159v700z" />
    <glyph glyph-name="I" unicode="I" horiz-adv-x="297" 
d="M69 700h159v-700h-159v700z" />
    <glyph glyph-name="J" unicode="J" horiz-adv-x="316" 
d="M96 700h159v-541c0 -110 -65 -173 -158 -173c-40 0 -77 7 -110 24l21 135c11 -6 33 -13 49 -13c24 0 39 10 39 46v522z" />
    <glyph glyph-name="K" unicode="K" horiz-adv-x="599" 
d="M69 700h159v-289l207 289h170l-200 -278l213 -422h-185l-135 279l-70 -97v-182h-159v700z" />
    <glyph glyph-name="L" unicode="L" horiz-adv-x="464" 
d="M69 700h159v-557h225v-143h-384v700z" />
    <glyph glyph-name="M" unicode="M" horiz-adv-x="849" 
d="M104 700h181l140 -422l138 422h181l63 -700h-160l-32 421l-120 -365h-143l-119 365l-32 -421h-160z" />
    <glyph glyph-name="N" unicode="N" horiz-adv-x="695" 
d="M69 700h162l239 -424v424h156v-700h-162l-240 415v-415h-155v700z" />
    <glyph glyph-name="O" unicode="O" horiz-adv-x="623" 
d="M311 714c160 0 284 -96 284 -365c0 -268 -125 -363 -285 -363c-158 0 -282 95 -282 363c0 269 125 365 283 365zM311 568c-70 0 -124 -44 -124 -218c0 -173 54 -218 124 -218c71 0 116 45 116 218c0 174 -45 218 -116 218z" />
    <glyph glyph-name="P" unicode="P" horiz-adv-x="567" 
d="M228 565v-207c10 -2 20 -4 41 -4c68 0 106 21 106 103c0 87 -29 108 -99 108h-48zM69 700h207c183 0 256 -51 256 -232c0 -173 -86 -249 -245 -249c-27 0 -44 2 -59 5v-224h-159v700z" />
    <glyph glyph-name="Q" unicode="Q" horiz-adv-x="623" 
d="M311 714c160 0 284 -96 284 -365c0 -194 -66 -297 -163 -340l100 -179h-178l-76 157c-142 13 -250 112 -250 362c0 269 125 365 283 365zM311 568c-70 0 -124 -44 -124 -218c0 -173 54 -218 124 -218c71 0 116 45 116 218c0 174 -45 218 -116 218z" />
    <glyph glyph-name="R" unicode="R" horiz-adv-x="582" 
d="M567 0h-175l-104 244c-25 0 -51 2 -61 3v-247h-158v700h214c152 0 263 -43 263 -216c0 -117 -43 -171 -104 -202zM227 561v-173c20 -3 22 -4 53 -4c65 0 100 29 100 92c0 66 -30 85 -98 85h-55z" />
    <glyph glyph-name="S" unicode="S" horiz-adv-x="542" 
d="M503 494l-155 -21c-4 57 -20 95 -81 95c-42 0 -70 -19 -70 -56c0 -116 305 -112 305 -318c0 -131 -84 -208 -239 -208c-107 0 -186 45 -240 98l69 126c50 -52 113 -78 173 -78c48 0 74 14 74 49c0 102 -304 95 -304 323c0 132 101 210 233 210c185 0 228 -116 235 -220z
" />
    <glyph glyph-name="T" unicode="T" horiz-adv-x="545" 
d="M17 700h511v-143h-176v-557h-159v557h-176v143z" />
    <glyph glyph-name="U" unicode="U" horiz-adv-x="658" 
d="M63 700h159v-454c0 -78 35 -114 107 -114s107 34 107 114v454h159v-452c0 -155 -78 -262 -266 -262c-186 0 -266 107 -266 262v452z" />
    <glyph glyph-name="V" unicode="V" horiz-adv-x="600" 
d="M5 700h175l132 -505l131 505h152l-195 -700h-186z" />
    <glyph glyph-name="W" unicode="W" horiz-adv-x="909" 
d="M372 700h164l116 -474l82 474h169l-141 -700h-194c-37 152 -76 303 -114 456l-114 -456h-194l-142 700h170l82 -474z" />
    <glyph glyph-name="X" unicode="X" horiz-adv-x="582" 
d="M-2 700h183l116 -216l115 216h169l-198 -343l206 -357h-185l-120 217l-121 -217h-169l198 346z" />
    <glyph glyph-name="Y" unicode="Y" horiz-adv-x="556" 
d="M280 419l116 281h171l-209 -455v-245h-159v245l-210 455h176z" />
    <glyph glyph-name="Z" unicode="Z" horiz-adv-x="560" 
d="M37 700h491v-106l-290 -451h291v-143h-503v105l290 452h-279v143z" />
    <glyph glyph-name="Agrave" unicode="&#xc0;" horiz-adv-x="570" 
d="M417 0l-35 129h-216l-35 -129h-143l203 700h189l202 -700h-165zM273 535l-73 -273h147zM100 912h156l90 -158h-128z" />
    <glyph glyph-name="Aacute" unicode="&#xc1;" horiz-adv-x="570" 
d="M417 0l-35 129h-216l-35 -129h-143l203 700h189l202 -700h-165zM273 535l-73 -273h147zM310 912h157l-118 -158h-129z" />
    <glyph glyph-name="Acircumflex" unicode="&#xc2;" horiz-adv-x="570" 
d="M417 0l-35 129h-216l-35 -129h-143l203 700h189l202 -700h-165zM273 535l-73 -273h147zM215 912h138l103 -158h-123l-49 71l-49 -71h-123z" />
    <glyph glyph-name="Atilde" unicode="&#xc3;" horiz-adv-x="570" 
d="M417 0l-35 129h-216l-35 -129h-143l203 700h189l202 -700h-165zM273 535l-73 -273h147zM207 759l-94 34c12 57 40 106 102 106c42 0 87 -30 112 -30c19 0 24 9 32 38l95 -35c-21 -76 -58 -110 -113 -110c-34 0 -78 31 -104 31c-18 0 -22 -10 -30 -34z" />
    <glyph glyph-name="Adieresis" unicode="&#xc4;" horiz-adv-x="570" 
d="M417 0l-35 129h-216l-35 -129h-143l203 700h189l202 -700h-165zM273 535l-73 -273h147zM135 897h121v-129h-121v129zM310 897h121v-129h-121v129z" />
    <glyph glyph-name="Amacron" unicode="&#x100;" horiz-adv-x="570" 
d="M417 0l-35 129h-216l-35 -129h-143l203 700h189l202 -700h-165zM273 535l-73 -273h147zM428 779h-289v108h289v-108z" />
    <glyph glyph-name="Abreve" unicode="&#x102;" horiz-adv-x="570" 
d="M417 0l-35 129h-216l-35 -129h-143l203 700h189l202 -700h-165zM273 535l-73 -273h147zM283 755c-99 0 -153 59 -155 154h102c2 -42 28 -55 53 -55s51 13 53 55h102c-2 -95 -56 -154 -155 -154z" />
    <glyph glyph-name="Aring" unicode="&#xc5;" horiz-adv-x="570" 
d="M417 0l-35 129h-216l-35 -129h-143l203 700h189l202 -700h-165zM273 535l-73 -273h147zM396 832c0 -55 -45 -97 -113 -97s-113 42 -113 97s45 97 113 97s113 -42 113 -97zM316 832c0 21 -11 32 -33 32c-23 0 -34 -11 -34 -32s11 -32 34 -32c22 0 33 11 33 32z" />
    <glyph glyph-name="Aringacute" unicode="&#x1fa;" horiz-adv-x="570" 
d="M397 833c0 -55 -45 -97 -113 -97s-113 42 -113 97c0 35 19 65 51 82l66 116h156l-93 -119c28 -17 46 -46 46 -79zM317 833c0 21 -11 32 -33 32c-23 0 -34 -11 -34 -32s11 -32 34 -32c22 0 33 11 33 32zM417 0l-35 129h-216l-35 -129h-143l203 700h189l202 -700h-165z
M273 535l-73 -273h147z" />
    <glyph glyph-name="Aogonek" unicode="&#x104;" horiz-adv-x="570" 
d="M417 0l-35 129h-216l-35 -129h-143l203 700h189l202 -700h-27c-35 -20 -58 -46 -58 -71c0 -17 12 -26 28 -26c12 0 26 6 37 20l63 -70c-30 -41 -78 -62 -133 -62c-68 0 -125 35 -125 107c0 38 19 81 50 102zM273 535l-73 -273h147z" />
    <glyph glyph-name="AE" unicode="&#xc6;" horiz-adv-x="837" 
d="M329 700h455v-143h-244v-138h232v-136h-232v-140h258v-143h-417v129h-193l-63 -129h-165zM381 524l-128 -262h128v262z" />
    <glyph glyph-name="AEacute" unicode="&#x1fc;" horiz-adv-x="837" 
d="M329 700h455v-143h-244v-138h232v-136h-232v-140h258v-143h-417v129h-193l-63 -129h-165zM381 524l-128 -262h128v262zM492 912h157l-118 -158h-129z" />
    <glyph glyph-name="Cacute" unicode="&#x106;" horiz-adv-x="567" 
d="M545 478l-154 -13c-2 62 -25 103 -82 103c-85 0 -118 -60 -118 -213c0 -180 66 -223 155 -223c65 0 121 22 172 50l17 -137c-53 -30 -117 -59 -212 -59c-182 0 -295 107 -295 369c0 252 98 359 282 359c144 0 234 -75 235 -236zM333 912h157l-118 -158h-129z" />
    <glyph glyph-name="Ccircumflex" unicode="&#x108;" horiz-adv-x="567" 
d="M545 478l-154 -13c-2 62 -25 103 -82 103c-85 0 -118 -60 -118 -213c0 -180 66 -223 155 -223c65 0 121 22 172 50l17 -137c-53 -30 -117 -59 -212 -59c-182 0 -295 107 -295 369c0 252 98 359 282 359c144 0 234 -75 235 -236zM241 912h138l103 -158h-123l-49 71
l-49 -71h-123z" />
    <glyph glyph-name="Ccaron" unicode="&#x10c;" horiz-adv-x="567" 
d="M545 478l-154 -13c-2 62 -25 103 -82 103c-85 0 -118 -60 -118 -213c0 -180 66 -223 155 -223c65 0 121 22 172 50l17 -137c-53 -30 -117 -59 -212 -59c-182 0 -295 107 -295 369c0 252 98 359 282 359c144 0 234 -75 235 -236zM380 754h-138l-103 158h123l49 -71l49 71
h123z" />
    <glyph glyph-name="Cdotaccent" unicode="&#x10a;" horiz-adv-x="567" 
d="M545 478l-154 -13c-2 62 -25 103 -82 103c-85 0 -118 -60 -118 -213c0 -180 66 -223 155 -223c65 0 121 22 172 50l17 -137c-53 -30 -117 -59 -212 -59c-182 0 -295 107 -295 369c0 252 98 359 282 359c144 0 234 -75 235 -236zM246 897h129v-129h-129v129z" />
    <glyph glyph-name="Ccedilla" unicode="&#xc7;" horiz-adv-x="567" 
d="M545 478l-154 -13c-2 62 -25 103 -82 103c-85 0 -118 -60 -118 -213c0 -180 66 -223 155 -223c65 0 121 22 172 50l17 -137c-40 -23 -85 -45 -146 -54c15 -22 21 -53 21 -76c0 -69 -55 -120 -133 -120c-60 0 -118 26 -143 68l63 67c17 -21 36 -27 50 -27
c23 0 34 10 34 36c0 17 -7 35 -18 52c-147 21 -235 132 -235 364c0 252 98 359 282 359c144 0 234 -75 235 -236z" />
    <glyph glyph-name="Dcaron" unicode="&#x10e;" horiz-adv-x="643" 
d="M69 700h260c186 0 286 -104 286 -339c0 -258 -107 -361 -290 -361h-256v700zM228 557v-414h92c84 0 132 34 132 215c0 166 -47 199 -132 199h-92zM389 754h-138l-103 158h123l49 -71l49 71h123z" />
    <glyph glyph-name="Dcroat" unicode="&#x110;" horiz-adv-x="643" 
d="M69 700h259c187 0 287 -104 287 -340c0 -257 -107 -360 -290 -360h-256v284h-67v134h67v282zM228 557v-139h123v-134h-123v-141h92c84 0 132 33 132 215c0 165 -47 199 -132 199h-92z" />
    <glyph glyph-name="Egrave" unicode="&#xc8;" horiz-adv-x="525" 
d="M69 700h403v-143h-244v-139h232v-135h-232v-140h258v-143h-417v700zM100 912h156l90 -158h-128z" />
    <glyph glyph-name="Eacute" unicode="&#xc9;" horiz-adv-x="525" 
d="M69 700h403v-143h-244v-139h232v-135h-232v-140h258v-143h-417v700zM288 912h157l-118 -158h-129z" />
    <glyph glyph-name="Ecircumflex" unicode="&#xca;" horiz-adv-x="525" 
d="M69 700h403v-143h-244v-139h232v-135h-232v-140h258v-143h-417v700zM201 912h138l103 -158h-123l-49 71l-49 -71h-123z" />
    <glyph glyph-name="Ecaron" unicode="&#x11a;" horiz-adv-x="525" 
d="M69 700h403v-143h-244v-139h232v-135h-232v-140h258v-143h-417v700zM339 754h-138l-103 158h123l49 -71l49 71h123z" />
    <glyph glyph-name="Edieresis" unicode="&#xcb;" horiz-adv-x="525" 
d="M69 700h403v-143h-244v-139h232v-135h-232v-140h258v-143h-417v700zM122 897h121v-129h-121v129zM297 897h121v-129h-121v129z" />
    <glyph glyph-name="Emacron" unicode="&#x112;" horiz-adv-x="525" 
d="M69 700h403v-143h-244v-139h232v-135h-232v-140h258v-143h-417v700zM415 787h-289v108h289v-108z" />
    <glyph glyph-name="Ebreve" unicode="&#x114;" horiz-adv-x="525" 
d="M69 700h403v-143h-244v-139h232v-135h-232v-140h258v-143h-417v700zM270 764c-99 0 -153 59 -155 154h102c2 -42 28 -55 53 -55s51 13 53 55h102c-2 -95 -56 -154 -155 -154z" />
    <glyph glyph-name="Edotaccent" unicode="&#x116;" horiz-adv-x="525" 
d="M69 700h403v-143h-244v-139h232v-135h-232v-140h258v-143h-417v700zM206 898h129v-129h-129v129z" />
    <glyph glyph-name="Eogonek" unicode="&#x118;" horiz-adv-x="525" 
d="M281 0h-212v700h403v-143h-244v-139h232v-135h-232v-140h258v-143h-67c-36 -20 -58 -46 -58 -71c0 -17 11 -26 27 -26c13 0 26 6 37 20l63 -70c-29 -41 -77 -62 -132 -62c-68 0 -125 35 -125 107c0 38 18 81 50 102z" />
    <glyph glyph-name="Gcircumflex" unicode="&#x11c;" horiz-adv-x="646" 
d="M435 465c-3 69 -38 103 -102 103c-81 0 -134 -52 -134 -211c0 -181 46 -225 132 -225c45 0 81 20 105 38v81h-109v135h269v-386h-144v42c-30 -30 -82 -56 -152 -56c-138 0 -272 83 -272 367c0 266 127 361 310 361c175 0 248 -92 249 -236zM260 923h138l103 -158h-123
l-49 71l-49 -71h-123z" />
    <glyph glyph-name="Gbreve" unicode="&#x11e;" horiz-adv-x="646" 
d="M435 465c-3 69 -38 103 -102 103c-81 0 -134 -52 -134 -211c0 -181 46 -225 132 -225c45 0 81 20 105 38v81h-109v135h269v-386h-144v42c-30 -30 -82 -56 -152 -56c-138 0 -272 83 -272 367c0 266 127 361 310 361c175 0 248 -92 249 -236zM328 764
c-99 0 -153 59 -155 154h102c2 -42 28 -55 53 -55s51 13 53 55h102c-2 -95 -56 -154 -155 -154z" />
    <glyph glyph-name="Gdotaccent" unicode="&#x120;" horiz-adv-x="646" 
d="M435 465c-3 69 -38 103 -102 103c-81 0 -134 -52 -134 -211c0 -181 46 -225 132 -225c45 0 81 20 105 38v81h-109v135h269v-386h-144v42c-30 -30 -82 -56 -152 -56c-138 0 -272 83 -272 367c0 266 127 361 310 361c175 0 248 -92 249 -236zM264 898h129v-129h-129v129z
" />
    <glyph glyph-name="Gcommaaccent" unicode="&#x122;" horiz-adv-x="646" 
d="M435 465c-3 69 -38 103 -102 103c-81 0 -134 -52 -134 -211c0 -181 46 -225 132 -225c45 0 81 20 105 38v81h-109v135h269v-386h-144v42c-30 -30 -82 -56 -152 -56c-138 0 -272 83 -272 367c0 266 127 361 310 361c175 0 248 -92 249 -236zM267 -40h157l-118 -158h-129z
" />
    <glyph glyph-name="Hcircumflex" unicode="&#x124;" horiz-adv-x="677" 
d="M69 700h159v-276h222v276h158v-700h-158v272h-222v-272h-159v700zM270 912h138l103 -158h-123l-49 71l-49 -71h-123z" />
    <glyph glyph-name="Hbar" unicode="&#x126;" horiz-adv-x="693" 
d="M77 700h159v-86h222v86h158v-86h74v-93h-74v-521h-158v271h-222v-271h-159v521h-74v93h74v86zM236 426h222v95h-222v-95z" />
    <glyph glyph-name="Igrave" unicode="&#xcc;" horiz-adv-x="297" 
d="M69 700h159v-700h-159v700zM-32 912h156l90 -158h-128z" />
    <glyph glyph-name="Iacute" unicode="&#xcd;" horiz-adv-x="297" 
d="M69 700h159v-700h-159v700zM173 912h157l-118 -158h-129z" />
    <glyph glyph-name="Icircumflex" unicode="&#xce;" horiz-adv-x="297" 
d="M69 700h159v-700h-159v700zM80 912h138l103 -158h-123l-49 71l-49 -71h-123z" />
    <glyph glyph-name="Itilde" unicode="&#x128;" horiz-adv-x="297" 
d="M69 700h159v-700h-159v700zM72 758l-94 34c12 57 40 106 102 106c42 0 87 -30 112 -30c19 0 24 9 32 38l95 -35c-21 -76 -58 -110 -113 -110c-34 0 -78 31 -104 31c-18 0 -22 -10 -30 -34z" />
    <glyph glyph-name="Idieresis" unicode="&#xcf;" horiz-adv-x="297" 
d="M69 700h159v-700h-159v700zM0 897h121v-129h-121v129zM175 897h121v-129h-121v129z" />
    <glyph glyph-name="Imacron" unicode="&#x12a;" horiz-adv-x="297" 
d="M69 700h159v-700h-159v700zM293 779h-289v108h289v-108z" />
    <glyph glyph-name="Ibreve" unicode="&#x12c;" horiz-adv-x="297" 
d="M69 700h159v-700h-159v700zM148 755c-99 0 -153 59 -155 154h102c2 -42 28 -55 53 -55s51 13 53 55h102c-2 -95 -56 -154 -155 -154z" />
    <glyph glyph-name="Idotaccent" unicode="&#x130;" horiz-adv-x="297" 
d="M69 700h159v-700h-159v700zM84 897h129v-129h-129v129z" />
    <glyph glyph-name="Iogonek" unicode="&#x12e;" horiz-adv-x="297" 
d="M69 0v700h159v-700c-53 -13 -78 -43 -78 -71c0 -17 12 -26 28 -26c12 0 26 6 37 20l62 -70c-29 -41 -77 -62 -132 -62c-68 0 -125 35 -125 107c0 43 19 81 49 102z" />
    <glyph glyph-name="Jcircumflex" unicode="&#x134;" horiz-adv-x="316" 
d="M96 700h159v-541c0 -110 -65 -173 -158 -173c-40 0 -77 7 -110 24l21 135c11 -6 33 -13 49 -13c24 0 39 10 39 46v522zM110 912h138l103 -158h-123l-49 71l-49 -71h-123z" />
    <glyph glyph-name="Kcommaaccent" unicode="&#x136;" horiz-adv-x="599" 
d="M264 -40h160l-121 -158h-129zM69 700h159v-289l207 289h170l-200 -278l213 -422h-185l-135 279l-70 -97v-182h-159v700z" />
    <glyph glyph-name="Lacute" unicode="&#x139;" horiz-adv-x="464" 
d="M69 700h159v-557h225v-143h-384v700zM173 912h157l-118 -158h-129z" />
    <glyph glyph-name="Lcaron" unicode="&#x13d;" horiz-adv-x="464" 
d="M69 700h159v-557h225v-143h-384v700zM219 754h-138l-103 158h123l49 -71l49 71h123z" />
    <glyph glyph-name="Lcommaaccent" unicode="&#x13b;" horiz-adv-x="464" 
d="M197 -40h160l-121 -158h-129zM69 700h159v-557h225v-143h-384v700z" />
    <glyph glyph-name="Lslash" unicode="&#x141;" horiz-adv-x="464" 
d="M69 700h159v-250l160 68v-130l-160 -69v-176h225v-143h-384v252l-66 -27v130l66 28v317z" />
    <glyph glyph-name="Nacute" unicode="&#x143;" horiz-adv-x="695" 
d="M69 700h162l239 -424v424h156v-700h-162l-240 415v-415h-155v700zM357 912h157l-118 -158h-129z" />
    <glyph glyph-name="Ncaron" unicode="&#x147;" horiz-adv-x="695" 
d="M69 700h162l239 -424v424h156v-700h-162l-240 415v-415h-155v700zM409 754h-138l-103 158h123l49 -71l49 71h123z" />
    <glyph glyph-name="Ntilde" unicode="&#xd1;" horiz-adv-x="695" 
d="M69 700h162l239 -424v424h156v-700h-162l-240 415v-415h-155v700zM263 758l-94 34c12 57 40 106 102 106c42 0 87 -30 112 -30c19 0 24 9 32 38l95 -35c-21 -76 -58 -110 -113 -110c-34 0 -78 31 -104 31c-18 0 -22 -10 -30 -34z" />
    <glyph glyph-name="Ncommaaccent" unicode="&#x145;" horiz-adv-x="695" 
d="M300 -40h160l-121 -158h-129zM69 700h162l239 -424v424h156v-700h-162l-240 415v-415h-155v700z" />
    <glyph glyph-name="Ograve" unicode="&#xd2;" horiz-adv-x="623" 
d="M311 714c160 0 284 -96 284 -365c0 -268 -125 -363 -285 -363c-158 0 -282 95 -282 363c0 269 125 365 283 365zM311 568c-70 0 -124 -44 -124 -218c0 -173 54 -218 124 -218c71 0 116 45 116 218c0 174 -45 218 -116 218zM132 912h156l90 -158h-128z" />
    <glyph glyph-name="Oacute" unicode="&#xd3;" horiz-adv-x="623" 
d="M311 714c160 0 284 -96 284 -365c0 -268 -125 -363 -285 -363c-158 0 -282 95 -282 363c0 269 125 365 283 365zM311 568c-70 0 -124 -44 -124 -218c0 -173 54 -218 124 -218c71 0 116 45 116 218c0 174 -45 218 -116 218zM332 912h157l-118 -158h-129z" />
    <glyph glyph-name="Ocircumflex" unicode="&#xd4;" horiz-adv-x="623" 
d="M311 714c160 0 284 -96 284 -365c0 -268 -125 -363 -285 -363c-158 0 -282 95 -282 363c0 269 125 365 283 365zM311 568c-70 0 -124 -44 -124 -218c0 -173 54 -218 124 -218c71 0 116 45 116 218c0 174 -45 218 -116 218zM243 912h138l103 -158h-123l-49 71l-49 -71
h-123z" />
    <glyph glyph-name="Otilde" unicode="&#xd5;" horiz-adv-x="623" 
d="M311 714c160 0 284 -96 284 -365c0 -268 -125 -363 -285 -363c-158 0 -282 95 -282 363c0 269 125 365 283 365zM311 568c-70 0 -124 -44 -124 -218c0 -173 54 -218 124 -218c71 0 116 45 116 218c0 174 -45 218 -116 218zM235 758l-94 34c12 57 40 106 102 106
c42 0 87 -30 112 -30c19 0 24 9 32 38l95 -35c-21 -76 -58 -110 -113 -110c-34 0 -78 31 -104 31c-18 0 -22 -10 -30 -34z" />
    <glyph glyph-name="Odieresis" unicode="&#xd6;" horiz-adv-x="623" 
d="M311 714c160 0 284 -96 284 -365c0 -268 -125 -363 -285 -363c-158 0 -282 95 -282 363c0 269 125 365 283 365zM311 568c-70 0 -124 -44 -124 -218c0 -173 54 -218 124 -218c71 0 116 45 116 218c0 174 -45 218 -116 218zM163 897h121v-129h-121v129zM338 897h121v-129
h-121v129z" />
    <glyph glyph-name="Omacron" unicode="&#x14c;" horiz-adv-x="623" 
d="M311 714c160 0 284 -96 284 -365c0 -268 -125 -363 -285 -363c-158 0 -282 95 -282 363c0 269 125 365 283 365zM311 568c-70 0 -124 -44 -124 -218c0 -173 54 -218 124 -218c71 0 116 45 116 218c0 174 -45 218 -116 218zM456 779h-289v108h289v-108z" />
    <glyph glyph-name="Obreve" unicode="&#x14e;" horiz-adv-x="623" 
d="M311 714c160 0 284 -96 284 -365c0 -268 -125 -363 -285 -363c-158 0 -282 95 -282 363c0 269 125 365 283 365zM311 568c-70 0 -124 -44 -124 -218c0 -173 54 -218 124 -218c71 0 116 45 116 218c0 174 -45 218 -116 218zM311 756c-99 0 -153 59 -155 154h102
c2 -42 28 -55 53 -55s51 13 53 55h102c-2 -95 -56 -154 -155 -154z" />
    <glyph glyph-name="Ohungarumlaut" unicode="&#x150;" horiz-adv-x="623" 
d="M311 714c160 0 284 -96 284 -365c0 -268 -125 -363 -285 -363c-158 0 -282 95 -282 363c0 269 125 365 283 365zM311 568c-70 0 -124 -44 -124 -218c0 -173 54 -218 124 -218c71 0 116 45 116 218c0 174 -45 218 -116 218zM217 923h143l-78 -158h-98zM411 923h153
l-121 -158h-108z" />
    <glyph glyph-name="Oslash" unicode="&#xd8;" horiz-adv-x="623" 
d="M514 736l61 -36l-52 -81c44 -58 72 -146 72 -270c0 -268 -125 -363 -285 -363c-61 0 -116 14 -161 45l-45 -69c-19 13 -40 26 -59 38l52 83c-44 57 -69 143 -69 265c0 269 124 366 283 366c60 0 115 -14 160 -45zM420 453l-187 -290c21 -23 47 -31 77 -31
c72 0 117 45 117 218c0 41 -2 76 -7 103zM387 536c-19 23 -46 32 -77 32c-69 0 -123 -45 -123 -219c0 -51 5 -83 11 -109z" />
    <glyph glyph-name="Oslashacute" unicode="&#x1fe;" horiz-adv-x="623" 
d="M331 912h157l-118 -158h-129zM514 736l61 -36l-52 -81c44 -58 72 -146 72 -270c0 -268 -125 -363 -285 -363c-61 0 -116 14 -161 45l-45 -69c-19 13 -40 26 -59 38l52 83c-44 57 -69 143 -69 265c0 269 124 366 283 366c60 0 115 -14 160 -45zM420 453l-187 -290
c21 -23 47 -31 77 -31c72 0 117 45 117 218c0 41 -2 76 -7 103zM387 536c-19 23 -46 32 -77 32c-69 0 -123 -45 -123 -219c0 -51 5 -83 11 -109z" />
    <glyph glyph-name="OE" unicode="&#x152;" horiz-adv-x="906" 
d="M311 714c74 0 129 -25 156 -71v57h386v-143h-244v-139h232v-135h-232v-140h258v-143h-400v58c-28 -47 -90 -72 -157 -72c-158 0 -282 95 -282 363c0 269 125 365 283 365zM311 568c-70 0 -124 -44 -124 -218c0 -173 54 -218 124 -218c71 0 116 45 116 218
c0 174 -45 218 -116 218z" />
    <glyph glyph-name="Racute" unicode="&#x154;" horiz-adv-x="582" 
d="M567 0h-175l-104 244c-25 0 -51 2 -61 3v-247h-158v700h214c152 0 263 -43 263 -216c0 -117 -43 -171 -104 -202zM227 561v-173c20 -3 22 -4 53 -4c65 0 100 29 100 92c0 66 -30 85 -98 85h-55zM313 912h157l-118 -158h-129z" />
    <glyph glyph-name="Rcaron" unicode="&#x158;" horiz-adv-x="582" 
d="M567 0h-175l-104 244c-25 0 -51 2 -61 3v-247h-158v700h214c152 0 263 -43 263 -216c0 -117 -43 -171 -104 -202zM227 561v-173c20 -3 22 -4 53 -4c65 0 100 29 100 92c0 66 -30 85 -98 85h-55zM373 754h-138l-103 158h123l49 -71l49 71h123z" />
    <glyph glyph-name="Rcommaaccent" unicode="&#x156;" horiz-adv-x="582" 
d="M256 -40h160l-121 -158h-129zM567 0h-175l-104 244c-25 0 -51 2 -61 3v-247h-158v700h214c152 0 263 -43 263 -216c0 -117 -43 -171 -104 -202zM227 561v-173c20 -3 22 -4 53 -4c65 0 100 29 100 92c0 66 -30 85 -98 85h-55z" />
    <glyph glyph-name="Sacute" unicode="&#x15a;" horiz-adv-x="542" 
d="M503 494l-155 -21c-4 57 -20 95 -81 95c-42 0 -70 -19 -70 -56c0 -116 305 -112 305 -318c0 -131 -84 -208 -239 -208c-107 0 -186 45 -240 98l69 126c50 -52 113 -78 173 -78c48 0 74 14 74 49c0 102 -304 95 -304 323c0 132 101 210 233 210c185 0 228 -116 235 -220z
M287 912h157l-118 -158h-129z" />
    <glyph glyph-name="Scircumflex" unicode="&#x15c;" horiz-adv-x="542" 
d="M503 494l-155 -21c-4 57 -20 95 -81 95c-42 0 -70 -19 -70 -56c0 -116 305 -112 305 -318c0 -131 -84 -208 -239 -208c-107 0 -186 45 -240 98l69 126c50 -52 113 -78 173 -78c48 0 74 14 74 49c0 102 -304 95 -304 323c0 132 101 210 233 210c185 0 228 -116 235 -220z
M198 912h138l103 -158h-123l-49 71l-49 -71h-123z" />
    <glyph glyph-name="Scaron" unicode="&#x160;" horiz-adv-x="542" 
d="M503 494l-155 -21c-4 57 -20 95 -81 95c-42 0 -70 -19 -70 -56c0 -116 305 -112 305 -318c0 -131 -84 -208 -239 -208c-107 0 -186 45 -240 98l69 126c50 -52 113 -78 173 -78c48 0 74 14 74 49c0 102 -304 95 -304 323c0 132 101 210 233 210c185 0 228 -116 235 -220z
M334 754h-138l-103 158h123l49 -71l49 71h123z" />
    <glyph glyph-name="Scedilla" unicode="&#x15e;" horiz-adv-x="542" 
d="M503 494l-155 -21c-4 57 -20 95 -81 95c-42 0 -70 -19 -70 -56c0 -116 305 -112 305 -318c0 -99 -48 -167 -138 -194c19 -23 27 -59 27 -85c0 -69 -55 -120 -133 -120c-60 0 -118 26 -143 68l63 67c17 -21 36 -27 50 -27c23 0 34 10 34 36c0 16 -6 32 -15 48
c-99 4 -173 46 -224 97l69 126c50 -52 113 -78 173 -78c48 0 74 14 74 49c0 102 -304 95 -304 323c0 132 101 210 233 210c185 0 228 -116 235 -220z" />
    <glyph glyph-name="Scommaaccent" unicode="&#x218;" horiz-adv-x="542" 
d="M221 -40h160l-121 -158h-129zM503 494l-155 -21c-4 57 -20 95 -81 95c-42 0 -70 -19 -70 -56c0 -116 305 -112 305 -318c0 -131 -84 -208 -239 -208c-107 0 -186 45 -240 98l69 126c50 -52 113 -78 173 -78c48 0 74 14 74 49c0 102 -304 95 -304 323
c0 132 101 210 233 210c185 0 228 -116 235 -220z" />
    <glyph glyph-name="Tcaron" unicode="&#x164;" horiz-adv-x="545" 
d="M17 700h511v-143h-176v-557h-159v557h-176v143zM341 754h-138l-103 158h123l49 -71l49 71h123z" />
    <glyph glyph-name="Tcommaaccent" unicode="&#x162;" horiz-adv-x="545" 
d="M192 -40h160l-121 -158h-129zM17 700h511v-143h-176v-557h-159v557h-176v143z" />
    <glyph glyph-name="Tbar" unicode="&#x166;" horiz-adv-x="545" 
d="M17 700h511v-143h-176v-172h143v-135h-143v-250h-159v250h-142v135h142v172h-176v143z" />
    <glyph glyph-name="Ugrave" unicode="&#xd9;" horiz-adv-x="658" 
d="M63 700h159v-454c0 -78 35 -114 107 -114s107 34 107 114v454h159v-452c0 -155 -78 -262 -266 -262c-186 0 -266 107 -266 262v452zM150 912h156l90 -158h-128z" />
    <glyph glyph-name="Uacute" unicode="&#xda;" horiz-adv-x="658" 
d="M63 700h159v-454c0 -78 35 -114 107 -114s107 34 107 114v454h159v-452c0 -155 -78 -262 -266 -262c-186 0 -266 107 -266 262v452zM351 912h157l-118 -158h-129z" />
    <glyph glyph-name="Ucircumflex" unicode="&#xdb;" horiz-adv-x="658" 
d="M63 700h159v-454c0 -78 35 -114 107 -114s107 34 107 114v454h159v-452c0 -155 -78 -262 -266 -262c-186 0 -266 107 -266 262v452zM260 912h138l103 -158h-123l-49 71l-49 -71h-123z" />
    <glyph glyph-name="Utilde" unicode="&#x168;" horiz-adv-x="658" 
d="M63 700h159v-454c0 -78 35 -114 107 -114s107 34 107 114v454h159v-452c0 -155 -78 -262 -266 -262c-186 0 -266 107 -266 262v452zM253 758l-94 34c12 57 40 106 102 106c42 0 87 -30 112 -30c19 0 24 9 32 38l95 -35c-21 -76 -58 -110 -113 -110c-34 0 -78 31 -104 31
c-18 0 -22 -10 -30 -34z" />
    <glyph glyph-name="Udieresis" unicode="&#xdc;" horiz-adv-x="658" 
d="M63 700h159v-454c0 -78 35 -114 107 -114s107 34 107 114v454h159v-452c0 -155 -78 -262 -266 -262c-186 0 -266 107 -266 262v452zM181 897h121v-129h-121v129zM356 897h121v-129h-121v129z" />
    <glyph glyph-name="Umacron" unicode="&#x16a;" horiz-adv-x="658" 
d="M63 700h159v-454c0 -78 35 -114 107 -114s107 34 107 114v454h159v-452c0 -155 -78 -262 -266 -262c-186 0 -266 107 -266 262v452zM474 779h-289v108h289v-108z" />
    <glyph glyph-name="Ubreve" unicode="&#x16c;" horiz-adv-x="658" 
d="M63 700h159v-454c0 -78 35 -114 107 -114s107 34 107 114v454h159v-452c0 -155 -78 -262 -266 -262c-186 0 -266 107 -266 262v452zM329 756c-99 0 -153 59 -155 154h102c2 -42 28 -55 53 -55s51 13 53 55h102c-2 -95 -56 -154 -155 -154z" />
    <glyph glyph-name="Uring" unicode="&#x16e;" horiz-adv-x="658" 
d="M63 700h159v-454c0 -78 35 -114 107 -114s107 34 107 114v454h159v-452c0 -155 -78 -262 -266 -262c-186 0 -266 107 -266 262v452zM442 833c0 -55 -45 -97 -113 -97s-113 42 -113 97s45 97 113 97s113 -42 113 -97zM362 833c0 21 -11 32 -33 32c-23 0 -34 -11 -34 -32
s11 -32 34 -32c22 0 33 11 33 32z" />
    <glyph glyph-name="Uhungarumlaut" unicode="&#x170;" horiz-adv-x="658" 
d="M63 700h159v-454c0 -78 35 -114 107 -114s107 34 107 114v454h159v-452c0 -155 -78 -262 -266 -262c-186 0 -266 107 -266 262v452zM233 912h143l-78 -158h-98zM427 912h153l-121 -158h-108z" />
    <glyph glyph-name="Uogonek" unicode="&#x172;" horiz-adv-x="658" 
d="M63 700h159v-454c0 -78 35 -114 107 -114s107 34 107 114v454h159v-452c0 -127 -52 -221 -173 -251c-31 -20 -52 -44 -52 -68c0 -17 12 -26 28 -26c12 0 26 6 37 20l63 -70c-30 -41 -78 -62 -133 -62c-68 0 -125 35 -125 107c0 33 14 68 37 91c-149 18 -214 119 -214 259
v452z" />
    <glyph glyph-name="Wgrave" unicode="&#x1e80;" horiz-adv-x="909" 
d="M372 700h164l116 -474l82 474h169l-141 -700h-194c-37 152 -76 303 -114 456l-114 -456h-194l-142 700h170l82 -474zM270 912h156l90 -158h-128z" />
    <glyph glyph-name="Wacute" unicode="&#x1e82;" horiz-adv-x="909" 
d="M372 700h164l116 -474l82 474h169l-141 -700h-194c-37 152 -76 303 -114 456l-114 -456h-194l-142 700h170l82 -474zM482 912h157l-118 -158h-129z" />
    <glyph glyph-name="Wcircumflex" unicode="&#x174;" horiz-adv-x="909" 
d="M372 700h164l116 -474l82 474h169l-141 -700h-194c-37 152 -76 303 -114 456l-114 -456h-194l-142 700h170l82 -474zM385 913h138l103 -158h-123l-49 71l-49 -71h-123z" />
    <glyph glyph-name="Wdieresis" unicode="&#x1e84;" horiz-adv-x="909" 
d="M372 700h164l116 -474l82 474h169l-141 -700h-194c-37 152 -76 303 -114 456l-114 -456h-194l-142 700h170l82 -474zM306 898h121v-129h-121v129zM481 898h121v-129h-121v129z" />
    <glyph glyph-name="Ygrave" unicode="&#x1ef2;" horiz-adv-x="556" 
d="M280 419l116 281h171l-209 -455v-245h-159v245l-210 455h176zM98 923h156l90 -158h-128z" />
    <glyph glyph-name="Yacute" unicode="&#xdd;" horiz-adv-x="556" 
d="M280 419l116 281h171l-209 -455v-245h-159v245l-210 455h176zM301 923h157l-118 -158h-129z" />
    <glyph glyph-name="Ycircumflex" unicode="&#x176;" horiz-adv-x="556" 
d="M280 419l116 281h171l-209 -455v-245h-159v245l-210 455h176zM211 923h138l103 -158h-123l-49 71l-49 -71h-123z" />
    <glyph glyph-name="Ydieresis" unicode="&#x178;" horiz-adv-x="556" 
d="M280 419l116 281h171l-209 -455v-245h-159v245l-210 455h176zM132 898h121v-129h-121v129zM307 898h121v-129h-121v129z" />
    <glyph glyph-name="Zacute" unicode="&#x179;" horiz-adv-x="560" 
d="M37 700h491v-106l-290 -451h291v-143h-503v105l290 452h-279v143zM316 923h157l-118 -158h-129z" />
    <glyph glyph-name="Zcaron" unicode="&#x17d;" horiz-adv-x="560" 
d="M37 700h491v-106l-290 -451h291v-143h-503v105l290 452h-279v143zM357 765h-138l-103 158h123l49 -71l49 71h123z" />
    <glyph glyph-name="Zdotaccent" unicode="&#x17b;" horiz-adv-x="560" 
d="M37 700h491v-106l-290 -451h291v-143h-503v105l290 452h-279v143zM224 897h129v-129h-129v129z" />
    <glyph glyph-name="Eng" unicode="&#x14a;" horiz-adv-x="695" 
d="M69 700h162l239 -425v425h156v-704c0 -119 -58 -191 -159 -191c-40 0 -76 8 -109 25c6 45 13 89 20 134c12 -5 33 -12 49 -12c22 0 39 6 42 37v11l-245 414v-414h-155v700z" />
    <glyph glyph-name="Eth" unicode="&#xd0;" horiz-adv-x="643" 
d="M69 700h259c187 0 287 -104 287 -340c0 -257 -107 -360 -290 -360h-256v284h-67v134h67v282zM228 557v-139h123v-134h-123v-141h92c84 0 132 33 132 215c0 165 -47 199 -132 199h-92z" />
    <glyph glyph-name="Thorn" unicode="&#xde;" horiz-adv-x="567" 
d="M69 700h159v-95h48c183 0 256 -51 256 -232c0 -173 -86 -249 -245 -249c-27 0 -44 2 -59 5v-129h-159v700zM228 470v-207c10 -2 20 -4 41 -4c68 0 106 21 106 103c0 87 -29 108 -99 108h-48z" />
    <glyph glyph-name="a" unicode="a" horiz-adv-x="517" 
d="M294 144v86c-61 -1 -116 -19 -116 -66c0 -31 18 -48 49 -48c26 0 45 11 67 28zM294 329v36c0 40 -17 56 -52 56c-38 0 -56 -20 -56 -61l-141 12c6 118 93 178 206 178c140 0 204 -69 204 -168v-231c0 -21 11 -32 27 -32c19 0 33 6 56 20l7 -110c-27 -27 -72 -44 -118 -44
c-40 0 -96 21 -103 77c-40 -53 -101 -77 -159 -77c-78 0 -139 48 -139 152c0 127 103 188 268 192z" />
    <glyph glyph-name="b" unicode="b" horiz-adv-x="559" 
d="M222 403v-265c21 -14 42 -21 67 -21c44 0 75 29 75 160c0 119 -29 144 -74 144c-25 0 -44 -8 -68 -18zM61 730l161 20v-240c39 20 87 38 135 38c94 0 173 -52 173 -271c0 -230 -122 -289 -252 -289c-79 0 -160 29 -217 78v664z" />
    <glyph glyph-name="c" unicode="c" horiz-adv-x="482" 
d="M459 346c-48 -5 -95 -8 -142 -13c-1 41 -9 88 -55 88c-48 0 -66 -26 -66 -154c0 -121 39 -148 98 -148c58 0 114 17 148 41l15 -118c-57 -31 -112 -56 -196 -56c-149 0 -232 79 -232 284c0 209 75 280 235 280c143 0 194 -81 195 -204z" />
    <glyph glyph-name="d" unicode="d" horiz-adv-x="574" 
d="M336 164v241c-19 7 -40 16 -67 16c-41 0 -73 -18 -73 -145c0 -96 31 -144 69 -144c29 0 50 14 71 32zM468 -14c-48 0 -95 24 -102 79c-42 -44 -94 -79 -156 -79c-93 0 -181 84 -181 279c0 192 79 285 195 285c43 0 79 -10 112 -26v206l160 20v-599c0 -21 11 -32 27 -32
c19 0 33 6 56 20l7 -110c-27 -27 -72 -43 -118 -43z" />
    <glyph glyph-name="e" unicode="e" horiz-adv-x="499" 
d="M465 222h-268c6 -84 44 -111 103 -111c50 0 108 26 144 50l14 -119c-58 -31 -107 -56 -197 -56c-138 0 -232 79 -232 278c0 200 85 286 232 286c149 0 204 -95 204 -234v-94zM197 321h118c0 71 -13 100 -58 100c-46 0 -58 -33 -60 -100z" />
    <glyph glyph-name="f" unicode="f" horiz-adv-x="330" 
d="M12 535h66v35c0 142 92 201 217 201c43 0 94 -7 131 -20l-27 -127c-20 7 -56 17 -88 17c-41 0 -72 -20 -72 -65v-41h127l-17 -124h-110v-458c0 -116 -69 -165 -159 -165c-39 0 -80 10 -117 27l16 126c17 -6 37 -13 55 -13c23 0 44 13 44 49v434h-66v124z" />
    <glyph glyph-name="g" unicode="g" horiz-adv-x="496" 
d="M325 -97c0 49 -78 45 -145 55c-23 -10 -43 -30 -43 -54c0 -36 42 -49 91 -49c51 0 97 18 97 48zM247 550c30 0 57 -7 81 -15h175v-129l-63 8c9 -24 11 -41 11 -69c0 -122 -82 -207 -205 -207c-15 0 -25 1 -40 5c-13 -8 -26 -18 -26 -33c0 -50 306 17 306 -174
c0 -127 -114 -192 -261 -192c-160 0 -234 60 -234 141c0 56 38 91 81 110c-27 19 -44 43 -44 85c0 52 40 87 77 110c-41 34 -66 87 -66 156c0 124 82 204 208 204zM246 436c-38 0 -62 -20 -62 -90c0 -68 24 -93 62 -93c36 0 60 25 60 92c0 74 -24 91 -60 91z" />
    <glyph glyph-name="h" unicode="h" horiz-adv-x="571" 
d="M61 730l161 20v-245c37 25 84 45 142 45c97 0 156 -51 156 -169v-381h-161v331c0 44 -27 60 -66 60c-23 0 -51 -8 -71 -16v-375h-161v730z" />
    <glyph glyph-name="i" unicode="i" horiz-adv-x="283" 
d="M61 535h161v-535h-161v535zM61 740h161v-141h-161v141z" />
    <glyph glyph-name="j" unicode="j" horiz-adv-x="283" 
d="M222 535v-593c0 -110 -74 -154 -159 -154c-39 0 -80 10 -117 26l15 127c18 -7 38 -13 56 -13c24 0 44 12 44 49v558h161zM61 740h161v-141h-161v141z" />
    <glyph glyph-name="k" unicode="k" horiz-adv-x="518" 
d="M222 155v-155h-161v730l161 20v-402l142 187h165l-149 -216l169 -319h-183l-105 203z" />
    <glyph glyph-name="l" unicode="l" horiz-adv-x="303" 
d="M59 730l161 20v-578c0 -29 16 -40 38 -40c20 0 32 4 49 12l4 -130c-39 -22 -71 -28 -114 -28c-96 0 -138 62 -138 172v572z" />
    <glyph glyph-name="m" unicode="m" horiz-adv-x="855" 
d="M189 535v-58c41 39 97 73 170 73c61 0 104 -19 129 -61c44 34 96 61 161 61c97 0 154 -51 154 -170v-380h-161v331c0 44 -23 60 -61 60c-22 0 -51 -7 -70 -16c1 -9 2 -18 2 -27v-348h-162v297c0 54 -1 94 -61 94c-21 0 -48 -7 -68 -16v-375h-161v535h128z" />
    <glyph glyph-name="n" unicode="n" horiz-adv-x="572" 
d="M189 535v-58c41 39 100 73 175 73c97 0 156 -51 156 -170v-380h-161v331c0 44 -27 60 -66 60c-23 0 -50 -8 -71 -16v-375h-161v535h128z" />
    <glyph glyph-name="o" unicode="o" horiz-adv-x="543" 
d="M272 550c158 0 241 -85 241 -284c0 -192 -90 -280 -241 -280c-153 0 -242 84 -242 281c0 196 87 283 242 283zM272 421c-52 0 -78 -35 -78 -154c0 -117 26 -156 78 -156s77 39 77 155c0 120 -25 155 -77 155z" />
    <glyph glyph-name="p" unicode="p" horiz-adv-x="568" 
d="M309 -14c-25 0 -62 6 -87 15v-203l-161 -28v765h128v-58c35 35 94 73 168 73c103 0 181 -54 181 -273c0 -214 -94 -291 -229 -291zM222 391v-258c23 -11 43 -16 66 -16c45 0 80 29 80 160c0 119 -35 130 -78 130c-25 0 -44 -6 -68 -16z" />
    <glyph glyph-name="q" unicode="q" horiz-adv-x="546" 
d="M336 -230v258c-35 -24 -69 -42 -116 -42c-102 0 -191 66 -191 279c0 192 85 285 202 285c61 0 103 -30 138 -55v40h126v-737zM336 149v237c-20 12 -41 22 -64 22c-58 0 -76 -57 -76 -146c0 -121 33 -144 66 -144c30 0 54 14 74 31z" />
    <glyph glyph-name="r" unicode="r" horiz-adv-x="436" 
d="M61 535h128v-65c48 58 91 80 147 80c101 0 107 -100 107 -188l-140 -9c-1 22 -5 42 -28 42c-15 0 -36 -10 -53 -32v-363h-161v535z" />
    <glyph glyph-name="s" unicode="s" horiz-adv-x="447" 
d="M420 384l-127 -24c-3 43 -19 68 -59 68c-26 0 -45 -12 -45 -38c0 -75 230 -76 230 -236c0 -95 -66 -168 -198 -168c-93 0 -157 34 -203 72l46 114c49 -38 107 -61 150 -61c27 0 47 10 47 35c0 58 -223 75 -223 234c0 94 67 170 193 170c128 0 182 -78 189 -166z" />
    <glyph glyph-name="t" unicode="t" horiz-adv-x="376" 
d="M81 622l156 45v-132h129l-18 -125h-111v-231c0 -27 12 -47 44 -47c27 0 50 9 75 22l28 -116c-42 -26 -87 -53 -164 -53c-82 0 -144 48 -144 141v284h-72v125h77v87z" />
    <glyph glyph-name="u" unicode="u" horiz-adv-x="536" 
d="M274 -14c-120 0 -219 68 -219 196v353h161v-360c0 -44 19 -64 57 -64s57 20 57 64v360h161v-353c0 -128 -98 -196 -217 -196z" />
    <glyph glyph-name="v" unicode="v" horiz-adv-x="501" 
d="M-5 535h171l94 -367l86 367h159l-162 -535h-182z" />
    <glyph glyph-name="w" unicode="w" horiz-adv-x="781" 
d="M313 535h176l79 -345c19 115 38 230 58 345h159l-140 -535h-175l-77 352l-81 -352h-171l-146 535h171l65 -345z" />
    <glyph glyph-name="x" unicode="x" horiz-adv-x="495" 
d="M-1 535h170l81 -162l86 162h167l-162 -261l153 -274h-175l-83 159l-87 -159h-158l154 266z" />
    <glyph glyph-name="y" unicode="y" horiz-adv-x="501" 
d="M505 535l-170 -505c-55 -163 -120 -247 -258 -247c-40 0 -87 9 -131 29l38 129c22 -13 57 -21 83 -21c60 0 76 27 110 109l-191 506h169l99 -324l95 324h156z" />
    <glyph glyph-name="z" unicode="z" horiz-adv-x="471" 
d="M33 536h410v-103l-215 -307h218v-126h-417v97l214 312h-210v127z" />
    <glyph glyph-name="agrave" unicode="&#xe0;" horiz-adv-x="517" 
d="M294 144v86c-61 -1 -116 -19 -116 -66c0 -31 18 -48 49 -48c26 0 45 11 67 28zM294 329v36c0 40 -17 56 -52 56c-38 0 -56 -20 -56 -61l-141 12c6 118 93 178 206 178c140 0 204 -69 204 -168v-231c0 -21 11 -32 27 -32c19 0 33 6 56 20l7 -110c-27 -27 -72 -44 -118 -44
c-40 0 -96 21 -103 77c-40 -53 -101 -77 -159 -77c-78 0 -139 48 -139 152c0 127 103 188 268 192zM67 750h156l90 -158h-128z" />
    <glyph glyph-name="aacute" unicode="&#xe1;" horiz-adv-x="517" 
d="M294 144v86c-61 -1 -116 -19 -116 -66c0 -31 18 -48 49 -48c26 0 45 11 67 28zM294 329v36c0 40 -17 56 -52 56c-38 0 -56 -20 -56 -61l-141 12c6 118 93 178 206 178c140 0 204 -69 204 -168v-231c0 -21 11 -32 27 -32c19 0 33 6 56 20l7 -110c-27 -27 -72 -44 -118 -44
c-40 0 -96 21 -103 77c-40 -53 -101 -77 -159 -77c-78 0 -139 48 -139 152c0 127 103 188 268 192zM280 750h157l-118 -158h-129z" />
    <glyph glyph-name="acircumflex" unicode="&#xe2;" horiz-adv-x="517" 
d="M294 144v86c-61 -1 -116 -19 -116 -66c0 -31 18 -48 49 -48c26 0 45 11 67 28zM294 329v36c0 40 -17 56 -52 56c-38 0 -56 -20 -56 -61l-141 12c6 118 93 178 206 178c140 0 204 -69 204 -168v-231c0 -21 11 -32 27 -32c19 0 33 6 56 20l7 -110c-27 -27 -72 -44 -118 -44
c-40 0 -96 21 -103 77c-40 -53 -101 -77 -159 -77c-78 0 -139 48 -139 152c0 127 103 188 268 192zM181 750h138l103 -158h-123l-49 71l-49 -71h-123z" />
    <glyph glyph-name="atilde" unicode="&#xe3;" horiz-adv-x="517" 
d="M294 144v86c-61 -1 -116 -19 -116 -66c0 -31 18 -48 49 -48c26 0 45 11 67 28zM294 329v36c0 40 -17 56 -52 56c-38 0 -56 -20 -56 -61l-141 12c6 118 93 178 206 178c140 0 204 -69 204 -168v-231c0 -21 11 -32 27 -32c19 0 33 6 56 20l7 -110c-27 -27 -72 -44 -118 -44
c-40 0 -96 21 -103 77c-40 -53 -101 -77 -159 -77c-78 0 -139 48 -139 152c0 127 103 188 268 192zM174 597l-94 34c12 57 40 106 102 106c42 0 87 -30 112 -30c19 0 24 9 32 38l95 -35c-21 -76 -58 -110 -113 -110c-34 0 -78 31 -104 31c-18 0 -22 -10 -30 -34z" />
    <glyph glyph-name="adieresis" unicode="&#xe4;" horiz-adv-x="517" 
d="M294 144v86c-61 -1 -116 -19 -116 -66c0 -31 18 -48 49 -48c26 0 45 11 67 28zM294 329v36c0 40 -17 56 -52 56c-38 0 -56 -20 -56 -61l-141 12c6 118 93 178 206 178c140 0 204 -69 204 -168v-231c0 -21 11 -32 27 -32c19 0 33 6 56 20l7 -110c-27 -27 -72 -44 -118 -44
c-40 0 -96 21 -103 77c-40 -53 -101 -77 -159 -77c-78 0 -139 48 -139 152c0 127 103 188 268 192zM102 736h121v-129h-121v129zM277 736h121v-129h-121v129z" />
    <glyph glyph-name="amacron" unicode="&#x101;" horiz-adv-x="517" 
d="M294 144v86c-61 -1 -116 -19 -116 -66c0 -31 18 -48 49 -48c26 0 45 11 67 28zM294 329v36c0 40 -17 56 -52 56c-38 0 -56 -20 -56 -61l-141 12c6 118 93 178 206 178c140 0 204 -69 204 -168v-231c0 -21 11 -32 27 -32c19 0 33 6 56 20l7 -110c-27 -27 -72 -44 -118 -44
c-40 0 -96 21 -103 77c-40 -53 -101 -77 -159 -77c-78 0 -139 48 -139 152c0 127 103 188 268 192zM395 617h-289v108h289v-108z" />
    <glyph glyph-name="abreve" unicode="&#x103;" horiz-adv-x="517" 
d="M294 144v86c-61 -1 -116 -19 -116 -66c0 -31 18 -48 49 -48c26 0 45 11 67 28zM294 329v36c0 40 -17 56 -52 56c-38 0 -56 -20 -56 -61l-141 12c6 118 93 178 206 178c140 0 204 -69 204 -168v-231c0 -21 11 -32 27 -32c19 0 33 6 56 20l7 -110c-27 -27 -72 -44 -118 -44
c-40 0 -96 21 -103 77c-40 -53 -101 -77 -159 -77c-78 0 -139 48 -139 152c0 127 103 188 268 192zM250 594c-99 0 -153 59 -155 154h102c2 -42 28 -55 53 -55s51 13 53 55h102c-2 -95 -56 -154 -155 -154z" />
    <glyph glyph-name="aring" unicode="&#xe5;" horiz-adv-x="517" 
d="M294 144v86c-61 -1 -116 -19 -116 -66c0 -31 18 -48 49 -48c26 0 45 11 67 28zM294 329v36c0 40 -17 56 -52 56c-38 0 -56 -20 -56 -61l-141 12c6 118 93 178 206 178c140 0 204 -69 204 -168v-231c0 -21 11 -32 27 -32c19 0 33 6 56 20l7 -110c-27 -27 -72 -44 -118 -44
c-40 0 -96 21 -103 77c-40 -53 -101 -77 -159 -77c-78 0 -139 48 -139 152c0 127 103 188 268 192zM363 671c0 -55 -45 -97 -113 -97s-113 42 -113 97s45 97 113 97s113 -42 113 -97zM283 671c0 21 -11 32 -33 32c-23 0 -34 -11 -34 -32s11 -32 34 -32c22 0 33 11 33 32z
" />
    <glyph glyph-name="aringacute" unicode="&#x1fb;" horiz-adv-x="517" 
d="M364 671c0 -55 -45 -97 -113 -97s-113 42 -113 97c0 36 19 66 51 82l66 116h139l-91 -115c44 -14 61 -49 61 -83zM284 671c0 21 -11 32 -33 32c-23 0 -34 -11 -34 -32s11 -32 34 -32c22 0 33 11 33 32zM294 144v86c-61 -1 -116 -19 -116 -66c0 -31 18 -48 49 -48
c26 0 45 11 67 28zM294 329v36c0 40 -17 56 -52 56c-38 0 -56 -20 -56 -61l-141 12c6 118 93 178 206 178c140 0 204 -69 204 -168v-231c0 -21 11 -32 27 -32c19 0 33 6 56 20l7 -110c-27 -27 -72 -44 -118 -44c-40 0 -96 21 -103 77c-40 -53 -101 -77 -159 -77
c-78 0 -139 48 -139 152c0 127 103 188 268 192z" />
    <glyph glyph-name="aogonek" unicode="&#x105;" horiz-adv-x="517" 
d="M294 329v36c0 40 -17 56 -52 56c-38 0 -56 -20 -56 -61l-141 12c6 118 93 178 206 178c140 0 204 -69 204 -168v-231c0 -21 11 -32 27 -32c19 0 33 6 56 20l7 -110c-15 -15 -36 -27 -59 -34c-29 -19 -48 -43 -48 -66c0 -17 12 -26 28 -26c12 0 26 6 37 20l63 -70
c-30 -41 -78 -62 -133 -62c-68 0 -125 35 -125 107c0 41 23 84 52 106c-18 12 -33 31 -36 58c-40 -53 -101 -77 -159 -77c-78 0 -139 48 -139 152c0 127 104 188 268 192zM294 144v86c-61 -1 -116 -19 -116 -66c0 -31 18 -48 49 -48c26 0 45 11 67 28z" />
    <glyph glyph-name="ae" unicode="&#xe6;" horiz-adv-x="740" 
d="M706 222h-268c6 -82 44 -110 100 -110c59 0 112 25 147 49l13 -119c-57 -31 -106 -56 -196 -56c-73 0 -129 21 -163 71c-37 -43 -86 -71 -156 -71c-85 0 -157 38 -157 151c0 127 104 188 268 192v36c0 40 -18 56 -53 56c-37 0 -55 -20 -55 -62l-141 13
c5 118 93 178 206 178c58 0 100 -14 125 -39c28 26 72 39 126 39c147 0 204 -95 204 -234v-94zM293 230c-61 -1 -115 -20 -115 -67c0 -30 19 -47 49 -47c33 0 55 16 75 36c-5 24 -8 49 -9 78zM438 321h118c0 71 -13 100 -59 100c-45 0 -57 -33 -59 -100z" />
    <glyph glyph-name="aeacute" unicode="&#x1fd;" horiz-adv-x="740" 
d="M706 222h-268c6 -82 44 -110 100 -110c59 0 112 25 147 49l13 -119c-57 -31 -106 -56 -196 -56c-73 0 -129 21 -163 71c-37 -43 -86 -71 -156 -71c-85 0 -157 38 -157 151c0 127 104 188 268 192v36c0 40 -18 56 -53 56c-37 0 -55 -20 -55 -62l-141 13
c5 118 93 178 206 178c58 0 100 -14 125 -39c28 26 72 39 126 39c147 0 204 -95 204 -234v-94zM293 230c-61 -1 -115 -20 -115 -67c0 -30 19 -47 49 -47c33 0 55 16 75 36c-5 24 -8 49 -9 78zM438 321h118c0 71 -13 100 -59 100c-45 0 -57 -33 -59 -100zM409 750h157
l-118 -158h-129z" />
    <glyph glyph-name="cacute" unicode="&#x107;" horiz-adv-x="482" 
d="M459 346c-48 -5 -95 -8 -142 -13c-1 41 -9 88 -55 88c-48 0 -66 -26 -66 -154c0 -121 39 -148 98 -148c58 0 114 17 148 41l15 -118c-57 -31 -112 -56 -196 -56c-149 0 -232 79 -232 284c0 209 75 280 235 280c143 0 194 -81 195 -204zM272 750h157l-118 -158h-129z" />
    <glyph glyph-name="ccircumflex" unicode="&#x109;" horiz-adv-x="482" 
d="M459 346c-48 -5 -95 -8 -142 -13c-1 41 -9 88 -55 88c-48 0 -66 -26 -66 -154c0 -121 39 -148 98 -148c58 0 114 17 148 41l15 -118c-57 -31 -112 -56 -196 -56c-149 0 -232 79 -232 284c0 209 75 280 235 280c143 0 194 -81 195 -204zM185 750h138l103 -158h-123l-49 71
l-49 -71h-123z" />
    <glyph glyph-name="ccaron" unicode="&#x10d;" horiz-adv-x="482" 
d="M459 346c-48 -5 -95 -8 -142 -13c-1 41 -9 88 -55 88c-48 0 -66 -26 -66 -154c0 -121 39 -148 98 -148c58 0 114 17 148 41l15 -118c-57 -31 -112 -56 -196 -56c-149 0 -232 79 -232 284c0 209 75 280 235 280c143 0 194 -81 195 -204zM323 592h-138l-103 158h123l49 -71
l49 71h123z" />
    <glyph glyph-name="cdotaccent" unicode="&#x10b;" horiz-adv-x="482" 
d="M459 346c-48 -5 -95 -8 -142 -13c-1 41 -9 88 -55 88c-48 0 -66 -26 -66 -154c0 -121 39 -148 98 -148c58 0 114 17 148 41l15 -118c-57 -31 -112 -56 -196 -56c-149 0 -232 79 -232 284c0 209 75 280 235 280c143 0 194 -81 195 -204zM190 736h129v-129h-129v129z" />
    <glyph glyph-name="ccedilla" unicode="&#xe7;" horiz-adv-x="482" 
d="M459 346l-142 -12c-1 40 -8 87 -55 87c-48 0 -66 -26 -66 -153c0 -118 36 -149 96 -149c51 0 114 17 151 41l15 -117c-39 -22 -77 -42 -124 -51c14 -22 21 -53 21 -77c0 -69 -54 -120 -132 -120c-61 0 -118 26 -143 68l62 67c17 -21 36 -27 50 -27c23 0 35 10 35 36
c0 17 -8 34 -18 51c-116 17 -180 101 -180 280c0 210 76 280 235 280c144 0 195 -80 195 -204z" />
    <glyph glyph-name="dcaron" unicode="&#x10f;" horiz-adv-x="647" 
d="M574 700h124l-74 -237h-91zM336 164v241c-19 7 -40 16 -67 16c-41 0 -73 -18 -73 -145c0 -96 31 -144 69 -144c29 0 50 14 71 32zM468 -14c-48 0 -95 24 -102 79c-42 -44 -94 -79 -156 -79c-93 0 -181 84 -181 279c0 192 79 285 195 285c43 0 79 -10 112 -26v206l160 20
v-599c0 -21 11 -32 27 -32c19 0 33 6 56 20l7 -110c-27 -27 -72 -43 -118 -43z" />
    <glyph glyph-name="dcroat" unicode="&#x111;" horiz-adv-x="574" 
d="M578 138l8 -111c-26 -25 -74 -41 -117 -41c-49 0 -96 23 -104 78c-41 -44 -95 -78 -155 -78c-94 0 -181 81 -181 278c0 192 78 286 195 286c42 0 78 -11 112 -26v77h-159v70h159v59l160 20v-79h82v-70h-82v-452c0 -20 11 -32 27 -32c18 0 33 6 55 21zM336 163v242
c-20 7 -40 16 -68 16c-40 0 -72 -19 -72 -146c0 -97 31 -144 68 -144c29 0 51 14 72 32z" />
    <glyph glyph-name="egrave" unicode="&#xe8;" horiz-adv-x="499" 
d="M465 222h-268c6 -84 44 -111 103 -111c50 0 108 26 144 50l14 -119c-58 -31 -107 -56 -197 -56c-138 0 -232 79 -232 278c0 200 85 286 232 286c149 0 204 -95 204 -234v-94zM197 321h118c0 71 -13 100 -58 100c-46 0 -58 -33 -60 -100zM84 750h156l90 -158h-128z" />
    <glyph glyph-name="eacute" unicode="&#xe9;" horiz-adv-x="499" 
d="M465 222h-268c6 -84 44 -111 103 -111c50 0 108 26 144 50l14 -119c-58 -31 -107 -56 -197 -56c-138 0 -232 79 -232 278c0 200 85 286 232 286c149 0 204 -95 204 -234v-94zM197 321h118c0 71 -13 100 -58 100c-46 0 -58 -33 -60 -100zM278 750h157l-118 -158h-129z" />
    <glyph glyph-name="ecircumflex" unicode="&#xea;" horiz-adv-x="499" 
d="M465 222h-268c6 -84 44 -111 103 -111c50 0 108 26 144 50l14 -119c-58 -31 -107 -56 -197 -56c-138 0 -232 79 -232 278c0 200 85 286 232 286c149 0 204 -95 204 -234v-94zM197 321h118c0 71 -13 100 -58 100c-46 0 -58 -33 -60 -100zM185 750h138l103 -158h-123
l-49 71l-49 -71h-123z" />
    <glyph glyph-name="ecaron" unicode="&#x11b;" horiz-adv-x="499" 
d="M465 222h-268c6 -84 44 -111 103 -111c50 0 108 26 144 50l14 -119c-58 -31 -107 -56 -197 -56c-138 0 -232 79 -232 278c0 200 85 286 232 286c149 0 204 -95 204 -234v-94zM197 321h118c0 71 -13 100 -58 100c-46 0 -58 -33 -60 -100zM323 592h-138l-103 158h123
l49 -71l49 71h123z" />
    <glyph glyph-name="edieresis" unicode="&#xeb;" horiz-adv-x="499" 
d="M465 222h-268c6 -84 44 -111 103 -111c50 0 108 26 144 50l14 -119c-58 -31 -107 -56 -197 -56c-138 0 -232 79 -232 278c0 200 85 286 232 286c149 0 204 -95 204 -234v-94zM197 321h118c0 71 -13 100 -58 100c-46 0 -58 -33 -60 -100zM106 736h121v-129h-121v129z
M281 736h121v-129h-121v129z" />
    <glyph glyph-name="emacron" unicode="&#x113;" horiz-adv-x="499" 
d="M465 222h-268c6 -84 44 -111 103 -111c50 0 108 26 144 50l14 -119c-58 -31 -107 -56 -197 -56c-138 0 -232 79 -232 278c0 200 85 286 232 286c149 0 204 -95 204 -234v-94zM197 321h118c0 71 -13 100 -58 100c-46 0 -58 -33 -60 -100zM399 616h-289v108h289v-108z" />
    <glyph glyph-name="ebreve" unicode="&#x115;" horiz-adv-x="499" 
d="M465 222h-268c6 -84 44 -111 103 -111c50 0 108 26 144 50l14 -119c-58 -31 -107 -56 -197 -56c-138 0 -232 79 -232 278c0 200 85 286 232 286c149 0 204 -95 204 -234v-94zM197 321h118c0 71 -13 100 -58 100c-46 0 -58 -33 -60 -100zM254 594c-99 0 -153 59 -155 154
h102c2 -42 28 -55 53 -55s51 13 53 55h102c-2 -95 -56 -154 -155 -154z" />
    <glyph glyph-name="edotaccent" unicode="&#x117;" horiz-adv-x="499" 
d="M465 222h-268c6 -84 44 -111 103 -111c50 0 108 26 144 50l14 -119c-58 -31 -107 -56 -197 -56c-138 0 -232 79 -232 278c0 200 85 286 232 286c149 0 204 -95 204 -234v-94zM197 321h118c0 71 -13 100 -58 100c-46 0 -58 -33 -60 -100zM190 736h129v-129h-129v129z" />
    <glyph glyph-name="eogonek" unicode="&#x119;" horiz-adv-x="499" 
d="M465 316v-94h-268c6 -84 44 -112 103 -112c50 0 108 27 144 51l14 -119c-68 -38 -150 -58 -150 -112c0 -18 11 -27 27 -27c13 0 26 6 37 21c22 -24 42 -47 63 -71c-31 -42 -79 -60 -135 -60c-69 0 -122 34 -122 105c0 33 13 69 37 92c-112 15 -186 98 -186 274
c0 200 85 286 232 286c149 0 204 -95 204 -234zM197 321h118c0 71 -13 100 -58 100c-46 0 -58 -33 -60 -100z" />
    <glyph glyph-name="gcircumflex" unicode="&#x11d;" horiz-adv-x="496" 
d="M325 -97c0 49 -78 45 -145 55c-23 -10 -43 -30 -43 -54c0 -36 42 -49 91 -49c51 0 97 18 97 48zM247 550c30 0 57 -7 81 -15h175v-129l-63 8c9 -24 11 -41 11 -69c0 -122 -82 -207 -205 -207c-15 0 -25 1 -40 5c-13 -8 -26 -18 -26 -33c0 -50 306 17 306 -174
c0 -127 -114 -192 -261 -192c-160 0 -234 60 -234 141c0 56 38 91 81 110c-27 19 -44 43 -44 85c0 52 40 87 77 110c-41 34 -66 87 -66 156c0 124 82 204 208 204zM246 436c-38 0 -62 -20 -62 -90c0 -68 24 -93 62 -93c36 0 60 25 60 92c0 74 -24 91 -60 91zM176 750h138
l103 -158h-123l-49 71l-49 -71h-123z" />
    <glyph glyph-name="gbreve" unicode="&#x11f;" horiz-adv-x="496" 
d="M325 -97c0 49 -78 45 -145 55c-23 -10 -43 -30 -43 -54c0 -36 42 -49 91 -49c51 0 97 18 97 48zM247 550c30 0 57 -7 81 -15h175v-129l-63 8c9 -24 11 -41 11 -69c0 -122 -82 -207 -205 -207c-15 0 -25 1 -40 5c-13 -8 -26 -18 -26 -33c0 -50 306 17 306 -174
c0 -127 -114 -192 -261 -192c-160 0 -234 60 -234 141c0 56 38 91 81 110c-27 19 -44 43 -44 85c0 52 40 87 77 110c-41 34 -66 87 -66 156c0 124 82 204 208 204zM246 436c-38 0 -62 -20 -62 -90c0 -68 24 -93 62 -93c36 0 60 25 60 92c0 74 -24 91 -60 91zM246 594
c-99 0 -153 59 -155 154h102c2 -42 28 -55 53 -55s51 13 53 55h102c-2 -95 -56 -154 -155 -154z" />
    <glyph glyph-name="gdotaccent" unicode="&#x121;" horiz-adv-x="496" 
d="M325 -97c0 49 -78 45 -145 55c-23 -10 -43 -30 -43 -54c0 -36 42 -49 91 -49c51 0 97 18 97 48zM247 550c30 0 57 -7 81 -15h175v-129l-63 8c9 -24 11 -41 11 -69c0 -122 -82 -207 -205 -207c-15 0 -25 1 -40 5c-13 -8 -26 -18 -26 -33c0 -50 306 17 306 -174
c0 -127 -114 -192 -261 -192c-160 0 -234 60 -234 141c0 56 38 91 81 110c-27 19 -44 43 -44 85c0 52 40 87 77 110c-41 34 -66 87 -66 156c0 124 82 204 208 204zM246 436c-38 0 -62 -20 -62 -90c0 -68 24 -93 62 -93c36 0 60 25 60 92c0 74 -24 91 -60 91zM182 735h129
v-129h-129v129z" />
    <glyph glyph-name="gcommaaccent" unicode="&#x123;" horiz-adv-x="496" 
d="M325 -97c0 49 -78 45 -145 55c-23 -10 -43 -30 -43 -54c0 -36 42 -49 91 -49c51 0 97 18 97 48zM247 550c30 0 57 -7 81 -15h175v-129l-63 8c9 -24 11 -41 11 -69c0 -122 -82 -207 -205 -207c-15 0 -25 1 -40 5c-13 -8 -26 -18 -26 -33c0 -50 306 17 306 -174
c0 -127 -114 -192 -261 -192c-160 0 -234 60 -234 141c0 56 38 91 81 110c-27 19 -44 43 -44 85c0 52 40 87 77 110c-41 34 -66 87 -66 156c0 124 82 204 208 204zM246 436c-38 0 -62 -20 -62 -90c0 -68 24 -93 62 -93c36 0 60 25 60 92c0 74 -24 91 -60 91zM322 589h-157
l118 158h129z" />
    <glyph glyph-name="hcircumflex" unicode="&#x125;" horiz-adv-x="571" 
d="M61 730l161 20v-245c37 25 84 45 142 45c97 0 156 -51 156 -169v-381h-161v331c0 44 -27 60 -66 60c-23 0 -51 -8 -71 -16v-375h-161v730zM75 951h138l103 -158h-123l-49 71l-49 -71h-123z" />
    <glyph glyph-name="hbar" unicode="&#x127;" horiz-adv-x="571" 
d="M61 730l161 20v-70h167v-77h-167v-98c38 25 84 45 142 45c97 0 156 -51 156 -169v-381h-161v331c0 44 -27 60 -66 60c-23 0 -51 -8 -71 -16v-375h-161v603h-81v77h81v50z" />
    <glyph glyph-name="igrave" unicode="&#xec;" horiz-adv-x="283" 
d="M-37 750h156l90 -158h-128zM61 535h161v-535h-161v535z" />
    <glyph glyph-name="iacute" unicode="&#xed;" horiz-adv-x="283" 
d="M166 750h157l-118 -158h-129zM61 535h161v-535h-161v535z" />
    <glyph glyph-name="icircumflex" unicode="&#xee;" horiz-adv-x="283" 
d="M61 535h161v-535h-161v535zM73 750h138l103 -158h-123l-49 71l-49 -71h-123z" />
    <glyph glyph-name="itilde" unicode="&#x129;" horiz-adv-x="283" 
d="M66 597l-94 34c12 57 40 106 102 106c42 0 87 -30 112 -30c19 0 24 9 32 38l95 -35c-21 -76 -58 -110 -113 -110c-34 0 -78 31 -104 31c-18 0 -22 -10 -30 -34zM61 535h161v-535h-161v535z" />
    <glyph glyph-name="idieresis" unicode="&#xef;" horiz-adv-x="283" 
d="M-6 736h121v-129h-121v129zM169 736h121v-129h-121v129zM61 535h161v-535h-161v535z" />
    <glyph glyph-name="imacron" unicode="&#x12b;" horiz-adv-x="283" 
d="M287 617h-289v108h289v-108zM61 535h161v-535h-161v535z" />
    <glyph glyph-name="ibreve" unicode="&#x12d;" horiz-adv-x="283" 
d="M142 594c-99 0 -153 59 -155 154h102c2 -42 28 -55 53 -55s51 13 53 55h102c-2 -95 -56 -154 -155 -154zM61 535h161v-535h-161v535z" />
    <glyph glyph-name="iogonek" unicode="&#x12f;" horiz-adv-x="283" 
d="M61 0v535h161v-535c-53 -14 -81 -41 -81 -71c0 -17 12 -26 28 -26c12 0 26 6 37 20l62 -70c-29 -41 -76 -62 -131 -62c-68 0 -126 35 -126 107c0 38 19 81 50 102zM61 740h161v-141h-161v141z" />
    <glyph glyph-name="dotlessi" unicode="&#x131;" horiz-adv-x="283" 
d="M61 535h161v-535h-161v535z" />
    <glyph glyph-name="jcircumflex" unicode="&#x135;" horiz-adv-x="228" 
d="M222 535v-593c0 -110 -74 -154 -159 -154c-39 0 -80 10 -117 26l15 127c18 -7 38 -13 56 -13c24 0 44 12 44 49v558h161zM73 750h138l103 -158h-123l-49 71l-49 -71h-123z" />
    <glyph glyph-name="kcommaaccent" unicode="&#x137;" horiz-adv-x="518" 
d="M228 -40h158c-40 -53 -81 -105 -120 -158h-128c30 53 59 105 90 158zM222 155v-155h-161v730l161 20v-402l142 187h165l-149 -216l169 -319h-183l-105 203z" />
    <glyph glyph-name="lacute" unicode="&#x13a;" horiz-adv-x="303" 
d="M59 730l161 20v-578c0 -29 16 -40 38 -40c20 0 32 4 49 12l4 -130c-39 -22 -71 -28 -114 -28c-96 0 -138 62 -138 172v572zM163 934h157l-118 -158h-129z" />
    <glyph glyph-name="lcaron" unicode="&#x13e;" horiz-adv-x="368" 
d="M295 700h124l-74 -237h-90zM59 730l161 20v-578c0 -29 16 -40 38 -40c20 0 32 4 49 12l4 -130c-39 -22 -71 -28 -114 -28c-96 0 -138 62 -138 172v572z" />
    <glyph glyph-name="lcommaaccent" unicode="&#x13c;" horiz-adv-x="303" 
d="M59 730l161 20v-584c0 -29 16 -40 38 -40c20 0 32 4 49 12c1 -41 2 -83 4 -124c-49 -22 -71 -28 -114 -28c-101 0 -138 50 -138 174v570zM129 -40h158c-39 -53 -80 -105 -120 -158h-128z" />
    <glyph glyph-name="lslash" unicode="&#x142;" horiz-adv-x="321" 
d="M59 730l161 20v-264l68 39v-117l-68 -38v-204c0 -29 17 -40 39 -40c20 0 31 5 49 12l3 -123c-49 -24 -70 -29 -114 -29c-91 0 -138 45 -138 154v139l-66 -36v117l66 36v334z" />
    <glyph glyph-name="nacute" unicode="&#x144;" horiz-adv-x="572" 
d="M189 535v-58c41 39 100 73 175 73c97 0 156 -51 156 -170v-380h-161v331c0 44 -27 60 -66 60c-23 0 -50 -8 -71 -16v-375h-161v535h128zM318 750h157l-118 -158h-129z" />
    <glyph glyph-name="ncaron" unicode="&#x148;" horiz-adv-x="572" 
d="M189 535v-58c41 39 100 73 175 73c97 0 156 -51 156 -170v-380h-161v331c0 44 -27 60 -66 60c-23 0 -50 -8 -71 -16v-375h-161v535h128zM359 592h-138l-103 158h123l49 -71l49 71h123z" />
    <glyph glyph-name="ntilde" unicode="&#xf1;" horiz-adv-x="572" 
d="M189 535v-58c41 39 100 73 175 73c97 0 156 -51 156 -170v-380h-161v331c0 44 -27 60 -66 60c-23 0 -50 -8 -71 -16v-375h-161v535h128zM214 597l-94 34c12 57 40 106 102 106c42 0 87 -30 112 -30c19 0 24 9 32 38l95 -35c-21 -76 -58 -110 -113 -110
c-34 0 -78 31 -104 31c-18 0 -22 -10 -30 -34z" />
    <glyph glyph-name="ncommaaccent" unicode="&#x146;" horiz-adv-x="572" 
d="M189 535v-58c41 39 100 73 175 73c97 0 156 -51 156 -170v-380h-161v331c0 44 -27 60 -66 60c-23 0 -50 -8 -71 -16v-375h-161v535h128zM230 -40h158c-39 -53 -80 -105 -119 -158h-129c31 53 60 105 90 158z" />
    <glyph glyph-name="ograve" unicode="&#xf2;" horiz-adv-x="543" 
d="M272 550c158 0 241 -85 241 -284c0 -192 -90 -280 -241 -280c-153 0 -242 84 -242 281c0 196 87 283 242 283zM272 421c-52 0 -78 -35 -78 -154c0 -117 26 -156 78 -156s77 39 77 155c0 120 -25 155 -77 155zM93 750h156l90 -158h-128z" />
    <glyph glyph-name="oacute" unicode="&#xf3;" horiz-adv-x="543" 
d="M272 550c158 0 241 -85 241 -284c0 -192 -90 -280 -241 -280c-153 0 -242 84 -242 281c0 196 87 283 242 283zM272 421c-52 0 -78 -35 -78 -154c0 -117 26 -156 78 -156s77 39 77 155c0 120 -25 155 -77 155zM289 750h157l-118 -158h-129z" />
    <glyph glyph-name="ocircumflex" unicode="&#xf4;" horiz-adv-x="543" 
d="M272 550c158 0 241 -85 241 -284c0 -192 -90 -280 -241 -280c-153 0 -242 84 -242 281c0 196 87 283 242 283zM272 421c-52 0 -78 -35 -78 -154c0 -117 26 -156 78 -156s77 39 77 155c0 120 -25 155 -77 155zM203 750h138l103 -158h-123l-49 71l-49 -71h-123z" />
    <glyph glyph-name="otilde" unicode="&#xf5;" horiz-adv-x="543" 
d="M272 550c158 0 241 -85 241 -284c0 -192 -90 -280 -241 -280c-153 0 -242 84 -242 281c0 196 87 283 242 283zM272 421c-52 0 -78 -35 -78 -154c0 -117 26 -156 78 -156s77 39 77 155c0 120 -25 155 -77 155zM196 597l-94 34c12 57 40 106 102 106c42 0 87 -30 112 -30
c19 0 24 9 32 38l95 -35c-21 -76 -58 -110 -113 -110c-34 0 -78 31 -104 31c-18 0 -22 -10 -30 -34z" />
    <glyph glyph-name="odieresis" unicode="&#xf6;" horiz-adv-x="543" 
d="M272 550c158 0 241 -85 241 -284c0 -192 -90 -280 -241 -280c-153 0 -242 84 -242 281c0 196 87 283 242 283zM272 421c-52 0 -78 -35 -78 -154c0 -117 26 -156 78 -156s77 39 77 155c0 120 -25 155 -77 155zM124 736h121v-129h-121v129zM299 736h121v-129h-121v129z" />
    <glyph glyph-name="omacron" unicode="&#x14d;" horiz-adv-x="543" 
d="M272 550c158 0 241 -85 241 -284c0 -192 -90 -280 -241 -280c-153 0 -242 84 -242 281c0 196 87 283 242 283zM272 421c-52 0 -78 -35 -78 -154c0 -117 26 -156 78 -156s77 39 77 155c0 120 -25 155 -77 155zM417 617h-289v108h289v-108z" />
    <glyph glyph-name="obreve" unicode="&#x14f;" horiz-adv-x="543" 
d="M272 550c158 0 241 -85 241 -284c0 -192 -90 -280 -241 -280c-153 0 -242 84 -242 281c0 196 87 283 242 283zM272 421c-52 0 -78 -35 -78 -154c0 -117 26 -156 78 -156s77 39 77 155c0 120 -25 155 -77 155zM272 594c-99 0 -153 59 -155 154h102c2 -42 28 -55 53 -55
s51 13 53 55h102c-2 -95 -56 -154 -155 -154z" />
    <glyph glyph-name="ohungarumlaut" unicode="&#x151;" horiz-adv-x="543" 
d="M272 550c158 0 241 -85 241 -284c0 -192 -90 -280 -241 -280c-153 0 -242 84 -242 281c0 196 87 283 242 283zM272 421c-52 0 -78 -35 -78 -154c0 -117 26 -156 78 -156s77 39 77 155c0 120 -25 155 -77 155zM177 750h143l-78 -158h-98zM371 750h153l-121 -158h-108z" />
    <glyph glyph-name="oslash" unicode="&#xf8;" horiz-adv-x="543" 
d="M272 550c61 0 111 -13 149 -40l45 60l52 -34l-54 -70c33 -45 49 -112 49 -200c0 -192 -90 -280 -241 -280c-61 0 -111 13 -150 41l-48 -63l-48 36l54 70c-33 45 -50 110 -50 197c0 196 87 283 242 283zM272 421c-52 0 -78 -35 -78 -154c0 -11 1 -42 3 -48l132 172
c-13 25 -32 30 -57 30zM349 266c0 20 -1 36 -3 50l-132 -172c13 -24 32 -33 58 -33c52 0 77 39 77 155z" />
    <glyph glyph-name="oslashacute" unicode="&#x1ff;" horiz-adv-x="543" 
d="M289 750h157l-118 -158h-129zM272 550c61 0 111 -13 149 -40l45 60l52 -34l-54 -70c33 -45 49 -112 49 -200c0 -192 -90 -280 -241 -280c-61 0 -111 13 -150 41l-48 -63l-48 36l54 70c-33 45 -50 110 -50 197c0 196 87 283 242 283zM272 421c-52 0 -78 -35 -78 -154
c0 -11 1 -42 3 -48l132 172c-13 25 -32 30 -57 30zM349 266c0 20 -1 36 -3 50l-132 -172c13 -24 32 -33 58 -33c52 0 77 39 77 155z" />
    <glyph glyph-name="oe" unicode="&#x153;" horiz-adv-x="813" 
d="M271 549c76 0 125 -20 155 -66c30 46 78 67 149 67c149 0 205 -95 205 -233v-85h-269c4 -91 43 -121 103 -121c51 0 108 26 144 50l14 -118c-57 -32 -107 -57 -197 -57c-70 0 -119 21 -149 69c-31 -47 -81 -69 -155 -69c-153 0 -242 84 -242 281c0 196 87 282 242 282z
M271 425c-52 0 -78 -39 -78 -158c0 -117 26 -156 78 -156s77 39 77 155c0 120 -25 159 -77 159zM512 321h117c0 71 -13 100 -58 100c-46 0 -58 -33 -59 -100z" />
    <glyph glyph-name="racute" unicode="&#x155;" horiz-adv-x="436" 
d="M61 535h128v-65c48 58 91 80 147 80c101 0 107 -100 107 -188l-140 -9c-1 22 -5 42 -28 42c-15 0 -36 -10 -53 -32v-363h-161v535zM255 750h157l-118 -158h-129z" />
    <glyph glyph-name="rcommaaccent" unicode="&#x157;" horiz-adv-x="436" 
d="M61 -40h158l-120 -158h-127zM61 535h128v-65c48 58 91 80 147 80c101 0 107 -100 107 -188l-140 -9c-1 22 -5 42 -28 42c-15 0 -36 -10 -53 -32v-363h-161v535z" />
    <glyph glyph-name="rcaron" unicode="&#x159;" horiz-adv-x="436" 
d="M61 535h128v-65c48 58 91 80 147 80c101 0 107 -100 107 -188l-140 -9c-1 22 -5 42 -28 42c-15 0 -36 -10 -53 -32v-363h-161v535zM301 592h-138l-103 158h123l49 -71l49 71h123z" />
    <glyph glyph-name="sacute" unicode="&#x15b;" horiz-adv-x="447" 
d="M420 384l-127 -24c-3 43 -19 68 -59 68c-26 0 -45 -12 -45 -38c0 -75 230 -76 230 -236c0 -95 -66 -168 -198 -168c-93 0 -157 34 -203 72l46 114c49 -38 107 -61 150 -61c27 0 47 10 47 35c0 58 -223 75 -223 234c0 94 67 170 193 170c128 0 182 -78 189 -166zM244 750
h157l-118 -158h-129z" />
    <glyph glyph-name="scircumflex" unicode="&#x15d;" horiz-adv-x="447" 
d="M420 384l-127 -24c-3 43 -19 68 -59 68c-26 0 -45 -12 -45 -38c0 -75 230 -76 230 -236c0 -95 -66 -168 -198 -168c-93 0 -157 34 -203 72l46 114c49 -38 107 -61 150 -61c27 0 47 10 47 35c0 58 -223 75 -223 234c0 94 67 170 193 170c128 0 182 -78 189 -166zM161 750
h138l103 -158h-123l-49 71l-49 -71h-123z" />
    <glyph glyph-name="scaron" unicode="&#x161;" horiz-adv-x="447" 
d="M420 384l-127 -24c-3 43 -19 68 -59 68c-26 0 -45 -12 -45 -38c0 -75 230 -76 230 -236c0 -95 -66 -168 -198 -168c-93 0 -157 34 -203 72l46 114c49 -38 107 -61 150 -61c27 0 47 10 47 35c0 58 -223 75 -223 234c0 94 67 170 193 170c128 0 182 -78 189 -166zM297 592
h-138l-103 158h123l49 -71l49 71h123z" />
    <glyph glyph-name="scedilla" unicode="&#x15f;" horiz-adv-x="447" 
d="M420 384l-127 -24c-3 43 -19 68 -59 68c-26 0 -45 -12 -45 -38c0 -75 230 -76 230 -236c0 -74 -40 -134 -117 -157c17 -22 25 -57 25 -82c0 -69 -54 -120 -132 -120c-61 0 -118 26 -143 68l62 67c17 -21 36 -27 50 -27c23 0 35 10 35 36c0 16 -7 33 -16 49
c-72 8 -125 37 -165 70l46 114c49 -38 107 -61 150 -61c27 0 47 10 47 35c0 58 -223 75 -223 234c0 94 67 170 193 170c128 0 182 -78 189 -166z" />
    <glyph glyph-name="scommaaccent" unicode="&#x219;" horiz-adv-x="447" 
d="M420 384l-127 -24c-3 43 -19 68 -59 68c-26 0 -45 -12 -45 -38c0 -75 230 -76 230 -236c0 -95 -66 -168 -198 -168c-93 0 -157 34 -203 72l46 114c49 -38 107 -61 150 -61c27 0 47 10 47 35c0 58 -223 75 -223 234c0 94 67 170 193 170c128 0 182 -78 189 -166zM165 -40
h158l-119 -158h-129z" />
    <glyph glyph-name="germandbls" unicode="&#xdf;" horiz-adv-x="579" 
d="M522 597c0 -109 -73 -138 -73 -201c0 -66 129 -90 129 -237c0 -96 -57 -173 -174 -173c-71 0 -117 19 -152 50c17 38 36 77 54 114c20 -18 37 -30 67 -30c31 0 45 18 45 43c0 60 -122 73 -122 212c0 84 68 125 68 192c0 34 -26 60 -68 60c-44 0 -76 -28 -76 -76v-551
h-161v564c0 144 103 209 231 209c129 0 232 -55 232 -176z" />
    <glyph glyph-name="longs" unicode="&#x17f;" horiz-adv-x="320" 
d="M85 -23v434h-66v124h66v35c0 142 92 201 217 201c43 0 94 -7 131 -20l-27 -127c-20 7 -56 17 -88 17c-40 0 -72 -19 -72 -65v-623c0 -115 -68 -165 -159 -165c-39 0 -81 10 -117 27l16 126c16 -6 37 -13 55 -13c23 0 44 13 44 49z" />
    <glyph glyph-name="tcaron" unicode="&#x165;" horiz-adv-x="376" 
d="M310 764h134l-74 -183h-93zM81 622l156 45v-132h129l-18 -125h-111v-231c0 -27 12 -47 44 -47c27 0 50 9 75 22l28 -116c-42 -26 -87 -53 -164 -53c-82 0 -144 48 -144 141v284h-72v125h77v87z" />
    <glyph glyph-name="tcommaaccent" unicode="&#x163;" horiz-adv-x="376" 
d="M81 622l156 45v-131h129l-18 -125h-111v-232c0 -27 12 -47 44 -47c27 0 50 9 75 22l28 -116c-42 -26 -97 -53 -164 -53c-82 0 -144 48 -144 141v285h-72v125h77v86zM152 -40h158l-120 -158h-128z" />
    <glyph glyph-name="tbar" unicode="&#x167;" horiz-adv-x="392" 
d="M81 622l156 45v-131h129l-18 -125h-111v-72h108v-101h-108v-59c0 -27 12 -47 44 -47c27 0 50 9 75 22l28 -116c-42 -26 -87 -52 -164 -52c-82 0 -144 48 -144 140v112h-73v101h73v72h-72v125h77v86z" />
    <glyph glyph-name="ugrave" unicode="&#xf9;" horiz-adv-x="536" 
d="M274 -14c-120 0 -219 68 -219 196v353h161v-360c0 -44 19 -64 57 -64s57 20 57 64v360h161v-353c0 -128 -98 -196 -217 -196zM89 750h156l90 -158h-128z" />
    <glyph glyph-name="uacute" unicode="&#xfa;" horiz-adv-x="536" 
d="M274 -14c-120 0 -219 68 -219 196v353h161v-360c0 -44 19 -64 57 -64s57 20 57 64v360h161v-353c0 -128 -98 -196 -217 -196zM289 750h157l-118 -158h-129z" />
    <glyph glyph-name="ucircumflex" unicode="&#xfb;" horiz-adv-x="536" 
d="M274 -14c-120 0 -219 68 -219 196v353h161v-360c0 -44 19 -64 57 -64s57 20 57 64v360h161v-353c0 -128 -98 -196 -217 -196zM199 750h138l103 -158h-123l-49 71l-49 -71h-123z" />
    <glyph glyph-name="utilde" unicode="&#x169;" horiz-adv-x="536" 
d="M274 -14c-120 0 -219 68 -219 196v353h161v-360c0 -44 19 -64 57 -64s57 20 57 64v360h161v-353c0 -128 -98 -196 -217 -196zM191 597l-94 34c12 57 40 106 102 106c42 0 87 -30 112 -30c19 0 24 9 32 38l95 -35c-21 -76 -58 -110 -113 -110c-34 0 -78 31 -104 31
c-18 0 -22 -10 -30 -34z" />
    <glyph glyph-name="udieresis" unicode="&#xfc;" horiz-adv-x="536" 
d="M274 -14c-120 0 -219 68 -219 196v353h161v-360c0 -44 19 -64 57 -64s57 20 57 64v360h161v-353c0 -128 -98 -196 -217 -196zM120 736h121v-129h-121v129zM295 736h121v-129h-121v129z" />
    <glyph glyph-name="umacron" unicode="&#x16b;" horiz-adv-x="536" 
d="M274 -14c-120 0 -219 68 -219 196v353h161v-360c0 -44 19 -64 57 -64s57 20 57 64v360h161v-353c0 -128 -98 -196 -217 -196zM412 617h-289v108h289v-108z" />
    <glyph glyph-name="ubreve" unicode="&#x16d;" horiz-adv-x="536" 
d="M274 -14c-120 0 -219 68 -219 196v353h161v-360c0 -44 19 -64 57 -64s57 20 57 64v360h161v-353c0 -128 -98 -196 -217 -196zM268 594c-99 0 -153 59 -155 154h102c2 -42 28 -55 53 -55s51 13 53 55h102c-2 -95 -56 -154 -155 -154z" />
    <glyph glyph-name="uring" unicode="&#x16f;" horiz-adv-x="536" 
d="M274 -14c-120 0 -219 68 -219 196v353h161v-360c0 -44 19 -64 57 -64s57 20 57 64v360h161v-353c0 -128 -98 -196 -217 -196zM381 671c0 -55 -45 -97 -113 -97s-113 42 -113 97s45 97 113 97s113 -42 113 -97zM301 671c0 21 -11 32 -33 32c-23 0 -34 -11 -34 -32
s11 -32 34 -32c22 0 33 11 33 32z" />
    <glyph glyph-name="uhungarumlaut" unicode="&#x171;" horiz-adv-x="536" 
d="M274 -14c-120 0 -219 68 -219 196v353h161v-360c0 -44 19 -64 57 -64s57 20 57 64v360h161v-353c0 -128 -98 -196 -217 -196zM171 750h143l-78 -158h-98zM365 750h153l-121 -158h-108z" />
    <glyph glyph-name="uogonek" unicode="&#x173;" horiz-adv-x="536" 
d="M491 182c0 -95 -54 -156 -129 -182c-35 -20 -58 -46 -58 -71c0 -17 12 -26 28 -26c12 0 26 6 37 20l63 -70c-30 -41 -78 -62 -133 -62c-68 0 -125 35 -125 107c0 34 15 72 40 94c-91 19 -159 84 -159 190v353h161v-360c0 -44 19 -64 57 -64s57 20 57 64v360h161v-353z
" />
    <glyph glyph-name="wgrave" unicode="&#x1e81;" horiz-adv-x="781" 
d="M313 535h176l79 -345c19 115 38 230 58 345h159l-140 -535h-175l-77 352l-81 -352h-171l-146 535h171l65 -345zM219 750h156l90 -158h-128z" />
    <glyph glyph-name="wacute" unicode="&#x1e83;" horiz-adv-x="781" 
d="M313 535h176l79 -345c19 115 38 230 58 345h159l-140 -535h-175l-77 352l-81 -352h-171l-146 535h171l65 -345zM426 750h157l-118 -158h-129z" />
    <glyph glyph-name="wcircumflex" unicode="&#x175;" horiz-adv-x="781" 
d="M313 535h176l79 -345c19 115 38 230 58 345h159l-140 -535h-175l-77 352l-81 -352h-171l-146 535h171l65 -345zM321 750h138l103 -158h-123l-49 71l-49 -71h-123z" />
    <glyph glyph-name="wdieresis" unicode="&#x1e85;" horiz-adv-x="781" 
d="M313 535h176l79 -345c19 115 38 230 58 345h159l-140 -535h-175l-77 352l-81 -352h-171l-146 535h171l65 -345zM242 736h121v-129h-121v129zM417 736h121v-129h-121v129z" />
    <glyph glyph-name="ygrave" unicode="&#x1ef3;" horiz-adv-x="501" 
d="M505 535l-170 -505c-55 -163 -120 -247 -258 -247c-40 0 -87 9 -131 29l38 129c22 -13 57 -21 83 -21c60 0 76 27 110 109l-191 506h169l99 -324l95 324h156zM74 750h156l90 -158h-128z" />
    <glyph glyph-name="yacute" unicode="&#xfd;" horiz-adv-x="501" 
d="M505 535l-170 -505c-55 -163 -120 -247 -258 -247c-40 0 -87 9 -131 29l38 129c22 -13 57 -21 83 -21c60 0 76 27 110 109l-191 506h169l99 -324l95 324h156zM277 750h157l-118 -158h-129z" />
    <glyph glyph-name="ycircumflex" unicode="&#x177;" horiz-adv-x="501" 
d="M505 535l-170 -505c-55 -163 -120 -247 -258 -247c-40 0 -87 9 -131 29l38 129c22 -13 57 -21 83 -21c60 0 76 27 110 109l-191 506h169l99 -324l95 324h156zM185 750h138l103 -158h-123l-49 71l-49 -71h-123z" />
    <glyph glyph-name="ydieresis" unicode="&#xff;" horiz-adv-x="501" 
d="M505 535l-170 -505c-55 -163 -120 -247 -258 -247c-40 0 -87 9 -131 29l38 129c22 -13 57 -21 83 -21c60 0 76 27 110 109l-191 506h169l99 -324l95 324h156zM106 736h121v-129h-121v129zM281 736h121v-129h-121v129z" />
    <glyph glyph-name="zacute" unicode="&#x17a;" horiz-adv-x="471" 
d="M33 536h410v-103l-215 -307h218v-126h-417v97l214 312h-210v127zM264 750h157l-118 -158h-129z" />
    <glyph glyph-name="zcaron" unicode="&#x17e;" horiz-adv-x="471" 
d="M33 536h410v-103l-215 -307h218v-126h-417v97l214 312h-210v127zM314 592h-138l-103 158h123l49 -71l49 71h123z" />
    <glyph glyph-name="zdotaccent" unicode="&#x17c;" horiz-adv-x="471" 
d="M33 536h410v-103l-215 -307h218v-126h-417v97l214 312h-210v127zM177 736h129v-129h-129v129z" />
    <glyph glyph-name="eng" unicode="&#x14b;" horiz-adv-x="574" 
d="M189 535v-58c41 39 100 73 175 73c97 0 156 -51 156 -170v-437c0 -110 -74 -155 -159 -155c-39 0 -80 10 -117 27l15 126c18 -6 38 -13 56 -13c24 0 44 13 44 49v358c0 41 -27 56 -66 56c-23 0 -50 -8 -71 -16v-375h-161v535h128z" />
    <glyph glyph-name="eth" unicode="&#xf0;" horiz-adv-x="542" 
d="M512 281c0 -199 -90 -295 -242 -295s-241 84 -241 281c0 196 87 283 241 283c18 0 32 -4 45 -9c-10 23 -21 42 -34 62l-169 -21v67l132 16c-21 31 -44 58 -65 81c52 1 104 2 156 4c17 -20 35 -42 51 -67c40 6 79 11 118 16v-67c-27 -3 -54 -7 -81 -11
c49 -90 89 -194 89 -340zM270 425c-51 0 -77 -40 -77 -158s26 -157 77 -157c52 0 78 39 78 156c0 119 -26 159 -78 159z" />
    <glyph glyph-name="thorn" unicode="&#xfe;" horiz-adv-x="568" 
d="M309 -14c-25 0 -62 6 -87 15v-203l-161 -28v960l161 20v-250c34 27 78 50 135 50c103 0 181 -54 181 -273c0 -214 -94 -291 -229 -291zM222 391v-258c23 -11 43 -16 66 -16c45 0 80 29 80 160c0 119 -35 130 -78 130c-25 0 -44 -6 -68 -16z" />
    <glyph glyph-name="f_f" unicode="&#xfb00;" horiz-adv-x="630" 
d="M78 535v35c0 143 94 201 216 201c22 0 40 -1 62 -5l-11 -130c-11 3 -22 5 -34 5c-41 0 -72 -16 -72 -65v-41h139v35c0 142 92 201 217 201c43 0 94 -7 131 -20l-27 -127c-20 7 -56 17 -88 17c-40 0 -72 -20 -72 -65v-41h136c-7 -41 -12 -82 -18 -124h-118v-458
c0 -116 -68 -165 -159 -165c-33 0 -67 8 -99 20l16 129c13 -5 25 -9 38 -9c24 0 43 13 43 49v434h-139v-458c0 -116 -67 -165 -158 -165c-40 0 -81 10 -117 27l15 126c18 -6 37 -13 55 -13c24 0 44 13 44 49v434h-66v124h66z" />
    <glyph glyph-name="f_f_i" unicode="&#xfb03;" horiz-adv-x="899" 
d="M78 535v35c0 143 94 201 216 201c22 0 40 -1 62 -5l-11 -130c-11 3 -22 5 -34 5c-41 0 -72 -16 -72 -65v-41h139v35c0 142 90 202 213 202c29 0 40 -1 65 -6l-12 -130c-11 3 -22 5 -33 5c-42 0 -72 -16 -72 -65v-41h299v-535h-161v411h-138v-457
c0 -116 -67 -166 -159 -166c-33 0 -67 8 -99 20l16 129c13 -5 25 -9 38 -9c24 0 43 13 43 49v434h-139v-457c0 -116 -66 -166 -158 -166c-40 0 -81 10 -117 27l15 126c18 -7 37 -13 55 -13c24 0 44 13 44 49v434h-66v124h66zM677 740h161v-141h-161v141z" />
    <glyph glyph-name="f_f_l" unicode="&#xfb04;" horiz-adv-x="919" 
d="M78 535v35c0 143 94 201 216 201c22 0 40 -1 62 -5l-11 -130c-11 3 -22 5 -34 5c-41 0 -72 -16 -72 -65v-41h139v35c0 142 90 202 213 202c29 0 42 -2 65 -6l-12 -130c-11 3 -22 5 -33 5c-40 0 -72 -20 -72 -65v-41h99l-10 -124h-89v-447c0 -130 -71 -175 -168 -175
c-30 0 -61 7 -90 19l16 129c13 -5 25 -9 38 -9c24 0 43 13 43 49v434h-139v-458c0 -116 -67 -165 -158 -165c-38 0 -81 9 -117 27l15 126c18 -7 37 -13 55 -13c24 0 44 13 44 49v434h-66v124h66zM675 730l161 20v-578c0 -29 16 -40 38 -40c20 0 32 4 49 12l4 -130
c-39 -22 -71 -28 -114 -28c-96 0 -138 62 -138 172v572z" />
    <glyph glyph-name="ampersand" unicode="&#x26;" horiz-adv-x="585" 
d="M563 339v-14c0 -64 -17 -130 -39 -166l164 -159h-194l-56 52c-43 -41 -107 -66 -184 -66c-181 0 -252 93 -252 209c0 79 42 144 119 182c-41 47 -62 93 -62 150c0 109 77 187 207 187c156 0 213 -91 213 -184c0 -80 -51 -140 -132 -183l76 -79c6 16 10 37 10 56v15h130z
M216 278c-29 -20 -49 -42 -49 -79c0 -52 42 -78 91 -78c30 0 57 10 77 31zM253 441c54 27 73 52 73 87c0 38 -18 61 -61 61c-17 0 -53 -12 -53 -57c0 -40 17 -62 41 -91z" />
    <glyph glyph-name="grave" unicode="`" horiz-adv-x="500" 
d="M88 750h156l90 -158h-128z" />
    <glyph glyph-name="acute" unicode="&#xb4;" horiz-adv-x="500" 
d="M240 750h157l-118 -158h-129z" />
    <glyph glyph-name="circumflex" unicode="&#x2c6;" horiz-adv-x="500" 
d="M181 750h138l103 -158h-123l-49 71l-49 -71h-123z" />
    <glyph glyph-name="caron" unicode="&#x2c7;" horiz-adv-x="500" 
d="M319 592h-138l-103 158h123l49 -71l49 71h123z" />
    <glyph glyph-name="tilde" unicode="&#x2dc;" horiz-adv-x="500" 
d="M174 597l-94 34c12 57 40 106 102 106c42 0 87 -30 112 -30c19 0 24 9 32 38l95 -35c-21 -76 -58 -110 -113 -110c-34 0 -78 31 -104 31c-18 0 -22 -10 -30 -34z" />
    <glyph glyph-name="dieresis" unicode="&#xa8;" horiz-adv-x="500" 
d="M102 736h121v-129h-121v129zM277 736h121v-129h-121v129z" />
    <glyph glyph-name="macron" unicode="&#xaf;" horiz-adv-x="500" 
d="M389 617h-289v108h289v-108z" />
    <glyph glyph-name="breve" unicode="&#x2d8;" horiz-adv-x="500" 
d="M250 594c-99 0 -153 59 -155 154h102c2 -42 28 -55 53 -55s51 13 53 55h102c-2 -95 -56 -154 -155 -154z" />
    <glyph glyph-name="ring" unicode="&#x2da;" horiz-adv-x="500" 
d="M363 671c0 -55 -45 -97 -113 -97s-113 42 -113 97s45 97 113 97s113 -42 113 -97zM283 671c0 21 -11 32 -33 32c-23 0 -34 -11 -34 -32s11 -32 34 -32c22 0 33 11 33 32z" />
    <glyph glyph-name="hungarumlaut" unicode="&#x2dd;" horiz-adv-x="500" 
d="M137 750h143l-78 -158h-98zM331 750h153l-121 -158h-108z" />
    <glyph glyph-name="dotaccent" unicode="&#x2d9;" horiz-adv-x="500" 
d="M185 736h129v-129h-129v129z" />
    <glyph glyph-name="cedilla" unicode="&#xb8;" horiz-adv-x="500" 
d="M199 0h126c19 -23 27 -59 27 -85c0 -69 -55 -120 -133 -120c-60 0 -118 26 -143 68l63 67c17 -21 36 -27 50 -27c23 0 34 10 34 36c0 20 -10 41 -24 61z" />
    <glyph glyph-name="ogonek" unicode="&#x2db;" horiz-adv-x="500" 
d="M194 0h138c-35 -20 -58 -46 -58 -71c0 -17 12 -26 28 -26c12 0 26 6 37 20l63 -70c-30 -41 -78 -62 -133 -62c-68 0 -125 35 -125 107c0 38 19 81 50 102z" />
    <glyph glyph-name="comma" unicode="," horiz-adv-x="241" 
d="M55 160h172l-109 -292h-132z" />
    <glyph glyph-name="semicolon" unicode=";" horiz-adv-x="241" 
d="M38 536h163v-160h-163v160zM55 160h172l-108 -292h-133z" />
    <glyph glyph-name="colon" unicode=":" horiz-adv-x="241" 
d="M39 160h163v-160h-163v160zM39 536h163v-160h-163v160z" />
    <glyph glyph-name="period" unicode="." horiz-adv-x="241" 
d="M39 160h163v-160h-163v160z" />
    <glyph glyph-name="ellipsis" unicode="&#x2026;" horiz-adv-x="786" 
d="M39 160h163v-160h-163v160zM311 160h163v-160h-163v160zM584 160h163v-160h-163v160z" />
    <glyph glyph-name="hyphen" unicode="-" horiz-adv-x="405" 
d="M346 400v-135h-287v135h287z" />
    <glyph glyph-name="exclam" unicode="!" horiz-adv-x="310" 
d="M67 700h175l-13 -477h-149zM73 160h163v-160h-163v160z" />
    <glyph glyph-name="exclamdown" unicode="&#xa1;" horiz-adv-x="310" 
d="M242 -165h-175l13 477h149zM236 375h-163v160h163v-160z" />
    <glyph glyph-name="question" unicode="?" horiz-adv-x="474" 
d="M302 223h-153c2 114 19 139 99 212c25 23 44 46 44 82c0 27 -19 50 -56 50c-43 0 -66 -34 -67 -72c-51 9 -101 20 -152 29c5 110 76 190 228 190c135 0 212 -81 212 -187c0 -79 -39 -124 -87 -172c-50 -50 -68 -59 -68 -132zM144 160h163v-160h-163v160z" />
    <glyph glyph-name="questiondown" unicode="&#xbf;" horiz-adv-x="474" 
d="M172 312h153c-2 -114 -19 -139 -99 -212c-25 -23 -44 -46 -44 -82c0 -27 19 -50 56 -50c43 0 66 34 67 72c51 -9 101 -20 152 -29c-5 -110 -76 -190 -228 -190c-135 0 -212 81 -212 187c0 79 39 124 87 172c50 50 68 59 68 132zM330 375h-163v160h163v-160z" />
    <glyph glyph-name="quoteleft" unicode="&#x2018;" horiz-adv-x="241" 
d="M177 463h-156l76 237h123z" />
    <glyph glyph-name="quoteright" unicode="&#x2019;" horiz-adv-x="241" 
d="M64 700h156l-76 -237h-123z" />
    <glyph glyph-name="quotedblleft" unicode="&#x201c;" horiz-adv-x="459" 
d="M160 463h-157l111 237h124zM398 463h-157l76 237h123z" />
    <glyph glyph-name="quotedblright" unicode="&#x201d;" horiz-adv-x="459" 
d="M299 700h157l-112 -237h-123zM61 700h157l-76 -237h-123z" />
    <glyph glyph-name="quotesinglbase" unicode="&#x201a;" horiz-adv-x="241" 
d="M64 78h156l-76 -237h-123z" />
    <glyph glyph-name="quotedblbase" unicode="&#x201e;" horiz-adv-x="459" 
d="M299 78h157l-112 -237h-123zM61 78h157l-76 -237h-123z" />
    <glyph glyph-name="guilsinglleft" unicode="&#x2039;" horiz-adv-x="351" 
d="M340 62h-157l-172 236l172 238h157l-156 -238z" />
    <glyph glyph-name="guilsinglright" unicode="&#x203a;" horiz-adv-x="351" 
d="M168 62h-157l156 236l-156 238h157l172 -238z" />
    <glyph glyph-name="guillemotleft" unicode="&#xab;" horiz-adv-x="627" 
d="M616 62h-157l-172 236l172 238h157l-156 -238zM340 62h-157l-172 236l172 238h157l-156 -238z" />
    <glyph glyph-name="guillemotright" unicode="&#xbb;" horiz-adv-x="627" 
d="M444 62h-157l156 236l-156 238h157l172 -238zM168 62h-157l156 236l-156 238h157l172 -238z" />
    <glyph glyph-name="slash" unicode="/" horiz-adv-x="398" 
d="M257 700h138l-255 -700h-137z" />
    <glyph glyph-name="bar" unicode="|" horiz-adv-x="282" 
d="M69 750h144v-980h-144v980z" />
    <glyph glyph-name="endash" unicode="&#x2013;" horiz-adv-x="545" 
d="M486 400v-135h-427v135h427z" />
    <glyph glyph-name="emdash" unicode="&#x2014;" horiz-adv-x="924" 
d="M865 400v-135h-806v135h806z" />
    <glyph glyph-name="bullet" unicode="&#x2022;" horiz-adv-x="384" 
d="M42 333c0 83 66 150 150 150c83 0 150 -67 150 -150s-67 -150 -150 -150c-84 0 -150 67 -150 150z" />
    <glyph glyph-name="periodcentered" unicode="&#xb7;" horiz-adv-x="241" 
d="M39 413h163v-160h-163v160z" />
    <glyph glyph-name="parenleft" unicode="(" horiz-adv-x="343" 
d="M22 254c0 229 91 402 174 496h159c-96 -100 -190 -288 -190 -495s94 -395 190 -495h-159c-83 94 -174 267 -174 494z" />
    <glyph glyph-name="parenright" unicode=")" horiz-adv-x="343" 
d="M321 254c0 -227 -91 -400 -174 -494h-159c96 100 190 288 190 495s-94 395 -190 495h159c83 -94 174 -267 174 -496z" />
    <glyph glyph-name="bracketleft" unicode="[" horiz-adv-x="320" 
d="M69 750h233v-121h-92v-739h92v-120h-233v980z" />
    <glyph glyph-name="bracketright" unicode="]" horiz-adv-x="320" 
d="M17 750h233v-980h-233v120h92v739h-92v121z" />
    <glyph glyph-name="braceleft" unicode="{" horiz-adv-x="361" 
d="M13 325c48 0 81 11 81 57v219c0 111 59 162 158 162c38 0 74 -5 106 -20l-24 -116c-14 6 -36 12 -55 12c-24 0 -43 -11 -43 -43v-233c0 -46 -26 -88 -72 -103c46 -14 72 -56 72 -102v-234c0 -31 18 -42 43 -42c18 0 39 5 55 12l24 -117c-31 -13 -65 -20 -99 -20
c-85 0 -165 45 -165 154v228c0 46 -33 55 -81 55v131z" />
    <glyph glyph-name="braceright" unicode="}" horiz-adv-x="361" 
d="M348 325v-131c-48 0 -81 -9 -81 -55v-228c0 -109 -80 -154 -165 -154c-34 0 -68 7 -99 20l24 117c16 -7 37 -12 55 -12c25 0 43 11 43 42v234c0 46 26 88 72 102c-46 15 -72 57 -72 103v233c0 32 -19 43 -43 43c-19 0 -41 -6 -55 -12l-24 116c32 15 68 20 106 20
c99 0 158 -51 158 -162v-219c0 -46 33 -57 81 -57z" />
    <glyph glyph-name="asterisk" unicode="*" horiz-adv-x="449" 
d="M320 514l106 -55l-50 -87l-106 69l3 -109h-98l4 109l-106 -68l-50 85l104 57l-104 58l50 85l106 -67l-4 109h98l-2 -109l105 66l49 -84z" />
    <glyph glyph-name="dagger" unicode="&#x2020;" horiz-adv-x="420" 
d="M403 608v-104h-119v-247h-144v247h-123v104h123v92h144v-92h119z" />
    <glyph glyph-name="daggerdbl" unicode="&#x2021;" horiz-adv-x="420" 
d="M284 342v-85h-144v85h-103v104h103v58h-123v104h123v92h144v-92h119v-104h-119v-58h99v-104h-99z" />
    <glyph glyph-name="section" unicode="&#xa7;" horiz-adv-x="543" 
d="M513 520l-152 -19c-2 44 -19 83 -67 83c-30 0 -57 -14 -57 -50c0 -96 282 -110 282 -280c0 -56 -18 -97 -49 -124c5 -13 9 -25 9 -40c0 -128 -92 -191 -232 -191c-90 0 -161 36 -217 90l63 123c45 -47 98 -81 152 -81c31 0 59 14 59 44c0 76 -276 94 -276 286
c0 53 18 92 49 119c-6 14 -9 30 -9 46c0 120 91 188 218 188c169 0 220 -106 227 -194zM166 403c-9 -11 -11 -28 -11 -38c0 -61 119 -87 223 -159c5 9 8 24 8 33c0 62 -121 75 -220 164z" />
    <glyph glyph-name="paragraph" unicode="&#xb6;" horiz-adv-x="722" 
d="M652 700v-802h-117v666h-97v-666h-117v325c-13 -3 -30 -4 -51 -4c-159 0 -246 75 -246 249c0 160 74 232 257 232h371zM321 356v208h-40c-70 0 -99 -21 -99 -107c0 -83 38 -103 106 -103c16 0 25 1 33 2z" />
    <glyph glyph-name="uni0410" unicode="&#x410;" horiz-adv-x="570" 
d="M417 0l-35 129h-216l-35 -129h-143l203 700h189l202 -700h-165zM273 535l-73 -273h147z" />
    <glyph glyph-name="uni0411" unicode="&#x411;" horiz-adv-x="571" 
d="M284 0h-215v700h412v-143h-253v-111c16 4 40 6 66 6c153 0 246 -55 246 -218c0 -159 -73 -234 -256 -234zM228 322v-190h56c70 0 99 22 99 101c0 74 -38 93 -106 93c-20 0 -39 -1 -49 -4z" />
    <glyph glyph-name="uni0412" unicode="&#x412;" horiz-adv-x="585" 
d="M228 287v-149h64c62 0 92 20 92 73c0 57 -28 76 -92 76h-64zM228 561v-142h63c50 0 80 18 80 74c0 64 -36 68 -85 68h-58zM69 700h222c152 0 245 -41 245 -178c0 -76 -36 -139 -103 -165c80 -18 124 -65 124 -156c0 -145 -89 -201 -262 -201h-226v700z" />
    <glyph glyph-name="uni0413" unicode="&#x413;" horiz-adv-x="485" 
d="M69 700h394v-143h-235v-557h-159v700z" />
    <glyph glyph-name="uni0414" unicode="&#x414;" horiz-adv-x="650" 
d="M19 -154l-8 297h53c46 94 51 214 51 335v222h465v-557h51l-9 -297h-132l-17 154h-304l-17 -154h-133zM267 567v-91c0 -165 -15 -263 -45 -333h199v424h-154z" />
    <glyph glyph-name="uni0415" unicode="&#x415;" horiz-adv-x="533" 
d="M69 700h403v-143h-244v-139h232v-135h-232v-140h258v-143h-417v700z" />
    <glyph glyph-name="uni0416" unicode="&#x416;" horiz-adv-x="931" 
d="M386 700h159v-280h15l190 280h172l-218 -302c51 -11 75 -41 93 -92l47 -137c26 -76 48 -117 82 -169h-185c-26 38 -40 84 -61 151c-31 101 -32 132 -103 132h-32v-283h-159v283h-32c-71 0 -72 -31 -103 -132c-21 -67 -35 -113 -61 -151h-185c34 52 56 93 82 169l47 137
c18 51 42 81 93 92l-218 302h172l190 -280h15v280z" />
    <glyph glyph-name="uni0417" unicode="&#x417;" horiz-adv-x="535" 
d="M254 714c147 0 237 -75 237 -200c0 -60 -23 -116 -93 -147c81 -24 107 -89 107 -167c0 -145 -104 -214 -243 -214c-107 0 -186 40 -241 95l69 126c46 -48 105 -75 161 -75c50 0 87 21 87 69c0 53 -25 76 -82 76h-92v139h78c51 0 76 31 76 80c0 38 -17 72 -66 72
c-45 0 -72 -25 -73 -84l-159 20c6 111 75 210 234 210z" />
    <glyph glyph-name="uni0418" unicode="&#x418;" horiz-adv-x="690" 
d="M231 0h-162v700h155v-415l240 415h162v-700h-156v424z" />
    <glyph glyph-name="uni0419" unicode="&#x419;" horiz-adv-x="695" 
d="M69 0h162l239 424v-424h156v700h-162l-240 -415v415h-155v-700zM345 767c-99 0 -153 59 -155 154h102c2 -42 28 -55 53 -55s51 13 53 55h102c-2 -95 -56 -154 -155 -154z" />
    <glyph glyph-name="uni041A" unicode="&#x41a;" horiz-adv-x="614" 
d="M69 700h159v-280h15l190 280h172l-218 -302c51 -11 75 -41 93 -92l47 -137c26 -76 48 -117 82 -169h-185c-26 38 -40 84 -61 151c-31 101 -32 132 -103 132h-32v-283h-159v700z" />
    <glyph glyph-name="uni041B" unicode="&#x41b;" horiz-adv-x="631" 
d="M117 700h445v-700h-159v557h-133l-15 -281c-7 -135 -21 -276 -205 -276h-50v143h30c53 0 62 45 66 132z" />
    <glyph glyph-name="uni041C" unicode="&#x41c;" horiz-adv-x="849" 
d="M104 700h181l140 -422l138 422h181l63 -700h-160l-32 421l-120 -365h-143l-119 365l-32 -421h-160z" />
    <glyph glyph-name="uni041D" unicode="&#x41d;" horiz-adv-x="675" 
d="M69 700h159v-276h222v276h158v-700h-158v272h-222v-272h-159v700z" />
    <glyph glyph-name="uni041E" unicode="&#x41e;" horiz-adv-x="623" 
d="M311 714c160 0 284 -96 284 -365c0 -268 -125 -363 -285 -363c-158 0 -282 95 -282 363c0 269 125 365 283 365zM311 568c-70 0 -124 -44 -124 -218c0 -173 54 -218 124 -218c71 0 116 45 116 218c0 174 -45 218 -116 218z" />
    <glyph glyph-name="uni041F" unicode="&#x41f;" horiz-adv-x="677" 
d="M69 700h539v-700h-158v557h-222v-557h-159v700z" />
    <glyph glyph-name="uni0420" unicode="&#x420;" horiz-adv-x="560" 
d="M228 565v-207c10 -2 20 -4 41 -4c68 0 106 21 106 103c0 87 -29 108 -99 108h-48zM69 700h207c183 0 256 -51 256 -232c0 -173 -86 -249 -245 -249c-27 0 -44 2 -59 5v-224h-159v700z" />
    <glyph glyph-name="uni0421" unicode="&#x421;" horiz-adv-x="549" 
d="M545 478l-154 -13c-2 62 -25 103 -82 103c-85 0 -118 -60 -118 -213c0 -180 66 -223 155 -223c65 0 121 22 172 50l17 -137c-53 -30 -117 -59 -212 -59c-182 0 -295 107 -295 369c0 252 98 359 282 359c144 0 234 -75 235 -236z" />
    <glyph glyph-name="uni0422" unicode="&#x422;" horiz-adv-x="545" 
d="M17 700h511v-143h-176v-557h-159v557h-176v143z" />
    <glyph glyph-name="uni0423" unicode="&#x423;" horiz-adv-x="595" 
d="M0 700h175l141 -300l127 300h152l-195 -489c-58 -144 -112 -211 -321 -211v132c93 0 116 15 139 71l9 22z" />
    <glyph glyph-name="uni0424" unicode="&#x424;" horiz-adv-x="701" 
d="M18 348c0 201 112 292 274 305v61h118v-62c161 -13 273 -104 273 -304c0 -199 -112 -289 -273 -302v-60h-118v60c-162 12 -274 103 -274 302zM177 349c0 -122 50 -162 115 -177v355c-65 -15 -115 -56 -115 -178zM524 349c0 122 -50 162 -114 178v-355
c64 16 114 56 114 177z" />
    <glyph glyph-name="uni0425" unicode="&#x425;" horiz-adv-x="564" 
d="M-2 700h183l116 -216l115 216h169l-198 -343l206 -357h-185l-120 217l-121 -217h-169l198 346z" />
    <glyph glyph-name="uni0426" unicode="&#x426;" horiz-adv-x="690" 
d="M533 0h-464v700h159v-557h222v557h158v-557h72l-9 -297h-121z" />
    <glyph glyph-name="uni0427" unicode="&#x427;" horiz-adv-x="646" 
d="M422 0v261c-30 -11 -72 -22 -112 -22c-187 0 -253 105 -253 260v201h158v-197c0 -79 35 -117 104 -117c37 0 71 5 103 21v293h158v-700h-158z" />
    <glyph glyph-name="uni0428" unicode="&#x428;" horiz-adv-x="954" 
d="M885 0h-816v700h159v-557h169v557h159v-557h170v557h159v-700z" />
    <glyph glyph-name="uni0429" unicode="&#x429;" horiz-adv-x="954" 
d="M809 0h-740v700h159v-557h169v557h159v-557h170v557h159v-557h71l-7 -297h-124z" />
    <glyph glyph-name="uni042A" unicode="&#x42a;" horiz-adv-x="630" 
d="M17 557v143h277v-225c23 3 46 5 68 5c143 0 244 -69 244 -241c0 -160 -81 -239 -264 -239h-207v557h-118zM294 342v-210h49c70 0 107 25 107 110c0 83 -46 103 -114 103c-21 0 -31 -2 -42 -3z" />
    <glyph glyph-name="uni042B" unicode="&#x42b;" horiz-adv-x="855" 
d="M627 700h159v-700h-159v700zM228 342v-210h49c70 0 107 25 107 110c0 83 -46 103 -114 103c-21 0 -31 -2 -42 -3zM69 0v700h159v-225c24 4 46 5 68 5c143 0 244 -69 244 -241c0 -160 -81 -239 -264 -239h-207z" />
    <glyph glyph-name="uni042C" unicode="&#x42c;" horiz-adv-x="564" 
d="M228 342v-210h49c70 0 107 25 107 110c0 83 -46 103 -114 103c-21 0 -31 -2 -42 -3zM69 0v700h159v-225c24 4 46 5 68 5c143 0 244 -69 244 -241c0 -160 -81 -239 -264 -239h-207z" />
    <glyph glyph-name="uni042D" unicode="&#x42d;" horiz-adv-x="567" 
d="M182 465l-154 13c1 161 101 236 245 236c184 0 272 -107 272 -359c0 -262 -113 -369 -295 -369c-95 0 -159 29 -212 59l17 137c51 -28 107 -50 172 -50c75 0 133 30 150 145h-231v129h235c-7 115 -32 162 -107 162c-57 0 -90 -41 -92 -103z" />
    <glyph glyph-name="uni042E" unicode="&#x42e;" horiz-adv-x="929" 
d="M618 714c160 0 283 -96 283 -365c0 -268 -124 -363 -284 -363c-141 0 -255 77 -277 286h-112v-272h-159v700h159v-276h111c21 212 137 290 279 290zM618 568c-70 0 -124 -44 -124 -218c0 -173 54 -218 124 -218c71 0 115 45 115 218c0 174 -44 218 -115 218z" />
    <glyph glyph-name="uni042F" unicode="&#x42f;" horiz-adv-x="583" 
d="M166 319c-62 16 -129 54 -129 165c0 173 111 216 263 216h214v-700h-159v259h-26c-62 0 -70 -30 -95 -106c-26 -81 -34 -113 -53 -153h-182c36 56 49 106 73 174c38 106 52 129 94 145zM301 393h54v171h-55c-68 0 -98 -22 -98 -88c0 -62 37 -83 99 -83z" />
    <glyph glyph-name="uni0403" unicode="&#x403;" horiz-adv-x="485" 
d="M279 914h157l-118 -158h-129zM69 700h394v-143h-235v-557h-159v700z" />
    <glyph glyph-name="uni0490" unicode="&#x490;" horiz-adv-x="521" 
d="M69 700h282l17 142h131v-285h-271v-557h-159v700z" />
    <glyph glyph-name="uni0402" unicode="&#x402;" horiz-adv-x="728" 
d="M17 700h571v-132h-236v-139c35 13 68 25 133 25c158 0 213 -78 213 -249v-27c0 -157 -52 -229 -156 -292l-82 90c55 46 79 98 79 201v23c0 72 -27 110 -90 110c-36 0 -65 -7 -97 -24v-286h-158v568h-177v132z" />
    <glyph glyph-name="uni0404" unicode="&#x404;" horiz-adv-x="567" 
d="M545 478l-154 -13c-2 62 -25 103 -82 103c-75 0 -110 -47 -117 -162h235v-129h-231c17 -115 75 -145 150 -145c65 0 121 22 172 50l17 -137c-53 -30 -117 -59 -212 -59c-182 0 -295 107 -295 369c0 252 98 359 282 359c144 0 234 -75 235 -236z" />
    <glyph glyph-name="uni0405" unicode="&#x405;" horiz-adv-x="542" 
d="M503 494l-155 -21c-4 57 -20 95 -81 95c-42 0 -70 -19 -70 -56c0 -116 305 -112 305 -318c0 -131 -84 -208 -239 -208c-107 0 -186 45 -240 98l69 126c50 -52 113 -78 173 -78c48 0 74 14 74 49c0 102 -304 95 -304 323c0 132 101 210 233 210c185 0 228 -116 235 -220z
" />
    <glyph glyph-name="uni0400" unicode="&#x400;" horiz-adv-x="526" 
d="M69 700h403v-143h-244v-139h232v-135h-232v-140h258v-143h-417v700zM101 912h156l90 -158h-128z" />
    <glyph glyph-name="uni0401" unicode="&#x401;" horiz-adv-x="526" 
d="M69 700h403v-143h-244v-139h232v-135h-232v-140h258v-143h-417v700zM122 897h121v-129h-121v129zM297 897h121v-129h-121v129z" />
    <glyph glyph-name="uni0406" unicode="&#x406;" horiz-adv-x="297" 
d="M69 700h159v-700h-159v700z" />
    <glyph glyph-name="uni0407" unicode="&#x407;" horiz-adv-x="297" 
d="M69 700h159v-700h-159v700zM0 897h121v-129h-121v129zM175 897h121v-129h-121v129z" />
    <glyph glyph-name="uni0408" unicode="&#x408;" horiz-adv-x="316" 
d="M96 700h159v-541c0 -110 -65 -173 -158 -173c-40 0 -77 7 -110 24l21 135c11 -6 33 -13 49 -13c24 0 39 10 39 46v522z" />
    <glyph glyph-name="uni040D" unicode="&#x40d;" horiz-adv-x="695" 
d="M69 0h162l239 424v-424h156v700h-162l-240 -415v415h-155v-700zM173 912h156l90 -158h-128z" />
    <glyph glyph-name="uni040C" unicode="&#x40c;" horiz-adv-x="614" 
d="M344 914h157l-118 -158h-129zM69 700h159v-280h15l190 280h172l-218 -302c51 -11 75 -41 93 -92l47 -137c26 -76 48 -117 82 -169h-185c-26 38 -40 84 -61 151c-31 101 -32 132 -103 132h-32v-283h-159v700z" />
    <glyph glyph-name="uni0409" unicode="&#x409;" horiz-adv-x="896" 
d="M401 0v557h-133l-14 -266c-7 -140 -19 -291 -206 -291h-49v145h30c52 0 61 43 65 130l21 425h445v-225c24 4 46 5 68 5c143 0 244 -69 244 -241c0 -160 -81 -239 -264 -239h-207zM560 342v-210h49c70 0 107 25 107 110c0 83 -46 103 -114 103c-21 0 -31 -2 -42 -3z" />
    <glyph glyph-name="uni040A" unicode="&#x40a;" horiz-adv-x="914" 
d="M419 0v294h-191v-294h-159v700h159v-254h191v254h159v-225c24 4 46 5 68 5c143 0 244 -69 244 -241c0 -160 -81 -239 -264 -239h-207zM578 342v-210h49c70 0 107 25 107 110c0 83 -46 103 -114 103c-21 0 -31 -2 -42 -3z" />
    <glyph glyph-name="uni040B" unicode="&#x40b;" horiz-adv-x="745" 
d="M16 700h557v-132h-222v-139c35 13 68 25 133 25c159 0 213 -79 213 -250v-204h-159v196c0 79 -23 114 -90 114c-36 0 -65 -7 -97 -24v-286h-158v568h-177v132z" />
    <glyph glyph-name="uni040E" unicode="&#x40e;" horiz-adv-x="595" 
d="M307 755c-99 0 -153 59 -155 154h102c2 -42 28 -55 53 -55s51 13 53 55h102c-2 -95 -56 -154 -155 -154zM0 700h175l141 -300l127 300h152l-195 -489c-58 -144 -112 -211 -321 -211v132c93 0 116 15 139 71l9 22z" />
    <glyph glyph-name="uni040F" unicode="&#x40f;" horiz-adv-x="677" 
d="M265 0h-196v700h158v-548h222v548h159v-700h-196l-6 -154h-136z" />
    <glyph glyph-name="uni0462" unicode="&#x462;" horiz-adv-x="621" 
d="M0 534v103h137v63h159v-63h186v-103h-186v-101c10 0 22 1 36 1c169 0 265 -42 265 -209c0 -153 -70 -225 -247 -225h-213v534h-137zM296 306v-173h54c64 0 91 18 91 91c0 70 -38 85 -100 85c-18 0 -36 -1 -45 -3z" />
    <glyph glyph-name="uni0472" unicode="&#x472;" horiz-adv-x="623" 
d="M311 714c160 0 284 -96 284 -365c0 -268 -125 -363 -285 -363c-158 0 -282 95 -282 363c0 269 125 365 283 365zM311 132c61 0 103 33 113 152h-234c12 -119 61 -152 121 -152zM311 568c-60 0 -108 -32 -121 -147h234c-12 115 -53 147 -113 147z" />
    <glyph glyph-name="uni0474" unicode="&#x474;" horiz-adv-x="600" 
d="M5 700h175l132 -505l131 505h152l-195 -700h-186z" />
    <glyph glyph-name="uni0430" unicode="&#x430;" horiz-adv-x="549" 
d="M294 144v86c-61 -1 -116 -19 -116 -66c0 -31 18 -48 49 -48c26 0 45 11 67 28zM294 329v36c0 40 -17 56 -52 56c-38 0 -56 -20 -56 -61l-141 12c6 118 93 178 206 178c140 0 204 -69 204 -168v-231c0 -21 11 -32 27 -32c19 0 33 6 56 20l7 -110c-27 -27 -72 -44 -118 -44
c-40 0 -96 21 -103 77c-40 -53 -101 -77 -159 -77c-78 0 -139 48 -139 152c0 127 103 188 268 192z" />
    <glyph glyph-name="uni0431" unicode="&#x431;" horiz-adv-x="542" 
d="M311 535c138 0 201 -87 201 -269c0 -192 -90 -280 -242 -280c-173 0 -243 134 -243 360c0 183 34 276 106 338c90 77 236 66 341 87v-126c-114 -27 -201 -4 -263 -58c-31 -28 -49 -68 -51 -122c26 42 78 70 151 70zM270 413c-51 0 -78 -31 -78 -146
c0 -118 27 -157 78 -157c52 0 78 39 78 156c0 115 -26 147 -78 147z" />
    <glyph glyph-name="uni0432" unicode="&#x432;" horiz-adv-x="553" 
d="M222 222v-121h51c57 0 74 21 74 62c0 42 -16 59 -74 59h-51zM222 435v-117h50c45 0 66 19 66 61c0 48 -27 56 -71 56h-45zM61 535h209c150 0 233 -23 233 -136c0 -68 -39 -106 -102 -125c75 -12 122 -45 122 -120c0 -111 -70 -154 -250 -154h-212v535z" />
    <glyph glyph-name="uni0433" unicode="&#x433;" horiz-adv-x="408" 
d="M61 535h332v-135h-171v-400h-161v535z" />
    <glyph glyph-name="uni0434" unicode="&#x434;" horiz-adv-x="576" 
d="M11 -134l-4 269h50c25 38 39 103 42 174l10 226h397v-400h56l-5 -269h-129l-6 134h-275l-6 -134h-130zM242 412l-5 -107c-3 -70 -14 -134 -32 -170h140v277h-103z" />
    <glyph glyph-name="uni0435" unicode="&#x435;" horiz-adv-x="499" 
d="M465 222h-268c6 -84 44 -111 103 -111c50 0 108 26 144 50l14 -119c-58 -31 -107 -56 -197 -56c-138 0 -232 79 -232 278c0 200 85 286 232 286c149 0 204 -95 204 -234v-94zM197 321h118c0 71 -13 100 -58 100c-46 0 -58 -33 -60 -100z" />
    <glyph glyph-name="uni0436" unicode="&#x436;" horiz-adv-x="809" 
d="M484 208v-208h-160v208h-35c-43 0 -56 -16 -73 -75c-11 -37 -25 -91 -44 -133h-172c35 68 56 136 75 191c20 58 42 102 104 117l-176 227h184l120 -207h17v207h160v-207h17l120 207h184l-176 -227c62 -15 84 -59 104 -117c19 -55 40 -123 75 -191h-172
c-19 42 -33 96 -44 133c-17 59 -30 75 -73 75h-35z" />
    <glyph glyph-name="uni0437" unicode="&#x437;" horiz-adv-x="487" 
d="M450 394c0 -76 -50 -117 -104 -131c57 -9 111 -46 111 -121c0 -111 -91 -157 -212 -157c-95 0 -158 14 -216 47l15 118c38 -27 112 -45 162 -45c49 0 79 15 79 53c0 36 -28 50 -71 50h-97v105h101c53 0 70 31 70 63c0 43 -28 54 -56 54c-47 0 -63 -27 -63 -65
c-47 5 -95 8 -141 13c0 115 73 172 205 172c129 0 217 -45 217 -156z" />
    <glyph glyph-name="uni0438" unicode="&#x438;" horiz-adv-x="590" 
d="M368 535h161v-535h-161v288l-146 -288h-164l3 23v512h161v-311z" />
    <glyph glyph-name="uni0439" unicode="&#x439;" horiz-adv-x="590" 
d="M291 594c-99 0 -153 59 -155 154h102c2 -42 28 -55 53 -55s51 13 53 55h102c-2 -95 -56 -154 -155 -154zM368 535h161v-535h-161v288l-146 -288h-164l3 23v512h161v-311z" />
    <glyph glyph-name="uni043A" unicode="&#x43a;" horiz-adv-x="560" 
d="M61 535h161v-206h21l129 206h184l-175 -227c71 -17 92 -68 118 -148c16 -49 32 -107 61 -160h-173c-27 51 -36 90 -52 134c-20 53 -35 74 -77 74h-36v-208h-161v535z" />
    <glyph glyph-name="uni043B" unicode="&#x43b;" horiz-adv-x="568" 
d="M6 0v137c48 5 71 21 75 104l12 294h414v-535h-161v400h-111l-10 -193c-8 -161 -73 -205 -219 -207z" />
    <glyph glyph-name="uni043C" unicode="&#x43c;" horiz-adv-x="757" 
d="M444 41h-136l-98 297l-30 -338h-151l53 536h178l116 -338l115 338h178l54 -536h-152l-30 337z" />
    <glyph glyph-name="uni043D" unicode="&#x43d;" horiz-adv-x="583" 
d="M360 0v207h-137v-207h-161v535h161v-193h137v193h161v-535h-161z" />
    <glyph glyph-name="uni043E" unicode="&#x43e;" horiz-adv-x="542" 
d="M272 550c158 0 241 -85 241 -284c0 -192 -90 -280 -241 -280c-153 0 -242 84 -242 281c0 196 87 283 242 283zM272 421c-52 0 -78 -35 -78 -154c0 -117 26 -156 78 -156s77 39 77 155c0 120 -25 155 -77 155z" />
    <glyph glyph-name="uni043F" unicode="&#x43f;" horiz-adv-x="581" 
d="M359 0v400h-137v-400h-161v535h459v-535h-161z" />
    <glyph glyph-name="uni0440" unicode="&#x440;" horiz-adv-x="568" 
d="M309 -14c-25 0 -62 6 -87 15v-203l-161 -28v765h128v-58c35 35 94 73 168 73c103 0 181 -54 181 -273c0 -214 -94 -291 -229 -291zM222 391v-258c23 -11 43 -16 66 -16c45 0 80 29 80 160c0 119 -35 130 -78 130c-25 0 -44 -6 -68 -16z" />
    <glyph glyph-name="uni0441" unicode="&#x441;" horiz-adv-x="482" 
d="M459 346c-48 -5 -95 -8 -142 -13c-1 41 -9 88 -55 88c-48 0 -66 -26 -66 -154c0 -121 39 -148 98 -148c58 0 114 17 148 41l15 -118c-57 -31 -112 -56 -196 -56c-149 0 -232 79 -232 284c0 209 75 280 235 280c143 0 194 -81 195 -204z" />
    <glyph glyph-name="uni0442" unicode="&#x442;" horiz-adv-x="467" 
d="M14 535h439v-135h-139v-400h-161v400h-139v135z" />
    <glyph glyph-name="uni0443" unicode="&#x443;" horiz-adv-x="501" 
d="M505 535l-170 -505c-55 -163 -120 -247 -258 -247c-40 0 -87 9 -131 29l38 129c22 -13 57 -21 83 -21c60 0 76 27 110 109l-191 506h169l99 -324l95 324h156z" />
    <glyph glyph-name="uni0444" unicode="&#x444;" horiz-adv-x="759" 
d="M451 -10v-220h-144v220c-178 16 -278 103 -278 277c0 173 98 261 278 279v184h144v-184c180 -18 278 -106 278 -279c0 -174 -100 -261 -278 -277zM307 426c-72 -13 -115 -55 -115 -159s43 -146 115 -158v317zM566 267c0 104 -43 146 -115 159v-317c72 12 115 54 115 158z
" />
    <glyph glyph-name="uni0445" unicode="&#x445;" horiz-adv-x="495" 
d="M-1 535h170l81 -162l86 162h167l-162 -261l153 -274h-175l-83 159l-87 -159h-158l154 266z" />
    <glyph glyph-name="uni0446" unicode="&#x446;" horiz-adv-x="598" 
d="M359 132v403h161v-403h54l-6 -286h-130l-5 154h-372v535h161v-403h137z" />
    <glyph glyph-name="uni0447" unicode="&#x447;" horiz-adv-x="574" 
d="M345 0v191c-41 -19 -85 -35 -142 -35c-97 0 -156 51 -156 170v209h161v-160c0 -44 27 -60 66 -60c23 0 51 8 71 16v204h161v-535h-161z" />
    <glyph glyph-name="uni0448" unicode="&#x448;" horiz-adv-x="845" 
d="M623 132v403h161v-535h-723v535h161v-403h120v403h161v-403h120z" />
    <glyph glyph-name="uni0449" unicode="&#x449;" horiz-adv-x="862" 
d="M623 132v403h161v-403h53l-6 -286h-128l-7 154h-635v535h161v-403h120v403h161v-403h120z" />
    <glyph glyph-name="uni044A" unicode="&#x44a;" horiz-adv-x="584" 
d="M330 0h-209v400h-107v135h268v-145c17 4 42 5 56 5c128 0 227 -45 227 -197c0 -158 -104 -198 -235 -198zM282 267v-149h48c54 0 77 22 77 75c0 52 -31 77 -86 77c-14 0 -26 -1 -39 -3z" />
    <glyph glyph-name="uni044B" unicode="&#x44b;" horiz-adv-x="789" 
d="M567 536h161v-536h-161v536zM270 0h-209v535h161v-145c17 4 43 5 57 5c128 0 226 -46 226 -197c0 -158 -104 -198 -235 -198zM222 267v-149h48c54 0 77 22 77 75c0 52 -31 77 -85 77c-15 0 -27 -1 -40 -3z" />
    <glyph glyph-name="uni044C" unicode="&#x44c;" horiz-adv-x="524" 
d="M270 0h-209v535h161v-145c17 4 43 5 57 5c128 0 226 -46 226 -197c0 -158 -104 -198 -235 -198zM222 267v-149h48c54 0 77 22 77 75c0 52 -31 77 -85 77c-15 0 -27 -1 -40 -3z" />
    <glyph glyph-name="uni044D" unicode="&#x44d;" horiz-adv-x="482" 
d="M224 550c160 0 235 -71 235 -280c0 -205 -83 -284 -232 -284c-84 0 -139 25 -196 56l15 118c34 -24 90 -49 148 -49c47 0 89 21 94 93h-198v113h201c-4 85 -24 104 -65 104c-39 0 -54 -29 -55 -64l-140 12c0 108 54 181 193 181z" />
    <glyph glyph-name="uni044E" unicode="&#x44e;" horiz-adv-x="805" 
d="M534 550c158 0 241 -85 241 -284c0 -192 -90 -280 -241 -280c-135 0 -220 66 -238 221h-74v-207h-161v535h161v-193h75c21 143 104 208 237 208zM534 425c-52 0 -78 -39 -78 -158c0 -117 26 -156 78 -156s77 39 77 155c0 120 -25 159 -77 159z" />
    <glyph glyph-name="uni044F" unicode="&#x44f;" horiz-adv-x="552" 
d="M131 233c-42 17 -84 60 -84 136c0 136 102 166 226 166h218v-535h-161v192h-45c-41 0 -50 -32 -65 -82c-13 -42 -23 -75 -41 -110h-175c29 43 49 94 66 142c11 33 33 82 61 91zM330 301v129h-52c-51 0 -72 -19 -72 -62c0 -42 26 -67 72 -67h52z" />
    <glyph glyph-name="uni0453" unicode="&#x453;" horiz-adv-x="408" 
d="M254 750h157l-118 -158h-129zM61 535h332v-135h-171v-400h-161v535z" />
    <glyph glyph-name="uni0491" unicode="&#x491;" horiz-adv-x="440" 
d="M222 400v-400h-161v535h228l6 111h118v-246h-191z" />
    <glyph glyph-name="uni0452" unicode="&#x452;" horiz-adv-x="591" 
d="M540 381v-187c0 -141 -54 -236 -157 -299l-84 89c53 45 80 112 80 197v150c0 44 -27 60 -66 60c-23 0 -51 -8 -71 -16v-375h-161v602h-81v77h81v51l161 20v-71h167v-77h-167v-97c37 25 84 45 142 45c97 0 156 -51 156 -169z" />
    <glyph glyph-name="uni0454" unicode="&#x454;" horiz-adv-x="482" 
d="M264 550c139 0 193 -73 193 -181l-140 -12c-1 35 -16 64 -55 64c-41 0 -61 -19 -65 -104h201v-113h-198c5 -72 47 -93 94 -93c58 0 114 25 148 49l15 -118c-57 -31 -112 -56 -196 -56c-149 0 -232 79 -232 284c0 209 75 280 235 280z" />
    <glyph glyph-name="uni0455" unicode="&#x455;" horiz-adv-x="447" 
d="M420 384l-127 -24c-3 43 -19 68 -59 68c-26 0 -45 -12 -45 -38c0 -75 230 -76 230 -236c0 -95 -66 -168 -198 -168c-93 0 -157 34 -203 72l46 114c49 -38 107 -61 150 -61c27 0 47 10 47 35c0 58 -223 75 -223 234c0 94 67 170 193 170c128 0 182 -78 189 -166z" />
    <glyph glyph-name="uni0450" unicode="&#x450;" horiz-adv-x="499" 
d="M465 222h-268c6 -84 44 -111 103 -111c50 0 108 26 144 50l14 -119c-58 -31 -107 -56 -197 -56c-138 0 -232 79 -232 278c0 200 85 286 232 286c149 0 204 -95 204 -234v-94zM197 321h118c0 71 -13 100 -58 100c-46 0 -58 -33 -60 -100zM84 750h156l90 -158h-128z" />
    <glyph glyph-name="uni0451" unicode="&#x451;" horiz-adv-x="499" 
d="M465 222h-268c6 -84 44 -111 103 -111c50 0 108 26 144 50l14 -119c-58 -31 -107 -56 -197 -56c-138 0 -232 79 -232 278c0 200 85 286 232 286c149 0 204 -95 204 -234v-94zM197 321h118c0 71 -13 100 -58 100c-46 0 -58 -33 -60 -100zM104 736h121v-129h-121v129z
M279 736h121v-129h-121v129z" />
    <glyph glyph-name="uni0456" unicode="&#x456;" horiz-adv-x="283" 
d="M61 535h161v-535h-161v535zM61 740h161v-141h-161v141z" />
    <glyph glyph-name="uni0457" unicode="&#x457;" horiz-adv-x="283" 
d="M-5 736h121v-129h-121v129zM170 736h121v-129h-121v129zM61 535h161v-535h-161v535z" />
    <glyph glyph-name="uni0458" unicode="&#x458;" horiz-adv-x="283" 
d="M222 535v-593c0 -110 -74 -154 -159 -154c-39 0 -80 10 -117 26l15 127c18 -7 38 -13 56 -13c24 0 44 12 44 49v558h161zM61 740h161v-141h-161v141z" />
    <glyph glyph-name="uni045D" unicode="&#x45d;" horiz-adv-x="590" 
d="M368 535h161v-535h-161v288l-146 -288h-164l3 23v512h161v-311zM116 750h156l90 -158h-128z" />
    <glyph glyph-name="uni045C" unicode="&#x45c;" horiz-adv-x="560" 
d="M315 750h157l-118 -158h-129zM61 535h161v-206h21l129 206h184l-175 -227c71 -17 92 -68 118 -148c16 -49 32 -107 61 -160h-173c-27 51 -36 90 -52 134c-20 53 -35 74 -77 74h-36v-208h-161v535z" />
    <glyph glyph-name="uni0459" unicode="&#x459;" horiz-adv-x="805" 
d="M93 535h410v-145c17 4 43 5 57 5c127 0 226 -45 226 -197c0 -158 -104 -198 -235 -198h-209v400h-107l-10 -193c-8 -161 -73 -205 -219 -207v137c48 5 71 21 75 104zM503 267v-149h48c54 0 77 22 77 75c0 52 -31 77 -85 77c-15 0 -27 -1 -40 -3z" />
    <glyph glyph-name="uni045A" unicode="&#x45a;" horiz-adv-x="814" 
d="M351 0v208h-129v-208h-161v535h161v-191h129v191h161v-145c17 4 43 5 57 5c127 0 226 -45 226 -197c0 -158 -104 -198 -235 -198h-209zM512 267v-149h48c54 0 77 22 77 75c0 52 -31 77 -85 77c-15 0 -27 -1 -40 -3z" />
    <glyph glyph-name="uni045B" unicode="&#x45b;" horiz-adv-x="571" 
d="M61 730l161 20v-70h167v-77h-167v-98c38 25 84 45 142 45c97 0 156 -51 156 -169v-381h-161v331c0 44 -27 60 -66 60c-23 0 -51 -8 -71 -16v-375h-161v603h-81v77h81v50z" />
    <glyph glyph-name="uni045E" unicode="&#x45e;" horiz-adv-x="501" 
d="M505 535l-170 -505c-55 -163 -120 -247 -258 -247c-40 0 -87 9 -131 29l38 129c22 -13 57 -21 83 -21c60 0 76 27 110 109l-191 506h169l99 -324l95 324h156zM248 594c-99 0 -153 59 -155 154h102c2 -42 28 -55 53 -55s51 13 53 55h102c-2 -95 -56 -154 -155 -154z" />
    <glyph glyph-name="uni045F" unicode="&#x45f;" horiz-adv-x="581" 
d="M359 132v403h161v-535h-158l-9 -154h-124l-8 154h-160v535h161v-403h137z" />
    <glyph glyph-name="uni0463" unicode="&#x463;" horiz-adv-x="597" 
d="M0 475v110h134v145l161 20v-165h164v-110h-164v-85c17 4 42 5 57 5c127 0 226 -45 226 -197c0 -158 -104 -198 -235 -198h-209v475h-134zM295 267v-149h48c54 0 77 22 77 75c0 52 -31 77 -86 77c-14 0 -26 -1 -39 -3z" />
    <glyph glyph-name="uni0473" unicode="&#x473;" horiz-adv-x="543" 
d="M272 550c158 0 241 -85 241 -284c0 -192 -90 -280 -241 -280c-153 0 -242 84 -242 281c0 196 87 283 242 283zM272 421c-44 0 -69 -25 -77 -103h151c-6 78 -31 103 -74 103zM272 111c42 0 67 26 74 100h-150c8 -74 33 -100 76 -100z" />
    <glyph glyph-name="uni0475" unicode="&#x475;" horiz-adv-x="501" 
d="M-5 535h171l94 -367l86 367h159l-162 -535h-182z" />
    <glyph glyph-name="asciicircum" unicode="^" horiz-adv-x="532" 
d="M514 351h-146l-101 182l-102 -182h-147l187 349h122z" />
    <glyph glyph-name="asciitilde" unicode="~" 
d="M139 243l-115 40c24 78 66 134 156 134c62 0 132 -35 164 -35c19 0 34 8 45 44l115 -39c-24 -79 -69 -134 -160 -134c-52 0 -115 34 -160 34c-18 0 -35 -5 -45 -44z" />
    <glyph glyph-name="brokenbar" unicode="&#xa6;" horiz-adv-x="282" 
d="M69 750h144v-392h-144v392zM69 162h144v-392h-144v392z" />
    <glyph glyph-name="backslash" unicode="\" horiz-adv-x="398" 
d="M0 700h138l254 -700h-137z" />
    <glyph glyph-name="underscore" unicode="_" horiz-adv-x="552" 
d="M545 -14v-135h-538v135h538z" />
    <glyph glyph-name="quotesingle" unicode="'" horiz-adv-x="241" 
d="M51 700h138v-237h-138v237z" />
    <glyph glyph-name="quotedbl" unicode="&#x22;" horiz-adv-x="459" 
d="M269 700h138v-237h-138v237zM51 700h138v-237h-138v237z" />
    <glyph glyph-name="at" unicode="@" horiz-adv-x="772" 
d="M431 211v148c-13 7 -26 11 -47 11c-27 0 -59 -18 -59 -93c0 -76 25 -98 50 -98c24 0 42 12 56 32zM616 30l28 -84c-72 -30 -150 -44 -223 -44c-213 0 -394 125 -394 372c0 217 146 358 361 358s361 -135 361 -334c0 -151 -68 -238 -176 -238c-47 0 -90 16 -107 57
c-29 -29 -66 -48 -107 -48c-74 0 -161 44 -161 208c0 165 110 203 184 203c70 0 123 -21 173 -53v-208c0 -32 12 -45 39 -45c39 0 56 48 56 124c0 155 -109 247 -262 247s-268 -99 -268 -271c0 -186 135 -283 304 -283c61 0 129 13 192 39z" />
    <glyph glyph-name="copyright" unicode="&#xa9;" horiz-adv-x="755" 
d="M532 422c-33 -6 -66 -12 -98 -17c-3 42 -21 64 -52 64c-46 0 -71 -27 -71 -120c0 -87 39 -122 93 -122c41 0 69 14 102 36l27 -83c-37 -27 -93 -48 -145 -48c-108 0 -188 69 -188 217c0 159 72 219 184 219c95 0 147 -73 148 -146zM31 350c0 201 154 364 346 364
s346 -163 346 -364c0 -202 -154 -364 -346 -364s-346 162 -346 364zM96 350c0 -164 125 -296 281 -296c155 0 281 132 281 296c0 163 -126 295 -281 295c-156 0 -281 -132 -281 -295z" />
    <glyph glyph-name="registered" unicode="&#xae;" horiz-adv-x="527" 
d="M375 509c0 -45 -15 -65 -39 -78l53 -106h-81l-43 89h-20v-89h-80v266h96c59 0 114 -15 114 -82zM245 531v-54v0c4 -1 11 -1 15 -1c21 0 32 10 32 30c0 18 -8 25 -31 25h-16zM508 459c0 -145 -106 -255 -245 -255s-245 110 -245 255s106 255 245 255s245 -110 245 -255z
M448 459c0 111 -78 195 -185 195s-185 -84 -185 -195s78 -195 185 -195s185 84 185 195z" />
    <glyph glyph-name="trademark" unicode="&#x2122;" horiz-adv-x="863" 
d="M11 700h315v-94h-102v-261h-113v261h-100v94zM338 345l46 355h140l63 -201l62 201h142l43 -355h-117l-22 207l-57 -179h-105l-57 179l-21 -207h-117z" />
    <glyph glyph-name="currency" unicode="&#xa4;" 
d="M462 333c0 -35 -7 -65 -23 -94l83 -84l-78 -78l-82 83c-30 -18 -61 -25 -97 -25s-67 7 -97 25l-82 -83l-78 78l84 83c-17 29 -24 60 -24 95s7 67 24 96l-84 83l78 77l82 -82c30 17 61 25 97 25s67 -8 97 -25l82 82l78 -77l-83 -83c16 -29 23 -61 23 -96zM342 333
c0 41 -36 78 -77 78s-77 -37 -77 -78s36 -78 77 -78s77 37 77 78z" />
    <glyph glyph-name="Euro" unicode="&#x20ac;" 
d="M2 362v84h59c19 187 83 268 243 268c137 0 214 -71 226 -206l-156 -17c-9 38 -19 76 -68 76c-57 0 -76 -44 -83 -121h197l-16 -84h-184v-21c0 -9 1 -17 2 -27h173l-15 -84h-146c12 -72 45 -98 108 -98c65 0 113 22 161 49l18 -137c-54 -30 -109 -58 -204 -58
c-150 0 -223 72 -251 244h-64v84h56c-1 10 -1 20 -1 26v22h-55z" />
    <glyph glyph-name="dollar" unicode="$" 
d="M492 448l-152 -20c-4 47 -22 88 -73 88c-32 0 -61 -12 -61 -51c0 -91 290 -73 290 -252c0 -111 -67 -173 -170 -191v-110h-120v107c-79 11 -146 52 -195 101l81 117c47 -50 102 -81 159 -81c33 0 62 9 62 42c0 69 -276 57 -276 260c0 108 66 175 169 192v100h120v-103
c123 -24 159 -120 166 -199z" />
    <glyph glyph-name="cent" unicode="&#xa2;" 
d="M481 414l-143 -13c-1 41 -10 88 -56 88c-49 0 -73 -26 -73 -154c0 -120 48 -146 103 -146c51 0 117 23 153 47l15 -126c-46 -26 -93 -48 -152 -54v-144h-119v149c-105 24 -166 108 -166 277c0 172 56 251 166 273v139h119v-136c110 -14 153 -91 153 -200z" />
    <glyph glyph-name="sterling" unicode="&#xa3;" 
d="M518 512l-143 -24c0 51 -25 80 -67 80c-51 0 -68 -28 -68 -72c0 -24 2 -55 7 -98h200v-114h-190c4 -52 4 -55 4 -58c0 -40 -11 -64 -36 -90h281v-136h-480v110c52 26 81 60 81 106c0 16 -1 28 -6 68h-94v114h85c-6 83 -6 93 -6 102c0 111 54 214 218 214
c155 0 214 -92 214 -202z" />
    <glyph glyph-name="florin" unicode="&#x192;" 
d="M87 398v102c0 111 54 214 218 214c155 0 214 -92 214 -202l-143 -24c0 51 -25 80 -67 80c-51 0 -68 -28 -68 -72v-98h206v-114h-206v-284h-154v284h-79v114h79z" />
    <glyph glyph-name="yen" unicode="&#xa5;" 
d="M266 455l107 245h167l-148 -302h105v-114h-153v-284h-158v284h-159v114h110l-146 302h170z" />
    <glyph glyph-name="ordfeminine" unicode="&#xaa;" horiz-adv-x="414" 
d="M231 442v54c-37 -1 -80 -6 -80 -41c0 -19 13 -30 34 -30c19 0 31 6 46 17zM231 565v25c0 25 -12 37 -37 37c-26 0 -38 -17 -38 -43l-106 9c4 81 68 121 153 121c104 0 150 -46 150 -114v-153c0 -13 8 -20 18 -20c14 0 23 4 41 15l6 -78c-19 -18 -54 -30 -88 -30
c-30 0 -67 15 -76 50c-35 -36 -70 -50 -114 -50c-58 0 -104 32 -104 104c0 94 91 127 195 127z" />
    <glyph glyph-name="ordmasculine" unicode="&#xba;" horiz-adv-x="414" 
d="M206 714c117 0 179 -57 179 -192c0 -130 -66 -190 -179 -190c-112 0 -178 58 -178 191s64 191 178 191zM206 628c-35 0 -54 -27 -54 -105s19 -103 54 -103c36 0 55 25 55 102c0 79 -19 106 -55 106z" />
    <glyph glyph-name="uni2116" unicode="&#x2116;" horiz-adv-x="1083" 
d="M716 200v93h336v-93h-336zM69 700h162l239 -424v424h156v-700h-162l-240 415v-415h-155v700zM884 714c117 0 179 -57 179 -192c0 -130 -66 -190 -179 -190c-112 0 -178 58 -178 191s64 191 178 191zM884 628c-35 0 -54 -27 -54 -105s19 -103 54 -103c36 0 55 25 55 102
c0 79 -19 106 -55 106z" />
    <glyph glyph-name="numbersign" unicode="#" horiz-adv-x="629" 
d="M42 409l22 123h96l29 169h132l-29 -169h109l29 169h132l-29 -169h96l-22 -123h-96l-21 -120h95l-21 -122h-96l-29 -167h-132l29 167h-109l-29 -167h-132l29 167h-95l21 122h96l21 120h-96zM270 409l-21 -120h109l21 120h-109z" />
    <glyph glyph-name="zero" unicode="0" 
d="M267 714c155 0 247 -100 247 -363c0 -266 -99 -365 -253 -365c-147 0 -247 99 -247 362c0 256 101 366 253 366zM264 568c-55 0 -82 -68 -82 -219c0 -157 27 -217 82 -217c57 0 83 60 83 219c0 156 -26 217 -83 217z" />
    <glyph glyph-name="one" unicode="1" 
d="M59 0v150h151v367l-151 -76v161l195 98h115v-550h142v-150h-452z" />
    <glyph glyph-name="two" unicode="2" 
d="M174 484l-159 20c6 111 75 210 234 210c147 0 233 -74 233 -217c0 -82 -43 -148 -110 -221l-114 -123h239v-153h-461v132l217 243c40 44 57 83 57 116c0 59 -31 76 -62 76c-45 0 -73 -24 -74 -83z" />
    <glyph glyph-name="three" unicode="3" 
d="M249 714c147 0 237 -75 237 -200c0 -60 -23 -116 -93 -147c81 -24 107 -89 107 -167c0 -145 -104 -214 -243 -214c-107 0 -186 40 -241 95l69 126c46 -48 105 -75 161 -75c50 0 87 21 87 69c0 53 -25 76 -82 76h-92v139h78c51 0 76 31 76 80c0 38 -17 72 -66 72
c-45 0 -72 -25 -73 -84l-159 20c6 111 75 210 234 210z" />
    <glyph glyph-name="four" unicode="4" 
d="M11 139v142l224 419h213v-422h72v-139h-72v-139h-155v139h-282zM293 534l-137 -256h137v256z" />
    <glyph glyph-name="five" unicode="5" 
d="M58 328v372h405v-150h-254v-115c10 1 22 2 31 2c190 0 248 -96 248 -222c0 -145 -90 -229 -239 -229c-107 0 -174 37 -229 92l69 126c43 -43 80 -72 141 -72c53 0 90 30 90 80c0 58 -40 84 -100 84c-28 0 -51 -4 -80 -14z" />
    <glyph glyph-name="six" unicode="6" 
d="M196 278c2 -89 21 -146 84 -146c45 0 71 34 71 90c0 50 -23 77 -71 77c-29 0 -63 -8 -84 -21zM198 413c32 16 65 24 114 24c97 0 204 -55 204 -208c0 -162 -103 -243 -238 -243c-148 0 -251 99 -251 362c0 258 105 366 257 366c134 0 212 -73 223 -207l-154 -13
c-7 45 -28 74 -73 74c-59 0 -82 -54 -82 -155z" />
    <glyph glyph-name="seven" unicode="7" 
d="M32 700h468v-122l-264 -578h-187l263 550h-280v150z" />
    <glyph glyph-name="eight" unicode="8" 
d="M265 294c-61 0 -87 -30 -87 -84s34 -83 86 -83c54 0 88 29 88 83s-26 84 -87 84zM265 -14c-147 0 -253 85 -253 215c0 76 31 134 97 163c-46 29 -78 78 -78 145c0 134 90 205 234 205s234 -71 234 -205c0 -67 -32 -116 -78 -145c66 -29 97 -87 97 -163
c0 -130 -106 -215 -253 -215zM265 572c-49 0 -72 -25 -72 -79c0 -44 25 -79 72 -79s72 35 72 79c0 54 -23 79 -72 79z" />
    <glyph glyph-name="nine" unicode="9" 
d="M242 -14c-104 0 -176 41 -229 93l69 127c39 -42 95 -74 151 -74c73 0 94 58 94 146c-27 -11 -46 -17 -91 -17c-127 0 -221 66 -221 214c0 147 94 239 239 239c168 0 248 -102 248 -364c0 -250 -112 -364 -260 -364zM256 401c27 0 53 6 77 19c-3 111 -23 148 -78 148
c-48 0 -72 -36 -72 -86c0 -51 26 -81 73 -81z" />
    <glyph glyph-name="onesuperior" unicode="&#xb9;" horiz-adv-x="320" 
d="M36 324v100h78v153l-78 -38v104l113 57h86v-276h70v-100h-269z" />
    <glyph glyph-name="twosuperior" unicode="&#xb2;" horiz-adv-x="320" 
d="M286 601c0 -43 -19 -81 -54 -117l-59 -61h121v-99h-273v76l128 141c15 16 26 32 26 47c0 22 -12 33 -32 33c-21 0 -33 -16 -36 -39l-97 22c11 60 54 110 139 110s137 -40 137 -113z" />
    <glyph glyph-name="threesuperior" unicode="&#xb3;" horiz-adv-x="320" 
d="M290 604c0 -30 -17 -62 -52 -77c44 -12 62 -49 62 -90c0 -80 -62 -115 -142 -115c-57 0 -110 17 -143 50l47 78c25 -27 56 -38 83 -38c20 0 38 9 38 31c0 23 -13 32 -38 32h-42v81h43c20 0 33 14 33 33s-9 32 -32 32c-22 0 -34 -14 -37 -39l-97 23c11 61 54 109 139 109
c86 0 138 -40 138 -110z" />
    <glyph glyph-name="fraction" unicode="&#x2044;" horiz-adv-x="568" 
d="M444 700h124l-445 -700h-123z" />
    <glyph glyph-name="onequarter" unicode="&#xbc;" horiz-adv-x="806" 
d="M460 65v80l126 230h155v-220h37v-90h-37v-65h-113v65h-168zM628 264l-62 -109h62v109zM566 700h123l-446 -700h-122zM29 324v100h78v153l-78 -38v104l113 57h86v-276h70v-100h-269z" />
    <glyph glyph-name="onehalf" unicode="&#xbd;" horiz-adv-x="806" 
d="M566 700h123l-446 -700h-122zM29 324v100h78v153l-78 -38v104l113 57h86v-276h70v-100h-269zM761 277c0 -43 -20 -80 -54 -117l-59 -61h121v-99h-273v76l128 141c15 16 26 32 26 47c0 22 -12 33 -32 33c-21 0 -33 -16 -36 -39l-97 22c11 60 54 110 139 110
s137 -40 137 -113z" />
    <glyph glyph-name="threequarters" unicode="&#xbe;" horiz-adv-x="806" 
d="M460 65v80l126 230h155v-220h37v-90h-37v-65h-113v65h-168zM628 264l-62 -109h62v109zM566 700h123l-446 -700h-122zM288 604c0 -30 -17 -62 -52 -77c44 -12 62 -49 62 -90c0 -80 -62 -115 -142 -115c-57 0 -110 17 -143 50l47 78c25 -27 56 -38 83 -38c20 0 38 9 38 31
c0 23 -13 32 -38 32h-42v81h43c20 0 33 14 33 33s-9 32 -32 32c-22 0 -34 -14 -37 -39l-97 23c11 61 54 109 139 109c86 0 138 -40 138 -110z" />
    <glyph glyph-name="percent" unicode="%" horiz-adv-x="794" 
d="M558 700h123l-446 -700h-122zM220 531c0 57 -15 83 -44 83c-30 0 -44 -26 -44 -83c0 -56 14 -83 44 -83c29 0 44 27 44 83zM17 532c0 122 58 183 158 183c103 0 160 -60 160 -183c0 -122 -58 -185 -160 -185c-99 0 -158 61 -158 185zM662 169c0 57 -15 84 -44 84
c-30 0 -44 -27 -44 -83c0 -57 14 -83 44 -83c29 0 44 26 44 82zM459 170c0 123 58 184 158 184c103 0 160 -61 160 -184c0 -121 -58 -184 -160 -184c-99 0 -158 60 -158 184z" />
    <glyph glyph-name="perthousand" unicode="&#x2030;" horiz-adv-x="1147" 
d="M1014 169c0 57 -14 84 -44 84c-29 0 -44 -27 -44 -83c0 -57 15 -83 44 -83c30 0 44 26 44 82zM811 170c0 123 58 184 159 184c103 0 159 -61 159 -184c0 -121 -57 -184 -159 -184c-100 0 -159 60 -159 184zM558 700h123l-446 -700h-122zM220 531c0 57 -15 83 -44 83
c-30 0 -44 -26 -44 -83c0 -56 14 -83 44 -83c29 0 44 27 44 83zM17 532c0 122 58 183 158 183c103 0 160 -60 160 -183c0 -122 -58 -185 -160 -185c-99 0 -158 61 -158 185zM662 169c0 57 -15 84 -44 84c-30 0 -44 -27 -44 -83c0 -57 14 -83 44 -83c29 0 44 26 44 82z
M459 170c0 123 58 184 158 184c103 0 160 -61 160 -184c0 -121 -58 -184 -160 -184c-99 0 -158 60 -158 184z" />
    <glyph glyph-name="plus" unicode="+" 
d="M197 550h135v-150h147v-135h-147v-150h-135v150h-146v135h146v150z" />
    <glyph glyph-name="minus" unicode="&#x2212;" 
d="M479 400v-135h-428v135h428z" />
    <glyph glyph-name="plusminus" unicode="&#xb1;" 
d="M479 134v-134h-428v134h428zM197 550h135v-118h147v-135h-147v-121h-135v121h-146v135h146v118z" />
    <glyph glyph-name="multiply" unicode="&#xd7;" 
d="M265 236l-139 -139l-96 96l139 139l-139 139l96 96l139 -139l139 139l96 -96l-139 -139l139 -139l-96 -96z" />
    <glyph glyph-name="divide" unicode="&#xf7;" 
d="M192 231h147v-136h-147v136zM479 400v-135h-428v135h428zM192 567h147v-136h-147v136z" />
    <glyph glyph-name="equal" unicode="=" 
d="M479 501v-135h-428v135h428zM479 288v-135h-428v135h428z" />
    <glyph glyph-name="notequal" unicode="&#x2260;" 
d="M479 288v-135h-268l-58 -96h-101l56 96h-57v135h136l46 78h-182v135h261l57 97h110l-59 -97h59v-135h-140l-47 -78h187z" />
    <glyph glyph-name="approxequal" unicode="&#x2248;" 
d="M132 336l-116 40c25 76 66 133 151 133c65 0 137 -34 170 -34c19 0 34 8 45 44l115 -39c-25 -77 -68 -133 -158 -133c-54 0 -117 33 -162 33c-18 0 -35 -13 -45 -44zM122 131l-115 40c24 78 66 134 156 134c62 0 132 -35 164 -35c20 0 34 7 46 44l115 -40
c-25 -77 -70 -132 -159 -132c-53 0 -115 33 -162 33c-18 0 -35 -13 -45 -44z" />
    <glyph glyph-name="less" unicode="&#x3c;" 
d="M479 535v-136l-299 -69l299 -70v-136l-428 120v171z" />
    <glyph glyph-name="greater" unicode="&#x3e;" 
d="M51 399v136l428 -120v-171l-428 -120v136l299 70z" />
    <glyph glyph-name="lessequal" unicode="&#x2264;" 
d="M479 550v-135l-299 -64l299 -64v-135l-428 113v172zM479 135v-135h-428v135h428z" />
    <glyph glyph-name="greaterequal" unicode="&#x2265;" 
d="M51 415v135l428 -113v-172l-428 -113v135l299 64zM479 135v-135h-428v135h428z" />
    <glyph glyph-name="logicalnot" unicode="&#xac;" 
d="M51 400h428v-282h-135v147h-293v135z" />
    <glyph glyph-name="Delta" unicode="&#x394;" horiz-adv-x="554" 
d="M-12 0l196 700h186l196 -700h-578zM275 501l-93 -361h186z" />
    <glyph glyph-name="Delta" unicode="&#x2206;" horiz-adv-x="554" 
d="M-12 0l196 700h186l196 -700h-578zM275 501l-93 -361h186z" />
    <glyph glyph-name="Omega" unicode="&#x3a9;" horiz-adv-x="635" 
d="M317 714c158 0 275 -72 275 -340c0 -99 -29 -172 -81 -229h101v-145h-266v139c41 35 78 93 78 221c0 175 -40 208 -107 208c-71 0 -107 -37 -107 -208c0 -128 38 -186 79 -221v-139h-267v145h102c-53 57 -81 130 -81 229c0 260 116 339 274 340z" />
    <glyph glyph-name="Omega" unicode="&#x2126;" horiz-adv-x="635" 
d="M317 714c158 0 275 -72 275 -340c0 -99 -29 -172 -81 -229h101v-145h-266v139c41 35 78 93 78 221c0 175 -40 208 -107 208c-71 0 -107 -37 -107 -208c0 -128 38 -186 79 -221v-139h-267v145h102c-53 57 -81 130 -81 229c0 260 116 339 274 340z" />
    <glyph glyph-name="mu" unicode="&#xb5;" horiz-adv-x="551" 
d="M506 172c0 -115 -63 -186 -168 -186c-46 0 -88 8 -118 36v-224l-161 -28v766h161v-346c0 -50 25 -70 63 -70c37 0 62 20 62 70v346h161v-364z" />
    <glyph glyph-name="mu" unicode="&#x3bc;" horiz-adv-x="551" 
d="M506 172c0 -115 -63 -186 -168 -186c-46 0 -88 8 -118 36v-224l-161 -28v766h161v-346c0 -50 25 -70 63 -70c37 0 62 20 62 70v346h161v-364z" />
    <glyph glyph-name="pi" unicode="&#x3c0;" horiz-adv-x="617" 
d="M17 395v141h583v-141h-72v-395h-157v395h-124v-395h-157v395h-73z" />
    <glyph glyph-name="degree" unicode="&#xb0;" horiz-adv-x="320" 
d="M26 580c0 74 59 134 133 134s134 -60 134 -134s-60 -133 -134 -133s-133 59 -133 133zM111 580c0 -26 22 -48 48 -48c27 0 49 22 49 48c0 27 -22 49 -49 49c-26 0 -48 -22 -48 -49z" />
    <glyph glyph-name="infinity" unicode="&#x221e;" horiz-adv-x="668" 
d="M633 333c0 -100 -65 -157 -155 -157c-60 0 -102 27 -144 67c-41 -40 -84 -67 -143 -67c-90 0 -156 57 -156 157s66 156 156 156c59 0 102 -26 143 -65c42 39 84 65 144 65c90 0 155 -56 155 -156zM393 333c26 -24 52 -38 77 -38c17 0 37 11 37 38s-20 38 -37 38
c-25 0 -51 -14 -77 -38zM276 333c-26 24 -53 38 -77 38c-18 0 -38 -11 -38 -38s20 -38 38 -38c24 0 51 14 77 38z" />
    <glyph glyph-name="partialdiff" unicode="&#x2202;" horiz-adv-x="546" 
d="M361 407c5 29 8 54 8 75c0 45 -15 80 -64 80c-36 0 -66 -14 -83 -63l-148 32c43 141 144 183 255 183c125 0 206 -81 206 -241c0 -37 -3 -78 -11 -124c-46 -264 -168 -363 -315 -363c-118 0 -201 64 -201 187c0 198 137 259 244 259c46 0 84 -11 109 -25zM340 276
c-23 14 -47 23 -76 23c-57 0 -90 -43 -90 -101c0 -40 20 -64 58 -64c50 0 93 44 108 142z" />
    <glyph glyph-name="integral" unicode="&#x222b;" horiz-adv-x="329" 
d="M231 576v-585c0 -142 -92 -203 -214 -203c-28 0 -52 4 -82 11c6 44 12 90 19 135c14 -3 29 -6 44 -6c41 0 72 16 72 64v564c0 154 83 216 213 216c29 0 53 -3 83 -10l-19 -127c-14 3 -29 6 -44 6c-42 0 -72 -16 -72 -65z" />
    <glyph glyph-name="radical" unicode="&#x221a;" horiz-adv-x="602" 
d="M27 395v140h181l93 -376l142 541h163c-68 -233 -138 -467 -207 -700h-201l-112 395h-59z" />
    <glyph glyph-name="summation" unicode="&#x2211;" horiz-adv-x="522" 
d="M34 700h438v-142h-227l169 -207l-169 -209h240v-142h-451v107l204 245l-204 240v108z" />
    <glyph glyph-name="product" unicode="&#x220f;" horiz-adv-x="669" 
d="M69 700h531v-700h-158v545h-214v-545h-159v700z" />
    <glyph glyph-name="lozenge" unicode="&#x25ca;" 
d="M182 700h166l176 -350l-176 -350h-166l-176 350zM265 540l-95 -190l95 -189l95 189z" />
    </font>
</defs>
</svg>
