<?xml version="1.0" standalone="no"?>
<!DOCTYPE svg PUBLIC "-//W3C//DTD SVG 1.1//EN" "http://www.w3.org/Graphics/SVG/1.1/DTD/svg11.dtd" >
<svg xmlns="http://www.w3.org/2000/svg" width="100%" height="100%">
<metadata>
Created by FontXChange 20110222 at Thu Jan 10 22:32:18 2013
 By Sébastien Goffin
Copyright (c) 2008 BNP Paribas
</metadata>
<defs>
<font id="BNPPSans" horiz-adv-x="530" >
  <font-face 
    font-family="BNPPSans"
    font-weight="400"
    font-stretch="normal"
    units-per-em="1000"
    panose-1="2 0 0 0 0 0 0 0 0 0"
    ascent="755"
    descent="-245"
    x-height="531"
    cap-height="700"
    bbox="-56 -249 1035 1031"
    underline-thickness="50"
    underline-position="-50"
    stemh="100"
    stemv="109"
    unicode-range="U+0020-FB04"
  />
<missing-glyph horiz-adv-x="500" 
d="M72 665h355v-665h-355v665zM152 586v-507h195v507h-195z" />
    <glyph glyph-name="f_i" unicode="fi" horiz-adv-x="585" 
d="M17 531h74v36c0 129 79 183 190 183c37 0 72 -6 101 -17l-19 -88c-21 8 -47 13 -75 13c-51 0 -88 -25 -88 -88v-39h307v-531h-109v443h-198v-524c0 -88 -61 -131 -134 -131c-34 0 -72 9 -105 27l17 87c20 -9 43 -17 63 -17c31 0 50 15 50 55v503h-74v88zM398 720h109
v-118h-109v118z" />
    <glyph glyph-name="f_l" unicode="fl" horiz-adv-x="616" 
d="M399 730l109 20v-628c0 -29 16 -40 37 -40c23 0 44 9 65 21l11 -84c-41 -22 -73 -32 -111 -32c-89 0 -111 65 -111 135v608zM200 443v-524c0 -88 -61 -131 -134 -131c-34 0 -72 9 -105 27l17 87c20 -9 43 -17 63 -17c31 0 50 15 50 55v503h-74v88h74v36
c0 129 79 183 190 183c37 0 72 -6 101 -17l-19 -88c-21 8 -47 13 -75 13c-51 0 -88 -25 -88 -88v-39h131l-13 -88h-118z" />
    <glyph glyph-name=".notdef" horiz-adv-x="500" 
d="M72 665h355v-665h-355v665zM152 586v-507h195v507h-195z" />
    <glyph glyph-name=".null" horiz-adv-x="0" 
 />
    <glyph glyph-name="CR" horiz-adv-x="246" 
 />
    <glyph glyph-name="space" unicode=" " horiz-adv-x="268" 
 />
    <glyph glyph-name="A" unicode="A" horiz-adv-x="544" 
d="M439 0l-48 165h-245l-48 -165h-106l215 700h132l214 -700h-114zM268 584l-94 -322h188z" />
    <glyph glyph-name="B" unicode="B" horiz-adv-x="571" 
d="M195 303v-203h89c86 0 127 28 127 99c0 75 -34 104 -128 104h-88zM195 600v-198h87c70 0 112 38 112 103c0 73 -39 95 -115 95h-84zM87 700h193c142 0 227 -43 227 -181c0 -73 -36 -129 -107 -160c84 -17 127 -68 127 -165c0 -141 -87 -194 -243 -194h-197v700z" />
    <glyph glyph-name="C" unicode="C" horiz-adv-x="558" 
d="M516 503l-104 -13c-6 63 -25 123 -110 123c-109 0 -146 -70 -146 -261c0 -204 65 -265 175 -265c69 0 115 20 162 48l22 -93c-46 -28 -109 -55 -197 -55c-172 0 -274 103 -274 365c0 258 85 361 260 361c141 0 210 -87 212 -210z" />
    <glyph glyph-name="D" unicode="D" horiz-adv-x="636" 
d="M87 700h225c182 0 280 -101 280 -340c0 -258 -109 -360 -283 -360h-222v700zM195 600v-500h110c108 0 175 56 175 259c0 186 -64 241 -175 241h-110z" />
    <glyph glyph-name="E" unicode="E" horiz-adv-x="529" 
d="M87 700h378v-100h-270v-193h258v-101h-258v-206h284v-100h-392v700z" />
    <glyph glyph-name="F" unicode="F" horiz-adv-x="509" 
d="M87 700h385v-100h-277v-209h237v-100h-237v-291h-108v700z" />
    <glyph glyph-name="G" unicode="G" horiz-adv-x="647" 
d="M465 490c-7 66 -42 123 -133 123c-110 0 -173 -66 -173 -255c0 -208 62 -271 172 -271c58 0 106 28 136 52v139h-142v96h251v-374h-100v40c-34 -30 -96 -53 -165 -53c-150 0 -267 91 -267 370c0 258 114 356 292 356c158 0 229 -96 232 -211z" />
    <glyph glyph-name="H" unicode="H" horiz-adv-x="676" 
d="M87 700h108v-293h286v293h108v-700h-108v303h-286v-303h-108v700z" />
    <glyph glyph-name="I" unicode="I" horiz-adv-x="282" 
d="M87 700h108v-700h-108v700z" />
    <glyph glyph-name="J" unicode="J" horiz-adv-x="305" 
d="M113 700h108v-573c0 -88 -53 -140 -131 -140c-36 0 -67 8 -98 26l19 93c15 -10 37 -19 59 -19c28 0 43 14 43 54v559z" />
    <glyph glyph-name="K" unicode="K" horiz-adv-x="572" 
d="M87 700h108v-337l243 337h121l-210 -288l230 -412h-125l-177 315l-82 -112v-203h-108v700z" />
    <glyph glyph-name="L" unicode="L" horiz-adv-x="459" 
d="M87 700h108v-600h251v-100h-359v700z" />
    <glyph glyph-name="M" unicode="M" horiz-adv-x="852" 
d="M638 508l-163 -452h-98l-163 452l-44 -508h-109l64 700h129l172 -465l172 465h129l64 -700h-109z" />
    <glyph glyph-name="N" unicode="N" horiz-adv-x="692" 
d="M87 700h105l307 -501v501h106v-700h-104l-308 500v-500h-106v700z" />
    <glyph glyph-name="O" unicode="O" horiz-adv-x="622" 
d="M312 713c156 0 266 -98 266 -363c0 -266 -113 -363 -269 -363c-152 0 -265 97 -265 361c0 267 114 365 268 365zM310 613c-93 0 -156 -62 -156 -264c0 -199 63 -262 156 -262c97 0 154 63 154 264c0 200 -57 262 -154 262z" />
    <glyph glyph-name="P" unicode="P" horiz-adv-x="564" 
d="M195 600v-260c20 -4 34 -7 70 -7c89 0 145 31 145 133c0 103 -40 134 -135 134h-80zM87 700h188c172 0 244 -54 244 -229c0 -169 -105 -235 -245 -235c-38 0 -56 2 -79 7v-243h-108v700z" />
    <glyph glyph-name="Q" unicode="Q" horiz-adv-x="622" 
d="M312 713c156 0 266 -98 266 -363c0 -207 -68 -311 -172 -348l98 -172h-123l-80 157c-148 3 -257 101 -257 361c0 267 114 365 268 365zM310 613c-93 0 -156 -62 -156 -264c0 -199 63 -262 156 -262c97 0 154 63 154 264c0 200 -57 262 -154 262z" />
    <glyph glyph-name="R" unicode="R" horiz-adv-x="565" 
d="M536 0h-120l-116 266c-13 -2 -27 -3 -41 -3c-21 0 -42 2 -64 5v-268h-108v700h186c152 0 243 -45 243 -214c0 -110 -47 -170 -112 -196zM195 600v-234c25 -4 44 -6 75 -6c88 0 133 34 133 121c0 98 -41 119 -131 119h-77z" />
    <glyph glyph-name="S" unicode="S" horiz-adv-x="537" 
d="M478 511l-105 -17c-7 60 -22 119 -109 119c-54 0 -100 -26 -100 -86c0 -142 321 -141 321 -345c0 -130 -90 -195 -221 -195c-93 0 -175 41 -226 100l54 82c45 -52 113 -82 177 -82c62 0 105 24 105 83c0 127 -320 133 -320 349c0 132 99 194 211 194
c161 0 207 -111 213 -202z" />
    <glyph glyph-name="T" unicode="T" horiz-adv-x="542" 
d="M24 700h495v-100h-194v-600h-108v600h-193v100z" />
    <glyph glyph-name="U" unicode="U" horiz-adv-x="659" 
d="M79 700h108v-463c0 -95 41 -150 143 -150c101 0 142 51 142 150v463h108v-466c0 -151 -74 -247 -250 -247c-177 0 -251 96 -251 247v466z" />
    <glyph glyph-name="V" unicode="V" horiz-adv-x="584" 
d="M15 700h119l164 -565l166 565h105l-212 -700h-124z" />
    <glyph glyph-name="W" unicode="W" horiz-adv-x="886" 
d="M384 700h118l138 -550l115 550h113l-157 -700h-130l-138 536l-138 -536h-130l-157 700h113l115 -550z" />
    <glyph glyph-name="X" unicode="X" horiz-adv-x="573" 
d="M20 700h125l146 -256l150 256h116l-206 -342l213 -358h-126l-156 263l-156 -263h-117l211 351z" />
    <glyph glyph-name="Y" unicode="Y" horiz-adv-x="545" 
d="M276 393l147 307h115l-211 -428v-272h-108v272l-211 428h119z" />
    <glyph glyph-name="Z" unicode="Z" horiz-adv-x="553" 
d="M49 700h468v-71l-339 -529h332v-100h-477v69l339 531h-323v100z" />
    <glyph glyph-name="Agrave" unicode="&#xc0;" horiz-adv-x="544" 
d="M439 0l-48 165h-245l-48 -165h-106l215 700h132l214 -700h-114zM268 584l-94 -322h188zM111 912h111l98 -158h-92z" />
    <glyph glyph-name="Aacute" unicode="&#xc1;" horiz-adv-x="544" 
d="M439 0l-48 165h-245l-48 -165h-106l215 700h132l214 -700h-114zM268 584l-94 -322h188zM324 912h111l-116 -158h-93z" />
    <glyph glyph-name="Acircumflex" unicode="&#xc2;" horiz-adv-x="544" 
d="M439 0l-48 165h-245l-48 -165h-106l215 700h132l214 -700h-114zM268 584l-94 -322h188zM325 754l-57 90l-57 -90h-87l95 158h98l95 -158h-87z" />
    <glyph glyph-name="Atilde" unicode="&#xc3;" horiz-adv-x="544" 
d="M439 0l-48 165h-245l-48 -165h-106l215 700h132l214 -700h-114zM268 584l-94 -322h188zM180 771l-69 24c11 46 41 92 94 92c43 0 83 -29 112 -29c21 0 32 10 38 35l70 -25c-15 -55 -48 -92 -97 -92c-37 0 -87 30 -116 30c-21 0 -26 -19 -32 -35z" />
    <glyph glyph-name="Adieresis" unicode="&#xc4;" horiz-adv-x="544" 
d="M439 0l-48 165h-245l-48 -165h-106l215 700h132l214 -700h-114zM268 584l-94 -322h188zM144 884h89v-103h-89v103zM303 884h89v-103h-89v103z" />
    <glyph glyph-name="Amacron" unicode="&#x100;" horiz-adv-x="544" 
d="M439 0l-48 165h-245l-48 -165h-106l215 700h132l214 -700h-114zM268 584l-94 -322h188zM401 794h-266v78h266v-78z" />
    <glyph glyph-name="Abreve" unicode="&#x102;" horiz-adv-x="544" 
d="M439 0l-48 165h-245l-48 -165h-106l215 700h132l214 -700h-114zM268 584l-94 -322h188zM130 898h79c6 -39 25 -57 59 -57s53 18 59 57h79c-6 -83 -56 -132 -138 -132s-132 49 -138 132z" />
    <glyph glyph-name="Aring" unicode="&#xc5;" horiz-adv-x="544" 
d="M439 0l-48 165h-245l-48 -165h-106l215 700h132l214 -700h-114zM268 584l-94 -322h188zM367 832c0 -51 -41 -89 -99 -89s-99 38 -99 89s41 89 99 89s99 -38 99 -89zM304 832c0 23 -13 36 -36 36s-36 -13 -36 -36s13 -36 36 -36s36 13 36 36z" />
    <glyph glyph-name="Aringacute" unicode="&#x1fa;" horiz-adv-x="544" 
d="M367 833c0 -51 -41 -89 -99 -89s-99 38 -99 89c0 39 24 70 61 83l73 115h109l-93 -121c30 -15 48 -43 48 -77zM304 833c0 23 -13 36 -36 36s-36 -13 -36 -36s13 -36 36 -36s36 13 36 36zM439 0l-48 165h-245l-48 -165h-106l215 700h132l214 -700h-114zM268 584l-94 -322
h188z" />
    <glyph glyph-name="Aogonek" unicode="&#x104;" horiz-adv-x="544" 
d="M439 0l-48 165h-245l-48 -165h-106l215 700h132l214 -700h-17c-34 -22 -59 -49 -59 -80c0 -20 12 -32 32 -32c14 0 28 6 41 22l47 -51c-22 -33 -62 -51 -107 -51c-61 0 -103 35 -103 93c0 40 19 77 52 99zM268 584l-94 -322h188z" />
    <glyph glyph-name="AE" unicode="&#xc6;" horiz-adv-x="823" 
d="M342 700h416v-100h-270v-193h258v-101h-258v-206h284v-100h-392v165h-224l-90 -165h-119zM380 577l-171 -315h171v315z" />
    <glyph glyph-name="AEacute" unicode="&#x1fc;" horiz-adv-x="823" 
d="M342 700h416v-100h-270v-193h258v-101h-258v-206h284v-100h-392v165h-224l-90 -165h-119zM380 577l-171 -315h171v315zM493 912h111l-116 -158h-93z" />
    <glyph glyph-name="Cacute" unicode="&#x106;" horiz-adv-x="558" 
d="M516 503l-104 -13c-6 63 -25 123 -110 123c-109 0 -146 -70 -146 -261c0 -204 65 -265 175 -265c69 0 115 20 162 48l22 -93c-46 -28 -109 -55 -197 -55c-172 0 -274 103 -274 365c0 258 85 361 260 361c141 0 210 -87 212 -210zM349 912h111l-116 -158h-93z" />
    <glyph glyph-name="Ccircumflex" unicode="&#x108;" horiz-adv-x="558" 
d="M516 503l-104 -13c-6 63 -25 123 -110 123c-109 0 -146 -70 -146 -261c0 -204 65 -265 175 -265c69 0 115 20 162 48l22 -93c-46 -28 -109 -55 -197 -55c-172 0 -274 103 -274 365c0 258 85 361 260 361c141 0 210 -87 212 -210zM359 754l-57 90l-57 -90h-87l95 158h98
l95 -158h-87z" />
    <glyph glyph-name="Ccaron" unicode="&#x10c;" horiz-adv-x="558" 
d="M516 503l-104 -13c-6 63 -25 123 -110 123c-109 0 -146 -70 -146 -261c0 -204 65 -265 175 -265c69 0 115 20 162 48l22 -93c-46 -28 -109 -55 -197 -55c-172 0 -274 103 -274 365c0 258 85 361 260 361c141 0 210 -87 212 -210zM302 822l57 90h87l-95 -158h-98l-95 158
h87z" />
    <glyph glyph-name="Cdotaccent" unicode="&#x10a;" horiz-adv-x="558" 
d="M516 503l-104 -13c-6 63 -25 123 -110 123c-109 0 -146 -70 -146 -261c0 -204 65 -265 175 -265c69 0 115 20 162 48l22 -93c-46 -28 -109 -55 -197 -55c-172 0 -274 103 -274 365c0 258 85 361 260 361c141 0 210 -87 212 -210zM256 884h93v-103h-93v103z" />
    <glyph glyph-name="Ccedilla" unicode="&#xc7;" horiz-adv-x="558" 
d="M516 503l-104 -13c-6 63 -25 123 -110 123c-108 0 -146 -70 -146 -261c0 -204 65 -265 175 -265c69 0 115 20 162 48l22 -93c-38 -23 -90 -47 -157 -53c12 -24 19 -50 19 -73c0 -65 -46 -107 -111 -107c-48 0 -93 21 -114 55l47 51c16 -21 35 -27 50 -27
c26 0 38 12 38 43c0 17 -6 39 -17 59c-143 18 -226 125 -226 362c0 258 86 361 260 361c141 0 210 -87 212 -210z" />
    <glyph glyph-name="Dcaron" unicode="&#x10e;" horiz-adv-x="636" 
d="M87 700h225c182 0 280 -101 280 -340c0 -258 -109 -360 -283 -360h-222v700zM195 600v-500h110c108 0 175 56 175 259c0 186 -64 241 -175 241h-110zM322 822l57 90h87l-95 -158h-98l-95 158h87z" />
    <glyph glyph-name="Dcroat" unicode="&#x110;" horiz-adv-x="636" 
d="M87 700h224c183 0 281 -102 281 -341c0 -258 -109 -359 -283 -359h-222v308h-75v97h75v295zM195 600v-195h151v-97h-151v-208h109c108 0 176 55 176 259c0 185 -64 241 -176 241h-109z" />
    <glyph glyph-name="Egrave" unicode="&#xc8;" horiz-adv-x="529" 
d="M87 700h378v-100h-270v-193h258v-101h-258v-206h284v-100h-392v700zM119 912h111l98 -158h-92z" />
    <glyph glyph-name="Eacute" unicode="&#xc9;" horiz-adv-x="529" 
d="M87 700h378v-100h-270v-193h258v-101h-258v-206h284v-100h-392v700zM326 912h111l-116 -158h-93z" />
    <glyph glyph-name="Ecircumflex" unicode="&#xca;" horiz-adv-x="529" 
d="M87 700h378v-100h-270v-193h258v-101h-258v-206h284v-100h-392v700zM336 754l-57 90l-57 -90h-87l95 158h98l95 -158h-87z" />
    <glyph glyph-name="Ecaron" unicode="&#x11a;" horiz-adv-x="529" 
d="M87 700h378v-100h-270v-193h258v-101h-258v-206h284v-100h-392v700zM279 822l57 90h87l-95 -158h-98l-95 158h87z" />
    <glyph glyph-name="Edieresis" unicode="&#xcb;" horiz-adv-x="529" 
d="M87 700h378v-100h-270v-193h258v-101h-258v-206h284v-100h-392v700zM155 884h89v-103h-89v103zM314 884h89v-103h-89v103z" />
    <glyph glyph-name="Emacron" unicode="&#x112;" horiz-adv-x="529" 
d="M87 700h378v-100h-270v-193h258v-101h-258v-206h284v-100h-392v700zM412 798h-266v78h266v-78z" />
    <glyph glyph-name="Ebreve" unicode="&#x114;" horiz-adv-x="529" 
d="M87 700h378v-100h-270v-193h258v-101h-258v-206h284v-100h-392v700zM141 902h79c6 -39 25 -57 59 -57s53 18 59 57h79c-6 -83 -56 -132 -138 -132s-132 49 -138 132z" />
    <glyph glyph-name="Edotaccent" unicode="&#x116;" horiz-adv-x="529" 
d="M87 700h378v-100h-270v-193h258v-101h-258v-206h284v-100h-392v700zM233 888h93v-103h-93v103z" />
    <glyph glyph-name="Eogonek" unicode="&#x118;" horiz-adv-x="529" 
d="M321 0h-234v700h378v-100h-270v-193h258v-101h-258v-206h284v-100h-61c-34 -22 -59 -49 -59 -80c0 -20 12 -32 32 -32c14 0 28 6 41 22l47 -51c-22 -33 -59 -51 -104 -51c-61 0 -106 35 -106 93c0 40 19 77 52 99z" />
    <glyph glyph-name="Gcircumflex" unicode="&#x11c;" horiz-adv-x="647" 
d="M465 490c-7 66 -42 123 -133 123c-110 0 -173 -66 -173 -255c0 -208 62 -271 172 -271c58 0 106 28 136 52v139h-142v96h251v-374h-100v40c-34 -30 -96 -53 -165 -53c-150 0 -267 91 -267 370c0 258 114 356 292 356c158 0 229 -96 232 -211zM386 765l-57 90l-57 -90h-87
l95 158h98l95 -158h-87z" />
    <glyph glyph-name="Gbreve" unicode="&#x11e;" horiz-adv-x="647" 
d="M465 490c-7 66 -42 123 -133 123c-110 0 -173 -66 -173 -255c0 -208 62 -271 172 -271c58 0 106 28 136 52v139h-142v96h251v-374h-100v40c-34 -30 -96 -53 -165 -53c-150 0 -267 91 -267 370c0 258 114 356 292 356c158 0 229 -96 232 -211zM191 902h79
c6 -39 25 -57 59 -57s53 18 59 57h79c-6 -83 -56 -132 -138 -132s-132 49 -138 132z" />
    <glyph glyph-name="Gdotaccent" unicode="&#x120;" horiz-adv-x="647" 
d="M465 490c-7 66 -42 123 -133 123c-110 0 -173 -66 -173 -255c0 -208 62 -271 172 -271c58 0 106 28 136 52v139h-142v96h251v-374h-100v40c-34 -30 -96 -53 -165 -53c-150 0 -267 91 -267 370c0 258 114 356 292 356c158 0 229 -96 232 -211zM283 888h93v-103h-93v103z
" />
    <glyph glyph-name="Gcommaaccent" unicode="&#x122;" horiz-adv-x="647" 
d="M465 490c-7 66 -42 123 -133 123c-110 0 -173 -66 -173 -255c0 -208 62 -271 172 -271c58 0 106 28 136 52v139h-142v96h251v-374h-100v40c-34 -30 -96 -53 -165 -53c-150 0 -267 91 -267 370c0 258 114 356 292 356c158 0 229 -96 232 -211zM282 -40h111l-116 -158h-93z
" />
    <glyph glyph-name="Hcircumflex" unicode="&#x124;" horiz-adv-x="676" 
d="M87 700h108v-293h286v293h108v-700h-108v303h-286v-303h-108v700zM395 754l-57 90l-57 -90h-87l95 158h98l95 -158h-87z" />
    <glyph glyph-name="Hbar" unicode="&#x126;" horiz-adv-x="684" 
d="M91 700h108v-104h286v104h108v-104h75v-76h-75v-520h-108v303h-286v-303h-108v520h-75v76h75v104zM199 407h286v113h-286v-113z" />
    <glyph glyph-name="Igrave" unicode="&#xcc;" horiz-adv-x="282" 
d="M87 700h108v-700h-108v700zM-21 912h111l98 -158h-92z" />
    <glyph glyph-name="Iacute" unicode="&#xcd;" horiz-adv-x="282" 
d="M87 700h108v-700h-108v700zM191 912h111l-116 -158h-93z" />
    <glyph glyph-name="Icircumflex" unicode="&#xce;" horiz-adv-x="282" 
d="M87 700h108v-700h-108v700zM198 754l-57 90l-57 -90h-87l95 158h98l95 -158h-87z" />
    <glyph glyph-name="Itilde" unicode="&#x128;" horiz-adv-x="282" 
d="M87 700h108v-700h-108v700zM53 771l-69 24c11 46 41 92 94 92c43 0 83 -29 112 -29c21 0 32 10 38 35l70 -25c-15 -55 -48 -92 -97 -92c-37 0 -87 30 -116 30c-21 0 -26 -19 -32 -35z" />
    <glyph glyph-name="Idieresis" unicode="&#xcf;" horiz-adv-x="282" 
d="M87 700h108v-700h-108v700zM17 884h89v-103h-89v103zM176 884h89v-103h-89v103z" />
    <glyph glyph-name="Imacron" unicode="&#x12a;" horiz-adv-x="282" 
d="M87 700h108v-700h-108v700zM274 794h-266v78h266v-78z" />
    <glyph glyph-name="Ibreve" unicode="&#x12c;" horiz-adv-x="282" 
d="M87 700h108v-700h-108v700zM3 898h79c6 -39 25 -57 59 -57s53 18 59 57h79c-6 -83 -56 -132 -138 -132s-132 49 -138 132z" />
    <glyph glyph-name="Idotaccent" unicode="&#x130;" horiz-adv-x="282" 
d="M87 700h108v-700h-108v700zM95 884h93v-103h-93v103z" />
    <glyph glyph-name="Iogonek" unicode="&#x12e;" horiz-adv-x="281" 
d="M87 0v700h108v-700c-43 -18 -69 -48 -69 -80c0 -20 13 -32 33 -32c14 0 28 6 41 22l46 -51c-22 -33 -59 -51 -103 -51c-62 0 -106 35 -106 93c0 40 19 77 50 99z" />
    <glyph glyph-name="Jcircumflex" unicode="&#x134;" horiz-adv-x="305" 
d="M113 700h108v-573c0 -88 -53 -140 -131 -140c-36 0 -67 8 -98 26l19 93c15 -10 37 -19 59 -19c28 0 43 14 43 54v559zM225 754l-57 90l-57 -90h-87l95 158h98l95 -158h-87z" />
    <glyph glyph-name="Kcommaaccent" unicode="&#x136;" horiz-adv-x="576" 
d="M87 700h108v-345l245 345h119l-210 -288l230 -412h-125l-177 315l-82 -112v-203h-108v700zM287 -40h112l-117 -158h-93z" />
    <glyph glyph-name="Lacute" unicode="&#x139;" horiz-adv-x="459" 
d="M87 700h108v-600h251v-100h-359v700zM192 912h111l-116 -158h-93z" />
    <glyph glyph-name="Lcaron" unicode="&#x13d;" horiz-adv-x="459" 
d="M87 700h108v-600h251v-100h-359v700zM142 822l57 90h87l-95 -158h-98l-95 158h87z" />
    <glyph glyph-name="Lcommaaccent" unicode="&#x13b;" horiz-adv-x="459" 
d="M221 -40h112l-117 -158h-93zM87 700h108v-600h251v-100h-359v700z" />
    <glyph glyph-name="Lslash" unicode="&#x141;" horiz-adv-x="459" 
d="M87 700h108v-286l181 77v-94l-181 -77v-220h251v-100h-359v275l-78 -33v94l78 32v332z" />
    <glyph glyph-name="Nacute" unicode="&#x143;" horiz-adv-x="684" 
d="M87 700h105l307 -501v501h106v-700h-104l-308 500v-500h-106v700zM388 912h111l-116 -158h-93z" />
    <glyph glyph-name="Ncaron" unicode="&#x147;" horiz-adv-x="684" 
d="M87 700h105l307 -501v501h106v-700h-104l-308 500v-500h-106v700zM342 822l57 90h87l-95 -158h-98l-95 158h87z" />
    <glyph glyph-name="Ntilde" unicode="&#xd1;" horiz-adv-x="684" 
d="M87 700h105l307 -501v501h106v-700h-104l-308 500v-500h-106v700zM254 771l-69 24c11 46 41 92 94 92c43 0 83 -29 112 -29c21 0 32 10 38 35l70 -25c-15 -55 -48 -92 -97 -92c-37 0 -87 30 -116 30c-21 0 -26 -19 -32 -35z" />
    <glyph glyph-name="Ncommaaccent" unicode="&#x145;" horiz-adv-x="684" 
d="M308 -40h112l-117 -158h-93zM87 700h105l307 -501v501h106v-700h-104l-308 500v-500h-106v700z" />
    <glyph glyph-name="Ograve" unicode="&#xd2;" horiz-adv-x="622" 
d="M312 713c156 0 266 -98 266 -363c0 -266 -113 -363 -269 -363c-152 0 -265 97 -265 361c0 267 114 365 268 365zM310 613c-93 0 -156 -62 -156 -264c0 -199 63 -262 156 -262c97 0 154 63 154 264c0 200 -57 262 -154 262zM150 912h111l98 -158h-92z" />
    <glyph glyph-name="Oacute" unicode="&#xd3;" horiz-adv-x="622" 
d="M312 713c156 0 266 -98 266 -363c0 -266 -113 -363 -269 -363c-152 0 -265 97 -265 361c0 267 114 365 268 365zM310 613c-93 0 -156 -62 -156 -264c0 -199 63 -262 156 -262c97 0 154 63 154 264c0 200 -57 262 -154 262zM358 912h111l-116 -158h-93z" />
    <glyph glyph-name="Ocircumflex" unicode="&#xd4;" horiz-adv-x="622" 
d="M312 713c156 0 266 -98 266 -363c0 -266 -113 -363 -269 -363c-152 0 -265 97 -265 361c0 267 114 365 268 365zM310 613c-93 0 -156 -62 -156 -264c0 -199 63 -262 156 -262c97 0 154 63 154 264c0 200 -57 262 -154 262zM368 754l-57 90l-57 -90h-87l95 158h98l95 -158
h-87z" />
    <glyph glyph-name="Otilde" unicode="&#xd5;" horiz-adv-x="622" 
d="M312 713c156 0 266 -98 266 -363c0 -266 -113 -363 -269 -363c-152 0 -265 97 -265 361c0 267 114 365 268 365zM310 613c-93 0 -156 -62 -156 -264c0 -199 63 -262 156 -262c97 0 154 63 154 264c0 200 -57 262 -154 262zM223 771l-69 24c11 46 41 92 94 92
c43 0 83 -29 112 -29c21 0 32 10 38 35l70 -25c-15 -55 -48 -92 -97 -92c-37 0 -87 30 -116 30c-21 0 -26 -19 -32 -35z" />
    <glyph glyph-name="Odieresis" unicode="&#xd6;" horiz-adv-x="622" 
d="M312 713c156 0 266 -98 266 -363c0 -266 -113 -363 -269 -363c-152 0 -265 97 -265 361c0 267 114 365 268 365zM310 613c-93 0 -156 -62 -156 -264c0 -199 63 -262 156 -262c97 0 154 63 154 264c0 200 -57 262 -154 262zM187 884h89v-103h-89v103zM346 884h89v-103h-89
v103z" />
    <glyph glyph-name="Omacron" unicode="&#x14c;" horiz-adv-x="622" 
d="M312 713c156 0 266 -98 266 -363c0 -266 -113 -363 -269 -363c-152 0 -265 97 -265 361c0 267 114 365 268 365zM310 613c-93 0 -156 -62 -156 -264c0 -199 63 -262 156 -262c97 0 154 63 154 264c0 200 -57 262 -154 262zM444 797h-266v78h266v-78z" />
    <glyph glyph-name="Obreve" unicode="&#x14e;" horiz-adv-x="622" 
d="M312 713c156 0 266 -98 266 -363c0 -266 -113 -363 -269 -363c-152 0 -265 97 -265 361c0 267 114 365 268 365zM310 613c-93 0 -156 -62 -156 -264c0 -199 63 -262 156 -262c97 0 154 63 154 264c0 200 -57 262 -154 262zM173 902h79c6 -39 25 -57 59 -57s53 18 59 57
h79c-6 -83 -56 -132 -138 -132s-132 49 -138 132z" />
    <glyph glyph-name="Ohungarumlaut" unicode="&#x150;" horiz-adv-x="622" 
d="M312 713c156 0 266 -98 266 -363c0 -266 -113 -363 -269 -363c-152 0 -265 97 -265 361c0 267 114 365 268 365zM310 613c-93 0 -156 -62 -156 -264c0 -199 63 -262 156 -262c97 0 154 63 154 264c0 200 -57 262 -154 262zM252 923h101l-76 -158h-72zM412 923h107
l-105 -158h-77z" />
    <glyph glyph-name="Oslash" unicode="&#xd8;" horiz-adv-x="622" 
d="M312 713c62 0 117 -16 161 -52l45 71l51 -32l-54 -85c40 -58 63 -144 63 -265c0 -266 -113 -363 -269 -363c-62 0 -118 16 -162 53l-45 -71l-50 31l54 85c-39 58 -62 143 -62 263c0 267 114 365 268 365zM310 613c-93 0 -156 -62 -156 -264c0 -67 7 -119 20 -158l240 378
c-26 31 -61 44 -104 44zM464 351c0 66 -6 117 -18 156l-240 -376c26 -32 62 -44 104 -44c97 0 154 63 154 264z" />
    <glyph glyph-name="Oslashacute" unicode="&#x1fe;" horiz-adv-x="622" 
d="M358 912h111l-116 -158h-93zM311 713c62 0 117 -16 161 -52l45 71l51 -32l-54 -85c40 -58 63 -144 63 -265c0 -266 -113 -363 -269 -363c-62 0 -118 16 -162 53l-45 -71l-50 31l54 85c-39 58 -62 143 -62 263c0 267 114 365 268 365zM309 613c-93 0 -156 -62 -156 -264
c0 -67 7 -119 20 -158l240 378c-26 31 -61 44 -104 44zM463 351c0 66 -6 117 -18 156l-240 -376c26 -32 62 -44 104 -44c97 0 154 63 154 264z" />
    <glyph glyph-name="OE" unicode="&#x152;" horiz-adv-x="918" 
d="M484 700h370v-100h-270v-195h258v-97h-258v-208h284v-100h-384v77c-34 -61 -100 -90 -175 -90c-152 0 -265 97 -265 361c0 267 114 365 268 365c74 0 139 -29 172 -89v76zM310 613c-93 0 -156 -62 -156 -264c0 -199 63 -262 156 -262c97 0 154 63 154 264
c0 200 -57 262 -154 262z" />
    <glyph glyph-name="Racute" unicode="&#x154;" horiz-adv-x="565" 
d="M536 0h-120l-116 266c-13 -2 -27 -3 -41 -3c-21 0 -42 2 -64 5v-268h-108v700h186c152 0 243 -45 243 -214c0 -110 -47 -170 -112 -196zM195 600v-234c25 -4 44 -6 75 -6c88 0 133 34 133 121c0 98 -41 119 -131 119h-77zM327 912h111l-116 -158h-93z" />
    <glyph glyph-name="Rcaron" unicode="&#x158;" horiz-adv-x="565" 
d="M536 0h-120l-116 266c-13 -2 -27 -3 -41 -3c-21 0 -42 2 -64 5v-268h-108v700h186c152 0 243 -45 243 -214c0 -110 -47 -170 -112 -196zM195 600v-234c25 -4 44 -6 75 -6c88 0 133 34 133 121c0 98 -41 119 -131 119h-77zM297 822l57 90h87l-95 -158h-98l-95 158h87z" />
    <glyph glyph-name="Rcommaaccent" unicode="&#x156;" horiz-adv-x="565" 
d="M262 -40h111l-121 -158h-88zM536 0h-120l-116 266c-13 -2 -27 -3 -41 -3c-21 0 -42 2 -64 5v-268h-108v700h186c152 0 243 -45 243 -214c0 -110 -47 -170 -112 -196zM195 600v-234c25 -4 44 -6 75 -6c88 0 133 34 133 121c0 98 -41 119 -131 119h-77z" />
    <glyph glyph-name="Sacute" unicode="&#x15a;" horiz-adv-x="537" 
d="M478 511l-105 -17c-7 60 -22 119 -109 119c-54 0 -100 -26 -100 -86c0 -142 321 -141 321 -345c0 -130 -90 -195 -221 -195c-93 0 -175 41 -226 100l54 82c45 -52 113 -82 177 -82c62 0 105 24 105 83c0 127 -320 133 -320 349c0 132 99 194 211 194
c161 0 207 -111 213 -202zM311 912h111l-116 -158h-93z" />
    <glyph glyph-name="Scircumflex" unicode="&#x15c;" horiz-adv-x="537" 
d="M478 511l-105 -17c-7 60 -22 119 -109 119c-54 0 -100 -26 -100 -86c0 -142 321 -141 321 -345c0 -130 -90 -195 -221 -195c-93 0 -175 41 -226 100l54 82c45 -52 113 -82 177 -82c62 0 105 24 105 83c0 127 -320 133 -320 349c0 132 99 194 211 194
c161 0 207 -111 213 -202zM326 754l-57 90l-57 -90h-87l95 158h98l95 -158h-87z" />
    <glyph glyph-name="Scaron" unicode="&#x160;" horiz-adv-x="537" 
d="M478 511l-105 -17c-7 60 -22 119 -109 119c-54 0 -100 -26 -100 -86c0 -142 321 -141 321 -345c0 -130 -90 -195 -221 -195c-93 0 -175 41 -226 100l54 82c45 -52 113 -82 177 -82c62 0 105 24 105 83c0 127 -320 133 -320 349c0 132 99 194 211 194
c161 0 207 -111 213 -202zM269 822l57 90h87l-95 -158h-98l-95 158h87z" />
    <glyph glyph-name="Scedilla" unicode="&#x15e;" horiz-adv-x="537" 
d="M478 511l-105 -17c-7 60 -22 119 -109 119c-54 0 -100 -26 -100 -86c0 -142 321 -141 321 -345c0 -106 -59 -168 -152 -188c15 -25 22 -54 22 -78c0 -65 -45 -107 -111 -107c-48 0 -92 21 -113 55l46 51c16 -21 35 -27 50 -27c26 0 39 12 39 43c0 17 -7 37 -17 57
c-87 4 -163 43 -211 99l54 82c45 -52 112 -82 176 -82c62 0 106 24 106 83c0 127 -320 133 -320 349c0 132 99 194 211 194c161 0 207 -111 213 -202z" />
    <glyph glyph-name="Scommaaccent" unicode="&#x218;" horiz-adv-x="537" 
d="M231 -40h112l-117 -158h-93zM478 511l-105 -17c-7 60 -22 119 -109 119c-54 0 -100 -26 -100 -86c0 -142 321 -141 321 -345c0 -130 -90 -195 -221 -195c-93 0 -175 41 -226 100l54 82c45 -52 113 -82 177 -82c62 0 105 24 105 83c0 127 -320 133 -320 349
c0 132 99 194 211 194c161 0 207 -111 213 -202z" />
    <glyph glyph-name="Tcaron" unicode="&#x164;" horiz-adv-x="542" 
d="M24 700h495v-100h-194v-600h-108v600h-193v100zM271 822l57 90h87l-95 -158h-98l-95 158h87z" />
    <glyph glyph-name="Tcommaaccent" unicode="&#x162;" horiz-adv-x="542" 
d="M215 -40h111l-121 -158h-88zM24 700h495v-100h-194v-600h-108v600h-193v100z" />
    <glyph glyph-name="Tbar" unicode="&#x166;" horiz-adv-x="543" 
d="M24 700h495v-100h-194v-211h151v-92h-151v-297h-108v297h-149v92h149v211h-193v100z" />
    <glyph glyph-name="Ugrave" unicode="&#xd9;" horiz-adv-x="659" 
d="M79 700h108v-463c0 -95 41 -150 143 -150c101 0 142 51 142 150v463h108v-466c0 -151 -74 -247 -250 -247c-177 0 -251 96 -251 247v466zM166 912h111l98 -158h-92z" />
    <glyph glyph-name="Uacute" unicode="&#xda;" horiz-adv-x="659" 
d="M79 700h108v-463c0 -95 41 -150 143 -150c101 0 142 51 142 150v463h108v-466c0 -151 -74 -247 -250 -247c-177 0 -251 96 -251 247v466zM377 912h111l-116 -158h-93z" />
    <glyph glyph-name="Ucircumflex" unicode="&#xdb;" horiz-adv-x="659" 
d="M79 700h108v-463c0 -95 41 -150 143 -150c101 0 142 51 142 150v463h108v-466c0 -151 -74 -247 -250 -247c-177 0 -251 96 -251 247v466zM386 754l-57 90l-57 -90h-87l95 158h98l95 -158h-87z" />
    <glyph glyph-name="Utilde" unicode="&#x168;" horiz-adv-x="659" 
d="M79 700h108v-463c0 -95 41 -150 143 -150c101 0 142 51 142 150v463h108v-466c0 -151 -74 -247 -250 -247c-177 0 -251 96 -251 247v466zM241 771l-69 24c11 46 41 92 94 92c43 0 83 -29 112 -29c21 0 32 10 38 35l70 -25c-15 -55 -48 -92 -97 -92c-37 0 -87 30 -116 30
c-21 0 -26 -19 -32 -35z" />
    <glyph glyph-name="Udieresis" unicode="&#xdc;" horiz-adv-x="659" 
d="M79 700h108v-463c0 -95 41 -150 143 -150c101 0 142 51 142 150v463h108v-466c0 -151 -74 -247 -250 -247c-177 0 -251 96 -251 247v466zM205 884h89v-103h-89v103zM364 884h89v-103h-89v103z" />
    <glyph glyph-name="Umacron" unicode="&#x16a;" horiz-adv-x="659" 
d="M79 700h108v-463c0 -95 41 -150 143 -150c101 0 142 51 142 150v463h108v-466c0 -151 -74 -247 -250 -247c-177 0 -251 96 -251 247v466zM462 794h-266v78h266v-78z" />
    <glyph glyph-name="Ubreve" unicode="&#x16c;" horiz-adv-x="659" 
d="M79 700h108v-463c0 -95 41 -150 143 -150c101 0 142 51 142 150v463h108v-466c0 -151 -74 -247 -250 -247c-177 0 -251 96 -251 247v466zM191 899h79c6 -39 25 -57 59 -57s53 18 59 57h79c-6 -83 -56 -132 -138 -132s-132 49 -138 132z" />
    <glyph glyph-name="Uring" unicode="&#x16e;" horiz-adv-x="659" 
d="M79 700h108v-463c0 -95 41 -150 143 -150c101 0 142 51 142 150v463h108v-466c0 -151 -74 -247 -250 -247c-177 0 -251 96 -251 247v466zM428 832c0 -51 -41 -89 -99 -89s-99 38 -99 89s41 89 99 89s99 -38 99 -89zM365 832c0 23 -13 36 -36 36s-36 -13 -36 -36
s13 -36 36 -36s36 13 36 36z" />
    <glyph glyph-name="Uhungarumlaut" unicode="&#x170;" horiz-adv-x="659" 
d="M79 700h108v-463c0 -95 41 -150 143 -150c101 0 142 51 142 150v463h108v-466c0 -151 -74 -247 -250 -247c-177 0 -251 96 -251 247v466zM270 912h101l-76 -158h-72zM430 912h107l-105 -158h-77z" />
    <glyph glyph-name="Uogonek" unicode="&#x172;" horiz-adv-x="659" 
d="M79 700h108v-463c0 -95 41 -150 143 -150c101 0 142 51 142 150v463h108v-466c0 -130 -55 -219 -183 -240c-30 -20 -50 -46 -50 -74c0 -20 12 -32 32 -32c14 0 28 6 41 22l47 -51c-22 -33 -59 -51 -104 -51c-61 0 -106 35 -106 93c0 34 14 66 37 88
c-151 12 -215 104 -215 245v466z" />
    <glyph glyph-name="Wgrave" unicode="&#x1e80;" horiz-adv-x="886" 
d="M384 700h118l138 -550l115 550h113l-157 -700h-130l-138 536l-138 -536h-130l-157 700h113l115 -550zM279 916h111l98 -158h-92z" />
    <glyph glyph-name="Wacute" unicode="&#x1e82;" horiz-adv-x="886" 
d="M384 700h118l138 -550l115 550h113l-157 -700h-130l-138 536l-138 -536h-130l-157 700h113l115 -550zM498 916h111l-116 -158h-93z" />
    <glyph glyph-name="Wcircumflex" unicode="&#x174;" horiz-adv-x="886" 
d="M384 700h118l138 -550l115 550h113l-157 -700h-130l-138 536l-138 -536h-130l-157 700h113l115 -550zM500 759l-57 90l-57 -90h-87l95 158h98l95 -158h-87z" />
    <glyph glyph-name="Wdieresis" unicode="&#x1e84;" horiz-adv-x="886" 
d="M384 700h118l138 -550l115 550h113l-157 -700h-130l-138 536l-138 -536h-130l-157 700h113l115 -550zM319 888h89v-103h-89v103zM478 888h89v-103h-89v103z" />
    <glyph glyph-name="Ygrave" unicode="&#x1ef2;" horiz-adv-x="545" 
d="M276 393l147 307h115l-211 -428v-272h-108v272l-211 428h119zM112 923h111l98 -158h-92z" />
    <glyph glyph-name="Yacute" unicode="&#xdd;" horiz-adv-x="545" 
d="M276 393l147 307h115l-211 -428v-272h-108v272l-211 428h119zM324 923h111l-116 -158h-93z" />
    <glyph glyph-name="Ycircumflex" unicode="&#x176;" horiz-adv-x="545" 
d="M276 393l147 307h115l-211 -428v-272h-108v272l-211 428h119zM333 765l-57 90l-57 -90h-87l95 158h98l95 -158h-87z" />
    <glyph glyph-name="Ydieresis" unicode="&#x178;" horiz-adv-x="545" 
d="M276 393l147 307h115l-211 -428v-272h-108v272l-211 428h119zM152 888h89v-103h-89v103zM311 888h89v-103h-89v103z" />
    <glyph glyph-name="Zacute" unicode="&#x179;" horiz-adv-x="553" 
d="M49 700h468v-71l-339 -529h332v-100h-477v69l339 531h-323v100zM333 923h111l-116 -158h-93z" />
    <glyph glyph-name="Zcaron" unicode="&#x17d;" horiz-adv-x="553" 
d="M49 700h468v-71l-339 -529h332v-100h-477v69l339 531h-323v100zM280 833l57 90h87l-95 -158h-98l-95 158h87z" />
    <glyph glyph-name="Zdotaccent" unicode="&#x17b;" horiz-adv-x="553" 
d="M49 700h468v-71l-339 -529h332v-100h-477v69l339 531h-323v100zM234 888h93v-103h-93v103z" />
    <glyph glyph-name="Eng" unicode="&#x14a;" horiz-adv-x="692" 
d="M87 700h101l311 -502v502h106v-695c0 -113 -31 -190 -131 -190c-36 0 -67 8 -98 26l18 93c16 -10 38 -19 60 -19c26 0 43 12 45 49v46l-307 489v-499h-105v700z" />
    <glyph glyph-name="Eth" unicode="&#xd0;" horiz-adv-x="636" 
d="M87 700h224c183 0 281 -102 281 -341c0 -258 -109 -359 -283 -359h-222v308h-75v97h75v295zM195 600v-195h151v-97h-151v-208h109c108 0 176 55 176 259c0 185 -64 241 -176 241h-109z" />
    <glyph glyph-name="Thorn" unicode="&#xde;" horiz-adv-x="564" 
d="M87 700h108v-106h80c172 0 244 -66 244 -229c0 -169 -105 -236 -245 -236c-39 0 -56 3 -79 8v-137h-108v700zM195 498v-264c20 -5 34 -7 70 -7c89 0 145 31 145 132c0 104 -40 139 -135 139h-80z" />
    <glyph glyph-name="a" unicode="a" horiz-adv-x="513" 
d="M321 137v103c-93 3 -171 -31 -171 -99c0 -41 18 -63 60 -63c41 0 81 26 111 59zM321 322v61c0 50 -33 70 -78 70c-47 0 -86 -27 -86 -82l-96 10c3 108 89 163 189 163c110 0 180 -56 180 -151v-277c0 -25 12 -36 29 -36s35 8 52 21l7 -79c-20 -21 -56 -35 -92 -35
c-38 0 -84 16 -89 74c-40 -50 -97 -74 -153 -74c-83 0 -142 48 -142 144c0 136 130 192 279 191z" />
    <glyph glyph-name="b" unicode="b" horiz-adv-x="548" 
d="M78 730l109 20v-253c43 26 88 47 145 47c86 0 177 -54 177 -273c0 -214 -102 -284 -222 -284c-69 0 -152 26 -209 69v674zM187 409v-301c31 -20 63 -30 94 -30c63 0 113 49 113 193c0 141 -49 175 -100 175c-43 0 -72 -15 -107 -37z" />
    <glyph glyph-name="c" unicode="c" horiz-adv-x="475" 
d="M435 362c-33 -3 -65 -6 -98 -10c-3 52 -25 101 -85 101c-66 0 -96 -38 -96 -188s45 -187 124 -187c63 0 104 27 134 48l21 -81c-45 -31 -100 -58 -177 -58c-138 0 -216 87 -216 279c0 185 67 278 214 278c128 0 177 -79 179 -182z" />
    <glyph glyph-name="d" unicode="d" horiz-adv-x="560" 
d="M360 147v276c-32 16 -61 30 -106 30c-50 0 -98 -33 -98 -184c0 -130 44 -182 92 -182c49 0 86 30 112 60zM465 -13c-42 0 -83 18 -88 76c-39 -44 -88 -76 -153 -76c-86 0 -182 66 -182 277c0 205 91 280 189 280c45 0 83 -11 129 -33v219l109 20v-634
c0 -25 12 -36 29 -36s35 8 52 21l7 -79c-20 -21 -56 -35 -92 -35z" />
    <glyph glyph-name="e" unicode="e" horiz-adv-x="491" 
d="M449 236h-293c5 -123 55 -158 130 -158c58 0 109 29 139 52l17 -85c-48 -30 -98 -58 -178 -58c-132 0 -222 79 -222 278c0 197 79 279 215 279c138 0 192 -90 192 -223v-85zM157 321h187c0 90 -26 132 -89 132c-65 0 -93 -39 -98 -132z" />
    <glyph glyph-name="f" unicode="f" horiz-adv-x="313" 
d="M200 443v-524c0 -88 -61 -131 -134 -131c-34 0 -72 9 -105 27l17 87c20 -9 43 -17 63 -17c31 0 50 15 50 55v503h-74v88h74v36c0 129 79 183 190 183c37 0 72 -6 101 -17l-19 -88c-21 8 -47 13 -75 13c-51 0 -88 -25 -88 -88v-39h131l-13 -88h-118z" />
    <glyph glyph-name="g" unicode="g" horiz-adv-x="499" 
d="M208 -16c-43 -20 -88 -50 -88 -88c0 -48 57 -60 119 -60c69 0 141 27 141 73c0 65 -90 64 -172 75zM492 531v-98l-73 4c19 -25 26 -55 26 -97c0 -120 -78 -202 -194 -202c-23 0 -34 1 -52 6c-20 -14 -33 -23 -33 -41c0 -56 322 10 322 -181c0 -115 -121 -171 -252 -171
c-132 0 -219 48 -219 133c0 56 36 96 91 126c-24 13 -45 33 -45 75s30 70 64 94c-45 34 -72 89 -72 163c0 123 78 202 197 202c28 0 54 -5 76 -13h164zM345 341c0 82 -36 115 -94 115s-94 -33 -94 -115s36 -115 94 -115s94 33 94 115z" />
    <glyph glyph-name="h" unicode="h" horiz-adv-x="565" 
d="M187 749v-258c40 29 90 53 154 53c96 0 156 -53 156 -169v-375h-109v353c0 65 -22 88 -83 88c-40 0 -84 -17 -118 -39v-402h-109v729z" />
    <glyph glyph-name="i" unicode="i" horiz-adv-x="265" 
d="M78 531h109v-531h-109v531zM78 720h109v-118h-109v118z" />
    <glyph glyph-name="j" unicode="j" horiz-adv-x="265" 
d="M187 531v-612c0 -88 -61 -131 -134 -131c-34 0 -72 9 -105 27l17 87c20 -9 43 -17 63 -17c31 0 50 15 50 55v591h109zM78 720h109v-118h-109v118z" />
    <glyph glyph-name="k" unicode="k" horiz-adv-x="494" 
d="M187 168v-168h-109v730l109 20v-443l184 224h118l-167 -213l187 -318h-124l-139 238z" />
    <glyph glyph-name="l" unicode="l" horiz-adv-x="294" 
d="M77 730l109 20v-628c0 -29 16 -40 37 -40c23 0 44 9 65 21l11 -84c-41 -22 -73 -32 -111 -32c-89 0 -111 65 -111 135v608z" />
    <glyph glyph-name="m" unicode="m" horiz-adv-x="846" 
d="M176 531v-48c40 31 94 61 160 61c60 0 97 -19 124 -62c54 35 106 62 170 62c95 0 149 -53 149 -169v-375h-109v356c0 66 -26 85 -80 85c-36 0 -78 -19 -110 -39c2 -13 3 -28 3 -43v-359h-109v341c0 75 -14 100 -80 100c-37 0 -74 -18 -107 -39v-402h-109v531h98z" />
    <glyph glyph-name="n" unicode="n" horiz-adv-x="564" 
d="M176 531v-48c42 31 94 61 165 61c96 0 156 -53 156 -169v-375h-109v353c0 65 -22 88 -83 88c-40 0 -84 -17 -118 -39v-402h-109v531h98z" />
    <glyph glyph-name="o" unicode="o" horiz-adv-x="523" 
d="M262 544c149 0 219 -80 219 -281c0 -184 -76 -276 -219 -276c-140 0 -220 80 -220 278c0 195 77 279 220 279zM262 453c-72 0 -108 -42 -108 -188c0 -144 36 -187 108 -187s107 43 107 185c0 148 -35 190 -107 190z" />
    <glyph glyph-name="p" unicode="p" horiz-adv-x="552" 
d="M292 -13c-33 0 -72 10 -105 25v-218l-109 -24v761h98v-48c40 33 90 61 156 61c90 0 177 -54 177 -273c0 -206 -94 -284 -217 -284zM187 409v-301c31 -20 63 -30 94 -30c63 0 113 49 113 193c0 141 -49 175 -100 175c-43 0 -72 -15 -107 -37z" />
    <glyph glyph-name="q" unicode="q" horiz-adv-x="541" 
d="M360 -230v275c-37 -34 -79 -58 -138 -58c-90 0 -180 60 -180 276c0 206 94 281 192 281c62 0 111 -30 145 -53v40h89v-737zM360 143v264c-27 18 -63 42 -105 42c-59 0 -99 -56 -99 -187c0 -142 45 -184 91 -184c49 0 87 36 113 65z" />
    <glyph glyph-name="r" unicode="r" horiz-adv-x="412" 
d="M78 531h98v-52c44 47 88 65 135 65c79 0 94 -72 94 -150l-93 -11c-1 32 -4 54 -34 54c-29 0 -60 -24 -91 -56v-381h-109v531z" />
    <glyph glyph-name="s" unicode="s" horiz-adv-x="448" 
d="M400 387l-91 -16c-4 47 -25 82 -82 82c-42 0 -74 -18 -74 -58c0 -101 248 -92 248 -253c0 -96 -68 -155 -182 -155c-83 0 -148 32 -187 70l36 80c37 -36 92 -59 148 -59c42 0 77 16 77 58c0 84 -245 83 -245 252c0 94 67 156 178 156c123 0 174 -71 174 -157z" />
    <glyph glyph-name="t" unicode="t" horiz-adv-x="363" 
d="M94 620l106 30v-119h133l-14 -87h-119v-302c0 -37 16 -55 46 -55c33 0 62 14 91 30l24 -80c-40 -26 -93 -50 -150 -50c-68 0 -120 37 -120 124v333h-72v87h75v89z" />
    <glyph glyph-name="u" unicode="u" horiz-adv-x="529" 
d="M65 531h109v-364c0 -68 42 -89 90 -89s90 21 90 89v364h109v-361c0 -124 -84 -183 -199 -183s-199 59 -199 183v361z" />
    <glyph glyph-name="v" unicode="v" horiz-adv-x="495" 
d="M5 531h116l133 -411l127 411h109l-177 -531h-127z" />
    <glyph glyph-name="w" unicode="w" horiz-adv-x="764" 
d="M323 531h118l109 -395l94 395h116l-148 -531h-120l-110 391l-110 -391h-120l-148 531h116l94 -395z" />
    <glyph glyph-name="x" unicode="x" horiz-adv-x="482" 
d="M12 531h119l112 -189l115 189h115l-168 -260l167 -271h-121l-117 192l-119 -192h-110l168 266z" />
    <glyph glyph-name="y" unicode="y" horiz-adv-x="486" 
d="M481 531c-63 -169 -126 -339 -187 -509c-49 -136 -104 -236 -231 -236c-35 0 -78 10 -115 28l29 88c30 -15 54 -21 80 -21c71 0 93 53 132 144l-188 506h117l126 -374l130 374h107z" />
    <glyph glyph-name="z" unicode="z" horiz-adv-x="480" 
d="M46 531h390v-72l-259 -368h262v-91h-399v69l260 371h-254v91z" />
    <glyph glyph-name="agrave" unicode="&#xe0;" horiz-adv-x="513" 
d="M321 137v103c-93 3 -171 -31 -171 -99c0 -41 18 -63 60 -63c41 0 81 26 111 59zM321 322v61c0 50 -33 70 -78 70c-47 0 -86 -27 -86 -82l-96 10c3 108 89 163 189 163c110 0 180 -56 180 -151v-277c0 -25 12 -36 29 -36s35 8 52 21l7 -79c-20 -21 -56 -35 -92 -35
c-38 0 -84 16 -89 74c-40 -50 -97 -74 -153 -74c-83 0 -142 48 -142 144c0 136 130 192 279 191zM93 750h111l98 -158h-92z" />
    <glyph glyph-name="aacute" unicode="&#xe1;" horiz-adv-x="513" 
d="M321 137v103c-93 3 -171 -31 -171 -99c0 -41 18 -63 60 -63c41 0 81 26 111 59zM321 322v61c0 50 -33 70 -78 70c-47 0 -86 -27 -86 -82l-96 10c3 108 89 163 189 163c110 0 180 -56 180 -151v-277c0 -25 12 -36 29 -36s35 8 52 21l7 -79c-20 -21 -56 -35 -92 -35
c-38 0 -84 16 -89 74c-40 -50 -97 -74 -153 -74c-83 0 -142 48 -142 144c0 136 130 192 279 191zM305 750h111l-116 -158h-93z" />
    <glyph glyph-name="acircumflex" unicode="&#xe2;" horiz-adv-x="513" 
d="M321 137v103c-93 3 -171 -31 -171 -99c0 -41 18 -63 60 -63c41 0 81 26 111 59zM321 322v61c0 50 -33 70 -78 70c-47 0 -86 -27 -86 -82l-96 10c3 108 89 163 189 163c110 0 180 -56 180 -151v-277c0 -25 12 -36 29 -36s35 8 52 21l7 -79c-20 -21 -56 -35 -92 -35
c-38 0 -84 16 -89 74c-40 -50 -97 -74 -153 -74c-83 0 -142 48 -142 144c0 136 130 192 279 191zM314 592l-57 90l-57 -90h-87l95 158h98l95 -158h-87z" />
    <glyph glyph-name="atilde" unicode="&#xe3;" horiz-adv-x="513" 
d="M321 137v103c-93 3 -171 -31 -171 -99c0 -41 18 -63 60 -63c41 0 81 26 111 59zM321 322v61c0 50 -33 70 -78 70c-47 0 -86 -27 -86 -82l-96 10c3 108 89 163 189 163c110 0 180 -56 180 -151v-277c0 -25 12 -36 29 -36s35 8 52 21l7 -79c-20 -21 -56 -35 -92 -35
c-38 0 -84 16 -89 74c-40 -50 -97 -74 -153 -74c-83 0 -142 48 -142 144c0 136 130 192 279 191zM169 610l-69 24c11 46 41 92 94 92c43 0 83 -29 112 -29c21 0 32 10 38 35l70 -25c-15 -55 -48 -92 -97 -92c-37 0 -87 30 -116 30c-21 0 -26 -19 -32 -35z" />
    <glyph glyph-name="adieresis" unicode="&#xe4;" horiz-adv-x="513" 
d="M321 137v103c-93 3 -171 -31 -171 -99c0 -41 18 -63 60 -63c41 0 81 26 111 59zM321 322v61c0 50 -33 70 -78 70c-47 0 -86 -27 -86 -82l-96 10c3 108 89 163 189 163c110 0 180 -56 180 -151v-277c0 -25 12 -36 29 -36s35 8 52 21l7 -79c-20 -21 -56 -35 -92 -35
c-38 0 -84 16 -89 74c-40 -50 -97 -74 -153 -74c-83 0 -142 48 -142 144c0 136 130 192 279 191zM133 723h89v-103h-89v103zM292 723h89v-103h-89v103z" />
    <glyph glyph-name="amacron" unicode="&#x101;" horiz-adv-x="513" 
d="M321 137v103c-93 3 -171 -31 -171 -99c0 -41 18 -63 60 -63c41 0 81 26 111 59zM321 322v61c0 50 -33 70 -78 70c-47 0 -86 -27 -86 -82l-96 10c3 108 89 163 189 163c110 0 180 -56 180 -151v-277c0 -25 12 -36 29 -36s35 8 52 21l7 -79c-20 -21 -56 -35 -92 -35
c-38 0 -84 16 -89 74c-40 -50 -97 -74 -153 -74c-83 0 -142 48 -142 144c0 136 130 192 279 191zM390 632h-266v78h266v-78z" />
    <glyph glyph-name="abreve" unicode="&#x103;" horiz-adv-x="513" 
d="M321 137v103c-93 3 -171 -31 -171 -99c0 -41 18 -63 60 -63c41 0 81 26 111 59zM321 322v61c0 50 -33 70 -78 70c-47 0 -86 -27 -86 -82l-96 10c3 108 89 163 189 163c110 0 180 -56 180 -151v-277c0 -25 12 -36 29 -36s35 8 52 21l7 -79c-20 -21 -56 -35 -92 -35
c-38 0 -84 16 -89 74c-40 -50 -97 -74 -153 -74c-83 0 -142 48 -142 144c0 136 130 192 279 191zM119 737h79c6 -39 25 -57 59 -57s53 18 59 57h79c-6 -83 -56 -132 -138 -132s-132 49 -138 132z" />
    <glyph glyph-name="aring" unicode="&#xe5;" horiz-adv-x="513" 
d="M321 137v103c-93 3 -171 -31 -171 -99c0 -41 18 -63 60 -63c41 0 81 26 111 59zM321 322v61c0 50 -33 70 -78 70c-47 0 -86 -27 -86 -82l-96 10c3 108 89 163 189 163c110 0 180 -56 180 -151v-277c0 -25 12 -36 29 -36s35 8 52 21l7 -79c-20 -21 -56 -35 -92 -35
c-38 0 -84 16 -89 74c-40 -50 -97 -74 -153 -74c-83 0 -142 48 -142 144c0 136 130 192 279 191zM356 671c0 -51 -41 -89 -99 -89s-99 38 -99 89s41 89 99 89s99 -38 99 -89zM293 671c0 23 -13 36 -36 36s-36 -13 -36 -36s13 -36 36 -36s36 13 36 36z" />
    <glyph glyph-name="aringacute" unicode="&#x1fb;" horiz-adv-x="513" 
d="M356 672c0 -51 -41 -89 -99 -89s-99 38 -99 89c0 38 21 67 59 81l75 117h98l-92 -119c38 -13 58 -45 58 -79zM294 672c0 22 -14 36 -37 36s-36 -13 -36 -36s13 -36 36 -36s37 13 37 36zM321 137v103c-93 3 -171 -31 -171 -99c0 -41 18 -63 60 -63c41 0 81 26 111 59z
M321 322v61c0 50 -33 70 -78 70c-47 0 -86 -27 -86 -82l-96 10c3 108 89 163 189 163c110 0 180 -56 180 -151v-277c0 -25 12 -36 29 -36s35 8 52 21l7 -79c-20 -21 -56 -35 -92 -35c-38 0 -84 16 -89 74c-40 -50 -97 -74 -153 -74c-83 0 -142 48 -142 144
c0 136 130 192 279 191z" />
    <glyph glyph-name="aogonek" unicode="&#x105;" horiz-adv-x="513" 
d="M321 322v61c0 50 -33 70 -78 70c-47 0 -86 -27 -86 -82l-96 10c3 108 89 163 189 163c110 0 180 -56 180 -151v-277c0 -25 12 -36 29 -36s35 8 52 21l7 -79c-14 -15 -36 -26 -60 -31c-27 -20 -45 -44 -45 -71c0 -20 12 -32 32 -32c14 0 28 6 41 22l47 -51
c-22 -33 -59 -51 -104 -51c-61 0 -106 35 -106 93c0 40 18 77 51 99c-19 10 -35 29 -37 61c-40 -50 -97 -74 -153 -74c-83 0 -142 48 -142 144c0 136 130 192 279 191zM321 137v103c-93 3 -171 -30 -171 -98c0 -41 18 -63 60 -63c41 0 81 25 111 58z" />
    <glyph glyph-name="ae" unicode="&#xe6;" horiz-adv-x="758" 
d="M716 321v-85h-293c4 -122 55 -161 130 -161c59 0 109 32 139 55l17 -85c-48 -30 -98 -58 -177 -58c-76 0 -138 25 -173 81c-37 -46 -90 -81 -172 -81c-84 0 -145 43 -145 143c0 143 138 192 279 192v60c0 51 -33 71 -78 71c-47 0 -86 -26 -87 -82l-95 10
c2 108 89 163 189 163c58 0 107 -19 132 -56c31 38 82 56 143 56c136 0 191 -90 191 -223zM212 78c53 0 92 33 119 69c-6 27 -10 58 -11 93c-106 0 -170 -35 -170 -101c0 -41 22 -61 62 -61zM424 321h187c0 90 -25 132 -89 132s-93 -39 -98 -132z" />
    <glyph glyph-name="aeacute" unicode="&#x1fd;" horiz-adv-x="758" 
d="M716 321v-85h-293c4 -122 55 -161 130 -161c59 0 109 32 139 55l17 -85c-48 -30 -98 -58 -177 -58c-76 0 -138 25 -173 81c-37 -46 -90 -81 -172 -81c-84 0 -145 43 -145 143c0 143 138 192 279 192v60c0 51 -33 71 -78 71c-47 0 -86 -26 -87 -82l-95 10
c2 108 89 163 189 163c58 0 107 -19 132 -56c31 38 82 56 143 56c136 0 191 -90 191 -223zM212 78c53 0 92 33 119 69c-6 27 -10 58 -11 93c-106 0 -170 -35 -170 -101c0 -41 22 -61 62 -61zM424 321h187c0 90 -25 132 -89 132s-93 -39 -98 -132zM437 750h111l-116 -158h-93
z" />
    <glyph glyph-name="cacute" unicode="&#x107;" horiz-adv-x="475" 
d="M435 362c-33 -3 -65 -6 -98 -10c-3 52 -25 101 -85 101c-66 0 -96 -38 -96 -188s45 -187 124 -187c63 0 104 27 134 48l21 -81c-45 -31 -100 -58 -177 -58c-138 0 -216 87 -216 279c0 185 67 278 214 278c128 0 177 -79 179 -182zM299 750h111l-116 -158h-93z" />
    <glyph glyph-name="ccircumflex" unicode="&#x109;" horiz-adv-x="475" 
d="M435 362c-33 -3 -65 -6 -98 -10c-3 52 -25 101 -85 101c-66 0 -96 -38 -96 -188s45 -187 124 -187c63 0 104 27 134 48l21 -81c-45 -31 -100 -58 -177 -58c-138 0 -216 87 -216 279c0 185 67 278 214 278c128 0 177 -79 179 -182zM313 592l-57 90l-57 -90h-87l95 158h98
l95 -158h-87z" />
    <glyph glyph-name="ccaron" unicode="&#x10d;" horiz-adv-x="475" 
d="M435 362c-33 -3 -65 -6 -98 -10c-3 52 -25 101 -85 101c-66 0 -96 -38 -96 -188s45 -187 124 -187c63 0 104 27 134 48l21 -81c-45 -31 -100 -58 -177 -58c-138 0 -216 87 -216 279c0 185 67 278 214 278c128 0 177 -79 179 -182zM256 660l57 90h87l-95 -158h-98l-95 158
h87z" />
    <glyph glyph-name="cdotaccent" unicode="&#x10b;" horiz-adv-x="475" 
d="M435 362c-33 -3 -65 -6 -98 -10c-3 52 -25 101 -85 101c-66 0 -96 -38 -96 -188s45 -187 124 -187c63 0 104 27 134 48l21 -81c-45 -31 -100 -58 -177 -58c-138 0 -216 87 -216 279c0 185 67 278 214 278c128 0 177 -79 179 -182zM210 723h93v-103h-93v103z" />
    <glyph glyph-name="ccedilla" unicode="&#xe7;" horiz-adv-x="475" 
d="M435 362c-33 -3 -65 -6 -98 -10c-3 52 -25 101 -85 101c-66 0 -96 -38 -96 -188s45 -187 124 -187c63 0 104 27 134 48l21 -81c-35 -24 -76 -45 -128 -54c14 -24 20 -52 20 -75c0 -65 -45 -107 -111 -107c-48 0 -92 21 -113 55l46 51c16 -21 35 -27 50 -27
c26 0 39 12 39 43c0 17 -7 38 -18 59c-114 15 -178 102 -178 276c0 185 67 278 214 278c128 0 177 -79 179 -182z" />
    <glyph glyph-name="dcaron" unicode="&#x10f;" horiz-adv-x="619" 
d="M561 700h92l-68 -237h-69zM360 147v276c-32 16 -61 30 -106 30c-50 0 -98 -33 -98 -184c0 -130 44 -182 92 -182c49 0 86 30 112 60zM465 -13c-42 0 -83 18 -88 76c-39 -44 -88 -76 -153 -76c-86 0 -182 66 -182 277c0 205 91 280 189 280c45 0 83 -11 129 -33v219
l109 20v-634c0 -25 12 -36 29 -36s35 8 52 21l7 -79c-20 -21 -56 -35 -92 -35z" />
    <glyph glyph-name="dcroat" unicode="&#x111;" horiz-adv-x="560" 
d="M181 600v69h179v61l109 20v-81h78v-69h-78v-484c0 -25 12 -36 29 -36s35 8 52 21l7 -79c-20 -21 -56 -35 -92 -35c-42 0 -83 18 -88 76c-39 -44 -88 -76 -153 -76c-86 0 -182 66 -182 277c0 205 91 280 189 280c45 0 83 -11 129 -33v89h-179zM360 147v276
c-32 16 -61 30 -106 30c-50 0 -98 -33 -98 -184c0 -130 44 -182 92 -182c49 0 86 30 112 60z" />
    <glyph glyph-name="egrave" unicode="&#xe8;" horiz-adv-x="491" 
d="M449 236h-293c5 -123 55 -158 130 -158c58 0 109 29 139 52l17 -85c-48 -30 -98 -58 -178 -58c-132 0 -222 79 -222 278c0 197 79 279 215 279c138 0 192 -90 192 -223v-85zM157 321h187c0 90 -26 132 -89 132c-65 0 -93 -39 -98 -132zM97 750h111l98 -158h-92z" />
    <glyph glyph-name="eacute" unicode="&#xe9;" horiz-adv-x="491" 
d="M449 236h-293c5 -123 55 -158 130 -158c58 0 109 29 139 52l17 -85c-48 -30 -98 -58 -178 -58c-132 0 -222 79 -222 278c0 197 79 279 215 279c138 0 192 -90 192 -223v-85zM157 321h187c0 90 -26 132 -89 132c-65 0 -93 -39 -98 -132zM303 750h111l-116 -158h-93z" />
    <glyph glyph-name="ecircumflex" unicode="&#xea;" horiz-adv-x="491" 
d="M449 236h-293c5 -123 55 -158 130 -158c58 0 109 29 139 52l17 -85c-48 -30 -98 -58 -178 -58c-132 0 -222 79 -222 278c0 197 79 279 215 279c138 0 192 -90 192 -223v-85zM157 321h187c0 90 -26 132 -89 132c-65 0 -93 -39 -98 -132zM313 592l-57 90l-57 -90h-87
l95 158h98l95 -158h-87z" />
    <glyph glyph-name="ecaron" unicode="&#x11b;" horiz-adv-x="491" 
d="M449 236h-293c5 -123 55 -158 130 -158c58 0 109 29 139 52l17 -85c-48 -30 -98 -58 -178 -58c-132 0 -222 79 -222 278c0 197 79 279 215 279c138 0 192 -90 192 -223v-85zM157 321h187c0 90 -26 132 -89 132c-65 0 -93 -39 -98 -132zM256 660l57 90h87l-95 -158h-98
l-95 158h87z" />
    <glyph glyph-name="edieresis" unicode="&#xeb;" horiz-adv-x="491" 
d="M449 236h-293c5 -123 55 -158 130 -158c58 0 109 29 139 52l17 -85c-48 -30 -98 -58 -178 -58c-132 0 -222 79 -222 278c0 197 79 279 215 279c138 0 192 -90 192 -223v-85zM157 321h187c0 90 -26 132 -89 132c-65 0 -93 -39 -98 -132zM133 723h89v-103h-89v103zM292 723
h89v-103h-89v103z" />
    <glyph glyph-name="emacron" unicode="&#x113;" horiz-adv-x="491" 
d="M449 236h-293c5 -123 55 -158 130 -158c58 0 109 29 139 52l17 -85c-48 -30 -98 -58 -178 -58c-132 0 -222 79 -222 278c0 197 79 279 215 279c138 0 192 -90 192 -223v-85zM157 321h187c0 90 -26 132 -89 132c-65 0 -93 -39 -98 -132zM390 632h-266v78h266v-78z" />
    <glyph glyph-name="ebreve" unicode="&#x115;" horiz-adv-x="491" 
d="M449 236h-293c5 -123 55 -158 130 -158c58 0 109 29 139 52l17 -85c-48 -30 -98 -58 -178 -58c-132 0 -222 79 -222 278c0 197 79 279 215 279c138 0 192 -90 192 -223v-85zM157 321h187c0 90 -26 132 -89 132c-65 0 -93 -39 -98 -132zM118 737h79c6 -39 25 -57 59 -57
s53 18 59 57h79c-6 -83 -56 -132 -138 -132s-132 49 -138 132z" />
    <glyph glyph-name="edotaccent" unicode="&#x117;" horiz-adv-x="491" 
d="M449 236h-293c5 -123 55 -158 130 -158c58 0 109 29 139 52l17 -85c-48 -30 -98 -58 -178 -58c-132 0 -222 79 -222 278c0 197 79 279 215 279c138 0 192 -90 192 -223v-85zM157 321h187c0 90 -26 132 -89 132c-65 0 -93 -39 -98 -132zM210 723h93v-103h-93v103z" />
    <glyph glyph-name="eogonek" unicode="&#x119;" horiz-adv-x="491" 
d="M449 321v-85h-293c5 -123 55 -158 130 -158c58 0 109 29 139 52l17 -85c-33 -21 -66 -40 -109 -50c-30 -21 -51 -46 -51 -75c0 -20 12 -32 32 -32c14 0 28 6 41 22l47 -51c-22 -33 -59 -51 -104 -51c-61 0 -106 35 -106 93c0 34 13 66 38 88c-114 13 -188 94 -188 276
c0 197 79 279 215 279c138 0 192 -90 192 -223zM157 321h187c0 90 -26 132 -89 132c-65 0 -93 -39 -98 -132z" />
    <glyph glyph-name="gcircumflex" unicode="&#x11d;" horiz-adv-x="499" 
d="M208 -16c-43 -20 -88 -50 -88 -88c0 -48 57 -60 119 -60c69 0 141 27 141 73c0 65 -90 64 -172 75zM492 531v-98l-73 4c19 -25 26 -55 26 -97c0 -120 -78 -202 -194 -202c-23 0 -34 1 -52 6c-20 -14 -33 -23 -33 -41c0 -56 322 10 322 -181c0 -115 -121 -171 -252 -171
c-132 0 -219 48 -219 133c0 56 36 96 91 126c-24 13 -45 33 -45 75s30 70 64 94c-45 34 -72 89 -72 163c0 123 78 202 197 202c28 0 54 -5 76 -13h164zM345 341c0 82 -36 115 -94 115s-94 -33 -94 -115s36 -115 94 -115s94 33 94 115zM308 592l-57 90l-57 -90h-87l95 158h98
l95 -158h-87z" />
    <glyph glyph-name="gbreve" unicode="&#x11f;" horiz-adv-x="499" 
d="M208 -16c-43 -20 -88 -50 -88 -88c0 -48 57 -60 119 -60c69 0 141 27 141 73c0 65 -90 64 -172 75zM492 531v-98l-73 4c19 -25 26 -55 26 -97c0 -120 -78 -202 -194 -202c-23 0 -34 1 -52 6c-20 -14 -33 -23 -33 -41c0 -56 322 10 322 -181c0 -115 -121 -171 -252 -171
c-132 0 -219 48 -219 133c0 56 36 96 91 126c-24 13 -45 33 -45 75s30 70 64 94c-45 34 -72 89 -72 163c0 123 78 202 197 202c28 0 54 -5 76 -13h164zM345 341c0 82 -36 115 -94 115s-94 -33 -94 -115s36 -115 94 -115s94 33 94 115zM113 737h79c6 -39 25 -57 59 -57
s53 18 59 57h79c-6 -83 -56 -132 -138 -132s-132 49 -138 132z" />
    <glyph glyph-name="gdotaccent" unicode="&#x121;" horiz-adv-x="499" 
d="M208 -16c-43 -20 -88 -50 -88 -88c0 -48 57 -60 119 -60c69 0 141 27 141 73c0 65 -90 64 -172 75zM492 531v-98l-73 4c19 -25 26 -55 26 -97c0 -120 -78 -202 -194 -202c-23 0 -34 1 -52 6c-20 -14 -33 -23 -33 -41c0 -56 322 10 322 -181c0 -115 -121 -171 -252 -171
c-132 0 -219 48 -219 133c0 56 36 96 91 126c-24 13 -45 33 -45 75s30 70 64 94c-45 34 -72 89 -72 163c0 123 78 202 197 202c28 0 54 -5 76 -13h164zM345 341c0 82 -36 115 -94 115s-94 -33 -94 -115s36 -115 94 -115s94 33 94 115zM205 723h93v-103h-93v103z" />
    <glyph glyph-name="gcommaaccent" unicode="&#x123;" horiz-adv-x="499" 
d="M208 -16c-43 -20 -88 -50 -88 -88c0 -48 57 -60 119 -60c69 0 141 27 141 73c0 65 -90 64 -172 75zM492 531v-98l-73 4c19 -25 26 -55 26 -97c0 -120 -78 -202 -194 -202c-23 0 -34 1 -52 6c-20 -14 -33 -23 -33 -41c0 -56 322 10 322 -181c0 -115 -121 -171 -252 -171
c-132 0 -219 48 -219 133c0 56 36 96 91 126c-24 13 -45 33 -45 75s30 70 64 94c-45 34 -72 89 -72 163c0 123 78 202 197 202c28 0 54 -5 76 -13h164zM345 341c0 82 -36 115 -94 115s-94 -33 -94 -115s36 -115 94 -115s94 33 94 115zM302 580h-111l116 158h93z" />
    <glyph glyph-name="hcircumflex" unicode="&#x125;" horiz-adv-x="565" 
d="M187 749v-258c40 29 90 53 154 53c96 0 156 -53 156 -169v-375h-109v353c0 65 -22 88 -83 88c-40 0 -84 -17 -118 -39v-402h-109v729zM191 793l-57 90l-57 -90h-87l95 158h98l95 -158h-87z" />
    <glyph glyph-name="hbar" unicode="&#x127;" horiz-adv-x="571" 
d="M0 600v69h78v60l109 20v-80h179v-69h-179v-109c40 29 90 53 154 53c96 0 156 -53 156 -169v-375h-109v353c0 65 -22 88 -83 88c-40 0 -84 -17 -118 -39v-402h-109v600h-78z" />
    <glyph glyph-name="igrave" unicode="&#xec;" horiz-adv-x="265" 
d="M-28 750h111l98 -158h-92zM78 531h109v-531h-109v531z" />
    <glyph glyph-name="iacute" unicode="&#xed;" horiz-adv-x="265" 
d="M184 750h111l-116 -158h-93zM78 531h109v-531h-109v531z" />
    <glyph glyph-name="icircumflex" unicode="&#xee;" horiz-adv-x="265" 
d="M78 531h109v-531h-109v531zM189 592l-57 90l-57 -90h-87l95 158h98l95 -158h-87z" />
    <glyph glyph-name="itilde" unicode="&#x129;" horiz-adv-x="265" 
d="M44 610l-69 24c11 46 41 92 94 92c43 0 83 -29 112 -29c21 0 32 10 38 35l70 -25c-15 -55 -48 -92 -97 -92c-37 0 -87 30 -116 30c-21 0 -26 -19 -32 -35zM78 531h109v-531h-109v531z" />
    <glyph glyph-name="idieresis" unicode="&#xef;" horiz-adv-x="265" 
d="M8 723h89v-103h-89v103zM167 723h89v-103h-89v103zM78 531h109v-531h-109v531z" />
    <glyph glyph-name="imacron" unicode="&#x12b;" horiz-adv-x="265" 
d="M265 632h-266v78h266v-78zM78 531h109v-531h-109v531z" />
    <glyph glyph-name="ibreve" unicode="&#x12d;" horiz-adv-x="265" 
d="M-6 737h79c6 -39 25 -57 59 -57s53 18 59 57h79c-6 -83 -56 -132 -138 -132s-132 49 -138 132zM78 531h109v-531h-109v531z" />
    <glyph glyph-name="iogonek" unicode="&#x12f;" horiz-adv-x="265" 
d="M78 0v531h109v-531c-43 -19 -71 -46 -71 -80c0 -20 13 -32 33 -32c14 0 28 6 41 22l46 -51c-22 -33 -59 -51 -103 -51c-62 0 -106 35 -106 93c0 40 19 77 51 99zM78 720h109v-118h-109v118z" />
    <glyph glyph-name="dotlessi" unicode="&#x131;" horiz-adv-x="265" 
d="M78 531h109v-531h-109v531z" />
    <glyph glyph-name="jcircumflex" unicode="&#x135;" horiz-adv-x="265" 
d="M187 531v-612c0 -88 -63 -131 -136 -131c-34 0 -70 9 -103 27l17 87c20 -9 43 -17 63 -17c27 0 50 15 50 55v591h109zM189 592l-57 90l-57 -90h-87l95 158h98l95 -158h-87z" />
    <glyph glyph-name="kcommaaccent" unicode="&#x137;" horiz-adv-x="494" 
d="M238 -40h111l-121 -158h-88zM187 168v-168h-109v730l109 20v-443l184 224h118l-167 -213l187 -318h-124l-139 238z" />
    <glyph glyph-name="lacute" unicode="&#x13a;" horiz-adv-x="294" 
d="M77 730l109 20v-628c0 -29 16 -40 37 -40c23 0 44 9 65 21l11 -84c-41 -22 -73 -32 -111 -32c-89 0 -111 65 -111 135v608zM182 934h111l-116 -158h-93z" />
    <glyph glyph-name="lcaron" unicode="&#x13e;" horiz-adv-x="335" 
d="M278 700h92l-69 -237h-69zM77 730l109 20v-628c0 -29 16 -40 37 -40c23 0 44 9 65 21l11 -84c-41 -22 -73 -32 -111 -32c-89 0 -111 65 -111 135v608z" />
    <glyph glyph-name="lcommaaccent" unicode="&#x13c;" horiz-adv-x="294" 
d="M142 -40h111l-121 -158h-88zM77 730l109 20v-628c0 -29 16 -40 37 -40c23 0 44 9 65 21l11 -84c-41 -22 -73 -32 -111 -32c-89 0 -111 65 -111 135v608z" />
    <glyph glyph-name="lslash" unicode="&#x142;" horiz-adv-x="294" 
d="M77 730l109 20v-287l74 42v-88l-74 -42v-253c0 -29 16 -40 37 -40c23 0 44 9 65 21l11 -84c-41 -22 -73 -32 -111 -32c-89 0 -111 65 -111 135v192l-73 -41v88l73 41v328z" />
    <glyph glyph-name="nacute" unicode="&#x144;" horiz-adv-x="564" 
d="M176 531v-48c42 31 94 61 165 61c96 0 156 -53 156 -169v-375h-109v353c0 65 -22 88 -83 88c-40 0 -84 -17 -118 -39v-402h-109v531h98zM338 750h111l-116 -158h-93z" />
    <glyph glyph-name="ncaron" unicode="&#x148;" horiz-adv-x="564" 
d="M176 531v-48c42 31 94 61 165 61c96 0 156 -53 156 -169v-375h-109v353c0 65 -22 88 -83 88c-40 0 -84 -17 -118 -39v-402h-109v531h98zM287 660l57 90h87l-95 -158h-98l-95 158h87z" />
    <glyph glyph-name="ntilde" unicode="&#xf1;" horiz-adv-x="564" 
d="M176 531v-48c42 31 94 61 165 61c96 0 156 -53 156 -169v-375h-109v353c0 65 -22 88 -83 88c-40 0 -84 -17 -118 -39v-402h-109v531h98zM199 610l-69 24c11 46 41 92 94 92c43 0 83 -29 112 -29c21 0 32 10 38 35l70 -25c-15 -55 -48 -92 -97 -92c-37 0 -87 30 -116 30
c-21 0 -26 -19 -32 -35z" />
    <glyph glyph-name="ncommaaccent" unicode="&#x146;" horiz-adv-x="564" 
d="M242 -40h111l-121 -158h-88zM176 531v-48c42 31 94 61 165 61c96 0 156 -53 156 -169v-375h-109v353c0 65 -22 88 -83 88c-40 0 -84 -17 -118 -39v-402h-109v531h98z" />
    <glyph glyph-name="ograve" unicode="&#xf2;" horiz-adv-x="523" 
d="M262 544c149 0 219 -80 219 -281c0 -184 -76 -276 -219 -276c-140 0 -220 80 -220 278c0 195 77 279 220 279zM262 453c-72 0 -108 -42 -108 -188c0 -144 36 -187 108 -187s107 43 107 185c0 148 -35 190 -107 190zM100 750h111l98 -158h-92z" />
    <glyph glyph-name="oacute" unicode="&#xf3;" horiz-adv-x="523" 
d="M262 544c149 0 219 -80 219 -281c0 -184 -76 -276 -219 -276c-140 0 -220 80 -220 278c0 195 77 279 220 279zM262 453c-72 0 -108 -42 -108 -188c0 -144 36 -187 108 -187s107 43 107 185c0 148 -35 190 -107 190zM308 750h111l-116 -158h-93z" />
    <glyph glyph-name="ocircumflex" unicode="&#xf4;" horiz-adv-x="523" 
d="M262 544c149 0 219 -80 219 -281c0 -184 -76 -276 -219 -276c-140 0 -220 80 -220 278c0 195 77 279 220 279zM262 453c-72 0 -108 -42 -108 -188c0 -144 36 -187 108 -187s107 43 107 185c0 148 -35 190 -107 190zM318 592l-57 90l-57 -90h-87l95 158h98l95 -158h-87z
" />
    <glyph glyph-name="otilde" unicode="&#xf5;" horiz-adv-x="523" 
d="M262 544c149 0 219 -80 219 -281c0 -184 -76 -276 -219 -276c-140 0 -220 80 -220 278c0 195 77 279 220 279zM262 453c-72 0 -108 -42 -108 -188c0 -144 36 -187 108 -187s107 43 107 185c0 148 -35 190 -107 190zM173 610l-69 24c11 46 41 92 94 92
c43 0 83 -29 112 -29c21 0 32 10 38 35l70 -25c-15 -55 -48 -92 -97 -92c-37 0 -87 30 -116 30c-21 0 -26 -19 -32 -35z" />
    <glyph glyph-name="odieresis" unicode="&#xf6;" horiz-adv-x="523" 
d="M262 544c149 0 219 -80 219 -281c0 -184 -76 -276 -219 -276c-140 0 -220 80 -220 278c0 195 77 279 220 279zM262 453c-72 0 -108 -42 -108 -188c0 -144 36 -187 108 -187s107 43 107 185c0 148 -35 190 -107 190zM137 723h89v-103h-89v103zM296 723h89v-103h-89v103z
" />
    <glyph glyph-name="omacron" unicode="&#x14d;" horiz-adv-x="523" 
d="M262 544c149 0 219 -80 219 -281c0 -184 -76 -276 -219 -276c-140 0 -220 80 -220 278c0 195 77 279 220 279zM262 453c-72 0 -108 -42 -108 -188c0 -144 36 -187 108 -187s107 43 107 185c0 148 -35 190 -107 190zM394 632h-266v78h266v-78z" />
    <glyph glyph-name="obreve" unicode="&#x14f;" horiz-adv-x="523" 
d="M262 544c149 0 219 -80 219 -281c0 -184 -76 -276 -219 -276c-140 0 -220 80 -220 278c0 195 77 279 220 279zM262 453c-72 0 -108 -42 -108 -188c0 -144 36 -187 108 -187s107 43 107 185c0 148 -35 190 -107 190zM123 737h79c6 -39 25 -57 59 -57s53 18 59 57h79
c-6 -83 -56 -132 -138 -132s-132 49 -138 132z" />
    <glyph glyph-name="ohungarumlaut" unicode="&#x151;" horiz-adv-x="523" 
d="M262 544c149 0 219 -80 219 -281c0 -184 -76 -276 -219 -276c-140 0 -220 80 -220 278c0 195 77 279 220 279zM262 453c-72 0 -108 -42 -108 -188c0 -144 36 -187 108 -187s107 43 107 185c0 148 -35 190 -107 190zM203 750h101l-76 -158h-72zM363 750h107l-105 -158h-77
z" />
    <glyph glyph-name="oslash" unicode="&#xf8;" horiz-adv-x="523" 
d="M262 544c60 0 107 -12 141 -41l43 58l46 -30l-52 -70c27 -45 41 -110 41 -198c0 -184 -76 -276 -219 -276c-59 0 -106 14 -142 45l-46 -63l-43 31l53 73c-27 44 -42 107 -42 192c0 195 77 279 220 279zM262 453c-72 0 -108 -42 -108 -188c0 -34 3 -73 7 -94l178 247
c-17 26 -43 35 -77 35zM362 358l-180 -242c18 -28 45 -38 80 -38c72 0 107 43 107 185c0 40 -3 71 -7 95z" />
    <glyph glyph-name="oslashacute" unicode="&#x1ff;" horiz-adv-x="523" 
d="M262 544c60 0 107 -12 141 -41l43 58l46 -30l-52 -70c27 -45 41 -110 41 -198c0 -184 -76 -276 -219 -276c-59 0 -106 14 -142 45l-46 -63l-43 31l53 73c-27 44 -42 107 -42 192c0 195 77 279 220 279zM262 453c-72 0 -108 -42 -108 -188c0 -34 3 -73 7 -94l178 247
c-17 26 -43 35 -77 35zM362 358l-180 -242c18 -28 45 -38 80 -38c72 0 107 43 107 185c0 40 -3 71 -7 95zM299 750h111l-116 -158h-93z" />
    <glyph glyph-name="oe" unicode="&#x153;" horiz-adv-x="815" 
d="M262 544c83 0 133 -26 161 -86c30 60 82 86 158 86c138 0 192 -90 192 -222v-86h-293c5 -122 55 -158 129 -158c59 0 110 30 140 52l16 -84c-47 -31 -97 -59 -177 -59c-78 0 -133 28 -165 93c-29 -62 -81 -93 -161 -93c-140 0 -220 80 -220 278c0 195 77 279 220 279z
M262 456c-72 0 -108 -45 -108 -191c0 -144 36 -189 108 -189s107 45 107 187c0 148 -35 193 -107 193zM481 321h187c0 90 -26 132 -90 132s-92 -38 -97 -132z" />
    <glyph glyph-name="racute" unicode="&#x155;" horiz-adv-x="412" 
d="M78 531h98v-52c44 47 88 65 135 65c79 0 94 -72 94 -150l-93 -11c-1 32 -4 54 -34 54c-29 0 -60 -24 -91 -56v-381h-109v531zM282 750h111l-116 -158h-93z" />
    <glyph glyph-name="rcommaaccent" unicode="&#x157;" horiz-adv-x="412" 
d="M76 -40h111l-121 -158h-88zM78 531h98v-52c44 47 88 65 135 65c79 0 94 -72 94 -150l-93 -11c-1 32 -4 54 -34 54c-29 0 -60 -24 -91 -56v-381h-109v531z" />
    <glyph glyph-name="rcaron" unicode="&#x159;" horiz-adv-x="412" 
d="M78 531h98v-52c44 47 88 65 135 65c79 0 94 -72 94 -150l-93 -11c-1 32 -4 54 -34 54c-29 0 -60 -24 -91 -56v-381h-109v531zM238 660l57 90h87l-95 -158h-98l-95 158h87z" />
    <glyph glyph-name="sacute" unicode="&#x15b;" horiz-adv-x="448" 
d="M400 387l-91 -16c-4 47 -25 82 -82 82c-42 0 -74 -18 -74 -58c0 -101 248 -92 248 -253c0 -96 -68 -155 -182 -155c-83 0 -148 32 -187 70l36 80c37 -36 92 -59 148 -59c42 0 77 16 77 58c0 84 -245 83 -245 252c0 94 67 156 178 156c123 0 174 -71 174 -157zM270 750
h111l-116 -158h-93z" />
    <glyph glyph-name="scircumflex" unicode="&#x15d;" horiz-adv-x="448" 
d="M400 387l-91 -16c-4 47 -25 82 -82 82c-42 0 -74 -18 -74 -58c0 -101 248 -92 248 -253c0 -96 -68 -155 -182 -155c-83 0 -148 32 -187 70l36 80c37 -36 92 -59 148 -59c42 0 77 16 77 58c0 84 -245 83 -245 252c0 94 67 156 178 156c123 0 174 -71 174 -157zM284 592
l-57 90l-57 -90h-87l95 158h98l95 -158h-87z" />
    <glyph glyph-name="scaron" unicode="&#x161;" horiz-adv-x="448" 
d="M400 387l-91 -16c-4 47 -25 82 -82 82c-42 0 -74 -18 -74 -58c0 -101 248 -92 248 -253c0 -96 -68 -155 -182 -155c-83 0 -148 32 -187 70l36 80c37 -36 92 -59 148 -59c42 0 77 16 77 58c0 84 -245 83 -245 252c0 94 67 156 178 156c123 0 174 -71 174 -157zM227 660
l57 90h87l-95 -158h-98l-95 158h87z" />
    <glyph glyph-name="scedilla" unicode="&#x15f;" horiz-adv-x="448" 
d="M400 387l-91 -16c-4 47 -25 82 -82 82c-42 0 -74 -18 -74 -58c0 -101 248 -92 248 -253c0 -76 -43 -129 -118 -147c15 -26 22 -55 22 -79c0 -65 -45 -107 -111 -107c-48 0 -92 21 -113 55l46 51c16 -21 35 -27 50 -27c26 0 39 12 39 43c0 17 -7 37 -17 57
c-74 4 -131 34 -167 69l36 80c37 -36 92 -59 148 -59c42 0 77 16 77 58c0 84 -245 83 -245 252c0 94 67 156 178 156c123 0 174 -71 174 -157z" />
    <glyph glyph-name="scommaaccent" unicode="&#x219;" horiz-adv-x="448" 
d="M182 -40h112l-117 -158h-93zM400 387l-91 -16c-4 47 -25 82 -82 82c-42 0 -74 -18 -74 -58c0 -101 248 -92 248 -253c0 -96 -68 -155 -182 -155c-83 0 -148 32 -187 70l36 80c37 -36 92 -59 148 -59c42 0 77 16 77 58c0 84 -245 83 -245 252c0 94 67 156 178 156
c123 0 174 -71 174 -157z" />
    <glyph glyph-name="germandbls" unicode="&#xdf;" horiz-adv-x="560" 
d="M186 0h-109v566c0 129 89 195 205 195c121 0 207 -58 207 -168c0 -99 -79 -139 -79 -205c0 -84 142 -97 142 -244c0 -89 -62 -157 -162 -157c-73 0 -125 27 -161 68l45 75c26 -30 60 -52 106 -52c44 0 64 24 64 65c0 87 -139 98 -139 232c0 81 73 117 73 205
c0 47 -31 82 -91 82c-63 0 -101 -36 -101 -103v-559z" />
    <glyph glyph-name="longs" unicode="&#x17f;" horiz-adv-x="286" 
d="M17 531h74v36c0 129 79 183 190 183c37 0 72 -6 101 -17l-19 -88c-21 8 -47 13 -75 13c-51 0 -88 -25 -88 -88v-651c0 -88 -61 -131 -134 -131c-34 0 -72 9 -105 27l17 87c20 -9 43 -17 63 -17c31 0 50 15 50 55v503h-74v88z" />
    <glyph glyph-name="tcaron" unicode="&#x165;" horiz-adv-x="363" 
d="M284 755h94l-67 -182h-70zM94 620l106 30v-119h133l-14 -87h-119v-302c0 -37 16 -55 46 -55c33 0 62 14 91 30l24 -80c-40 -26 -93 -50 -150 -50c-68 0 -120 37 -120 124v333h-72v87h75v89z" />
    <glyph glyph-name="tcommaaccent" unicode="&#x163;" horiz-adv-x="363" 
d="M175 -40h112l-117 -158h-93zM94 620l106 30v-119h133l-14 -87h-119v-302c0 -37 16 -55 46 -55c33 0 62 14 91 30l24 -80c-40 -26 -93 -50 -150 -50c-68 0 -120 37 -120 124v333h-72v87h75v89z" />
    <glyph glyph-name="tbar" unicode="&#x167;" horiz-adv-x="371" 
d="M94 620l106 30v-119h133l-14 -87h-119v-108h117v-75h-117v-119c0 -37 16 -55 46 -55c33 0 62 14 91 30l24 -80c-40 -26 -93 -50 -150 -50c-68 0 -120 38 -120 124v150h-73v75h73v108h-72v87h75v89z" />
    <glyph glyph-name="ugrave" unicode="&#xf9;" horiz-adv-x="529" 
d="M65 531h109v-364c0 -68 42 -89 90 -89s90 21 90 89v364h109v-361c0 -124 -84 -183 -199 -183s-199 59 -199 183v361zM104 750h111l98 -158h-92z" />
    <glyph glyph-name="uacute" unicode="&#xfa;" horiz-adv-x="529" 
d="M65 531h109v-364c0 -68 42 -89 90 -89s90 21 90 89v364h109v-361c0 -124 -84 -183 -199 -183s-199 59 -199 183v361zM312 750h111l-116 -158h-93z" />
    <glyph glyph-name="ucircumflex" unicode="&#xfb;" horiz-adv-x="529" 
d="M65 531h109v-364c0 -68 42 -89 90 -89s90 21 90 89v364h109v-361c0 -124 -84 -183 -199 -183s-199 59 -199 183v361zM321 592l-57 90l-57 -90h-87l95 158h98l95 -158h-87z" />
    <glyph glyph-name="utilde" unicode="&#x169;" horiz-adv-x="529" 
d="M65 531h109v-364c0 -68 42 -89 90 -89s90 21 90 89v364h109v-361c0 -124 -84 -183 -199 -183s-199 59 -199 183v361zM176 610l-69 24c11 46 41 92 94 92c43 0 83 -29 112 -29c21 0 32 10 38 35l70 -25c-15 -55 -48 -92 -97 -92c-37 0 -87 30 -116 30
c-21 0 -26 -19 -32 -35z" />
    <glyph glyph-name="udieresis" unicode="&#xfc;" horiz-adv-x="529" 
d="M65 531h109v-364c0 -68 42 -89 90 -89s90 21 90 89v364h109v-361c0 -124 -84 -183 -199 -183s-199 59 -199 183v361zM140 723h89v-103h-89v103zM299 723h89v-103h-89v103z" />
    <glyph glyph-name="umacron" unicode="&#x16b;" horiz-adv-x="529" 
d="M65 531h109v-364c0 -68 42 -89 90 -89s90 21 90 89v364h109v-361c0 -124 -84 -183 -199 -183s-199 59 -199 183v361zM397 632h-266v78h266v-78z" />
    <glyph glyph-name="ubreve" unicode="&#x16d;" horiz-adv-x="529" 
d="M65 531h109v-364c0 -68 42 -89 90 -89s90 21 90 89v364h109v-361c0 -124 -84 -183 -199 -183s-199 59 -199 183v361zM126 737h79c6 -39 25 -57 59 -57s53 18 59 57h79c-6 -83 -56 -132 -138 -132s-132 49 -138 132z" />
    <glyph glyph-name="uring" unicode="&#x16f;" horiz-adv-x="529" 
d="M65 531h109v-364c0 -68 42 -89 90 -89s90 21 90 89v364h109v-361c0 -124 -84 -183 -199 -183s-199 59 -199 183v361zM363 671c0 -51 -41 -89 -99 -89s-99 38 -99 89s41 89 99 89s99 -38 99 -89zM300 671c0 23 -13 36 -36 36s-36 -13 -36 -36s13 -36 36 -36s36 13 36 36z
" />
    <glyph glyph-name="uhungarumlaut" unicode="&#x171;" horiz-adv-x="529" 
d="M65 531h109v-364c0 -68 42 -89 90 -89s90 21 90 89v364h109v-361c0 -124 -84 -183 -199 -183s-199 59 -199 183v361zM206 750h101l-76 -158h-72zM366 750h107l-105 -158h-77z" />
    <glyph glyph-name="uogonek" unicode="&#x173;" horiz-adv-x="529" 
d="M65 531h109v-364c0 -68 42 -89 90 -89s90 21 90 89v364h109v-361c0 -95 -49 -152 -123 -173c-31 -21 -54 -47 -54 -77c0 -20 12 -32 32 -32c14 0 28 6 41 22l47 -51c-22 -33 -59 -51 -104 -51c-61 0 -106 35 -106 93c0 34 13 66 37 88c-99 10 -168 68 -168 181v361z" />
    <glyph glyph-name="wgrave" unicode="&#x1e81;" horiz-adv-x="764" 
d="M323 531h118l109 -395l94 395h116l-148 -531h-120l-110 391l-110 -391h-120l-148 531h116l94 -395zM222 750h111l98 -158h-92z" />
    <glyph glyph-name="wacute" unicode="&#x1e83;" horiz-adv-x="764" 
d="M323 531h118l109 -395l94 395h116l-148 -531h-120l-110 391l-110 -391h-120l-148 531h116l94 -395zM437 750h111l-116 -158h-93z" />
    <glyph glyph-name="wcircumflex" unicode="&#x175;" horiz-adv-x="764" 
d="M323 531h118l109 -395l94 395h116l-148 -531h-120l-110 391l-110 -391h-120l-148 531h116l94 -395zM439 592l-57 90l-57 -90h-87l95 158h98l95 -158h-87z" />
    <glyph glyph-name="wdieresis" unicode="&#x1e85;" horiz-adv-x="764" 
d="M323 531h118l109 -395l94 395h116l-148 -531h-120l-110 391l-110 -391h-120l-148 531h116l94 -395zM258 723h89v-103h-89v103zM417 723h89v-103h-89v103z" />
    <glyph glyph-name="ygrave" unicode="&#x1ef3;" horiz-adv-x="486" 
d="M481 531c-63 -169 -126 -339 -187 -509c-49 -136 -104 -236 -231 -236c-35 0 -78 10 -115 28l29 88c30 -15 54 -21 80 -21c71 0 93 53 132 144l-188 506h117l126 -374l130 374h107zM82 750h111l98 -158h-92z" />
    <glyph glyph-name="yacute" unicode="&#xfd;" horiz-adv-x="486" 
d="M481 531c-63 -169 -126 -339 -187 -509c-49 -136 -104 -236 -231 -236c-35 0 -78 10 -115 28l29 88c30 -15 54 -21 80 -21c71 0 93 53 132 144l-188 506h117l126 -374l130 374h107zM289 750h111l-116 -158h-93z" />
    <glyph glyph-name="ycircumflex" unicode="&#x177;" horiz-adv-x="486" 
d="M481 531c-63 -169 -126 -339 -187 -509c-49 -136 -104 -236 -231 -236c-35 0 -78 10 -115 28l29 88c30 -15 54 -21 80 -21c71 0 93 53 132 144l-188 506h117l126 -374l130 374h107zM301 592l-57 90l-57 -90h-87l95 158h98l95 -158h-87z" />
    <glyph glyph-name="ydieresis" unicode="&#xff;" horiz-adv-x="486" 
d="M481 531c-63 -169 -126 -339 -187 -509c-49 -136 -104 -236 -231 -236c-35 0 -78 10 -115 28l29 88c30 -15 54 -21 80 -21c71 0 93 53 132 144l-188 506h117l126 -374l130 374h107zM120 723h89v-103h-89v103zM279 723h89v-103h-89v103z" />
    <glyph glyph-name="zacute" unicode="&#x17a;" horiz-adv-x="480" 
d="M46 531h390v-72l-259 -368h262v-91h-399v69l260 371h-254v91zM290 750h111l-116 -158h-93z" />
    <glyph glyph-name="zcaron" unicode="&#x17e;" horiz-adv-x="480" 
d="M46 531h390v-72l-259 -368h262v-91h-399v69l260 371h-254v91zM244 660l57 90h87l-95 -158h-98l-95 158h87z" />
    <glyph glyph-name="zdotaccent" unicode="&#x17c;" horiz-adv-x="480" 
d="M46 531h390v-72l-259 -368h262v-91h-399v69l260 371h-254v91zM198 723h93v-103h-93v103z" />
    <glyph glyph-name="eng" unicode="&#x14b;" horiz-adv-x="571" 
d="M176 531v-48c42 31 94 61 165 61c96 0 156 -53 156 -169v-456c0 -88 -61 -131 -134 -131c-34 0 -72 9 -105 27l17 87c20 -9 43 -17 63 -17c31 0 50 15 50 55v413c0 65 -22 88 -83 88c-40 0 -84 -17 -118 -39v-402h-109v531h98z" />
    <glyph glyph-name="eth" unicode="&#xf0;" horiz-adv-x="523" 
d="M481 270c0 -188 -74 -283 -220 -283c-139 0 -219 80 -219 278c0 195 76 279 220 279c29 0 51 -7 67 -17c-13 30 -28 58 -44 82l-162 -24v69l122 18c-18 24 -31 38 -51 58l98 20c19 -19 37 -38 55 -64l116 18v-68l-78 -12c52 -89 96 -203 96 -354zM262 453
c-72 0 -108 -42 -108 -188c0 -144 36 -187 108 -187s107 43 107 185c0 148 -35 190 -107 190z" />
    <glyph glyph-name="thorn" unicode="&#xfe;" horiz-adv-x="552" 
d="M292 -13c-33 0 -72 10 -105 25v-218l-109 -24v960l109 20v-258c39 29 84 52 145 52c90 0 177 -54 177 -273c0 -206 -94 -284 -217 -284zM187 409v-301c31 -20 63 -30 94 -30c63 0 113 49 113 193c0 141 -49 175 -100 175c-43 0 -72 -15 -107 -37z" />
    <glyph glyph-name="f_f" unicode="&#xfb00;" horiz-adv-x="622" 
d="M509 443v-524c0 -88 -61 -131 -134 -131c-34 0 -72 9 -105 27l17 87c20 -9 43 -17 63 -17c31 0 50 15 50 55v503h-200v-524c0 -88 -61 -131 -134 -131c-34 0 -72 9 -105 27l17 87c20 -9 43 -17 63 -17c31 0 50 15 50 55v503h-74v88h74v36c0 129 79 183 190 183
c37 0 72 -6 101 -17l-19 -88c-21 8 -47 13 -75 13c-51 0 -88 -25 -88 -88v-39h200v36c0 129 79 183 190 183c37 0 72 -6 101 -17l-19 -88c-21 8 -47 13 -75 13c-51 0 -88 -25 -88 -88v-39h131l-13 -88h-118z" />
    <glyph glyph-name="f_f_i" unicode="&#xfb03;" horiz-adv-x="894" 
d="M509 443v-524c0 -88 -61 -131 -134 -131c-34 0 -72 9 -105 27l17 87c20 -9 43 -17 63 -17c31 0 50 15 50 55v503h-200v-524c0 -88 -61 -131 -134 -131c-34 0 -72 9 -105 27l17 87c20 -9 43 -17 63 -17c31 0 50 15 50 55v503h-74v88h74v36c0 129 79 183 190 183
c37 0 72 -6 101 -17l-19 -88c-21 8 -47 13 -75 13c-51 0 -88 -25 -88 -88v-39h200v36c0 129 79 183 190 183c37 0 72 -6 101 -17l-19 -88c-21 8 -47 13 -75 13c-51 0 -88 -25 -88 -88v-39h307v-531h-109v443h-198zM707 720h109v-118h-109v118z" />
    <glyph glyph-name="f_f_l" unicode="&#xfb04;" horiz-adv-x="925" 
d="M708 730l109 20v-628c0 -29 16 -40 37 -40c23 0 44 9 65 21l11 -84c-41 -22 -73 -32 -111 -32c-89 0 -111 65 -111 135v608zM509 443v-524c0 -88 -61 -131 -134 -131c-34 0 -72 9 -105 27l17 87c20 -9 43 -17 63 -17c31 0 50 15 50 55v503h-200v-524
c0 -88 -61 -131 -134 -131c-34 0 -72 9 -105 27l17 87c20 -9 43 -17 63 -17c31 0 50 15 50 55v503h-74v88h74v36c0 129 79 183 190 183c37 0 72 -6 101 -17l-19 -88c-21 8 -47 13 -75 13c-51 0 -88 -25 -88 -88v-39h200v36c0 129 79 183 190 183c37 0 72 -6 101 -17l-19 -88
c-21 8 -47 13 -75 13c-51 0 -88 -25 -88 -88v-39h131l-13 -88h-118z" />
    <glyph glyph-name="ampersand" unicode="&#x26;" horiz-adv-x="584" 
d="M548 337c0 -7 1 -14 1 -21c0 -54 -13 -116 -33 -162l157 -154h-141l-75 70c-42 -51 -107 -83 -191 -83c-172 0 -243 89 -243 200c0 84 50 145 131 185c-46 52 -76 98 -76 167c0 101 75 174 194 174c144 0 196 -79 196 -170s-57 -151 -147 -194l120 -119
c9 25 14 55 14 107h93zM222 302c-50 -26 -86 -58 -86 -116c0 -71 57 -99 126 -99c51 0 98 19 123 53zM253 418c80 37 108 68 108 119c0 48 -35 76 -88 76s-87 -27 -87 -77c0 -51 33 -80 67 -118z" />
    <glyph glyph-name="grave" unicode="`" horiz-adv-x="500" 
d="M97 750h111l98 -158h-92z" />
    <glyph glyph-name="acute" unicode="&#xb4;" horiz-adv-x="500" 
d="M283 750h111l-116 -158h-93z" />
    <glyph glyph-name="circumflex" unicode="&#x2c6;" horiz-adv-x="500" 
d="M307 592l-57 90l-57 -90h-87l95 158h98l95 -158h-87z" />
    <glyph glyph-name="caron" unicode="&#x2c7;" horiz-adv-x="500" 
d="M250 660l57 90h87l-95 -158h-98l-95 158h87z" />
    <glyph glyph-name="tilde" unicode="&#x2dc;" horiz-adv-x="500" 
d="M165 610l-69 24c11 46 41 92 94 92c43 0 83 -29 112 -29c21 0 32 10 38 35l70 -25c-15 -55 -48 -92 -97 -92c-37 0 -87 30 -116 30c-21 0 -26 -19 -32 -35z" />
    <glyph glyph-name="dieresis" unicode="&#xa8;" horiz-adv-x="500" 
d="M126 723h89v-103h-89v103zM285 723h89v-103h-89v103z" />
    <glyph glyph-name="macron" unicode="&#xaf;" horiz-adv-x="500" 
d="M380 632h-266v78h266v-78z" />
    <glyph glyph-name="breve" unicode="&#x2d8;" horiz-adv-x="500" 
d="M112 737h79c6 -39 25 -57 59 -57s53 18 59 57h79c-6 -83 -56 -132 -138 -132s-132 49 -138 132z" />
    <glyph glyph-name="ring" unicode="&#x2da;" horiz-adv-x="500" 
d="M348 671c0 -51 -41 -89 -99 -89s-99 38 -99 89s41 89 99 89s99 -38 99 -89zM285 671c0 23 -13 36 -36 36s-36 -13 -36 -36s13 -36 36 -36s36 13 36 36z" />
    <glyph glyph-name="hungarumlaut" unicode="&#x2dd;" horiz-adv-x="500" 
d="M180 750h101l-76 -158h-72zM340 750h107l-105 -158h-77z" />
    <glyph glyph-name="dotaccent" unicode="&#x2d9;" horiz-adv-x="500" 
d="M203 723h93v-103h-93v103z" />
    <glyph glyph-name="cedilla" unicode="&#xb8;" horiz-adv-x="500" 
d="M216 0h88c17 -27 25 -58 25 -84c0 -65 -45 -107 -111 -107c-48 0 -92 21 -113 55l46 51c16 -21 35 -27 50 -27c26 0 39 12 39 43c0 20 -10 45 -24 69z" />
    <glyph glyph-name="ogonek" unicode="&#x2db;" horiz-adv-x="500" 
d="M211 0h97c-34 -22 -59 -49 -59 -80c0 -20 12 -32 32 -32c14 0 28 6 41 22l47 -51c-22 -33 -62 -51 -107 -51c-61 0 -103 35 -103 93c0 40 19 77 52 99z" />
    <glyph glyph-name="comma" unicode="," horiz-adv-x="235" 
d="M72 116h120l-103 -248h-91z" />
    <glyph glyph-name="semicolon" unicode=";" horiz-adv-x="235" 
d="M60 531h115v-116h-115v116zM72 116h120l-103 -248h-91z" />
    <glyph glyph-name="colon" unicode=":" horiz-adv-x="235" 
d="M60 116h115v-116h-115v116zM60 531h115v-116h-115v116z" />
    <glyph glyph-name="period" unicode="." horiz-adv-x="235" 
d="M60 116h115v-116h-115v116z" />
    <glyph glyph-name="ellipsis" unicode="&#x2026;" horiz-adv-x="734" 
d="M60 116h115v-116h-115v116zM310 116h115v-116h-115v116zM559 116h115v-116h-115v116z" />
    <glyph glyph-name="hyphen" unicode="-" horiz-adv-x="417" 
d="M340 380v-95h-263v95h263z" />
    <glyph glyph-name="exclam" unicode="!" horiz-adv-x="289" 
d="M86 700h117l-7 -512h-103zM86 116h115v-116h-115v116z" />
    <glyph glyph-name="exclamdown" unicode="&#xa1;" horiz-adv-x="289" 
d="M203 -169h-117l7 512h103zM201 415h-115v116h115v-116z" />
    <glyph glyph-name="question" unicode="?" horiz-adv-x="478" 
d="M273 187h-105c0 122 27 153 94 224c37 39 62 64 62 115c0 45 -25 87 -84 87c-74 0 -99 -52 -103 -108l-103 21c5 97 64 187 209 187c137 0 195 -91 195 -178c0 -85 -41 -129 -94 -184c-54 -57 -71 -63 -71 -164zM163 116h115v-116h-115v116z" />
    <glyph glyph-name="questiondown" unicode="&#xbf;" horiz-adv-x="478" 
d="M202 344h105c0 -122 -27 -153 -94 -224c-37 -39 -62 -64 -62 -115c0 -45 25 -87 84 -87c74 0 99 52 103 108l103 -21c-5 -97 -64 -187 -209 -187c-137 0 -195 91 -195 178c0 85 41 129 94 184c54 57 71 63 71 164zM312 415h-115v116h115v-116z" />
    <glyph glyph-name="quoteleft" unicode="&#x2018;" horiz-adv-x="235" 
d="M146 463h-108l72 237h87z" />
    <glyph glyph-name="quoteright" unicode="&#x2019;" horiz-adv-x="235" 
d="M89 700h108l-72 -237h-87z" />
    <glyph glyph-name="quotedblleft" unicode="&#x201c;" horiz-adv-x="428" 
d="M139 463h-110l100 237h88zM342 463h-110l72 237h87z" />
    <glyph glyph-name="quotedblright" unicode="&#x201d;" horiz-adv-x="428" 
d="M289 700h110l-100 -237h-87zM86 700h111l-72 -237h-88z" />
    <glyph glyph-name="quotesinglbase" unicode="&#x201a;" horiz-adv-x="236" 
d="M89 66h108l-72 -237h-87z" />
    <glyph glyph-name="quotedblbase" unicode="&#x201e;" horiz-adv-x="428" 
d="M289 67h110l-100 -237h-87zM86 67h111l-72 -237h-88z" />
    <glyph glyph-name="guilsinglleft" unicode="&#x2039;" horiz-adv-x="367" 
d="M334 67h-113l-188 232l188 232h113l-180 -232z" />
    <glyph glyph-name="guilsinglright" unicode="&#x203a;" horiz-adv-x="367" 
d="M146 67h-113l180 232l-180 232h113l188 -232z" />
    <glyph glyph-name="guillemotleft" unicode="&#xab;" horiz-adv-x="623" 
d="M590 67h-113l-188 232l188 232h113l-180 -232zM334 67h-113l-188 232l188 232h113l-180 -232z" />
    <glyph glyph-name="guillemotright" unicode="&#xbb;" horiz-adv-x="623" 
d="M402 67h-113l180 232l-180 232h113l188 -232zM146 67h-113l180 232l-180 232h113l188 -232z" />
    <glyph glyph-name="slash" unicode="/" horiz-adv-x="370" 
d="M263 700h98l-255 -700h-97z" />
    <glyph glyph-name="bar" unicode="|" horiz-adv-x="274" 
d="M87 750h100v-980h-100v980z" />
    <glyph glyph-name="endash" unicode="&#x2013;" horiz-adv-x="557" 
d="M480 380v-95h-403v95h403z" />
    <glyph glyph-name="emdash" unicode="&#x2014;" horiz-adv-x="936" 
d="M859 380v-95h-782v95h782z" />
    <glyph glyph-name="bullet" unicode="&#x2022;" horiz-adv-x="383" 
d="M66 332c0 70 55 126 125 126c69 0 126 -56 126 -126c0 -69 -57 -124 -126 -124c-70 0 -125 55 -125 124z" />
    <glyph glyph-name="periodcentered" unicode="&#xb7;" horiz-adv-x="235" 
d="M60 391h115v-116h-115v116z" />
    <glyph glyph-name="parenleft" unicode="(" horiz-adv-x="342" 
d="M49 255c0 238 102 404 186 495h113c-89 -93 -200 -271 -200 -495s111 -402 200 -495h-113c-84 91 -186 256 -186 495z" />
    <glyph glyph-name="parenright" unicode=")" horiz-adv-x="342" 
d="M293 255c0 -239 -102 -404 -186 -495h-113c89 93 200 271 200 495s-111 402 -200 495h113c84 -91 186 -257 186 -495z" />
    <glyph glyph-name="bracketleft" unicode="[" horiz-adv-x="313" 
d="M87 750h197v-88h-99v-804h99v-88h-197v980z" />
    <glyph glyph-name="bracketright" unicode="]" horiz-adv-x="313" 
d="M29 750h197v-980h-197v88h99v804h-99v88z" />
    <glyph glyph-name="braceleft" unicode="{" horiz-adv-x="344" 
d="M107 -101v250c0 48 -38 65 -88 65v91c51 0 88 21 88 70v220c0 112 50 166 143 166c31 0 65 -6 85 -16l-18 -83c-17 7 -39 11 -57 11c-31 0 -54 -15 -54 -58v-238c0 -70 -32 -101 -77 -117c44 -11 77 -42 77 -113v-242c0 -43 23 -58 54 -58c18 0 39 4 57 11l18 -83
c-29 -13 -54 -16 -85 -16c-80 0 -143 46 -143 140z" />
    <glyph glyph-name="braceright" unicode="}" horiz-adv-x="344" 
d="M237 149v-250c0 -94 -63 -140 -143 -140c-31 0 -56 3 -85 16l18 83c18 -7 39 -11 57 -11c31 0 54 15 54 58v242c0 71 33 102 77 113c-45 16 -77 47 -77 117v238c0 43 -23 58 -54 58c-18 0 -40 -4 -57 -11l-18 83c20 10 54 16 85 16c93 0 143 -54 143 -166v-220
c0 -49 37 -70 88 -70v-91c-50 0 -88 -17 -88 -65z" />
    <glyph glyph-name="asterisk" unicode="*" horiz-adv-x="490" 
d="M316 515l125 -67l-38 -65l-125 79l4 -130h-74l4 130l-126 -79l-38 64l124 69l-124 68l38 65l126 -79l-4 130h74l-4 -130l125 78l38 -64z" />
    <glyph glyph-name="dagger" unicode="&#x2020;" horiz-adv-x="425" 
d="M393 599v-78h-132v-258h-96v258h-134v78h134v101h96v-101h132z" />
    <glyph glyph-name="daggerdbl" unicode="&#x2021;" horiz-adv-x="425" 
d="M261 365v-102h-96v102h-114v78h114v78h-134v78h134v101h96v-101h132v-78h-132v-78h112v-78h-112z" />
    <glyph glyph-name="section" unicode="&#xa7;" horiz-adv-x="556" 
d="M512 239c0 -53 -18 -92 -48 -119c4 -12 7 -24 7 -37c0 -122 -88 -177 -207 -177c-81 0 -159 34 -209 90l49 79c40 -47 90 -77 160 -77c58 0 93 21 93 74c0 112 -310 121 -310 311c0 53 20 89 47 116c-4 12 -6 26 -6 40c0 115 84 174 195 174c149 0 194 -98 199 -180
l-100 -15c-6 46 -23 98 -97 98c-52 0 -86 -19 -86 -70c0 -123 313 -131 313 -307zM151 436c-9 -12 -13 -32 -13 -48c0 -93 174 -117 267 -206c9 12 14 29 14 46c0 92 -178 106 -268 208z" />
    <glyph glyph-name="paragraph" unicode="&#xb6;" horiz-adv-x="709" 
d="M621 700v-802h-86v706h-104v-706h-87v341c-14 -3 -35 -4 -55 -4c-140 0 -244 67 -244 236c0 147 71 229 244 229h332zM344 604h-55c-96 0 -135 -35 -135 -139c0 -101 56 -134 144 -134c23 0 34 1 46 3v270z" />
    <glyph glyph-name="uni0410" unicode="&#x410;" horiz-adv-x="544" 
d="M439 0l-48 165h-245l-48 -165h-106l215 700h132l214 -700h-114zM268 584l-94 -322h188z" />
    <glyph glyph-name="uni0411" unicode="&#x411;" horiz-adv-x="562" 
d="M278 0h-191v700h382v-100h-274v-144c21 5 44 7 82 7c143 0 245 -62 245 -231c0 -155 -72 -232 -244 -232zM268 369c-32 0 -57 -2 -73 -7v-268h83c96 0 136 35 136 140c0 101 -57 135 -146 135z" />
    <glyph glyph-name="uni0412" unicode="&#x412;" horiz-adv-x="571" 
d="M195 303v-203h89c86 0 127 28 127 99c0 75 -34 104 -128 104h-88zM195 600v-198h87c70 0 112 38 112 103c0 73 -39 95 -115 95h-84zM87 700h193c142 0 227 -43 227 -181c0 -73 -36 -129 -107 -160c84 -17 127 -68 127 -165c0 -141 -87 -194 -243 -194h-197v700z" />
    <glyph glyph-name="uni0413" unicode="&#x413;" horiz-adv-x="477" 
d="M87 700h364v-100h-256v-600h-108v700z" />
    <glyph glyph-name="uni0414" unicode="&#x414;" horiz-adv-x="632" 
d="M18 -154l-5 254h46c41 94 64 200 64 376v224h422v-600h62l-5 -254h-91l-10 154h-382l-10 -154h-91zM231 600v-122c0 -179 -25 -292 -63 -378h269v500h-206z" />
    <glyph glyph-name="uni0415" unicode="&#x415;" horiz-adv-x="533" 
d="M87 700h378v-100h-270v-193h258v-101h-258v-206h284v-100h-392v700z" />
    <glyph glyph-name="uni0416" unicode="&#x416;" horiz-adv-x="859" 
d="M375 700h109v-295h25l212 295h116l-223 -308c91 -16 119 -98 152 -198c22 -67 49 -142 82 -194h-124c-24 40 -41 95 -65 165c-39 115 -53 141 -127 141h-48v-306h-109v306h-48c-74 0 -88 -26 -127 -141c-24 -70 -41 -125 -65 -165h-124c33 52 60 127 82 194
c33 100 61 182 152 198l-223 308h116l212 -295h25v295z" />
    <glyph glyph-name="uni0417" unicode="&#x417;" horiz-adv-x="534" 
d="M251 713c140 0 216 -72 216 -194c0 -63 -21 -123 -91 -156c79 -23 114 -84 114 -172c0 -133 -92 -204 -229 -204c-96 0 -173 37 -225 98l54 84c44 -52 105 -82 167 -82c76 0 121 39 121 105c0 80 -52 108 -132 108h-74v100h68c74 0 113 43 113 112c0 61 -35 101 -101 101
c-74 0 -106 -52 -114 -109l-106 21c11 96 83 188 219 188z" />
    <glyph glyph-name="uni0418" unicode="&#x418;" horiz-adv-x="690" 
d="M192 0h-105v700h106v-500l308 500h104v-700h-106v501z" />
    <glyph glyph-name="uni0419" unicode="&#x419;" horiz-adv-x="692" 
d="M87 0h105l307 501v-501h106v700h-104l-308 -500v500h-106v-700zM207 910h79c6 -39 25 -57 59 -57s53 18 59 57h79c-6 -83 -56 -132 -138 -132s-132 49 -138 132z" />
    <glyph glyph-name="uni041A" unicode="&#x41a;" horiz-adv-x="579" 
d="M87 700h108v-295h34l212 295h116l-223 -308c91 -16 119 -98 152 -198c22 -67 49 -142 82 -194h-124c-24 40 -41 95 -65 165c-39 115 -53 141 -127 141h-57v-306h-108v700z" />
    <glyph glyph-name="uni041B" unicode="&#x41b;" horiz-adv-x="596" 
d="M125 700h384v-700h-107v601h-173l-18 -336c-7 -132 -19 -265 -173 -265h-39v100h27c61 0 73 65 78 164z" />
    <glyph glyph-name="uni041C" unicode="&#x41c;" horiz-adv-x="852" 
d="M638 508l-163 -452h-98l-163 452l-44 -508h-109l64 700h129l172 -465l172 465h129l64 -700h-109z" />
    <glyph glyph-name="uni041D" unicode="&#x41d;" horiz-adv-x="676" 
d="M87 700h108v-293h286v293h108v-700h-108v303h-286v-303h-108v700z" />
    <glyph glyph-name="uni041E" unicode="&#x41e;" horiz-adv-x="622" 
d="M312 713c156 0 266 -98 266 -363c0 -266 -113 -363 -269 -363c-152 0 -265 97 -265 361c0 267 114 365 268 365zM310 613c-93 0 -156 -62 -156 -264c0 -199 63 -262 156 -262c97 0 154 63 154 264c0 200 -57 262 -154 262z" />
    <glyph glyph-name="uni041F" unicode="&#x41f;" horiz-adv-x="676" 
d="M87 700h502v-700h-108v600h-286v-600h-108v700z" />
    <glyph glyph-name="uni0420" unicode="&#x420;" horiz-adv-x="560" 
d="M195 600v-260c20 -4 34 -7 70 -7c89 0 145 31 145 133c0 103 -40 134 -135 134h-80zM87 700h188c172 0 244 -54 244 -229c0 -169 -105 -235 -245 -235c-38 0 -56 2 -79 7v-243h-108v700z" />
    <glyph glyph-name="uni0421" unicode="&#x421;" horiz-adv-x="549" 
d="M516 503l-104 -13c-6 63 -25 123 -110 123c-109 0 -146 -70 -146 -261c0 -204 65 -265 175 -265c69 0 115 20 162 48l22 -93c-46 -28 -109 -55 -197 -55c-172 0 -274 103 -274 365c0 258 85 361 260 361c141 0 210 -87 212 -210z" />
    <glyph glyph-name="uni0422" unicode="&#x422;" horiz-adv-x="542" 
d="M24 700h495v-100h-194v-600h-108v600h-193v100z" />
    <glyph glyph-name="uni0423" unicode="&#x423;" horiz-adv-x="565" 
d="M0 700h116l183 -350l162 350h104l-210 -458c-65 -142 -107 -242 -293 -242v100c93 0 119 30 142 78l31 65z" />
    <glyph glyph-name="uni0424" unicode="&#x424;" horiz-adv-x="674" 
d="M289 -13v72c-144 11 -255 85 -255 289c0 206 111 278 255 290v75h97v-75c143 -12 254 -85 254 -290c0 -204 -111 -278 -254 -289v-72h-97zM142 348c0 -148 64 -186 147 -196v394c-83 -12 -147 -50 -147 -198zM532 348c0 147 -66 186 -146 198v-394c80 11 146 49 146 196z
" />
    <glyph glyph-name="uni0425" unicode="&#x425;" horiz-adv-x="564" 
d="M20 700h125l146 -256l150 256h116l-206 -342l213 -358h-126l-156 263l-156 -263h-117l211 351z" />
    <glyph glyph-name="uni0426" unicode="&#x426;" horiz-adv-x="682" 
d="M545 0h-458v700h108v-600h287v600h107v-600h62l-5 -254h-91z" />
    <glyph glyph-name="uni0427" unicode="&#x427;" horiz-adv-x="641" 
d="M448 0v280c-34 -16 -83 -31 -138 -31c-177 0 -239 96 -239 247v204h107v-201c0 -98 38 -151 137 -151c57 0 97 12 133 34v318h107v-700h-107z" />
    <glyph glyph-name="uni0428" unicode="&#x428;" horiz-adv-x="957" 
d="M870 0h-783v700h108v-600h230v600h108v-600h229v600h108v-700z" />
    <glyph glyph-name="uni0429" unicode="&#x429;" horiz-adv-x="957" 
d="M827 0h-740v700h108v-600h230v600h108v-600h229v600h108v-600h63l-6 -254h-90z" />
    <glyph glyph-name="uni042A" unicode="&#x42a;" horiz-adv-x="628" 
d="M351 0h-191v600h-136v100h244v-244c21 5 44 7 82 7c143 0 245 -62 245 -231c0 -155 -72 -232 -244 -232zM341 369c-32 0 -57 -2 -73 -7v-268h83c96 0 136 35 136 140c0 101 -57 135 -146 135z" />
    <glyph glyph-name="uni042B" unicode="&#x42b;" horiz-adv-x="823" 
d="M628 700h107v-700h-107v700zM278 0h-191v700h108v-244c21 5 44 7 82 7c143 0 245 -62 245 -231c0 -155 -72 -232 -244 -232zM268 369c-32 0 -57 -2 -73 -7v-268h83c96 0 136 35 136 140c0 101 -57 135 -146 135z" />
    <glyph glyph-name="uni042C" unicode="&#x42c;" horiz-adv-x="555" 
d="M278 0h-191v700h108v-244c21 5 44 7 82 7c143 0 245 -62 245 -231c0 -155 -72 -232 -244 -232zM268 369c-32 0 -57 -2 -73 -7v-268h83c96 0 136 35 136 140c0 101 -57 135 -146 135z" />
    <glyph glyph-name="uni042D" unicode="&#x42d;" horiz-adv-x="559" 
d="M166 306v89h238c-3 158 -39 219 -142 219c-87 0 -109 -57 -117 -116l-101 12c5 117 77 203 216 203c175 0 255 -104 255 -362c0 -262 -102 -364 -273 -364c-88 0 -151 27 -197 55l18 91c44 -28 97 -48 166 -48c102 0 163 53 172 221h-235z" />
    <glyph glyph-name="uni042E" unicode="&#x42e;" horiz-adv-x="912" 
d="M601 713c156 0 266 -98 266 -363c0 -266 -113 -363 -269 -363c-143 0 -251 86 -264 316h-139v-303h-108v700h108v-294h140c15 223 123 307 266 307zM599 613c-93 0 -156 -62 -156 -264c0 -199 63 -262 156 -262c97 0 154 63 154 264c0 200 -57 262 -154 262z" />
    <glyph glyph-name="uni042F" unicode="&#x42f;" horiz-adv-x="563" 
d="M476 700v-700h-107v277h-55c-85 0 -99 -33 -127 -121c-24 -76 -33 -112 -57 -156h-120c37 56 47 100 72 172c30 89 44 128 86 146c-57 10 -121 66 -121 171c0 168 91 211 243 211h186zM369 605h-78c-90 0 -132 -22 -132 -121c0 -84 58 -117 139 -117h71v238z" />
    <glyph glyph-name="uni0403" unicode="&#x403;" horiz-adv-x="477" 
d="M312 918h111l-116 -158h-93zM87 700h364v-100h-256v-600h-108v700z" />
    <glyph glyph-name="uni0490" unicode="&#x490;" horiz-adv-x="504" 
d="M87 700h291l9 128h91v-228h-283v-600h-108v700z" />
    <glyph glyph-name="uni0402" unicode="&#x402;" horiz-adv-x="733" 
d="M23 700h558v-96h-256v-189c37 17 79 33 146 33c152 0 213 -80 213 -240v-14c0 -177 -48 -231 -137 -300l-60 63c54 50 88 100 88 233v15c-3 100 -33 145 -122 145c-54 0 -92 -13 -128 -36v-314h-108v604h-194v96z" />
    <glyph glyph-name="uni0404" unicode="&#x404;" horiz-adv-x="558" 
d="M393 395v-89h-235c9 -168 70 -221 172 -221c69 0 122 20 166 48l18 -91c-46 -28 -109 -55 -197 -55c-171 0 -273 102 -273 364c0 258 80 362 255 362c139 0 211 -86 216 -203l-101 -12c-8 59 -30 116 -117 116c-103 0 -139 -61 -142 -219h238z" />
    <glyph glyph-name="uni0405" unicode="&#x405;" horiz-adv-x="536" 
d="M478 511l-105 -17c-7 60 -22 119 -109 119c-54 0 -100 -26 -100 -86c0 -142 321 -141 321 -345c0 -130 -90 -195 -221 -195c-93 0 -175 41 -226 100l54 82c45 -52 113 -82 177 -82c62 0 105 24 105 83c0 127 -320 133 -320 349c0 132 99 194 211 194
c161 0 207 -111 213 -202z" />
    <glyph glyph-name="uni0400" unicode="&#x400;" horiz-adv-x="529" 
d="M87 700h378v-100h-270v-193h258v-101h-258v-206h284v-100h-392v700zM121 912h111l98 -158h-92z" />
    <glyph glyph-name="uni0401" unicode="&#x401;" horiz-adv-x="529" 
d="M87 700h378v-100h-270v-193h258v-101h-258v-206h284v-100h-392v700zM152 884h89v-103h-89v103zM311 884h89v-103h-89v103z" />
    <glyph glyph-name="uni0406" unicode="&#x406;" horiz-adv-x="282" 
d="M87 700h108v-700h-108v700z" />
    <glyph glyph-name="uni0407" unicode="&#x407;" horiz-adv-x="282" 
d="M87 700h108v-700h-108v700zM17 884h89v-103h-89v103zM176 884h89v-103h-89v103z" />
    <glyph glyph-name="uni0408" unicode="&#x408;" horiz-adv-x="304" 
d="M113 700h108v-573c0 -88 -53 -140 -131 -140c-36 0 -67 8 -98 26l19 93c15 -10 37 -19 59 -19c28 0 43 14 43 54v559z" />
    <glyph glyph-name="uni040D" unicode="&#x40d;" horiz-adv-x="690" 
d="M87 0h105l307 501v-501h106v700h-104l-308 -500v500h-106v-700zM197 912h111l98 -158h-92z" />
    <glyph glyph-name="uni040C" unicode="&#x40c;" horiz-adv-x="579" 
d="M361 913h111l-116 -158h-93zM87 700h108v-295h34l212 295h116l-223 -308c91 -16 119 -98 152 -198c22 -67 49 -142 82 -194h-124c-24 40 -41 95 -65 165c-39 115 -53 141 -127 141h-57v-306h-108v700z" />
    <glyph glyph-name="uni0409" unicode="&#x409;" horiz-adv-x="870" 
d="M125 700h384v-244c22 5 45 7 83 7c143 0 245 -62 245 -231c0 -155 -72 -232 -244 -232h-191v601h-173l-18 -338c-7 -131 -26 -263 -173 -263h-39v100h28c66 0 72 65 77 163zM509 362v-268h84c96 0 136 35 136 140c0 101 -57 135 -146 135c-34 0 -58 -2 -74 -7z" />
    <glyph glyph-name="uni040A" unicode="&#x40a;" horiz-adv-x="904" 
d="M627 0h-191v330h-241v-330h-108v700h108v-267h241v267h107v-246c26 5 50 7 87 7c138 0 241 -59 241 -228c0 -155 -72 -233 -244 -233zM543 361v-266h84c96 0 137 35 137 139c0 102 -58 134 -147 134c-33 0 -57 -3 -74 -7z" />
    <glyph glyph-name="uni040B" unicode="&#x40b;" horiz-adv-x="751" 
d="M23 700h518v-100h-216v-185c37 17 79 33 146 33c160 0 213 -83 213 -243v-205h-109v201c0 98 -29 149 -122 149c-54 0 -92 -13 -128 -36v-314h-108v600h-194v100z" />
    <glyph glyph-name="uni040E" unicode="&#x40e;" horiz-adv-x="565" 
d="M149 904h79c6 -39 25 -57 59 -57s53 18 59 57h79c-6 -83 -56 -132 -138 -132s-132 49 -138 132zM0 700h116l183 -350l162 350h104l-210 -458c-65 -142 -107 -242 -293 -242v100c93 0 119 30 142 78l31 65z" />
    <glyph glyph-name="uni040F" unicode="&#x40f;" horiz-adv-x="676" 
d="M288 0h-201v700h108v-600h285v600h108v-700h-201l-2 -154h-95z" />
    <glyph glyph-name="uni0462" unicode="&#x462;" horiz-adv-x="612" 
d="M0 639h143v61h108v-61h216v-95h-216v-88c22 5 45 7 83 7c143 0 245 -62 245 -231c0 -155 -72 -232 -244 -232h-192v544h-143v95zM251 362v-268h84c96 0 136 35 136 140c0 101 -57 135 -146 135c-33 0 -58 -2 -74 -7z" />
    <glyph glyph-name="uni0472" unicode="&#x472;" horiz-adv-x="622" 
d="M312 713c156 0 266 -98 266 -363c0 -266 -113 -363 -269 -363c-152 0 -265 97 -265 361c0 267 114 365 268 365zM310 87c89 0 145 53 153 220h-308c8 -166 69 -220 155 -220zM310 613c-84 0 -143 -51 -154 -209h306c-9 158 -64 209 -152 209z" />
    <glyph glyph-name="uni0474" unicode="&#x474;" horiz-adv-x="584" 
d="M15 700h119l164 -565l166 565h105l-212 -700h-124z" />
    <glyph glyph-name="uni0430" unicode="&#x430;" horiz-adv-x="528" 
d="M321 137v103c-93 3 -171 -31 -171 -99c0 -41 18 -63 60 -63c41 0 81 26 111 59zM321 322v61c0 50 -33 70 -78 70c-47 0 -86 -27 -86 -82l-96 10c3 108 89 163 189 163c110 0 180 -56 180 -151v-277c0 -25 12 -36 29 -36s35 8 52 21l7 -79c-20 -21 -56 -35 -92 -35
c-38 0 -84 16 -89 74c-40 -50 -97 -74 -153 -74c-83 0 -142 48 -142 144c0 136 130 192 279 191z" />
    <glyph glyph-name="uni0431" unicode="&#x431;" horiz-adv-x="523" 
d="M282 544c138 0 198 -89 198 -281c0 -184 -76 -276 -219 -276c-150 0 -220 106 -220 326c0 207 31 316 111 373c76 54 189 56 304 81v-92c-105 -26 -199 -18 -256 -63c-34 -27 -57 -75 -63 -138c25 44 78 70 145 70zM261 453c-73 0 -110 -44 -110 -189
c0 -144 37 -190 110 -190s108 46 108 189c0 146 -35 190 -108 190z" />
    <glyph glyph-name="uni0432" unicode="&#x432;" horiz-adv-x="523" 
d="M187 228v-145h87c67 0 96 21 96 73s-24 72 -97 72h-86zM187 448v-140h85c55 0 85 23 85 69c0 52 -28 71 -87 71h-83zM78 531h193c126 0 197 -33 197 -139c0 -59 -29 -99 -87 -119c59 -13 104 -49 104 -124c0 -108 -73 -149 -210 -149h-197v531z" />
    <glyph glyph-name="uni0433" unicode="&#x433;" horiz-adv-x="398" 
d="M78 531h305v-92h-196v-439h-109v531z" />
    <glyph glyph-name="uni0434" unicode="&#x434;" horiz-adv-x="541" 
d="M12 -154l-2 246h38c32 61 46 132 46 260v179h364v-439h54l-3 -246h-91l-2 154h-309l-3 -154h-92zM193 439v-88c0 -121 -11 -194 -43 -259h199v347h-156z" />
    <glyph glyph-name="uni0435" unicode="&#x435;" horiz-adv-x="493" 
d="M449 236h-293c5 -123 55 -158 130 -158c58 0 109 29 139 52l17 -85c-48 -30 -98 -58 -178 -58c-132 0 -222 79 -222 278c0 197 79 279 215 279c138 0 192 -90 192 -223v-85zM157 321h187c0 90 -26 132 -89 132c-65 0 -93 -39 -98 -132z" />
    <glyph glyph-name="uni0436" unicode="&#x436;" horiz-adv-x="736" 
d="M315 531h106v-215h18l165 215h126l-187 -227c72 -14 104 -64 133 -150c18 -52 36 -108 60 -154h-114c-20 33 -32 79 -52 133c-28 76 -50 97 -107 97h-42v-230h-106v230h-42c-57 0 -79 -21 -107 -97c-20 -54 -32 -100 -52 -133h-114c24 46 42 102 60 154
c30 86 61 136 133 150l-187 227h126l165 -215h18v215z" />
    <glyph glyph-name="uni0437" unicode="&#x437;" horiz-adv-x="457" 
d="M412 394c0 -68 -40 -111 -96 -128c53 -12 103 -49 103 -122c0 -102 -77 -157 -199 -157c-87 0 -148 22 -193 53l20 83c38 -31 100 -50 155 -50c63 0 103 21 103 77s-43 70 -101 70h-82v84h82c72 0 98 26 98 80c0 40 -28 69 -86 69c-73 0 -94 -39 -95 -85l-96 10
c1 98 68 166 191 166c117 0 196 -44 196 -150z" />
    <glyph glyph-name="uni0438" unicode="&#x438;" horiz-adv-x="580" 
d="M394 531h107v-531h-107v362l-208 -362h-108v531h108v-374z" />
    <glyph glyph-name="uni0439" unicode="&#x439;" horiz-adv-x="580" 
d="M152 737h79c6 -39 25 -57 59 -57s53 18 59 57h79c-6 -83 -56 -132 -138 -132s-132 49 -138 132zM394 531h107v-531h-107v362l-208 -362h-108v531h108v-374z" />
    <glyph glyph-name="uni043A" unicode="&#x43a;" horiz-adv-x="520" 
d="M78 531h109v-215h36l165 215h126l-187 -227c72 -14 105 -64 134 -150c18 -52 32 -108 59 -154h-114c-20 33 -32 79 -52 133c-28 76 -50 97 -107 97h-60v-230h-109v531z" />
    <glyph glyph-name="uni043B" unicode="&#x43b;" horiz-adv-x="550" 
d="M8 0v93c59 9 76 45 80 148c3 96 8 193 11 290h372v-531h-109v439h-164l-10 -216c-7 -146 -47 -217 -180 -223z" />
    <glyph glyph-name="uni043C" unicode="&#x43c;" horiz-adv-x="734" 
d="M404 41h-94l-124 339l-44 -380h-103l61 531h122l135 -362l135 362h122l61 -531h-103l-44 380z" />
    <glyph glyph-name="uni043D" unicode="&#x43d;" horiz-adv-x="576" 
d="M388 0v235h-201v-235h-109v531h109v-204h201v204h109v-531h-109z" />
    <glyph glyph-name="uni043E" unicode="&#x43e;" horiz-adv-x="523" 
d="M262 544c149 0 219 -80 219 -281c0 -184 -76 -276 -219 -276c-140 0 -220 80 -220 278c0 195 77 279 220 279zM262 453c-72 0 -108 -42 -108 -188c0 -144 36 -187 108 -187s107 43 107 185c0 148 -35 190 -107 190z" />
    <glyph glyph-name="uni043F" unicode="&#x43f;" horiz-adv-x="576" 
d="M388 0v439h-201v-439h-109v531h419v-531h-109z" />
    <glyph glyph-name="uni0440" unicode="&#x440;" horiz-adv-x="553" 
d="M293 -13c-33 0 -72 10 -105 25v-218l-109 -24v761h98v-48c40 33 90 61 156 61c90 0 177 -54 177 -273c0 -206 -94 -284 -217 -284zM188 409v-301c31 -20 63 -30 94 -30c63 0 113 49 113 193c0 141 -49 175 -100 175c-43 0 -72 -15 -107 -37z" />
    <glyph glyph-name="uni0441" unicode="&#x441;" horiz-adv-x="475" 
d="M435 362c-33 -3 -65 -6 -98 -10c-3 52 -25 101 -85 101c-66 0 -96 -38 -96 -188s45 -187 124 -187c63 0 104 27 134 48l21 -81c-45 -31 -100 -58 -177 -58c-138 0 -216 87 -216 279c0 185 67 278 214 278c128 0 177 -79 179 -182z" />
    <glyph glyph-name="uni0442" unicode="&#x442;" horiz-adv-x="455" 
d="M12 531h431v-92h-161v-439h-109v439h-161v92z" />
    <glyph glyph-name="uni0443" unicode="&#x443;" horiz-adv-x="486" 
d="M481 531c-63 -169 -126 -339 -187 -509c-49 -136 -104 -236 -231 -236c-35 0 -78 10 -115 28l29 88c30 -15 54 -21 80 -21c71 0 93 53 132 144l-188 506h117l126 -374l130 374h107z" />
    <glyph glyph-name="uni0444" unicode="&#x444;" horiz-adv-x="702" 
d="M302 81v369c-101 -10 -152 -51 -152 -185s51 -174 152 -184zM400 -229h-98v216c-171 12 -260 99 -260 278s89 267 260 279v186h98v-186c171 -12 260 -100 260 -279s-89 -266 -260 -278v-216zM400 81c101 10 152 50 152 184s-51 175 -152 185v-369z" />
    <glyph glyph-name="uni0445" unicode="&#x445;" horiz-adv-x="482" 
d="M12 531h119l112 -189l115 189h115l-168 -260l167 -271h-121l-117 192l-119 -192h-110l168 266z" />
    <glyph glyph-name="uni0446" unicode="&#x446;" horiz-adv-x="583" 
d="M388 92v439h109v-439h54l-3 -246h-91l-3 154h-376v531h109v-439h201z" />
    <glyph glyph-name="uni0447" unicode="&#x447;" horiz-adv-x="551" 
d="M366 0v213c-43 -24 -77 -42 -142 -42c-96 0 -168 51 -168 167v193h109v-171c0 -73 32 -87 87 -87c41 0 79 18 114 37v221h109v-531h-109z" />
    <glyph glyph-name="uni0448" unicode="&#x448;" horiz-adv-x="835" 
d="M631 92v439h109v-531h-662v531h109v-439h167v439h109v-439h168z" />
    <glyph glyph-name="uni0449" unicode="&#x449;" horiz-adv-x="841" 
d="M631 92v439h109v-439h54l-3 -246h-92l-2 154h-619v531h109v-439h167v439h109v-439h168z" />
    <glyph glyph-name="uni044A" unicode="&#x44a;" horiz-adv-x="550" 
d="M12 439v92h223v-159c21 4 48 6 68 6c119 0 216 -49 216 -188s-80 -190 -211 -190h-182v439h-114zM235 283v-197h73c72 0 103 29 103 101c0 75 -53 101 -118 101c-26 0 -40 -2 -58 -5z" />
    <glyph glyph-name="uni044B" unicode="&#x44b;" horiz-adv-x="743" 
d="M556 531h107v-531h-107v531zM262 0h-182v531h109v-159c21 4 48 6 68 6c119 0 216 -49 216 -188s-80 -190 -211 -190zM189 283v-197h73c72 0 103 29 103 101c0 75 -53 101 -118 101c-26 0 -40 -2 -58 -5z" />
    <glyph glyph-name="uni044C" unicode="&#x44c;" horiz-adv-x="504" 
d="M262 0h-182v531h109v-159c21 4 48 6 68 6c119 0 216 -49 216 -188s-80 -190 -211 -190zM189 283v-197h73c72 0 103 29 103 101c0 75 -53 101 -118 101c-26 0 -40 -2 -58 -5z" />
    <glyph glyph-name="uni044D" unicode="&#x44d;" horiz-adv-x="474" 
d="M137 365l-96 9c2 95 52 170 178 170c146 0 213 -73 213 -277c0 -202 -78 -280 -215 -280c-77 0 -129 26 -177 57l21 79c32 -22 82 -45 141 -45c69 0 109 33 116 143h-201v88h203c-5 114 -33 144 -97 144c-57 0 -83 -39 -86 -88z" />
    <glyph glyph-name="uni044E" unicode="&#x44e;" horiz-adv-x="767" 
d="M506 544c149 0 219 -80 219 -281c0 -184 -76 -276 -219 -276c-133 0 -212 72 -220 248h-99v-235h-109v531h109v-204h102c15 151 90 217 217 217zM506 453c-72 0 -108 -42 -108 -188c0 -144 36 -187 108 -187s107 43 107 185c0 148 -35 190 -107 190z" />
    <glyph glyph-name="uni044F" unicode="&#x44f;" horiz-adv-x="533" 
d="M152 247c-49 15 -90 57 -90 136c0 111 85 148 192 148h198v-531h-109v213h-73c-53 0 -75 -49 -95 -105c-14 -37 -28 -77 -46 -108h-117c25 36 44 88 63 135c21 53 41 99 77 112zM343 298l3 150h-86c-62 0 -92 -21 -92 -72c0 -50 32 -78 87 -78h88z" />
    <glyph glyph-name="uni0453" unicode="&#x453;" horiz-adv-x="398" 
d="M275 750h111l-116 -158h-93zM78 531h305v-92h-196v-439h-109v531z" />
    <glyph glyph-name="uni0491" unicode="&#x491;" horiz-adv-x="423" 
d="M187 439v-439h-109v531h236l3 115h85v-207h-215z" />
    <glyph glyph-name="uni0452" unicode="&#x452;" horiz-adv-x="565" 
d="M366 669v-69h-179v-109c36 26 86 53 153 53c105 0 157 -60 157 -173v-140c0 -169 -46 -237 -135 -306l-61 62c51 49 87 107 87 237v130c0 65 -23 87 -83 87c-40 0 -84 -17 -118 -39v-402h-109v600h-78v69h78v61l109 20v-81h179z" />
    <glyph glyph-name="uni0454" unicode="&#x454;" horiz-adv-x="474" 
d="M433 374l-96 -9c-3 49 -29 88 -86 88c-64 0 -92 -30 -97 -144h203v-88h-201c7 -110 47 -143 116 -143c59 0 109 23 141 45l21 -79c-48 -31 -100 -57 -177 -57c-137 0 -215 78 -215 280c0 204 67 277 213 277c126 0 176 -75 178 -170z" />
    <glyph glyph-name="uni0455" unicode="&#x455;" horiz-adv-x="448" 
d="M400 387l-91 -16c-4 47 -25 82 -82 82c-42 0 -74 -18 -74 -58c0 -101 248 -92 248 -253c0 -96 -68 -155 -182 -155c-83 0 -148 32 -187 70l36 80c37 -36 92 -59 148 -59c42 0 77 16 77 58c0 84 -245 83 -245 252c0 94 67 156 178 156c123 0 174 -71 174 -157z" />
    <glyph glyph-name="uni0450" unicode="&#x450;" horiz-adv-x="493" 
d="M449 236h-293c5 -123 55 -158 130 -158c58 0 109 29 139 52l17 -85c-48 -30 -98 -58 -178 -58c-132 0 -222 79 -222 278c0 197 79 279 215 279c138 0 192 -90 192 -223v-85zM157 321h187c0 90 -26 132 -89 132c-65 0 -93 -39 -98 -132zM97 750h111l98 -158h-92z" />
    <glyph glyph-name="uni0451" unicode="&#x451;" horiz-adv-x="493" 
d="M449 236h-293c5 -123 55 -158 130 -158c58 0 109 29 139 52l17 -85c-48 -30 -98 -58 -178 -58c-132 0 -222 79 -222 278c0 197 79 279 215 279c138 0 192 -90 192 -223v-85zM157 321h187c0 90 -26 132 -89 132c-65 0 -93 -39 -98 -132zM128 723h89v-103h-89v103zM287 723
h89v-103h-89v103z" />
    <glyph glyph-name="uni0456" unicode="&#x456;" horiz-adv-x="265" 
d="M78 531h109v-531h-109v531zM78 720h109v-118h-109v118z" />
    <glyph glyph-name="uni0457" unicode="&#x457;" horiz-adv-x="265" 
d="M9 723h89v-103h-89v103zM168 723h89v-103h-89v103zM78 531h109v-531h-109v531z" />
    <glyph glyph-name="uni0458" unicode="&#x458;" horiz-adv-x="266" 
d="M187 531v-612c0 -88 -61 -131 -134 -131c-34 0 -72 9 -105 27l17 87c20 -9 43 -17 63 -17c31 0 50 15 50 55v591h109zM78 720h109v-118h-109v118z" />
    <glyph glyph-name="uni045D" unicode="&#x45d;" horiz-adv-x="580" 
d="M394 531h107v-531h-107v362l-208 -362h-108v531h108v-374zM136 750h111l98 -158h-92z" />
    <glyph glyph-name="uni045C" unicode="&#x45c;" horiz-adv-x="520" 
d="M330 750h111l-116 -158h-93zM78 531h109v-215h36l165 215h126l-187 -227c72 -14 105 -64 134 -150c18 -52 32 -108 59 -154h-114c-20 33 -32 79 -52 133c-28 76 -50 97 -107 97h-60v-230h-109v531z" />
    <glyph glyph-name="uni0459" unicode="&#x459;" horiz-adv-x="780" 
d="M99 531h366v-159c21 4 47 6 67 6c118 0 217 -47 217 -188c0 -139 -80 -190 -211 -190h-182v439h-159l-9 -216c-6 -147 -47 -217 -180 -223v95c59 8 76 44 80 146c3 96 8 193 11 290zM465 283v-197h73c72 0 103 29 103 101c0 75 -53 101 -118 101c-26 0 -40 -2 -58 -5z
" />
    <glyph glyph-name="uni045A" unicode="&#x45a;" horiz-adv-x="799" 
d="M375 0v240h-188v-240h-109v531h109v-199h188v199h109v-159c21 4 47 6 67 6c118 0 217 -47 217 -188c0 -139 -80 -190 -211 -190h-182zM484 283v-197h73c72 0 103 29 103 101c0 75 -53 101 -118 101c-26 0 -40 -2 -58 -5z" />
    <glyph glyph-name="uni045B" unicode="&#x45b;" horiz-adv-x="571" 
d="M0 600v69h78v60l109 20v-80h179v-69h-179v-109c40 29 90 53 154 53c96 0 156 -53 156 -169v-375h-109v353c0 65 -22 88 -83 88c-40 0 -84 -17 -118 -39v-402h-109v600h-78z" />
    <glyph glyph-name="uni045E" unicode="&#x45e;" horiz-adv-x="486" 
d="M481 531c-63 -169 -126 -339 -187 -509c-49 -136 -104 -236 -231 -236c-35 0 -78 10 -115 28l29 88c30 -15 54 -21 80 -21c71 0 93 53 132 144l-188 506h117l126 -374l130 374h107zM104 737h79c6 -39 25 -57 59 -57s53 18 59 57h79c-6 -83 -56 -132 -138 -132
s-132 49 -138 132z" />
    <glyph glyph-name="uni045F" unicode="&#x45f;" horiz-adv-x="576" 
d="M388 92v439h109v-531h-159l-3 -154h-93l-3 154h-161v531h109v-439h201z" />
    <glyph glyph-name="uni0463" unicode="&#x463;" horiz-adv-x="566" 
d="M10 450v81h131v199l109 20v-219h161v-81h-161v-80c22 4 48 6 69 6c118 0 216 -45 216 -186c0 -139 -80 -190 -211 -190h-183v450h-131zM250 281v-195h74c72 0 103 29 103 101c0 75 -52 99 -118 99c-25 0 -41 -2 -59 -5z" />
    <glyph glyph-name="uni0473" unicode="&#x473;" horiz-adv-x="523" 
d="M262 544c149 0 219 -80 219 -281c0 -184 -76 -276 -219 -276c-140 0 -220 80 -220 278c0 195 77 279 220 279zM262 453c-65 0 -101 -34 -107 -146h213c-7 112 -42 146 -106 146zM262 78c64 0 99 34 106 144h-213c7 -110 43 -144 107 -144z" />
    <glyph glyph-name="uni0475" unicode="&#x475;" horiz-adv-x="495" 
d="M5 531h116l133 -411l127 411h109l-177 -531h-127z" />
    <glyph glyph-name="asciicircum" unicode="^" horiz-adv-x="531" 
d="M219 700h92l185 -349h-103l-128 234l-128 -234h-103z" />
    <glyph glyph-name="asciitilde" unicode="~" 
d="M123 259l-81 31c20 63 60 108 133 108c61 0 139 -38 176 -38c27 0 42 15 54 48c27 -11 54 -21 81 -31c-20 -63 -61 -108 -135 -108c-54 0 -129 38 -174 38c-24 0 -43 -14 -54 -48z" />
    <glyph glyph-name="brokenbar" unicode="&#xa6;" horiz-adv-x="274" 
d="M87 750h100v-392h-100v392zM87 162h100v-392h-100v392z" />
    <glyph glyph-name="backslash" unicode="\" horiz-adv-x="370" 
d="M0 700h98l254 -700h-97z" />
    <glyph glyph-name="underscore" unicode="_" horiz-adv-x="543" 
d="M522 -13v-95h-501v95h501z" />
    <glyph glyph-name="quotesingle" unicode="'" horiz-adv-x="235" 
d="M68 700h99v-237h-99v237z" />
    <glyph glyph-name="quotedbl" unicode="&#x22;" horiz-adv-x="428" 
d="M261 700h99v-237h-99v237zM68 700h99v-237h-99v237z" />
    <glyph glyph-name="at" unicode="@" horiz-adv-x="785" 
d="M458 201v175c-21 11 -38 16 -69 16c-35 0 -81 -21 -81 -118c0 -92 35 -120 68 -120c36 0 64 22 82 47zM620 20l23 -65c-74 -38 -158 -52 -233 -52c-211 0 -369 133 -369 366c0 219 140 360 352 360c213 0 353 -143 353 -342c0 -148 -68 -224 -162 -224
c-49 0 -88 20 -105 58c-31 -32 -69 -51 -115 -51c-68 0 -150 44 -150 204c0 161 103 203 173 203s115 -21 163 -49v-224c0 -38 17 -55 50 -55c47 0 71 56 71 138c0 162 -111 273 -278 273s-280 -109 -280 -291c0 -188 123 -295 298 -295c65 0 143 12 209 46z" />
    <glyph glyph-name="copyright" unicode="&#xa9;" horiz-adv-x="776" 
d="M530 439c-24 -4 -48 -10 -72 -13c-5 36 -22 73 -66 73c-59 0 -89 -38 -89 -150c0 -108 41 -149 104 -149c41 0 68 13 98 33l25 -62c-32 -23 -81 -43 -132 -43c-104 0 -178 66 -178 221c0 161 66 224 174 224c90 0 134 -69 136 -134zM43 350c0 200 154 363 345 363
s345 -163 345 -363c0 -201 -154 -363 -345 -363s-345 162 -345 363zM103 350c0 -166 127 -301 285 -301c157 0 285 135 285 301c0 165 -128 300 -285 300c-158 0 -285 -135 -285 -300z" />
    <glyph glyph-name="registered" unicode="&#xae;" horiz-adv-x="526" 
d="M364 342h-65l-42 100c-6 0 -18 0 -23 1v-101h-62v266h81c72 0 106 -17 106 -83c0 -38 -18 -60 -44 -72zM234 560v-67c5 -1 12 -1 18 -1c31 0 47 6 47 32c0 34 -16 36 -47 36h-18zM35 472c0 133 102 240 228 240c125 0 228 -107 228 -240s-103 -240 -228 -240
c-126 0 -228 107 -228 240zM83 472c0 -105 79 -190 180 -190c100 0 180 85 180 190s-80 190 -180 190c-101 0 -180 -85 -180 -190z" />
    <glyph glyph-name="trademark" unicode="&#x2122;" horiz-adv-x="828" 
d="M23 700h290v-72h-105v-283h-82v283h-103v72zM598 373h-82l-71 199l-27 -227h-83l46 355h93l83 -221l83 221h93l46 -355h-83l-27 227z" />
    <glyph glyph-name="currency" unicode="&#xa4;" 
d="M458 333c0 -38 -10 -73 -29 -103l86 -86l-60 -60l-86 85c-30 -20 -65 -30 -104 -30s-74 10 -104 30l-86 -85l-60 60l86 86c-19 30 -29 65 -29 103s10 73 29 103l-86 86l60 60l86 -85c30 20 65 30 104 30s74 -10 104 -30l86 85l60 -60l-86 -86c19 -30 29 -65 29 -103z
M367 333c0 65 -37 103 -102 103s-102 -38 -102 -103s37 -103 102 -103s102 38 102 103z" />
    <glyph glyph-name="Euro" unicode="&#x20ac;" 
d="M7 373v77h66c18 189 87 263 239 263c138 0 199 -86 208 -195l-106 -15c-9 46 -22 110 -103 110c-84 0 -117 -47 -127 -163h239l-13 -77h-229v-28c0 -15 0 -24 1 -38h216l-14 -75h-193c16 -104 63 -145 145 -145c74 0 114 20 160 47l23 -92c-47 -28 -105 -55 -193 -55
c-143 0 -223 69 -249 245h-70v75h63c-1 14 -1 20 -1 33v33h-62z" />
    <glyph glyph-name="dollar" unicode="$" 
d="M469 455l-103 -16c-7 55 -25 113 -106 113c-49 0 -95 -21 -95 -80c0 -120 314 -81 314 -272c0 -113 -73 -167 -172 -181v-107h-86v106c-77 9 -146 47 -192 101l60 77c43 -51 105 -83 167 -83c55 0 102 19 102 76c0 106 -306 67 -306 276c0 114 76 170 169 182v103h86
v-104c121 -19 157 -112 162 -191z" />
    <glyph glyph-name="cent" unicode="&#xa2;" 
d="M468 432l-97 -10c-3 52 -32 101 -91 101c-71 0 -110 -38 -110 -188c0 -87 28 -184 130 -184c59 0 116 27 147 49l21 -85c-41 -27 -93 -53 -156 -57v-146h-86v150c-104 21 -170 103 -170 274c0 173 60 255 170 273v141h86v-138c107 -10 155 -86 156 -180z" />
    <glyph glyph-name="sterling" unicode="&#xa3;" 
d="M506 520l-99 -18c-5 69 -33 111 -104 111c-75 0 -95 -48 -95 -111c0 -7 1 -23 7 -118h214v-83h-207c7 -88 7 -92 7 -96c0 -49 -18 -80 -48 -105h312v-100h-462v87c59 20 87 61 87 115l-7 99h-97v83h91c-7 98 -7 108 -7 117c0 110 51 212 206 212c150 0 200 -96 202 -193z
" />
    <glyph glyph-name="florin" unicode="&#x192;" 
d="M431 384v-83h-223v-301h-108v301h-86v83h86v117c0 110 48 212 205 212c150 0 200 -96 202 -193l-99 -18c-5 69 -33 111 -104 111c-75 0 -96 -48 -96 -111v-118h223z" />
    <glyph glyph-name="yen" unicode="&#xa5;" 
d="M268 423l142 277h113l-167 -316h134v-83h-171v-301h-108v301h-174v83h136l-166 316h120z" />
    <glyph glyph-name="ordfeminine" unicode="&#xaa;" horiz-adv-x="382" 
d="M228 439v65c-43 -1 -108 -7 -108 -58c0 -25 16 -38 42 -38c27 0 47 12 66 31zM228 564v37c0 29 -17 44 -49 44s-52 -19 -53 -56l-77 8c2 77 64 117 137 117c82 0 128 -41 128 -107v-179c0 -13 8 -20 18 -20c12 0 21 5 37 17l6 -62c-15 -16 -42 -26 -70 -26
c-26 0 -60 14 -64 48c-26 -27 -60 -48 -102 -48c-56 0 -102 31 -102 100c0 90 97 126 191 127z" />
    <glyph glyph-name="ordmasculine" unicode="&#xba;" horiz-adv-x="382" 
d="M191 713c107 0 157 -55 157 -192c0 -126 -54 -190 -157 -190c-102 0 -158 56 -158 191c0 134 54 191 158 191zM191 645c-47 0 -71 -29 -71 -123c0 -93 24 -122 71 -122c46 0 69 29 69 121c0 95 -23 124 -69 124z" />
    <glyph glyph-name="uni2116" unicode="&#x2116;" horiz-adv-x="1073" 
d="M714 203v78h308v-78h-308zM87 700h105l307 -501v501h106v-700h-104l-308 500v-500h-106v700zM869 712c107 0 157 -55 157 -192c0 -126 -54 -190 -157 -190c-102 0 -158 56 -158 191c0 134 54 191 158 191zM869 644c-47 0 -71 -29 -71 -123c0 -93 24 -122 71 -122
c46 0 69 29 69 121c0 95 -23 124 -69 124z" />
    <glyph glyph-name="numbersign" unicode="#" horiz-adv-x="618" 
d="M45 434l16 87h118l31 179h94l-31 -179h133l31 179h94l-31 -179h118l-16 -87h-117l-30 -170h117l-15 -86h-118l-31 -178h-94l31 178h-133l-31 -178h-94l31 178h-118l15 86h118l30 170h-118zM257 434l-30 -170h134l30 170h-134z" />
    <glyph glyph-name="zero" unicode="0" 
d="M268 713c146 0 233 -100 233 -362c0 -265 -94 -364 -239 -364c-139 0 -233 99 -233 361c0 255 96 365 239 365zM265 613c-79 0 -123 -79 -123 -264c0 -192 44 -262 123 -262c81 0 124 70 124 264c0 191 -43 262 -124 262z" />
    <glyph glyph-name="one" unicode="1" 
d="M71 0v100h162v477l-161 -82v110l183 95h90v-600h145v-100h-419z" />
    <glyph glyph-name="two" unicode="2" 
d="M139 494l-107 20c5 95 68 199 216 199c139 0 218 -71 218 -212c0 -75 -36 -145 -101 -217l-161 -181h278v-103h-432v87l228 262c50 57 70 98 70 150c0 75 -36 114 -99 114c-71 0 -106 -50 -110 -119z" />
    <glyph glyph-name="three" unicode="3" 
d="M248 713c140 0 216 -72 216 -194c0 -63 -21 -123 -91 -156c79 -23 114 -84 114 -172c0 -133 -92 -204 -229 -204c-96 0 -173 37 -225 98l54 84c44 -52 105 -82 167 -82c76 0 121 39 121 105c0 80 -52 108 -132 108h-74v100h68c74 0 113 43 113 112c0 61 -35 101 -101 101
c-74 0 -106 -52 -114 -109l-106 21c11 96 83 188 219 188z" />
    <glyph glyph-name="four" unicode="4" 
d="M16 161v97l259 442h150v-440h82v-99h-82v-161h-107v161h-302zM318 576l-186 -316h186v316z" />
    <glyph glyph-name="five" unicode="5" 
d="M247 -13c-93 0 -165 34 -217 90l52 84c42 -46 94 -74 155 -74c73 0 122 46 122 124c0 70 -40 120 -133 120c-33 0 -70 -5 -101 -14l-57 38v345h378v-107h-273v-164c19 5 46 5 63 5c174 0 236 -102 236 -220c0 -137 -85 -227 -225 -227z" />
    <glyph glyph-name="six" unicode="6" 
d="M155 286c5 -137 42 -199 122 -199c68 0 110 46 110 127c0 72 -37 109 -102 109c-52 0 -95 -14 -130 -37zM487 527l-104 -22c-11 48 -27 108 -106 108c-81 0 -122 -69 -122 -226c36 21 87 37 148 37c103 0 194 -66 194 -205c0 -155 -96 -232 -222 -232
c-139 0 -234 99 -234 361c0 261 97 365 240 365c127 0 195 -77 206 -186z" />
    <glyph glyph-name="seven" unicode="7" 
d="M34 700h447v-86l-288 -614h-123l285 596h-321v104z" />
    <glyph glyph-name="eight" unicode="8" 
d="M265 305c-78 0 -125 -34 -125 -108s54 -110 124 -110c72 0 126 36 126 110s-47 108 -125 108zM266 -13c-143 0 -238 83 -238 207c0 90 42 142 109 167c-57 33 -91 82 -91 155c0 122 80 197 219 197s219 -75 219 -197c0 -73 -34 -122 -91 -155c67 -25 109 -77 109 -167
c0 -124 -95 -207 -236 -207zM265 613c-70 0 -108 -36 -108 -106c0 -58 43 -103 108 -103s108 45 108 103c0 70 -38 106 -108 106z" />
    <glyph glyph-name="nine" unicode="9" 
d="M242 -13c-95 0 -162 37 -213 90l54 84c39 -44 92 -74 151 -74c105 0 136 92 136 219c-39 -20 -73 -32 -131 -32c-118 0 -208 70 -208 210c0 145 94 229 225 229c151 0 231 -103 231 -365c0 -248 -101 -361 -245 -361zM373 409c-6 150 -44 204 -118 204
c-68 0 -112 -50 -112 -124c0 -73 41 -115 105 -115c43 0 88 10 125 35z" />
    <glyph glyph-name="onesuperior" unicode="&#xb9;" horiz-adv-x="320" 
d="M45 324v75h83v209l-82 -41v79l105 54h63v-301h74v-75h-243z" />
    <glyph glyph-name="twosuperior" unicode="&#xb2;" horiz-adv-x="320" 
d="M275 598c0 -39 -17 -77 -51 -115l-77 -85h136v-74h-249v56l128 146c20 22 32 46 32 65c0 36 -17 51 -46 51c-35 0 -47 -30 -51 -57l-72 16c7 54 44 112 125 112c79 0 125 -40 125 -115z" />
    <glyph glyph-name="threesuperior" unicode="&#xb3;" horiz-adv-x="320" 
d="M278 605c0 -31 -14 -65 -50 -81c41 -13 61 -45 61 -90c0 -73 -54 -111 -130 -111c-51 0 -102 20 -131 56l38 55c26 -30 56 -43 88 -43c31 0 53 15 53 47c0 36 -21 48 -58 48h-43v63h44c34 0 49 22 49 48c0 28 -14 47 -47 47c-36 0 -51 -25 -55 -57l-70 16
c6 57 45 110 126 110c80 0 125 -40 125 -108z" />
    <glyph glyph-name="fraction" unicode="&#x2044;" horiz-adv-x="536" 
d="M443 700h93l-444 -700h-92z" />
    <glyph glyph-name="onequarter" unicode="&#xbc;" horiz-adv-x="753" 
d="M432 80v56l145 240h103v-226h43v-70h-43v-80h-82v80h-166zM598 281l-81 -131h81v131zM36 324v75h83v209l-82 -41v79l105 54h63v-301h74v-75h-243zM554 700h90l-445 -700h-89z" />
    <glyph glyph-name="onehalf" unicode="&#xbd;" horiz-adv-x="753" 
d="M36 324v75h83v209l-82 -41v79l105 54h63v-301h74v-75h-243zM710 274c0 -39 -17 -77 -51 -115l-77 -85h136v-74h-249v56l128 146c19 22 32 46 32 65c0 36 -17 51 -46 51c-35 0 -47 -30 -51 -57l-72 16c6 54 44 112 125 112c79 0 125 -40 125 -115zM554 700h90l-445 -700
h-89z" />
    <glyph glyph-name="threequarters" unicode="&#xbe;" horiz-adv-x="753" 
d="M432 80v56l145 240h103v-226h43v-70h-43v-80h-82v80h-166zM598 281l-81 -131h81v131zM272 605c0 -31 -14 -65 -50 -81c41 -13 61 -45 61 -90c0 -73 -54 -111 -130 -111c-51 0 -102 20 -131 56l38 55c26 -30 56 -43 88 -43c31 0 53 15 53 47c0 36 -21 48 -58 48h-43v63h44
c34 0 49 22 49 48c0 28 -14 47 -47 47c-36 0 -51 -25 -55 -57l-70 16c6 57 45 110 126 110c80 0 125 -40 125 -108zM554 700h90l-445 -700h-89z" />
    <glyph glyph-name="percent" unicode="%" horiz-adv-x="753" 
d="M554 700h90l-445 -700h-89zM241 535c0 76 -19 103 -57 103c-39 0 -59 -27 -59 -101s20 -101 59 -101c38 0 57 27 57 99zM43 537c0 121 49 176 141 176c95 0 140 -54 140 -177c0 -114 -48 -175 -140 -175c-89 0 -141 53 -141 176zM627 162c0 75 -19 102 -57 102
c-39 0 -59 -27 -59 -101s20 -101 59 -101c38 0 57 27 57 100zM429 163c0 121 49 176 141 176c95 0 140 -53 140 -177c0 -114 -48 -175 -140 -175c-89 0 -141 54 -141 176z" />
    <glyph glyph-name="perthousand" unicode="&#x2030;" horiz-adv-x="1078" 
d="M952 162c0 75 -20 102 -58 102c-39 0 -58 -27 -58 -101s19 -101 58 -101c38 0 58 27 58 100zM753 163c0 121 50 176 141 176c95 0 141 -53 141 -177c0 -114 -49 -175 -141 -175c-89 0 -141 54 -141 176zM554 700h90l-445 -700h-89zM241 535c0 76 -19 103 -57 103
c-39 0 -59 -27 -59 -101s20 -101 59 -101c38 0 57 27 57 99zM43 537c0 121 49 176 141 176c95 0 140 -54 140 -177c0 -114 -48 -175 -140 -175c-89 0 -141 53 -141 176zM627 162c0 75 -19 102 -57 102c-39 0 -59 -27 -59 -101s20 -101 59 -101c38 0 57 27 57 100zM429 163
c0 121 49 176 141 176c95 0 140 -53 140 -177c0 -114 -48 -175 -140 -175c-89 0 -141 54 -141 176z" />
    <glyph glyph-name="plus" unicode="+" 
d="M217 537h95v-157h157v-95h-157v-157h-95v157h-156v95h156v157z" />
    <glyph glyph-name="minus" unicode="&#x2212;" 
d="M469 380v-95h-408v95h408z" />
    <glyph glyph-name="plusminus" unicode="&#xb1;" 
d="M469 94v-94h-408v94h408zM217 537h95v-157h157v-95h-157v-157h-95v157h-156v95h156v157z" />
    <glyph glyph-name="multiply" unicode="&#xd7;" 
d="M51 478l68 68l146 -147l146 147l67 -68l-146 -146l146 -146l-67 -67l-146 146l-146 -146l-67 67l146 146z" />
    <glyph glyph-name="divide" unicode="&#xf7;" 
d="M212 215h107v-104h-107v104zM469 380v-95h-408v95h408zM212 552h107v-104h-107v104z" />
    <glyph glyph-name="equal" unicode="=" 
d="M469 268v-95h-408v95h408zM469 481v-95h-408v95h408z" />
    <glyph glyph-name="notequal" unicode="&#x2260;" 
d="M469 268v-95h-259l-71 -116h-78l70 116h-70v95h126l72 118h-198v95h254l71 116h83l-72 -116h72v-95h-129l-73 -118h202z" />
    <glyph glyph-name="approxequal" unicode="&#x2248;" 
d="M120 161c-28 10 -54 21 -81 31c20 62 60 107 132 107c62 0 140 -37 176 -37c26 0 42 14 54 47l81 -30c-20 -63 -61 -108 -134 -108c-56 0 -128 38 -174 38c-27 0 -42 -17 -54 -48zM115 347c-27 11 -54 20 -81 31c20 63 59 108 132 108c61 0 140 -38 176 -38
c26 0 42 13 55 47l81 -31c-22 -64 -64 -106 -139 -106c-56 0 -125 37 -170 37c-27 0 -42 -16 -54 -48z" />
    <glyph glyph-name="less" unicode="&#x3c;" 
d="M469 532v-97l-313 -103l313 -103v-97l-408 141v118z" />
    <glyph glyph-name="greater" unicode="&#x3e;" 
d="M61 435v97l408 -141v-118l-408 -141v97l313 103z" />
    <glyph glyph-name="lessequal" unicode="&#x2264;" 
d="M469 532v-97l-313 -103l313 -103v-97l-408 141v118zM469 95v-95h-408v95h408z" />
    <glyph glyph-name="greaterequal" unicode="&#x2265;" 
d="M61 435v97l408 -141v-118l-408 -141v97l313 103zM469 95v-95h-408v95h408z" />
    <glyph glyph-name="logicalnot" unicode="&#xac;" 
d="M61 380h408v-252h-95v157h-313v95z" />
    <glyph glyph-name="Delta" unicode="&#x394;" horiz-adv-x="536" 
d="M-6 0l211 700h125l212 -700h-548zM266 567l-137 -470h273z" />
    <glyph glyph-name="Delta" unicode="&#x2206;" horiz-adv-x="536" 
d="M-6 0l211 700h125l212 -700h-548zM266 567l-137 -470h273z" />
    <glyph glyph-name="Omega" unicode="&#x3a9;" horiz-adv-x="628" 
d="M313 713c152 -2 262 -91 262 -352c0 -133 -45 -213 -101 -264h109v-97h-240v88c65 45 118 108 118 266c0 200 -54 259 -148 259s-148 -59 -148 -259c0 -158 53 -221 118 -266v-88h-240v97h109c-56 51 -101 131 -101 264c0 261 110 350 262 352z" />
    <glyph glyph-name="Omega" unicode="&#x2126;" horiz-adv-x="628" 
d="M313 713c152 -2 262 -91 262 -352c0 -133 -45 -213 -101 -264h109v-97h-240v88c65 45 118 108 118 266c0 200 -54 259 -148 259s-148 -59 -148 -259c0 -158 53 -221 118 -266v-88h-240v97h109c-56 51 -101 131 -101 264c0 261 110 350 262 352z" />
    <glyph glyph-name="mu" unicode="&#xb5;" horiz-adv-x="536" 
d="M73 531h109v-353c0 -73 41 -94 90 -94s90 21 90 94v353h109v-366c0 -117 -71 -178 -170 -178c-47 0 -90 9 -119 29v-222l-109 -24v761z" />
    <glyph glyph-name="mu" unicode="&#x3bc;" horiz-adv-x="536" 
d="M73 531h109v-353c0 -73 41 -94 90 -94s90 21 90 94v353h109v-366c0 -117 -71 -178 -170 -178c-47 0 -90 9 -119 29v-222l-109 -24v761z" />
    <glyph glyph-name="pi" unicode="&#x3c0;" horiz-adv-x="612" 
d="M20 435v96h573v-96h-90v-435h-107v435h-179v-435h-107v435h-90z" />
    <glyph glyph-name="degree" unicode="&#xb0;" horiz-adv-x="320" 
d="M286 587c0 -70 -56 -126 -126 -126s-126 56 -126 126s56 126 126 126s126 -56 126 -126zM219 587c0 33 -26 60 -59 60s-59 -27 -59 -60s26 -60 59 -60s59 27 59 60z" />
    <glyph glyph-name="infinity" unicode="&#x221e;" horiz-adv-x="657" 
d="M613 334c0 -89 -59 -138 -141 -138c-55 0 -98 26 -143 73c-45 -47 -88 -73 -143 -73c-82 0 -141 49 -141 138s59 138 141 138c55 0 98 -26 143 -73c45 47 88 73 143 73c82 0 141 -49 141 -138zM285 334c-36 34 -64 54 -95 54c-29 0 -54 -15 -54 -54s25 -54 54 -54
c31 0 59 20 95 54zM373 334c36 -34 64 -54 95 -54c29 0 54 15 54 54s-25 54 -54 54c-31 0 -59 -20 -95 -54z" />
    <glyph glyph-name="partialdiff" unicode="&#x2202;" horiz-adv-x="553" 
d="M400 387c6 39 10 69 10 98c0 63 -20 128 -100 128c-54 0 -93 -28 -113 -93l-107 22c33 111 106 171 219 171c127 0 212 -66 212 -234c0 -175 -61 -492 -295 -492c-118 0 -202 74 -202 191c0 178 114 242 233 242c70 0 110 -14 143 -33zM383 286c-33 24 -73 36 -126 36
c-73 0 -122 -42 -122 -131c0 -59 28 -104 90 -104c75 0 130 58 158 199z" />
    <glyph glyph-name="integral" unicode="&#x222b;" horiz-adv-x="343" 
d="M209 578v-605c0 -107 -68 -185 -185 -185c-28 0 -54 5 -80 13l15 92c18 -6 37 -10 56 -10c53 0 85 24 85 91v559c0 159 58 226 184 226c29 0 55 -4 81 -12l-15 -88c-18 6 -37 10 -57 10c-53 0 -84 -24 -84 -91z" />
    <glyph glyph-name="radical" unicode="&#x221a;" horiz-adv-x="606" 
d="M34 435v96h149l121 -414l178 583h110l-224 -700h-131l-136 435h-67z" />
    <glyph glyph-name="summation" unicode="&#x2211;" horiz-adv-x="526" 
d="M41 700h432v-100h-282l204 -249l-205 -251h297v-100h-446v74l228 278l-228 273v75z" />
    <glyph glyph-name="product" unicode="&#x220f;" horiz-adv-x="672" 
d="M87 700h498v-700h-108v600h-282v-600h-108v700z" />
    <glyph glyph-name="lozenge" unicode="&#x25ca;" 
d="M511 350l-191 -350h-111l-191 350l191 350h111zM396 350l-132 239l-131 -239l131 -240z" />
    </font>
</defs>
</svg>
