<?xml version="1.0" standalone="no"?>
<!DOCTYPE svg PUBLIC "-//W3C//DTD SVG 1.1//EN" "http://www.w3.org/Graphics/SVG/1.1/DTD/svg11.dtd" >
<svg>
<metadata>
Created by FontForge 20110222 at Wed Mar 18 10:41:35 2015
 By www-data
Copyright (c) 2008-2011 BNP Paribas
</metadata>
<defs>
<font id="BNPPRounded-Bold" horiz-adv-x="530" >
  <font-face 
    font-family="BNPP Rounded"
    font-weight="700"
    font-stretch="normal"
    units-per-em="1000"
    panose-1="2 0 0 0 0 0 0 0 0 0"
    ascent="755"
    descent="-245"
    x-height="535"
    cap-height="700"
    bbox="-59 -256 1129 1043"
    underline-thickness="50"
    underline-position="-50"
    stemh="135"
    stemv="161"
    unicode-range="U+0020-FB04"
  />
<missing-glyph horiz-adv-x="493" 
d="M69 665h355v-665h-355v665zM174 561v-456h145v456h-145z" />
    <glyph glyph-name="f_f" unicode="ff" horiz-adv-x="639" 
d="M530 535h94c29 0 38 -18 38 -44c0 -39 -18 -80 -67 -80h-65v-453c0 -118 -63 -170 -155 -170c-48 0 -122 5 -122 75c0 34 3 71 36 71c13 0 28 -7 44 -7c21 0 40 17 40 50v434h-134v-453c0 -118 -63 -170 -155 -170c-48 0 -122 5 -122 75c0 34 3 71 36 71
c13 0 28 -7 44 -7c21 0 40 17 40 50v434h-28c-36 0 -49 28 -49 62c0 31 12 62 49 62h28v35c0 139 85 201 207 201c60 0 91 -11 91 -61c0 -59 -22 -70 -55 -70c-8 0 -16 1 -24 1c-38 0 -62 -24 -62 -65v-41h134v35c0 139 85 201 207 201c78 0 124 -13 124 -63
c0 -42 -18 -73 -49 -73c-22 0 -23 6 -57 6c-37 0 -68 -22 -68 -65v-41z" />
    <glyph glyph-name="f_i" unicode="fi" horiz-adv-x="596" 
d="M239 535h215c46 0 81 -14 81 -59v-433c0 -44 -35 -57 -81 -57c-45 0 -80 13 -80 57v368h-135v-453c0 -118 -63 -170 -155 -170c-48 0 -122 5 -122 75c0 34 3 71 36 71c13 0 28 -7 44 -7c21 0 40 17 40 50v434h-28c-36 0 -49 28 -49 62c0 31 12 62 49 62h28v35
c0 151 96 201 234 201c68 0 143 -13 182 -30c24 -11 36 -30 36 -61c0 -35 -6 -76 -43 -76c-36 0 -102 34 -171 34c-49 0 -81 -17 -81 -60v-43z" />
    <glyph glyph-name="f_f_i" unicode="ffi" horiz-adv-x="887" 
d="M530 535h215c46 0 81 -14 81 -59v-433c0 -44 -35 -57 -81 -57c-45 0 -80 13 -80 57v368h-135v-453c0 -118 -63 -170 -155 -170c-48 0 -122 5 -122 75c0 34 3 71 36 71c13 0 28 -7 44 -7c21 0 40 17 40 50v434h-134v-453c0 -118 -63 -170 -155 -170c-48 0 -122 5 -122 75
c0 34 3 71 36 71c13 0 28 -7 44 -7c21 0 40 17 40 50v434h-28c-36 0 -49 28 -49 62c0 31 12 62 49 62h28v35c0 139 85 201 207 201c60 0 91 -11 91 -61c0 -59 -22 -70 -55 -70c-8 0 -16 1 -24 1c-38 0 -62 -24 -62 -65v-41h134v35c0 151 96 201 234 201
c68 0 143 -13 182 -30c24 -11 36 -30 36 -61c0 -35 -6 -76 -43 -76c-36 0 -102 34 -171 34c-49 0 -81 -17 -81 -60v-43z" />
    <glyph glyph-name="f_l" unicode="fl" horiz-adv-x="623" 
d="M239 535h61c29 0 38 -18 38 -44c0 -39 -18 -80 -67 -80h-32v-453c0 -118 -63 -170 -155 -170c-48 0 -122 5 -122 75c0 34 3 71 36 71c13 0 28 -7 44 -7c21 0 40 17 40 50v434h-28c-36 0 -49 28 -49 62c0 31 12 62 49 62h28v35c0 139 87 201 227 201c65 0 115 -8 149 -17
c40 -11 77 -24 77 -65v-523c0 -29 16 -40 38 -40c20 0 28 7 42 7c16 0 22 -17 22 -45c0 -83 -44 -102 -125 -102c-88 0 -138 50 -138 175v475c-18 4 -38 5 -56 5c-58 0 -79 -21 -79 -65v-41z" />
    <glyph glyph-name="f_f_l" unicode="ffl" horiz-adv-x="914" 
d="M530 535h61c29 0 38 -18 38 -44c0 -39 -18 -80 -67 -80h-32v-453c0 -118 -63 -170 -155 -170c-48 0 -122 5 -122 75c0 34 3 71 36 71c13 0 28 -7 44 -7c21 0 40 17 40 50v434h-134v-453c0 -118 -63 -170 -155 -170c-48 0 -122 5 -122 75c0 34 3 71 36 71
c13 0 28 -7 44 -7c21 0 40 17 40 50v434h-28c-36 0 -49 28 -49 62c0 31 12 62 49 62h28v35c0 139 85 201 207 201c60 0 91 -11 91 -61c0 -59 -22 -70 -55 -70c-8 0 -16 1 -24 1c-38 0 -62 -24 -62 -65v-41h134v35c0 139 87 201 227 201c65 0 115 -8 149 -17
c40 -11 77 -24 77 -65v-523c0 -29 16 -40 38 -40c20 0 28 7 42 7c16 0 22 -17 22 -45c0 -83 -44 -102 -125 -102c-88 0 -138 50 -138 175v475c-18 4 -38 5 -56 5c-58 0 -79 -21 -79 -65v-41z" />
    <glyph glyph-name=".notdef" horiz-adv-x="493" 
d="M69 665h355v-665h-355v665zM174 561v-456h145v456h-145z" />
    <glyph glyph-name=".null" horiz-adv-x="0" 
 />
    <glyph glyph-name="CR" horiz-adv-x="262" 
 />
    <glyph glyph-name="space" unicode=" " horiz-adv-x="256" 
 />
    <glyph glyph-name="A" unicode="A" horiz-adv-x="578" 
d="M176 129l-25 -92c-8 -28 -24 -51 -76 -51c-42 0 -73 15 -73 49c0 7 1 14 3 22l173 595c9 33 32 48 70 48h89c39 0 57 -15 69 -59l167 -580c2 -9 3 -15 3 -22c0 -37 -31 -53 -70 -53c-57 0 -83 24 -92 56l-25 87h-213zM355 262l-74 273l-71 -273h145z" />
    <glyph glyph-name="B" unicode="B" horiz-adv-x="585" 
d="M228 287v-149h64c62 0 92 20 92 73c0 57 -28 76 -92 76h-64zM228 561v-142h63c50 0 80 18 80 74c0 64 -36 68 -85 68h-58zM69 638c0 45 35 62 79 62h143c138 0 245 -31 245 -178c0 -76 -36 -139 -103 -165c80 -18 124 -65 124 -156c0 -149 -95 -201 -262 -201h-147
c-44 0 -79 17 -79 61v577z" />
    <glyph glyph-name="C" unicode="C" horiz-adv-x="567" 
d="M459 456c-42 0 -58 18 -70 48c-11 28 -25 63 -81 63c-85 0 -117 -59 -117 -212c0 -181 66 -223 155 -223c45 0 87 12 124 27c12 5 21 7 30 7c29 0 37 -26 37 -58c0 -48 -8 -71 -51 -89c-42 -18 -97 -33 -163 -33c-183 0 -295 106 -295 369c0 252 98 359 282 359
c129 0 231 -70 231 -198c0 -46 -36 -60 -82 -60z" />
    <glyph glyph-name="D" unicode="D" horiz-adv-x="643" 
d="M69 638c0 45 35 62 79 62h181c186 0 286 -104 286 -339c0 -258 -107 -361 -290 -361h-177c-44 0 -79 17 -79 61v577zM228 557v-414h92c84 0 132 34 132 215c0 166 -47 199 -132 199h-92z" />
    <glyph glyph-name="E" unicode="E" horiz-adv-x="525" 
d="M228 557v-139h193c36 0 51 -32 51 -69c0 -36 -15 -66 -51 -66h-193v-140h215c40 0 55 -32 55 -71c0 -41 -14 -72 -55 -72h-293c-46 0 -81 16 -81 60v578c0 47 36 62 80 62h280c40 0 55 -33 55 -72c0 -40 -15 -71 -55 -71h-201z" />
    <glyph glyph-name="F" unicode="F" horiz-adv-x="518" 
d="M69 638c0 45 35 62 79 62h295c40 0 55 -32 55 -71c0 -40 -15 -72 -55 -72h-215v-162h175c39 0 54 -31 54 -69c0 -40 -15 -71 -54 -71h-175v-209c0 -44 -36 -60 -80 -60s-79 16 -79 60v592z" />
    <glyph glyph-name="G" unicode="G" horiz-adv-x="646" 
d="M596 320v-280c0 -40 -32 -54 -72 -54c-38 0 -72 14 -72 56c-37 -37 -96 -56 -152 -56c-138 0 -272 84 -272 367c0 266 130 361 313 361c165 0 242 -92 242 -198c0 -42 -35 -60 -79 -60c-58 0 -65 31 -79 60c-12 27 -38 52 -89 52c-83 0 -137 -47 -137 -211
c0 -181 46 -225 132 -225c45 0 81 20 105 38v81h-71c-37 0 -52 31 -52 67c0 37 15 68 52 68h180c37 0 51 -29 51 -66z" />
    <glyph glyph-name="H" unicode="H" horiz-adv-x="677" 
d="M228 424h222v229c0 45 35 61 79 61s79 -16 79 -61v-607c0 -44 -35 -60 -79 -60s-79 16 -79 60v226h-222v-226c0 -44 -36 -60 -80 -60s-79 16 -79 60v607c0 45 35 61 79 61s80 -16 80 -61v-229z" />
    <glyph glyph-name="I" unicode="I" horiz-adv-x="297" 
d="M69 653c0 45 35 61 79 61s80 -16 80 -61v-607c0 -44 -36 -60 -80 -60s-79 16 -79 60v607z" />
    <glyph glyph-name="J" unicode="J" horiz-adv-x="330" 
d="M46 136c10 0 20 -5 31 -5c20 0 33 13 33 47v467c0 50 32 69 79 69c42 0 80 -16 80 -62v-478c0 -119 -57 -188 -159 -188c-51 0 -110 4 -110 65c0 68 22 85 46 85z" />
    <glyph glyph-name="K" unicode="K" horiz-adv-x="599" 
d="M228 411l171 239c36 50 56 64 103 64c38 0 64 -15 64 -47c0 -20 -8 -32 -18 -46l-143 -199l175 -346c5 -11 10 -23 10 -34c0 -35 -29 -56 -68 -56c-71 0 -99 34 -123 84l-102 209l-69 -97v-136c0 -44 -36 -60 -80 -60s-79 16 -79 60v606c0 45 35 62 79 62s80 -17 80 -62
v-241z" />
    <glyph glyph-name="L" unicode="L" horiz-adv-x="464" 
d="M69 653c0 45 35 61 79 61s80 -16 80 -61v-510h180c40 0 55 -32 55 -71c0 -40 -15 -72 -55 -72h-260c-44 0 -79 17 -79 61v592z" />
    <glyph glyph-name="M" unicode="M" horiz-adv-x="844" 
d="M423 277l120 364c13 41 34 59 80 59h45c43 0 77 -17 81 -59l52 -595c4 -43 -31 -60 -74 -60c-44 0 -82 14 -85 60l-28 374l-106 -318c-13 -39 -35 -55 -86 -55c-52 0 -74 16 -87 55l-104 318l-29 -374c-4 -46 -41 -60 -84 -60c-44 0 -79 17 -75 60l53 595
c4 42 38 59 81 59h45c46 0 67 -18 80 -59z" />
    <glyph glyph-name="N" unicode="N" horiz-adv-x="695" 
d="M146 -14c-43 0 -77 17 -77 59v609c0 43 39 60 82 60c55 0 83 -19 105 -58l214 -381v379c0 43 35 60 78 60s78 -17 78 -60v-609c0 -42 -40 -59 -83 -59c-68 0 -94 40 -123 90l-196 338v-369c0 -42 -35 -59 -78 -59z" />
    <glyph glyph-name="O" unicode="O" horiz-adv-x="623" 
d="M311 714c160 0 284 -96 284 -365c0 -268 -125 -363 -285 -363c-158 0 -282 95 -282 363c0 269 125 365 283 365zM311 568c-70 0 -124 -44 -124 -218c0 -173 54 -218 124 -218c71 0 116 45 116 218c0 174 -45 218 -116 218z" />
    <glyph glyph-name="P" unicode="P" horiz-adv-x="565" 
d="M228 224v-179c0 -43 -36 -59 -80 -59s-79 16 -79 60v592c0 45 35 62 79 62h128c183 0 256 -52 256 -232c0 -174 -86 -249 -246 -249c-26 0 -42 1 -58 5zM228 564v-206c11 -2 23 -4 41 -4c68 0 106 22 106 103c0 89 -34 107 -99 107h-48z" />
    <glyph glyph-name="Q" unicode="Q" horiz-adv-x="623" 
d="M311 714c160 0 284 -96 284 -365c0 -195 -66 -298 -163 -340l66 -118c4 -8 6 -16 6 -23c0 -30 -28 -47 -64 -47c-49 0 -87 10 -110 58l-52 107c-142 13 -250 113 -250 363c0 269 125 365 283 365zM311 568c-70 0 -124 -44 -124 -218c0 -173 54 -218 124 -218
c71 0 116 45 116 218c0 174 -45 218 -116 218z" />
    <glyph glyph-name="R" unicode="R" horiz-adv-x="582" 
d="M436 292l103 -228c4 -10 5 -20 5 -31c0 -28 -29 -47 -73 -47c-66 0 -84 25 -105 74l-79 184c-23 0 -50 2 -60 3v-190c0 -54 -31 -71 -79 -71c-41 0 -79 13 -79 60v592c0 44 34 62 80 62h134c152 0 263 -43 263 -216c0 -117 -43 -167 -110 -192zM227 561v-173
c20 -3 22 -4 53 -4c65 0 100 29 100 92c0 66 -30 85 -98 85h-55z" />
    <glyph glyph-name="S" unicode="S" horiz-adv-x="542" 
d="M267 714c122 0 201 -55 227 -159c2 -6 2 -12 2 -18c0 -42 -41 -66 -83 -66c-49 0 -63 20 -72 47c-9 28 -30 50 -71 50c-35 0 -73 -10 -73 -56c0 -116 304 -112 304 -318c0 -132 -85 -208 -239 -208c-100 0 -224 50 -224 119c0 45 23 85 60 85c8 0 21 -2 30 -9
c42 -32 89 -49 136 -49c44 0 75 12 75 50c0 102 -304 93 -304 321c0 134 101 211 232 211z" />
    <glyph glyph-name="T" unicode="T" horiz-adv-x="558" 
d="M200 557h-131c-43 0 -59 30 -59 72c0 40 16 71 59 71h422c42 0 57 -31 57 -71c0 -42 -15 -72 -57 -72h-132v-511c0 -44 -36 -60 -80 -60s-79 16 -79 60v511z" />
    <glyph glyph-name="U" unicode="U" horiz-adv-x="658" 
d="M330 -14c-186 0 -266 104 -266 258v408c0 45 35 62 79 62s79 -17 79 -62v-403c0 -82 38 -117 108 -117c72 0 107 36 107 117v403c0 45 35 62 79 62s79 -17 79 -62v-408c0 -154 -78 -258 -265 -258z" />
    <glyph glyph-name="V" unicode="V" horiz-adv-x="600" 
d="M312 195l121 462c8 31 23 57 84 57c38 0 65 -16 65 -52c0 -12 -5 -24 -8 -37l-159 -575c-10 -36 -39 -50 -74 -50h-63c-38 0 -69 16 -79 49l-172 576c-4 12 -7 24 -8 35c0 37 40 54 80 54c58 0 80 -26 88 -57z" />
    <glyph glyph-name="W" unicode="W" horiz-adv-x="909" 
d="M554 59l-100 413l-100 -413c-10 -41 -38 -59 -80 -59h-60c-44 0 -72 17 -80 59l-116 576c-1 6 -2 11 -2 17c0 34 23 62 76 62c63 0 82 -28 88 -60l75 -427l103 413c10 42 35 60 79 60h34c44 0 69 -18 79 -60l103 -413l75 427c6 32 25 60 88 60c53 0 76 -28 76 -62
c0 -6 -1 -11 -2 -17l-116 -576c-8 -42 -36 -59 -80 -59h-60c-42 0 -70 18 -80 59z" />
    <glyph glyph-name="X" unicode="X" horiz-adv-x="573" 
d="M292 484l94 174c15 28 31 56 93 56c39 0 69 -17 69 -53c0 -7 -1 -15 -6 -23l-163 -281l170 -295c4 -8 4 -16 4 -23c0 -36 -40 -53 -80 -53c-57 0 -79 26 -96 56l-97 175l-98 -175c-15 -28 -29 -56 -91 -56c-39 0 -71 17 -71 53c0 7 2 15 6 23l162 285l-160 291
c-4 8 -4 16 -4 23c0 36 40 53 80 53c57 0 79 -26 95 -56z" />
    <glyph glyph-name="Y" unicode="Y" horiz-adv-x="548" 
d="M276 419l96 233c14 34 30 62 97 62c39 0 69 -16 69 -52c0 -7 0 -15 -4 -24l-180 -394v-187c0 -52 -30 -71 -79 -71c-51 0 -80 21 -80 71v188l-181 393c-4 8 -4 16 -4 23c0 36 37 53 76 53c63 0 82 -30 97 -67z" />
    <glyph glyph-name="Z" unicode="Z" horiz-adv-x="560" 
d="M534 72c0 -40 -15 -72 -55 -72h-402c-40 0 -56 30 -56 70c0 24 7 39 20 60l275 427h-236c-41 0 -56 31 -56 71c0 39 15 72 56 72h393c41 0 56 -34 56 -74c0 -29 -13 -49 -27 -71l-264 -412h241c40 0 55 -32 55 -71z" />
    <glyph glyph-name="Agrave" unicode="&#xc0;" horiz-adv-x="578" 
d="M176 129l-25 -92c-8 -28 -24 -51 -76 -51c-42 0 -73 15 -73 49c0 7 1 14 3 22l173 595c9 33 32 48 70 48h89c39 0 57 -15 69 -59l167 -580c2 -9 3 -15 3 -22c0 -37 -31 -53 -70 -53c-57 0 -83 24 -92 56l-25 87h-213zM355 262l-74 273l-71 -273h145zM206 781l-52 69
c-10 14 -19 23 -19 38c0 21 22 33 58 33c59 0 77 -19 92 -45l42 -74c4 -7 8 -16 8 -22c0 -23 -17 -37 -53 -37c-39 0 -57 13 -76 38z" />
    <glyph glyph-name="Aacute" unicode="&#xc1;" horiz-adv-x="578" 
d="M176 129l-25 -92c-8 -28 -24 -51 -76 -51c-42 0 -73 15 -73 49c0 7 1 14 3 22l173 595c9 33 32 48 70 48h89c39 0 57 -15 69 -59l167 -580c2 -9 3 -15 3 -22c0 -37 -31 -53 -70 -53c-57 0 -83 24 -92 56l-25 87h-213zM355 262l-74 273l-71 -273h145zM428 850l-52 -69
c-19 -25 -37 -38 -76 -38c-36 0 -53 14 -53 37c0 6 4 15 8 22l42 74c15 26 33 45 92 45c36 0 58 -12 58 -33c0 -15 -9 -24 -19 -38z" />
    <glyph glyph-name="Acircumflex" unicode="&#xc2;" horiz-adv-x="578" 
d="M176 129l-25 -92c-8 -28 -24 -51 -76 -51c-42 0 -73 15 -73 49c0 7 1 14 3 22l173 595c9 33 32 48 70 48h89c39 0 57 -15 69 -59l167 -580c2 -9 3 -15 3 -22c0 -37 -31 -53 -70 -53c-57 0 -83 24 -92 56l-25 87h-213zM355 262l-74 273l-71 -273h145zM293 825l-35 -52
c-13 -20 -37 -28 -63 -28c-33 0 -52 9 -52 31c0 4 0 11 6 20l51 80c14 22 22 36 62 36h62c40 0 48 -14 62 -36l51 -80c6 -9 6 -16 6 -20c0 -22 -19 -31 -52 -31c-26 0 -50 8 -63 28z" />
    <glyph glyph-name="Atilde" unicode="&#xc3;" horiz-adv-x="578" 
d="M176 129l-25 -92c-8 -28 -24 -51 -76 -51c-42 0 -73 15 -73 49c0 7 1 14 3 22l173 595c9 33 32 48 70 48h89c39 0 57 -15 69 -59l167 -580c2 -9 3 -15 3 -22c0 -37 -31 -53 -70 -53c-57 0 -83 24 -92 56l-25 87h-213zM355 262l-74 273l-71 -273h145zM358 762
c-42 0 -87 29 -112 29c-32 0 -24 -27 -62 -27c-24 0 -51 11 -51 45c0 55 53 90 94 90c45 0 87 -29 113 -29c32 0 24 28 62 28c26 0 51 -14 51 -46c0 -57 -53 -90 -95 -90z" />
    <glyph glyph-name="Adieresis" unicode="&#xc4;" horiz-adv-x="578" 
d="M176 129l-25 -92c-8 -28 -24 -51 -76 -51c-42 0 -73 15 -73 49c0 7 1 14 3 22l173 595c9 33 32 48 70 48h89c39 0 57 -15 69 -59l167 -580c2 -9 3 -15 3 -22c0 -37 -31 -53 -70 -53c-57 0 -83 24 -92 56l-25 87h-213zM355 262l-74 273l-71 -273h145zM320 861
c0 34 27 47 61 47s60 -13 60 -47v-57c0 -34 -26 -46 -60 -46s-61 12 -61 46v57zM145 861c0 34 26 47 60 47s61 -13 61 -47v-57c0 -34 -27 -46 -61 -46s-60 12 -60 46v57z" />
    <glyph glyph-name="Amacron" unicode="&#x100;" horiz-adv-x="578" 
d="M176 129l-25 -92c-8 -28 -24 -51 -76 -51c-42 0 -73 15 -73 49c0 7 1 14 3 22l173 595c9 33 32 48 70 48h89c39 0 57 -15 69 -59l167 -580c2 -9 3 -15 3 -22c0 -37 -31 -53 -70 -53c-57 0 -83 24 -92 56l-25 87h-213zM355 262l-74 273l-71 -273h145zM176 779
c-32 0 -44 23 -44 54s12 54 44 54h226c31 0 43 -23 43 -54s-12 -54 -43 -54h-226z" />
    <glyph glyph-name="Abreve" unicode="&#x102;" horiz-adv-x="578" 
d="M176 129l-25 -92c-8 -28 -24 -51 -76 -51c-42 0 -73 15 -73 49c0 7 1 14 3 22l173 595c9 33 32 48 70 48h89c39 0 57 -15 69 -59l167 -580c2 -9 3 -15 3 -22c0 -37 -31 -53 -70 -53c-57 0 -83 24 -92 56l-25 87h-213zM355 262l-74 273l-71 -273h145zM289 755
c-86 0 -152 56 -152 128c0 29 20 37 50 37c31 0 46 -8 52 -30c7 -24 27 -36 50 -36s43 12 50 36c6 22 21 30 52 30c30 0 50 -8 50 -37c0 -72 -66 -128 -152 -128z" />
    <glyph glyph-name="Aring" unicode="&#xc5;" horiz-adv-x="578" 
d="M176 129l-25 -92c-8 -28 -24 -51 -76 -51c-42 0 -73 15 -73 49c0 7 1 14 3 22l173 595c9 33 32 48 70 48h89c39 0 57 -15 69 -59l167 -580c2 -9 3 -15 3 -22c0 -37 -31 -53 -70 -53c-57 0 -83 24 -92 56l-25 87h-213zM355 262l-74 273l-71 -273h145zM180 832
c0 55 45 97 113 97s113 -42 113 -97s-45 -97 -113 -97s-113 42 -113 97zM293 864c-23 0 -34 -11 -34 -32s11 -32 34 -32c22 0 33 11 33 32s-11 32 -33 32z" />
    <glyph glyph-name="Aringacute" unicode="&#x1fa;" horiz-adv-x="578" 
d="M176 833c0 36 19 67 52 83l46 82c15 26 29 45 88 45c36 0 60 -12 60 -33c0 -15 -9 -24 -19 -38l-47 -60c29 -17 46 -46 46 -79c0 -55 -45 -97 -113 -97s-113 42 -113 97zM289 865c-23 0 -34 -11 -34 -32s11 -32 34 -32c22 0 33 11 33 32s-11 32 -33 32zM176 129l-25 -92
c-8 -28 -24 -51 -76 -51c-42 0 -73 15 -73 49c0 7 1 14 3 22l173 595c9 33 32 48 70 48h89c39 0 57 -15 69 -59l167 -580c2 -9 3 -15 3 -22c0 -37 -31 -53 -70 -53c-57 0 -83 24 -92 56l-25 87h-213zM355 262l-74 273l-71 -273h145z" />
    <glyph glyph-name="Aogonek" unicode="&#x104;" horiz-adv-x="578" 
d="M176 129l-25 -92c-8 -28 -24 -51 -76 -51c-42 0 -73 15 -73 49c0 7 1 14 3 22l173 595c9 33 32 48 70 48h89c39 0 57 -15 69 -59l167 -580c2 -9 3 -15 3 -22c0 -18 -7 -31 -18 -39c-23 -18 -52 -44 -52 -70c0 -18 10 -27 27 -27c21 0 27 13 48 15c31 0 44 -29 44 -54
c0 -52 -70 -72 -124 -72c-68 0 -125 34 -125 106c0 38 18 81 50 102l9 7c-11 9 -17 21 -21 35l-25 87h-213zM355 262l-74 273l-71 -273h145z" />
    <glyph glyph-name="AE" unicode="&#xc6;" horiz-adv-x="837" 
d="M540 557v-139h193c36 0 51 -32 51 -69c0 -36 -15 -66 -51 -66h-193v-140h215c40 0 55 -32 55 -71c0 -41 -14 -72 -55 -72h-284c-46 0 -90 9 -90 60v69h-193l-48 -99c-14 -29 -38 -44 -88 -44c-35 0 -72 16 -72 46c0 9 0 17 7 29l310 588c20 39 53 51 93 51h351
c40 0 55 -33 55 -72c0 -40 -15 -71 -55 -71h-201zM381 524l-128 -262h128v262z" />
    <glyph glyph-name="AEacute" unicode="&#x1fc;" horiz-adv-x="837" 
d="M540 557v-139h193c36 0 51 -32 51 -69c0 -36 -15 -66 -51 -66h-193v-140h215c40 0 55 -32 55 -71c0 -41 -14 -72 -55 -72h-284c-46 0 -90 9 -90 60v69h-193l-48 -99c-14 -29 -38 -44 -88 -44c-35 0 -72 16 -72 46c0 9 0 17 7 29l310 588c20 39 53 51 93 51h351
c40 0 55 -33 55 -72c0 -40 -15 -71 -55 -71h-201zM381 524l-128 -262h128v262zM604 852l-52 -69c-19 -25 -37 -38 -76 -38c-36 0 -53 14 -53 37c0 6 4 15 8 22l42 74c15 26 33 45 92 45c36 0 58 -12 58 -33c0 -15 -9 -24 -19 -38z" />
    <glyph glyph-name="Cacute" unicode="&#x106;" horiz-adv-x="567" 
d="M459 456c-42 0 -58 18 -70 48c-11 28 -25 63 -81 63c-85 0 -117 -59 -117 -212c0 -181 66 -223 155 -223c45 0 87 12 124 27c12 5 21 7 30 7c29 0 37 -26 37 -58c0 -48 -8 -71 -51 -89c-42 -18 -97 -33 -163 -33c-183 0 -295 106 -295 369c0 252 98 359 282 359
c129 0 231 -70 231 -198c0 -46 -36 -60 -82 -60zM444 850l-52 -69c-19 -25 -37 -38 -76 -38c-36 0 -53 14 -53 37c0 6 4 15 8 22l42 74c15 26 33 45 92 45c36 0 58 -12 58 -33c0 -15 -9 -24 -19 -38z" />
    <glyph glyph-name="Ccircumflex" unicode="&#x108;" horiz-adv-x="567" 
d="M459 456c-42 0 -58 18 -70 48c-11 28 -25 63 -81 63c-85 0 -117 -59 -117 -212c0 -181 66 -223 155 -223c45 0 87 12 124 27c12 5 21 7 30 7c29 0 37 -26 37 -58c0 -48 -8 -71 -51 -89c-42 -18 -97 -33 -163 -33c-183 0 -295 106 -295 369c0 252 98 359 282 359
c129 0 231 -70 231 -198c0 -46 -36 -60 -82 -60zM310 825l-35 -52c-13 -20 -37 -28 -63 -28c-33 0 -52 9 -52 31c0 4 0 11 6 20l51 80c14 22 22 36 62 36h62c40 0 48 -14 62 -36l51 -80c6 -9 6 -16 6 -20c0 -22 -19 -31 -52 -31c-26 0 -50 8 -63 28z" />
    <glyph glyph-name="Ccaron" unicode="&#x10c;" horiz-adv-x="567" 
d="M459 456c-42 0 -58 18 -70 48c-11 28 -25 63 -81 63c-85 0 -117 -59 -117 -212c0 -181 66 -223 155 -223c45 0 87 12 124 27c12 5 21 7 30 7c29 0 37 -26 37 -58c0 -48 -8 -71 -51 -89c-42 -18 -97 -33 -163 -33c-183 0 -295 106 -295 369c0 252 98 359 282 359
c129 0 231 -70 231 -198c0 -46 -36 -60 -82 -60zM311 841l35 52c13 20 37 28 63 28c33 0 52 -9 52 -31c0 -4 0 -11 -6 -20l-51 -80c-14 -22 -22 -36 -62 -36h-62c-40 0 -48 14 -62 36l-51 80c-6 9 -6 16 -6 20c0 22 19 31 52 31c26 0 50 -8 63 -28z" />
    <glyph glyph-name="Cdotaccent" unicode="&#x10a;" horiz-adv-x="567" 
d="M459 456c-42 0 -58 18 -70 48c-11 28 -25 63 -81 63c-85 0 -117 -59 -117 -212c0 -181 66 -223 155 -223c45 0 87 12 124 27c12 5 21 7 30 7c29 0 37 -26 37 -58c0 -48 -8 -71 -51 -89c-42 -18 -97 -33 -163 -33c-183 0 -295 106 -295 369c0 252 98 359 282 359
c129 0 231 -70 231 -198c0 -46 -36 -60 -82 -60zM248 860c0 34 29 47 63 47s62 -13 62 -47v-57c0 -34 -28 -46 -62 -46s-63 12 -63 46v57z" />
    <glyph glyph-name="Ccedilla" unicode="&#xc7;" horiz-adv-x="567" 
d="M459 456c-42 0 -58 18 -70 48c-11 28 -25 63 -81 63c-85 0 -117 -59 -117 -212c0 -181 66 -223 155 -223c45 0 87 11 124 26c12 5 21 7 30 7c29 0 37 -26 37 -58c0 -48 -8 -71 -51 -89c-27 -12 -60 -21 -97 -27c15 -22 21 -53 21 -76c0 -69 -55 -120 -133 -120
c-55 0 -96 16 -120 39c-11 11 -15 21 -15 36c0 26 22 52 48 52c12 0 17 -3 28 -10c10 -7 21 -9 30 -9c21 0 33 10 33 36c0 17 -7 34 -18 51c-147 22 -235 132 -235 365c0 252 98 359 282 359c129 0 231 -70 231 -198c0 -46 -36 -60 -82 -60z" />
    <glyph glyph-name="Dcaron" unicode="&#x10e;" horiz-adv-x="643" 
d="M69 638c0 45 35 62 79 62h181c186 0 286 -104 286 -339c0 -258 -107 -361 -290 -361h-177c-44 0 -79 17 -79 61v577zM228 557v-414h92c84 0 132 34 132 215c0 166 -47 199 -132 199h-92zM321 841l35 52c13 20 37 28 63 28c33 0 52 -9 52 -31c0 -4 0 -11 -6 -20l-51 -80
c-14 -22 -22 -36 -62 -36h-62c-40 0 -48 14 -62 36l-51 80c-6 9 -6 16 -6 20c0 22 19 31 52 31c26 0 50 -8 63 -28z" />
    <glyph glyph-name="Dcroat" unicode="&#x110;" horiz-adv-x="653" 
d="M79 638c0 45 35 62 79 62h181c186 0 286 -104 286 -339c0 -258 -107 -361 -290 -361h-177c-44 0 -79 17 -79 61v223h-30c-37 0 -49 33 -49 67s12 67 49 67h30v220zM238 557v-139h78c35 0 48 -33 48 -67c0 -40 -17 -67 -59 -67h-67v-141h92c84 0 132 34 132 215
c0 166 -47 199 -132 199h-92z" />
    <glyph glyph-name="Egrave" unicode="&#xc8;" horiz-adv-x="525" 
d="M228 557v-139h193c36 0 51 -32 51 -69c0 -36 -15 -66 -51 -66h-193v-140h215c40 0 55 -32 55 -71c0 -41 -14 -72 -55 -72h-293c-46 0 -81 16 -81 60v578c0 47 36 62 80 62h280c40 0 55 -33 55 -72c0 -40 -15 -71 -55 -71h-201zM198 781l-52 69c-10 14 -19 23 -19 38
c0 21 22 33 58 33c59 0 77 -19 92 -45l42 -74c4 -7 8 -16 8 -22c0 -23 -17 -37 -53 -37c-39 0 -57 13 -76 38z" />
    <glyph glyph-name="Eacute" unicode="&#xc9;" horiz-adv-x="525" 
d="M228 557v-139h193c36 0 51 -32 51 -69c0 -36 -15 -66 -51 -66h-193v-140h215c40 0 55 -32 55 -71c0 -41 -14 -72 -55 -72h-293c-46 0 -81 16 -81 60v578c0 47 36 62 80 62h280c40 0 55 -33 55 -72c0 -40 -15 -71 -55 -71h-201zM398 850l-52 -69c-19 -25 -37 -38 -76 -38
c-36 0 -53 14 -53 37c0 6 4 15 8 22l42 74c15 26 33 45 92 45c36 0 58 -12 58 -33c0 -15 -9 -24 -19 -38z" />
    <glyph glyph-name="Ecircumflex" unicode="&#xca;" horiz-adv-x="525" 
d="M228 557v-139h193c36 0 51 -32 51 -69c0 -36 -15 -66 -51 -66h-193v-140h215c40 0 55 -32 55 -71c0 -41 -14 -72 -55 -72h-293c-46 0 -81 16 -81 60v578c0 47 36 62 80 62h280c40 0 55 -33 55 -72c0 -40 -15 -71 -55 -71h-201zM270 825l-35 -52c-13 -20 -37 -28 -63 -28
c-33 0 -52 9 -52 31c0 4 0 11 6 20l51 80c14 22 22 36 62 36h62c40 0 48 -14 62 -36l51 -80c6 -9 6 -16 6 -20c0 -22 -19 -31 -52 -31c-26 0 -50 8 -63 28z" />
    <glyph glyph-name="Ecaron" unicode="&#x11a;" horiz-adv-x="525" 
d="M228 557v-139h193c36 0 51 -32 51 -69c0 -36 -15 -66 -51 -66h-193v-140h215c40 0 55 -32 55 -71c0 -41 -14 -72 -55 -72h-293c-46 0 -81 16 -81 60v578c0 47 36 62 80 62h280c40 0 55 -33 55 -72c0 -40 -15 -71 -55 -71h-201zM270 840l35 52c13 20 37 28 63 28
c33 0 52 -9 52 -31c0 -4 0 -11 -6 -20l-51 -80c-14 -22 -22 -36 -62 -36h-62c-40 0 -48 14 -62 36l-51 80c-6 9 -6 16 -6 20c0 22 19 31 52 31c26 0 50 -8 63 -28z" />
    <glyph glyph-name="Edieresis" unicode="&#xcb;" horiz-adv-x="525" 
d="M228 557v-139h193c36 0 51 -32 51 -69c0 -36 -15 -66 -51 -66h-193v-140h215c40 0 55 -32 55 -71c0 -41 -14 -72 -55 -72h-293c-46 0 -81 16 -81 60v578c0 47 36 62 80 62h280c40 0 55 -33 55 -72c0 -40 -15 -71 -55 -71h-201zM296 861c0 34 27 47 61 47s60 -13 60 -47
v-57c0 -34 -26 -46 -60 -46s-61 12 -61 46v57zM121 861c0 34 26 47 60 47s61 -13 61 -47v-57c0 -34 -27 -46 -61 -46s-60 12 -60 46v57z" />
    <glyph glyph-name="Emacron" unicode="&#x112;" horiz-adv-x="525" 
d="M228 557v-139h193c36 0 51 -32 51 -69c0 -36 -15 -66 -51 -66h-193v-140h215c40 0 55 -32 55 -71c0 -41 -14 -72 -55 -72h-293c-46 0 -81 16 -81 60v578c0 47 36 62 80 62h280c40 0 55 -33 55 -72c0 -40 -15 -71 -55 -71h-201zM150 779c-32 0 -44 23 -44 54s12 54 44 54
h226c31 0 43 -23 43 -54s-12 -54 -43 -54h-226z" />
    <glyph glyph-name="Ebreve" unicode="&#x114;" horiz-adv-x="525" 
d="M228 557v-139h193c36 0 51 -32 51 -69c0 -36 -15 -66 -51 -66h-193v-140h215c40 0 55 -32 55 -71c0 -41 -14 -72 -55 -72h-293c-46 0 -81 16 -81 60v578c0 47 36 62 80 62h280c40 0 55 -33 55 -72c0 -40 -15 -71 -55 -71h-201zM262 754c-86 0 -152 56 -152 128
c0 29 20 37 50 37c31 0 46 -8 52 -30c7 -24 27 -36 50 -36s43 12 50 36c6 22 21 30 52 30c30 0 50 -8 50 -37c0 -72 -66 -128 -152 -128z" />
    <glyph glyph-name="Edotaccent" unicode="&#x116;" horiz-adv-x="525" 
d="M228 557v-139h193c36 0 51 -32 51 -69c0 -36 -15 -66 -51 -66h-193v-140h215c40 0 55 -32 55 -71c0 -41 -14 -72 -55 -72h-293c-46 0 -81 16 -81 60v578c0 47 36 62 80 62h280c40 0 55 -33 55 -72c0 -40 -15 -71 -55 -71h-201zM200 861c0 34 29 47 63 47s62 -13 62 -47
v-57c0 -34 -28 -46 -62 -46s-63 12 -63 46v57z" />
    <glyph glyph-name="Eogonek" unicode="&#x118;" horiz-adv-x="525" 
d="M299 0h-149c-46 0 -81 16 -81 60v578c0 47 36 62 80 62h280c40 0 55 -33 55 -72c0 -40 -15 -71 -55 -71h-201v-139h193c36 0 51 -32 51 -69c0 -36 -15 -66 -51 -66h-193v-140h215c40 0 55 -32 55 -71c0 -41 -14 -72 -55 -72h-6c-36 -20 -58 -46 -58 -70
c0 -18 10 -27 27 -27c21 0 27 13 48 15c31 0 44 -29 44 -54c0 -52 -70 -72 -124 -72c-68 0 -125 34 -125 106c0 38 18 81 50 102z" />
    <glyph glyph-name="Gcircumflex" unicode="&#x11c;" horiz-adv-x="646" 
d="M596 320v-280c0 -40 -32 -54 -72 -54c-38 0 -72 14 -72 56c-37 -37 -96 -56 -152 -56c-138 0 -272 84 -272 367c0 266 130 361 313 361c165 0 242 -92 242 -198c0 -42 -35 -60 -79 -60c-58 0 -65 31 -79 60c-12 27 -38 52 -89 52c-83 0 -137 -47 -137 -211
c0 -181 46 -225 132 -225c45 0 81 20 105 38v81h-71c-37 0 -52 31 -52 67c0 37 15 68 52 68h180c37 0 51 -29 51 -66zM323 825l-35 -52c-13 -20 -37 -28 -63 -28c-33 0 -52 9 -52 31c0 4 0 11 6 20l51 80c14 22 22 36 62 36h62c40 0 48 -14 62 -36l51 -80c6 -9 6 -16 6 -20
c0 -22 -19 -31 -52 -31c-26 0 -50 8 -63 28z" />
    <glyph glyph-name="Gbreve" unicode="&#x11e;" horiz-adv-x="646" 
d="M596 320v-280c0 -40 -32 -54 -72 -54c-38 0 -72 14 -72 56c-37 -37 -96 -56 -152 -56c-138 0 -272 84 -272 367c0 266 130 361 313 361c165 0 242 -92 242 -198c0 -42 -35 -60 -79 -60c-58 0 -65 31 -79 60c-12 27 -38 52 -89 52c-83 0 -137 -47 -137 -211
c0 -181 46 -225 132 -225c45 0 81 20 105 38v81h-71c-37 0 -52 31 -52 67c0 37 15 68 52 68h180c37 0 51 -29 51 -66zM323 754c-86 0 -152 56 -152 128c0 29 20 37 50 37c31 0 46 -8 52 -30c7 -24 27 -36 50 -36s43 12 50 36c6 22 21 30 52 30c30 0 50 -8 50 -37
c0 -72 -66 -128 -152 -128z" />
    <glyph glyph-name="Gdotaccent" unicode="&#x120;" horiz-adv-x="646" 
d="M596 320v-280c0 -40 -32 -54 -72 -54c-38 0 -72 14 -72 56c-37 -37 -96 -56 -152 -56c-138 0 -272 84 -272 367c0 266 130 361 313 361c165 0 242 -92 242 -198c0 -42 -35 -60 -79 -60c-58 0 -65 31 -79 60c-12 27 -38 52 -89 52c-83 0 -137 -47 -137 -211
c0 -181 46 -225 132 -225c45 0 81 20 105 38v81h-71c-37 0 -52 31 -52 67c0 37 15 68 52 68h180c37 0 51 -29 51 -66zM260 865c0 34 29 47 63 47s62 -13 62 -47v-57c0 -34 -28 -46 -62 -46s-63 12 -63 46v57z" />
    <glyph glyph-name="Gcommaaccent" unicode="&#x122;" horiz-adv-x="646" 
d="M596 320v-280c0 -40 -32 -54 -72 -54c-38 0 -72 14 -72 56c-37 -37 -96 -56 -152 -56c-138 0 -272 84 -272 367c0 266 130 361 313 361c165 0 242 -92 242 -198c0 -42 -35 -60 -79 -60c-58 0 -65 31 -79 60c-12 27 -38 52 -89 52c-83 0 -137 -47 -137 -211
c0 -181 46 -225 132 -225c45 0 81 20 105 38v81h-71c-37 0 -52 31 -52 67c0 37 15 68 52 68h180c37 0 51 -29 51 -66zM373 -111l-52 -69c-19 -25 -37 -38 -76 -38c-36 0 -53 14 -53 37c0 6 4 15 8 22l42 74c15 26 33 45 92 45c36 0 58 -12 58 -33c0 -15 -9 -24 -19 -38z" />
    <glyph glyph-name="Hcircumflex" unicode="&#x124;" horiz-adv-x="677" 
d="M228 424h222v229c0 45 35 61 79 61s79 -16 79 -61v-607c0 -44 -35 -60 -79 -60s-79 16 -79 60v226h-222v-226c0 -44 -36 -60 -80 -60s-79 16 -79 60v607c0 45 35 61 79 61s80 -16 80 -61v-229zM338 825l-35 -52c-13 -20 -37 -28 -63 -28c-33 0 -52 9 -52 31
c0 4 0 11 6 20l51 80c14 22 22 36 62 36h62c40 0 48 -14 62 -36l51 -80c6 -9 6 -16 6 -20c0 -22 -19 -31 -52 -31c-26 0 -50 8 -63 28z" />
    <glyph glyph-name="Hbar" unicode="&#x126;" horiz-adv-x="707" 
d="M38 521c-28 0 -38 20 -38 47c0 26 10 46 38 46h46v39c0 45 35 61 79 61s80 -16 80 -61v-39h222v39c0 45 35 61 79 61s79 -16 79 -61v-39h47c27 0 37 -20 37 -46c0 -27 -10 -47 -37 -47h-47v-475c0 -44 -35 -60 -79 -60s-79 16 -79 60v226h-222v-226
c0 -44 -36 -60 -80 -60s-79 16 -79 60v475h-46zM243 424h222v97h-222v-97z" />
    <glyph glyph-name="Igrave" unicode="&#xcc;" horiz-adv-x="297" 
d="M69 653c0 45 35 61 79 61s80 -16 80 -61v-607c0 -44 -36 -60 -80 -60s-79 16 -79 60v607zM66 781l-52 69c-10 14 -19 23 -19 38c0 21 22 33 58 33c59 0 77 -19 92 -45l42 -74c4 -7 8 -16 8 -22c0 -23 -17 -37 -53 -37c-39 0 -57 13 -76 38z" />
    <glyph glyph-name="Iacute" unicode="&#xcd;" horiz-adv-x="297" 
d="M69 653c0 45 35 61 79 61s80 -16 80 -61v-607c0 -44 -36 -60 -80 -60s-79 16 -79 60v607zM283 850l-52 -69c-19 -25 -37 -38 -76 -38c-36 0 -53 14 -53 37c0 6 4 15 8 22l42 74c15 26 33 45 92 45c36 0 58 -12 58 -33c0 -15 -9 -24 -19 -38z" />
    <glyph glyph-name="Icircumflex" unicode="&#xce;" horiz-adv-x="297" 
d="M69 653c0 45 35 61 79 61s80 -16 80 -61v-607c0 -44 -36 -60 -80 -60s-79 16 -79 60v607zM148 825l-35 -52c-13 -20 -37 -28 -63 -28c-33 0 -52 9 -52 31c0 4 0 11 6 20l51 80c14 22 22 36 62 36h62c40 0 48 -14 62 -36l51 -80c6 -9 6 -16 6 -20c0 -22 -19 -31 -52 -31
c-26 0 -50 8 -63 28z" />
    <glyph glyph-name="Itilde" unicode="&#x128;" horiz-adv-x="297" 
d="M69 653c0 45 35 61 79 61s80 -16 80 -61v-607c0 -44 -36 -60 -80 -60s-79 16 -79 60v607zM214 765c-42 0 -87 29 -112 29c-32 0 -24 -27 -62 -27c-24 0 -51 11 -51 45c0 55 53 90 94 90c45 0 87 -29 113 -29c32 0 24 28 62 28c26 0 51 -14 51 -46c0 -57 -53 -90 -95 -90z
" />
    <glyph glyph-name="Idieresis" unicode="&#xcf;" horiz-adv-x="297" 
d="M69 653c0 45 35 61 79 61s80 -16 80 -61v-607c0 -44 -36 -60 -80 -60s-79 16 -79 60v607zM175 861c0 34 27 47 61 47s60 -13 60 -47v-57c0 -34 -26 -46 -60 -46s-61 12 -61 46v57zM0 861c0 34 26 47 60 47s61 -13 61 -47v-57c0 -34 -27 -46 -61 -46s-60 12 -60 46v57z
" />
    <glyph glyph-name="Imacron" horiz-adv-x="297" 
d="M69 653c0 45 35 61 79 61s80 -16 80 -61v-607c0 -44 -36 -60 -80 -60s-79 16 -79 60v607zM36 778c-32 0 -44 23 -44 54s12 54 44 54h226c31 0 43 -23 43 -54s-12 -54 -43 -54h-226z" />
    <glyph glyph-name="Ibreve" unicode="&#x12c;" horiz-adv-x="297" 
d="M69 653c0 45 35 61 79 61s80 -16 80 -61v-607c0 -44 -36 -60 -80 -60s-79 16 -79 60v607zM149 754c-86 0 -152 56 -152 128c0 29 20 37 50 37c31 0 46 -8 52 -30c7 -24 27 -36 50 -36s43 12 50 36c6 22 21 30 52 30c30 0 50 -8 50 -37c0 -72 -66 -128 -152 -128z" />
    <glyph glyph-name="Idotaccent" unicode="&#x130;" horiz-adv-x="297" 
d="M69 653c0 45 35 61 79 61s80 -16 80 -61v-607c0 -44 -36 -60 -80 -60s-79 16 -79 60v607zM86 861c0 34 29 47 63 47s62 -13 62 -47v-57c0 -34 -28 -46 -62 -46s-63 12 -63 46v57z" />
    <glyph glyph-name="Iogonek" unicode="&#x12e;" horiz-adv-x="297" 
d="M69 653c0 45 35 61 79 61s80 -16 80 -61v-607c0 -22 -9 -36 -22 -46c-33 -26 -56 -46 -56 -70c0 -18 10 -27 27 -27c21 0 27 15 48 15c31 0 44 -29 44 -54c0 -52 -70 -72 -124 -72c-68 0 -125 34 -125 106c0 38 18 81 62 110c-9 9 -13 21 -13 38v607z" />
    <glyph glyph-name="Jcircumflex" unicode="&#x134;" horiz-adv-x="330" 
d="M46 136c10 0 20 -5 31 -5c20 0 33 13 33 47v467c0 50 32 69 79 69c42 0 80 -16 80 -62v-478c0 -119 -57 -188 -159 -188c-51 0 -110 4 -110 65c0 68 22 85 46 85zM192 828l-35 -52c-13 -20 -37 -28 -63 -28c-33 0 -52 9 -52 31c0 4 0 11 6 20l51 80c14 22 22 36 62 36h62
c40 0 48 -14 62 -36l51 -80c6 -9 6 -16 6 -20c0 -22 -19 -31 -52 -31c-26 0 -50 8 -63 28z" />
    <glyph glyph-name="Kcommaaccent" unicode="&#x136;" horiz-adv-x="599" 
d="M228 411l171 239c36 50 56 64 103 64c38 0 64 -15 64 -47c0 -20 -8 -32 -18 -46l-143 -199l175 -346c5 -11 10 -23 10 -34c0 -35 -29 -56 -68 -56c-71 0 -99 34 -123 84l-102 209l-69 -97v-136c0 -44 -36 -60 -80 -60s-79 16 -79 60v606c0 45 35 62 79 62s80 -17 80 -62
v-241zM385 -110l-52 -69c-19 -25 -37 -38 -76 -38c-36 0 -53 14 -53 37c0 6 4 15 8 22l42 74c15 26 33 45 92 45c36 0 58 -12 58 -33c0 -15 -9 -24 -19 -38z" />
    <glyph glyph-name="Lacute" unicode="&#x139;" horiz-adv-x="464" 
d="M69 653c0 45 35 61 79 61s80 -16 80 -61v-510h180c40 0 55 -32 55 -71c0 -40 -15 -72 -55 -72h-260c-44 0 -79 17 -79 61v592zM278 850l-52 -69c-19 -25 -37 -38 -76 -38c-36 0 -53 14 -53 37c0 6 4 15 8 22l42 74c15 26 33 45 92 45c36 0 58 -12 58 -33
c0 -15 -9 -24 -19 -38z" />
    <glyph glyph-name="Lcaron" unicode="&#x13d;" horiz-adv-x="464" 
d="M69 653c0 45 35 61 79 61s80 -16 80 -61v-510h180c40 0 55 -32 55 -71c0 -40 -15 -72 -55 -72h-260c-44 0 -79 17 -79 61v592zM150 841l35 52c13 20 37 28 63 28c33 0 52 -9 52 -31c0 -4 0 -11 -6 -20l-51 -80c-14 -22 -22 -36 -62 -36h-62c-40 0 -48 14 -62 36l-51 80
c-6 9 -6 16 -6 20c0 22 19 31 52 31c26 0 50 -8 63 -28z" />
    <glyph glyph-name="Lcommaaccent" unicode="&#x13b;" horiz-adv-x="464" 
d="M69 653c0 45 35 61 79 61s80 -16 80 -61v-510h180c40 0 55 -32 55 -71c0 -40 -15 -72 -55 -72h-260c-44 0 -79 17 -79 61v592zM311 -110l-52 -69c-19 -25 -37 -38 -76 -38c-36 0 -53 14 -53 37c0 6 4 15 8 22l42 74c15 26 33 45 92 45c36 0 58 -12 58 -33
c0 -15 -9 -24 -19 -38z" />
    <glyph glyph-name="Lslash" unicode="&#x141;" horiz-adv-x="472" 
d="M235 450c37 15 73 31 110 47c9 4 18 7 25 7c24 0 40 -19 40 -52c0 -40 -18 -66 -41 -76l-134 -57v-176h181c40 0 55 -32 55 -71s-14 -72 -55 -72h-252c-48 0 -87 11 -87 60v192c-15 -7 -29 -13 -39 -13c-23 0 -38 19 -38 52c0 41 16 66 40 76l37 15v262c0 51 31 70 79 70
s79 -20 79 -70v-194z" />
    <glyph glyph-name="Nacute" unicode="&#x143;" horiz-adv-x="695" 
d="M146 -14c-43 0 -77 17 -77 59v609c0 43 39 60 82 60c55 0 83 -19 105 -58l214 -381v379c0 43 35 60 78 60s78 -17 78 -60v-609c0 -42 -40 -59 -83 -59c-68 0 -94 40 -123 90l-196 338v-369c0 -42 -35 -59 -78 -59zM469 853l-52 -69c-19 -25 -37 -38 -76 -38
c-36 0 -53 14 -53 37c0 6 4 15 8 22l42 74c15 26 33 45 92 45c36 0 58 -12 58 -33c0 -15 -9 -24 -19 -38z" />
    <glyph glyph-name="Ncaron" unicode="&#x147;" horiz-adv-x="695" 
d="M146 -14c-43 0 -77 17 -77 59v609c0 43 39 60 82 60c55 0 83 -19 105 -58l214 -381v379c0 43 35 60 78 60s78 -17 78 -60v-609c0 -42 -40 -59 -83 -59c-68 0 -94 40 -123 90l-196 338v-369c0 -42 -35 -59 -78 -59zM341 841l35 52c13 20 37 28 63 28c33 0 52 -9 52 -31
c0 -4 0 -11 -6 -20l-51 -80c-14 -22 -22 -36 -62 -36h-62c-40 0 -48 14 -62 36l-51 80c-6 9 -6 16 -6 20c0 22 19 31 52 31c26 0 50 -8 63 -28z" />
    <glyph glyph-name="Ntilde" unicode="&#xd1;" horiz-adv-x="695" 
d="M146 -14c-43 0 -77 17 -77 59v609c0 43 39 60 82 60c55 0 83 -19 105 -58l214 -381v379c0 43 35 60 78 60s78 -17 78 -60v-609c0 -42 -40 -59 -83 -59c-68 0 -94 40 -123 90l-196 338v-369c0 -42 -35 -59 -78 -59zM404 761c-42 0 -87 29 -112 29c-32 0 -24 -27 -62 -27
c-24 0 -51 11 -51 45c0 55 53 90 94 90c45 0 87 -29 113 -29c32 0 24 28 62 28c26 0 51 -14 51 -46c0 -57 -53 -90 -95 -90z" />
    <glyph glyph-name="Ncommaaccent" unicode="&#x145;" horiz-adv-x="695" 
d="M146 -14c-43 0 -77 17 -77 59v609c0 43 39 60 82 60c55 0 83 -19 105 -58l214 -381v379c0 43 35 60 78 60s78 -17 78 -60v-609c0 -42 -40 -59 -83 -59c-68 0 -94 40 -123 90l-196 338v-369c0 -42 -35 -59 -78 -59zM406 -111l-52 -69c-19 -25 -37 -38 -76 -38
c-36 0 -53 14 -53 37c0 6 4 15 8 22l42 74c15 26 33 45 92 45c36 0 58 -12 58 -33c0 -15 -9 -24 -19 -38z" />
    <glyph glyph-name="Ograve" unicode="&#xd2;" horiz-adv-x="623" 
d="M311 714c160 0 284 -96 284 -365c0 -268 -125 -363 -285 -363c-158 0 -282 95 -282 363c0 269 125 365 283 365zM311 568c-70 0 -124 -44 -124 -218c0 -173 54 -218 124 -218c71 0 116 45 116 218c0 174 -45 218 -116 218zM230 781l-52 69c-10 14 -19 23 -19 38
c0 21 22 33 58 33c59 0 77 -19 92 -45l42 -74c4 -7 8 -16 8 -22c0 -23 -17 -37 -53 -37c-39 0 -57 13 -76 38z" />
    <glyph glyph-name="Oacute" unicode="&#xd3;" horiz-adv-x="623" 
d="M311 714c160 0 284 -96 284 -365c0 -268 -125 -363 -285 -363c-158 0 -282 95 -282 363c0 269 125 365 283 365zM311 568c-70 0 -124 -44 -124 -218c0 -173 54 -218 124 -218c71 0 116 45 116 218c0 174 -45 218 -116 218zM442 850l-52 -69c-19 -25 -37 -38 -76 -38
c-36 0 -53 14 -53 37c0 6 4 15 8 22l42 74c15 26 33 45 92 45c36 0 58 -12 58 -33c0 -15 -9 -24 -19 -38z" />
    <glyph glyph-name="Ocircumflex" unicode="&#xd4;" horiz-adv-x="623" 
d="M311 714c160 0 284 -96 284 -365c0 -268 -125 -363 -285 -363c-158 0 -282 95 -282 363c0 269 125 365 283 365zM311 568c-70 0 -124 -44 -124 -218c0 -173 54 -218 124 -218c71 0 116 45 116 218c0 174 -45 218 -116 218zM312 825l-35 -52c-13 -20 -37 -28 -63 -28
c-33 0 -52 9 -52 31c0 4 0 11 6 20l51 80c14 22 22 36 62 36h62c40 0 48 -14 62 -36l51 -80c6 -9 6 -16 6 -20c0 -22 -19 -31 -52 -31c-26 0 -50 8 -63 28z" />
    <glyph glyph-name="Otilde" unicode="&#xd5;" horiz-adv-x="623" 
d="M311 714c160 0 284 -96 284 -365c0 -268 -125 -363 -285 -363c-158 0 -282 95 -282 363c0 269 125 365 283 365zM311 568c-70 0 -124 -44 -124 -218c0 -173 54 -218 124 -218c71 0 116 45 116 218c0 174 -45 218 -116 218zM376 761c-42 0 -87 29 -112 29
c-32 0 -24 -27 -62 -27c-24 0 -51 11 -51 45c0 55 53 90 94 90c45 0 87 -29 113 -29c32 0 24 28 62 28c26 0 51 -14 51 -46c0 -57 -53 -90 -95 -90z" />
    <glyph glyph-name="Odieresis" unicode="&#xd6;" horiz-adv-x="623" 
d="M311 714c160 0 284 -96 284 -365c0 -268 -125 -363 -285 -363c-158 0 -282 95 -282 363c0 269 125 365 283 365zM311 568c-70 0 -124 -44 -124 -218c0 -173 54 -218 124 -218c71 0 116 45 116 218c0 174 -45 218 -116 218zM338 861c0 34 27 47 61 47s60 -13 60 -47v-57
c0 -34 -26 -46 -60 -46s-61 12 -61 46v57zM163 861c0 34 26 47 60 47s61 -13 61 -47v-57c0 -34 -27 -46 -61 -46s-60 12 -60 46v57z" />
    <glyph glyph-name="Omacron" unicode="&#x14c;" horiz-adv-x="623" 
d="M311 714c160 0 284 -96 284 -365c0 -268 -125 -363 -285 -363c-158 0 -282 95 -282 363c0 269 125 365 283 365zM311 568c-70 0 -124 -44 -124 -218c0 -173 54 -218 124 -218c71 0 116 45 116 218c0 174 -45 218 -116 218zM199 779c-32 0 -44 23 -44 54s12 54 44 54h226
c31 0 43 -23 43 -54s-12 -54 -43 -54h-226z" />
    <glyph glyph-name="Obreve" unicode="&#x14e;" horiz-adv-x="623" 
d="M311 714c160 0 284 -96 284 -365c0 -268 -125 -363 -285 -363c-158 0 -282 95 -282 363c0 269 125 365 283 365zM311 568c-70 0 -124 -44 -124 -218c0 -173 54 -218 124 -218c71 0 116 45 116 218c0 174 -45 218 -116 218zM311 754c-86 0 -152 56 -152 128
c0 29 20 37 50 37c31 0 46 -8 52 -30c7 -24 27 -36 50 -36s43 12 50 36c6 22 21 30 52 30c30 0 50 -8 50 -37c0 -72 -66 -128 -152 -128z" />
    <glyph glyph-name="Ohungarumlaut" unicode="&#x150;" horiz-adv-x="623" 
d="M311 714c160 0 284 -96 284 -365c0 -268 -125 -363 -285 -363c-158 0 -282 95 -282 363c0 269 125 365 283 365zM311 568c-70 0 -124 -44 -124 -218c0 -173 54 -218 124 -218c71 0 116 45 116 218c0 174 -45 218 -116 218zM470 921c35 0 54 -18 54 -39
c0 -8 -2 -17 -8 -25l-58 -81c-15 -21 -31 -33 -63 -33c-31 0 -50 12 -50 30c0 4 1 8 3 13l44 92c12 26 26 43 78 43zM280 921c37 0 61 -14 61 -36c0 -5 -2 -11 -5 -17l-47 -94c-10 -19 -23 -31 -59 -31c-26 0 -45 12 -45 30c0 2 0 5 1 7l22 100c6 29 32 41 72 41z" />
    <glyph glyph-name="Oslash" unicode="&#xd8;" horiz-adv-x="623" 
d="M311 714c60 0 115 -14 160 -45l31 49c8 12 18 16 29 16c20 0 38 -16 38 -33c0 -16 -29 -58 -46 -82c44 -58 71 -146 71 -270c0 -268 -124 -363 -284 -363c-61 0 -116 14 -161 45c-16 -25 -32 -63 -64 -63c-18 0 -34 13 -34 31c0 6 2 14 7 22l39 61
c-44 57 -69 144 -69 266c0 269 124 366 283 366zM310 567c-69 0 -123 -44 -123 -218c0 -43 4 -80 11 -109l188 295c-19 23 -45 32 -76 32zM426 350c0 41 -4 74 -9 101l-184 -288c21 -23 47 -31 77 -31c72 0 116 45 116 218z" />
    <glyph glyph-name="Oslashacute" unicode="&#x1fe;" horiz-adv-x="623" 
d="M311 714c60 0 115 -14 160 -45l31 49c8 12 18 16 29 16c20 0 38 -16 38 -33c0 -16 -29 -58 -46 -82c44 -58 71 -146 71 -270c0 -268 -124 -363 -284 -363c-61 0 -116 14 -161 45c-16 -25 -32 -63 -64 -63c-18 0 -34 13 -34 31c0 6 2 14 7 22l39 61
c-44 57 -69 144 -69 266c0 269 124 366 283 366zM310 567c-69 0 -123 -44 -123 -218c0 -43 4 -80 11 -109l188 295c-19 23 -45 32 -76 32zM426 350c0 41 -4 74 -9 101l-184 -288c21 -23 47 -31 77 -31c72 0 116 45 116 218zM442 850l-52 -69c-19 -25 -37 -38 -76 -38
c-36 0 -53 14 -53 37c0 6 4 15 8 22l42 74c15 26 33 45 92 45c36 0 58 -12 58 -33c0 -15 -9 -24 -19 -38z" />
    <glyph glyph-name="OE" unicode="&#x152;" horiz-adv-x="906" 
d="M609 557v-139h193c36 0 51 -32 51 -69c0 -36 -15 -66 -51 -66h-193v-140h215c40 0 55 -32 55 -71c0 -41 -14 -72 -55 -72h-273c-46 0 -83 19 -84 68c-28 -47 -80 -82 -157 -82c-158 0 -282 95 -282 363c0 269 125 365 283 365c84 0 129 -35 156 -81c3 48 40 67 83 67h260
c40 0 55 -33 55 -72c0 -40 -15 -71 -55 -71h-201zM311 568c-70 0 -124 -44 -124 -218c0 -173 54 -218 124 -218c71 0 116 45 116 218c0 174 -45 218 -116 218z" />
    <glyph glyph-name="Racute" unicode="&#x154;" horiz-adv-x="582" 
d="M436 292l103 -228c4 -10 5 -20 5 -31c0 -28 -29 -47 -73 -47c-66 0 -84 25 -105 74l-79 184c-23 0 -50 2 -60 3v-190c0 -54 -31 -71 -79 -71c-41 0 -79 13 -79 60v592c0 44 34 62 80 62h134c152 0 263 -43 263 -216c0 -117 -43 -167 -110 -192zM227 561v-173
c20 -3 22 -4 53 -4c65 0 100 29 100 92c0 66 -30 85 -98 85h-55zM425 850l-52 -69c-19 -25 -37 -38 -76 -38c-36 0 -53 14 -53 37c0 6 4 15 8 22l42 74c15 26 33 45 92 45c36 0 58 -12 58 -33c0 -15 -9 -24 -19 -38z" />
    <glyph glyph-name="Rcaron" unicode="&#x158;" horiz-adv-x="582" 
d="M436 292l103 -228c4 -10 5 -20 5 -31c0 -28 -29 -47 -73 -47c-66 0 -84 25 -105 74l-79 184c-23 0 -50 2 -60 3v-190c0 -54 -31 -71 -79 -71c-41 0 -79 13 -79 60v592c0 44 34 62 80 62h134c152 0 263 -43 263 -216c0 -117 -43 -167 -110 -192zM227 561v-173
c20 -3 22 -4 53 -4c65 0 100 29 100 92c0 66 -30 85 -98 85h-55zM304 841l35 52c13 20 37 28 63 28c33 0 52 -9 52 -31c0 -4 0 -11 -6 -20l-51 -80c-14 -22 -22 -36 -62 -36h-62c-40 0 -48 14 -62 36l-51 80c-6 9 -6 16 -6 20c0 22 19 31 52 31c26 0 50 -8 63 -28z" />
    <glyph glyph-name="Rcommaaccent" unicode="&#x156;" horiz-adv-x="582" 
d="M436 292l103 -228c4 -10 5 -20 5 -31c0 -28 -29 -47 -73 -47c-66 0 -84 25 -105 74l-79 184c-23 0 -50 2 -60 3v-190c0 -54 -31 -71 -79 -71c-41 0 -79 13 -79 60v592c0 44 34 62 80 62h134c152 0 263 -43 263 -216c0 -117 -43 -167 -110 -192zM227 561v-173
c20 -3 22 -4 53 -4c65 0 100 29 100 92c0 66 -30 85 -98 85h-55zM361 -111l-52 -69c-19 -25 -37 -38 -76 -38c-36 0 -53 14 -53 37c0 6 4 15 8 22l42 74c15 26 33 45 92 45c36 0 58 -12 58 -33c0 -15 -9 -24 -19 -38z" />
    <glyph glyph-name="Sacute" unicode="&#x15a;" horiz-adv-x="542" 
d="M267 714c122 0 201 -55 227 -159c2 -6 2 -12 2 -18c0 -42 -41 -66 -83 -66c-49 0 -63 20 -72 47c-9 28 -30 50 -71 50c-35 0 -73 -10 -73 -56c0 -116 304 -112 304 -318c0 -132 -85 -208 -239 -208c-100 0 -224 50 -224 119c0 45 23 85 60 85c8 0 21 -2 30 -9
c42 -32 89 -49 136 -49c44 0 75 12 75 50c0 102 -304 93 -304 321c0 134 101 211 232 211zM400 850l-52 -69c-19 -25 -37 -38 -76 -38c-36 0 -53 14 -53 37c0 6 4 15 8 22l42 74c15 26 33 45 92 45c36 0 58 -12 58 -33c0 -15 -9 -24 -19 -38z" />
    <glyph glyph-name="Scircumflex" unicode="&#x15c;" horiz-adv-x="542" 
d="M267 714c122 0 201 -55 227 -159c2 -6 2 -12 2 -18c0 -42 -41 -66 -83 -66c-49 0 -63 20 -72 47c-9 28 -30 50 -71 50c-35 0 -73 -10 -73 -56c0 -116 304 -112 304 -318c0 -132 -85 -208 -239 -208c-100 0 -224 50 -224 119c0 45 23 85 60 85c8 0 21 -2 30 -9
c42 -32 89 -49 136 -49c44 0 75 12 75 50c0 102 -304 93 -304 321c0 134 101 211 232 211zM266 828l-35 -52c-13 -20 -37 -28 -63 -28c-33 0 -52 9 -52 31c0 4 0 11 6 20l51 80c14 22 22 36 62 36h62c40 0 48 -14 62 -36l51 -80c6 -9 6 -16 6 -20c0 -22 -19 -31 -52 -31
c-26 0 -50 8 -63 28z" />
    <glyph glyph-name="Scaron" unicode="&#x160;" horiz-adv-x="542" 
d="M267 714c122 0 201 -55 227 -159c2 -6 2 -12 2 -18c0 -42 -41 -66 -83 -66c-49 0 -63 20 -72 47c-9 28 -30 50 -71 50c-35 0 -73 -10 -73 -56c0 -116 304 -112 304 -318c0 -132 -85 -208 -239 -208c-100 0 -224 50 -224 119c0 45 23 85 60 85c8 0 21 -2 30 -9
c42 -32 89 -49 136 -49c44 0 75 12 75 50c0 102 -304 93 -304 321c0 134 101 211 232 211zM265 841l35 52c13 20 37 28 63 28c33 0 52 -9 52 -31c0 -4 0 -11 -6 -20l-51 -80c-14 -22 -22 -36 -62 -36h-62c-40 0 -48 14 -62 36l-51 80c-6 9 -6 16 -6 20c0 22 19 31 52 31
c26 0 50 -8 63 -28z" />
    <glyph glyph-name="Scedilla" unicode="&#x15e;" horiz-adv-x="542" 
d="M267 714c122 0 201 -55 227 -159c2 -6 2 -12 2 -18c0 -42 -41 -66 -83 -66c-49 0 -63 20 -72 47c-9 28 -30 50 -71 50c-35 0 -73 -10 -73 -56c0 -116 304 -112 304 -318c0 -99 -48 -167 -137 -194c19 -23 27 -59 27 -85c0 -69 -55 -120 -133 -120c-55 0 -96 16 -120 39
c-11 11 -15 21 -15 36c0 26 22 52 48 52c12 0 17 -3 28 -10c10 -7 21 -9 30 -9c21 0 33 10 33 36c0 16 -6 32 -15 48c-97 4 -209 52 -209 118c0 45 23 85 60 85c8 0 21 -2 30 -9c42 -32 89 -49 136 -49c44 0 75 12 75 50c0 102 -304 93 -304 321c0 134 101 211 232 211z" />
    <glyph glyph-name="Scedilla" unicode="&#xf6c1;" horiz-adv-x="542" 
d="M267 714c122 0 201 -55 227 -159c2 -6 2 -12 2 -18c0 -42 -41 -66 -83 -66c-49 0 -63 20 -72 47c-9 28 -30 50 -71 50c-35 0 -73 -10 -73 -56c0 -116 304 -112 304 -318c0 -99 -48 -167 -137 -194c19 -23 27 -59 27 -85c0 -69 -55 -120 -133 -120c-55 0 -96 16 -120 39
c-11 11 -15 21 -15 36c0 26 22 52 48 52c12 0 17 -3 28 -10c10 -7 21 -9 30 -9c21 0 33 10 33 36c0 16 -6 32 -15 48c-97 4 -209 52 -209 118c0 45 23 85 60 85c8 0 21 -2 30 -9c42 -32 89 -49 136 -49c44 0 75 12 75 50c0 102 -304 93 -304 321c0 134 101 211 232 211z" />
    <glyph glyph-name="Scommaaccent" unicode="&#x218;" horiz-adv-x="542" 
d="M267 714c122 0 201 -55 227 -159c2 -6 2 -12 2 -18c0 -42 -41 -66 -83 -66c-49 0 -63 20 -72 47c-9 28 -30 50 -71 50c-35 0 -73 -10 -73 -56c0 -116 304 -112 304 -318c0 -132 -85 -208 -239 -208c-100 0 -224 50 -224 119c0 45 23 85 60 85c8 0 21 -2 30 -9
c42 -32 89 -49 136 -49c44 0 75 12 75 50c0 102 -304 93 -304 321c0 134 101 211 232 211zM327 -111l-52 -69c-19 -25 -37 -38 -76 -38c-36 0 -53 14 -53 37c0 6 4 15 8 22l42 74c15 26 33 45 92 45c36 0 58 -12 58 -33c0 -15 -9 -24 -19 -38z" />
    <glyph glyph-name="Tcaron" unicode="&#x164;" horiz-adv-x="558" 
d="M200 557h-131c-43 0 -59 30 -59 72c0 40 16 71 59 71h422c42 0 57 -31 57 -71c0 -42 -15 -72 -57 -72h-132v-511c0 -44 -36 -60 -80 -60s-79 16 -79 60v511zM279 841l35 52c13 20 37 28 63 28c33 0 52 -9 52 -31c0 -4 0 -11 -6 -20l-51 -80c-14 -22 -22 -36 -62 -36h-62
c-40 0 -48 14 -62 36l-51 80c-6 9 -6 16 -6 20c0 22 19 31 52 31c26 0 50 -8 63 -28z" />
    <glyph glyph-name="Tcommaaccent" unicode="&#x162;" horiz-adv-x="558" 
d="M200 557h-131c-43 0 -59 30 -59 72c0 40 16 71 59 71h422c42 0 57 -31 57 -71c0 -42 -15 -72 -57 -72h-132v-511c0 -44 -36 -60 -80 -60s-79 16 -79 60v511zM321 -111l-52 -69c-19 -25 -37 -38 -76 -38c-36 0 -53 14 -53 37c0 6 4 15 8 22l42 74c15 26 33 45 92 45
c36 0 58 -12 58 -33c0 -15 -9 -24 -19 -38z" />
    <glyph glyph-name="Tcommaaccent" unicode="&#x21a;" horiz-adv-x="558" 
d="M200 557h-131c-43 0 -59 30 -59 72c0 40 16 71 59 71h422c42 0 57 -31 57 -71c0 -42 -15 -72 -57 -72h-132v-511c0 -44 -36 -60 -80 -60s-79 16 -79 60v511zM321 -111l-52 -69c-19 -25 -37 -38 -76 -38c-36 0 -53 14 -53 37c0 6 4 15 8 22l42 74c15 26 33 45 92 45
c36 0 58 -12 58 -33c0 -15 -9 -24 -19 -38z" />
    <glyph glyph-name="Tbar" unicode="&#x166;" horiz-adv-x="558" 
d="M200 557h-131c-43 0 -59 30 -59 72c0 40 16 71 59 71h422c42 0 57 -31 57 -71c0 -42 -15 -72 -57 -72h-132v-172h100c39 0 54 -29 54 -67c0 -39 -15 -68 -54 -68h-100v-204c0 -44 -36 -60 -80 -60s-79 16 -79 60v204h-100c-40 0 -55 29 -55 68c0 38 15 67 55 67h100v172z
" />
    <glyph glyph-name="Ugrave" unicode="&#xd9;" horiz-adv-x="658" 
d="M330 -14c-186 0 -266 104 -266 258v408c0 45 35 62 79 62s79 -17 79 -62v-403c0 -82 38 -117 108 -117c72 0 107 36 107 117v403c0 45 35 62 79 62s79 -17 79 -62v-408c0 -154 -78 -258 -265 -258zM248 781l-52 69c-10 14 -19 23 -19 38c0 21 22 33 58 33
c59 0 77 -19 92 -45l42 -74c4 -7 8 -16 8 -22c0 -23 -17 -37 -53 -37c-39 0 -57 13 -76 38z" />
    <glyph glyph-name="Uacute" unicode="&#xda;" horiz-adv-x="658" 
d="M330 -14c-186 0 -266 104 -266 258v408c0 45 35 62 79 62s79 -17 79 -62v-403c0 -82 38 -117 108 -117c72 0 107 36 107 117v403c0 45 35 62 79 62s79 -17 79 -62v-408c0 -154 -78 -258 -265 -258zM461 850l-52 -69c-19 -25 -37 -38 -76 -38c-36 0 -53 14 -53 37
c0 6 4 15 8 22l42 74c15 26 33 45 92 45c36 0 58 -12 58 -33c0 -15 -9 -24 -19 -38z" />
    <glyph glyph-name="Ucircumflex" unicode="&#xdb;" horiz-adv-x="658" 
d="M330 -14c-186 0 -266 104 -266 258v408c0 45 35 62 79 62s79 -17 79 -62v-403c0 -82 38 -117 108 -117c72 0 107 36 107 117v403c0 45 35 62 79 62s79 -17 79 -62v-408c0 -154 -78 -258 -265 -258zM330 825l-35 -52c-13 -20 -37 -28 -63 -28c-33 0 -52 9 -52 31
c0 4 0 11 6 20l51 80c14 22 22 36 62 36h62c40 0 48 -14 62 -36l51 -80c6 -9 6 -16 6 -20c0 -22 -19 -31 -52 -31c-26 0 -50 8 -63 28z" />
    <glyph glyph-name="Utilde" unicode="&#x168;" horiz-adv-x="658" 
d="M330 -14c-186 0 -266 104 -266 258v408c0 45 35 62 79 62s79 -17 79 -62v-403c0 -82 38 -117 108 -117c72 0 107 36 107 117v403c0 45 35 62 79 62s79 -17 79 -62v-408c0 -154 -78 -258 -265 -258zM394 765c-42 0 -87 29 -112 29c-32 0 -24 -27 -62 -27
c-24 0 -51 11 -51 45c0 55 53 90 94 90c45 0 87 -29 113 -29c32 0 24 28 62 28c26 0 51 -14 51 -46c0 -57 -53 -90 -95 -90z" />
    <glyph glyph-name="Udieresis" unicode="&#xdc;" horiz-adv-x="658" 
d="M330 -14c-186 0 -266 104 -266 258v408c0 45 35 62 79 62s79 -17 79 -62v-403c0 -82 38 -117 108 -117c72 0 107 36 107 117v403c0 45 35 62 79 62s79 -17 79 -62v-408c0 -154 -78 -258 -265 -258zM356 861c0 34 27 47 61 47s60 -13 60 -47v-57c0 -34 -26 -46 -60 -46
s-61 12 -61 46v57zM181 861c0 34 26 47 60 47s61 -13 61 -47v-57c0 -34 -27 -46 -61 -46s-60 12 -60 46v57z" />
    <glyph glyph-name="Umacron" unicode="&#x16a;" horiz-adv-x="658" 
d="M330 -14c-186 0 -266 104 -266 258v408c0 45 35 62 79 62s79 -17 79 -62v-403c0 -82 38 -117 108 -117c72 0 107 36 107 117v403c0 45 35 62 79 62s79 -17 79 -62v-408c0 -154 -78 -258 -265 -258zM216 779c-32 0 -44 23 -44 54s12 54 44 54h226c31 0 43 -23 43 -54
s-12 -54 -43 -54h-226z" />
    <glyph glyph-name="Ubreve" unicode="&#x16c;" horiz-adv-x="658" 
d="M330 -14c-186 0 -266 104 -266 258v408c0 45 35 62 79 62s79 -17 79 -62v-403c0 -82 38 -117 108 -117c72 0 107 36 107 117v403c0 45 35 62 79 62s79 -17 79 -62v-408c0 -154 -78 -258 -265 -258zM329 754c-86 0 -152 56 -152 128c0 29 20 37 50 37c31 0 46 -8 52 -30
c7 -24 27 -36 50 -36s43 12 50 36c6 22 21 30 52 30c30 0 50 -8 50 -37c0 -72 -66 -128 -152 -128z" />
    <glyph glyph-name="Uring" unicode="&#x16e;" horiz-adv-x="658" 
d="M330 -14c-186 0 -266 104 -266 258v408c0 45 35 62 79 62s79 -17 79 -62v-403c0 -82 38 -117 108 -117c72 0 107 36 107 117v403c0 45 35 62 79 62s79 -17 79 -62v-408c0 -154 -78 -258 -265 -258zM216 834c0 55 45 97 113 97s113 -42 113 -97s-45 -97 -113 -97
s-113 42 -113 97zM329 866c-23 0 -34 -11 -34 -32s11 -32 34 -32c22 0 33 11 33 32s-11 32 -33 32z" />
    <glyph glyph-name="Uhungarumlaut" unicode="&#x170;" horiz-adv-x="658" 
d="M330 -14c-186 0 -266 104 -266 258v408c0 45 35 62 79 62s79 -17 79 -62v-403c0 -82 38 -117 108 -117c72 0 107 36 107 117v403c0 45 35 62 79 62s79 -17 79 -62v-408c0 -154 -78 -258 -265 -258zM491 921c35 0 54 -18 54 -39c0 -8 -2 -17 -8 -25l-58 -81
c-15 -21 -31 -33 -63 -33c-31 0 -50 12 -50 30c0 4 1 8 3 13l44 92c12 26 26 43 78 43zM301 921c37 0 61 -14 61 -36c0 -5 -2 -11 -5 -17l-47 -94c-10 -19 -23 -31 -59 -31c-26 0 -45 12 -45 30c0 2 0 5 1 7l22 100c6 29 32 41 72 41z" />
    <glyph glyph-name="Uogonek" unicode="&#x172;" horiz-adv-x="658" 
d="M595 244c0 -126 -52 -219 -174 -248c-32 -19 -51 -43 -51 -66c0 -18 10 -27 27 -27c21 0 27 13 48 15c31 0 44 -29 44 -54c0 -52 -70 -72 -124 -72c-68 0 -125 34 -125 106c0 33 13 68 36 91c-148 18 -212 116 -212 255v408c0 45 35 62 79 62s79 -17 79 -62v-403
c0 -82 38 -117 108 -117c72 0 107 36 107 117v403c0 45 35 62 79 62s79 -17 79 -62v-408z" />
    <glyph glyph-name="Wgrave" unicode="&#x1e80;" horiz-adv-x="909" 
d="M554 59l-100 413l-100 -413c-10 -41 -38 -59 -80 -59h-60c-44 0 -72 17 -80 59l-116 576c-1 6 -2 11 -2 17c0 34 23 62 76 62c63 0 82 -28 88 -60l75 -427l103 413c10 42 35 60 79 60h34c44 0 69 -18 79 -60l103 -413l75 427c6 32 25 60 88 60c53 0 76 -28 76 -62
c0 -6 -1 -11 -2 -17l-116 -576c-8 -42 -36 -59 -80 -59h-60c-42 0 -70 18 -80 59zM366 781l-52 69c-10 14 -19 23 -19 38c0 21 22 33 58 33c59 0 77 -19 92 -45l42 -74c4 -7 8 -16 8 -22c0 -23 -17 -37 -53 -37c-39 0 -57 13 -76 38z" />
    <glyph glyph-name="Wacute" unicode="&#x1e82;" horiz-adv-x="909" 
d="M554 59l-100 413l-100 -413c-10 -41 -38 -59 -80 -59h-60c-44 0 -72 17 -80 59l-116 576c-1 6 -2 11 -2 17c0 34 23 62 76 62c63 0 82 -28 88 -60l75 -427l103 413c10 42 35 60 79 60h34c44 0 69 -18 79 -60l103 -413l75 427c6 32 25 60 88 60c53 0 76 -28 76 -62
c0 -6 -1 -11 -2 -17l-116 -576c-8 -42 -36 -59 -80 -59h-60c-42 0 -70 18 -80 59zM583 850l-52 -69c-19 -25 -37 -38 -76 -38c-36 0 -53 14 -53 37c0 6 4 15 8 22l42 74c15 26 33 45 92 45c36 0 58 -12 58 -33c0 -15 -9 -24 -19 -38z" />
    <glyph glyph-name="Wcircumflex" unicode="&#x174;" horiz-adv-x="909" 
d="M554 59l-100 413l-100 -413c-10 -41 -38 -59 -80 -59h-60c-44 0 -72 17 -80 59l-116 576c-1 6 -2 11 -2 17c0 34 23 62 76 62c63 0 82 -28 88 -60l75 -427l103 413c10 42 35 60 79 60h34c44 0 69 -18 79 -60l103 -413l75 427c6 32 25 60 88 60c53 0 76 -28 76 -62
c0 -6 -1 -11 -2 -17l-116 -576c-8 -42 -36 -59 -80 -59h-60c-42 0 -70 18 -80 59zM454 825l-35 -52c-13 -20 -37 -28 -63 -28c-33 0 -52 9 -52 31c0 4 0 11 6 20l51 80c14 22 22 36 62 36h62c40 0 48 -14 62 -36l51 -80c6 -9 6 -16 6 -20c0 -22 -19 -31 -52 -31
c-26 0 -50 8 -63 28z" />
    <glyph glyph-name="Wdieresis" unicode="&#x1e84;" horiz-adv-x="909" 
d="M554 59l-100 413l-100 -413c-10 -41 -38 -59 -80 -59h-60c-44 0 -72 17 -80 59l-116 576c-1 6 -2 11 -2 17c0 34 23 62 76 62c63 0 82 -28 88 -60l75 -427l103 413c10 42 35 60 79 60h34c44 0 69 -18 79 -60l103 -413l75 427c6 32 25 60 88 60c53 0 76 -28 76 -62
c0 -6 -1 -11 -2 -17l-116 -576c-8 -42 -36 -59 -80 -59h-60c-42 0 -70 18 -80 59zM481 861c0 34 27 47 61 47s60 -13 60 -47v-57c0 -34 -26 -46 -60 -46s-61 12 -61 46v57zM306 861c0 34 26 47 60 47s61 -13 61 -47v-57c0 -34 -27 -46 -61 -46s-60 12 -60 46v57z" />
    <glyph glyph-name="Ygrave" unicode="&#x1ef2;" horiz-adv-x="548" 
d="M276 419l96 233c14 34 30 62 97 62c39 0 69 -16 69 -52c0 -7 0 -15 -4 -24l-180 -394v-187c0 -52 -30 -71 -79 -71c-51 0 -80 21 -80 71v188l-181 393c-4 8 -4 16 -4 23c0 36 37 53 76 53c63 0 82 -30 97 -67zM204 781l-52 69c-10 14 -19 23 -19 38c0 21 22 33 58 33
c59 0 77 -19 92 -45l42 -74c4 -7 8 -16 8 -22c0 -23 -17 -37 -53 -37c-39 0 -57 13 -76 38z" />
    <glyph glyph-name="Yacute" unicode="&#xdd;" horiz-adv-x="548" 
d="M276 419l96 233c14 34 30 62 97 62c39 0 69 -16 69 -52c0 -7 0 -15 -4 -24l-180 -394v-187c0 -52 -30 -71 -79 -71c-51 0 -80 21 -80 71v188l-181 393c-4 8 -4 16 -4 23c0 36 37 53 76 53c63 0 82 -30 97 -67zM395 850l-52 -69c-19 -25 -37 -38 -76 -38
c-36 0 -53 14 -53 37c0 6 4 15 8 22l42 74c15 26 33 45 92 45c36 0 58 -12 58 -33c0 -15 -9 -24 -19 -38z" />
    <glyph glyph-name="Ycircumflex" unicode="&#x176;" horiz-adv-x="548" 
d="M276 419l96 233c14 34 30 62 97 62c39 0 69 -16 69 -52c0 -7 0 -15 -4 -24l-180 -394v-187c0 -52 -30 -71 -79 -71c-51 0 -80 21 -80 71v188l-181 393c-4 8 -4 16 -4 23c0 36 37 53 76 53c63 0 82 -30 97 -67zM274 825l-35 -52c-13 -20 -37 -28 -63 -28
c-33 0 -52 9 -52 31c0 4 0 11 6 20l51 80c14 22 22 36 62 36h62c40 0 48 -14 62 -36l51 -80c6 -9 6 -16 6 -20c0 -22 -19 -31 -52 -31c-26 0 -50 8 -63 28z" />
    <glyph glyph-name="Ydieresis" unicode="&#x178;" horiz-adv-x="548" 
d="M276 419l96 233c14 34 30 62 97 62c39 0 69 -16 69 -52c0 -7 0 -15 -4 -24l-180 -394v-187c0 -52 -30 -71 -79 -71c-51 0 -80 21 -80 71v188l-181 393c-4 8 -4 16 -4 23c0 36 37 53 76 53c63 0 82 -30 97 -67zM303 862c0 34 27 47 61 47s60 -13 60 -47v-57
c0 -34 -26 -46 -60 -46s-61 12 -61 46v57zM128 862c0 34 26 47 60 47s61 -13 61 -47v-57c0 -34 -27 -46 -61 -46s-60 12 -60 46v57z" />
    <glyph glyph-name="Zacute" unicode="&#x179;" horiz-adv-x="560" 
d="M534 72c0 -40 -15 -72 -55 -72h-402c-40 0 -56 30 -56 70c0 24 7 39 20 60l275 427h-236c-41 0 -56 31 -56 71c0 39 15 72 56 72h393c41 0 56 -34 56 -74c0 -29 -13 -49 -27 -71l-264 -412h241c40 0 55 -32 55 -71zM400 850l-52 -69c-19 -25 -37 -38 -76 -38
c-36 0 -53 14 -53 37c0 6 4 15 8 22l42 74c15 26 33 45 92 45c36 0 58 -12 58 -33c0 -15 -9 -24 -19 -38z" />
    <glyph glyph-name="Zcaron" unicode="&#x17d;" horiz-adv-x="560" 
d="M534 72c0 -40 -15 -72 -55 -72h-402c-40 0 -56 30 -56 70c0 24 7 39 20 60l275 427h-236c-41 0 -56 31 -56 71c0 39 15 72 56 72h393c41 0 56 -34 56 -74c0 -29 -13 -49 -27 -71l-264 -412h241c40 0 55 -32 55 -71zM288 841l35 52c13 20 37 28 63 28c33 0 52 -9 52 -31
c0 -4 0 -11 -6 -20l-51 -80c-14 -22 -22 -36 -62 -36h-62c-40 0 -48 14 -62 36l-51 80c-6 9 -6 16 -6 20c0 22 19 31 52 31c26 0 50 -8 63 -28z" />
    <glyph glyph-name="Zdotaccent" unicode="&#x17b;" horiz-adv-x="560" 
d="M534 72c0 -40 -15 -72 -55 -72h-402c-40 0 -56 30 -56 70c0 24 7 39 20 60l275 427h-236c-41 0 -56 31 -56 71c0 39 15 72 56 72h393c41 0 56 -34 56 -74c0 -29 -13 -49 -27 -71l-264 -412h241c40 0 55 -32 55 -71zM217 861c0 34 29 47 63 47s62 -13 62 -47v-57
c0 -34 -28 -46 -62 -46s-63 12 -63 46v57z" />
    <glyph glyph-name="Eng" unicode="&#x14a;" horiz-adv-x="695" 
d="M403 -46c10 0 20 -5 31 -5c20 0 36 14 36 48l-246 417v-369c0 -42 -35 -59 -78 -59s-77 17 -77 59v609c0 43 39 60 82 60c55 0 83 -19 105 -58l214 -381v379c0 43 35 60 78 60s78 -17 78 -60v-662c0 -119 -57 -188 -159 -188c-51 0 -110 4 -110 65c0 68 22 85 46 85z" />
    <glyph glyph-name="Eth" unicode="&#xd0;" horiz-adv-x="653" 
d="M79 638c0 45 35 62 79 62h181c186 0 286 -104 286 -339c0 -258 -107 -361 -290 -361h-177c-44 0 -79 17 -79 61v223h-30c-37 0 -49 33 -49 67s12 67 49 67h30v220zM238 557v-139h78c35 0 48 -33 48 -67c0 -40 -17 -67 -59 -67h-67v-141h92c84 0 132 34 132 215
c0 166 -47 199 -132 199h-92z" />
    <glyph glyph-name="Thorn" unicode="&#xde;" horiz-adv-x="567" 
d="M69 653c0 45 35 61 79 61s80 -16 80 -61v-48h48c183 0 256 -52 256 -232c0 -174 -86 -249 -245 -249c-27 0 -44 1 -59 5v-82c0 -44 -36 -60 -80 -60s-79 16 -79 60v606zM228 469v-206c10 -2 20 -4 41 -4c68 0 106 20 106 103c0 86 -29 107 -99 107h-48z" />
    <glyph glyph-name="a" unicode="a" horiz-adv-x="523" 
d="M288 329v42c0 34 -22 57 -53 57c-67 0 -37 -70 -107 -70c-38 0 -81 11 -81 57c0 5 1 10 2 16c16 68 94 119 196 119c144 0 204 -72 204 -176v-224c0 -20 11 -31 27 -31c17 0 29 10 42 10c15 0 25 -8 25 -45c0 -80 -56 -98 -122 -98c-41 0 -96 20 -104 75
c-37 -48 -95 -75 -153 -75c-85 0 -144 46 -144 151c0 127 110 192 268 192zM288 144v86c-61 -1 -116 -18 -116 -67c0 -30 18 -47 49 -47c26 0 45 11 67 28z" />
    <glyph glyph-name="b" unicode="b" horiz-adv-x="559" 
d="M82 48c-11 8 -21 22 -21 42v600c0 45 35 59 80 59c46 0 81 -14 81 -59v-181c39 21 87 41 135 41c99 0 172 -60 172 -273c0 -230 -122 -291 -251 -291c-69 0 -139 25 -196 62zM222 403v-268c21 -13 42 -18 66 -18c45 0 76 29 76 160c0 119 -30 144 -74 144
c-25 0 -44 -8 -68 -18z" />
    <glyph glyph-name="c" unicode="c" horiz-adv-x="485" 
d="M456 100c0 -37 -4 -63 -29 -76c-47 -24 -97 -38 -166 -38c-149 0 -232 79 -232 284c0 209 75 280 235 280c126 0 192 -71 192 -173c0 -34 -40 -47 -75 -47c-54 0 -61 24 -69 48c-7 22 -16 43 -50 43c-48 0 -66 -26 -66 -154c0 -119 39 -148 96 -148c74 0 103 32 131 32
c17 0 33 -15 33 -51z" />
    <glyph glyph-name="d" unicode="d" horiz-adv-x="574" 
d="M336 524v166c0 45 34 59 79 59c46 0 81 -14 81 -59v-540c0 -18 9 -31 27 -31c17 0 29 10 42 10c15 0 25 -8 25 -45c0 -91 -67 -98 -122 -98c-47 0 -94 23 -102 79c-42 -45 -96 -79 -157 -79c-93 0 -180 85 -180 279c0 192 78 285 195 285c41 0 78 -11 112 -26zM336 405
c-20 7 -40 16 -68 16c-40 0 -72 -18 -72 -145c0 -97 31 -144 68 -144c29 0 51 14 72 32v241z" />
    <glyph glyph-name="e" unicode="e" horiz-adv-x="499" 
d="M197 222c6 -84 44 -112 103 -112c66 0 111 40 130 40c17 0 30 -13 30 -50s-4 -62 -29 -75c-44 -23 -97 -39 -170 -39c-138 0 -232 79 -232 278c0 200 85 286 232 286c149 0 204 -95 204 -234v-39c0 -35 -11 -55 -47 -55h-221zM197 321h118c0 71 -13 100 -58 100
c-46 0 -58 -33 -60 -100z" />
    <glyph glyph-name="f" unicode="f" horiz-adv-x="348" 
d="M239 535h94c29 0 38 -18 38 -44c0 -39 -18 -80 -67 -80h-65v-453c0 -118 -63 -170 -155 -170c-48 0 -122 5 -122 75c0 34 3 71 36 71c13 0 28 -7 44 -7c21 0 40 17 40 50v434h-28c-36 0 -49 28 -49 62c0 31 12 62 49 62h28v35c0 139 85 201 207 201c78 0 124 -13 124 -63
c0 -42 -18 -73 -49 -73c-22 0 -23 6 -57 6c-37 0 -68 -22 -68 -65v-41z" />
    <glyph glyph-name="g" unicode="g" horiz-adv-x="496" 
d="M512 472c0 -33 -12 -62 -43 -62c-13 0 -19 1 -31 2c8 -17 13 -37 13 -68c0 -121 -71 -206 -205 -206c-20 0 -25 2 -40 5c-13 -8 -26 -18 -26 -33c0 -49 306 17 306 -174c0 -127 -114 -192 -261 -192c-160 0 -234 60 -234 141c0 53 35 89 80 110c-27 23 -43 40 -43 84
c0 52 39 87 76 110c-47 33 -66 88 -66 157c0 123 64 204 209 204c30 0 57 -7 81 -15h135c36 0 49 -28 49 -63zM246 436c-38 0 -62 -20 -62 -90c0 -68 24 -93 62 -93c36 0 60 25 60 92c0 74 -24 91 -60 91zM183 -42c-23 -10 -43 -30 -43 -54c0 -36 42 -49 91 -49
c51 0 97 18 97 48c0 49 -78 45 -145 55z" />
    <glyph glyph-name="h" unicode="h" horiz-adv-x="571" 
d="M222 391v-348c0 -44 -35 -57 -81 -57c-45 0 -80 13 -80 57v647c0 45 35 59 80 59c46 0 81 -14 81 -59v-186c37 26 84 46 141 46c98 0 156 -51 156 -170v-337c0 -44 -35 -57 -81 -57c-44 0 -80 13 -80 57v304c0 44 -27 60 -66 60c-22 0 -50 -8 -70 -16z" />
    <glyph glyph-name="i" unicode="i" horiz-adv-x="283" 
d="M141 -14c-45 0 -80 13 -80 57v448c0 45 35 59 80 59c46 0 81 -14 81 -59v-448c0 -44 -35 -57 -81 -57zM141 584c-45 0 -80 14 -80 59v45c0 46 34 61 80 61s81 -15 81 -61v-45c0 -45 -36 -59 -81 -59z" />
    <glyph glyph-name="j" unicode="j" horiz-adv-x="283" 
d="M222 491v-536c0 -117 -69 -167 -159 -167c-45 0 -122 4 -122 75c0 38 5 71 37 71c12 0 28 -7 43 -7c21 0 40 16 40 50v514c0 45 35 59 80 59c46 0 81 -14 81 -59zM141 584c-45 0 -80 14 -80 59v45c0 46 34 61 80 61s81 -15 81 -61v-45c0 -45 -36 -59 -81 -59z" />
    <glyph glyph-name="k" unicode="k" horiz-adv-x="518" 
d="M222 347l123 165c19 25 38 38 88 38c47 0 72 -17 72 -40c0 -9 -3 -19 -10 -29l-115 -162l138 -260c4 -8 6 -15 6 -22c0 -31 -27 -51 -71 -51c-52 0 -85 10 -108 55l-84 162l-39 -48v-112c0 -44 -36 -57 -81 -57s-80 13 -80 57v647c0 45 35 59 80 59c46 0 81 -14 81 -59
v-343z" />
    <glyph glyph-name="l" unicode="l" horiz-adv-x="308" 
d="M220 690v-524c0 -29 16 -40 38 -40c20 0 28 7 42 7c16 0 22 -17 22 -45c0 -33 -5 -56 -20 -72c-21 -22 -58 -30 -105 -30c-88 0 -138 50 -138 175v529c0 45 35 59 80 59c46 0 81 -14 81 -59z" />
    <glyph glyph-name="m" unicode="m" horiz-adv-x="855" 
d="M222 391v-348c0 -44 -35 -57 -81 -57c-44 0 -80 13 -80 57v457c0 39 31 50 69 50c37 0 70 -10 70 -50v-13c38 33 89 63 156 63c63 0 105 -18 132 -61c39 32 96 61 161 61c97 0 154 -51 154 -170v-337c0 -44 -35 -57 -81 -57c-42 0 -80 12 -80 57v304c0 44 -23 60 -61 60
c-18 0 -52 -8 -70 -16c1 -9 2 -18 2 -27v-321c0 -44 -35 -57 -81 -57c-45 0 -80 13 -80 57v304c0 44 -27 60 -62 60c-21 0 -48 -7 -68 -16z" />
    <glyph glyph-name="n" unicode="n" horiz-adv-x="572" 
d="M222 392v-349c0 -44 -35 -57 -80 -57s-81 13 -81 57v456c0 39 31 51 69 51c40 0 70 -12 70 -51v-11c41 33 96 62 165 62c97 0 155 -51 155 -169v-338c0 -44 -35 -57 -80 -57s-81 13 -81 57v304c0 44 -26 61 -65 61c-23 0 -51 -8 -72 -16z" />
    <glyph glyph-name="o" unicode="o" horiz-adv-x="543" 
d="M272 550c158 0 241 -85 241 -284c0 -192 -90 -280 -241 -280c-153 0 -242 84 -242 281c0 196 87 283 242 283zM272 421c-52 0 -78 -35 -78 -154c0 -117 26 -156 78 -156s77 39 77 155c0 120 -25 155 -77 155z" />
    <glyph glyph-name="p" unicode="p" horiz-adv-x="568" 
d="M141 -212c-45 0 -80 13 -80 57v655c0 39 31 50 69 50c37 0 70 -10 70 -50v-19c36 33 86 69 156 69c106 0 182 -57 182 -273c0 -214 -94 -291 -229 -291c-25 0 -62 6 -87 15v-156c0 -44 -35 -57 -81 -57zM222 391v-258c23 -11 43 -16 66 -16c45 0 80 29 80 160
c0 119 -35 130 -78 130c-25 0 -44 -6 -68 -16z" />
    <glyph glyph-name="q" unicode="q" horiz-adv-x="546" 
d="M336 27c-34 -23 -69 -41 -116 -41c-102 0 -191 66 -191 279c0 192 85 285 202 285c55 0 94 -25 125 -47c3 35 33 47 69 47c37 0 70 -10 70 -50v-655c0 -44 -34 -57 -80 -57c-45 0 -79 13 -79 57v182zM336 148v238c-20 12 -41 22 -64 22c-58 0 -76 -57 -76 -146
c0 -121 33 -144 66 -144c29 0 53 13 74 30z" />
    <glyph glyph-name="r" unicode="r" horiz-adv-x="440" 
d="M61 499c0 39 31 51 69 51c40 0 70 -12 70 -51v-22c45 53 82 73 136 73c90 0 104 -78 104 -156c0 -40 -38 -49 -72 -49c-44 0 -65 13 -65 39c0 14 -8 25 -27 25c-21 0 -38 -18 -54 -39v-327c0 -44 -35 -57 -81 -57c-45 0 -80 13 -80 57v456z" />
    <glyph glyph-name="s" unicode="s" horiz-adv-x="455" 
d="M234 550c77 0 188 -37 188 -139c0 -30 -26 -51 -75 -51c-24 0 -48 8 -56 31c-9 25 -23 40 -61 40c-27 0 -50 -13 -50 -40c0 -76 247 -82 247 -246c0 -97 -71 -159 -203 -159c-95 0 -202 33 -202 95c0 55 27 73 47 73c12 0 21 -4 28 -8c40 -24 83 -38 119 -38
c28 0 51 11 51 38c0 69 -235 70 -235 238c0 100 74 166 202 166z" />
    <glyph glyph-name="t" unicode="t" horiz-adv-x="376" 
d="M237 535h94c28 0 39 -17 39 -42c0 -38 -17 -82 -67 -82h-66v-237c0 -27 12 -46 43 -46c21 0 39 11 63 11c22 0 33 -21 33 -73s-65 -80 -144 -80c-90 0 -156 61 -156 161v264h-33c-32 0 -48 27 -48 62s12 62 48 62h38v74c0 44 34 58 78 58s78 -14 78 -58v-74z" />
    <glyph glyph-name="u" unicode="u" horiz-adv-x="538" 
d="M267 -14c-126 0 -216 64 -216 194v311c0 45 35 59 80 59s81 -14 81 -59v-311c0 -48 19 -70 55 -70c37 0 59 17 59 70v311c0 45 35 59 80 59c46 0 81 -14 81 -59v-311c0 -130 -88 -194 -220 -194z" />
    <glyph glyph-name="v" unicode="v" horiz-adv-x="501" 
d="M489 482l-132 -434c-10 -34 -22 -48 -53 -48h-90c-39 0 -57 16 -67 47l-132 419c-3 11 -6 22 -7 31c0 38 38 52 75 52c54 0 84 -18 97 -67l80 -314l74 315c13 56 43 67 94 67c31 0 65 -13 65 -46c0 -6 0 -14 -4 -22z" />
    <glyph glyph-name="w" unicode="w" horiz-adv-x="781" 
d="M391 361l-71 -313c-8 -35 -21 -48 -53 -48h-74c-39 0 -59 16 -67 47l-113 419c-3 12 -7 23 -7 33c0 37 34 51 71 51c53 0 90 -13 101 -72l54 -287l72 302c8 33 22 42 73 42h29c49 0 65 -9 73 -42l72 -302l53 287c11 59 47 72 101 72c33 0 71 -12 71 -48
c0 -10 -3 -23 -6 -36l-114 -419c-8 -31 -28 -47 -67 -47h-74c-31 0 -45 13 -53 48z" />
    <glyph glyph-name="x" unicode="x" horiz-adv-x="495" 
d="M253 374l61 116c23 43 46 60 89 60c40 0 69 -13 69 -51c0 -12 -2 -19 -6 -26l-122 -198l118 -211c3 -5 4 -17 4 -24c0 -41 -28 -54 -72 -54c-46 0 -71 17 -96 64l-60 110l-64 -122c-11 -21 -32 -52 -85 -52c-41 0 -68 17 -68 46c0 8 2 17 7 25l120 209l-114 203
c-3 5 -5 15 -5 26c0 41 32 55 76 55c46 0 64 -19 89 -65z" />
    <glyph glyph-name="y" unicode="y" horiz-adv-x="501" 
d="M259 211l79 266c15 51 37 73 87 73c40 0 70 -16 70 -52c0 -6 -1 -13 -4 -21l-147 -436c-56 -165 -118 -253 -262 -253c-43 0 -126 13 -126 67c0 36 12 84 49 84c27 0 34 -14 68 -14c62 0 72 20 109 104l-164 432c-4 11 -7 22 -7 32c0 42 32 57 77 57c51 0 75 -24 91 -78z
" />
    <glyph glyph-name="z" unicode="z" horiz-adv-x="471" 
d="M228 126h180c37 0 50 -28 50 -63c0 -36 -14 -63 -50 -63h-334c-35 0 -50 25 -50 60c0 23 14 51 29 73l190 276h-170c-37 0 -50 28 -50 63s12 63 50 63h323c36 0 51 -27 51 -62c0 -34 -17 -59 -27 -73z" />
    <glyph glyph-name="agrave" unicode="&#xe0;" horiz-adv-x="523" 
d="M288 329v42c0 34 -22 57 -53 57c-67 0 -37 -70 -107 -70c-38 0 -81 11 -81 57c0 5 1 10 2 16c16 68 94 119 196 119c144 0 204 -72 204 -176v-224c0 -20 11 -31 27 -31c17 0 29 10 42 10c15 0 25 -8 25 -45c0 -80 -56 -98 -122 -98c-41 0 -96 20 -104 75
c-37 -48 -95 -75 -153 -75c-85 0 -144 46 -144 151c0 127 110 192 268 192zM288 144v86c-61 -1 -116 -18 -116 -67c0 -30 18 -47 49 -47c26 0 45 11 67 28zM159 619l-52 69c-10 14 -19 23 -19 38c0 21 22 33 58 33c59 0 77 -19 92 -45l42 -74c4 -7 8 -16 8 -22
c0 -23 -17 -37 -53 -37c-39 0 -57 13 -76 38z" />
    <glyph glyph-name="aacute" unicode="&#xe1;" horiz-adv-x="523" 
d="M288 329v42c0 34 -22 57 -53 57c-67 0 -37 -70 -107 -70c-38 0 -81 11 -81 57c0 5 1 10 2 16c16 68 94 119 196 119c144 0 204 -72 204 -176v-224c0 -20 11 -31 27 -31c17 0 29 10 42 10c15 0 25 -8 25 -45c0 -80 -56 -98 -122 -98c-41 0 -96 20 -104 75
c-37 -48 -95 -75 -153 -75c-85 0 -144 46 -144 151c0 127 110 192 268 192zM288 144v86c-61 -1 -116 -18 -116 -67c0 -30 18 -47 49 -47c26 0 45 11 67 28zM384 688l-52 -69c-19 -25 -37 -38 -76 -38c-36 0 -53 14 -53 37c0 6 4 15 8 22l42 74c15 26 33 45 92 45
c36 0 58 -12 58 -33c0 -15 -9 -24 -19 -38z" />
    <glyph glyph-name="acircumflex" unicode="&#xe2;" horiz-adv-x="523" 
d="M288 329v42c0 34 -22 57 -53 57c-67 0 -37 -70 -107 -70c-38 0 -81 11 -81 57c0 5 1 10 2 16c16 68 94 119 196 119c144 0 204 -72 204 -176v-224c0 -20 11 -31 27 -31c17 0 29 10 42 10c15 0 25 -8 25 -45c0 -80 -56 -98 -122 -98c-41 0 -96 20 -104 75
c-37 -48 -95 -75 -153 -75c-85 0 -144 46 -144 151c0 127 110 192 268 192zM288 144v86c-61 -1 -116 -18 -116 -67c0 -30 18 -47 49 -47c26 0 45 11 67 28zM245 663l-35 -52c-13 -20 -37 -28 -63 -28c-33 0 -52 9 -52 31c0 4 0 11 6 20l51 80c14 22 22 36 62 36h62
c40 0 48 -14 62 -36l51 -80c6 -9 6 -16 6 -20c0 -22 -19 -31 -52 -31c-26 0 -50 8 -63 28z" />
    <glyph glyph-name="atilde" unicode="&#xe3;" horiz-adv-x="523" 
d="M288 329v42c0 34 -22 57 -53 57c-67 0 -37 -70 -107 -70c-38 0 -81 11 -81 57c0 5 1 10 2 16c16 68 94 119 196 119c144 0 204 -72 204 -176v-224c0 -20 11 -31 27 -31c17 0 29 10 42 10c15 0 25 -8 25 -45c0 -80 -56 -98 -122 -98c-41 0 -96 20 -104 75
c-37 -48 -95 -75 -153 -75c-85 0 -144 46 -144 151c0 127 110 192 268 192zM288 144v86c-61 -1 -116 -18 -116 -67c0 -30 18 -47 49 -47c26 0 45 11 67 28zM309 600c-42 0 -87 29 -112 29c-32 0 -24 -27 -62 -27c-24 0 -51 11 -51 45c0 55 53 90 94 90c45 0 87 -29 113 -29
c32 0 24 28 62 28c26 0 51 -14 51 -46c0 -57 -53 -90 -95 -90z" />
    <glyph glyph-name="adieresis" unicode="&#xe4;" horiz-adv-x="523" 
d="M288 329v42c0 34 -22 57 -53 57c-67 0 -37 -70 -107 -70c-38 0 -81 11 -81 57c0 5 1 10 2 16c16 68 94 119 196 119c144 0 204 -72 204 -176v-224c0 -20 11 -31 27 -31c17 0 29 10 42 10c15 0 25 -8 25 -45c0 -80 -56 -98 -122 -98c-41 0 -96 20 -104 75
c-37 -48 -95 -75 -153 -75c-85 0 -144 46 -144 151c0 127 110 192 268 192zM288 144v86c-61 -1 -116 -18 -116 -67c0 -30 18 -47 49 -47c26 0 45 11 67 28zM272 700c0 34 27 47 61 47s60 -13 60 -47v-57c0 -34 -26 -46 -60 -46s-61 12 -61 46v57zM97 700c0 34 26 47 60 47
s61 -13 61 -47v-57c0 -34 -27 -46 -61 -46s-60 12 -60 46v57z" />
    <glyph glyph-name="amacron" unicode="&#x101;" horiz-adv-x="523" 
d="M288 329v42c0 34 -22 57 -53 57c-67 0 -37 -70 -107 -70c-38 0 -81 11 -81 57c0 5 1 10 2 16c16 68 94 119 196 119c144 0 204 -72 204 -176v-224c0 -20 11 -31 27 -31c17 0 29 10 42 10c15 0 25 -8 25 -45c0 -80 -56 -98 -122 -98c-41 0 -96 20 -104 75
c-37 -48 -95 -75 -153 -75c-85 0 -144 46 -144 151c0 127 110 192 268 192zM288 144v86c-61 -1 -116 -18 -116 -67c0 -30 18 -47 49 -47c26 0 45 11 67 28zM120 617c-32 0 -44 23 -44 54s12 54 44 54h226c31 0 43 -23 43 -54s-12 -54 -43 -54h-226z" />
    <glyph glyph-name="abreve" unicode="&#x103;" horiz-adv-x="523" 
d="M288 329v42c0 34 -22 57 -53 57c-67 0 -37 -70 -107 -70c-38 0 -81 11 -81 57c0 5 1 10 2 16c16 68 94 119 196 119c144 0 204 -72 204 -176v-224c0 -20 11 -31 27 -31c17 0 29 10 42 10c15 0 25 -8 25 -45c0 -80 -56 -98 -122 -98c-41 0 -96 20 -104 75
c-37 -48 -95 -75 -153 -75c-85 0 -144 46 -144 151c0 127 110 192 268 192zM288 144v86c-61 -1 -116 -18 -116 -67c0 -30 18 -47 49 -47c26 0 45 11 67 28zM244 594c-86 0 -152 56 -152 128c0 29 20 37 50 37c31 0 46 -8 52 -30c7 -24 27 -36 50 -36s43 12 50 36
c6 22 21 30 52 30c30 0 50 -8 50 -37c0 -72 -66 -128 -152 -128z" />
    <glyph glyph-name="aring" unicode="&#xe5;" horiz-adv-x="523" 
d="M288 329v42c0 34 -22 57 -53 57c-67 0 -37 -70 -107 -70c-38 0 -81 11 -81 57c0 5 1 10 2 16c16 68 94 119 196 119c144 0 204 -72 204 -176v-224c0 -20 11 -31 27 -31c17 0 29 10 42 10c15 0 25 -8 25 -45c0 -80 -56 -98 -122 -98c-41 0 -96 20 -104 75
c-37 -48 -95 -75 -153 -75c-85 0 -144 46 -144 151c0 127 110 192 268 192zM288 144v86c-61 -1 -116 -18 -116 -67c0 -30 18 -47 49 -47c26 0 45 11 67 28zM131 671c0 55 45 97 113 97s113 -42 113 -97s-45 -97 -113 -97s-113 42 -113 97zM244 703c-23 0 -34 -11 -34 -32
s11 -32 34 -32c22 0 33 11 33 32s-11 32 -33 32z" />
    <glyph glyph-name="aringacute" unicode="&#x1fb;" horiz-adv-x="523" 
d="M131 671c0 36 19 67 52 83l46 82c15 26 26 44 75 44c36 0 55 -13 55 -34c0 -15 -6 -18 -16 -32l-47 -60c44 -14 61 -50 61 -83c0 -55 -45 -97 -113 -97s-113 42 -113 97zM244 703c-23 0 -34 -11 -34 -32s11 -32 34 -32c22 0 33 11 33 32s-11 32 -33 32zM288 329v42
c0 34 -22 57 -53 57c-67 0 -37 -70 -107 -70c-38 0 -81 11 -81 57c0 5 1 10 2 16c16 68 94 119 196 119c144 0 204 -72 204 -176v-224c0 -20 11 -31 27 -31c17 0 29 10 42 10c15 0 25 -8 25 -45c0 -80 -56 -98 -122 -98c-41 0 -96 20 -104 75c-37 -48 -95 -75 -153 -75
c-85 0 -144 46 -144 151c0 127 110 192 268 192zM288 144v86c-61 -1 -116 -18 -116 -67c0 -30 18 -47 49 -47c26 0 45 11 67 28z" />
    <glyph glyph-name="aogonek" unicode="&#x105;" horiz-adv-x="523" 
d="M288 329v42c0 34 -22 57 -53 57c-67 0 -37 -70 -107 -70c-38 0 -81 11 -81 57c0 5 1 10 2 16c16 68 94 119 196 119c144 0 204 -72 204 -176v-224c0 -20 11 -31 27 -31c17 0 29 10 42 10c15 0 25 -8 25 -45c0 -56 -28 -82 -67 -92c-28 -18 -44 -41 -44 -62
c0 -18 10 -27 27 -27c21 0 27 13 48 15c31 0 44 -29 44 -54c0 -52 -70 -72 -124 -72c-68 0 -125 34 -125 106c0 34 13 76 51 106c-18 12 -32 31 -36 57c-37 -48 -95 -75 -153 -75c-85 0 -144 46 -144 151c0 127 110 192 268 192zM288 144v86c-61 -1 -116 -18 -116 -67
c0 -30 18 -47 49 -47c26 0 45 11 67 28z" />
    <glyph glyph-name="ae" unicode="&#xe6;" horiz-adv-x="734" 
d="M432 222c6 -84 44 -111 103 -111c66 0 111 39 130 39c17 0 30 -13 30 -50s-4 -62 -29 -75c-44 -23 -97 -39 -170 -39c-71 0 -130 22 -164 70c-37 -44 -86 -70 -165 -70c-75 0 -147 46 -147 151c0 127 110 192 268 192v42c0 34 -22 57 -53 57c-67 0 -37 -70 -107 -70
c-38 0 -81 11 -81 57c0 5 1 10 2 16c16 68 94 119 196 119c58 0 99 -14 127 -36c30 24 70 36 124 36c149 0 204 -95 204 -234v-39c0 -35 -11 -55 -47 -55h-221zM287 230c-61 -1 -115 -20 -115 -67c0 -30 19 -47 49 -47c33 0 55 16 75 36c-5 24 -8 49 -9 78zM432 321h118
c0 71 -13 100 -58 100c-46 0 -58 -33 -60 -100z" />
    <glyph glyph-name="aeacute" unicode="&#x1fd;" horiz-adv-x="734" 
d="M432 222c6 -84 44 -111 103 -111c66 0 111 39 130 39c17 0 30 -13 30 -50s-4 -62 -29 -75c-44 -23 -97 -39 -170 -39c-71 0 -130 22 -164 70c-37 -44 -86 -70 -165 -70c-75 0 -147 46 -147 151c0 127 110 192 268 192v42c0 34 -22 57 -53 57c-67 0 -37 -70 -107 -70
c-38 0 -81 11 -81 57c0 5 1 10 2 16c16 68 94 119 196 119c58 0 99 -14 127 -36c30 24 70 36 124 36c149 0 204 -95 204 -234v-39c0 -35 -11 -55 -47 -55h-221zM287 230c-61 -1 -115 -20 -115 -67c0 -30 19 -47 49 -47c33 0 55 16 75 36c-5 24 -8 49 -9 78zM432 321h118
c0 71 -13 100 -58 100c-46 0 -58 -33 -60 -100zM493 688l-52 -69c-19 -25 -37 -38 -76 -38c-36 0 -53 14 -53 37c0 6 4 15 8 22l42 74c15 26 33 45 92 45c36 0 58 -12 58 -33c0 -15 -9 -24 -19 -38z" />
    <glyph glyph-name="cacute" unicode="&#x107;" horiz-adv-x="485" 
d="M456 100c0 -37 -4 -63 -29 -76c-47 -24 -97 -38 -166 -38c-149 0 -232 79 -232 284c0 209 75 280 235 280c126 0 192 -71 192 -173c0 -34 -40 -47 -75 -47c-54 0 -61 24 -69 48c-7 22 -16 43 -50 43c-48 0 -66 -26 -66 -154c0 -119 39 -148 96 -148c74 0 103 32 131 32
c17 0 33 -15 33 -51zM382 688l-52 -69c-19 -25 -37 -38 -76 -38c-36 0 -53 14 -53 37c0 6 4 15 8 22l42 74c15 26 33 45 92 45c36 0 58 -12 58 -33c0 -15 -9 -24 -19 -38z" />
    <glyph glyph-name="ccircumflex" unicode="&#x109;" horiz-adv-x="485" 
d="M456 100c0 -37 -4 -63 -29 -76c-47 -24 -97 -38 -166 -38c-149 0 -232 79 -232 284c0 209 75 280 235 280c126 0 192 -71 192 -173c0 -34 -40 -47 -75 -47c-54 0 -61 24 -69 48c-7 22 -16 43 -50 43c-48 0 -66 -26 -66 -154c0 -119 39 -148 96 -148c74 0 103 32 131 32
c17 0 33 -15 33 -51zM254 663l-35 -52c-13 -20 -37 -28 -63 -28c-33 0 -52 9 -52 31c0 4 0 11 6 20l51 80c14 22 22 36 62 36h62c40 0 48 -14 62 -36l51 -80c6 -9 6 -16 6 -20c0 -22 -19 -31 -52 -31c-26 0 -50 8 -63 28z" />
    <glyph glyph-name="ccaron" unicode="&#x10d;" horiz-adv-x="485" 
d="M456 100c0 -37 -4 -63 -29 -76c-47 -24 -97 -38 -166 -38c-149 0 -232 79 -232 284c0 209 75 280 235 280c126 0 192 -71 192 -173c0 -34 -40 -47 -75 -47c-54 0 -61 24 -69 48c-7 22 -16 43 -50 43c-48 0 -66 -26 -66 -154c0 -119 39 -148 96 -148c74 0 103 32 131 32
c17 0 33 -15 33 -51zM254 679l35 52c13 20 37 28 63 28c33 0 52 -9 52 -31c0 -4 0 -11 -6 -20l-51 -80c-14 -22 -22 -36 -62 -36h-62c-40 0 -48 14 -62 36l-51 80c-6 9 -6 16 -6 20c0 22 19 31 52 31c26 0 50 -8 63 -28z" />
    <glyph glyph-name="cdotaccent" unicode="&#x10b;" horiz-adv-x="485" 
d="M456 100c0 -37 -4 -63 -29 -76c-47 -24 -97 -38 -166 -38c-149 0 -232 79 -232 284c0 209 75 280 235 280c126 0 192 -71 192 -173c0 -34 -40 -47 -75 -47c-54 0 -61 24 -69 48c-7 22 -16 43 -50 43c-48 0 -66 -26 -66 -154c0 -119 39 -148 96 -148c74 0 103 32 131 32
c17 0 33 -15 33 -51zM192 700c0 34 29 47 63 47s62 -13 62 -47v-57c0 -34 -28 -46 -62 -46s-63 12 -63 46v57z" />
    <glyph glyph-name="ccedilla" unicode="&#xe7;" horiz-adv-x="482" 
d="M456 100c0 -37 -4 -63 -29 -76c-29 -15 -59 -25 -93 -32c15 -23 21 -54 21 -77c0 -69 -55 -120 -133 -120c-55 0 -96 16 -120 39c-11 11 -15 21 -15 36c0 26 22 52 48 52c12 0 17 -3 28 -10c10 -7 21 -9 30 -9c21 0 33 10 33 36c0 17 -7 34 -18 51
c-115 18 -179 100 -179 280c0 209 75 280 235 280c126 0 192 -71 192 -173c0 -34 -40 -47 -75 -47c-54 0 -61 24 -69 48c-7 22 -16 43 -50 43c-48 0 -66 -26 -66 -154c0 -119 39 -148 96 -148c74 0 105 32 131 32c17 0 33 -15 33 -51z" />
    <glyph glyph-name="dcaron" unicode="&#x10f;" horiz-adv-x="614" 
d="M565 645c7 49 31 63 67 63c25 0 52 -10 52 -38c0 -6 -1 -15 -3 -23l-47 -151c-8 -25 -23 -41 -51 -41c-20 0 -45 7 -45 34c0 3 0 6 1 9zM336 524v166c0 45 34 59 79 59c46 0 81 -14 81 -59v-540c0 -18 9 -31 27 -31c17 0 29 10 42 10c15 0 25 -8 25 -45
c0 -91 -67 -98 -122 -98c-47 0 -94 23 -102 79c-42 -45 -96 -79 -157 -79c-93 0 -180 85 -180 279c0 192 78 285 195 285c41 0 78 -11 112 -26zM336 405c-20 7 -40 16 -68 16c-40 0 -72 -18 -72 -145c0 -97 31 -144 68 -144c29 0 51 14 72 32v241z" />
    <glyph glyph-name="dcroat" unicode="&#x111;" horiz-adv-x="574" 
d="M336 680v10c0 45 34 59 79 59c46 0 81 -14 81 -59v-10h62c22 0 31 -17 31 -38s-9 -39 -31 -39h-62v-453c0 -18 9 -31 27 -31c17 0 29 10 42 10c15 0 25 -8 25 -45c0 -91 -67 -98 -122 -98c-47 0 -94 23 -102 79c-42 -45 -96 -79 -157 -79c-93 0 -180 85 -180 279
c0 192 78 285 195 285c41 0 78 -11 112 -26v79h-143c-22 0 -30 18 -30 39s8 38 30 38h143zM336 405c-20 7 -40 16 -68 16c-40 0 -72 -18 -72 -145c0 -97 31 -144 68 -144c29 0 51 14 72 32v241z" />
    <glyph glyph-name="egrave" unicode="&#xe8;" horiz-adv-x="499" 
d="M197 222c6 -84 44 -112 103 -112c66 0 111 40 130 40c17 0 30 -13 30 -50s-4 -62 -29 -75c-44 -23 -97 -39 -170 -39c-138 0 -232 79 -232 278c0 200 85 286 232 286c149 0 204 -95 204 -234v-39c0 -35 -11 -55 -47 -55h-221zM197 321h118c0 71 -13 100 -58 100
c-46 0 -58 -33 -60 -100zM182 619l-52 69c-10 14 -19 23 -19 38c0 21 22 33 58 33c59 0 77 -19 92 -45l42 -74c4 -7 8 -16 8 -22c0 -23 -17 -37 -53 -37c-39 0 -57 13 -76 38z" />
    <glyph glyph-name="eacute" unicode="&#xe9;" horiz-adv-x="499" 
d="M197 222c6 -84 44 -112 103 -112c66 0 111 40 130 40c17 0 30 -13 30 -50s-4 -62 -29 -75c-44 -23 -97 -39 -170 -39c-138 0 -232 79 -232 278c0 200 85 286 232 286c149 0 204 -95 204 -234v-39c0 -35 -11 -55 -47 -55h-221zM197 321h118c0 71 -13 100 -58 100
c-46 0 -58 -33 -60 -100zM388 688l-52 -69c-19 -25 -37 -38 -76 -38c-36 0 -53 14 -53 37c0 6 4 15 8 22l42 74c15 26 33 45 92 45c36 0 58 -12 58 -33c0 -15 -9 -24 -19 -38z" />
    <glyph glyph-name="ecircumflex" unicode="&#xea;" horiz-adv-x="499" 
d="M197 222c6 -84 44 -112 103 -112c66 0 111 40 130 40c17 0 30 -13 30 -50s-4 -62 -29 -75c-44 -23 -97 -39 -170 -39c-138 0 -232 79 -232 278c0 200 85 286 232 286c149 0 204 -95 204 -234v-39c0 -35 -11 -55 -47 -55h-221zM197 321h118c0 71 -13 100 -58 100
c-46 0 -58 -33 -60 -100zM253 663l-35 -52c-13 -20 -37 -28 -63 -28c-33 0 -52 9 -52 31c0 4 0 11 6 20l51 80c14 22 22 36 62 36h62c40 0 48 -14 62 -36l51 -80c6 -9 6 -16 6 -20c0 -22 -19 -31 -52 -31c-26 0 -50 8 -63 28z" />
    <glyph glyph-name="ecaron" unicode="&#x11b;" horiz-adv-x="499" 
d="M197 222c6 -84 44 -112 103 -112c66 0 111 40 130 40c17 0 30 -13 30 -50s-4 -62 -29 -75c-44 -23 -97 -39 -170 -39c-138 0 -232 79 -232 278c0 200 85 286 232 286c149 0 204 -95 204 -234v-39c0 -35 -11 -55 -47 -55h-221zM197 321h118c0 71 -13 100 -58 100
c-46 0 -58 -33 -60 -100zM254 679l35 52c13 20 37 28 63 28c33 0 52 -9 52 -31c0 -4 0 -11 -6 -20l-51 -80c-14 -22 -22 -36 -62 -36h-62c-40 0 -48 14 -62 36l-51 80c-6 9 -6 16 -6 20c0 22 19 31 52 31c26 0 50 -8 63 -28z" />
    <glyph glyph-name="edieresis" unicode="&#xeb;" horiz-adv-x="499" 
d="M197 222c6 -84 44 -112 103 -112c66 0 111 40 130 40c17 0 30 -13 30 -50s-4 -62 -29 -75c-44 -23 -97 -39 -170 -39c-138 0 -232 79 -232 278c0 200 85 286 232 286c149 0 204 -95 204 -234v-39c0 -35 -11 -55 -47 -55h-221zM197 321h118c0 71 -13 100 -58 100
c-46 0 -58 -33 -60 -100zM281 700c0 34 27 47 61 47s60 -13 60 -47v-57c0 -34 -26 -46 -60 -46s-61 12 -61 46v57zM106 700c0 34 26 47 60 47s61 -13 61 -47v-57c0 -34 -27 -46 -61 -46s-60 12 -60 46v57z" />
    <glyph glyph-name="emacron" unicode="&#x113;" horiz-adv-x="499" 
d="M197 222c6 -84 44 -112 103 -112c66 0 111 40 130 40c17 0 30 -13 30 -50s-4 -62 -29 -75c-44 -23 -97 -39 -170 -39c-138 0 -232 79 -232 278c0 200 85 286 232 286c149 0 204 -95 204 -234v-39c0 -35 -11 -55 -47 -55h-221zM197 321h118c0 71 -13 100 -58 100
c-46 0 -58 -33 -60 -100zM137 616c-32 0 -44 23 -44 54s12 54 44 54h226c31 0 43 -23 43 -54s-12 -54 -43 -54h-226z" />
    <glyph glyph-name="ebreve" unicode="&#x115;" horiz-adv-x="499" 
d="M197 222c6 -84 44 -112 103 -112c66 0 111 40 130 40c17 0 30 -13 30 -50s-4 -62 -29 -75c-44 -23 -97 -39 -170 -39c-138 0 -232 79 -232 278c0 200 85 286 232 286c149 0 204 -95 204 -234v-39c0 -35 -11 -55 -47 -55h-221zM197 321h118c0 71 -13 100 -58 100
c-46 0 -58 -33 -60 -100zM254 594c-86 0 -152 56 -152 128c0 29 20 37 50 37c31 0 46 -8 52 -30c7 -24 27 -36 50 -36s43 12 50 36c6 22 21 30 52 30c30 0 50 -8 50 -37c0 -72 -66 -128 -152 -128z" />
    <glyph glyph-name="edotaccent" unicode="&#x117;" horiz-adv-x="499" 
d="M197 222c6 -84 44 -112 103 -112c66 0 111 40 130 40c17 0 30 -13 30 -50s-4 -62 -29 -75c-44 -23 -97 -39 -170 -39c-138 0 -232 79 -232 278c0 200 85 286 232 286c149 0 204 -95 204 -234v-39c0 -35 -11 -55 -47 -55h-221zM197 321h118c0 71 -13 100 -58 100
c-46 0 -58 -33 -60 -100zM192 700c0 34 29 47 63 47s62 -13 62 -47v-57c0 -34 -28 -46 -62 -46s-63 12 -63 46v57z" />
    <glyph glyph-name="eogonek" unicode="&#x119;" horiz-adv-x="499" 
d="M197 222c6 -84 44 -112 103 -112c66 0 111 40 130 40c17 0 30 -13 30 -50s-4 -62 -29 -75c-20 -11 -43 -20 -68 -26c-34 -20 -55 -45 -55 -69c0 -18 10 -27 27 -27c21 0 27 13 48 15c31 0 44 -29 44 -54c0 -52 -70 -72 -124 -72c-68 0 -125 34 -125 106c0 33 13 69 37 92
c-113 16 -186 98 -186 274c0 200 85 286 232 286c149 0 204 -95 204 -234v-39c0 -35 -11 -55 -47 -55h-221zM197 321h118c0 71 -13 100 -58 100c-46 0 -58 -33 -60 -100z" />
    <glyph glyph-name="gcircumflex" unicode="&#x11d;" horiz-adv-x="496" 
d="M512 472c0 -33 -12 -62 -43 -62c-13 0 -19 1 -31 2c8 -17 13 -37 13 -68c0 -121 -71 -206 -205 -206c-20 0 -25 2 -40 5c-13 -8 -26 -18 -26 -33c0 -49 306 17 306 -174c0 -127 -114 -192 -261 -192c-160 0 -234 60 -234 141c0 53 35 89 80 110c-27 23 -43 40 -43 84
c0 52 39 87 76 110c-47 33 -66 88 -66 157c0 123 64 204 209 204c30 0 57 -7 81 -15h135c36 0 49 -28 49 -63zM246 436c-38 0 -62 -20 -62 -90c0 -68 24 -93 62 -93c36 0 60 25 60 92c0 74 -24 91 -60 91zM183 -42c-23 -10 -43 -30 -43 -54c0 -36 42 -49 91 -49
c51 0 97 18 97 48c0 49 -78 45 -145 55zM245 663l-35 -52c-13 -20 -37 -28 -63 -28c-33 0 -52 9 -52 31c0 4 0 11 6 20l51 80c14 22 22 36 62 36h62c40 0 48 -14 62 -36l51 -80c6 -9 6 -16 6 -20c0 -22 -19 -31 -52 -31c-26 0 -50 8 -63 28z" />
    <glyph glyph-name="gbreve" unicode="&#x11f;" horiz-adv-x="496" 
d="M512 472c0 -33 -12 -62 -43 -62c-13 0 -19 1 -31 2c8 -17 13 -37 13 -68c0 -121 -71 -206 -205 -206c-20 0 -25 2 -40 5c-13 -8 -26 -18 -26 -33c0 -49 306 17 306 -174c0 -127 -114 -192 -261 -192c-160 0 -234 60 -234 141c0 53 35 89 80 110c-27 23 -43 40 -43 84
c0 52 39 87 76 110c-47 33 -66 88 -66 157c0 123 64 204 209 204c30 0 57 -7 81 -15h135c36 0 49 -28 49 -63zM246 436c-38 0 -62 -20 -62 -90c0 -68 24 -93 62 -93c36 0 60 25 60 92c0 74 -24 91 -60 91zM183 -42c-23 -10 -43 -30 -43 -54c0 -36 42 -49 91 -49
c51 0 97 18 97 48c0 49 -78 45 -145 55zM245 594c-86 0 -152 56 -152 128c0 29 20 37 50 37c31 0 46 -8 52 -30c7 -24 27 -36 50 -36s43 12 50 36c6 22 21 30 52 30c30 0 50 -8 50 -37c0 -72 -66 -128 -152 -128z" />
    <glyph glyph-name="gdotaccent" unicode="&#x121;" horiz-adv-x="496" 
d="M512 472c0 -33 -12 -62 -43 -62c-13 0 -19 1 -31 2c8 -17 13 -37 13 -68c0 -121 -71 -206 -205 -206c-20 0 -25 2 -40 5c-13 -8 -26 -18 -26 -33c0 -49 306 17 306 -174c0 -127 -114 -192 -261 -192c-160 0 -234 60 -234 141c0 53 35 89 80 110c-27 23 -43 40 -43 84
c0 52 39 87 76 110c-47 33 -66 88 -66 157c0 123 64 204 209 204c30 0 57 -7 81 -15h135c36 0 49 -28 49 -63zM246 436c-38 0 -62 -20 -62 -90c0 -68 24 -93 62 -93c36 0 60 25 60 92c0 74 -24 91 -60 91zM183 -42c-23 -10 -43 -30 -43 -54c0 -36 42 -49 91 -49
c51 0 97 18 97 48c0 49 -78 45 -145 55zM183 700c0 34 29 47 63 47s62 -13 62 -47v-57c0 -34 -28 -46 -62 -46s-63 12 -63 46v57z" />
    <glyph glyph-name="gcommaaccent" unicode="&#x123;" horiz-adv-x="496" 
d="M512 472c0 -33 -12 -62 -43 -62c-13 0 -19 1 -31 2c8 -17 13 -37 13 -68c0 -121 -71 -206 -205 -206c-20 0 -25 2 -40 5c-13 -8 -26 -18 -26 -33c0 -49 306 17 306 -174c0 -127 -114 -192 -261 -192c-160 0 -234 60 -234 141c0 53 35 89 80 110c-27 23 -43 40 -43 84
c0 52 39 87 76 110c-47 33 -66 88 -66 157c0 123 64 204 209 204c30 0 57 -7 81 -15h135c36 0 49 -28 49 -63zM246 436c-38 0 -62 -20 -62 -90c0 -68 24 -93 62 -93c36 0 60 25 60 92c0 74 -24 91 -60 91zM183 -42c-23 -10 -43 -30 -43 -54c0 -36 42 -49 91 -49
c51 0 97 18 97 48c0 49 -78 45 -145 55zM212 652l52 69c19 25 37 38 76 38c36 0 53 -14 53 -37c0 -6 -4 -15 -8 -22l-42 -74c-15 -26 -33 -45 -92 -45c-36 0 -58 12 -58 33c0 15 9 24 19 38z" />
    <glyph glyph-name="hcircumflex" unicode="&#x125;" horiz-adv-x="571" 
d="M222 391v-348c0 -44 -35 -57 -81 -57c-45 0 -80 13 -80 57v647c0 45 35 59 80 59c46 0 81 -14 81 -59v-186c37 26 84 46 141 46c98 0 156 -51 156 -170v-337c0 -44 -35 -57 -81 -57c-44 0 -80 13 -80 57v304c0 44 -27 60 -66 60c-22 0 -50 -8 -70 -16zM143 864l-35 -52
c-13 -20 -37 -28 -63 -28c-33 0 -52 9 -52 31c0 4 0 11 6 20l51 80c14 22 22 36 62 36h62c40 0 48 -14 62 -36l51 -80c6 -9 6 -16 6 -20c0 -22 -19 -31 -52 -31c-26 0 -50 8 -63 28z" />
    <glyph glyph-name="hbar" unicode="&#x127;" horiz-adv-x="599" 
d="M250 391v-348c0 -44 -35 -57 -81 -57c-45 0 -80 13 -80 57v560h-59c-22 0 -30 17 -30 38s8 39 30 39h59v10c0 45 35 59 80 59c46 0 81 -14 81 -59v-10h145c22 0 31 -18 31 -39s-9 -38 -31 -38h-145v-99c37 26 84 46 141 46c98 0 156 -51 156 -170v-337
c0 -44 -35 -57 -81 -57c-44 0 -80 13 -80 57v304c0 44 -27 60 -66 60c-22 0 -50 -8 -70 -16z" />
    <glyph glyph-name="igrave" unicode="&#xec;" horiz-adv-x="283" 
d="M61 619l-52 69c-10 14 -19 23 -19 38c0 21 22 33 58 33c59 0 77 -19 92 -45l42 -74c4 -7 8 -16 8 -22c0 -23 -17 -37 -53 -37c-39 0 -57 13 -76 38zM61 492c0 45 36 58 81 58s80 -13 80 -58v-449c0 -44 -35 -57 -80 -57s-81 13 -81 57v449z" />
    <glyph glyph-name="iacute" unicode="&#xed;" horiz-adv-x="283" 
d="M276 688l-52 -69c-19 -25 -37 -38 -76 -38c-36 0 -53 14 -53 37c0 6 4 15 8 22l42 74c15 26 33 45 92 45c36 0 58 -12 58 -33c0 -15 -9 -24 -19 -38zM61 492c0 45 36 58 81 58s80 -13 80 -58v-449c0 -44 -35 -57 -80 -57s-81 13 -81 57v449z" />
    <glyph glyph-name="icircumflex" unicode="&#xee;" horiz-adv-x="283" 
d="M61 492c0 45 36 58 81 58s80 -13 80 -58v-449c0 -44 -35 -57 -80 -57s-81 13 -81 57v449zM141 663l-35 -52c-13 -20 -37 -28 -63 -28c-33 0 -52 9 -52 31c0 4 0 11 6 20l51 80c14 22 22 36 62 36h62c40 0 48 -14 62 -36l51 -80c6 -9 6 -16 6 -20c0 -22 -19 -31 -52 -31
c-26 0 -50 8 -63 28z" />
    <glyph glyph-name="itilde" unicode="&#x129;" horiz-adv-x="283" 
d="M61 492c0 45 36 58 81 58s80 -13 80 -58v-449c0 -44 -35 -57 -80 -57s-81 13 -81 57v449zM207 600c-42 0 -87 29 -112 29c-32 0 -24 -27 -62 -27c-24 0 -51 11 -51 45c0 55 53 90 94 90c45 0 87 -29 113 -29c32 0 24 28 62 28c26 0 51 -14 51 -46c0 -57 -53 -90 -95 -90z
" />
    <glyph glyph-name="idieresis" unicode="&#xef;" horiz-adv-x="283" 
d="M169 700c0 34 27 47 61 47s60 -13 60 -47v-57c0 -34 -26 -46 -60 -46s-61 12 -61 46v57zM-6 700c0 34 26 47 60 47s61 -13 61 -47v-57c0 -34 -27 -46 -61 -46s-60 12 -60 46v57zM61 492c0 45 36 58 81 58s80 -13 80 -58v-449c0 -44 -35 -57 -80 -57s-81 13 -81 57v449z
" />
    <glyph glyph-name="imacron" unicode="&#x12b;" horiz-adv-x="283" 
d="M61 492c0 45 36 58 81 58s80 -13 80 -58v-449c0 -44 -35 -57 -80 -57s-81 13 -81 57v449zM29 617c-32 0 -44 23 -44 54s12 54 44 54h226c31 0 43 -23 43 -54s-12 -54 -43 -54h-226z" />
    <glyph glyph-name="ibreve" horiz-adv-x="283" 
d="M61 492c0 45 36 58 81 58s80 -13 80 -58v-449c0 -44 -35 -57 -80 -57s-81 13 -81 57v449zM142 594c-86 0 -152 56 -152 128c0 29 20 37 50 37c31 0 46 -8 52 -30c7 -24 27 -36 50 -36s43 12 50 36c6 22 21 30 52 30c30 0 50 -8 50 -37c0 -72 -66 -128 -152 -128z" />
    <glyph glyph-name="iogonek" unicode="&#x12f;" horiz-adv-x="283" 
d="M222 43c0 -24 -11 -39 -27 -47c-34 -19 -54 -43 -54 -66c0 -18 10 -27 27 -27c21 0 27 13 48 15c31 0 44 -29 44 -54c0 -52 -70 -72 -124 -72c-68 0 -125 34 -125 106c0 38 16 81 61 110c-7 8 -11 20 -11 35v448c0 45 35 59 80 59c46 0 81 -14 81 -59v-448zM141 589
c-45 0 -80 14 -80 59v45c0 46 34 61 80 61s81 -15 81 -61v-45c0 -45 -36 -59 -81 -59z" />
    <glyph glyph-name="dotlessi" unicode="&#x131;" horiz-adv-x="283" 
d="M61 492c0 45 36 58 81 58s80 -13 80 -58v-449c0 -44 -35 -57 -80 -57s-81 13 -81 57v449z" />
    <glyph glyph-name="jcircumflex" unicode="&#x135;" horiz-adv-x="283" 
d="M222 491v-536c0 -117 -69 -167 -159 -167c-45 0 -122 4 -122 75c0 38 5 71 37 71c12 0 28 -7 43 -7c21 0 40 16 40 50v514c0 45 35 59 80 59c46 0 81 -14 81 -59zM142 663l-35 -52c-13 -20 -37 -28 -63 -28c-33 0 -52 9 -52 31c0 4 0 11 6 20l51 80c14 22 22 36 62 36h62
c40 0 48 -14 62 -36l51 -80c6 -9 6 -16 6 -20c0 -22 -19 -31 -52 -31c-26 0 -50 8 -63 28z" />
    <glyph glyph-name="kcommaaccent" unicode="&#x137;" horiz-adv-x="518" 
d="M222 347l123 165c19 25 38 38 88 38c47 0 72 -17 72 -40c0 -9 -3 -19 -10 -29l-115 -162l138 -260c4 -8 6 -15 6 -22c0 -31 -27 -51 -71 -51c-52 0 -85 10 -108 55l-84 162l-39 -48v-112c0 -44 -36 -57 -81 -57s-80 13 -80 57v647c0 45 35 59 80 59c46 0 81 -14 81 -59
v-343zM333 -111l-52 -69c-19 -25 -37 -38 -76 -38c-36 0 -53 14 -53 37c0 6 4 15 8 22l42 74c15 26 33 45 92 45c36 0 58 -12 58 -33c0 -15 -9 -24 -19 -38z" />
    <glyph glyph-name="lacute" unicode="&#x13a;" horiz-adv-x="308" 
d="M220 690v-524c0 -29 16 -40 38 -40c20 0 28 7 42 7c16 0 22 -17 22 -45c0 -33 -5 -56 -20 -72c-21 -22 -58 -30 -105 -30c-88 0 -138 50 -138 175v529c0 45 35 59 80 59c46 0 81 -14 81 -59zM281 884l-52 -69c-19 -25 -37 -38 -76 -38c-36 0 -53 14 -53 37c0 6 4 15 8 22
l42 74c15 26 33 45 92 45c36 0 58 -12 58 -33c0 -15 -9 -24 -19 -38z" />
    <glyph glyph-name="lcaron" unicode="&#x13e;" horiz-adv-x="338" 
d="M286 645c7 49 31 63 67 63c25 0 52 -10 52 -38c0 -6 -1 -15 -3 -23l-47 -151c-8 -25 -23 -41 -51 -41c-20 0 -45 7 -45 34c0 3 0 6 1 9zM220 690v-524c0 -29 16 -40 38 -40c20 0 28 7 42 7c16 0 22 -17 22 -45c0 -33 -5 -56 -20 -72c-21 -22 -58 -30 -105 -30
c-88 0 -138 50 -138 175v529c0 45 35 59 80 59c46 0 81 -14 81 -59z" />
    <glyph glyph-name="lcommaaccent" unicode="&#x13c;" horiz-adv-x="308" 
d="M220 690v-524c0 -29 16 -40 38 -40c20 0 28 7 42 7c16 0 22 -17 22 -45c0 -33 -5 -56 -20 -72c-21 -22 -58 -30 -105 -30c-88 0 -138 50 -138 175v529c0 45 35 59 80 59c46 0 81 -14 81 -59zM233 -111l-52 -69c-19 -25 -37 -38 -76 -38c-36 0 -53 14 -53 37
c0 6 4 15 8 22l42 74c15 26 33 45 92 45c36 0 58 -12 58 -33c0 -15 -9 -24 -19 -38z" />
    <glyph glyph-name="lslash" unicode="&#x142;" horiz-adv-x="327" 
d="M239 369v-203c0 -29 16 -40 38 -40c20 0 28 7 42 7c16 0 22 -17 22 -45c0 -40 -9 -66 -31 -82c-21 -15 -54 -20 -94 -20c-88 0 -138 50 -138 175v118l-18 -10c-11 -6 -19 -8 -27 -8c-20 0 -28 24 -28 45c0 43 13 58 34 69l39 21v294c0 45 35 59 80 59c46 0 81 -14 81 -59
v-204l23 13c10 6 19 8 26 8c21 0 29 -24 29 -45c0 -43 -13 -58 -34 -69z" />
    <glyph glyph-name="nacute" unicode="&#x144;" horiz-adv-x="572" 
d="M222 392v-349c0 -44 -35 -57 -80 -57s-81 13 -81 57v456c0 39 31 51 69 51c40 0 70 -12 70 -51v-11c41 33 96 62 165 62c97 0 155 -51 155 -169v-338c0 -44 -35 -57 -80 -57s-81 13 -81 57v304c0 44 -26 61 -65 61c-23 0 -51 -8 -72 -16zM423 688l-52 -69
c-19 -25 -37 -38 -76 -38c-36 0 -53 14 -53 37c0 6 4 15 8 22l42 74c15 26 33 45 92 45c36 0 58 -12 58 -33c0 -15 -9 -24 -19 -38z" />
    <glyph glyph-name="ncaron" unicode="&#x148;" horiz-adv-x="572" 
d="M222 392v-349c0 -44 -35 -57 -80 -57s-81 13 -81 57v456c0 39 31 51 69 51c40 0 70 -12 70 -51v-11c41 33 96 62 165 62c97 0 155 -51 155 -169v-338c0 -44 -35 -57 -80 -57s-81 13 -81 57v304c0 44 -26 61 -65 61c-23 0 -51 -8 -72 -16zM290 679l35 52
c13 20 37 28 63 28c33 0 52 -9 52 -31c0 -4 0 -11 -6 -20l-51 -80c-14 -22 -22 -36 -62 -36h-62c-40 0 -48 14 -62 36l-51 80c-6 9 -6 16 -6 20c0 22 19 31 52 31c26 0 50 -8 63 -28z" />
    <glyph glyph-name="ntilde" unicode="&#xf1;" horiz-adv-x="572" 
d="M222 392v-349c0 -44 -35 -57 -80 -57s-81 13 -81 57v456c0 39 31 51 69 51c40 0 70 -12 70 -51v-11c41 33 96 62 165 62c97 0 155 -51 155 -169v-338c0 -44 -35 -57 -80 -57s-81 13 -81 57v304c0 44 -26 61 -65 61c-23 0 -51 -8 -72 -16zM354 600c-42 0 -87 29 -112 29
c-32 0 -24 -27 -62 -27c-24 0 -51 11 -51 45c0 55 53 90 94 90c45 0 87 -29 113 -29c32 0 24 28 62 28c26 0 51 -14 51 -46c0 -57 -53 -90 -95 -90z" />
    <glyph glyph-name="ncommaaccent" unicode="&#x146;" horiz-adv-x="572" 
d="M222 392v-349c0 -44 -35 -57 -80 -57s-81 13 -81 57v456c0 39 31 51 69 51c40 0 70 -12 70 -51v-11c41 33 96 62 165 62c97 0 155 -51 155 -169v-338c0 -44 -35 -57 -80 -57s-81 13 -81 57v304c0 44 -26 61 -65 61c-23 0 -51 -8 -72 -16zM336 -111l-52 -69
c-19 -25 -37 -38 -76 -38c-36 0 -53 14 -53 37c0 6 4 15 8 22l42 74c15 26 33 45 92 45c36 0 58 -12 58 -33c0 -15 -9 -24 -19 -38z" />
    <glyph glyph-name="ograve" unicode="&#xf2;" horiz-adv-x="543" 
d="M272 550c158 0 241 -85 241 -284c0 -192 -90 -280 -241 -280c-153 0 -242 84 -242 281c0 196 87 283 242 283zM272 421c-52 0 -78 -35 -78 -154c0 -117 26 -156 78 -156s77 39 77 155c0 120 -25 155 -77 155zM192 619l-52 69c-10 14 -19 23 -19 38c0 21 22 33 58 33
c59 0 77 -19 92 -45l42 -74c4 -7 8 -16 8 -22c0 -23 -17 -37 -53 -37c-39 0 -57 13 -76 38z" />
    <glyph glyph-name="oacute" unicode="&#xf3;" horiz-adv-x="543" 
d="M272 550c158 0 241 -85 241 -284c0 -192 -90 -280 -241 -280c-153 0 -242 84 -242 281c0 196 87 283 242 283zM272 421c-52 0 -78 -35 -78 -154c0 -117 26 -156 78 -156s77 39 77 155c0 120 -25 155 -77 155zM400 688l-52 -69c-19 -25 -37 -38 -76 -38
c-36 0 -53 14 -53 37c0 6 4 15 8 22l42 74c15 26 33 45 92 45c36 0 58 -12 58 -33c0 -15 -9 -24 -19 -38z" />
    <glyph glyph-name="ocircumflex" unicode="&#xf4;" horiz-adv-x="543" 
d="M272 550c158 0 241 -85 241 -284c0 -192 -90 -280 -241 -280c-153 0 -242 84 -242 281c0 196 87 283 242 283zM272 421c-52 0 -78 -35 -78 -154c0 -117 26 -156 78 -156s77 39 77 155c0 120 -25 155 -77 155zM274 663l-35 -52c-13 -20 -37 -28 -63 -28
c-33 0 -52 9 -52 31c0 4 0 11 6 20l51 80c14 22 22 36 62 36h62c40 0 48 -14 62 -36l51 -80c6 -9 6 -16 6 -20c0 -22 -19 -31 -52 -31c-26 0 -50 8 -63 28z" />
    <glyph glyph-name="otilde" unicode="&#xf5;" horiz-adv-x="543" 
d="M272 550c158 0 241 -85 241 -284c0 -192 -90 -280 -241 -280c-153 0 -242 84 -242 281c0 196 87 283 242 283zM272 421c-52 0 -78 -35 -78 -154c0 -117 26 -156 78 -156s77 39 77 155c0 120 -25 155 -77 155zM337 600c-42 0 -87 29 -112 29c-32 0 -24 -27 -62 -27
c-24 0 -51 11 -51 45c0 55 53 90 94 90c45 0 87 -29 113 -29c32 0 24 28 62 28c26 0 51 -14 51 -46c0 -57 -53 -90 -95 -90z" />
    <glyph glyph-name="odieresis" unicode="&#xf6;" horiz-adv-x="543" 
d="M272 550c158 0 241 -85 241 -284c0 -192 -90 -280 -241 -280c-153 0 -242 84 -242 281c0 196 87 283 242 283zM272 421c-52 0 -78 -35 -78 -154c0 -117 26 -156 78 -156s77 39 77 155c0 120 -25 155 -77 155zM299 700c0 34 27 47 61 47s60 -13 60 -47v-57
c0 -34 -26 -46 -60 -46s-61 12 -61 46v57zM124 700c0 34 26 47 60 47s61 -13 61 -47v-57c0 -34 -27 -46 -61 -46s-60 12 -60 46v57z" />
    <glyph glyph-name="omacron" unicode="&#x14d;" horiz-adv-x="543" 
d="M272 550c158 0 241 -85 241 -284c0 -192 -90 -280 -241 -280c-153 0 -242 84 -242 281c0 196 87 283 242 283zM272 421c-52 0 -78 -35 -78 -154c0 -117 26 -156 78 -156s77 39 77 155c0 120 -25 155 -77 155zM160 617c-32 0 -44 23 -44 54s12 54 44 54h226
c31 0 43 -23 43 -54s-12 -54 -43 -54h-226z" />
    <glyph glyph-name="obreve" unicode="&#x14f;" horiz-adv-x="543" 
d="M272 550c158 0 241 -85 241 -284c0 -192 -90 -280 -241 -280c-153 0 -242 84 -242 281c0 196 87 283 242 283zM272 421c-52 0 -78 -35 -78 -154c0 -117 26 -156 78 -156s77 39 77 155c0 120 -25 155 -77 155zM272 594c-86 0 -152 56 -152 128c0 29 20 37 50 37
c31 0 46 -8 52 -30c7 -24 27 -36 50 -36s43 12 50 36c6 22 21 30 52 30c30 0 50 -8 50 -37c0 -72 -66 -128 -152 -128z" />
    <glyph glyph-name="ohungarumlaut" unicode="&#x151;" horiz-adv-x="543" 
d="M272 550c158 0 241 -85 241 -284c0 -192 -90 -280 -241 -280c-153 0 -242 84 -242 281c0 196 87 283 242 283zM272 421c-52 0 -78 -35 -78 -154c0 -117 26 -156 78 -156s77 39 77 155c0 120 -25 155 -77 155zM434 759c35 0 54 -18 54 -39c0 -8 -2 -17 -8 -25l-58 -81
c-15 -21 -31 -33 -63 -33c-31 0 -50 12 -50 30c0 4 1 8 3 13l44 92c12 26 26 43 78 43zM244 759c37 0 61 -14 61 -36c0 -5 -2 -11 -5 -17l-47 -94c-10 -19 -23 -31 -59 -31c-26 0 -45 12 -45 30c0 2 0 5 1 7l22 100c6 29 32 41 72 41z" />
    <glyph glyph-name="oslash" unicode="&#xf8;" horiz-adv-x="543" 
d="M419 510l36 47c5 7 13 12 22 12c14 0 34 -16 34 -31c0 -6 -2 -11 -7 -17l-42 -55c33 -45 49 -112 49 -200c0 -192 -90 -280 -241 -280c-61 0 -111 13 -150 41l-42 -56c-4 -5 -10 -8 -16 -8c-16 0 -36 16 -36 33c0 4 2 9 5 13l47 61c-33 45 -50 110 -50 197
c0 196 87 283 242 283c61 0 111 -13 149 -40zM327 391c-13 25 -32 30 -57 30c-52 0 -78 -35 -78 -154c0 -11 1 -42 3 -48zM344 316l-132 -172c13 -24 32 -33 58 -33c52 0 77 39 77 155c0 20 -1 36 -3 50z" />
    <glyph glyph-name="oslashacute" unicode="&#x1ff;" horiz-adv-x="543" 
d="M419 510l36 47c5 7 13 12 22 12c14 0 34 -16 34 -31c0 -6 -2 -11 -7 -17l-42 -55c33 -45 49 -112 49 -200c0 -192 -90 -280 -241 -280c-61 0 -111 13 -150 41l-42 -56c-4 -5 -10 -8 -16 -8c-16 0 -36 16 -36 33c0 4 2 9 5 13l47 61c-33 45 -50 110 -50 197
c0 196 87 283 242 283c61 0 111 -13 149 -40zM327 391c-13 25 -32 30 -57 30c-52 0 -78 -35 -78 -154c0 -11 1 -42 3 -48zM344 316l-132 -172c13 -24 32 -33 58 -33c52 0 77 39 77 155c0 20 -1 36 -3 50zM399 688l-52 -69c-19 -25 -37 -38 -76 -38c-36 0 -53 14 -53 37
c0 6 4 15 8 22l42 74c15 26 33 45 92 45c36 0 58 -12 58 -33c0 -15 -9 -24 -19 -38z" />
    <glyph glyph-name="oe" unicode="&#x153;" horiz-adv-x="813" 
d="M511 222c4 -79 42 -111 103 -111c66 0 111 39 130 39c17 0 30 -13 30 -50s-4 -62 -29 -75c-41 -22 -95 -39 -159 -39c-77 0 -130 19 -162 69c-33 -48 -84 -69 -166 -69c-144 0 -229 90 -229 281c0 205 89 283 253 283c70 0 115 -25 144 -67c29 46 77 67 149 67
c150 0 204 -97 204 -237v-36c0 -35 -11 -55 -47 -55h-221zM270 421c-51 0 -77 -36 -77 -154s26 -156 77 -156c52 0 78 38 78 155c0 119 -25 155 -78 155zM512 321h117c0 71 -13 100 -58 100c-46 0 -57 -33 -59 -100z" />
    <glyph glyph-name="racute" unicode="&#x155;" horiz-adv-x="440" 
d="M61 499c0 39 31 51 69 51c40 0 70 -12 70 -51v-22c45 53 82 73 136 73c90 0 104 -78 104 -156c0 -40 -38 -49 -72 -49c-44 0 -65 13 -65 39c0 14 -8 25 -27 25c-21 0 -38 -18 -54 -39v-327c0 -44 -35 -57 -81 -57c-45 0 -80 13 -80 57v456zM365 688l-52 -69
c-19 -25 -37 -38 -76 -38c-36 0 -53 14 -53 37c0 6 4 15 8 22l42 74c15 26 33 45 92 45c36 0 58 -12 58 -33c0 -15 -9 -24 -19 -38z" />
    <glyph glyph-name="rcommaaccent" unicode="&#x157;" horiz-adv-x="440" 
d="M61 499c0 39 31 51 69 51c40 0 70 -12 70 -51v-22c45 53 82 73 136 73c90 0 104 -78 104 -156c0 -40 -38 -49 -72 -49c-44 0 -65 13 -65 39c0 14 -8 25 -27 25c-21 0 -38 -18 -54 -39v-327c0 -44 -35 -57 -81 -57c-45 0 -80 13 -80 57v456zM172 -111l-52 -69
c-19 -25 -37 -38 -76 -38c-36 0 -53 14 -53 37c0 6 4 15 8 22l42 74c15 26 33 45 92 45c36 0 58 -12 58 -33c0 -15 -9 -24 -19 -38z" />
    <glyph glyph-name="rcaron" unicode="&#x159;" horiz-adv-x="440" 
d="M61 499c0 39 31 51 69 51c40 0 70 -12 70 -51v-22c45 53 82 73 136 73c90 0 104 -78 104 -156c0 -40 -38 -49 -72 -49c-44 0 -65 13 -65 39c0 14 -8 25 -27 25c-21 0 -38 -18 -54 -39v-327c0 -44 -35 -57 -81 -57c-45 0 -80 13 -80 57v456zM231 679l35 52
c13 20 37 28 63 28c33 0 52 -9 52 -31c0 -4 0 -11 -6 -20l-51 -80c-14 -22 -22 -36 -62 -36h-62c-40 0 -48 14 -62 36l-51 80c-6 9 -6 16 -6 20c0 22 19 31 52 31c26 0 50 -8 63 -28z" />
    <glyph glyph-name="sacute" unicode="&#x15b;" horiz-adv-x="455" 
d="M234 550c77 0 188 -37 188 -139c0 -30 -26 -51 -75 -51c-24 0 -48 8 -56 31c-9 25 -23 40 -61 40c-27 0 -50 -13 -50 -40c0 -76 247 -82 247 -246c0 -97 -71 -159 -203 -159c-95 0 -202 33 -202 95c0 55 27 73 47 73c12 0 21 -4 28 -8c40 -24 83 -38 119 -38
c28 0 51 11 51 38c0 69 -235 70 -235 238c0 100 74 166 202 166zM346 688l-52 -69c-19 -25 -37 -38 -76 -38c-36 0 -53 14 -53 37c0 6 4 15 8 22l42 74c15 26 33 45 92 45c36 0 58 -12 58 -33c0 -15 -9 -24 -19 -38z" />
    <glyph glyph-name="scircumflex" unicode="&#x15d;" horiz-adv-x="455" 
d="M234 550c77 0 188 -37 188 -139c0 -30 -26 -51 -75 -51c-24 0 -48 8 -56 31c-9 25 -23 40 -61 40c-27 0 -50 -13 -50 -40c0 -76 247 -82 247 -246c0 -97 -71 -159 -203 -159c-95 0 -202 33 -202 95c0 55 27 73 47 73c12 0 21 -4 28 -8c40 -24 83 -38 119 -38
c28 0 51 11 51 38c0 69 -235 70 -235 238c0 100 74 166 202 166zM223 663l-35 -52c-13 -20 -37 -28 -63 -28c-33 0 -52 9 -52 31c0 4 0 11 6 20l51 80c14 22 22 36 62 36h62c40 0 48 -14 62 -36l51 -80c6 -9 6 -16 6 -20c0 -22 -19 -31 -52 -31c-26 0 -50 8 -63 28z" />
    <glyph glyph-name="scaron" unicode="&#x161;" horiz-adv-x="455" 
d="M234 550c77 0 188 -37 188 -139c0 -30 -26 -51 -75 -51c-24 0 -48 8 -56 31c-9 25 -23 40 -61 40c-27 0 -50 -13 -50 -40c0 -76 247 -82 247 -246c0 -97 -71 -159 -203 -159c-95 0 -202 33 -202 95c0 55 27 73 47 73c12 0 21 -4 28 -8c40 -24 83 -38 119 -38
c28 0 51 11 51 38c0 69 -235 70 -235 238c0 100 74 166 202 166zM221 679l35 52c13 20 37 28 63 28c33 0 52 -9 52 -31c0 -4 0 -11 -6 -20l-51 -80c-14 -22 -22 -36 -62 -36h-62c-40 0 -48 14 -62 36l-51 80c-6 9 -6 16 -6 20c0 22 19 31 52 31c26 0 50 -8 63 -28z" />
    <glyph glyph-name="scedilla" unicode="&#x15f;" horiz-adv-x="455" 
d="M234 550c77 0 188 -37 188 -139c0 -30 -26 -51 -75 -51c-24 0 -48 8 -56 31c-9 25 -23 40 -61 40c-27 0 -50 -13 -50 -40c0 -76 247 -82 247 -246c0 -71 -38 -123 -109 -146c18 -23 26 -58 26 -84c0 -69 -55 -120 -133 -120c-55 0 -96 16 -120 39c-11 11 -15 21 -15 36
c0 26 22 52 48 52c12 0 17 -3 28 -10c10 -7 21 -9 30 -9c21 0 33 10 33 36c0 16 -6 32 -15 48c-88 5 -178 37 -178 94c0 55 27 73 47 73c12 0 21 -4 28 -8c40 -24 83 -38 119 -38c28 0 51 11 51 38c0 69 -235 70 -235 238c0 100 74 166 202 166z" />
    <glyph glyph-name="scedilla" unicode="&#xf6c2;" horiz-adv-x="455" 
d="M234 550c77 0 188 -37 188 -139c0 -30 -26 -51 -75 -51c-24 0 -48 8 -56 31c-9 25 -23 40 -61 40c-27 0 -50 -13 -50 -40c0 -76 247 -82 247 -246c0 -71 -38 -123 -109 -146c18 -23 26 -58 26 -84c0 -69 -55 -120 -133 -120c-55 0 -96 16 -120 39c-11 11 -15 21 -15 36
c0 26 22 52 48 52c12 0 17 -3 28 -10c10 -7 21 -9 30 -9c21 0 33 10 33 36c0 16 -6 32 -15 48c-88 5 -178 37 -178 94c0 55 27 73 47 73c12 0 21 -4 28 -8c40 -24 83 -38 119 -38c28 0 51 11 51 38c0 69 -235 70 -235 238c0 100 74 166 202 166z" />
    <glyph glyph-name="scommaaccent" unicode="&#x219;" horiz-adv-x="455" 
d="M234 550c77 0 188 -37 188 -139c0 -30 -26 -51 -75 -51c-24 0 -48 8 -56 31c-9 25 -23 40 -61 40c-27 0 -50 -13 -50 -40c0 -76 247 -82 247 -246c0 -97 -71 -159 -203 -159c-95 0 -202 33 -202 95c0 55 27 73 47 73c12 0 21 -4 28 -8c40 -24 83 -38 119 -38
c28 0 51 11 51 38c0 69 -235 70 -235 238c0 100 74 166 202 166zM270 -111l-52 -69c-19 -25 -37 -38 -76 -38c-36 0 -53 14 -53 37c0 6 4 15 8 22l42 74c15 26 33 45 92 45c36 0 58 -12 58 -33c0 -15 -9 -24 -19 -38z" />
    <glyph glyph-name="germandbls" unicode="&#xdf;" horiz-adv-x="593" 
d="M141 -13c-45 0 -80 13 -80 57v523c0 143 103 206 231 206c129 0 232 -55 232 -176c0 -107 -73 -137 -73 -201c0 -66 129 -90 129 -237c0 -95 -56 -173 -174 -173c-57 0 -141 13 -141 80c0 33 16 76 46 76c27 0 37 -20 72 -20c28 0 37 17 37 41c0 60 -122 74 -122 212
c0 84 68 128 68 192c0 34 -26 60 -68 60c-45 0 -76 -25 -76 -74v-509c0 -44 -36 -57 -81 -57z" />
    <glyph glyph-name="longs" unicode="&#x17f;" horiz-adv-x="348" 
d="M239 576v-618c0 -118 -63 -170 -155 -170c-48 0 -122 5 -122 75c0 34 3 71 36 71c13 0 28 -7 44 -7c21 0 40 17 40 50v434h-28c-36 0 -49 28 -49 62c0 31 12 62 49 62h28v35c0 139 85 201 207 201c78 0 124 -13 124 -63c0 -42 -18 -73 -49 -73c-22 0 -23 6 -57 6
c-37 0 -68 -22 -68 -65z" />
    <glyph glyph-name="tcaron" unicode="&#x165;" horiz-adv-x="376" 
d="M303 724c7 38 35 49 72 49c28 0 55 -10 55 -36c0 -5 -1 -10 -3 -16l-49 -119c-8 -20 -20 -32 -50 -32c-21 0 -48 5 -48 28c0 2 1 4 1 6zM237 535h94c28 0 39 -17 39 -42c0 -38 -17 -82 -67 -82h-66v-237c0 -27 12 -46 43 -46c21 0 39 11 63 11c22 0 33 -21 33 -73
s-65 -80 -144 -80c-90 0 -156 61 -156 161v264h-33c-32 0 -48 27 -48 62s12 62 48 62h38v74c0 44 34 58 78 58s78 -14 78 -58v-74z" />
    <glyph glyph-name="tcommaaccent" unicode="&#x163;" horiz-adv-x="376" 
d="M237 535h94c28 0 39 -17 39 -42c0 -38 -17 -82 -67 -82h-66v-237c0 -27 12 -46 43 -46c21 0 39 11 63 11c22 0 33 -21 33 -73s-65 -80 -144 -80c-90 0 -156 61 -156 161v264h-33c-32 0 -48 27 -48 62s12 62 48 62h38v74c0 44 34 58 78 58s78 -14 78 -58v-74zM258 -111
l-52 -69c-19 -25 -37 -38 -76 -38c-36 0 -53 14 -53 37c0 6 4 15 8 22l42 74c15 26 33 45 92 45c36 0 58 -12 58 -33c0 -15 -9 -24 -19 -38z" />
    <glyph glyph-name="tcommaaccent" unicode="&#x21b;" horiz-adv-x="376" 
d="M237 535h94c28 0 39 -17 39 -42c0 -38 -17 -82 -67 -82h-66v-237c0 -27 12 -46 43 -46c21 0 39 11 63 11c22 0 33 -21 33 -73s-65 -80 -144 -80c-90 0 -156 61 -156 161v264h-33c-32 0 -48 27 -48 62s12 62 48 62h38v74c0 44 34 58 78 58s78 -14 78 -58v-74zM258 -111
l-52 -69c-19 -25 -37 -38 -76 -38c-36 0 -53 14 -53 37c0 6 4 15 8 22l42 74c15 26 33 45 92 45c36 0 58 -12 58 -33c0 -15 -9 -24 -19 -38z" />
    <glyph glyph-name="tbar" unicode="&#x167;" horiz-adv-x="388" 
d="M244 535h94c28 0 39 -17 39 -42c0 -38 -17 -82 -67 -82h-66v-72h78c29 0 41 -22 41 -51c0 -30 -12 -51 -41 -51h-78v-63c0 -27 12 -46 43 -46c21 0 39 11 63 11c22 0 33 -21 33 -73s-65 -80 -144 -80c-90 0 -156 61 -156 161v90h-42c-30 0 -41 21 -41 51
c0 29 11 51 41 51h42v72h-33c-32 0 -48 27 -48 62s12 62 48 62h38v74c0 44 34 58 78 58s78 -14 78 -58v-74z" />
    <glyph glyph-name="ugrave" unicode="&#xf9;" horiz-adv-x="538" 
d="M267 -14c-126 0 -216 64 -216 194v311c0 45 35 59 80 59s81 -14 81 -59v-311c0 -48 19 -70 55 -70c37 0 59 17 59 70v311c0 45 35 59 80 59c46 0 81 -14 81 -59v-311c0 -130 -88 -194 -220 -194zM187 619l-52 69c-10 14 -19 23 -19 38c0 21 22 33 58 33
c59 0 77 -19 92 -45l42 -74c4 -7 8 -16 8 -22c0 -23 -17 -37 -53 -37c-39 0 -57 13 -76 38z" />
    <glyph glyph-name="uacute" unicode="&#xfa;" horiz-adv-x="538" 
d="M267 -14c-126 0 -216 64 -216 194v311c0 45 35 59 80 59s81 -14 81 -59v-311c0 -48 19 -70 55 -70c37 0 59 17 59 70v311c0 45 35 59 80 59c46 0 81 -14 81 -59v-311c0 -130 -88 -194 -220 -194zM399 688l-52 -69c-19 -25 -37 -38 -76 -38c-36 0 -53 14 -53 37
c0 6 4 15 8 22l42 74c15 26 33 45 92 45c36 0 58 -12 58 -33c0 -15 -9 -24 -19 -38z" />
    <glyph glyph-name="ucircumflex" unicode="&#xfb;" horiz-adv-x="538" 
d="M267 -14c-126 0 -216 64 -216 194v311c0 45 35 59 80 59s81 -14 81 -59v-311c0 -48 19 -70 55 -70c37 0 59 17 59 70v311c0 45 35 59 80 59c46 0 81 -14 81 -59v-311c0 -130 -88 -194 -220 -194zM265 663l-35 -52c-13 -20 -37 -28 -63 -28c-33 0 -52 9 -52 31
c0 4 0 11 6 20l51 80c14 22 22 36 62 36h62c40 0 48 -14 62 -36l51 -80c6 -9 6 -16 6 -20c0 -22 -19 -31 -52 -31c-26 0 -50 8 -63 28z" />
    <glyph glyph-name="utilde" unicode="&#x169;" horiz-adv-x="538" 
d="M267 -14c-126 0 -216 64 -216 194v311c0 45 35 59 80 59s81 -14 81 -59v-311c0 -48 19 -70 55 -70c37 0 59 17 59 70v311c0 45 35 59 80 59c46 0 81 -14 81 -59v-311c0 -130 -88 -194 -220 -194zM334 600c-42 0 -87 29 -112 29c-32 0 -24 -27 -62 -27
c-24 0 -51 11 -51 45c0 55 53 90 94 90c45 0 87 -29 113 -29c32 0 24 28 62 28c26 0 51 -14 51 -46c0 -57 -53 -90 -95 -90z" />
    <glyph glyph-name="udieresis" unicode="&#xfc;" horiz-adv-x="538" 
d="M267 -14c-126 0 -216 64 -216 194v311c0 45 35 59 80 59s81 -14 81 -59v-311c0 -48 19 -70 55 -70c37 0 59 17 59 70v311c0 45 35 59 80 59c46 0 81 -14 81 -59v-311c0 -130 -88 -194 -220 -194zM291 700c0 34 27 47 61 47s60 -13 60 -47v-57c0 -34 -26 -46 -60 -46
s-61 12 -61 46v57zM116 700c0 34 26 47 60 47s61 -13 61 -47v-57c0 -34 -27 -46 -61 -46s-60 12 -60 46v57z" />
    <glyph glyph-name="umacron" unicode="&#x16b;" horiz-adv-x="538" 
d="M267 -14c-126 0 -216 64 -216 194v311c0 45 35 59 80 59s81 -14 81 -59v-311c0 -48 19 -70 55 -70c37 0 59 17 59 70v311c0 45 35 59 80 59c46 0 81 -14 81 -59v-311c0 -130 -88 -194 -220 -194zM156 617c-32 0 -44 23 -44 54s12 54 44 54h226c31 0 43 -23 43 -54
s-12 -54 -43 -54h-226z" />
    <glyph glyph-name="ubreve" unicode="&#x16d;" horiz-adv-x="538" 
d="M267 -14c-126 0 -216 64 -216 194v311c0 45 35 59 80 59s81 -14 81 -59v-311c0 -48 19 -70 55 -70c37 0 59 17 59 70v311c0 45 35 59 80 59c46 0 81 -14 81 -59v-311c0 -130 -88 -194 -220 -194zM269 594c-86 0 -152 56 -152 128c0 29 20 37 50 37c31 0 46 -8 52 -30
c7 -24 27 -36 50 -36s43 12 50 36c6 22 21 30 52 30c30 0 50 -8 50 -37c0 -72 -66 -128 -152 -128z" />
    <glyph glyph-name="uring" unicode="&#x16f;" horiz-adv-x="538" 
d="M267 -14c-126 0 -216 64 -216 194v311c0 45 35 59 80 59s81 -14 81 -59v-311c0 -48 19 -70 55 -70c37 0 59 17 59 70v311c0 45 35 59 80 59c46 0 81 -14 81 -59v-311c0 -130 -88 -194 -220 -194zM156 671c0 55 45 97 113 97s113 -42 113 -97s-45 -97 -113 -97
s-113 42 -113 97zM269 703c-23 0 -34 -11 -34 -32s11 -32 34 -32c22 0 33 11 33 32s-11 32 -33 32z" />
    <glyph glyph-name="uhungarumlaut" unicode="&#x171;" horiz-adv-x="538" 
d="M267 -14c-126 0 -216 64 -216 194v311c0 45 35 59 80 59s81 -14 81 -59v-311c0 -48 19 -70 55 -70c37 0 59 17 59 70v311c0 45 35 59 80 59c46 0 81 -14 81 -59v-311c0 -130 -88 -194 -220 -194zM423 759c35 0 54 -18 54 -39c0 -8 -2 -17 -8 -25l-58 -81
c-15 -21 -31 -33 -63 -33c-31 0 -50 12 -50 30c0 4 1 8 3 13l44 92c12 26 26 43 78 43zM233 759c37 0 61 -14 61 -36c0 -5 -2 -11 -5 -17l-47 -94c-10 -19 -23 -31 -59 -31c-26 0 -45 12 -45 30c0 2 0 5 1 7l22 100c6 29 32 41 72 41z" />
    <glyph glyph-name="uogonek" unicode="&#x173;" horiz-adv-x="538" 
d="M487 180c0 -99 -51 -159 -133 -182c-33 -20 -53 -45 -53 -68c0 -18 10 -27 27 -27c21 0 27 13 48 15c31 0 44 -29 44 -54c0 -52 -70 -72 -124 -72c-68 0 -125 34 -125 106c0 33 13 70 38 93c-95 17 -158 80 -158 189v311c0 45 35 59 80 59s81 -14 81 -59v-311
c0 -48 19 -70 55 -70c37 0 59 17 59 70v311c0 45 35 59 80 59c46 0 81 -14 81 -59v-311z" />
    <glyph glyph-name="wgrave" unicode="&#x1e81;" horiz-adv-x="781" 
d="M391 361l-71 -313c-8 -35 -21 -48 -53 -48h-74c-39 0 -59 16 -67 47l-113 419c-3 12 -7 23 -7 33c0 37 34 51 71 51c53 0 90 -13 101 -72l54 -287l72 302c8 33 22 42 73 42h29c49 0 65 -9 73 -42l72 -302l53 287c11 59 47 72 101 72c33 0 71 -12 71 -48
c0 -10 -3 -23 -6 -36l-114 -419c-8 -31 -28 -47 -67 -47h-74c-31 0 -45 13 -53 48zM314 619l-52 69c-10 14 -19 23 -19 38c0 21 22 33 58 33c59 0 77 -19 92 -45l42 -74c4 -7 8 -16 8 -22c0 -23 -17 -37 -53 -37c-39 0 -57 13 -76 38z" />
    <glyph glyph-name="wacute" unicode="&#x1e83;" horiz-adv-x="781" 
d="M391 361l-71 -313c-8 -35 -21 -48 -53 -48h-74c-39 0 -59 16 -67 47l-113 419c-3 12 -7 23 -7 33c0 37 34 51 71 51c53 0 90 -13 101 -72l54 -287l72 302c8 33 22 42 73 42h29c49 0 65 -9 73 -42l72 -302l53 287c11 59 47 72 101 72c33 0 71 -12 71 -48
c0 -10 -3 -23 -6 -36l-114 -419c-8 -31 -28 -47 -67 -47h-74c-31 0 -45 13 -53 48zM523 688l-52 -69c-19 -25 -37 -38 -76 -38c-36 0 -53 14 -53 37c0 6 4 15 8 22l42 74c15 26 33 45 92 45c36 0 58 -12 58 -33c0 -15 -9 -24 -19 -38z" />
    <glyph glyph-name="wcircumflex" unicode="&#x175;" horiz-adv-x="781" 
d="M391 361l-71 -313c-8 -35 -21 -48 -53 -48h-74c-39 0 -59 16 -67 47l-113 419c-3 12 -7 23 -7 33c0 37 34 51 71 51c53 0 90 -13 101 -72l54 -287l72 302c8 33 22 42 73 42h29c49 0 65 -9 73 -42l72 -302l53 287c11 59 47 72 101 72c33 0 71 -12 71 -48
c0 -10 -3 -23 -6 -36l-114 -419c-8 -31 -28 -47 -67 -47h-74c-31 0 -45 13 -53 48zM389 663l-35 -52c-13 -20 -37 -28 -63 -28c-33 0 -52 9 -52 31c0 4 0 11 6 20l51 80c14 22 22 36 62 36h62c40 0 48 -14 62 -36l51 -80c6 -9 6 -16 6 -20c0 -22 -19 -31 -52 -31
c-26 0 -50 8 -63 28z" />
    <glyph glyph-name="wdieresis" unicode="&#x1e85;" horiz-adv-x="781" 
d="M391 361l-71 -313c-8 -35 -21 -48 -53 -48h-74c-39 0 -59 16 -67 47l-113 419c-3 12 -7 23 -7 33c0 37 34 51 71 51c53 0 90 -13 101 -72l54 -287l72 302c8 33 22 42 73 42h29c49 0 65 -9 73 -42l72 -302l53 287c11 59 47 72 101 72c33 0 71 -12 71 -48
c0 -10 -3 -23 -6 -36l-114 -419c-8 -31 -28 -47 -67 -47h-74c-31 0 -45 13 -53 48zM416 700c0 34 27 47 61 47s60 -13 60 -47v-57c0 -34 -26 -46 -60 -46s-61 12 -61 46v57zM241 700c0 34 26 47 60 47s61 -13 61 -47v-57c0 -34 -27 -46 -61 -46s-60 12 -60 46v57z" />
    <glyph glyph-name="ygrave" unicode="&#x1ef3;" horiz-adv-x="501" 
d="M259 211l79 266c15 51 37 73 87 73c40 0 70 -16 70 -52c0 -6 -1 -13 -4 -21l-147 -436c-56 -165 -118 -253 -262 -253c-43 0 -126 13 -126 67c0 36 12 84 49 84c27 0 34 -14 68 -14c62 0 72 20 109 104l-164 432c-4 11 -7 22 -7 32c0 42 32 57 77 57c51 0 75 -24 91 -78z
M176 619l-52 69c-10 14 -19 23 -19 38c0 21 22 33 58 33c59 0 77 -19 92 -45l42 -74c4 -7 8 -16 8 -22c0 -23 -17 -37 -53 -37c-39 0 -57 13 -76 38z" />
    <glyph glyph-name="yacute" unicode="&#xfd;" horiz-adv-x="501" 
d="M259 211l79 266c15 51 37 73 87 73c40 0 70 -16 70 -52c0 -6 -1 -13 -4 -21l-147 -436c-56 -165 -118 -253 -262 -253c-43 0 -126 13 -126 67c0 36 12 84 49 84c27 0 34 -14 68 -14c62 0 72 20 109 104l-164 432c-4 11 -7 22 -7 32c0 42 32 57 77 57c51 0 75 -24 91 -78z
M392 688l-52 -69c-19 -25 -37 -38 -76 -38c-36 0 -53 14 -53 37c0 6 4 15 8 22l42 74c15 26 33 45 92 45c36 0 58 -12 58 -33c0 -15 -9 -24 -19 -38z" />
    <glyph glyph-name="ycircumflex" unicode="&#x177;" horiz-adv-x="501" 
d="M259 211l79 266c15 51 37 73 87 73c40 0 70 -16 70 -52c0 -6 -1 -13 -4 -21l-147 -436c-56 -165 -118 -253 -262 -253c-43 0 -126 13 -126 67c0 36 12 84 49 84c27 0 34 -14 68 -14c62 0 72 20 109 104l-164 432c-4 11 -7 22 -7 32c0 42 32 57 77 57c51 0 75 -24 91 -78z
M250 663l-35 -52c-13 -20 -37 -28 -63 -28c-33 0 -52 9 -52 31c0 4 0 11 6 20l51 80c14 22 22 36 62 36h62c40 0 48 -14 62 -36l51 -80c6 -9 6 -16 6 -20c0 -22 -19 -31 -52 -31c-26 0 -50 8 -63 28z" />
    <glyph glyph-name="ydieresis" unicode="&#xff;" horiz-adv-x="501" 
d="M259 211l79 266c15 51 37 73 87 73c40 0 70 -16 70 -52c0 -6 -1 -13 -4 -21l-147 -436c-56 -165 -118 -253 -262 -253c-43 0 -126 13 -126 67c0 36 12 84 49 84c27 0 34 -14 68 -14c62 0 72 20 109 104l-164 432c-4 11 -7 22 -7 32c0 42 32 57 77 57c51 0 75 -24 91 -78z
M283 700c0 34 27 47 61 47s60 -13 60 -47v-57c0 -34 -26 -46 -60 -46s-61 12 -61 46v57zM108 700c0 34 26 47 60 47s61 -13 61 -47v-57c0 -34 -27 -46 -61 -46s-60 12 -60 46v57z" />
    <glyph glyph-name="zacute" unicode="&#x17a;" horiz-adv-x="471" 
d="M228 126h180c37 0 50 -28 50 -63c0 -36 -14 -63 -50 -63h-334c-35 0 -50 25 -50 60c0 23 14 51 29 73l190 276h-170c-37 0 -50 28 -50 63s12 63 50 63h323c36 0 51 -27 51 -62c0 -34 -17 -59 -27 -73zM369 688l-52 -69c-19 -25 -37 -38 -76 -38c-36 0 -53 14 -53 37
c0 6 4 15 8 22l42 74c15 26 33 45 92 45c36 0 58 -12 58 -33c0 -15 -9 -24 -19 -38z" />
    <glyph glyph-name="zcaron" unicode="&#x17e;" horiz-adv-x="471" 
d="M228 126h180c37 0 50 -28 50 -63c0 -36 -14 -63 -50 -63h-334c-35 0 -50 25 -50 60c0 23 14 51 29 73l190 276h-170c-37 0 -50 28 -50 63s12 63 50 63h323c36 0 51 -27 51 -62c0 -34 -17 -59 -27 -73zM245 679l35 52c13 20 37 28 63 28c33 0 52 -9 52 -31
c0 -4 0 -11 -6 -20l-51 -80c-14 -22 -22 -36 -62 -36h-62c-40 0 -48 14 -62 36l-51 80c-6 9 -6 16 -6 20c0 22 19 31 52 31c26 0 50 -8 63 -28z" />
    <glyph glyph-name="zdotaccent" unicode="&#x17c;" horiz-adv-x="471" 
d="M228 126h180c37 0 50 -28 50 -63c0 -36 -14 -63 -50 -63h-334c-35 0 -50 25 -50 60c0 23 14 51 29 73l190 276h-170c-37 0 -50 28 -50 63s12 63 50 63h323c36 0 51 -27 51 -62c0 -34 -17 -59 -27 -73zM173 700c0 34 29 47 63 47s62 -13 62 -47v-57c0 -34 -28 -46 -62 -46
s-63 12 -63 46v57z" />
    <glyph glyph-name="eng" unicode="&#x14b;" horiz-adv-x="572" 
d="M222 392v-349c0 -44 -35 -57 -80 -57s-81 13 -81 57v456c0 39 31 51 69 51c40 0 70 -12 70 -51v-11c41 33 96 62 165 62c97 0 155 -51 155 -169v-426c0 -117 -69 -167 -159 -167c-45 0 -122 4 -122 75c0 38 5 71 37 71c12 0 28 -7 43 -7c21 0 40 16 40 50v370
c0 44 -26 61 -65 61c-23 0 -51 -8 -72 -16z" />
    <glyph glyph-name="eth" unicode="&#xf0;" horiz-adv-x="542" 
d="M315 541c-10 23 -21 43 -33 63l-149 -19h-4c-17 0 -28 11 -28 32c0 20 9 31 28 34l116 15c-13 18 -23 23 -23 43c0 23 24 40 59 40c50 0 67 -13 83 -32c10 -12 11 -18 23 -34l93 13h5c17 0 27 -13 27 -29c0 -20 -8 -34 -26 -37l-63 -8c49 -90 89 -194 89 -341
c0 -199 -90 -295 -241 -295c-153 0 -242 84 -242 281c0 196 87 283 242 283c17 0 31 -3 44 -9zM271 425c-52 0 -78 -39 -78 -158c0 -117 26 -156 78 -156s77 39 77 155c0 120 -25 159 -77 159z" />
    <glyph glyph-name="thorn" unicode="&#xfe;" horiz-adv-x="568" 
d="M141 -212c-45 0 -80 13 -80 57v845c0 45 35 59 80 59c46 0 81 -14 81 -59v-190c34 25 76 49 134 49c106 0 182 -56 182 -272c0 -214 -94 -291 -229 -291c-25 0 -62 6 -87 15v-156c0 -44 -35 -57 -81 -57zM222 391v-258c23 -11 43 -16 66 -16c45 0 80 29 80 160
c0 119 -35 130 -78 130c-25 0 -44 -6 -68 -16z" />
    <glyph glyph-name="ampersand" unicode="&#x26;" horiz-adv-x="661" 
d="M375 347c25 -27 51 -52 76 -79c4 6 8 27 9 36c3 39 33 49 64 49c45 0 65 -19 65 -60c0 -45 -21 -107 -37 -134l90 -88c13 -12 19 -26 19 -39c0 -25 -23 -46 -70 -46c-53 0 -70 15 -89 33l-36 33c-43 -41 -107 -66 -184 -66c-181 0 -252 93 -252 208c0 80 42 145 119 183
c-41 46 -62 94 -62 150c0 108 77 187 207 187c151 0 213 -87 213 -181c0 -83 -49 -141 -132 -186zM244 278c-29 -19 -49 -44 -49 -80c0 -52 42 -77 91 -77c30 0 57 10 77 31zM281 441c54 27 73 52 73 87c0 38 -18 61 -61 61c-17 0 -53 -12 -53 -57c0 -40 17 -62 41 -91z" />
    <glyph glyph-name="grave" unicode="`" horiz-adv-x="500" 
d="M186 619l-52 69c-10 14 -19 23 -19 38c0 21 22 33 58 33c59 0 77 -19 92 -45l42 -74c4 -7 8 -16 8 -22c0 -23 -17 -37 -53 -37c-39 0 -57 13 -76 38z" />
    <glyph glyph-name="acute" unicode="&#xb4;" horiz-adv-x="500" 
d="M350 688l-52 -69c-19 -25 -37 -38 -76 -38c-36 0 -53 14 -53 37c0 6 4 15 8 22l42 74c15 26 33 45 92 45c36 0 58 -12 58 -33c0 -15 -9 -24 -19 -38z" />
    <glyph glyph-name="circumflex" unicode="&#x2c6;" horiz-adv-x="500" 
d="M250 663l-35 -52c-13 -20 -37 -28 -63 -28c-33 0 -52 9 -52 31c0 4 0 11 6 20l51 80c14 22 22 36 62 36h62c40 0 48 -14 62 -36l51 -80c6 -9 6 -16 6 -20c0 -22 -19 -31 -52 -31c-26 0 -50 8 -63 28z" />
    <glyph glyph-name="caron" unicode="&#x2c7;" horiz-adv-x="500" 
d="M250 679l35 52c13 20 37 28 63 28c33 0 52 -9 52 -31c0 -4 0 -11 -6 -20l-51 -80c-14 -22 -22 -36 -62 -36h-62c-40 0 -48 14 -62 36l-51 80c-6 9 -6 16 -6 20c0 22 19 31 52 31c26 0 50 -8 63 -28z" />
    <glyph glyph-name="tilde" unicode="&#x2dc;" horiz-adv-x="500" 
d="M315 600c-42 0 -87 29 -112 29c-32 0 -24 -27 -62 -27c-24 0 -51 11 -51 45c0 55 53 90 94 90c45 0 87 -29 113 -29c32 0 24 28 62 28c26 0 51 -14 51 -46c0 -57 -53 -90 -95 -90z" />
    <glyph glyph-name="dieresis" unicode="&#xa8;" horiz-adv-x="500" 
d="M277 700c0 34 27 47 61 47s60 -13 60 -47v-57c0 -34 -26 -46 -60 -46s-61 12 -61 46v57zM102 700c0 34 26 47 60 47s61 -13 61 -47v-57c0 -34 -27 -46 -61 -46s-60 12 -60 46v57z" />
    <glyph glyph-name="macron" unicode="&#xaf;" horiz-adv-x="500" 
d="M137 617c-32 0 -44 23 -44 54s12 54 44 54h226c31 0 43 -23 43 -54s-12 -54 -43 -54h-226z" />
    <glyph glyph-name="macron" unicode="&#x2c9;" horiz-adv-x="500" 
d="M137 617c-32 0 -44 23 -44 54s12 54 44 54h226c31 0 43 -23 43 -54s-12 -54 -43 -54h-226z" />
    <glyph glyph-name="breve" unicode="&#x2d8;" horiz-adv-x="500" 
d="M250 594c-86 0 -152 56 -152 128c0 29 20 37 50 37c31 0 46 -8 52 -30c7 -24 27 -36 50 -36s43 12 50 36c6 22 21 30 52 30c30 0 50 -8 50 -37c0 -72 -66 -128 -152 -128z" />
    <glyph glyph-name="ring" unicode="&#x2da;" horiz-adv-x="500" 
d="M137 671c0 55 45 97 113 97s113 -42 113 -97s-45 -97 -113 -97s-113 42 -113 97zM250 703c-23 0 -34 -11 -34 -32s11 -32 34 -32c22 0 33 11 33 32s-11 32 -33 32z" />
    <glyph glyph-name="hungarumlaut" unicode="&#x2dd;" horiz-adv-x="500" 
d="M393 759c35 0 54 -18 54 -39c0 -8 -2 -17 -8 -25l-58 -81c-15 -21 -31 -33 -63 -33c-31 0 -50 12 -50 30c0 4 1 8 3 13l44 92c12 26 26 43 78 43zM203 759c37 0 61 -14 61 -36c0 -5 -2 -11 -5 -17l-47 -94c-10 -19 -23 -31 -59 -31c-26 0 -45 12 -45 30c0 2 0 5 1 7
l22 100c6 29 32 41 72 41z" />
    <glyph glyph-name="dotaccent" unicode="&#x2d9;" horiz-adv-x="500" 
d="M187 700c0 34 29 47 63 47s62 -13 62 -47v-57c0 -34 -28 -46 -62 -46s-63 12 -63 46v57z" />
    <glyph glyph-name="cedilla" unicode="&#xb8;" horiz-adv-x="500" 
d="M199 0h126c19 -23 27 -59 27 -85c0 -69 -55 -120 -133 -120c-55 0 -96 16 -120 39c-11 11 -15 21 -15 36c0 26 22 52 48 52c12 0 17 -3 28 -10c10 -7 21 -9 30 -9c21 0 33 10 33 36c0 20 -10 41 -24 61z" />
    <glyph glyph-name="ogonek" unicode="&#x2db;" horiz-adv-x="500" 
d="M194 0h138c-36 -20 -58 -46 -58 -70c0 -18 10 -27 27 -27c21 0 27 13 48 15c31 0 44 -29 44 -54c0 -52 -70 -72 -124 -72c-68 0 -125 34 -125 106c0 38 18 81 50 102z" />
    <glyph glyph-name="comma" unicode="," horiz-adv-x="241" 
d="M137 172c42 0 74 -12 74 -49c0 -8 -2 -16 -5 -25l-71 -192c-12 -33 -35 -46 -87 -46c-30 0 -51 17 -51 42c0 3 0 7 1 10l45 188c12 53 40 72 94 72z" />
    <glyph glyph-name="semicolon" unicode=";" horiz-adv-x="241" 
d="M137 172c42 0 74 -12 74 -49c0 -8 -2 -16 -5 -25l-71 -192c-12 -33 -35 -46 -87 -46c-30 0 -51 17 -51 42c0 3 0 7 1 10l45 188c12 53 40 72 94 72zM122 362c-47 0 -83 17 -83 62v61c0 47 37 64 83 64c45 0 80 -17 80 -64v-61c0 -45 -35 -62 -80 -62z" />
    <glyph glyph-name="colon" unicode=":" horiz-adv-x="241" 
d="M122 -14c-47 0 -83 16 -83 62v62c0 46 36 63 83 63c45 0 80 -17 80 -63v-62c0 -46 -35 -62 -80 -62zM122 362c-47 0 -83 17 -83 62v61c0 47 37 64 83 64c45 0 80 -17 80 -64v-61c0 -45 -35 -62 -80 -62z" />
    <glyph glyph-name="period" unicode="." horiz-adv-x="241" 
d="M122 -14c-47 0 -83 16 -83 62v62c0 46 36 63 83 63c45 0 80 -17 80 -63v-62c0 -46 -35 -62 -80 -62z" />
    <glyph glyph-name="ellipsis" unicode="&#x2026;" horiz-adv-x="786" 
d="M122 -14c-47 0 -83 16 -83 62v62c0 46 36 63 83 63c45 0 80 -17 80 -63v-62c0 -46 -35 -62 -80 -62zM393 -14c-46 0 -82 16 -82 62v62c0 46 37 63 82 63s81 -17 81 -63v-62c0 -45 -35 -62 -81 -62zM667 -14c-46 0 -83 16 -83 62v62c0 46 37 63 83 63c45 0 80 -17 80 -63
v-62c0 -45 -34 -62 -80 -62z" />
    <glyph glyph-name="hyphen" unicode="-" horiz-adv-x="405" 
d="M101 265c-39 0 -54 30 -54 67c0 38 15 68 54 68h205c38 0 52 -30 52 -68c0 -37 -14 -67 -52 -67h-205z" />
    <glyph glyph-name="hyphen" unicode="&#xad;" horiz-adv-x="405" 
d="M101 265c-39 0 -54 30 -54 67c0 38 15 68 54 68h205c38 0 52 -30 52 -68c0 -37 -14 -67 -52 -67h-205z" />
    <glyph glyph-name="exclam" unicode="!" horiz-adv-x="310" 
d="M155 -13c-46 0 -83 16 -83 62v61c0 46 37 63 83 63c45 0 80 -17 80 -63v-61c0 -46 -35 -62 -80 -62zM154 209c-42 0 -75 16 -76 60l-9 368c-1 51 34 76 85 76c55 0 86 -23 86 -78c-3 -122 -10 -244 -10 -366c0 -44 -33 -60 -76 -60z" />
    <glyph glyph-name="exclamdown" unicode="&#xa1;" horiz-adv-x="310" 
d="M156 550c45 0 80 -16 80 -62v-62c0 -46 -35 -63 -80 -63c-46 0 -83 17 -83 63v62c0 46 37 62 83 62zM155 327c43 0 75 -16 76 -60l7 -366c2 -55 -31 -78 -86 -78c-51 0 -86 21 -85 72l12 372c1 44 34 60 76 60z" />
    <glyph glyph-name="question" unicode="?" horiz-adv-x="474" 
d="M370 355c-27 -27 -61 -55 -65 -87c-4 -30 -15 -59 -75 -59c-48 0 -78 19 -78 60c0 74 29 104 96 166c25 23 44 43 44 77c0 29 -16 55 -56 55c-65 0 -52 -75 -123 -75c-49 0 -91 22 -91 62c0 4 1 9 1 15c20 86 91 145 222 145c133 0 212 -79 212 -186
c0 -78 -38 -126 -87 -173zM226 -14c-46 0 -82 16 -82 62v62c0 46 36 63 82 63c45 0 81 -17 81 -63v-62c0 -46 -36 -62 -81 -62z" />
    <glyph glyph-name="questiondown" unicode="&#xbf;" horiz-adv-x="474" 
d="M105 180c27 27 62 55 66 87c4 30 13 59 73 59c48 0 79 -19 79 -60c0 -74 -29 -104 -96 -166c-25 -23 -44 -47 -44 -81c0 -29 17 -50 57 -50c75 0 37 74 122 74c49 0 91 -22 91 -62c0 -4 -1 -9 -1 -15c-20 -86 -91 -145 -222 -145c-133 0 -212 79 -212 186
c0 78 38 126 87 173zM249 550c46 0 82 -16 82 -62v-61c0 -46 -36 -63 -82 -63c-45 0 -81 17 -81 63v61c0 46 36 62 81 62z" />
    <glyph glyph-name="quoteleft" unicode="&#x2018;" horiz-adv-x="241" 
d="M183 521c-9 -48 -44 -62 -91 -62c-27 0 -62 10 -62 38c0 6 1 14 4 22l51 155c8 25 30 40 68 40c23 0 58 -6 58 -35c0 -2 -1 -5 -1 -7z" />
    <glyph glyph-name="quoteright" unicode="&#x2019;" horiz-adv-x="241" 
d="M58 652c9 48 44 62 91 62c27 0 62 -10 62 -38c0 -6 -1 -14 -4 -22l-51 -155c-8 -25 -30 -40 -68 -40c-23 0 -58 6 -58 35c0 2 1 5 1 7z" />
    <glyph glyph-name="quotedblleft" unicode="&#x201c;" horiz-adv-x="459" 
d="M168 714c29 0 54 -13 54 -43c0 -7 -1 -14 -4 -23l-39 -124c-11 -34 -22 -73 -84 -73c-51 0 -69 21 -69 50c0 10 4 20 8 29l54 122c18 41 36 62 80 62zM430 651l-26 -146c-7 -40 -34 -54 -82 -54c-49 0 -68 20 -68 43c0 3 1 13 4 22l43 137c12 37 30 61 77 61
c33 0 54 -13 54 -46c0 -5 -1 -11 -2 -17z" />
    <glyph glyph-name="quotedblright" unicode="&#x201d;" horiz-adv-x="459" 
d="M290 451c-29 0 -54 13 -54 43c0 7 1 14 4 23l39 124c11 34 22 73 84 73c51 0 69 -21 69 -50c0 -10 -4 -20 -8 -29l-54 -122c-18 -41 -36 -62 -80 -62zM80 451c-33 0 -54 13 -54 46c0 5 1 11 2 17l26 146c7 40 34 54 82 54c49 0 68 -20 68 -43c0 -3 -1 -13 -4 -22
l-43 -137c-12 -37 -30 -61 -77 -61z" />
    <glyph glyph-name="quotesinglbase" unicode="&#x201a;" horiz-adv-x="241" 
d="M58 30c9 48 44 57 91 57c27 0 62 -10 62 -38c0 -6 -1 -14 -4 -22l-51 -155c-8 -25 -26 -40 -64 -40c-25 0 -62 6 -62 36c0 2 0 7 1 11z" />
    <glyph glyph-name="quotedblbase" unicode="&#x201e;" horiz-adv-x="459" 
d="M290 -169c-29 0 -54 13 -54 43c0 7 1 7 4 16l39 124c11 34 22 73 84 73c51 0 69 -21 69 -50c0 -10 -4 -20 -8 -29l-54 -122c-18 -41 -36 -55 -80 -55zM28 -106l26 139c7 40 34 54 82 54c49 0 68 -20 68 -43c0 -3 -1 -13 -4 -22l-43 -137c-12 -37 -30 -54 -77 -54
c-33 0 -54 13 -54 46c0 5 1 11 2 17z" />
    <glyph glyph-name="guilsinglleft" unicode="&#x2039;" horiz-adv-x="351" 
d="M306 483l-122 -185l122 -186c5 -7 7 -16 7 -23c0 -26 -21 -42 -57 -42c-49 0 -76 16 -105 56l-118 163c-6 8 -11 20 -11 32c0 11 5 23 11 31l118 163c29 40 56 56 105 56c36 0 57 -16 57 -42c0 -7 -2 -16 -7 -23z" />
    <glyph glyph-name="guilsinglright" unicode="&#x203a;" horiz-adv-x="351" 
d="M167 298l-122 185c-5 7 -7 16 -7 23c0 26 21 42 57 42c49 0 76 -16 105 -56l118 -163c6 -8 11 -20 11 -31c0 -12 -5 -24 -11 -32l-118 -163c-29 -40 -56 -56 -105 -56c-36 0 -57 16 -57 42c0 7 2 16 7 23z" />
    <glyph glyph-name="guillemotleft" unicode="&#xab;" horiz-adv-x="627" 
d="M306 483l-122 -185l122 -186c5 -7 7 -16 7 -23c0 -26 -21 -42 -57 -42c-49 0 -76 16 -105 56l-118 163c-6 8 -11 20 -11 32c0 11 5 23 11 31l118 163c29 40 56 56 105 56c36 0 57 -16 57 -42c0 -7 -2 -16 -7 -23zM582 483l-122 -185l122 -186c5 -7 7 -16 7 -23
c0 -26 -21 -42 -57 -42c-49 0 -76 16 -105 56l-118 163c-6 8 -11 20 -11 32c0 11 5 23 11 31l118 163c29 40 56 56 105 56c36 0 57 -16 57 -42c0 -7 -2 -16 -7 -23z" />
    <glyph glyph-name="guillemotright" unicode="&#xbb;" horiz-adv-x="627" 
d="M443 298l-122 185c-5 7 -7 16 -7 23c0 26 21 42 57 42c49 0 76 -16 105 -56l118 -163c6 -8 11 -20 11 -31c0 -12 -5 -24 -11 -32l-118 -163c-29 -40 -56 -56 -105 -56c-36 0 -57 16 -57 42c0 7 2 16 7 23zM167 298l-122 185c-5 7 -7 16 -7 23c0 26 21 42 57 42
c49 0 76 -16 105 -56l118 -163c6 -8 11 -20 11 -31c0 -12 -5 -24 -11 -32l-118 -163c-29 -40 -56 -56 -105 -56c-36 0 -57 16 -57 42c0 7 2 16 7 23z" />
    <glyph glyph-name="slash" unicode="/" horiz-adv-x="398" 
d="M79 -14c-35 0 -62 12 -62 39c0 10 4 23 8 34l214 592c16 45 35 62 79 62c36 0 63 -12 63 -40c0 -11 -5 -23 -9 -35l-215 -592c-16 -44 -34 -60 -78 -60z" />
    <glyph glyph-name="bar" unicode="|" horiz-adv-x="282" 
d="M69 707c0 41 32 56 72 56s72 -15 72 -56v-896c0 -40 -32 -55 -72 -55s-72 15 -72 55v896z" />
    <glyph glyph-name="endash" unicode="&#x2013;" horiz-adv-x="545" 
d="M101 265c-39 0 -54 30 -54 67c0 38 15 68 54 68h345c38 0 52 -30 52 -68c0 -37 -14 -67 -52 -67h-345z" />
    <glyph glyph-name="emdash" unicode="&#x2014;" horiz-adv-x="924" 
d="M101 265c-39 0 -54 30 -54 67c0 38 15 68 54 68h724c38 0 52 -30 52 -68c0 -37 -14 -67 -52 -67h-724z" />
    <glyph glyph-name="bullet" unicode="&#x2022;" horiz-adv-x="384" 
d="M42 333c0 83 66 150 150 150c83 0 150 -67 150 -150s-67 -150 -150 -150c-84 0 -150 67 -150 150z" />
    <glyph glyph-name="periodcentered" unicode="&#xb7;" horiz-adv-x="241" 
d="M122 240c-47 0 -83 16 -83 62v61c0 46 36 63 83 63c45 0 80 -17 80 -63v-61c0 -46 -35 -62 -80 -62z" />
    <glyph glyph-name="parenleft" unicode="(" horiz-adv-x="343" 
d="M22 257c0 193 67 347 137 445c25 36 51 60 102 60c40 0 56 -14 56 -37c0 -12 -5 -26 -13 -38c-78 -112 -139 -261 -139 -432s61 -320 139 -432c8 -12 13 -26 13 -38c0 -23 -16 -37 -56 -37c-51 0 -77 24 -103 60c-70 98 -136 254 -136 449z" />
    <glyph glyph-name="parenright" unicode=")" horiz-adv-x="343" 
d="M321 256c0 -195 -66 -350 -136 -448c-26 -36 -52 -60 -103 -60c-40 0 -56 14 -56 37c0 12 5 26 13 38c78 112 139 261 139 432s-61 320 -139 432c-8 12 -13 26 -13 38c0 23 16 37 56 37c51 0 77 -24 102 -60c70 -98 137 -253 137 -446z" />
    <glyph glyph-name="bracketleft" unicode="[" horiz-adv-x="320" 
d="M69 695c0 40 31 55 71 55h126c35 0 47 -27 47 -61c0 -33 -12 -60 -47 -60h-56v-738h56c35 0 47 -28 47 -61s-12 -60 -47 -60h-126c-40 0 -71 15 -71 54v871z" />
    <glyph glyph-name="bracketright" unicode="]" horiz-adv-x="320" 
d="M109 629h-56c-35 0 -47 27 -47 60c0 34 12 61 47 61h126c40 0 71 -15 71 -55v-871c0 -39 -31 -54 -71 -54h-126c-35 0 -47 27 -47 60s12 61 47 61h56v738z" />
    <glyph glyph-name="braceleft" unicode="{" horiz-adv-x="361" 
d="M164 260c48 -15 72 -57 72 -103v-232c0 -32 18 -43 43 -43c14 0 25 4 38 4c21 0 41 -16 41 -76c0 -48 -60 -52 -106 -52c-100 0 -158 56 -158 167v212c0 33 -19 49 -48 55c-46 9 -48 37 -48 73c0 37 12 55 55 66c27 6 41 22 41 51v221c0 109 61 160 158 160
c46 0 106 -5 106 -53c0 -57 -19 -75 -39 -75c-14 0 -25 4 -40 4c-24 0 -43 -10 -43 -42v-234c0 -46 -24 -88 -72 -103z" />
    <glyph glyph-name="braceright" unicode="}" horiz-adv-x="361" 
d="M196 260c-48 15 -72 57 -72 103v234c0 32 -19 42 -43 42c-15 0 -26 -4 -40 -4c-20 0 -39 18 -39 75c0 48 60 53 106 53c97 0 158 -51 158 -160v-221c0 -29 14 -45 41 -51c43 -11 55 -29 55 -66c0 -36 -2 -64 -48 -73c-29 -6 -48 -22 -48 -55v-212
c0 -111 -58 -167 -158 -167c-46 0 -106 4 -106 52c0 60 20 76 41 76c13 0 24 -4 38 -4c25 0 43 11 43 43v232c0 46 24 88 72 103z" />
    <glyph glyph-name="asterisk" unicode="*" horiz-adv-x="449" 
d="M225 315c-27 0 -48 11 -48 37l1 89l-84 -56c-6 -4 -13 -6 -18 -6c-24 0 -48 36 -48 60c0 11 6 21 18 29l80 46l-80 47c-12 7 -18 17 -18 28c0 24 24 61 48 61c5 0 12 -2 18 -6l84 -52l-1 84c0 27 21 37 48 37s49 -10 49 -37l-2 -84l84 52c7 4 13 6 18 6
c25 0 48 -37 48 -61c0 -11 -5 -21 -18 -28l-80 -47l80 -46c13 -8 18 -18 18 -29c0 -24 -23 -60 -48 -60c-5 0 -11 2 -18 6l-84 56l2 -89c0 -26 -22 -37 -49 -37z" />
    <glyph glyph-name="dagger" unicode="&#x2020;" horiz-adv-x="420" 
d="M49 505c-31 0 -42 24 -42 52s11 51 42 51h89v49c0 41 32 56 72 56s72 -15 72 -56v-49h90c30 0 41 -23 41 -51s-11 -52 -41 -52h-90v-207c0 -41 -32 -56 -72 -56s-72 15 -72 56v207h-89z" />
    <glyph glyph-name="daggerdbl" unicode="&#x2021;" horiz-adv-x="420" 
d="M49 505c-31 0 -42 24 -42 52s11 51 42 51h89v49c0 41 32 56 72 56s72 -15 72 -56v-49h90c30 0 41 -23 41 -51s-11 -52 -41 -52h-90v-59h70c30 0 41 -23 41 -51s-11 -52 -41 -52h-70v-45c0 -41 -32 -56 -72 -56s-72 15 -72 56v45h-69c-31 0 -42 24 -42 52s11 51 42 51h69
v59h-89z" />
    <glyph glyph-name="section" unicode="&#xa7;" horiz-adv-x="543" 
d="M517 254c0 -56 -18 -97 -49 -124c5 -13 9 -26 9 -40c0 -128 -90 -191 -228 -191c-91 0 -212 43 -212 116c0 38 23 79 55 79c17 0 22 -6 27 -10c45 -35 81 -53 124 -53c34 0 59 17 59 44c0 76 -276 94 -276 285c0 53 18 93 49 119c-6 14 -9 30 -9 47c0 121 92 188 218 188
c139 0 217 -82 217 -154c0 -31 -24 -67 -77 -67c-37 0 -60 5 -69 39c-9 33 -29 52 -64 52c-27 0 -56 -17 -56 -50c0 -96 282 -110 282 -280zM164 402c-8 -8 -11 -28 -11 -37c0 -62 119 -87 222 -159c6 8 9 23 9 33c0 62 -120 74 -220 163z" />
    <glyph glyph-name="paragraph" unicode="&#xb6;" horiz-adv-x="722" 
d="M461 564v-626c0 -38 -31 -53 -70 -53s-70 15 -70 53v285c-13 -3 -30 -4 -51 -4c-159 0 -245 75 -245 249c0 160 81 232 256 232h313c32 0 58 -13 58 -46v-716c0 -38 -31 -53 -70 -53s-70 15 -70 53v626h-51zM321 564h-40c-71 0 -99 -21 -99 -107c0 -84 40 -103 106 -103
c15 0 25 1 33 2v208z" />
    <glyph glyph-name="uni0410" unicode="&#x410;" horiz-adv-x="578" 
d="M176 129l-25 -92c-8 -28 -24 -51 -76 -51c-42 0 -73 15 -73 49c0 7 1 14 3 22l173 595c9 33 32 48 70 48h89c39 0 57 -15 69 -59l167 -580c2 -9 3 -15 3 -22c0 -37 -31 -53 -70 -53c-57 0 -83 24 -92 56l-25 87h-213zM355 262l-74 273l-71 -273h145z" />
    <glyph glyph-name="uni0411" unicode="&#x411;" horiz-adv-x="571" 
d="M148 0c-44 0 -79 17 -79 61v577c0 45 35 62 79 62h291c42 0 57 -31 57 -71c0 -42 -15 -72 -57 -72h-211v-111c16 4 40 6 66 6c153 0 246 -55 246 -218c0 -159 -73 -234 -256 -234h-136zM228 322v-190h56c70 0 99 22 99 101c0 74 -38 93 -106 93c-20 0 -39 -1 -49 -4z" />
    <glyph glyph-name="uni0412" unicode="&#x412;" horiz-adv-x="585" 
d="M228 287v-149h64c62 0 92 20 92 73c0 57 -28 76 -92 76h-64zM228 561v-142h63c50 0 80 18 80 74c0 64 -36 68 -85 68h-58zM69 638c0 45 35 62 79 62h143c138 0 245 -31 245 -178c0 -76 -36 -139 -103 -165c80 -18 124 -65 124 -156c0 -149 -95 -201 -262 -201h-147
c-44 0 -79 17 -79 61v577z" />
    <glyph glyph-name="uni0413" unicode="&#x413;" horiz-adv-x="490" 
d="M228 557v-511c0 -44 -36 -60 -80 -60s-79 16 -79 60v592c0 45 35 62 79 62h275c42 0 57 -31 57 -71c0 -42 -15 -72 -57 -72h-195z" />
    <glyph glyph-name="uni0414" unicode="&#x414;" horiz-adv-x="659" 
d="M13 90c0 33 20 53 51 53c46 94 51 214 51 335v160c0 45 35 62 79 62h307c44 0 78 -17 78 -62v-495c45 0 71 -20 70 -53l-6 -205c0 -39 -29 -53 -68 -53c-38 0 -66 14 -70 53l-13 115h-323l-12 -115c-4 -39 -32 -53 -70 -53c-39 0 -68 14 -68 53zM267 567v-91
c0 -165 -15 -263 -45 -333h198v424h-153z" />
    <glyph glyph-name="uni0415" unicode="&#x415;" horiz-adv-x="533" 
d="M228 557v-139h193c36 0 51 -32 51 -69c0 -36 -15 -66 -51 -66h-193v-140h215c40 0 55 -32 55 -71c0 -41 -14 -72 -55 -72h-293c-46 0 -81 16 -81 60v578c0 47 36 62 80 62h280c40 0 55 -33 55 -72c0 -40 -15 -71 -55 -71h-201z" />
    <glyph glyph-name="uni0416" unicode="&#x416;" horiz-adv-x="894" 
d="M368 283h-32c-71 0 -72 -31 -103 -132c-11 -36 -23 -72 -30 -91c-19 -50 -42 -74 -108 -74c-44 0 -75 17 -75 50c0 13 3 24 10 40c13 28 26 54 39 93l47 137c18 51 42 81 93 92l-174 238c-6 8 -10 16 -10 29c0 34 32 49 70 49c54 0 77 -25 96 -53l162 -241h15v233
c0 45 35 61 79 61s79 -16 79 -61v-233h15l162 241c19 28 42 53 96 53c38 0 70 -15 70 -49c0 -13 -4 -21 -10 -29l-174 -238c51 -11 75 -41 93 -92l47 -137c13 -39 26 -65 39 -93c7 -16 10 -27 10 -40c0 -33 -31 -50 -75 -50c-66 0 -89 24 -108 74c-7 19 -19 55 -30 91
c-31 101 -32 132 -103 132h-32v-237c0 -44 -35 -60 -79 -60s-79 16 -79 60v237z" />
    <glyph glyph-name="uni0417" unicode="&#x417;" horiz-adv-x="535" 
d="M399 367c79 -25 106 -87 106 -165c0 -140 -93 -216 -242 -216c-103 0 -232 47 -232 123c0 35 25 82 63 82c10 0 21 -3 32 -11c39 -29 85 -48 127 -48c48 0 85 19 85 73s-33 70 -81 70h-51c-41 0 -56 33 -56 73c0 36 15 70 56 70h43c39 0 69 28 69 78c0 37 -18 72 -66 72
c-45 0 -58 -26 -71 -50c-11 -20 -24 -38 -61 -38c-49 0 -91 19 -91 63c0 8 0 21 4 31c34 92 108 140 223 140c146 0 235 -75 235 -200c0 -57 -22 -114 -92 -147z" />
    <glyph glyph-name="uni0418" unicode="&#x418;" horiz-adv-x="690" 
d="M146 714c43 0 78 -17 78 -59v-369l196 338c29 50 55 90 123 90c43 0 83 -17 83 -59v-609c0 -43 -35 -60 -78 -60s-78 17 -78 60v379l-214 -381c-22 -39 -50 -58 -105 -58c-43 0 -82 17 -82 60v609c0 42 34 59 77 59z" />
    <glyph glyph-name="uni0419" unicode="&#x419;" horiz-adv-x="695" 
d="M146 714c-43 0 -77 -17 -77 -59v-609c0 -43 39 -60 82 -60c55 0 83 19 105 58l214 381v-379c0 -43 35 -60 78 -60s78 17 78 60v609c0 42 -40 59 -83 59c-68 0 -94 -40 -123 -90l-196 -338v369c0 42 -35 59 -78 59zM345 767c-86 0 -152 56 -152 128c0 29 20 37 50 37
c31 0 46 -8 52 -30c7 -24 27 -36 50 -36s43 12 50 36c6 22 21 30 52 30c30 0 50 -8 50 -37c0 -72 -66 -128 -152 -128z" />
    <glyph glyph-name="uni041A" unicode="&#x41a;" horiz-adv-x="596" 
d="M228 283v-237c0 -44 -36 -60 -80 -60s-79 16 -79 60v607c0 45 35 61 79 61s80 -16 80 -61v-233h15l162 241c19 28 42 53 96 53c38 0 70 -15 70 -49c0 -13 -4 -21 -10 -29l-174 -238c51 -11 75 -41 93 -92l47 -137c13 -39 26 -65 39 -93c7 -16 10 -27 10 -40
c0 -33 -31 -50 -75 -50c-66 0 -89 24 -108 74c-7 19 -19 55 -30 91c-31 101 -32 132 -103 132h-32z" />
    <glyph glyph-name="uni041B" unicode="&#x41b;" horiz-adv-x="641" 
d="M280 557l-15 -281c-7 -132 -18 -290 -191 -290c-58 0 -74 28 -74 72c0 50 20 68 52 72c41 5 50 65 54 145l18 363c2 45 35 62 79 62h290c44 0 79 -17 79 -62v-592c0 -44 -36 -60 -80 -60s-79 16 -79 60v511h-133z" />
    <glyph glyph-name="uni041C" unicode="&#x41c;" horiz-adv-x="849" 
d="M425 277l120 364c13 41 34 59 80 59h45c43 0 77 -17 81 -59l52 -595c4 -43 -31 -60 -74 -60c-44 0 -82 14 -85 60l-28 374l-106 -318c-13 -39 -35 -55 -86 -55c-52 0 -74 16 -87 55l-104 318l-29 -374c-4 -46 -41 -60 -84 -60c-44 0 -79 17 -75 60l53 595
c4 42 38 59 81 59h45c46 0 67 -18 80 -59z" />
    <glyph glyph-name="uni041D" unicode="&#x41d;" horiz-adv-x="675" 
d="M228 424h222v229c0 45 35 61 79 61s79 -16 79 -61v-607c0 -44 -35 -60 -79 -60s-79 16 -79 60v226h-222v-226c0 -44 -36 -60 -80 -60s-79 16 -79 60v607c0 45 35 61 79 61s80 -16 80 -61v-229z" />
    <glyph glyph-name="uni041E" unicode="&#x41e;" horiz-adv-x="623" 
d="M311 714c160 0 284 -96 284 -365c0 -268 -125 -363 -285 -363c-158 0 -282 95 -282 363c0 269 125 365 283 365zM311 568c-70 0 -124 -44 -124 -218c0 -173 54 -218 124 -218c71 0 116 45 116 218c0 174 -45 218 -116 218z" />
    <glyph glyph-name="uni041F" unicode="&#x41f;" horiz-adv-x="677" 
d="M228 557v-511c0 -44 -36 -60 -80 -60s-79 16 -79 60v592c0 45 35 62 79 62h381c44 0 79 -17 79 -62v-592c0 -44 -36 -60 -80 -60s-79 16 -79 60v511h-221z" />
    <glyph glyph-name="uni0420" unicode="&#x420;" horiz-adv-x="565" 
d="M228 224v-179c0 -43 -36 -59 -80 -59s-79 16 -79 60v592c0 45 35 62 79 62h128c183 0 256 -52 256 -232c0 -174 -86 -249 -246 -249c-26 0 -42 1 -58 5zM228 564v-206c11 -2 23 -4 41 -4c68 0 106 22 106 103c0 89 -34 107 -99 107h-48z" />
    <glyph glyph-name="uni0421" unicode="&#x421;" horiz-adv-x="567" 
d="M459 456c-42 0 -58 18 -70 48c-11 28 -25 63 -81 63c-85 0 -117 -59 -117 -212c0 -181 66 -223 155 -223c45 0 87 12 124 27c12 5 21 7 30 7c29 0 37 -26 37 -58c0 -48 -8 -71 -51 -89c-42 -18 -97 -33 -163 -33c-183 0 -295 106 -295 369c0 252 98 359 282 359
c129 0 231 -70 231 -198c0 -46 -36 -60 -82 -60z" />
    <glyph glyph-name="uni0422" unicode="&#x422;" horiz-adv-x="558" 
d="M200 557h-131c-43 0 -59 30 -59 72c0 40 16 71 59 71h422c42 0 57 -31 57 -71c0 -42 -15 -72 -57 -72h-132v-511c0 -44 -36 -60 -80 -60s-79 16 -79 60v511z" />
    <glyph glyph-name="uni0423" unicode="&#x423;" horiz-adv-x="562" 
d="M209 225l-200 413c-4 8 -4 15 -4 22c0 36 34 54 80 54c61 0 79 -26 95 -56l118 -258l101 258c12 31 29 56 86 56c46 0 72 -18 72 -54c0 -7 0 -14 -4 -22l-171 -427c-48 -119 -102 -225 -274 -225c-54 0 -66 27 -66 68c0 46 19 65 48 66c60 3 90 34 110 83z" />
    <glyph glyph-name="uni0424" unicode="&#x424;" horiz-adv-x="701" 
d="M284 666c0 35 32 48 67 48c34 0 68 -13 68 -48v-15c159 -14 269 -105 269 -303s-110 -288 -269 -302v-13c0 -34 -34 -47 -68 -47c-35 0 -67 13 -67 47v13c-161 13 -271 104 -271 302c0 199 110 290 271 304v14zM172 349c0 -120 48 -161 112 -177v354
c-64 -15 -112 -57 -112 -177zM529 349c0 119 -48 160 -110 177v-353c62 16 110 57 110 176z" />
    <glyph glyph-name="uni0425" unicode="&#x425;" horiz-adv-x="553" 
d="M282 484l94 174c15 28 31 56 93 56c39 0 69 -17 69 -53c0 -7 -1 -15 -6 -23l-163 -281l170 -295c4 -8 4 -16 4 -23c0 -36 -40 -53 -80 -53c-57 0 -79 26 -96 56l-97 175l-98 -175c-15 -28 -29 -56 -91 -56c-39 0 -71 17 -71 53c0 7 2 15 6 23l162 285l-160 291
c-4 8 -4 16 -4 23c0 36 40 53 80 53c57 0 79 -26 95 -56z" />
    <glyph glyph-name="uni0426" unicode="&#x426;" horiz-adv-x="688" 
d="M678 90l-6 -205c0 -39 -26 -53 -65 -53c-38 0 -63 14 -67 53l-13 115h-379c-44 0 -79 17 -79 62v592c0 44 35 60 79 60s80 -16 80 -60v-511h221v511c0 44 35 60 79 60s80 -16 80 -60v-511c39 0 71 -13 70 -53z" />
    <glyph glyph-name="uni0427" unicode="&#x427;" horiz-adv-x="646" 
d="M57 653c0 45 35 61 79 61s80 -16 80 -61v-150c0 -79 34 -117 103 -117c36 0 70 5 102 20v247c0 45 35 61 79 61s80 -16 80 -61v-607c0 -44 -36 -60 -80 -60s-79 16 -79 60v214c-30 -11 -72 -21 -111 -21c-187 0 -253 105 -253 260v154z" />
    <glyph glyph-name="uni0428" unicode="&#x428;" horiz-adv-x="954" 
d="M228 654v-511h169v511c0 44 35 60 79 60s80 -16 80 -60v-511h170v511c0 44 35 60 79 60s80 -16 80 -60v-592c0 -45 -35 -62 -79 -62h-658c-44 0 -79 17 -79 62v592c0 44 35 60 79 60s80 -16 80 -60z" />
    <glyph glyph-name="uni0429" unicode="&#x429;" horiz-adv-x="965" 
d="M955 90l-6 -205c0 -39 -26 -53 -65 -53c-38 0 -63 14 -67 53l-13 115h-656c-44 0 -79 17 -79 62v592c0 44 35 60 79 60s80 -16 80 -60v-511h169v511c0 44 35 60 79 60s80 -16 80 -60v-511h170v511c0 44 35 60 79 60s80 -16 80 -60v-511c39 0 71 -10 70 -53z" />
    <glyph glyph-name="uni042A" unicode="&#x42a;" horiz-adv-x="630" 
d="M135 557h-72c-43 0 -59 30 -59 72c0 40 16 71 59 71h151c44 0 80 -16 80 -61v-164c24 4 46 5 68 5c143 0 244 -69 244 -241c0 -160 -81 -239 -264 -239h-128c-44 0 -79 16 -79 60v497zM294 342v-210h49c70 0 107 25 107 110c0 83 -46 103 -114 103c-21 0 -31 -2 -42 -3z
" />
    <glyph glyph-name="uni042B" unicode="&#x42b;" horiz-adv-x="855" 
d="M627 653c0 45 35 61 79 61s80 -16 80 -61v-607c0 -44 -36 -60 -80 -60s-79 16 -79 60v607zM69 653c0 45 35 61 79 61s80 -16 80 -61v-178c24 4 46 5 68 5c143 0 244 -69 244 -241c0 -160 -81 -239 -264 -239h-128c-44 0 -79 16 -79 60v593zM228 342v-210h49
c70 0 107 25 107 110c0 83 -46 103 -114 103c-21 0 -31 -2 -42 -3z" />
    <glyph glyph-name="uni042C" unicode="&#x42c;" horiz-adv-x="564" 
d="M69 653c0 45 35 61 79 61s80 -16 80 -61v-178c24 4 46 5 68 5c143 0 244 -69 244 -241c0 -160 -81 -239 -264 -239h-128c-44 0 -79 16 -79 60v593zM228 342v-210h49c70 0 107 25 107 110c0 83 -46 103 -114 103c-21 0 -31 -2 -42 -3z" />
    <glyph glyph-name="uni042D" unicode="&#x42d;" horiz-adv-x="567" 
d="M108 456c-46 0 -82 14 -82 60c0 128 102 198 231 198c184 0 282 -107 282 -359c0 -263 -112 -369 -295 -369c-66 0 -121 15 -163 33c-43 18 -51 41 -51 89c0 32 8 58 37 58c9 0 18 -2 30 -7c37 -15 79 -27 124 -27c74 0 132 28 150 142h-194c-36 0 -51 30 -51 66
c0 37 15 69 51 69h198c-8 113 -42 158 -116 158c-56 0 -70 -35 -81 -63c-12 -30 -28 -48 -70 -48z" />
    <glyph glyph-name="uni042E" unicode="&#x42e;" horiz-adv-x="929" 
d="M69 653c0 45 35 61 79 61s80 -16 80 -61v-229h111c21 212 137 290 279 290c160 0 283 -96 283 -365c0 -268 -124 -363 -284 -363c-141 0 -255 77 -277 286h-112v-226c0 -44 -36 -60 -80 -60s-79 16 -79 60v607zM618 568c-70 0 -124 -44 -124 -218
c0 -173 54 -218 124 -218c71 0 115 45 115 218c0 174 -44 218 -115 218z" />
    <glyph glyph-name="uni042F" unicode="&#x42f;" horiz-adv-x="583" 
d="M355 259h-26c-62 0 -70 -30 -95 -106l-8 -24c-8 -28 -17 -54 -22 -69c-19 -50 -41 -74 -107 -74c-44 0 -76 17 -76 50c0 13 3 24 10 40c13 28 23 54 36 93c39 111 57 134 99 150c-59 15 -127 54 -127 165c0 167 109 216 261 216h135c44 0 79 -17 79 -62v-592
c0 -44 -35 -60 -79 -60s-80 16 -80 60v213zM355 393v171h-55c-68 0 -98 -22 -98 -88c0 -62 37 -83 99 -83h54z" />
    <glyph glyph-name="uni0403" unicode="&#x403;" horiz-adv-x="490" 
d="M389 852l-52 -69c-19 -25 -37 -38 -76 -38c-36 0 -53 14 -53 37c0 6 4 15 8 22l42 74c15 26 33 45 92 45c36 0 58 -12 58 -33c0 -15 -9 -24 -19 -38zM228 557v-511c0 -44 -36 -60 -80 -60s-79 16 -79 60v592c0 45 35 62 79 62h275c42 0 57 -31 57 -71
c0 -42 -15 -72 -57 -72h-195z" />
    <glyph glyph-name="uni0490" unicode="&#x490;" horiz-adv-x="521" 
d="M499 801v-190c0 -40 -31 -54 -70 -54h-201v-511c0 -44 -36 -60 -80 -60s-79 16 -79 60v592c0 45 35 62 79 62h203l12 101c5 39 31 53 69 53c39 0 67 -14 67 -53z" />
    <glyph glyph-name="uni0402" unicode="&#x402;" horiz-adv-x="743" 
d="M357 568v-139c35 13 68 25 133 25c159 0 213 -79 213 -250v-26c0 -136 -35 -211 -113 -269c-15 -12 -31 -16 -46 -16c-23 0 -42 13 -53 25c-13 14 -21 28 -21 43c0 17 7 33 19 46c37 38 55 87 55 170v19c0 79 -23 114 -90 114c-36 0 -65 -7 -97 -24v-240
c0 -44 -36 -60 -80 -60s-79 16 -79 60v522h-135c-39 0 -53 28 -53 66c0 37 14 66 53 66h463c39 0 53 -29 53 -66c0 -38 -14 -66 -53 -66h-169z" />
    <glyph glyph-name="uni0404" unicode="&#x404;" horiz-adv-x="567" 
d="M459 456c-42 0 -58 18 -70 48c-11 28 -25 63 -81 63c-74 0 -108 -45 -116 -158h198c36 0 51 -32 51 -69c0 -36 -15 -66 -51 -66h-194c18 -114 76 -142 150 -142c45 0 87 12 124 27c12 5 21 7 30 7c29 0 37 -26 37 -58c0 -48 -8 -71 -51 -89c-42 -18 -97 -33 -163 -33
c-183 0 -295 106 -295 369c0 252 98 359 282 359c129 0 231 -70 231 -198c0 -46 -36 -60 -82 -60z" />
    <glyph glyph-name="uni0405" unicode="&#x405;" horiz-adv-x="542" 
d="M267 714c122 0 201 -55 227 -159c2 -6 2 -12 2 -18c0 -42 -41 -66 -83 -66c-49 0 -63 20 -72 47c-9 28 -30 50 -71 50c-35 0 -73 -10 -73 -56c0 -116 304 -112 304 -318c0 -132 -85 -208 -239 -208c-100 0 -224 50 -224 119c0 45 23 85 60 85c8 0 21 -2 30 -9
c42 -32 89 -49 136 -49c44 0 75 12 75 50c0 102 -304 93 -304 321c0 134 101 211 232 211z" />
    <glyph glyph-name="uni0400" unicode="&#x400;" horiz-adv-x="526" 
d="M228 557v-139h193c36 0 51 -32 51 -69c0 -36 -15 -66 -51 -66h-193v-140h215c40 0 55 -32 55 -71c0 -41 -14 -72 -55 -72h-293c-46 0 -81 16 -81 60v578c0 47 36 62 80 62h280c40 0 55 -33 55 -72c0 -40 -15 -71 -55 -71h-201zM199 781l-52 69c-10 14 -19 23 -19 38
c0 21 22 33 58 33c59 0 77 -19 92 -45l42 -74c4 -7 8 -16 8 -22c0 -23 -17 -37 -53 -37c-39 0 -57 13 -76 38z" />
    <glyph glyph-name="uni0401" unicode="&#x401;" horiz-adv-x="526" 
d="M228 557v-139h193c36 0 51 -32 51 -69c0 -36 -15 -66 -51 -66h-193v-140h215c40 0 55 -32 55 -71c0 -41 -14 -72 -55 -72h-293c-46 0 -81 16 -81 60v578c0 47 36 62 80 62h280c40 0 55 -33 55 -72c0 -40 -15 -71 -55 -71h-201zM297 861c0 34 27 47 61 47s60 -13 60 -47
v-57c0 -34 -26 -46 -60 -46s-61 12 -61 46v57zM122 861c0 34 26 47 60 47s61 -13 61 -47v-57c0 -34 -27 -46 -61 -46s-60 12 -60 46v57z" />
    <glyph glyph-name="uni0406" unicode="&#x406;" horiz-adv-x="297" 
d="M69 653c0 45 35 61 79 61s80 -16 80 -61v-607c0 -44 -36 -60 -80 -60s-79 16 -79 60v607z" />
    <glyph glyph-name="uni0407" unicode="&#x407;" horiz-adv-x="297" 
d="M69 653c0 45 35 61 79 61s80 -16 80 -61v-607c0 -44 -36 -60 -80 -60s-79 16 -79 60v607zM175 861c0 34 27 47 61 47s60 -13 60 -47v-57c0 -34 -26 -46 -60 -46s-61 12 -61 46v57zM0 861c0 34 26 47 60 47s61 -13 61 -47v-57c0 -34 -27 -46 -61 -46s-60 12 -60 46v57z
" />
    <glyph glyph-name="uni0408" unicode="&#x408;" horiz-adv-x="330" 
d="M46 136c10 0 20 -5 31 -5c20 0 33 13 33 47v467c0 50 32 69 79 69c42 0 80 -16 80 -62v-478c0 -119 -57 -188 -159 -188c-51 0 -110 4 -110 65c0 68 22 85 46 85z" />
    <glyph glyph-name="uni040D" unicode="&#x40d;" horiz-adv-x="695" 
d="M146 714c-43 0 -77 -17 -77 -59v-609c0 -43 39 -60 82 -60c55 0 83 19 105 58l214 381v-379c0 -43 35 -60 78 -60s78 17 78 60v609c0 42 -40 59 -83 59c-68 0 -94 -40 -123 -90l-196 -338v369c0 42 -35 59 -78 59zM271 781l-52 69c-10 14 -19 23 -19 38c0 21 22 33 58 33
c59 0 77 -19 92 -45l42 -74c4 -7 8 -16 8 -22c0 -23 -17 -37 -53 -37c-39 0 -57 13 -76 38z" />
    <glyph glyph-name="uni040C" unicode="&#x40c;" horiz-adv-x="596" 
d="M450 852l-52 -69c-19 -25 -37 -38 -76 -38c-36 0 -53 14 -53 37c0 6 4 15 8 22l42 74c15 26 33 45 92 45c36 0 58 -12 58 -33c0 -15 -9 -24 -19 -38zM228 283v-237c0 -44 -36 -60 -80 -60s-79 16 -79 60v607c0 45 35 61 79 61s80 -16 80 -61v-233h15l162 241
c19 28 42 53 96 53c38 0 70 -15 70 -49c0 -13 -4 -21 -10 -29l-174 -238c51 -11 75 -41 93 -92l47 -137c13 -39 26 -65 39 -93c7 -16 10 -27 10 -40c0 -33 -31 -50 -75 -50c-66 0 -89 24 -108 74c-7 19 -19 55 -30 91c-31 101 -32 132 -103 132h-32z" />
    <glyph glyph-name="uni0409" unicode="&#x409;" horiz-adv-x="908" 
d="M572 475c24 4 46 5 68 5c143 0 244 -69 244 -241c0 -160 -81 -239 -264 -239h-128c-44 0 -79 16 -79 60v497h-133l-15 -281c-7 -132 -18 -290 -191 -290c-58 0 -74 28 -74 72c0 50 20 68 52 72c41 5 50 65 54 145l18 363c2 45 35 62 79 62h290c44 0 79 -17 79 -62v-163z
M572 342v-210h49c70 0 107 25 107 110c0 83 -46 103 -114 103c-21 0 -31 -2 -42 -3z" />
    <glyph glyph-name="uni040A" unicode="&#x40a;" horiz-adv-x="914" 
d="M228 446h191v207c0 45 35 61 79 61s80 -16 80 -61v-178c24 4 46 5 68 5c143 0 244 -69 244 -241c0 -160 -81 -239 -264 -239h-128c-44 0 -79 16 -79 60v234h-191v-248c0 -44 -36 -60 -80 -60s-79 16 -79 60v607c0 45 35 61 79 61s80 -16 80 -61v-207zM578 342v-210h49
c70 0 107 25 107 110c0 83 -46 103 -114 103c-21 0 -31 -2 -42 -3z" />
    <glyph glyph-name="uni040B" unicode="&#x40b;" horiz-adv-x="751" 
d="M63 700h463c39 0 53 -29 53 -66c0 -38 -14 -66 -53 -66h-169v-139c35 13 68 25 133 25c159 0 213 -79 213 -250v-158c0 -44 -36 -60 -80 -60s-79 16 -79 60v150c0 79 -23 114 -90 114c-36 0 -65 -7 -97 -24v-240c0 -44 -36 -60 -80 -60s-79 16 -79 60v522h-135
c-39 0 -53 28 -53 66c0 37 14 66 53 66z" />
    <glyph glyph-name="uni040E" unicode="&#x40e;" horiz-adv-x="562" 
d="M289 755c-86 0 -152 56 -152 128c0 29 20 37 50 37c31 0 46 -8 52 -30c7 -24 27 -36 50 -36s43 12 50 36c6 22 21 30 52 30c30 0 50 -8 50 -37c0 -72 -66 -128 -152 -128zM209 225l-200 413c-4 8 -4 15 -4 22c0 36 34 54 80 54c61 0 79 -26 95 -56l118 -258l101 258
c12 31 29 56 86 56c46 0 72 -18 72 -54c0 -7 0 -14 -4 -22l-171 -427c-48 -119 -102 -225 -274 -225c-54 0 -66 27 -66 68c0 46 19 65 48 66c60 3 90 34 110 83z" />
    <glyph glyph-name="uni040F" unicode="&#x40f;" horiz-adv-x="677" 
d="M228 152h222v502c0 44 36 60 80 60s79 -16 79 -60v-592c0 -45 -35 -62 -79 -62h-115l-5 -115c-2 -39 -33 -53 -71 -53s-69 14 -71 53l-5 115h-115c-44 0 -79 17 -79 62v592c0 44 35 60 79 60s80 -16 80 -60v-502z" />
    <glyph glyph-name="uni0462" unicode="&#x462;" horiz-adv-x="630" 
d="M41 534c-30 0 -41 23 -41 51c0 29 11 52 41 52h105v16c0 45 35 61 79 61s80 -16 80 -61v-16h154c29 0 40 -23 40 -52c0 -28 -11 -51 -40 -51h-154v-59c24 4 46 5 68 5c143 0 244 -69 244 -241c0 -160 -81 -239 -264 -239h-128c-44 0 -79 16 -79 60v474h-105zM305 342
v-210h49c70 0 107 25 107 110c0 83 -46 103 -114 103c-21 0 -31 -2 -42 -3z" />
    <glyph glyph-name="uni0472" unicode="&#x472;" horiz-adv-x="623" 
d="M311 714c160 0 284 -96 284 -365c0 -268 -125 -363 -285 -363c-158 0 -282 95 -282 363c0 269 125 365 283 365zM311 132c61 0 103 33 113 152h-234c12 -119 61 -152 121 -152zM311 568c-60 0 -108 -32 -121 -147h234c-12 115 -53 147 -113 147z" />
    <glyph glyph-name="uni0474" unicode="&#x474;" horiz-adv-x="600" 
d="M312 195l121 462c8 31 23 57 84 57c38 0 65 -16 65 -52c0 -12 -5 -24 -8 -37l-159 -575c-10 -36 -39 -50 -74 -50h-63c-38 0 -69 16 -79 49l-172 576c-4 12 -7 24 -8 35c0 37 40 54 80 54c58 0 80 -26 88 -57z" />
    <glyph glyph-name="uni0430" unicode="&#x430;" horiz-adv-x="523" 
d="M288 329v42c0 34 -22 57 -53 57c-67 0 -37 -70 -107 -70c-38 0 -81 11 -81 57c0 5 1 10 2 16c16 68 94 119 196 119c144 0 204 -72 204 -176v-224c0 -20 11 -31 27 -31c17 0 29 10 42 10c15 0 25 -8 25 -45c0 -80 -56 -98 -122 -98c-41 0 -96 20 -104 75
c-37 -48 -95 -75 -153 -75c-85 0 -144 46 -144 151c0 127 110 192 268 192zM288 144v86c-61 -1 -116 -18 -116 -67c0 -30 18 -47 49 -47c26 0 45 11 67 28z" />
    <glyph glyph-name="uni0431" unicode="&#x431;" horiz-adv-x="542" 
d="M160 465c26 42 78 70 151 70c138 0 201 -87 201 -269c0 -192 -90 -280 -242 -280c-173 0 -243 134 -243 360c0 183 34 276 106 338c78 67 198 66 297 80c5 1 10 1 15 1c30 0 47 -18 47 -62c0 -36 -19 -60 -52 -65c-106 -15 -176 -5 -229 -51c-31 -28 -49 -68 -51 -122z
M270 413c-51 0 -78 -31 -78 -146c0 -118 27 -157 78 -157c52 0 78 39 78 156c0 115 -26 147 -78 147z" />
    <glyph glyph-name="uni0432" unicode="&#x432;" horiz-adv-x="553" 
d="M273 0h-132c-45 0 -80 13 -80 57v419c0 45 35 59 80 59h129c150 0 233 -23 233 -136c0 -68 -39 -106 -102 -125c75 -12 122 -45 122 -120c0 -111 -70 -154 -250 -154zM222 222v-121h51c57 0 74 21 74 62c0 42 -16 59 -74 59h-51zM222 435v-117h50c45 0 66 19 66 61
c0 48 -27 56 -71 56h-45z" />
    <glyph glyph-name="uni0433" unicode="&#x433;" horiz-adv-x="420" 
d="M222 400v-357c0 -44 -35 -57 -81 -57c-45 0 -80 13 -80 57v433c0 45 35 59 80 59h212c39 0 52 -29 52 -68c0 -38 -17 -67 -52 -67h-131z" />
    <glyph glyph-name="uni0434" unicode="&#x434;" horiz-adv-x="573" 
d="M79 -163c-38 0 -68 11 -68 48l-4 201c0 31 21 45 50 49c25 38 39 103 42 174l7 167c2 45 35 59 80 59h240c45 0 80 -14 80 -59v-341c32 -2 56 -15 56 -49l-4 -201c0 -37 -30 -48 -68 -48c-39 0 -61 11 -63 48l-5 115h-275l-5 -115c-2 -37 -24 -48 -63 -48zM242 412
l-5 -107c-3 -70 -14 -134 -32 -170h140v277h-103z" />
    <glyph glyph-name="uni0435" unicode="&#x435;" horiz-adv-x="499" 
d="M197 222c6 -84 44 -112 103 -112c66 0 111 40 130 40c17 0 30 -13 30 -50s-4 -62 -29 -75c-44 -23 -97 -39 -170 -39c-138 0 -232 79 -232 278c0 200 85 286 232 286c149 0 204 -95 204 -234v-39c0 -35 -11 -55 -47 -55h-221zM197 321h118c0 71 -13 100 -58 100
c-46 0 -58 -33 -60 -100z" />
    <glyph glyph-name="uni0436" unicode="&#x436;" horiz-adv-x="800" 
d="M400 -14c-45 0 -80 13 -80 57v165h-35c-43 0 -56 -16 -73 -75c-8 -25 -20 -71 -29 -93c-16 -41 -42 -54 -88 -54c-38 0 -81 11 -81 45c0 7 1 14 5 23c21 51 36 97 50 137c20 58 34 102 96 117l-119 167c-7 10 -10 20 -10 30c0 34 37 45 74 45c49 0 73 -16 95 -54l98 -168
h17v163c0 45 35 59 80 59s80 -14 80 -59v-163h17l98 168c22 38 46 54 95 54c37 0 74 -11 74 -45c0 -10 -3 -20 -10 -30l-119 -167c62 -15 76 -59 96 -117c14 -40 29 -86 50 -137c4 -9 5 -16 5 -23c0 -34 -43 -45 -81 -45c-46 0 -72 13 -88 54c-9 22 -21 68 -29 93
c-17 59 -30 75 -73 75h-35v-165c0 -44 -35 -57 -80 -57z" />
    <glyph glyph-name="uni0437" unicode="&#x437;" horiz-adv-x="487" 
d="M141 204c-32 0 -44 25 -44 55c0 31 12 58 44 58h94c42 0 53 30 53 59c0 38 -28 54 -56 54c-39 0 -55 -20 -63 -42c-8 -23 -20 -34 -51 -34c-32 0 -87 10 -87 54c0 4 0 7 1 11c15 81 77 131 204 131c122 0 214 -49 214 -160c0 -76 -42 -113 -96 -127
c57 -9 103 -46 103 -121c0 -111 -91 -156 -228 -156c-60 0 -137 13 -174 37c-21 13 -29 39 -29 64c0 37 9 60 38 60c6 0 14 -2 20 -5c31 -16 77 -36 131 -36c52 0 73 14 73 52c0 33 -20 46 -59 46h-88z" />
    <glyph glyph-name="uni0438" unicode="&#x438;" horiz-adv-x="590" 
d="M222 224l124 269c21 46 50 57 96 57c48 0 87 -13 87 -57v-448c0 -45 -35 -59 -80 -59c-46 0 -81 14 -81 59v243l-124 -245c-23 -45 -50 -57 -96 -57c-48 0 -87 13 -87 57v448c0 45 35 59 80 59c46 0 81 -14 81 -59v-267z" />
    <glyph glyph-name="uni0439" unicode="&#x439;" horiz-adv-x="590" 
d="M295 594c-86 0 -152 56 -152 128c0 29 20 37 50 37c31 0 46 -8 52 -30c7 -24 27 -36 50 -36s43 12 50 36c6 22 21 30 52 30c30 0 50 -8 50 -37c0 -72 -66 -128 -152 -128zM222 224l124 269c21 46 50 57 96 57c48 0 87 -13 87 -57v-448c0 -45 -35 -59 -80 -59
c-46 0 -81 14 -81 59v243l-124 -245c-23 -45 -50 -57 -96 -57c-48 0 -87 13 -87 57v448c0 45 35 59 80 59c46 0 81 -14 81 -59v-267z" />
    <glyph glyph-name="uni043A" unicode="&#x43a;" horiz-adv-x="550" 
d="M142 -14c-45 0 -81 13 -81 57v448c0 45 36 59 81 59s80 -14 80 -59v-163h25l98 168c22 38 48 54 97 54c37 0 72 -11 72 -45c0 -10 -3 -20 -10 -30l-128 -167c62 -15 85 -59 105 -117c14 -40 29 -86 50 -137c4 -9 5 -16 5 -23c0 -34 -43 -45 -81 -45c-46 0 -72 13 -88 54
c-9 22 -21 68 -29 93c-17 59 -37 75 -80 75h-36v-165c0 -44 -35 -57 -80 -57z" />
    <glyph glyph-name="uni043B" unicode="&#x43b;" horiz-adv-x="578" 
d="M436 -14c-45 0 -80 13 -80 57v357h-111l-10 -193c-8 -158 -73 -221 -173 -221c-46 0 -62 28 -62 70c0 39 16 62 46 68c31 6 42 35 45 103l10 249c2 45 35 59 80 59h256c45 0 80 -14 80 -59v-433c0 -44 -35 -57 -81 -57z" />
    <glyph glyph-name="uni043C" unicode="&#x43c;" horiz-adv-x="757" 
d="M376 198l101 293c12 45 42 59 98 59c55 0 95 -14 99 -59l45 -448c0 -3 1 -6 1 -9c0 -37 -31 -48 -73 -48c-46 0 -74 13 -78 57l-27 295l-80 -240c-11 -41 -39 -57 -86 -57s-73 17 -86 57l-80 240l-27 -295c-4 -44 -32 -57 -78 -57c-42 0 -73 11 -73 48c0 3 1 6 1 9
l45 448c4 45 44 59 99 59c56 0 83 -15 98 -59z" />
    <glyph glyph-name="uni043D" unicode="&#x43d;" horiz-adv-x="581" 
d="M439 -14c-45 0 -80 13 -80 57v164h-137v-164c0 -44 -35 -57 -81 -57c-45 0 -80 13 -80 57v448c0 45 35 59 80 59c46 0 81 -14 81 -59v-149h137v149c0 45 35 59 80 59c46 0 81 -14 81 -59v-448c0 -44 -35 -57 -81 -57z" />
    <glyph glyph-name="uni043E" unicode="&#x43e;" horiz-adv-x="543" 
d="M272 550c158 0 241 -85 241 -284c0 -192 -90 -280 -241 -280c-153 0 -242 84 -242 281c0 196 87 283 242 283zM272 421c-52 0 -78 -35 -78 -154c0 -117 26 -156 78 -156s77 39 77 155c0 120 -25 155 -77 155z" />
    <glyph glyph-name="uni043F" unicode="&#x43f;" horiz-adv-x="581" 
d="M141 -14c-45 0 -80 13 -80 57v433c0 45 35 59 80 59h299c45 0 80 -14 80 -59v-433c0 -44 -35 -57 -81 -57c-45 0 -80 13 -80 57v357h-137v-357c0 -44 -35 -57 -81 -57z" />
    <glyph glyph-name="uni0440" unicode="&#x440;" horiz-adv-x="568" 
d="M141 -212c-45 0 -80 13 -80 57v655c0 39 31 50 69 50c37 0 70 -10 70 -50v-19c36 33 86 69 156 69c106 0 182 -57 182 -273c0 -214 -94 -291 -229 -291c-25 0 -62 6 -87 15v-156c0 -44 -35 -57 -81 -57zM222 391v-258c23 -11 43 -16 66 -16c45 0 80 29 80 160
c0 119 -35 130 -78 130c-25 0 -44 -6 -68 -16z" />
    <glyph glyph-name="uni0441" unicode="&#x441;" horiz-adv-x="482" 
d="M456 100c0 -37 -4 -63 -29 -76c-47 -24 -97 -38 -166 -38c-149 0 -232 79 -232 284c0 209 75 280 235 280c126 0 192 -71 192 -173c0 -34 -40 -47 -75 -47c-54 0 -61 24 -69 48c-7 22 -16 43 -50 43c-48 0 -66 -26 -66 -154c0 -119 39 -148 96 -148c74 0 103 32 131 32
c17 0 33 -15 33 -51z" />
    <glyph glyph-name="uni0442" unicode="&#x442;" horiz-adv-x="491" 
d="M246 -14c-46 0 -81 13 -81 57v357h-98c-35 0 -52 29 -52 67c0 39 13 68 52 68h357c39 0 52 -29 52 -68c0 -38 -17 -67 -52 -67h-98v-357c0 -44 -35 -57 -80 -57z" />
    <glyph glyph-name="uni0443" unicode="&#x443;" horiz-adv-x="501" 
d="M259 211l79 266c15 51 37 73 87 73c40 0 70 -16 70 -52c0 -6 -1 -13 -4 -21l-147 -436c-56 -165 -118 -253 -262 -253c-43 0 -126 13 -126 67c0 36 12 84 49 84c27 0 34 -14 68 -14c62 0 72 20 109 104l-164 432c-4 11 -7 22 -7 32c0 42 32 57 77 57c51 0 75 -24 91 -78z
" />
    <glyph glyph-name="uni0444" unicode="&#x444;" horiz-adv-x="759" 
d="M378 -212c-40 0 -71 12 -71 51v151c-178 16 -278 103 -278 277c0 173 98 261 278 279v150c0 40 31 53 71 53c43 0 73 -13 73 -53v-150c180 -18 278 -106 278 -279c0 -174 -100 -261 -278 -277v-151c0 -39 -30 -51 -73 -51zM307 426c-72 -13 -115 -55 -115 -159
s43 -146 115 -158v317zM566 267c0 104 -43 146 -115 159v-317c72 12 115 54 115 158z" />
    <glyph glyph-name="uni0445" unicode="&#x445;" horiz-adv-x="495" 
d="M253 374l61 116c23 43 46 60 89 60c40 0 69 -13 69 -51c0 -12 -2 -19 -6 -26l-122 -198l118 -211c3 -5 4 -17 4 -24c0 -41 -28 -54 -72 -54c-46 0 -71 17 -96 64l-60 110l-64 -122c-11 -21 -32 -52 -85 -52c-41 0 -68 17 -68 46c0 8 2 17 7 25l120 209l-114 203
c-3 5 -5 15 -5 26c0 41 32 55 76 55c46 0 64 -19 89 -65z" />
    <glyph glyph-name="uni0446" unicode="&#x446;" horiz-adv-x="587" 
d="M141 550c46 0 81 -13 81 -57v-361h137v361c0 44 35 57 80 57c46 0 81 -13 81 -57v-361c30 0 53 -17 53 -50l-4 -201c0 -37 -30 -48 -68 -48c-39 0 -61 11 -63 48l-6 119h-291c-45 0 -80 14 -80 59v434c0 44 35 57 80 57z" />
    <glyph glyph-name="uni0447" unicode="&#x447;" horiz-adv-x="567" 
d="M345 323v168c0 45 35 59 80 59c46 0 81 -14 81 -59v-448c0 -44 -35 -57 -81 -57c-45 0 -80 13 -80 57v148c-41 -19 -65 -28 -122 -28c-97 0 -176 48 -176 167v161c0 45 35 59 80 59c46 0 81 -14 81 -59v-126c0 -44 27 -60 66 -60c23 0 51 10 71 18z" />
    <glyph glyph-name="uni0448" unicode="&#x448;" horiz-adv-x="845" 
d="M222 132h120v361c0 44 35 57 80 57c46 0 81 -13 81 -57v-361h120v361c0 44 35 57 80 57c46 0 81 -13 81 -57v-434c0 -45 -35 -59 -80 -59h-563c-45 0 -80 14 -80 59v434c0 44 35 57 80 57c46 0 81 -13 81 -57v-361z" />
    <glyph glyph-name="uni0449" unicode="&#x449;" horiz-adv-x="851" 
d="M222 132h120v361c0 44 35 57 80 57c46 0 81 -13 81 -57v-361h120v361c0 44 35 57 80 57c46 0 81 -13 81 -57v-361c31 0 52 -18 52 -50l-4 -201c0 -37 -30 -48 -68 -48c-39 0 -61 11 -63 48l-6 119h-554c-45 0 -80 14 -80 59v434c0 44 35 57 80 57c46 0 81 -13 81 -57
v-361z" />
    <glyph glyph-name="uni044A" unicode="&#x44a;" horiz-adv-x="597" 
d="M295 478v-88c17 4 43 5 57 5c128 0 226 -46 226 -197c0 -158 -104 -198 -235 -198h-129c-45 0 -80 14 -80 59v341h-67c-35 0 -52 29 -52 67c0 39 13 68 52 68h147c46 0 81 -13 81 -57zM295 267v-149h48c54 0 77 22 77 75c0 52 -31 77 -85 77c-15 0 -27 -1 -40 -3z" />
    <glyph glyph-name="uni044B" unicode="&#x44b;" horiz-adv-x="799" 
d="M657 -14c-45 0 -80 13 -80 57v448c0 45 35 59 80 59c46 0 81 -14 81 -59v-448c0 -44 -35 -57 -81 -57zM141 550c46 0 81 -13 81 -57v-103c17 4 43 5 57 5c128 0 226 -46 226 -197c0 -158 -104 -198 -235 -198h-129c-45 0 -80 14 -80 59v434c0 44 35 57 80 57zM222 267
v-149h48c54 0 77 22 77 75c0 52 -31 77 -85 77c-15 0 -27 -1 -40 -3z" />
    <glyph glyph-name="uni044C" unicode="&#x44c;" horiz-adv-x="524" 
d="M141 550c46 0 81 -13 81 -57v-103c17 4 43 5 57 5c128 0 226 -46 226 -197c0 -158 -104 -198 -235 -198h-129c-45 0 -80 14 -80 59v434c0 44 35 57 80 57zM222 267v-149h48c54 0 77 22 77 75c0 52 -31 77 -85 77c-15 0 -27 -1 -40 -3z" />
    <glyph glyph-name="uni044D" unicode="&#x44d;" horiz-adv-x="482" 
d="M32 100c0 36 16 51 33 51c28 0 57 -34 131 -34c47 0 81 11 92 87h-167c-32 0 -43 25 -43 56c0 32 11 57 43 57h170c-4 85 -24 104 -65 104c-34 0 -42 -12 -51 -29c-11 -21 -20 -32 -62 -32c-33 0 -75 12 -75 49c0 83 60 141 186 141c160 0 235 -71 235 -280
c0 -205 -83 -284 -232 -284c-69 0 -119 14 -166 38c-25 13 -29 39 -29 76z" />
    <glyph glyph-name="uni044E" unicode="&#x44e;" horiz-adv-x="805" 
d="M141 -14c-45 0 -80 13 -80 57v448c0 45 35 59 80 59c46 0 81 -14 81 -59v-149h75c21 143 104 208 237 208c158 0 241 -85 241 -284c0 -192 -90 -280 -241 -280c-135 0 -220 66 -238 221h-74v-164c0 -44 -35 -57 -81 -57zM534 425c-52 0 -78 -39 -78 -158
c0 -117 26 -156 78 -156s77 39 77 155c0 120 -25 159 -77 159z" />
    <glyph glyph-name="uni044F" unicode="&#x44f;" horiz-adv-x="552" 
d="M330 192h-45c-41 0 -50 -32 -65 -82c-8 -25 -14 -46 -22 -67c-17 -44 -44 -57 -90 -57c-38 0 -81 11 -81 45c0 7 2 14 6 23c0 0 27 59 37 88c12 33 33 82 61 91c-42 17 -84 60 -84 136c0 136 102 166 226 166h138c45 0 80 -14 80 -59v-433c0 -44 -35 -57 -80 -57
c-46 0 -81 13 -81 57v149zM330 301v129h-52c-51 0 -72 -19 -72 -62c0 -42 26 -67 72 -67h52z" />
    <glyph glyph-name="uni0453" unicode="&#x453;" horiz-adv-x="420" 
d="M364 688l-52 -69c-19 -25 -37 -38 -76 -38c-36 0 -53 14 -53 37c0 6 4 15 8 22l42 74c15 26 33 45 92 45c36 0 58 -12 58 -33c0 -15 -9 -24 -19 -38zM222 400v-357c0 -44 -35 -57 -81 -57c-45 0 -80 13 -80 57v433c0 45 35 59 80 59h212c39 0 52 -29 52 -68
c0 -38 -17 -67 -52 -67h-131z" />
    <glyph glyph-name="uni0491" unicode="&#x491;" horiz-adv-x="440" 
d="M351 658c36 0 62 -10 62 -45v-162c0 -33 -31 -51 -60 -51h-131v-357c0 -44 -35 -57 -81 -57c-45 0 -80 13 -80 57v433c0 45 35 59 80 59h147l5 78c2 35 21 45 58 45z" />
    <glyph glyph-name="uni0452" unicode="&#x452;" horiz-adv-x="594" 
d="M89 603h-59c-22 0 -30 17 -30 38s8 39 30 39h59v10c0 45 35 59 80 59c46 0 81 -14 81 -59v-10h145c22 0 31 -18 31 -39s-9 -38 -31 -38h-145v-99c37 26 84 46 141 46c98 0 156 -51 156 -170v-196c0 -107 -33 -194 -104 -256c-19 -17 -39 -23 -56 -23c-24 0 -44 12 -57 27
c-11 13 -19 27 -19 43c0 15 7 31 24 50c35 40 51 91 51 156v166c0 44 -27 60 -66 60c-22 0 -50 -8 -70 -16v-348c0 -44 -35 -57 -81 -57c-45 0 -80 13 -80 57v560z" />
    <glyph glyph-name="uni0454" unicode="&#x454;" horiz-adv-x="482" 
d="M456 100c0 -37 -4 -63 -29 -76c-47 -24 -97 -38 -166 -38c-149 0 -232 79 -232 284c0 209 75 280 235 280c126 0 186 -58 186 -141c0 -37 -42 -49 -75 -49c-42 0 -51 11 -62 32c-9 17 -17 29 -51 29c-41 0 -61 -19 -65 -104h170c32 0 43 -25 43 -57
c0 -31 -11 -56 -43 -56h-167c11 -76 45 -87 92 -87c74 0 103 34 131 34c17 0 33 -15 33 -51z" />
    <glyph glyph-name="uni0455" unicode="&#x455;" horiz-adv-x="455" 
d="M234 550c77 0 188 -37 188 -139c0 -30 -26 -51 -75 -51c-24 0 -48 8 -56 31c-9 25 -23 40 -61 40c-27 0 -50 -13 -50 -40c0 -76 247 -82 247 -246c0 -97 -71 -159 -203 -159c-95 0 -202 33 -202 95c0 55 27 73 47 73c12 0 21 -4 28 -8c40 -24 83 -38 119 -38
c28 0 51 11 51 38c0 69 -235 70 -235 238c0 100 74 166 202 166z" />
    <glyph glyph-name="uni0450" unicode="&#x450;" horiz-adv-x="499" 
d="M197 222c6 -84 44 -112 103 -112c66 0 111 40 130 40c17 0 30 -13 30 -50s-4 -62 -29 -75c-44 -23 -97 -39 -170 -39c-138 0 -232 79 -232 278c0 200 85 286 232 286c149 0 204 -95 204 -234v-39c0 -35 -11 -55 -47 -55h-221zM197 321h118c0 71 -13 100 -58 100
c-46 0 -58 -33 -60 -100zM182 619l-52 69c-10 14 -19 23 -19 38c0 21 22 33 58 33c59 0 77 -19 92 -45l42 -74c4 -7 8 -16 8 -22c0 -23 -17 -37 -53 -37c-39 0 -57 13 -76 38z" />
    <glyph glyph-name="uni0451" unicode="&#x451;" horiz-adv-x="499" 
d="M197 222c6 -84 44 -112 103 -112c66 0 111 40 130 40c17 0 30 -13 30 -50s-4 -62 -29 -75c-44 -23 -97 -39 -170 -39c-138 0 -232 79 -232 278c0 200 85 286 232 286c149 0 204 -95 204 -234v-39c0 -35 -11 -55 -47 -55h-221zM197 321h118c0 71 -13 100 -58 100
c-46 0 -58 -33 -60 -100zM279 700c0 34 27 47 61 47s60 -13 60 -47v-57c0 -34 -26 -46 -60 -46s-61 12 -61 46v57zM104 700c0 34 26 47 60 47s61 -13 61 -47v-57c0 -34 -27 -46 -61 -46s-60 12 -60 46v57z" />
    <glyph glyph-name="uni0456" unicode="&#x456;" horiz-adv-x="283" 
d="M141 -14c-45 0 -80 13 -80 57v448c0 45 35 59 80 59c46 0 81 -14 81 -59v-448c0 -44 -35 -57 -81 -57zM141 584c-45 0 -80 14 -80 59v45c0 46 34 61 80 61s81 -15 81 -61v-45c0 -45 -36 -59 -81 -59z" />
    <glyph glyph-name="uni0457" unicode="&#x457;" horiz-adv-x="283" 
d="M170 700c0 34 27 47 61 47s60 -13 60 -47v-57c0 -34 -26 -46 -60 -46s-61 12 -61 46v57zM-5 700c0 34 26 47 60 47s61 -13 61 -47v-57c0 -34 -27 -46 -61 -46s-60 12 -60 46v57zM61 492c0 45 36 58 81 58s80 -13 80 -58v-449c0 -44 -35 -57 -80 -57s-81 13 -81 57v449z
" />
    <glyph glyph-name="uni0458" unicode="&#x458;" horiz-adv-x="283" 
d="M222 491v-536c0 -117 -69 -167 -159 -167c-45 0 -122 4 -122 75c0 38 5 71 37 71c12 0 28 -7 43 -7c21 0 40 16 40 50v514c0 45 35 59 80 59c46 0 81 -14 81 -59zM141 584c-45 0 -80 14 -80 59v45c0 46 34 61 80 61s81 -15 81 -61v-45c0 -45 -36 -59 -81 -59z" />
    <glyph glyph-name="uni045D" unicode="&#x45d;" horiz-adv-x="590" 
d="M222 224l124 269c21 46 50 57 96 57c48 0 87 -13 87 -57v-448c0 -45 -35 -59 -80 -59c-46 0 -81 14 -81 59v243l-124 -245c-23 -45 -50 -57 -96 -57c-48 0 -87 13 -87 57v448c0 45 35 59 80 59c46 0 81 -14 81 -59v-267zM214 619l-52 69c-10 14 -19 23 -19 38
c0 21 22 33 58 33c59 0 77 -19 92 -45l42 -74c4 -7 8 -16 8 -22c0 -23 -17 -37 -53 -37c-39 0 -57 13 -76 38z" />
    <glyph glyph-name="uni045C" unicode="&#x45c;" horiz-adv-x="550" 
d="M420 688l-52 -69c-19 -25 -37 -38 -76 -38c-36 0 -53 14 -53 37c0 6 4 15 8 22l42 74c15 26 33 45 92 45c36 0 58 -12 58 -33c0 -15 -9 -24 -19 -38zM142 -14c-45 0 -81 13 -81 57v448c0 45 36 59 81 59s80 -14 80 -59v-163h25l98 168c22 38 48 54 97 54
c37 0 72 -11 72 -45c0 -10 -3 -20 -10 -30l-128 -167c62 -15 85 -59 105 -117c14 -40 29 -86 50 -137c4 -9 5 -16 5 -23c0 -34 -43 -45 -81 -45c-46 0 -72 13 -88 54c-9 22 -21 68 -29 93c-17 59 -37 75 -80 75h-36v-165c0 -44 -35 -57 -80 -57z" />
    <glyph glyph-name="uni0459" unicode="&#x459;" horiz-adv-x="815" 
d="M352 59v341h-107l-10 -193c-8 -158 -73 -221 -173 -221c-46 0 -62 29 -62 71c0 39 16 61 46 67c31 6 42 35 45 103l10 249c2 45 35 59 80 59h252c45 0 80 -14 80 -59v-86c17 4 43 5 57 5c128 0 226 -46 226 -197c0 -158 -104 -198 -235 -198h-129c-45 0 -80 14 -80 59z
M513 267v-149h48c54 0 77 22 77 75c0 52 -31 77 -85 77c-15 0 -27 -1 -40 -3z" />
    <glyph glyph-name="uni045A" unicode="&#x45a;" horiz-adv-x="814" 
d="M431 549c46 0 81 -13 81 -57v-102c17 4 43 5 57 5c128 0 226 -46 226 -197c0 -158 -104 -198 -235 -198h-129c-45 0 -80 14 -80 59v149h-129v-165c0 -44 -35 -57 -81 -57c-45 0 -80 13 -80 57v448c0 45 35 59 80 59c46 0 81 -14 81 -59v-147h129v148c0 44 35 57 80 57z
M512 267v-149h48c54 0 77 22 77 75c0 52 -31 77 -85 77c-15 0 -27 -1 -40 -3z" />
    <glyph glyph-name="uni045B" unicode="&#x45b;" horiz-adv-x="599" 
d="M250 391v-348c0 -44 -35 -57 -81 -57c-45 0 -80 13 -80 57v560h-59c-22 0 -30 17 -30 38s8 39 30 39h59v10c0 45 35 59 80 59c46 0 81 -14 81 -59v-10h145c22 0 31 -18 31 -39s-9 -38 -31 -38h-145v-99c37 26 84 46 141 46c98 0 156 -51 156 -170v-337
c0 -44 -35 -57 -81 -57c-44 0 -80 13 -80 57v304c0 44 -27 60 -66 60c-22 0 -50 -8 -70 -16z" />
    <glyph glyph-name="uni045E" unicode="&#x45e;" horiz-adv-x="501" 
d="M259 211l79 266c15 51 37 73 87 73c40 0 70 -16 70 -52c0 -6 -1 -13 -4 -21l-147 -436c-56 -165 -118 -253 -262 -253c-43 0 -126 13 -126 67c0 36 12 84 49 84c27 0 34 -14 68 -14c62 0 72 20 109 104l-164 432c-4 11 -7 22 -7 32c0 42 32 57 77 57c51 0 75 -24 91 -78z
M248 594c-86 0 -152 56 -152 128c0 29 20 37 50 37c31 0 46 -8 52 -30c7 -24 27 -36 50 -36s43 12 50 36c6 22 21 30 52 30c30 0 50 -8 50 -37c0 -72 -66 -128 -152 -128z" />
    <glyph glyph-name="uni045F" unicode="&#x45f;" horiz-adv-x="581" 
d="M222 132h137v361c0 44 35 57 81 57c45 0 80 -13 80 -57v-434c0 -45 -35 -59 -80 -59h-80l-6 -119c-2 -37 -24 -48 -63 -48s-61 11 -63 48l-6 119h-81c-45 0 -80 14 -80 59v434c0 44 35 57 80 57c46 0 81 -13 81 -57v-361z" />
    <glyph glyph-name="uni0463" unicode="&#x463;" horiz-adv-x="622" 
d="M159 444h-108c-26 0 -36 21 -36 45c0 26 10 46 36 46h108v157c0 44 35 57 80 57c46 0 81 -13 81 -57v-157h138c26 0 35 -20 35 -46c0 -24 -9 -45 -35 -45h-138v-54c17 4 43 5 57 5c128 0 226 -46 226 -197c0 -158 -104 -198 -235 -198h-129c-45 0 -80 14 -80 59v385z
M320 267v-149h48c54 0 77 22 77 75c0 52 -31 77 -85 77c-15 0 -27 -1 -40 -3z" />
    <glyph glyph-name="uni0473" unicode="&#x473;" horiz-adv-x="543" 
d="M272 550c158 0 241 -85 241 -284c0 -192 -90 -280 -241 -280c-153 0 -242 84 -242 281c0 196 87 283 242 283zM195 318h151c-6 78 -31 103 -74 103c-44 0 -69 -25 -77 -103zM196 211c8 -74 33 -100 76 -100c42 0 67 26 74 100h-150z" />
    <glyph glyph-name="uni0475" unicode="&#x475;" horiz-adv-x="501" 
d="M489 482l-132 -434c-10 -34 -22 -48 -53 -48h-90c-39 0 -57 16 -67 47l-132 419c-3 11 -6 22 -7 31c0 38 38 52 75 52c54 0 84 -18 97 -67l80 -314l74 315c13 56 43 67 94 67c31 0 65 -13 65 -46c0 -6 0 -14 -4 -22z" />
    <glyph glyph-name="asciicircum" unicode="^" horiz-adv-x="532" 
d="M253 700h26c44 0 55 -13 74 -49l130 -243c5 -9 5 -20 5 -28c0 -23 -24 -38 -51 -38c-59 0 -74 20 -96 59l-75 134l-75 -134c-22 -39 -37 -59 -96 -59c-27 0 -51 15 -51 38c0 8 0 19 5 28l130 243c19 36 30 49 74 49z" />
    <glyph glyph-name="asciitilde" unicode="~" 
d="M346 253c-52 0 -116 34 -161 34c-36 0 -29 -40 -83 -40c-33 0 -67 19 -67 51c0 4 1 8 2 13c17 67 66 106 149 106c61 0 128 -35 159 -35c35 0 30 41 82 41c33 0 68 -21 68 -52c0 -72 -71 -118 -149 -118z" />
    <glyph glyph-name="brokenbar" unicode="&#xa6;" horiz-adv-x="282" 
d="M69 707c0 41 32 56 72 56s72 -15 72 -56v-310c0 -40 -32 -55 -72 -55s-72 15 -72 55v310zM69 121c0 41 32 56 72 56s72 -15 72 -56v-310c0 -40 -32 -55 -72 -55s-72 15 -72 55v310z" />
    <glyph glyph-name="backslash" unicode="\" horiz-adv-x="398" 
d="M316 -14c-44 0 -62 16 -78 60l-215 593c-4 12 -9 24 -9 35c0 28 27 40 63 40c44 0 63 -17 79 -62l214 -593c4 -11 8 -24 8 -34c0 -27 -27 -39 -62 -39z" />
    <glyph glyph-name="underscore" unicode="_" horiz-adv-x="552" 
d="M49 -149c-39 0 -54 30 -54 67s15 68 54 68h458c38 0 52 -31 52 -68s-14 -67 -52 -67h-458z" />
    <glyph glyph-name="quotesingle" unicode="'" horiz-adv-x="241" 
d="M51 661c0 39 30 53 69 53s69 -14 69 -53v-157c0 -39 -30 -54 -69 -54s-69 15 -69 54v157z" />
    <glyph glyph-name="quotedbl" unicode="&#x22;" horiz-adv-x="459" 
d="M269 661c0 39 30 53 69 53s69 -14 69 -53v-157c0 -39 -30 -54 -69 -54s-69 15 -69 54v157zM51 661c0 39 30 53 69 53s69 -14 69 -53v-157c0 -39 -30 -54 -69 -54s-69 15 -69 54v157z" />
    <glyph glyph-name="at" unicode="@" horiz-adv-x="772" 
d="M431 211v147c-13 7 -25 12 -46 12c-27 0 -60 -19 -60 -93c0 -76 26 -98 51 -98c23 0 41 12 55 32zM466 117c-28 -29 -65 -48 -107 -48c-73 0 -161 43 -161 207c0 165 110 204 184 204c47 0 98 -11 135 -32c23 -13 38 -29 38 -52v-178c0 -31 13 -44 40 -44
c38 0 55 54 55 124c0 155 -110 247 -263 247s-267 -99 -267 -272c0 -186 138 -282 303 -282c52 0 110 10 164 28c5 1 10 2 14 2c26 0 37 -25 37 -53c0 -26 -26 -37 -67 -47c-49 -12 -102 -19 -150 -19c-213 0 -394 125 -394 371c0 218 146 359 360 359
c216 0 362 -135 362 -334c0 -151 -67 -238 -176 -238c-47 0 -90 16 -107 57z" />
    <glyph glyph-name="copyright" unicode="&#xa9;" horiz-adv-x="755" 
d="M486 255c4 2 9 3 12 3c20 0 30 -27 30 -52c0 -53 -87 -74 -140 -74c-108 0 -188 69 -188 217c0 159 72 219 184 219c82 0 144 -56 144 -130c0 -25 -25 -35 -55 -35c-24 0 -37 6 -42 23c-8 25 -19 43 -49 43c-49 0 -71 -31 -71 -120c0 -86 36 -122 92 -122
c35 0 57 13 83 28zM31 350c0 201 154 364 346 364s346 -163 346 -364c0 -202 -154 -364 -346 -364s-346 162 -346 364zM96 350c0 -164 125 -296 281 -296c155 0 281 132 281 296c0 163 -126 295 -281 295c-156 0 -281 -132 -281 -295z" />
    <glyph glyph-name="registered" unicode="&#xae;" horiz-adv-x="527" 
d="M505 461c0 -140 -108 -253 -242 -253s-241 113 -241 253s107 253 241 253s242 -113 242 -253zM448 461c0 107 -82 196 -185 196s-185 -89 -185 -196s82 -195 185 -195s185 88 185 195zM245 414v-58c0 -24 -15 -33 -39 -33c-30 0 -41 12 -41 33v200c0 30 23 35 45 35h45
c82 0 120 -23 120 -86c0 -37 -18 -58 -42 -70l35 -67c3 -6 6 -13 6 -20c0 -16 -13 -25 -32 -25c-23 0 -38 9 -47 28l-30 63h-20zM245 531v-54c4 -1 11 -1 15 -1c21 0 32 10 32 30c0 18 -8 25 -31 25h-16z" />
    <glyph glyph-name="trademark" unicode="&#x2122;" horiz-adv-x="863" 
d="M337 653c0 -26 -10 -47 -37 -47h-76v-232c0 -29 -24 -43 -57 -43c-32 0 -56 15 -56 43v232h-74c-26 0 -36 21 -36 47c0 22 9 47 36 47h263c27 0 37 -21 37 -47zM601 373h-29c-36 0 -45 19 -54 48l-42 131l-18 -181c-3 -30 -29 -40 -63 -40c-29 0 -53 13 -53 37
c0 8 1 12 1 14l34 266c4 30 18 52 53 52h60c31 0 39 -17 46 -40l51 -161l50 161c7 23 15 40 46 40h60c35 0 49 -22 53 -52l34 -266c0 -2 1 -6 1 -14c0 -24 -24 -37 -53 -37c-34 0 -60 10 -63 40l-18 181l-42 -131c-9 -29 -18 -48 -54 -48z" />
    <glyph glyph-name="Euro" unicode="&#x20ac;" 
d="M398 284c0 -29 -12 -54 -42 -54h-118c12 -71 47 -98 108 -98c46 0 80 12 117 26c9 3 16 5 23 5c33 0 37 -44 37 -70c0 -39 -13 -57 -39 -70c-43 -22 -92 -37 -164 -37c-150 0 -223 72 -251 244h-38c-24 0 -33 19 -33 42c0 22 9 42 33 42h31c-1 10 -1 13 -1 19v29h-30
c-24 0 -33 19 -33 42c0 22 9 42 33 42h33c12 168 82 268 243 268c120 0 187 -50 214 -142c2 -5 3 -14 3 -19c0 -44 -32 -69 -80 -69c-33 0 -57 7 -71 40c-11 25 -32 43 -64 43c-47 0 -78 -41 -82 -121h170c19 0 27 -13 27 -30c0 -28 -12 -54 -42 -54h-158v-21
c0 -9 1 -17 2 -27h145c19 0 27 -13 27 -30z" />
    <glyph glyph-name="dollar" unicode="$" 
d="M266 -99c-35 0 -60 12 -60 46v71c-53 8 -180 56 -180 114c0 48 28 89 63 89c11 0 24 -4 35 -14c37 -33 85 -50 129 -50c36 0 59 9 59 41c0 72 -275 56 -275 259c0 110 66 176 169 192v69c0 33 25 46 60 46c34 0 59 -14 59 -46v-71c97 -15 157 -90 157 -160
c0 -41 -41 -57 -86 -57c-35 0 -57 15 -62 33c-10 34 -31 53 -67 53c-41 0 -61 -19 -61 -52c0 -90 290 -72 290 -251c0 -112 -68 -174 -171 -192v-74c0 -34 -26 -46 -59 -46z" />
    <glyph glyph-name="cent" unicode="&#xa2;" 
d="M270 -99c-35 0 -61 12 -61 46v114c-104 24 -166 108 -166 277c0 172 56 251 165 273v107c0 33 26 46 61 46c31 0 59 -12 59 -46v-104c91 -14 150 -73 150 -162c0 -37 -34 -54 -78 -54c-31 0 -53 7 -62 38c-9 30 -24 53 -56 53c-48 0 -73 -26 -73 -154
c0 -118 45 -146 106 -146c35 0 77 14 110 28c11 4 20 7 27 7c23 0 33 -22 33 -60c0 -43 -24 -66 -60 -82c-28 -12 -62 -23 -97 -26v-109c0 -34 -25 -46 -58 -46z" />
    <glyph glyph-name="sterling" unicode="&#xa3;" 
d="M459 341c0 -32 -12 -57 -45 -57h-157c2 -22 4 -39 4 -59c0 -32 -8 -59 -30 -82h229c47 0 63 -28 63 -71c0 -40 -15 -72 -55 -72h-357c-49 0 -85 15 -85 69c0 37 11 46 47 74c25 19 34 42 34 71c0 25 -2 42 -6 70h-58c-35 0 -45 25 -45 57c0 30 9 57 45 57h49
c-5 60 -6 95 -6 102c0 111 54 214 218 214c126 0 189 -53 210 -154c1 -6 1 -12 1 -18c0 -39 -40 -62 -90 -62c-36 0 -49 11 -53 36c-5 30 -30 52 -66 52c-50 0 -66 -30 -66 -77c0 -16 1 -29 7 -93h167c33 0 45 -24 45 -57z" />
    <glyph glyph-name="florin" unicode="&#x192;" 
d="M44 284c-34 0 -46 26 -46 58s12 57 46 57h42v76c0 120 43 239 220 239c128 0 192 -52 212 -154c1 -6 2 -12 2 -18c0 -41 -40 -62 -78 -62s-63 4 -71 35c-7 30 -24 53 -65 53c-55 0 -61 -42 -61 -90v-79h171c32 0 44 -25 44 -57s-12 -58 -44 -58h-171v-238
c0 -44 -36 -60 -80 -60s-79 16 -79 60v238h-42z" />
    <glyph glyph-name="yen" unicode="&#xa5;" 
d="M266 455l87 200c20 44 36 59 98 59c45 0 65 -18 65 -47c0 -6 0 -13 -3 -20l-121 -249h74c32 0 44 -24 44 -57c0 -29 -12 -57 -44 -57h-122v-229c0 -52 -29 -69 -79 -69c-55 0 -79 20 -79 69v229h-125c-35 0 -46 25 -46 57c0 31 11 57 46 57h76l-121 250c-4 8 -4 15 -4 21
c0 31 36 45 77 45c59 0 75 -23 96 -71z" />
    <glyph glyph-name="ordfeminine" unicode="&#xaa;" horiz-adv-x="414" 
d="M231 565v26c0 26 -14 36 -38 36c-23 0 -30 -11 -35 -24c-6 -17 -26 -24 -46 -24c-30 0 -56 14 -56 35c0 57 62 100 146 100c107 0 151 -47 151 -114v-153c0 -13 7 -20 18 -20c14 0 18 6 30 6s21 -9 21 -37c0 -56 -64 -62 -92 -62c-30 0 -69 15 -76 50
c-29 -32 -69 -50 -110 -50c-61 0 -108 30 -108 104c0 87 79 127 195 127zM231 442v54c-37 -1 -80 -6 -80 -41c0 -19 13 -30 34 -30c19 0 31 6 46 17z" />
    <glyph glyph-name="ordmasculine" unicode="&#xba;" horiz-adv-x="414" 
d="M206 714c117 0 179 -57 179 -192c0 -130 -66 -190 -179 -190c-112 0 -178 58 -178 191s64 191 178 191zM206 628c-35 0 -54 -27 -54 -105s19 -103 54 -103c36 0 55 25 55 102c0 79 -19 106 -55 106z" />
    <glyph glyph-name="numbersign" unicode="#" horiz-adv-x="629" 
d="M80 409c-29 0 -40 18 -40 44c0 41 22 79 62 79h58l22 129c6 38 36 52 73 52c33 0 60 -11 60 -41c0 -3 0 -7 -1 -11l-22 -129h109l22 129c6 38 37 52 74 52c33 0 59 -11 59 -40c0 -4 0 -8 -1 -12l-22 -129h59c27 0 38 -17 38 -42c0 -42 -21 -81 -60 -81h-59l-21 -119h59
c27 0 39 -18 39 -43c0 -41 -22 -80 -61 -80h-59l-23 -130c-7 -37 -35 -51 -72 -51c-34 0 -61 11 -61 41c0 3 0 6 1 10l23 130h-109l-23 -130c-7 -37 -37 -51 -73 -51c-34 0 -60 11 -60 41c0 3 0 6 1 10l23 130h-58c-29 0 -39 18 -39 44c0 41 21 79 61 79h57l22 119h-58z
M270 409l-22 -119h110l21 119h-109z" />
    <glyph glyph-name="zero" unicode="0" 
d="M267 714c155 0 248 -100 248 -363c0 -266 -99 -365 -254 -365c-147 0 -247 99 -247 363c0 255 101 365 253 365zM265 568c-62 0 -92 -67 -92 -218c0 -158 30 -218 92 -218c64 0 92 60 92 219c0 157 -28 217 -92 217z" />
    <glyph glyph-name="one" unicode="1" 
d="M520 77c0 -40 -15 -77 -55 -77h-361c-41 0 -56 37 -56 77c0 38 17 73 56 73h107v367l-70 -36c-17 -9 -32 -14 -44 -14c-28 0 -46 21 -46 61c0 62 23 81 47 93l123 62c21 11 38 17 82 17c43 0 67 -27 67 -74v-476h95c40 0 55 -34 55 -73z" />
    <glyph glyph-name="two" unicode="2" 
d="M509 77c0 -44 -16 -77 -59 -77h-368c-41 0 -56 30 -56 69c0 40 15 68 52 110l168 188c33 37 64 74 64 128c0 40 -22 72 -66 72c-42 0 -56 -24 -64 -47c-12 -36 -35 -47 -66 -47c-44 0 -92 11 -92 58c0 91 79 183 227 183c147 0 233 -74 233 -217
c0 -82 -43 -149 -110 -221l-114 -123h192c43 0 59 -34 59 -76z" />
    <glyph glyph-name="three" unicode="3" 
d="M394 367c79 -25 106 -87 106 -165c0 -140 -93 -216 -242 -216c-103 0 -232 47 -232 123c0 35 25 82 63 82c10 0 21 -3 32 -11c39 -29 85 -48 127 -48c48 0 85 19 85 73s-33 70 -81 70h-51c-41 0 -56 33 -56 73c0 36 15 70 56 70h43c39 0 69 28 69 78c0 37 -18 72 -66 72
c-45 0 -58 -26 -71 -50c-11 -20 -24 -38 -61 -38c-49 0 -91 19 -91 63c0 8 0 21 4 31c34 92 108 140 223 140c146 0 235 -75 235 -200c0 -57 -22 -114 -92 -147z" />
    <glyph glyph-name="four" unicode="4" 
d="M293 139h-237c-39 0 -54 33 -54 72c0 27 1 55 18 86l183 342c23 44 40 61 92 61h76c43 0 77 -17 77 -60v-362h33c38 0 53 -31 53 -69s-15 -70 -53 -70h-33v-94c0 -43 -34 -59 -77 -59c-44 0 -78 16 -78 59v94zM293 534l-137 -256h137v256z" />
    <glyph glyph-name="five" unicode="5" 
d="M477 622c0 -40 -15 -72 -55 -72h-213v-115c11 2 25 2 35 2c186 0 244 -94 244 -219c0 -145 -89 -232 -238 -232c-104 0 -220 44 -220 118c0 37 25 83 61 83c41 0 59 -55 140 -55c43 0 89 25 89 81s-38 83 -99 83c-37 0 -66 -10 -96 -10c-37 0 -67 18 -67 52v301
c0 49 40 61 87 61h277c40 0 55 -39 55 -78z" />
    <glyph glyph-name="six" unicode="6" 
d="M497 567c14 -57 -28 -86 -79 -86c-38 0 -60 9 -71 38c-12 32 -30 49 -67 49c-61 0 -82 -57 -82 -155c27 14 63 24 114 24c98 0 204 -55 204 -208c0 -162 -103 -243 -238 -243c-148 0 -250 99 -250 362c0 258 104 366 256 366c104 0 188 -44 213 -147zM196 278
c2 -89 21 -146 84 -146c45 0 71 34 71 90c0 50 -23 77 -72 77c-28 0 -63 -8 -83 -21z" />
    <glyph glyph-name="seven" unicode="7" 
d="M311 550h-238c-39 0 -54 35 -54 75c0 36 15 75 54 75h345c45 0 85 -16 85 -70c0 -39 -8 -60 -27 -101l-217 -478c-15 -33 -39 -65 -107 -65c-41 0 -79 14 -79 47c0 12 3 27 10 41z" />
    <glyph glyph-name="eight" unicode="8" 
d="M264 294c-61 0 -87 -30 -87 -84s34 -83 86 -83c54 0 88 29 88 83s-26 84 -87 84zM264 -14c-147 0 -253 85 -253 215c0 76 31 134 97 163c-46 29 -78 78 -78 145c0 134 90 205 234 205s234 -71 234 -205c0 -67 -32 -116 -78 -145c66 -29 97 -87 97 -163
c0 -130 -106 -215 -253 -215zM264 572c-49 0 -72 -25 -72 -79c0 -44 25 -79 72 -79s72 35 72 79c0 54 -23 79 -72 79z" />
    <glyph glyph-name="nine" unicode="9" 
d="M327 278c-34 -14 -52 -17 -97 -17c-119 0 -215 64 -215 216c0 147 94 237 240 237c167 0 247 -102 247 -364c0 -250 -111 -364 -260 -364c-65 0 -140 19 -191 62c-18 16 -29 32 -29 61c0 40 27 82 61 82c9 0 22 -6 33 -14c34 -27 75 -45 116 -45c69 0 94 49 95 146z
M333 420c-3 111 -23 148 -78 148c-48 0 -72 -36 -72 -86c0 -51 26 -81 73 -81c27 0 53 6 77 19z" />
    <glyph glyph-name="onesuperior" unicode="&#xb9;" horiz-adv-x="320" 
d="M107 575l-31 -15c-9 -4 -16 -8 -23 -8c-20 0 -33 14 -33 43c0 32 16 52 31 59l58 29c16 8 34 17 54 17h32c22 0 33 -11 33 -36v-240h41c27 0 38 -23 38 -51c0 -27 -11 -49 -38 -49h-210c-29 0 -40 22 -40 49c0 26 10 51 40 51h48v151z" />
    <glyph glyph-name="twosuperior" unicode="&#xb2;" horiz-adv-x="320" 
d="M173 423h94c28 0 38 -22 38 -50c0 -27 -11 -49 -38 -49h-209c-29 0 -40 22 -40 49c0 22 6 30 24 50l94 103c15 17 39 39 39 65c0 16 -10 30 -31 30c-17 0 -26 -9 -34 -19c-11 -15 -21 -22 -42 -22c-28 0 -52 14 -52 38c0 54 61 96 133 96c86 0 137 -41 137 -113
c0 -43 -19 -81 -55 -118z" />
    <glyph glyph-name="threesuperior" unicode="&#xb3;" horiz-adv-x="320" 
d="M238 527c46 -13 62 -50 62 -91c0 -79 -62 -115 -142 -115c-53 0 -132 21 -132 68c0 24 11 55 39 55c21 0 35 -32 81 -32c20 0 37 11 37 30c0 24 -12 33 -37 33h-26c-23 0 -32 18 -32 40s10 41 32 41h29c14 0 30 11 30 33c0 18 -9 32 -30 32c-40 0 -34 -40 -66 -40
c-31 0 -59 10 -59 37c0 63 69 96 129 96c86 0 137 -39 137 -109c0 -30 -15 -62 -52 -78z" />
    <glyph glyph-name="fraction" unicode="&#x2044;" horiz-adv-x="568" 
d="M536 650l-399 -628c-16 -24 -34 -36 -66 -36s-47 19 -47 37c0 7 2 18 7 26l399 628c16 24 34 36 66 36s47 -19 47 -37c0 -7 -2 -18 -7 -26z" />
    <glyph glyph-name="fraction" unicode="&#x2215;" horiz-adv-x="568" 
d="M536 650l-399 -628c-16 -24 -34 -36 -66 -36s-47 19 -47 37c0 7 2 18 7 26l399 628c16 24 34 36 66 36s47 -19 47 -37c0 -7 -2 -18 -7 -26z" />
    <glyph glyph-name="onequarter" unicode="&#xbc;" horiz-adv-x="806" 
d="M657 649l-399 -626c-14 -23 -34 -36 -66 -36s-48 19 -48 37c0 7 3 18 8 26l399 626c15 24 34 37 65 37c33 0 48 -20 48 -38c0 -7 -2 -17 -7 -26zM628 65h-136c-28 0 -36 25 -36 49c0 13 0 23 4 30l102 188c19 36 39 43 77 43h46c29 0 56 -13 56 -43v-177h15
c25 0 35 -21 35 -46c0 -23 -9 -44 -35 -44h-15v-33c0 -33 -25 -45 -56 -45c-30 0 -57 12 -57 45v33zM628 264l-62 -109h62v109zM107 575l-31 -15c-9 -4 -16 -8 -23 -8c-20 0 -33 14 -33 43c0 32 16 52 31 59l58 29c16 8 34 17 54 17h32c22 0 33 -11 33 -36v-240h41
c27 0 38 -23 38 -51c0 -27 -11 -49 -38 -49h-210c-29 0 -40 22 -40 49c0 26 10 51 40 51h48v151z" />
    <glyph glyph-name="onehalf" unicode="&#xbd;" horiz-adv-x="806" 
d="M107 575l-31 -15c-9 -4 -16 -8 -23 -8c-20 0 -33 14 -33 43c0 32 16 52 31 59l58 29c16 8 34 17 54 17h32c22 0 33 -11 33 -36v-240h41c27 0 38 -23 38 -51c0 -27 -11 -49 -38 -49h-210c-29 0 -40 22 -40 49c0 26 10 51 40 51h48v151zM657 649l-399 -626
c-15 -23 -34 -36 -66 -36s-48 19 -48 37c0 7 3 18 8 26l399 626c15 24 34 37 65 37c33 0 48 -20 48 -38c0 -7 -2 -17 -7 -26zM648 99h94c28 0 38 -22 38 -50c0 -27 -11 -49 -38 -49h-209c-29 0 -40 22 -40 49c0 22 6 30 24 50l94 103c15 17 39 39 39 65c0 16 -10 30 -31 30
c-17 0 -26 -9 -34 -19c-11 -15 -21 -22 -42 -22c-28 0 -52 14 -52 38c0 54 61 96 133 96c86 0 137 -41 137 -113c0 -43 -19 -81 -55 -118z" />
    <glyph glyph-name="threequarters" unicode="&#xbe;" horiz-adv-x="806" 
d="M657 649l-399 -626c-15 -23 -34 -36 -66 -36s-48 19 -48 37c0 7 3 18 8 26l399 626c15 24 34 37 65 37c33 0 48 -20 48 -38c0 -7 -2 -17 -7 -26zM492 65c-28 0 -36 25 -36 49c0 13 0 23 4 30l102 188c19 36 39 43 77 43h46c29 0 56 -13 56 -43v-177h15
c25 0 35 -21 35 -46c0 -23 -9 -44 -35 -44h-15v-33c0 -33 -25 -45 -56 -45c-30 0 -57 12 -57 45v33h-136zM628 264l-62 -109h62v109zM287 605c0 -30 -15 -62 -52 -78c46 -13 62 -50 62 -91c0 -79 -62 -115 -142 -115c-53 0 -132 21 -132 68c0 24 11 55 39 55
c21 0 35 -32 81 -32c20 0 37 11 37 30c0 24 -12 33 -37 33h-26c-23 0 -32 18 -32 40s10 41 32 41h29c14 0 30 11 30 33c0 18 -9 32 -30 32c-40 0 -34 -40 -66 -40c-31 0 -59 10 -59 37c0 63 69 96 129 96c86 0 137 -39 137 -109z" />
    <glyph glyph-name="percent" unicode="%" horiz-adv-x="794" 
d="M175 715c103 0 160 -60 160 -183c0 -122 -58 -185 -160 -185c-99 0 -158 61 -158 185c0 122 58 183 158 183zM176 614c-30 0 -44 -26 -44 -83c0 -56 14 -83 44 -83c29 0 44 27 44 83c0 57 -15 83 -44 83zM617 354c103 0 160 -61 160 -184c0 -121 -58 -184 -160 -184
c-99 0 -158 60 -158 184c0 123 58 184 158 184zM618 253c-30 0 -44 -27 -44 -83c0 -57 14 -83 44 -83c29 0 44 26 44 82c0 57 -15 84 -44 84zM649 650l-399 -627c-15 -24 -34 -36 -65 -36c-33 0 -48 19 -48 37c0 7 2 18 7 26l399 627c16 24 34 36 66 36s48 -19 48 -37
c0 -7 -3 -18 -8 -26z" />
    <glyph glyph-name="perthousand" unicode="&#x2030;" horiz-adv-x="1147" 
d="M970 354c103 0 159 -61 159 -184c0 -121 -57 -184 -159 -184c-100 0 -159 60 -159 184c0 123 58 184 159 184zM970 253c-29 0 -44 -27 -44 -83c0 -57 15 -83 44 -83c30 0 44 26 44 82c0 57 -14 84 -44 84zM175 715c103 0 160 -60 160 -183c0 -122 -58 -185 -160 -185
c-99 0 -158 61 -158 185c0 122 58 183 158 183zM176 614c-30 0 -44 -26 -44 -83c0 -56 14 -83 44 -83c29 0 44 27 44 83c0 57 -15 83 -44 83zM617 354c103 0 160 -61 160 -184c0 -121 -58 -184 -160 -184c-99 0 -158 60 -158 184c0 123 58 184 158 184zM618 253
c-30 0 -44 -27 -44 -83c0 -57 14 -83 44 -83c29 0 44 26 44 82c0 57 -15 84 -44 84zM649 650l-399 -627c-15 -24 -34 -36 -65 -36c-33 0 -48 19 -48 37c0 7 2 18 7 26l399 627c16 24 34 36 66 36s48 -19 48 -37c0 -7 -3 -18 -8 -26z" />
    <glyph glyph-name="plus" unicode="+" 
d="M197 400v97c0 38 30 52 68 52c37 0 67 -14 67 -52v-97h107c37 0 52 -30 52 -68c0 -37 -15 -67 -52 -67h-107v-103c0 -39 -30 -53 -67 -53c-38 0 -68 14 -68 53v103h-105c-40 0 -54 30 -54 67c0 38 14 68 54 68h105z" />
    <glyph glyph-name="minus" unicode="&#x2212;" 
d="M92 265c-40 0 -54 30 -54 67c0 38 14 68 54 68h347c37 0 52 -30 52 -68c0 -37 -15 -67 -52 -67h-347z" />
    <glyph glyph-name="plusminus" unicode="&#xb1;" 
d="M491 364c0 -41 -16 -67 -58 -67h-100v-66c0 -44 -26 -66 -68 -66s-67 22 -67 66v66h-99c-42 0 -60 28 -60 67c0 40 15 68 60 68h99v59c0 40 28 58 67 58s68 -14 68 -58v-59h100c39 0 58 -29 58 -68zM491 67c0 -37 -14 -67 -52 -67h-346c-40 0 -54 30 -54 67
c0 33 13 68 54 68h346c38 0 52 -31 52 -68z" />
    <glyph glyph-name="multiply" unicode="&#xd7;" 
d="M155 126c-11 -11 -23 -15 -35 -15c-33 0 -76 44 -76 77c0 11 4 23 15 34l111 110l-111 111c-11 11 -15 23 -15 34c0 34 43 77 76 77c12 0 24 -4 35 -15l110 -111l110 111c11 11 23 15 35 15c33 0 76 -44 76 -77c0 -12 -4 -23 -15 -34l-111 -111l111 -110
c11 -11 15 -22 15 -34c0 -33 -43 -77 -76 -77c-12 0 -24 4 -35 15l-110 111z" />
    <glyph glyph-name="divide" unicode="&#xf7;" 
d="M92 265c-40 0 -54 30 -54 67c0 38 14 68 54 68h347c37 0 52 -30 52 -68c0 -37 -15 -67 -52 -67h-347zM267 432c-42 0 -75 15 -75 56v45c0 43 32 59 75 59c41 0 72 -15 72 -59v-45c0 -39 -31 -56 -72 -56zM267 70c-42 0 -75 15 -75 56v45c0 43 32 59 75 59
c41 0 72 -15 72 -59v-45c0 -39 -31 -56 -72 -56z" />
    <glyph glyph-name="equal" unicode="=" 
d="M92 153c-40 0 -54 30 -54 67c0 38 14 68 54 68h347c37 0 52 -30 52 -68c0 -37 -15 -67 -52 -67h-347zM92 366c-40 0 -54 30 -54 67c0 38 14 68 54 68h347c37 0 52 -30 52 -68c0 -37 -15 -67 -52 -67h-347z" />
    <glyph glyph-name="notequal" unicode="&#x2260;" 
d="M414 501h25c38 0 52 -31 52 -68s-14 -67 -52 -67h-99l-48 -78h147c38 0 52 -31 52 -68s-14 -67 -52 -67h-228l-44 -74c-14 -23 -27 -30 -55 -30c-27 0 -43 11 -43 28c0 9 6 20 13 32l27 44h-16c-40 0 -54 30 -54 67c0 33 13 68 54 68h95l45 78h-140c-40 0 -54 30 -54 67
c0 33 13 68 54 68h219l44 74c14 23 27 30 55 30c27 0 43 -11 43 -28c0 -9 -6 -20 -13 -32z" />
    <glyph glyph-name="approxequal" unicode="&#x2248;" 
d="M346 345c-52 0 -116 34 -161 34c-36 0 -29 -40 -83 -40c-33 0 -67 19 -67 51c0 4 1 8 2 13c17 67 66 106 149 106c61 0 128 -35 159 -35c35 0 30 41 82 41c32 0 68 -20 68 -52c0 -72 -71 -118 -149 -118zM346 141c-52 0 -116 34 -161 34c-36 0 -29 -40 -83 -40
c-35 0 -67 20 -67 50c0 5 1 9 2 13c17 68 66 107 149 107c61 0 128 -35 159 -35c35 0 31 40 80 40c33 0 70 -19 70 -51c0 -74 -72 -118 -149 -118z" />
    <glyph glyph-name="less" unicode="&#x3c;" 
d="M181 330l266 -63c23 -5 41 -9 41 -66c0 -46 -15 -66 -39 -66c-8 0 -16 1 -25 4l-335 95c-29 8 -38 26 -38 49v94c0 22 9 41 38 49l335 94c9 3 17 4 25 4c24 0 39 -20 39 -65c0 -57 -18 -62 -48 -69z" />
    <glyph glyph-name="greater" unicode="&#x3e;" 
d="M349 330l-259 60c-30 7 -48 12 -48 69c0 45 15 65 39 65c8 0 16 -1 25 -4l335 -94c29 -8 38 -27 38 -49v-94c0 -23 -9 -41 -38 -49l-335 -95c-9 -3 -17 -4 -25 -4c-24 0 -39 20 -39 66c0 57 18 61 41 66z" />
    <glyph glyph-name="lessequal" unicode="&#x2264;" 
d="M92 0c-40 0 -54 30 -54 67c0 38 14 68 54 68h347c37 0 52 -30 52 -68c0 -37 -15 -67 -52 -67h-347zM440 411l-259 -60l266 -63c23 -5 41 -9 41 -66c0 -46 -15 -66 -39 -66c-8 0 -16 1 -25 4l-335 95c-29 8 -38 26 -38 49v94c0 22 9 41 38 49l335 94c9 3 17 4 25 4
c24 0 39 -20 39 -65c0 -57 -18 -62 -48 -69z" />
    <glyph glyph-name="greaterequal" unicode="&#x2265;" 
d="M438 0h-347c-37 0 -52 30 -52 67c0 38 15 68 52 68h347c40 0 54 -30 54 -68c0 -37 -14 -67 -54 -67zM349 351l-259 60c-30 7 -48 12 -48 69c0 45 15 65 39 65c8 0 16 -1 25 -4l335 -94c29 -8 38 -27 38 -49v-94c0 -23 -9 -41 -38 -49l-335 -95c-9 -3 -17 -4 -25 -4
c-24 0 -39 20 -39 66c0 57 18 61 41 66z" />
    <glyph glyph-name="logicalnot" unicode="&#xac;" 
d="M92 265c-40 0 -54 30 -54 67c0 38 14 68 54 68h335c38 0 52 -30 52 -68v-170c0 -39 -30 -53 -67 -53c-38 0 -68 14 -68 53v103h-252z" />
    <glyph glyph-name="Delta" unicode="&#x394;" horiz-adv-x="554" 
d="M488 0h-423c-39 0 -55 31 -55 68c0 31 13 56 19 78l142 507c11 41 27 47 71 47h70c43 0 58 -6 70 -47l143 -507c6 -22 18 -48 18 -78c0 -38 -15 -68 -55 -68zM182 140h186l-93 361z" />
    <glyph glyph-name="Delta" unicode="&#x2206;" horiz-adv-x="554" 
d="M488 0h-423c-39 0 -55 31 -55 68c0 31 13 56 19 78l142 507c11 41 27 47 71 47h70c43 0 58 -6 70 -47l143 -507c6 -22 18 -48 18 -78c0 -38 -15 -68 -55 -68zM182 140h186l-93 361z" />
    <glyph glyph-name="Omega" unicode="&#x3a9;" horiz-adv-x="635" 
d="M317 567c-73 0 -108 -39 -108 -207c0 -95 21 -146 51 -188c13 -18 29 -32 29 -65v-57c0 -36 -40 -50 -79 -50h-145c-40 0 -55 32 -55 72c0 39 15 71 55 71h59c-51 57 -82 134 -82 231c0 268 117 340 275 340s275 -72 275 -340c0 -97 -31 -174 -82 -231h59
c40 0 55 -32 55 -71c0 -40 -15 -72 -55 -72h-145c-39 0 -78 14 -78 50v57c0 33 15 47 28 65c30 42 51 93 51 188c0 168 -35 207 -108 207z" />
    <glyph glyph-name="Omega" unicode="&#x2126;" horiz-adv-x="635" 
d="M317 567c-73 0 -108 -39 -108 -207c0 -95 21 -146 51 -188c13 -18 29 -32 29 -65v-57c0 -36 -40 -50 -79 -50h-145c-40 0 -55 32 -55 72c0 39 15 71 55 71h59c-51 57 -82 134 -82 231c0 268 117 340 275 340s275 -72 275 -340c0 -97 -31 -174 -82 -231h59
c40 0 55 -32 55 -71c0 -40 -15 -72 -55 -72h-145c-39 0 -78 14 -78 50v57c0 33 15 47 28 65c30 42 51 93 51 188c0 168 -35 207 -108 207z" />
    <glyph glyph-name="mu" unicode="&#xb5;" horiz-adv-x="551" 
d="M220 22v-177c0 -44 -35 -57 -81 -57c-45 0 -80 13 -80 57v645c0 45 35 59 80 59c43 0 81 -12 81 -59v-304c0 -48 25 -66 62 -66c39 0 62 21 62 70v300c0 45 36 59 81 59c46 0 80 -14 80 -59v-318c0 -117 -61 -186 -171 -186c-44 0 -86 9 -114 36z" />
    <glyph glyph-name="mu" unicode="&#x3bc;" horiz-adv-x="551" 
d="M220 22v-177c0 -44 -35 -57 -81 -57c-45 0 -80 13 -80 57v645c0 45 35 59 80 59c43 0 81 -12 81 -59v-304c0 -48 25 -66 62 -66c39 0 62 21 62 70v300c0 45 36 59 81 59c46 0 80 -14 80 -59v-318c0 -117 -61 -186 -171 -186c-44 0 -86 9 -114 36z" />
    <glyph glyph-name="pi" unicode="&#x3c0;" horiz-adv-x="617" 
d="M62 395c-41 0 -56 32 -56 70c0 39 15 71 56 71h495c39 0 54 -32 54 -71c0 -38 -15 -70 -54 -70h-29v-352c0 -43 -35 -56 -79 -56s-78 13 -78 56v352h-124v-352c0 -43 -34 -56 -78 -56s-79 13 -79 56v352h-28z" />
    <glyph glyph-name="degree" unicode="&#xb0;" horiz-adv-x="320" 
d="M34 580c0 74 59 134 133 134s134 -60 134 -134s-60 -133 -134 -133s-133 59 -133 133zM119 580c0 -26 22 -48 48 -48c27 0 49 22 49 48c0 27 -22 49 -49 49c-26 0 -48 -22 -48 -49z" />
    <glyph glyph-name="infinity" unicode="&#x221e;" horiz-adv-x="668" 
d="M276 333c-26 24 -53 38 -77 38c-18 0 -38 -11 -38 -38s20 -38 38 -38c24 0 51 14 77 38zM393 333c26 -24 52 -38 77 -38c17 0 37 11 37 38s-20 38 -37 38c-25 0 -51 -14 -77 -38zM334 243c-41 -40 -84 -67 -143 -67c-90 0 -156 57 -156 157s66 156 156 156
c59 0 102 -26 143 -65c42 39 84 65 144 65c90 0 155 -56 155 -156s-65 -157 -155 -157c-60 0 -102 27 -144 67z" />
    <glyph glyph-name="partialdiff" unicode="&#x2202;" horiz-adv-x="546" 
d="M361 407c5 28 7 53 7 74c0 49 -16 81 -63 81c-29 0 -53 -9 -71 -37c-14 -21 -36 -35 -64 -35c-38 0 -81 19 -81 64c0 10 3 22 9 34c47 95 138 126 230 126c126 0 207 -81 207 -241c0 -37 -4 -78 -12 -125c-46 -263 -167 -362 -315 -362c-118 0 -200 64 -200 187
c0 198 136 259 244 259c45 0 84 -12 109 -25zM340 276c-23 14 -47 23 -76 23c-57 0 -90 -43 -90 -101c0 -40 20 -64 58 -64c50 0 93 44 108 142z" />
    <glyph glyph-name="integral" unicode="&#x222b;" horiz-adv-x="329" 
d="M231 -45c0 -131 -87 -166 -183 -166c-48 0 -105 8 -105 73c0 38 5 70 36 70c12 0 26 -6 42 -6c28 0 49 19 49 61v571c0 152 83 214 213 214c59 0 85 -7 85 -50c0 -74 -23 -84 -41 -84c-9 0 -17 3 -24 3c-42 0 -72 -16 -72 -65v-621z" />
    <glyph glyph-name="radical" unicode="&#x221a;" horiz-adv-x="602" 
d="M301 159l129 491c13 49 43 63 87 63c41 0 75 -12 75 -53c0 -6 -1 -15 -4 -23l-174 -585c-12 -42 -33 -52 -65 -52h-88c-35 0 -67 14 -78 52l-97 343h-15c-41 0 -56 31 -56 70s15 70 56 70h94c44 0 50 -24 59 -62z" />
    <glyph glyph-name="summation" unicode="&#x2211;" horiz-adv-x="522" 
d="M245 556l137 -157c16 -19 23 -34 23 -49c0 -16 -7 -30 -23 -48l-137 -159h186c49 0 66 -26 66 -71c0 -39 -14 -72 -55 -72h-351c-41 0 -56 32 -56 72c0 25 8 46 27 68l176 212l-161 190c-26 31 -39 55 -39 90c0 32 18 68 52 68h342c40 0 55 -33 55 -72
c0 -45 -17 -72 -66 -72h-176z" />
    <glyph glyph-name="product" unicode="&#x220f;" horiz-adv-x="669" 
d="M228 545v-499c0 -44 -36 -60 -80 -60s-79 16 -79 60v592c0 45 35 62 79 62h373c44 0 79 -17 79 -62v-592c0 -44 -35 -60 -79 -60s-79 16 -79 60v499h-214z" />
    <glyph glyph-name="lozenge" unicode="&#x25ca;" 
d="M517 346c0 -14 -8 -26 -12 -33l-132 -264c-17 -34 -27 -49 -75 -49h-66c-48 0 -58 15 -75 49l-132 264c-4 7 -12 19 -12 33s8 34 12 41l132 264c17 34 27 49 75 49h66c48 0 58 -15 75 -49l132 -264c4 -7 12 -27 12 -41zM360 346l-95 193l-95 -193l95 -185z" />
    <glyph glyph-name="uni00A0" unicode="&#xa0;" horiz-adv-x="128" 
 />
    </font>
</defs>
</svg>
