<?xml version="1.0" standalone="no"?>
<!DOCTYPE svg PUBLIC "-//W3C//DTD SVG 1.1//EN" "http://www.w3.org/Graphics/SVG/1.1/DTD/svg11.dtd" >
<svg xmlns="http://www.w3.org/2000/svg">
<metadata>Generated by IcoMoon</metadata>
<defs>
<font id="bnp-icon" horiz-adv-x="1024">
<font-face units-per-em="1024" ascent="960" descent="-64" />
<missing-glyph horiz-adv-x="1024" />
<glyph unicode="&#x20;" horiz-adv-x="512" d="" />
<glyph unicode="&#xe60a;" glyph-name="list" horiz-adv-x="1164" d="M68.969 894.294h130.732v-125.497h-130.732v125.497zM361.808 899.529h721.678v-146.402h-721.678v146.402zM63.734 533.472h130.732v-125.497h-130.732v125.497zM356.573 538.707h721.678v-146.47h-721.678v146.47zM63.734 162.147h130.732v-125.463h-130.732v125.463zM356.573 167.416h721.678v-146.436h-721.678v146.436z" />
<glyph unicode="&#xe60e;" glyph-name="hamburger" d="M0 202.24h1024v-163.84h-1024v163.84zM0 529.92h1024v-163.84h-1024v163.84zM0 857.6h1024v-163.84h-1024v163.84z" />
<glyph unicode="&#xe900;" glyph-name="caret" horiz-adv-x="649" d="M647.456 72.45l-136.948-136.45-509.763 512 509.763 512 136.948-136.45-373.81-375.55z" />
<glyph unicode="&#xe901;" glyph-name="twitter-square" horiz-adv-x="878" d="M731.429 602.286q-32-14.286-69.143-19.429 38.857 22.857 53.143 66.857-37.143-21.714-76.571-29.143-34.857 37.714-87.429 37.714-49.714 0-84.857-35.143t-35.143-84.857q0-16.571 2.857-27.429-73.714 4-138.286 37.143t-109.714 88.571q-16.571-28.571-16.571-60.571 0-65.143 52-100-26.857 0.571-57.143 14.857v-1.143q0-42.857 28.571-76.286t70.286-41.429q-16.571-4.571-29.143-4.571-7.429 0-22.286 2.286 12-36 42.571-59.429t69.429-24q-66.286-51.429-149.143-51.429-14.857 0-28.571 1.714 84.571-53.714 184-53.714 64 0 120 20.286t96 54.286 68.857 78.286 42.857 92.571 14 96.286q0 10.286-0.571 15.429 36 25.714 60 62.286zM877.714 713.143v-548.571q0-68-48.286-116.286t-116.286-48.286h-548.571q-68 0-116.286 48.286t-48.286 116.286v548.571q0 68 48.286 116.286t116.286 48.286h548.571q68 0 116.286-48.286t48.286-116.286z" />
<glyph unicode="&#xe902;" glyph-name="close" d="M810 664.667l-238-238 238-238-60-60-238 238-238-238-60 60 238 238-238 238 60 60 238-238 238 238z" />
<glyph unicode="&#xe903;" glyph-name="search" horiz-adv-x="1111" d="M1063.662 129.262l-222.107 204.079c26.682 56.248 41.825 118.265 41.825 184.608 0 240.856-194.704 435.561-435.561 435.561s-435.561-195.425-435.561-435.561c0-240.135 194.704-435.561 435.561-435.561 96.631 0 185.33 31.73 257.442 84.372l213.454-196.146c43.989-40.383 111.775-37.499 151.437 6.49 18.749 20.913 28.124 46.873 28.124 72.834 0 29.566-11.538 58.411-34.614 79.324zM447.82 202.096c-174.513 0-315.854 141.341-315.854 315.854s141.341 315.854 315.854 315.854c174.513 0 315.854-141.341 315.854-315.854s-141.341-315.854-315.854-315.854z" />
<glyph unicode="&#xe904;" glyph-name="info-with-circle" d="M512 952.32c-271.514 0-491.571-220.058-491.571-491.52 0-271.514 220.058-491.571 491.571-491.571 271.411 0 491.52 220.058 491.52 491.571 0 271.462-220.109 491.52-491.52 491.52zM557.875 774.861c47.923 0 62.003-27.802 62.003-59.597 0-39.68-31.744-76.39-85.965-76.39-45.363 0-66.97 22.784-65.638 60.518 0 31.795 26.573 75.469 89.6 75.469zM435.098 166.4c-32.768 0-56.678 19.917-33.792 107.213l37.53 154.88c6.502 24.781 7.578 34.714 0 34.714-9.779 0-52.326-17.101-77.414-33.997l-16.333 26.778c79.616 66.509 171.162 105.523 210.33 105.523 32.768 0 38.195-38.707 21.862-98.304l-43.008-162.816c-7.629-28.774-4.352-38.707 3.277-38.707 9.83 0 41.984 11.878 73.626 36.813l18.534-24.883c-77.466-77.414-161.894-107.213-194.611-107.213z" />
<glyph unicode="&#xe905;" glyph-name="home" d="M922.592 351.392l-90.88 90.912v-474.304c0-17.696-14.272-32-31.968-32h-127.872c-17.696 0-31.968 14.304-31.968 32v383.808c0 17.696-14.304 32-32 32h-191.84c-17.664 0-31.968-14.304-31.968-32v-383.808c0-17.696-14.336-32-31.968-32h-127.872c-17.664 0-32 14.304-32 32v474.304l-90.88-90.912-101.376 101.44 506.944 507.168 5.056-5.056 5.056 5.056 250.72-250.848v186.432h127.904v-314.4l128.32-128.352-101.408-101.44z" />
<glyph unicode="&#xe906;" glyph-name="facebook-square" d="M928 960h-832c-52.8 0-96-43.2-96-96v-832c0-52.8 43.2-96 96-96h416v448h-128v128h128v64c0 105.8 86.2 192 192 192h128v-128h-128c-35.2 0-64-28.8-64-64v-64h192l-32-128h-160v-448h288c52.8 0 96 43.2 96 96v832c0 52.8-43.2 96-96 96z" />
<glyph unicode="&#xe907;" glyph-name="linkedin-square" d="M928 960h-832c-52.8 0-96-43.2-96-96v-832c0-52.8 43.2-96 96-96h832c52.8 0 96 43.2 96 96v832c0 52.8-43.2 96-96 96zM384 128h-128v448h128v-448zM320 640c-35.4 0-64 28.6-64 64s28.6 64 64 64c35.4 0 64-28.6 64-64s-28.6-64-64-64zM832 128h-128v256c0 35.4-28.6 64-64 64s-64-28.6-64-64v-256h-128v448h128v-79.4c26.4 36.2 66.8 79.4 112 79.4 79.6 0 144-71.6 144-160v-288z" />
<glyph unicode="&#xe908;" glyph-name="youtube-square" horiz-adv-x="878" d="M525.143 206.286v89.714q0 28.571-16.571 28.571-9.714 0-18.857-9.143v-128q9.143-9.143 18.857-9.143 16.571 0 16.571 28zM630.286 276h37.714v19.429q0 29.143-18.857 29.143t-18.857-29.143v-19.429zM304 428v-40h-45.714v-241.714h-42.286v241.714h-44.571v40h132.571zM418.857 356v-209.714h-38.286v22.857q-22.286-25.714-43.429-25.714-18.857 0-24 16-3.429 9.143-3.429 30.857v165.714h37.714v-154.286q0-13.714 0.571-14.857 0.571-8.571 8.571-8.571 11.429 0 24 17.714v160h38.286zM562.857 292.571v-83.429q0-29.714-4-41.714-6.857-24-30.286-24-20 0-38.857 23.429v-20.571h-38.286v281.714h38.286v-92q18.286 22.857 38.857 22.857 23.429 0 30.286-24 4-12 4-42.286zM706.286 218.857v-5.143q0-16.571-1.143-24.571-1.714-12.571-8.571-22.857-15.429-22.857-45.714-22.857-29.714 0-46.286 21.714-12 15.429-12 49.143v73.714q0 33.714 11.429 49.143 16.571 21.714 45.714 21.714t44.571-21.714q12-16 12-49.143v-43.429h-76v-37.143q0-29.143 19.429-29.143 13.714 0 17.143 14.857 0 0.571 0.286 4t0.286 9.429v12.286h38.857zM448.571 689.714v-89.143q0-29.143-18.286-29.143t-18.286 29.143v89.143q0 29.714 18.286 29.714t18.286-29.714zM753.143 282.286q0 101.143-10.857 148.571-5.714 25.143-24.571 42t-43.429 19.714q-77.714 8.571-235.429 8.571-157.143 0-234.857-8.571-25.143-2.857-43.714-19.714t-24.286-42q-11.429-49.714-11.429-148.571 0-100.571 11.429-148.571 5.714-24.571 24.286-41.714t43.143-20q78.286-8.571 235.429-8.571t235.429 8.571q24.571 2.857 43.143 20t24.286 41.714q11.429 48 11.429 148.571zM321.714 654.286l51.429 169.143h-42.857l-29.143-111.429-30.286 111.429h-44.571l13.714-39.429t13.143-39.429q20-58.857 26.286-90.286v-114.857h42.286v114.857zM486.857 608v74.286q0 33.143-12 49.714-16.571 21.714-44.571 21.714-29.143 0-44.571-21.714-12-16.571-12-49.714v-74.286q0-33.143 12-49.714 15.429-21.714 44.571-21.714 28 0 44.571 21.714 12 15.429 12 49.714zM590.286 539.428h38.286v211.429h-38.286v-161.714q-12.571-17.714-24-17.714-8.571 0-9.143 9.143-0.571 1.143-0.571 14.857v155.429h-38.286v-167.429q0-21.143 3.429-31.429 6.286-15.429 24.571-15.429 20.571 0 44 25.714v-22.857zM877.714 713.143v-548.571q0-68-48.286-116.286t-116.286-48.286h-548.571q-68 0-116.286 48.286t-48.286 116.286v548.571q0 68 48.286 116.286t116.286 48.286h548.571q68 0 116.286-48.286t48.286-116.286z" />
<glyph unicode="&#xe909;" glyph-name="check" horiz-adv-x="1344" d="M1192.465 874.116l-713.497-713.497-297.29 297.29c-29.729 29.729-79.277 29.729-109.006 0s-29.729-79.277 0-109.006l353.445-353.445c16.516-16.516 36.335-23.123 52.852-23.123 19.819 0 39.639 6.606 52.852 23.123l769.652 769.652c29.729 29.729 29.729 79.277 0 109.006s-79.277 29.729-109.006 0z" />
<glyph unicode="&#xe90a;" glyph-name="facebook-square-2" d="M1002.517 960h-981.035c-11.865 0-21.483-9.618-21.483-21.483v-981.024c0-11.865 9.618-21.483 21.483-21.483h521.221v342.164h-110.002c-9.503 0-17.208 7.704-17.208 17.208v138.713c0 9.506 7.702 17.218 17.208 17.218h110.012v95.737c0 126.146 79.432 207.651 202.355 207.651l109.432-0.172c9.485-0.011 17.186-7.712 17.186-17.208v-128.799c0-9.506-7.702-17.208-17.208-17.208l-73.718-0.032c-50.796 0-60.098-19.807-60.098-58.809v-81.161h128.67c0 0 0 0 0 0 9.503 0 17.208-7.704 17.208-17.208 0-0.004 0-0.008 0-0.011l-0.043-138.723c0-9.506-7.702-17.218-17.208-17.218h-128.638v-342.153h281.852c11.865 0 21.483 9.618 21.483 21.483v981.035c0.011 11.869-9.603 21.483-21.472 21.483z" />
<glyph unicode="&#xe90b;" glyph-name="facebook" d="M767.965 959.787l-132.79 0.213c-149.185 0-245.595-98.913-245.595-252.008v-116.192h-133.514c0 0 0 0 0 0-11.532 0-20.88-9.348-20.88-20.88 0-0.004 0-0.007 0-0.011v-168.349c0-11.532 9.348-20.88 20.88-20.88 0 0 0 0 0 0h133.514v-424.8c0-11.532 9.348-20.88 20.88-20.88h174.198c11.532 0 20.88 9.348 20.88 20.88v424.8h156.109c11.532 0 20.88 9.348 20.88 20.88 0 0 0 0 0 0l0.064 168.35c-0.012 11.533-9.358 20.878-20.889 20.891h-156.164v98.498c0 47.342 11.282 71.375 72.952 71.375l89.453 0.032c11.527 0.006 20.869 9.352 20.869 20.88 0 0 0 0 0 0v156.322c0 0 0 0 0 0 0 11.52-9.33 20.862-20.846 20.88z" />
<glyph unicode="&#xe90c;" glyph-name="linkedin-square-2" d="M553.696 500.32c0.371 0.447 0.701 0.951 0.971 1.491l0.021-1.491h-0.992zM1024 960v-1024h-1024v1024h1024zM317.6 566.88h-152.704v-459.328h152.704v459.328zM327.584 708.896c-0.96 45.12-33.12 79.424-85.376 79.424-52.192 0-86.336-34.304-86.336-79.424 0-44 33.12-79.328 84.352-79.328h0.992c53.248 0 86.368 35.328 86.368 79.328zM868.128 370.944c0 141.056-75.36 206.688-175.808 206.688-80.992 0-117.248-44.512-137.632-75.776v65.024h-152.64c1.952-43.072 0-459.328 0-459.328h152.64v256.512c0 13.888 0.992 27.36 5.024 37.248 11.072 27.328 36.224 55.872 78.336 55.872 55.328 0 77.376-42.048 77.376-103.872v-245.76h152.672l0.032 263.392z" />
<glyph unicode="&#xe90d;" glyph-name="paperclip" horiz-adv-x="626" d="M310.613-64c-245.76 0-310.613 186.027-310.613 284.444v512c-0.058 1.892-0.091 4.116-0.091 6.349 0 122.219 99.078 221.298 221.298 221.298 2.233 0 4.457-0.033 6.674-0.099 6.157 0.728 13.674 1.138 21.286 1.138 114.365 0 207.076-92.711 207.076-207.076 0-7.612-0.411-15.128-1.211-22.528l0.080-397.305c0-68.836-17.067-170.667-142.222-170.667-3.954-0.458-8.536-0.719-13.178-0.719-41.73 0-78.533 21.094-100.328 53.202-18.332 35.085-28.926 76.118-28.926 119.625 0 3.695 0.076 7.372 0.228 11.029l-0.017 215.085c0 31.419 25.47 56.889 56.889 56.889s56.889-25.47 56.889-56.889v-227.556c0-9.102-5.12-56.889 28.444-56.889s28.444 31.289 28.444 56.889v398.222c0 81.92-31.858 113.778-113.778 113.778-2.112 0.149-4.576 0.233-7.060 0.233-59.067 0-106.951-47.884-106.951-106.951 0-2.484 0.085-4.948 0.251-7.39l-0.018-511.67c0-28.444 11.947-170.667 196.836-170.667 195.698 0 201.387 153.031 201.387 170.667v512c0 31.419 25.47 56.889 56.889 56.889s56.889-25.47 56.889-56.889v-512c0-98.418-65.991-284.444-315.164-284.444z" />
<glyph unicode="&#xe90e;" glyph-name="picture" d="M213.333 597.333c0 35.346 28.654 64 64 64s64-28.654 64-64c0-35.346-28.654-64-64-64s-64 28.654-64 64zM597.333 576l-107.52-170.667-105.813 85.333-170.667-256h597.333zM938.667 746.667v-597.333h-853.333v597.333h853.333zM1024 832h-1024v-768h1024v768z" />
<glyph unicode="&#xe90f;" glyph-name="play" d="M1024 653.278c0 84.571-68.506 153.122-153.031 153.122h-717.938c-84.526 0-153.031-68.551-153.031-153.122v-410.556c0-84.571 68.506-153.122 153.031-153.122h717.938c84.526 0 153.031 68.551 153.031 153.122v410.556zM409.6 274.773v385.65l292.432-192.819-292.432-192.831z" />
<glyph unicode="&#xe910;" glyph-name="rss" horiz-adv-x="1013" d="M277.914 76.39c0-77.535-62.213-140.39-138.957-140.39s-138.957 62.855-138.957 140.39c0 77.535 62.213 140.39 138.957 140.39s138.957-62.855 138.957-140.39zM671.437-64h-196.813c0 265.011-212.48 479.846-474.624 479.846v198.861c370.79 0 671.437-303.821 671.437-678.707zM810.394-64c0 452.403-362.803 819.2-810.394 819.2v204.8c559.411 0 1012.941-458.445 1012.941-1024h-202.547z" />
<glyph unicode="&#xe911;" glyph-name="share-arrow-right" horiz-adv-x="1229" d="M0-64c81.462 388.257 370.722 692.766 743.633 794.966l7.3 229.034 477.867-453.291-477.867-457.387v228.011c-297.064-9.768-562.174-138.893-750.347-340.698z" />
<glyph unicode="&#xe912;" glyph-name="twitter-square-2" d="M0 960v-1024h1024v1024h-1024zM760.128 575.296c0.256-5.504 0.384-11.040 0.384-16.608 0-169.12-128.672-364.256-364.256-364.256-72.32 0-139.552 21.12-196.256 57.504 10.048-1.12 20.224-1.76 30.56-1.76 0.135 0 0.295 0 0.455 0 60.072 0 115.326 20.632 159.061 55.196-56.297 0.649-103.247 37.184-119.834 87.515 7.55-0.599 15.55-1.335 23.806-1.335 11.68 0 23.008 1.568 33.728 4.576-58.976 12.249-102.665 63.771-102.688 125.501v1.603c17.312-9.6 37.024-15.328 58.016-16-34.525 23.288-56.928 62.255-56.928 106.456 0 0.059 0 0.118 0 0.178 0 23.383 6.304 45.431 17.344 64.311 63.387-77.601 157.195-128.285 262.96-133.724-1.286 8.778-2.529 18.898-2.529 29.307 0 70.692 57.308 128 128 128 36.886 0 70.128-15.602 93.486-40.567 30.734 6.128 57.969 16.904 82.55 31.652-11.097-30.822-30.995-55.43-56.889-71.146 26.703 2.995 51.531 10.081 74.554 20.46-19.143-26.631-40.35-48.57-64.781-66.346z" />
<glyph unicode="&#xe913;" glyph-name="video" horiz-adv-x="1117" d="M0 960v-1024h1117.091v1024h-1117.091zM186.182 29.091h-93.091v93.091h93.091v-93.091zM186.182 215.273h-93.091v93.091h93.091v-93.091zM186.182 401.455h-93.091v93.091h93.091v-93.091zM186.182 587.636h-93.091v93.091h93.091v-93.091zM186.182 773.818h-93.091v93.091h93.091v-93.091zM837.818 29.091h-558.545v372.364h558.545v-372.364zM837.818 494.545h-558.545v372.364h558.545v-372.364zM1024 29.091h-93.091v93.091h93.091v-93.091zM1024 215.273h-93.091v93.091h93.091v-93.091zM1024 401.455h-93.091v93.091h93.091v-93.091zM1024 587.636h-93.091v93.091h93.091v-93.091zM1024 773.818h-93.091v93.091h93.091v-93.091z" />
<glyph unicode="&#xe914;" glyph-name="youtube-in-square" d="M440.544 340.672h44.736v-204.064l-35.936 0.064 0.096 26.336c-9.632-20.672-48.224-37.376-68.352-22.848-10.784 7.712-10.432 21.312-11.52 32.928-0.576 6.592-0.096 21.056-0.128 40.64l-0.128 126.944h44.48l0.224-128.96c0-17.6-0.96-27.84 0.128-31.232 6.336-19.424 22.72-8.928 26.336 0.992 1.216 3.328 0.064 12.576 0.064 31.072v128.128zM628.32 300.672l0.128-106.688c0-51.68-29.504-81.12-76.512-38.016l-3.328-17.056-36.768-0.544 0.224 273.6 44.672 0.064-0.192-79.296c41.344 32.832 71.744 8.512 71.776-32.064zM595.2 305.984c0 8.768-8.768 16.064-19.552 16.064-10.752 0-19.52-7.296-19.52-16.064v-119.68c0-8.832 8.768-16.064 19.52-16.064 10.784 0 19.552 7.232 19.552 16.064v119.68zM504.096 567.008c10.912 0 19.808 9.792 19.808 21.792v112.928c0 12-8.896 21.824-19.808 21.824-10.88 0-19.808-9.824-19.808-21.824v-112.928c0-12.032 8.928-21.792 19.808-21.792zM378.080 376.448v35.488l-143.072 0.224v-34.976l44.672-0.096v-240.672h44.768l-0.064 239.936h53.696v0.096zM1024 960v-1024h-1024v1024h1024zM591.2 607.392c0-18.144 0.32-30.336 0.864-36.512 0.64-6.112 1.984-12 4.32-17.728 2.292-5.584 5.989-10.197 10.659-13.537 4.893-3.423 11.037-5.119 18.397-5.119 6.432 0 12.16 1.792 17.152 5.376 4.96 3.552 9.152 8.864 12.608 16.032l-0.832-17.568h49.888v212.096h-39.296v-165.056c0-9.049-7.335-16.384-16.384-16.384s-16.384 7.335-16.384 16.384v165.056h-40.928v-143.072l-0.064 0.032zM450.304 720.704c-3.36-11.424-5.088-27.328-5.088-47.68v-56.128c0-18.624 0.928-32.608 2.784-41.888 1.888-9.248 4.992-17.248 9.376-23.744 4.352-6.56 10.464-11.456 18.368-14.688 7.904-3.328 17.472-4.832 28.832-4.832 10.176 0 19.2 1.888 27.040 5.696 7.744 3.744 14.24 9.728 19.232 17.632 5.056 8 8.352 16.608 9.856 25.792s2.272 23.68 2.272 43.328v53.6c0 15.552-0.768 27.136-2.528 34.752-1.886 8.367-5.083 15.753-9.405 22.334-4.606 7.127-11.071 13.029-18.705 16.992-8.53 4.609-18.386 6.849-29.938 6.849-13.728 0-24.992-3.488-33.824-10.432-8.683-6.93-15.102-16.366-18.181-27.208zM287.040 834.080l59.168-139.712 0.032-162.592h47.072l0.032 162.656 55.616 139.328h-51.456l-29.568-103.488-29.984 103.808h-50.912zM833.76 388.96c0 54.592-47.328 99.328-105.312 99.328h-432.896c-57.92 0-105.28-44.672-105.28-99.328v-227.712c0-54.624 47.328-99.328 105.28-99.328h432.896c57.984 0 105.312 44.672 105.312 99.328v227.712zM768.448 208.128c15.328-90.912-112.992-105.888-112.992-0.16v63.52c0 19.104 1.888 34.048 5.728 45.056 3.499 10.464 10.068 19.122 18.626 25.143 27.294 19.689 80.83 13.673 86.334-24.567 1.792-12.064 2.304-33.184 2.304-54.304v-28.832h-76.8v-49.248c0-10.016 8.288-18.176 18.304-18.176h6.56c0 0 0 0 0.001 0 10.070 0 18.245 8.118 18.335 18.167v18.697c0 1.728 0.064 3.232 0.096 4.576l33.504 0.128zM692.16 269.248h42.4l0.512 24.672c-0.073 10.991-8.999 19.872-20 19.872-0.023 0-0.045 0-0.068 0h-2.62c-0.010 0-0.021 0-0.032 0-10.994 0-19.913-8.885-19.968-19.867l-0.224-24.677z" />
<glyph unicode="&#xe915;" glyph-name="twitter" horiz-adv-x="1260" d="M1259.953 838.797c-46.545-20.738-96.317-34.563-148.392-40.554 53.458 31.798 94.473 82.491 113.829 142.862-50.232-29.494-105.534-51.154-164.522-62.675-47.249 50.264-114.167 81.57-188.397 81.57-0.031 0-0.062 0-0.094 0-142.857 0-258.53-115.672-258.53-258.535 0-20.277 2.304-40.094 6.913-58.988-215.215 11.060-405.545 113.829-533.199 270.056-22.121-38.25-35.024-82.491-35.024-129.959 0-89.865 45.624-168.67 115.212-215.215-42.398 1.383-82.031 12.904-117.055 32.259v-3.226c0-125.35 88.943-229.501 207.381-253.465-21.66-5.991-44.702-9.217-68.205-9.217-16.59 0-32.72 1.843-48.85 4.608 32.72-102.769 128.576-177.426 241.483-179.73-88.482-69.127-200.007-110.603-321.21-110.603-20.738 0-41.476 1.383-61.753 3.687 114.29-73.275 250.239-116.133 396.328-116.133 475.593 0 735.51 394.023 735.51 735.51 0 11.060-0.461 22.581-0.922 33.642 51.154 36.868 94.934 82.491 129.498 134.106z" />
<glyph unicode="&#xe916;" glyph-name="clock" d="M512 896c247.040 0 448-200.96 448-448s-200.96-448-448-448c-247.040 0-448 200.96-448 448s200.96 448 448 448zM512 960c-282.752 0-512-229.248-512-512s229.248-512 512-512 512 229.248 512 512-229.248 512-512 512zM672 384h-160v224c0 17.664-14.336 32-32 32s-32-14.336-32-32v-256c0-17.664 14.336-32 32-32h192c17.664 0 32 14.336 32 32s-14.336 32-32 32z" />
<glyph unicode="&#xe917;" glyph-name="map" horiz-adv-x="840" d="M417.697-64l-14.988 11.298c-9.491 7.15-233.442 177.588-342.962 382.683-33.131 54.531-52.902 115.703-58.093 180.616-0.992 10.942-1.705 22.189-1.654 33.487 0 229.294 187.537 415.916 418.028 415.916 232.526 0 421.692-186.621 421.692-416.043 0-11.247-0.662-22.418-1.629-33.614-4.784-59.264-21.578-115.474-49.849-166.901-105.55-214.79-345.15-389.172-355.329-396.5l-15.217-10.942zM418.028 909.108c-202.423 0-367.136-163.822-367.136-365.151-0.051-9.771 0.611-19.415 1.476-29.008 4.58-57.228 21.909-110.894 51.579-159.801 88.959-166.519 262.501-313.623 314.411-355.43 54.226 41.91 239.091 193.11 324.743 367.237 25.344 46.108 40.052 95.423 44.251 147.663 0.916 9.899 1.476 19.593 1.476 29.339 0 201.329-166.341 365.151-370.8 365.151zM419.86 323.849c-119.266 0-216.291 97.484-216.291 217.284s97.026 217.284 216.291 217.284c119.291 0 216.291-97.484 216.291-217.284s-97-217.284-216.291-217.284zM419.86 707.524c-91.199 0-165.399-74.659-165.399-166.392 0-91.758 74.201-166.392 165.399-166.392s165.399 74.633 165.399 166.392c0 91.733-74.201 166.392-165.399 166.392z" />
<glyph unicode="&#xe918;" glyph-name="agenda-arrow" horiz-adv-x="480" d="M469.398 477.191l-388.802 466.426c-16.085 19.328-44.856 21.945-64.17 5.788-19.356-16.17-21.973-44.828-5.859-64.17l364.496-437.228-364.496-437.213c-16.085-19.385-13.468-48.056 5.859-64.212 19.299-16.142 48.085-13.525 64.17 5.803l388.802 466.383c7.083 8.476 10.61 18.858 10.61 29.226 0 10.382-3.527 20.75-10.61 29.198z" />
<glyph unicode="&#xe919;" glyph-name="larrow" d="M1009.651 487.375h-816.279v128.328l-170.989-171.29 170.989-171.29v128.328h816.279z" />
<glyph unicode="&#xe91a;" glyph-name="rarrow" d="M1009.651 444.456l-170.989 171.247v-128.285h-816.279v-85.924h816.279v-128.371z" />
<glyph unicode="&#xe91b;" glyph-name="printer-01" d="M320 192h319.975v-64h-319.975zM256 896h511.975v-128h64v128c-0.014 35.34-28.66 63.986-63.999 64h-511.976c-35.34-0.014-63.986-28.66-64-63.999v-128.001h64v128zM320 320h383.975v-64h-383.975zM960 704h-896c-35.34-0.014-63.986-28.66-64-63.999v-384.001c0-0.007 0-0.016 0-0.025 0-35.332 28.643-63.975 63.975-63.975 0.009 0 0.018 0 0.026 0h127.999v-192c0-0.007 0-0.016 0-0.025 0-35.332 28.643-63.975 63.975-63.975 0.009 0 0.018 0 0.026 0h511.974c0.007 0 0.016 0 0.025 0 35.332 0 63.975 28.643 63.975 63.975 0 0.009 0 0.018 0 0.026v191.999h128.025c0.015 0 0.032 0 0.050 0 35.319 0 63.95 28.631 63.95 63.95 0 0.018 0 0.035 0 0.053v383.997c0 35.346-28.654 64-64 64 0 0 0 0 0 0zM767.975 0h-511.975v384h511.975v-384zM895.975 512c-35.335 0.014-63.975 28.663-63.975 64 0 35.346 28.654 64 64 64s64-28.654 64-64c0-0.015 0-0.032 0-0.050 0-35.319-28.631-63.95-63.95-63.95-0.018 0-0.035 0-0.053 0z" />
<glyph unicode="&#xe91c;" glyph-name="list-02" horiz-adv-x="1117" d="M93.091-64h-93.091v93.091h93.091v-93.091zM93.091 494.545h-93.091v-93.091h93.091v93.091zM93.091 261.818h-93.091v-93.091h93.091v93.091zM93.091 960h-93.091v-93.091h93.091v93.091zM186.182 960v-93.091h930.909v93.091h-930.909zM93.091 727.273h-93.091v-93.091h93.091v93.091zM186.182 401.455h930.909v93.091h-930.909v-93.091zM186.182-64h930.909v93.091h-930.909v-93.091zM186.182 634.182h930.909v93.091h-930.909v-93.091zM186.182 168.727h930.909v93.091h-930.909v-93.091z" />
<glyph unicode="&#xe91d;" glyph-name="list-card" d="M256 704h-256v256h256v-256zM640 960h-256v-256h256v256zM1024 960h-256v-256h256v256zM256 576h-256v-256h256v256zM640 576h-256v-256h256v256zM1024 576h-256v-256h256v256zM256 192h-256v-256h256v256zM640 192h-256v-256h256v256zM1024 192h-256v-256h256v256z" />
<glyph unicode="&#xe91e;" glyph-name="picture-02" horiz-adv-x="1422" d="M300.444 474.311c75.733 0 137.6 61.867 137.6 137.6s-61.511 137.6-137.6 137.6c-75.733 0-137.6-61.867-137.6-137.6 0.356-76.089 61.867-137.6 137.6-137.6zM227.556 611.911c0 40.533 32.711 73.244 73.244 73.244s73.244-32.711 73.244-73.244c0-40.533-32.711-73.244-73.244-73.244s-73.244 32.711-73.244 73.244zM1349.333 960h-1276.444c-40.178 0-72.889-32.711-72.889-72.889v-878.222c0-40.178 32.711-72.889 72.889-72.889h1276.444c40.178 0 72.889 32.711 72.889 72.889v878.222c0 40.178-32.711 72.889-72.889 72.889zM1357.867 895.644v-895.289h-1293.511v895.289h1293.511zM308.267 131.2c0-17.422 14.222-32 31.644-32h886.756c17.778 0 32 14.578 32 32 0 7.111-2.489 14.222-7.111 20.267l-3.2 3.911-343.822 431.644c-5.689 7.822-15.644 12.8-25.956 12.8s-19.556-4.267-25.244-11.733l-172.089-216.178-69.689 87.111c-6.4 8.178-15.644 12.8-25.956 12.8s-19.556-4.622-25.6-12.8l-243.556-306.489c-5.689-7.467-8.178-13.867-8.178-21.333zM407.111 163.556l178.844 224.711 95.289-119.467 197.333 247.822 281.244-353.067h-752.711z" />
<glyph unicode="&#xe91f;" glyph-name="doc-paperclip" horiz-adv-x="694" d="M691.908 712.869c-1.453 3.429-3.579 6.32-6.231 8.621l-229.87 231.654c-4.212 4.601-10.246 7.476-16.95 7.476-9.795 0-18.156-6.135-21.453-14.771-0.307-1.457-0.453-2.952-0.453-4.48s0.146-3.023 0.424-4.47l-0.024-232.973c0-12.842 10.41-23.252 23.252-23.252h208.675v-674.618c0-12.842-10.41-23.252-23.252-23.252 0 0 0 0 0 0h-556.567c-12.842 0-23.252 10.41-23.252 23.252 0 0 0 0 0 0v884.187c0 12.842 10.41 23.252 23.252 23.252h254.286c12.842 0 23.252 10.41 23.252 23.252s-10.41 23.252-23.252 23.252h-254.286c-38.397-0.169-69.459-31.336-69.459-69.757 0 0 0 0 0-0.001v-884.187c0 0 0 0 0-0.001 0-38.421 31.062-69.587 69.443-69.757h554.795c38.397 0.169 69.459 31.336 69.459 69.757 0 0 0 0 0 0.001v697.87c0 3.228-0.658 6.302-1.846 9.095zM462.365 727.178v153.227l152.333-153.227h-152.333zM171.114 555.17v-268.297c0-51.573 33.984-149.054 162.767-149.054s165.152 97.481 165.152 149.054v268.297c0 16.464-13.347 29.811-29.811 29.811s-29.811-13.347-29.811-29.811v-268.297c0-9.241-2.981-89.432-105.53-89.432-96.885 0-102.847 74.527-103.145 89.432v268.297c-0.078 1.107-0.122 2.398-0.122 3.7 0 30.952 25.092 56.044 56.044 56.044 1.302 0 2.593-0.044 3.873-0.132 42.755 0.009 59.449-16.685 59.449-59.612v-208.675c0-13.713 3.875-29.811-14.905-29.811s-14.905 25.041-14.905 29.811v119.243c0 16.464-13.347 29.811-29.811 29.811s-29.811-13.347-29.811-29.811v-112.983c-0.026-0.998-0.041-2.173-0.041-3.352 0-23.652 5.975-45.909 16.498-65.343 11.203-16.321 30.489-27.374 52.356-27.374 2.433 0 4.834 0.137 7.195 0.403 65.294-0.027 74.237 53.335 74.237 89.406v208.675c0.377 3.397 0.593 7.336 0.593 11.324 0 59.929-48.582 108.511-108.511 108.511-3.989 0-7.927-0.215-11.805-0.635-0.868 0.098-2.45 0.13-4.040 0.13-64.045 0-115.964-51.919-115.964-115.964 0-1.184 0.018-2.364 0.053-3.54z" />
<glyph unicode="&#xe920;" glyph-name="circle-play-01" horiz-adv-x="1023" d="M599.073 960c-1.212 0.22-2.606 0.345-4.030 0.345-11.768 0-21.531-8.586-23.366-19.835-0.246-1.378-0.377-2.807-0.377-4.266 0-11.723 8.409-21.481 19.524-23.573 219.988-39.196 384.733-228.892 384.733-457.066 0-256.188-207.681-463.869-463.869-463.869s-463.869 207.681-463.869 463.869c0 228.174 164.745 417.87 381.776 456.627 14.047 2.552 22.43 12.298 22.43 24.003 0 1.351-0.112 2.677-0.327 3.967-1.701 11.391-11.535 20.136-23.412 20.136-1.407 0-2.786-0.123-4.126-0.358-242.309-43.158-424.006-252.357-424.006-503.993 0-282.512 229.021-511.533 511.533-511.533s511.533 229.021 511.533 511.533c0 251.636-181.698 460.835-421.053 503.556zM404.989 634.762c-13.915-8.564-23.053-23.712-23.053-40.994 0-0.045 0-0.090 0-0.134v-280.37c-0.001-0.093-0.001-0.202-0.001-0.312 0-26.496 21.479-47.976 47.976-47.976 0 0 0.001 0 0.001 0 8.352 0.033 16.184 2.224 22.98 6.042l262.694 142.246c15.219 8.409 25.355 24.361 25.355 42.68s-10.136 34.271-25.105 42.553l-263.181 138.758c-6.302 3.347-13.779 5.312-21.715 5.312-9.664 0-18.648-2.914-26.119-7.912zM432.716 599.248l261.685-137.696c1.914-1.165 3.172-3.239 3.172-5.608s-1.259-4.443-3.144-5.591l-262.96-144.566c-0.894-0.525-1.968-0.835-3.115-0.835s-2.222 0.31-3.145 0.851c-1.848 1.081-3.089 3.087-3.089 5.382 0 0.074 0.001 0.147 0.004 0.22v280.367c0 0.002 0 0.005 0 0.007 0 3.504 2.754 6.364 6.215 6.534z" />
<glyph unicode="&#xe921;" glyph-name="link" d="M261.472-64c-4 0-8 0.096-12.032 0.288-63.616 3.136-124.544 30.656-171.424 77.6-46.976 46.912-74.528 107.776-77.664 171.424-3.168 64.8 19.296 124.672 63.2 168.608l183.52 183.52c43.872 43.872 103.296 66.272 168.608 63.2 63.616-3.136 124.544-30.656 171.424-77.6 5.79-5.79 9.371-13.789 9.371-22.624 0-17.67-14.325-31.995-31.995-31.995-8.835 0-16.834 3.581-22.624 9.371-35.648 35.68-81.6 56.608-129.312 58.912-46.432 2.4-89.216-13.536-120.224-44.512l-183.52-183.52c-30.976-30.976-46.784-73.664-44.512-120.224 2.336-47.744 23.264-93.664 58.944-129.312 35.648-35.68 81.6-56.608 129.312-58.912 46.464-2.4 89.216 13.536 120.224 44.512l183.52 183.488c5.79 5.79 13.789 9.371 22.624 9.371 17.67 0 31.995-14.325 31.995-31.995 0-8.835-3.581-16.834-9.371-22.624l-183.52-183.488c-41.152-41.216-96.384-63.488-156.544-63.488zM622.304 296.736c-64.864 0-131.808 26.208-183.52 77.92-5.79 5.79-9.371 13.789-9.371 22.624 0 17.67 14.325 31.995 31.995 31.995 8.835 0 16.834-3.581 22.624-9.371 72.8-72.8 184.544-79.456 248.96-14.976l182.784 182.752c64.512 64.512 57.792 176.192-15.008 248.96-35.68 35.68-81.6 56.672-129.216 59.104-46.496 2.464-88.928-13.28-119.744-44.096l-182.784-182.752c-5.79-5.79-13.789-9.371-22.624-9.371-17.67 0-31.995 14.325-31.995 31.995 0 8.835 3.581 16.834 9.371 22.624l182.784 182.752c43.776 43.808 103.552 66.176 168.256 62.752 63.488-3.232 124.32-30.848 171.232-77.76 97.728-97.728 104.448-249.984 15.008-339.456l-182.816-182.752c-42.112-42.144-98.176-62.944-155.936-62.944z" />
<glyph unicode="&#xe922;" glyph-name="linkedin-mini" d="M251.288 834.356c0-69.104-56.54-125.644-125.644-125.644s-125.644 56.54-125.644 125.644 56.54 125.644 125.644 125.644 125.644-56.54 125.644-125.644zM232.442 620.761h-213.595v-684.761h213.595v684.761zM571.681 620.761h-207.313v-684.761h201.031v358.086c0 94.233 43.975 150.773 131.926 150.773 75.387 0 113.080-56.54 113.080-150.773v-358.086h213.595v433.472c0 182.184-106.798 270.135-251.288 270.135s-207.313-113.080-207.313-113.080v94.233h6.282z" />
<glyph unicode="&#xe923;" glyph-name="mail-mini" horiz-adv-x="1420" d="M418.569 504.058l-418.569 313.927v-710.073l418.569 396.146zM1412.672 960h-1405.197l702.599-523.212 702.599 523.212zM904.409 436.788l-194.336-149.489-201.81 149.489-508.263-500.788h1420.146l-515.737 500.788zM1001.577 504.058l418.569-403.62v717.547l-418.569-313.927z" />
<glyph unicode="&#xe924;" glyph-name="black-envelope" horiz-adv-x="1536" d="M773.952 345.6c9.536 0 17.856 2.976 23.808 8.32l626.912 538.208c-9.536 4.768-20.256 7.136-31.552 7.136h-1238.336c-11.328 0-22.016-2.368-31.552-7.136l626.912-538.208c5.344-5.344 14.304-8.32 23.808-8.32zM773.952 262.24c-29.184 0-57.152 10.112-78.592 27.968l-612.608 526.304v-731.68c0-39.296 32.16-72.032 72.032-72.032h1238.336c39.296 0 72.032 32.16 72.032 72.032v731.68l-612.608-526.304c-21.44-17.856-49.408-27.968-78.592-27.968z" />
<glyph unicode="&#xe925;" glyph-name="mail-mini-2" horiz-adv-x="1593" d="M1496.178-64h-1399.467c-51.2 0-96.711 39.822-96.711 96.711v443.733c0 34.133 22.756 85.333 56.889 85.333s56.889-22.756 56.889-56.889v-455.111h1365.333v455.111c0 34.133 22.756 56.889 56.889 56.889s56.889-22.756 56.889-56.889v-472.178c0-56.889-45.511-96.711-96.711-96.711zM796.444 305.778c-73.956 0-142.222 34.133-210.489 102.4l-568.889 455.111c-17.067 11.378-22.756 34.133-11.378 56.889 5.689 22.756 28.444 39.822 51.2 39.822h1479.111c34.133 0 56.889-22.756 56.889-56.889s0-34.133-585.956-494.933c-68.267-68.267-136.533-102.4-210.489-102.4zM221.867 846.222l443.733-352.711s5.689 0 5.689-5.689c91.022-91.022 170.667-91.022 261.689 0l5.689 5.689c136.533 108.089 324.267 256 443.733 352.711h-1160.533zM1450.667 21.333c-11.378 17.067-187.733 170.667-295.822 267.378l73.956 85.333c45.511-45.511 284.444-256 301.511-273.067l-79.644-79.644zM108.089 9.956l-85.333 73.956c22.756 22.756 250.311 261.689 278.756 290.133l79.644-79.644c-102.4-108.089-256-267.378-273.067-284.444z" />
<glyph unicode="&#xe926;" glyph-name="phone-2" horiz-adv-x="956" d="M658.773-64c-27.307 0-269.653 6.827-471.040 249.173-197.973 242.347-201.387 535.893-177.493 583.68 27.307 58.027 81.92 98.987 105.813 116.053 10.24 6.827 20.48 10.24 34.133 13.653 6.827 0 13.653 3.413 20.48 3.413 37.547 0 64.853-20.48 81.92-30.72l10.24-6.827c51.2-30.72 71.68-235.52 71.68-238.933-3.413-37.547-27.307-64.853-78.507-112.64 20.48-54.613 61.44-119.467 92.16-157.013 30.72-34.133 88.747-95.573 139.947-126.293 40.96 37.547 64.853 58.027 92.16 64.853l17.067 3.413h3.413c6.827 0 191.147-47.787 215.040-105.813l3.413-10.24c10.24-27.307 40.96-85.333 0-139.947-17.067-23.893-61.44-78.507-119.467-98.987l-10.24-3.413c-10.24-3.413-20.48-3.413-30.72-3.413zM167.253 833.707h-6.827c-3.413 0-6.827-3.413-10.24-3.413-10.24-13.653-58.027-47.787-78.507-88.747-6.827-20.48-17.067-283.307 170.667-512 180.907-218.453 392.533-225.28 416.427-225.28h17.067c40.96 17.067 78.507 61.44 88.747 78.507 13.653 20.48 3.413 47.787-6.827 71.68l-6.827 6.827c-17.067 20.48-126.293 58.027-157.013 64.853h-3.413c-13.653-3.413-44.373-34.133-78.507-64.853l-17.067-17.067-20.48 10.24c-64.853 34.133-143.36 112.64-180.907 157.013-40.96 51.2-92.16 136.533-112.64 201.387l-6.827 20.48 13.653 13.653c40.96 37.547 71.68 68.267 71.68 81.92 0 27.307-23.893 157.013-40.96 177.493l-3.413 6.827c-13.653 6.827-30.72 20.48-47.787 20.48zM535.893 509.44c13.653-13.653 17.067-37.547 13.653-54.613h58.027c3.413 34.133-6.827 71.68-34.133 98.987-23.893 27.307-58.027 37.547-92.16 34.133v-61.44c20.48 3.413 40.96-3.413 54.613-17.067zM723.627 454.827h58.027c3.413 81.92-23.893 163.84-81.92 228.693-58.027 61.44-136.533 92.16-211.627 88.747v-61.44c61.44 3.413 122.88-20.48 170.667-71.68 44.373-51.2 68.267-116.053 64.853-184.32zM819.2 816.64c-88.747 95.573-211.627 143.36-331.093 143.36v-61.44c105.813 3.413 211.627-40.96 290.133-126.293s119.467-201.387 116.053-314.027h58.027c3.413 129.707-40.96 259.413-133.12 358.4z" />
<glyph unicode="&#xe927;" glyph-name="magnifier-empty" horiz-adv-x="1101" d="M1065.662 124.574l-225.119 206.847c27.044 57.011 42.393 119.869 42.393 187.112-0.731 244.123-198.076 441.468-441.468 441.468-244.123 0-441.468-197.345-441.468-441.468 0-243.392 197.345-441.468 441.468-441.468 97.941 0 187.843 32.16 260.934 85.516l216.348-198.807c44.585-40.931 113.291-38.007 153.49 6.578 19.004 21.196 28.505 47.509 28.505 73.822 0 29.967-11.695 59.203-35.084 80.4zM441.468 198.395c-176.879 0-320.137 143.258-320.137 320.137s143.258 320.137 320.137 320.137c176.879 0 320.137-143.258 320.137-320.137s-143.258-320.137-320.137-320.137zM310.635 373.082c-3.655 0-7.309 1.462-10.233 4.385-5.847 5.847-5.847 15.349 0 21.196l260.934 261.665c5.847 5.847 15.349 5.847 21.196 0s5.847-15.349 0-21.196l-261.665-261.665c-2.924-2.924-6.578-4.385-10.233-4.385zM572.3 373.082c-3.655 0-7.309 1.462-10.233 4.385l-261.665 261.665c-5.847 5.847-5.847 15.349 0 21.196s15.349 5.847 21.196 0l261.665-261.665c5.847-5.847 5.847-15.349 0-21.196-3.655-2.924-7.309-4.385-10.964-4.385z" />
<glyph unicode="&#xe928;" glyph-name="search-2" d="M991.579 95.166l-251.821 251.838c38.119 60.911 60.565 132.691 60.565 209.738 0 218.938-178.143 397.081-397.081 397.081-218.921 0-397.048-178.143-397.048-397.081 0-218.921 178.126-397.081 397.048-397.081 77.064 0 148.827 22.429 209.788 60.565l251.755-251.788c17.524-17.491 40.431-26.244 63.405-26.244 22.924 0 45.882 8.754 63.356 26.244 34.998 34.965 34.998 91.714 0.033 126.728zM403.241 279.156c-153.055 0-277.57 124.515-277.57 277.587s124.515 277.587 277.57 277.587c153.055 0 277.603-124.515 277.603-277.587 0-43.85-10.521-85.207-28.722-122.12-27.070-54.999-71.73-99.642-126.695-126.728-36.947-18.217-78.303-28.738-122.186-28.738z" />
<glyph unicode="&#xe929;" glyph-name="arrow-down" horiz-adv-x="1012" d="M561.759 174.751l412.581 412.596c32.264 32.215 32.264 84.433 0 116.683-32.215 32.215-84.466 32.215-116.683 0l-354.24-354.255-354.255 354.273c-32.2 32.215-84.483 32.215-116.683 0-16.124-16.141-24.178-37.282-24.178-58.358s8.054-42.235 24.178-58.326l412.596-412.596c32.2-32.264 84.466-32.264 116.683-0.015z" />
<glyph unicode="&#xe92a;" glyph-name="whats-app" horiz-adv-x="996" d="M808.652 763.287c-83.502 83.502-193.373 127.451-307.639 127.451-241.717 0-435.090-193.373-435.090-435.090 0-74.712 21.974-153.82 57.133-219.742l-61.528-224.137 232.927 61.528c65.923-35.159 136.24-52.738 206.558-52.738v0c241.717 0 435.090 193.373 435.090 435.090 0 114.266-43.948 224.137-127.451 307.639v0zM501.013 90.875c-65.923 0-127.451 17.579-184.584 48.343l-13.185 8.79-136.24-30.764 35.159 131.845-8.79 13.185c-35.159 57.133-57.133 123.056-57.133 193.373 0 197.768 162.609 360.378 360.378 360.378 96.687 0 188.979-39.554 254.901-105.476s105.476-158.215 105.476-254.901c4.395-202.163-158.215-364.773-355.983-364.773zM698.781 363.355c-8.79 4.395-65.923 30.764-74.712 35.159s-17.579 4.395-26.369-4.395c-8.79-8.79-26.369-35.159-35.159-43.948-4.395-8.79-13.185-8.79-21.974-4.395s-43.948 17.579-87.897 52.738c-30.764 35.159-52.738 70.318-57.133 79.107-8.79 13.185 0 17.579 4.395 21.974s8.79 13.185 13.185 17.579c4.395 4.395 8.79 8.79 8.79 17.579 4.395 8.79 0 13.185 0 17.579 0 8.79-21.974 61.528-30.764 83.502s-17.579 21.974-21.974 21.974c-4.395 0-13.185 0-21.974 0-13.185 0-21.974-4.395-30.764-13.185-8.79-13.185-35.159-39.554-35.159-92.292s39.554-105.476 43.948-114.266c4.395-8.79 74.712-118.661 184.584-162.609 26.369-13.185 48.343-17.579 61.528-21.974 26.369-8.79 48.343-8.79 70.318-4.395s65.923 26.369 74.712 52.738c8.79 26.369 8.79 48.343 4.395 52.738-4.395 0-8.79 4.395-21.974 8.79v0z" />
<glyph unicode="&#xe92c;" glyph-name="connect" d="M832.030 320c-65.837 0-125.832-33.129-161.069-87.703l-298.888 149.504c7.579 19.691 11.969 42.472 11.969 66.279 0 23.746-4.368 46.472-12.344 67.419l0.435-1.301 298.827 149.384c34.514-53.019 93.496-87.583 160.55-87.583 0.182 0 0.365 0 0.547 0.001h-0.028c105.988 0.137 191.867 86.037 191.97 192.020v0.010c-0.137 105.988-86.037 191.867-192.020 191.97h-0.010c-105.988-0.137-191.867-86.037-191.97-192.020v-0.010c0-22.648 4.036-44.875 11.927-66.138l-299.189-149.624c-34.403 53.115-93.373 87.763-160.436 87.763-0.096 0-0.191 0-0.287 0h0.015c-105.993-0.103-191.893-85.982-192.030-191.957v-0.013c0.103-106.014 86.016-191.927 192.020-192.030h0.010c0.069 0 0.151 0 0.234 0 67.088 0 126.076 34.674 160.023 87.079l0.451 0.744 299.369-149.685c-7.589-19.75-11.985-42.599-11.985-66.475 0-37.249 10.7-72 29.194-101.345l-0.463 0.787c34.036-54.991 94.026-91.077 162.443-91.077 0.258 0 0.516 0.001 0.774 0.002h-0.040c105.988 0.137 191.867 86.037 191.97 192.020v0.010c-0.137 105.988-86.037 191.867-192.020 191.97h-0.010zM832.030 917.353c82.449-0.103 149.255-66.93 149.323-149.377v-0.007c-0.103-82.449-66.93-149.255-149.377-149.323h-0.007c-0.069 0-0.15 0-0.231 0-58.065 0-108.352 33.303-132.801 81.85l-0.389 0.853c-9.994 19.393-15.867 42.317-15.902 66.609v0.011c0.069 82.475 66.909 149.315 149.377 149.384h0.006zM191.97 298.616c-82.449 0.103-149.255 66.93-149.323 149.377v0.007c0.069 82.475 66.909 149.315 149.377 149.384h0.006c56.742 0 107.821-31.684 133.361-82.643 10.079-19.404 15.99-42.367 15.99-66.711s-5.911-47.306-16.376-67.531l0.386 0.821c-24.817-49.364-75.065-82.643-133.086-82.643-0.118 0-0.236 0-0.354 0h0.018zM832.030-21.414c-52.104 0-99.509 26.504-126.976 70.837-14.074 22.248-22.426 49.33-22.426 78.362 0 24.368 5.884 47.361 16.31 67.637l-0.389-0.832c24.855 49.402 75.152 82.703 133.228 82.703 0.089 0 0.178 0 0.268 0h-0.014c82.449-0.103 149.255-66.93 149.323-149.377v-0.007c-0.103-82.449-66.93-149.255-149.377-149.323h-0.007z" />
<glyph unicode="&#xe92d;" glyph-name="pause-player" horiz-adv-x="751" d="M0 960h204.8v-1024h-204.8v1024zM546.133 960h204.8v-1024h-204.8v1024z" />
<glyph unicode="&#xe92e;" glyph-name="play-player" horiz-adv-x="768" d="M6.4 902.4l755.2-435.2-755.2-480v915.2z" />
<glyph unicode="&#xe92f;" glyph-name="external-link" d="M467.2 166.4l-83.2-89.6-6.4-6.4c-57.6-57.6-153.6-51.2-204.8 6.4-57.6 64-57.6 160 0 224l166.4 179.2c0 0 6.4 6.4 6.4 6.4 57.6 57.6 153.6 51.2 204.8-6.4l19.2-19.2c6.4-6.4 19.2-12.8 32-12.8s25.6 6.4 32 12.8c19.2 19.2 19.2 44.8 0 64l-19.2 19.2c0 6.4-6.4 6.4-6.4 6.4-96 96-249.6 89.6-339.2-6.4l-166.4-172.8c-96-96-96-256 0-352 44.8-44.8 108.8-76.8 172.8-76.8s128 25.6 172.8 76.8l83.2 89.6c19.2 19.2 19.2 44.8 0 70.4-19.2 6.4-51.2 6.4-64-12.8zM896 870.4c0 6.4-6.4 6.4-6.4 6.4-102.4 89.6-249.6 89.6-339.2-6.4l-96-102.4c-19.2-19.2-19.2-44.8 0-64s44.8-19.2 64 0l96 102.4c0 0 6.4 6.4 6.4 6.4 25.6 25.6 64 38.4 102.4 38.4 44.8 0 76.8-19.2 108.8-44.8 57.6-64 57.6-160 0-224l-166.4-179.2c0 0-6.4-6.4-6.4-6.4-64-51.2-153.6-51.2-211.2 6.4l-19.2 19.2c-19.2 19.2-44.8 19.2-64 0s-19.2-44.8 0-64l19.2-19.2c44.8-44.8 108.8-76.8 172.8-76.8v0c64 0 128 25.6 172.8 76.8l166.4 172.8c44.8 44.8 70.4 108.8 70.4 179.2s-25.6 128-70.4 179.2z" />
<glyph unicode="&#xe930;" glyph-name="instagram-logo" d="M741.403 960h-458.823c-155.814 0-282.579-126.771-282.579-282.585v-458.823c0-155.82 126.765-282.585 282.579-282.585h458.823c155.826 0 282.591 126.771 282.591 282.585v458.823c0.006 155.814-126.765 282.585-282.591 282.585zM933.146 218.591c0-105.723-86.014-191.732-191.738-191.732h-458.829c-105.717-0.006-191.726 86.008-191.726 191.732v458.823c0 105.717 86.008 191.732 191.726 191.732h458.823c105.723 0 191.738-86.014 191.738-191.732v-458.823zM511.997 711.848c-145.493 0-263.857-118.364-263.857-263.857 0-145.487 118.364-263.845 263.857-263.845s263.857 118.358 263.857 263.845c0 145.493-118.364 263.857-263.857 263.857zM511.997 275.005c-95.39 0-173.004 77.601-173.004 172.992 0 95.396 77.607 173.004 173.004 173.004s173.004-77.607 173.004-173.004c0-95.39-77.613-172.992-173.004-172.992zM786.92 788.886c-17.504 0-34.7-7.087-47.062-19.503-12.423-12.356-19.564-29.558-19.564-47.123 0-17.511 7.147-34.706 19.564-47.123 12.356-12.356 29.558-19.503 47.062-19.503 17.565 0 34.706 7.147 47.123 19.503 12.417 12.417 19.503 29.618 19.503 47.123 0 17.565-7.087 34.767-19.503 47.123-12.356 12.417-29.558 19.503-47.123 19.503z" />
<glyph unicode="&#xe931;" glyph-name="search-plus" d="M406.187 587.947l134.827 134.827 34.133-34.133-134.827-134.827 134.827-134.827-34.133-34.133-134.827 134.827-134.827-134.827-34.133 34.133 134.827 134.827-134.827 134.827 34.133 34.133 134.827-134.827zM641.707 222.72c-68.267-49.493-151.893-75.093-235.52-75.093-223.573 0-406.187 180.907-406.187 406.187 0 223.573 182.613 406.187 406.187 406.187 225.28 0 406.187-182.613 406.187-406.187 0-87.040-27.307-168.96-75.093-235.52l266.24-266.24c25.6-25.6 25.6-68.267 0-93.867 0 0 0 0 0 0l-1.707-1.707c-25.6-25.6-68.267-25.6-93.867 0l-266.24 266.24zM406.187 243.2c172.373 0 310.613 138.24 310.613 310.613s-138.24 310.613-310.613 310.613c-172.373 0-310.613-139.947-310.613-310.613s139.947-310.613 310.613-310.613z" />
<glyph unicode="&#xe932;" glyph-name="quote" d="M196.436 892.632c-108.492 0-196.436-90.49-196.436-202.108 0-111.63 87.944-202.108 196.436-202.108 196.422 0 65.468-390.742-196.436-390.742v-94.318c467.408 0 650.6 889.274 196.436 889.274zM762.338 892.632c-108.492 0-196.434-90.49-196.434-202.108 0-111.63 87.944-202.108 196.434-202.108 196.422 0 65.47-390.742-196.434-390.742v-94.318c467.408 0 650.598 889.274 196.434 889.274z" />
<glyph unicode="&#xe933;" glyph-name="increase-size-option" d="M420.678 432.674c-4.444 4.442-9.558 6.664-15.334 6.664-5.778 0-10.892-2.222-15.334-6.664l-221.336-221.336-96 96.010c-8.446 8.43-18.436 12.658-29.998 12.658s-21.564-4.23-30.008-12.658c-8.446-8.456-12.664-18.458-12.664-30.014v-298.674c0-11.554 4.22-21.55 12.664-30 8.452-8.438 18.452-12.666 30.008-12.666h298.67c11.556 0 21.552 4.23 30 12.664 8.44 8.446 12.666 18.442 12.666 30s-4.224 21.56-12.666 30.014l-96 95.98 221.336 221.35c4.44 4.444 6.662 9.542 6.662 15.326s-2.226 10.88-6.662 15.342l-76.002 75.996zM1011.346 947.336c-8.438 8.446-18.442 12.664-30 12.664h-298.674c-11.554 0-21.546-4.22-30-12.664-8.438-8.442-12.658-18.442-12.658-30s4.22-21.56 12.658-29.998l95.986-96-221.332-221.336c-4.438-4.452-6.664-9.558-6.664-15.334s2.226-10.892 6.664-15.334l76.012-76.002c4.442-4.444 9.542-6.662 15.326-6.662s10.884 2.218 15.326 6.662l221.352 221.334 95.98-95.992c8.452-8.444 18.458-12.676 30.014-12.676s21.55 4.23 30 12.676c8.438 8.44 12.658 18.442 12.658 30v298.67c0.006 11.566-4.188 21.548-12.65 29.992z" />
<glyph unicode="&#xe934;" glyph-name="circle-twitter" d="M512 960c-282.782 0-512-229.218-512-512s229.218-512 512-512c282.784 0 512 229.216 512 512 0 282.782-229.216 512-512 512zM512 16c-238.594 0-432 193.404-432 432 0 238.594 193.406 432 432 432s432-193.406 432-432c0-238.596-193.404-432-432-432zM768 618.156c-8.624-5.124-34.496-15.342-58.624-17.906 15.47 8.982 38.376 38.406 44.032 61.78-14.872-10.218-49.032-25.124-65.9-25.124 0 0 0-0.046 0.032-0.078-19.258 21.672-46.324 35.172-76.386 35.172-58.308 0-105.62-50.922-105.62-113.75 0-8.72 0.962-17.19 2.714-25.344h-0.034c-79.124 2.188-171.622 44.892-223.748 118-32-59.704-4.312-126.092 32.030-150.282-12.406-1.032-35.342 1.532-46.122 12.814-0.75-39.594 16.968-92.096 81.47-111.124-12.442-7.22-34.38-5.158-43.968-3.562 3.374-33.5 46.874-77.246 94.404-77.246-16.94-21.068-74.746-59.412-146.282-47.192 48.598-31.878 105.252-50.314 165.218-50.314 170.41 0 302.752 148.718 295.628 332.186 0 0.22-0.062 0.438-0.062 0.626 0 0.5 0.062 1 0.062 1.438 0 0.562-0.062 1.124-0.062 1.718 15.5 11.376 36.31 31.564 51.218 58.188z" />
<glyph unicode="&#xe935;" glyph-name="circle-linkedin" d="M512 960c-282.782 0-512-229.218-512-512s229.218-512 512-512c282.782 0 512 229.218 512 512s-229.218 512-512 512zM512 16c-238.594 0-432 193.406-432 432s193.406 432 432 432 432-193.406 432-432-193.406-432-432-432zM256.188 192.218h96v384h-96v-384zM640.188 576.218c-82.188-1.376-122.624-61.282-128-64v64h-96v-384h96v224c0 8.216 20.25 74 96 64 40.688-2.656 62.624-56.468 64-64v-224l95.624-0.438v265.844c-3.374 38.376-22.562 117.22-127.624 118.594zM304.188 704.218c-26.5 0-48-21.468-48-48s21.5-48 48-48 48 21.468 48 48-21.5 48-48 48z" />
<glyph unicode="&#xe936;" glyph-name="printer-circular-button" d="M512 960c-282.8 0-512-229.2-512-512s229.2-512 512-512 512 229.2 512 512-229.2 512-512 512zM512 16c-238.6 0-432 193.4-432 432s193.4 432 432 432 432-193.4 432-432-193.4-432-432-432zM679.8 599.2h-13.2v29.4c0 41.8-34 75.8-75.8 75.8h-158.8c-41.8 0-75.8-34-75.8-75.8v-29.4h-12c-41.8 0-75.8-34-75.8-75.8v-122.2c0-41.8 34-75.8 75.8-75.8h11.8v-96c0-20.8 17-37.8 37.8-37.8h234.8c20.8 0 37.8 17 37.8 37.8v96h13.2c41.8 0 75.8 34 75.8 75.8v122.2c0.2 41.8-33.8 75.8-75.6 75.8zM384.8 628.4c0 26 21.2 47 47 47h158.8c26 0 47-21.2 47-47v-29.4h-252.8v29.4zM637.8 229.4c0-5-4.2-9.2-9.2-9.2h-234.6c-5 0-9.2 4.2-9.2 9.2v158.4h253v-158.4zM726.8 401.2c0-26-21.2-47-47-47h-13.2v33.6h19c8 0 14.4 6.4 14.4 14.4s-6.4 14.4-14.4 14.4h-350.6c-8 0-14.4-6.4-14.4-14.4s6.4-14.4 14.4-14.4h21.2v-33.6h-12c-26 0-47 21.2-47 47v122.2c0 26 21.2 47 47 47h335.6c26 0 47-21.2 47-47v-122.2zM431.2 336.4h155.8c6.8 0 12.2 5.4 12.2 12.2s-5.4 12.2-12.2 12.2h-155.8c-6.8 0-12.2-5.4-12.2-12.2s5.4-12.2 12.2-12.2zM587.8 311h-155.8c-6.8 0-12.2-5.4-12.2-12.2s5.4-12.2 12.2-12.2h155.8c6.8 0 12.2 5.4 12.2 12.2s-5.4 12.2-12.2 12.2zM652.8 529h-24.8c-6.8 0-12.2-5.4-12.2-12.2s5.4-12.2 12.2-12.2h24.8c6.8 0 12.2 5.4 12.2 12.2 0 6.6-5.4 12.2-12.2 12.2z" />
<glyph unicode="&#xe937;" glyph-name="pdf-circular-button" d="M512 960c-282.8 0-512-229.2-512-512s229.2-512 512-512 512 229.2 512 512-229.2 512-512 512zM512 16c-238.6 0-432 193.4-432 432s193.4 432 432 432 432-193.4 432-432-193.4-432-432-432zM693.2 405.4c-6.6 6.4-21.2 9.8-43.2 10.2-15 0.2-33-1.2-52-3.8-8.4 5-17.2 10.2-24.2 16.6-18.4 17.2-34 41.2-43.6 67.6 0.6 2.2 1.2 4.6 1.6 6.8 0 0 10.4 59.2 7.6 79.2-0.4 2.8-0.6 3.6-1.4 5.6l-1 2.4c-2.8 6.6-8.4 13.4-17 13l-5.2 0.2h-0.2c-9.8 0-17.6-5-19.8-12.4-6.4-23.2 0.2-58.2 12-103.2l-3-7.4c-8.4-20.6-19-41.4-28.4-59.6l-1.2-2.4c-9.8-19.2-18.8-35.6-26.8-49.4l-8.4-4.4c-0.6-0.4-15-7.8-18.2-10-28.4-17-47.4-36.4-50.6-51.6-1-4.8-0.2-11.2 4.8-14l8-4c3.6-1.8 7.2-2.6 11-2.6 20.2 0 43.8 25.2 76.4 82 37.4 12.2 80.2 22.4 117.6 28 28.4-16 63.6-27.2 85.6-27.2 4 0 7.4 0.4 10 1.2 4.2 1.2 7.8 3.6 10 6.8 4.2 6.4 5.2 15.4 4 24.4 0.2 2.4-2 5.8-4.4 8zM390.2 297.4c3.8 10.2 18.4 30.2 40 47.8 1.4 1.2 4.8 4.2 7.8 7.2-22.8-36-37.8-50.4-47.8-55zM518.4 592.8c6.6 0 10.2-16.4 10.6-31.8s-3.2-26.2-7.8-34.2c-3.8 11.8-5.4 30.6-5.4 42.8 0-0.2-0.4 23.2 2.6 23.2zM480.2 382.4c4.6 8.2 9.2 16.8 14.2 25.8 11.8 22.2 19.2 39.6 24.8 54 11-20 24.8-37 40.8-50.8 2-1.8 4.2-3.4 6.4-5.2-33-6.4-61.2-14.2-86.2-23.8zM687 384.2c-2-1.2-7.8-2-11.4-2-11.8 0-26.6 5.4-47.2 14.2 8 0.6 15.2 0.8 21.6 0.8 12 0 15.4 0 27-3 11.8-2.8 12-8.8 10-10zM722.8 593l-68.8 68.6c-15 15-44.6 27.2-65.6 27.2h-230.8c-21.2 0-38.4-17.4-38.4-38.4v-415.4c0-21.2 17.4-38.4 38.4-38.4h353.8c21.2 0 38.4 17.4 38.4 38.4v292.2c0.2 21.2-12 50.8-27 65.8zM701 571.2c1.6-1.6 3-3.4 4.4-5.4h-78.6v78.6c2-1.4 4-3 5.4-4.4l68.8-68.8zM719.2 235c0-4.2-3.6-7.6-7.6-7.6h-354c-4.2 0-7.6 3.6-7.6 7.6v415.4c0 4.2 3.6 7.6 7.6 7.6h230.8c2.4 0 5-0.2 7.6-0.8v-122.2h122.2c0.6-2.8 0.8-5.4 0.8-7.6v-292.4z" />
<glyph unicode="&#xe938;" glyph-name="mail-circular-button" d="M512 960c-282.8 0-512-229.2-512-512s229.2-512 512-512 512 229.2 512 512-229.2 512-512 512zM512 16c-238.6 0-432 193.4-432 432s193.4 432 432 432 432-193.4 432-432-193.4-432-432-432zM749.8 274h-475.6c-17.4 0-32.8 13.6-32.8 32.8v150.8c0 11.6 7.8 29 19.4 29s19.4-7.8 19.4-19.4v-154.6h464v154.6c0 11.6 7.8 19.4 19.4 19.4s19.4-7.8 19.4-19.4v-160.4c-0.2-19.2-15.8-32.8-33.2-32.8zM512 399.6c-25.2 0-48.4 11.6-71.6 34.8l-193.4 154.6c-5.8 3.8-7.8 11.6-3.8 19.4 2 7.8 9.6 13.6 17.4 13.6h502.6c11.6 0 19.4-7.8 19.4-19.4s0-11.6-199.2-168.2c-23-23.2-46.2-34.8-71.4-34.8zM316.8 583.4l150.8-119.8s2 0 2-2c31-31 58-31 89 0l2 2c46.4 36.8 110.2 87 150.8 119.8h-394.6zM734.4 303c-3.8 5.8-63.8 58-100.6 90.8l25.2 29c15.4-15.4 96.6-87 102.4-92.8l-27-27zM278.2 299.2l-29 25.2c7.8 7.8 85 89 94.8 98.6l27-27c-34.8-37-87-91-92.8-96.8z" />
<glyph unicode="&#xe939;" glyph-name="trash" horiz-adv-x="1032" d="M515.61 915.658c-193.87 0-351.646-78.374-351.646-175.308l96.936-644.512c0-64.966 125.808-117.558 254.712-117.558 129.934 0 254.712 52.592 254.712 117.558l96.936 644.512c0 96.936-157.776 175.306-351.646 175.306zM519.734 635.166c-139.216 0-251.616 49.498-251.616 111.372 0 60.842 112.404 110.34 251.616 110.34 138.182 0 250.586-49.498 250.586-111.372 0-60.842-112.404-110.34-250.586-110.34z" />
<glyph unicode="&#xe93a;" glyph-name="edit" horiz-adv-x="1032" d="M773.414 897.096c-91.778 51.56-142.308 25.78-142.308 25.78l-179.432-321.74-205.212-367.114 16.5-250.586 221.712 117.558 206.244 367.114 179.432 321.74c0 0-5.156 56.716-96.936 107.246zM463.016 124.712l-84.56-55.686c-12.376 12.376-25.78 23.718-47.436 36.092s-39.186 17.53-55.686 21.656l3.094 101.058 184.588-103.122z" />
<glyph unicode="&#xe93b;" glyph-name="warning-edit" d="M585.143 174.286v108.571q0 8-5.429 13.429t-12.857 5.429h-109.714q-7.429 0-12.857-5.429t-5.429-13.429v-108.571q0-8 5.429-13.429t12.857-5.429h109.714q7.429 0 12.857 5.429t5.429 13.429zM584 388l10.286 262.286q0 6.857-5.714 10.857-7.429 6.286-13.714 6.286h-125.714q-6.286 0-13.714-6.286-5.714-4-5.714-12l9.714-261.143q0-5.714 5.714-9.429t13.714-3.714h105.714q8 0 13.429 3.714t6 9.429zM576 921.714l438.857-804.571q20-36-1.143-72-9.714-16.571-26.571-26.286t-36.286-9.714h-877.714q-19.429 0-36.286 9.714t-26.571 26.286q-21.143 36-1.143 72l438.857 804.571q9.714 17.714 26.857 28t37.143 10.286 37.143-10.286 26.857-28z" />
<glyph unicode="&#xe93c;" glyph-name="checkmarks" d="M512.728 874.060c134.010 0 251.994-61.178 330.65-157.314l-386.002-375.808-163.142 152.944c-11.654 13.11-34.96 13.11-48.068 0-11.652-13.11-11.652-36.416 2.914-48.068l186.448-174.794c11.654-11.654 33.502-11.654 45.154 0l399.112 391.83c36.414-62.634 58.264-136.922 58.264-215.58 0-235.972-190.818-425.332-425.332-425.332s-426.788 190.818-426.788 425.332 190.818 426.788 426.788 426.788zM512.728 939.606c-270.93 0-492.336-221.406-492.336-492.336s219.95-490.88 492.336-490.88 490.88 219.948 490.88 490.88c0 96.138-27.676 186.448-75.744 262.19l65.548 64.092c5.826 5.826 10.196 14.566 10.196 23.306 0 4.37 0 10.196-2.914 14.566-5.826 11.652-20.394 20.394-33.502 18.936-7.284-1.456-14.566-4.37-18.936-10.196l-59.722-58.264c-90.31 109.246-225.774 177.706-375.808 177.706z" />
<glyph unicode="&#xe93d;" glyph-name="play2" d="M395.948 681.472l357.716-232.106-357.716-230.74zM512 960c-282.624 0-512-229.376-512-512s229.376-512 512-512 512 229.376 512 512-229.376 512-512 512zM512 939.52c271.702 0 491.52-219.818 491.52-491.52s-219.818-491.52-491.52-491.52-491.52 219.818-491.52 491.52 219.818 491.52 491.52 491.52z" />
<glyph unicode="&#xe93e;" glyph-name="map-pin" horiz-adv-x="828" d="M416.914 924.89c-206.264 0-373.028-166.766-373.028-374.49 0-54.126 14.628-111.176 30.72-150.674 112.64-241.37 333.53-428.618 342.308-428.618s229.668 187.246 342.308 431.544c16.092 39.496 30.72 96.548 30.72 150.674 0 204.8-166.766 371.566-373.028 371.566zM416.914 420.206c-73.144 0-133.12 59.976-133.12 133.12s59.976 133.12 133.12 133.12 133.12-59.976 133.12-133.12-59.976-133.12-133.12-133.12z" />
<glyph unicode="&#xe93f;" glyph-name="phone" horiz-adv-x="1014" d="M254.976 325.12c95.232-132.096 307.2-329.728 418.816-335.872 110.592-6.144 164.864 66.56 164.864 66.56l-190.464 194.56c0 0-11.264-21.504-30.72-23.552-12.288 0-81.92 10.24-188.416 161.792-108.544 153.6-104.448 169.984-94.208 201.728 3.072 10.24 16.384 16.384 16.384 16.384l-147.456 261.12c0 0-112.64-65.536-109.568-159.744s64.512-249.856 160.768-382.976zM680.96 285.184l205.824-198.656c0 0 19.456 33.792 26.624 46.080 6.144 12.288 14.336 20.48-14.336 44.032-28.672 22.528-135.168 116.736-150.528 130.048s-30.72 20.48-49.152-2.048c-18.432-20.48-18.432-19.456-18.432-19.456zM384 642.56c0 0 3.072 1.024 28.672 14.336 26.624 12.288 23.552 29.696 15.36 48.128s-71.68 145.408-87.040 179.2-25.6 28.672-39.936 24.576c-14.336-3.072-53.248-14.336-53.248-14.336l136.192-251.904z" />
<glyph unicode="&#xe940;" glyph-name="mail" horiz-adv-x="1194" d="M1166.292 592.326c0 37.86-19.058 73.178-51.58 92.236l-517.59 257.652-517.59-257.652c-29.984-19.058-51.582-54.122-51.582-92.236v-517.59c0-59.712 48.786-108.498 108.498-108.498h921.6c59.712 0 108.498 48.786 108.498 108.498v517.59h-0.254zM597.122 332.386l-435.518 284.586 435.518 216.742 435.518-216.742-435.518-284.586z" />
<glyph unicode="&#xe941;" glyph-name="other-link" d="M716.8-64h-557.51c-91.022 0-159.288 68.268-159.288 159.288v557.51c0 85.332 68.266 159.288 159.288 159.288h301.512c34.132 0 56.888-22.756 56.888-56.89s-22.756-56.89-56.89-56.89h-301.512c-28.444-5.69-45.51-22.756-45.51-45.512v-557.51c0-28.444 17.068-45.51 45.51-45.51h557.51c22.756 0 45.51 17.068 45.51 45.51v301.51c0 34.134 22.756 56.89 56.89 56.89s56.89-22.756 56.89-56.89v-301.51c-5.688-91.022-73.956-159.288-159.288-159.288zM409.6 288.712c-17.068 0-28.444 5.688-39.822 17.068-22.756 22.756-22.756 56.89 0 79.644l460.8 460.8h-164.978c-34.134 0-56.89 22.756-56.89 56.89s22.756 56.89 56.89 56.89h301.51c5.688 0 17.068 0 22.756-5.69v0c0 0 0 0 0 0 5.688 0 11.378-5.69 17.068-11.378 0 0 0 0 0 0s0 0 0 0 0 0 0 0v0c0 0 0 0 0 0v0c0 0 0 0 0 0s0 0 0 0v0c0 0 0 0 0 0s0 0 0 0c5.688-5.69 11.378-11.378 11.378-17.068 5.69-5.69 5.69-17.068 5.69-22.756v-301.51c0-34.132-22.756-56.89-56.89-56.89s-56.89 22.756-56.89 56.89v164.978l-460.8-460.8c-11.378-11.378-22.756-17.068-39.822-17.068z" />
<glyph unicode="&#xe942;" glyph-name="like-plain" horiz-adv-x="1161" d="M819.2 891.733c-109.227 0-197.973-88.747-238.933-177.493-47.787 88.747-136.533 177.493-245.76 177.493-143.36 0-266.24-122.88-266.24-266.24 0-300.373 300.373-382.293 512-675.84 197.973 293.547 512 382.293 512 675.84-6.827 143.36-122.88 266.24-273.067 266.24z" />
<glyph unicode="&#xe943;" glyph-name="like-stroke" horiz-adv-x="1161" d="M580.267-111.787l-27.307 40.96c-75.093 109.227-163.84 191.147-252.587 266.24-143.36 122.88-266.24 225.28-266.24 430.080 0 163.84 136.533 300.373 300.373 300.373 102.4 0 191.147-68.267 238.933-143.36 54.613 75.093 143.36 143.36 238.933 143.36v0c163.84 0 300.373-136.533 300.373-300.373 0-191.147-129.707-307.2-259.413-423.253-88.747-75.093-177.493-157.013-252.587-273.067l-20.48-40.96zM334.507 857.6c-129.707 0-232.107-102.4-232.107-232.107 0-170.667 109.227-266.24 238.933-382.293 75.093-68.267 157.013-136.533 232.107-238.933 75.093 102.4 157.013 177.493 238.933 245.76 136.533 116.053 238.933 211.627 238.933 375.467 0 129.707-102.4 232.107-232.107 232.107-95.573 0-177.493-81.92-211.627-157.013l-34.133-68.267-27.307 68.267c-34.133 75.093-116.053 157.013-211.627 157.013z" />
<glyph unicode="&#xe944;" glyph-name="repost" horiz-adv-x="1144" d="M84.329 351.624c0 0 0 0 0 0 18.071 0 36.141 12.047 36.141 30.118v186.729c0 36.141 12.047 66.259 36.141 90.353 18.071 24.094 54.212 36.141 84.329 36.141h734.871l-132.518-138.541c-12.047-6.024-12.047-24.094-6.024-36.141s18.071-24.094 30.118-24.094c0 0 0 0 0 0h6.024c6.024 0 12.047 6.024 18.071 12.047l186.729 186.729c6.024 12.047 12.047 24.094 6.024 36.141 0 6.024-6.024 18.071-12.047 24.094l-186.729 192.753c-12.047 12.047-36.141 12.047-48.188 0s-12.047-30.118 0-48.188l132.518-132.518h-728.847c-48.188 0-96.376-18.071-132.518-54.212-36.141-42.165-54.212-90.353-54.212-144.565v-186.729c0-6.024 0-18.071 6.024-24.094 6.024 0 18.071-6.024 24.094-6.024zM1084.235 538.353c-6.024 6.024-12.047 6.024-18.071 6.024 0 0 0 0 0 0-18.071 0-30.118-12.047-30.118-30.118v-186.729c0-36.141-12.047-66.259-36.141-90.353s-54.212-36.141-90.353-36.141h-740.894l132.518 138.541c12.047 6.024 12.047 24.094 6.024 36.141s-18.071 18.071-30.118 18.071c0 0 0 0 0 0h-6.024c-6.024 0-12.047-6.024-18.071-12.047l-186.729-186.729c-6.024-6.024-12.047-18.071-6.024-30.118 0-6.024 6.024-18.071 12.047-24.094l186.729-192.753c12.047-12.047 36.141-12.047 48.188 0s12.047 30.118 0 48.188l-132.518 132.518h728.847c48.188 0 96.376 18.071 132.518 54.212s54.212 84.329 54.212 132.518v198.776c0 6.024 0 18.071-6.024 24.094z" />
</font>
</defs>
</svg>
