<?xml version="1.0" encoding="utf-8"?>
<!-- Generator: Adobe Illustrator 24.2.3, SVG Export Plug-In . SVG Version: 6.00 Build 0)  -->
<svg version="1.1" id="Calque_1" xmlns="http://www.w3.org/2000/svg" xmlns:xlink="http://www.w3.org/1999/xlink" x="0px" y="0px"
	 viewBox="0 0 18 18" style="enable-background:new 0 0 18 18;" xml:space="preserve">
<style type="text/css">
	.st0{fill-rule:evenodd;clip-rule:evenodd;fill:#FFFFFF;}
</style>
<desc>Created with Sketch.</desc>
<g>
	<path class="st0" d="M1,13c-0.6,0-1,0.4-1,1v1.6C0,16.9,1.1,18,2.5,18h13c1.4,0,2.5-1.1,2.5-2.4V14c0-0.6-0.4-1-1-1s-1,0.4-1,1v1.6
		c0,0.4-0.4,0.4-0.5,0.4h-13C2.4,16,2,16,2,15.6V14C2,13.4,1.6,13,1,13 M9.7,13.8l5.1-5.1c0.4-0.4,0.4-1,0-1.4
		c-0.4-0.4-1.1-0.4-1.4,0L10,10.6V1c0-0.6-0.4-1-1-1S8,0.4,8,1v9.7L4.7,7.4C4.3,7,3.7,7,3.3,7.4C3.1,7.6,3,7.8,3,8.1
		c0,0.3,0.1,0.5,0.3,0.7l5,5C8.7,14.2,9.3,14.2,9.7,13.8"/>
</g>
</svg>
