<svg id="Calque_1" xmlns="http://www.w3.org/2000/svg" viewBox="0 0 178 37"><style>.st0{fill:url(#SVGID_1_)}.st1{fill:url(#SVGID_2_)}.st2{fill:url(#SVGID_3_)}.st3{fill:url(#SVGID_4_)}.st4{fill:url(#SVGID_5_)}.st5{fill:url(#SVGID_6_)}.st6{fill:#fff}.st7{fill:#231f20}</style><linearGradient id="SVGID_1_" gradientUnits="userSpaceOnUse" x1="18.5" y1="-.91" x2="18.5" y2="38.147"><stop offset="0" stop-color="#008053"/><stop offset=".6" stop-color="#7fcaad"/><stop offset="1" stop-color="#00a66d"/></linearGradient><path class="st0" d="M0 0h37v37H0z"/><linearGradient id="SVGID_2_" gradientUnits="userSpaceOnUse" x1="18.477" y1="-8.8" x2="18.477" y2="34.904"><stop offset="0" stop-color="#00a66d"/><stop offset=".3" stop-color="#7fcaad"/><stop offset=".55" stop-color="#00a66d"/><stop offset=".835" stop-color="#008053"/><stop offset=".886" stop-color="#00895c"/><stop offset=".969" stop-color="#00a173"/><stop offset="1" stop-color="#00ac7d"/></linearGradient><path class="st1" d="M35.8 18.6c0 7.7.4 15.8.4 15.8 0 .9-.6 1.6-1.3 1.6H3c-.7 0-1.2-.8-1.3-1.6 0 0-.9-6.8-.9-17.1s.9-15 .9-15C1.8 1.5 2.3 1 3 1h31.9c.7 0 1.3.5 1.3 1.3 0 0-.4 8.6-.4 16.3z"/><linearGradient id="SVGID_3_" gradientUnits="userSpaceOnUse" x1="25.473" y1="32.098" x2="25.473" y2="3.836"><stop offset="0" stop-color="#00b286"/><stop offset="1" stop-color="#00a66d"/></linearGradient><path class="st2" d="M28.7 9.9c-2.3 1.3-3 1.4-5.4 2.9l.1-.3c1.3-1.4 1.9-2 2.7-3.3-2.3.1-5.6.4-8 .9l.1-.3c2.1-1 6.1-2.1 8.2-2.4-.5-.7-4.5-2.9-5.5-3.3h.1c3.1.3 7.1 1.8 8.9 2.9.7-.2 1.5-.3 2.9-.4 0 0-.2.8-1.7 1.9.4 1-.5 6.6-1.3 8 0-2.4-.2-5.3-1.1-6.6z"/><linearGradient id="SVGID_4_" gradientUnits="userSpaceOnUse" x1="7.938" y1="32.1" x2="7.938" y2="3.829"><stop offset="0" stop-color="#00b286"/><stop offset="1" stop-color="#00a66d"/></linearGradient><path class="st3" d="M12.1 29.8l.1-.3c-1.2-.5-2.4-.8-3.4-1.8.3-.9.7-1.5 1.2-2.4l.1-.3c-1 .2-2 .5-2.9.7-.7-1.2-1-2.9-1.3-4.6l-.1.3c-.2 1.9-.3 3.2 0 4.7-.7.2-1.4.2-2 .5l-.1.4c1 .6 1.7 1 2.8 1.6.6 1.2 1.2 2.1 2.2 3l.1-.3c-.2-.7-.4-1.3-.3-2.1 1.2.4 2.2.6 3.6.6z"/><linearGradient id="SVGID_5_" gradientUnits="userSpaceOnUse" x1="13.4" y1="32.319" x2="13.4" y2="3.524"><stop offset="0" stop-color="#00b286"/><stop offset="1" stop-color="#00a66d"/></linearGradient><path class="st4" d="M15.4 11.2s-.5.8-.9 1.8h-.1c2.8 0 5.5 1.7 6.2 2.1l-.1.3c-2.9-.5-4.5-.4-5.6-.3-1.1.1-1.3.3-1.3.3-.6 1.4-1 3.6-1.2 4.5l-.1.3c-.5-1.3-1.3-3.9-1.3-3.9-1.5.8-4.9 4-4.9 4 1.9-3.8 3.8-5.5 3.8-5.5-.7-.7-2.4-1-3.6-1l.1-.3c.8-.2 2.4-.3 3.5-.4 1.3 0 2.1-.1 2.1-.1 1.1-.9 2.8-1.8 3.4-1.8z"/><linearGradient id="SVGID_6_" gradientUnits="userSpaceOnUse" x1="18.123" y1="32.098" x2="18.123" y2="3.835"><stop offset="0" stop-color="#00b286"/><stop offset="1" stop-color="#00a66d"/></linearGradient><path class="st5" d="M19 27.5c-.6.8-1.1 1.4-1.8 2.2-1 .3-2.1.1-3 .2l-.1.3c.7.3 1.3.6 2 .7-.6.5-1.3.9-1.9 1.3l-.1.3c1.2-.3 2.7-.8 3.8-1.4.6 0 1.1 0 1.5-.1l.1-.3c-.1-.3-.3-.4-.4-.8 1.1-.8 1.8-1.6 2.7-2.5l.1-.3c-.9.6-1.9 1.4-3 1.9.2-.5.2-.9.1-1.5z"/><g><path class="st6" d="M28.8 9.7c-2.3 1.3-3 1.4-5.4 2.9 1.4-1.6 1.9-2.2 2.8-3.5-2.3.1-5.6.4-8 .9 2.1-1.1 6.1-2.3 8.3-2.6-.4-.7-4.5-2.9-5.5-3.3 3.2.2 7.1 1.4 9 2.6.7-.2 1.5-.2 2.9-.4-.4.6-.4 1-1.7 1.9.4 1-.5 6.6-1.3 8 0-2.3-.2-5.3-1.1-6.5zM12.2 29.6c-1.3-.5-2.2-1-3.3-2 .3-.9.7-1.5 1.2-2.4-1.1.2-1.8.3-2.8.5-.7-1.3-1.1-2.6-1.5-4.3-.2 1.9-.3 3.2 0 4.7-.8.2-1.4.4-2.1.7 1 .6 1.7 1 2.8 1.6.6 1.2 1.2 2.1 2.2 3-.2-.8-.3-1.5-.2-2.3 1.3.2 2.3.4 3.7.5zM15.6 11.1c-.4.5-.9 1.5-1 2 3.4.5 6.1 2.2 6.1 2.2-2.9-.5-4.5-.5-5.6-.4-1.1.1-1.3.2-1.3.2-.8 1.7-1.3 4.7-1.3 4.7-.5-1.3-1.3-3.9-1.3-3.9-1.5.8-4.9 4-4.9 4 1.9-3.8 3.8-5.5 3.8-5.5-.7-.7-2.4-1-3.6-1.1.7-.3 2.3-.6 3.6-.6h2.1c1.1-.7 2.8-1.5 3.4-1.6zM19.2 27.2c-.6.8-1.1 1.4-1.8 2.2-1.1.3-2 .4-3.1.4.7.3 1.3.6 2 .7-.7.6-1.3 1.1-2 1.5 1.2-.3 2.7-.8 3.8-1.4.6 0 1.1 0 1.5-.1-.1-.3-.2-.6-.3-1 1.1-.8 1.8-1.6 2.7-2.5-.9.7-1.7 1.1-2.8 1.7v-1.5z"/></g><g><path class="st7" d="M46.2 12.1c.1 1.3.2 4.7.2 6 0 1.1 0 5-.2 6.7v.2h5.9c2.9 0 6-1 6-3.6 0-1.6-1.2-2.9-3.4-3.5 1.6-.4 2.7-1.6 2.7-2.9 0-2.1-2.4-3-4.7-3h-6.6l.1.1zm4.6 1.3c2.5 0 3.4.5 3.4 1.9 0 .4-.1.7-.3.9-.5.6-1.4.8-2.6.8h-.1l-.7 2h.7c1.4 0 2.6.3 3.2 1.1.3.3.4.7.4 1.1 0 1.4-1.2 2.1-3.7 2.1h-1.5c-.1-1.9-.1-4.4-.1-5.2 0-.9.1-2.9.1-4.6.3 0 .8-.1 1.2-.1zM71.8 12h-2.9l.1 3.2c.1 1.6.1 3.2.2 4.8-.2-.5-.4-.8-1.2-2 0 0-3-4.7-4.1-6h-3v.1c0 1.3-.1 4.7-.1 6 0 1.1-.1 5-.3 6.7l.1.2H64v-.3c-1-3.1-.4-6.3-.4-9.3.1.4.1.7.6 1.4 0 .1 5.1 7.7 5.4 8.1v.2H72v-.2c-.2-1.6-.2-5.5-.2-6.6 0-1.2.1-4.6.2-6v-.1h-.2zM75 12.1c0 1.3.2 4.7.2 6 0 1.1-.2 4.9-.2 6.6v.3h3.8v-.2c-.1-1.2-.2-3.5-.2-5.2h1.2c4.7 0 7-1.2 7-3.9 0-3-3.2-3.7-5.9-3.7H75v.1zm4.7 1.4c1.7 0 2.8.3 3.4 1 .3.3.4.7.4 1.2 0 1.8-2.1 2.3-3.8 2.3H79h-.3v-1.6-2.6c.2-.2.6-.3 1-.3zM94 12.1c0 1.3.2 4.7.2 6 0 1.1-.2 4.9-.2 6.6v.3h3.1v-.2c-.1-1.2-.2-3.5-.2-5.2H98c4.7 0 7-1.2 7-3.9 0-3-3.2-3.7-5.9-3.7H94v.1zm3.9 1.4c1.7 0 2.8.3 3.4 1 .3.3.4.7.4 1.2 0 1.8-2.1 2.3-3.8 2.3h-.7-.3v-1.6-2.6c.3-.2.6-.3 1-.3zM109.8 12c-.7 1.9-5 11.3-5.7 12.7l-.1.3h3v-.2c.3-.9.6-1.9 1-3 .1 0 2.5-.1 2.5-.1h2.5c.5 1.4 1 2.5 1.1 3v.2h3.5l-5.7-13h-2.1zm.9 3.8c.3.6 1 2.3 1.8 4.3H110.6h-1.9c.7-1.6 1.4-3.1 2-4.3zM119.3 12.1c.1 1.3 0 4.7 0 6 0 1.1-.3 4.9-.3 6.6v.3h3.8v-.2c-.2-1.7-.2-5.5-.2-6.6 0-.9 0-2.9.1-4.5.3 0 .7-.1 1-.1 1.7 0 2.8.3 3.4 1 .3.3.4.7.4 1.1 0 1.5-1.4 2.2-2.7 2.3h-1.1l.1.2c1.3 1.9 3.2 5.2 4 6.7v.2h3.8l-.1-.3c-.2-.2-2.6-3.9-3.7-5.5 0 0 0-.1-.1-.1 2-.6 2.9-1.7 2.9-3.4 0-2.9-3.2-3.7-5.9-3.7h-5.6.2zM136.8 12h-3.4v.1c.1 1.3.2 4.7.2 6 0 1.1 0 5-.2 6.7v.2h3.5v-.2c-.1-1.7-.1-5.5-.1-6.6 0-1.2.2-4.7.2-6V12h-.2zM140.1 12.1c.1 1.3.2 4.7.2 6 0 1.1 0 5-.2 6.7v.2h6c2.9 0 6-1 6-3.6 0-1.6-1.2-2.9-3.4-3.5 1.6-.4 2.7-1.6 2.7-2.9 0-2.1-2.4-3-4.7-3h-6.6v.1zm4.6 1.3c2.5 0 3.4.5 3.4 1.9 0 .4-.1.7-.3.9-.5.6-1.4.8-2.6.8h-.1l-.7 2h.7c1.4 0 2.6.3 3.2 1.1.3.3.4.7.4 1.1 0 1.4-1.2 2.1-3.7 2.1h-1.5c-.1-1.9-.1-4.4-.1-5.2 0-.9 0-2.9.1-4.6.3 0 .8-.1 1.2-.1zM160.8 12h-2.4v.1c-.7 1.9-5.2 11.8-5.6 12.7l-.1.3h3v-.2c.3-.9.6-1.9 1-3h2.5l2.1.1h.4c.6 1 1 2.4 1.1 2.9v.1h3.5l-5.5-13zm-1.5 3.8c.3.6 1 2.3 1.8 4.3H159.2h-1.9c.8-1.6 1.5-3.1 2-4.3zM167.6 15.3c0 2.2 2.2 3.2 4.2 4 1.6.6 3.2 1.3 3.2 2.3 0 .3-.1.6-.2.8-.4.4-1.1.6-2.3.6-1.2 0-2.4-.4-3.9-1.1l-.5-.3v2.8l.3.1h.2c.7.2 2.2.5 3.6.5 3.8 0 6-1.5 6-4 0-2.3-2.3-3.2-4.4-4-1.5-.6-3.1-1.2-3.1-2.2 0-.3 0-1.1 1.9-1.1 1.4 0 2.8.6 3.6.9l.8.3.1-.5v-2.3l-.8-.1c-.7-.1-2-.4-3.2-.4-3.3-.1-5.5 1.5-5.5 3.7z"/></g></svg>