<svg id="Calque_1" xmlns="http://www.w3.org/2000/svg" viewBox="0 0 211.4 45.4"><style>.st0{fill:url(#SVGID_1_)}.st1{fill:url(#SVGID_2_)}.st2{fill:url(#SVGID_3_)}.st3{fill:url(#SVGID_4_)}.st4{fill:url(#SVGID_5_)}.st5{fill:url(#SVGID_6_)}.st6{fill:#fff}.st7{fill:#ef4123}</style><linearGradient id="SVGID_1_" gradientUnits="userSpaceOnUse" x1="22.677" y1="-1.116" x2="22.677" y2="46.761"><stop offset="0" stop-color="#008053"/><stop offset=".6" stop-color="#7fcbae"/><stop offset="1" stop-color="#00a76d"/></linearGradient><path class="st0" d="M0 0h45.4v45.4H0z"/><linearGradient id="SVGID_2_" gradientUnits="userSpaceOnUse" x1="22.606" y1="-11.266" x2="22.606" y2="42.534"><stop offset="0" stop-color="#00a76d"/><stop offset=".3" stop-color="#7fcbae"/><stop offset=".55" stop-color="#00a76d"/><stop offset=".835" stop-color="#008053"/><stop offset=".869" stop-color="#008558"/><stop offset=".924" stop-color="#009264"/><stop offset=".994" stop-color="#00a97a"/><stop offset="1" stop-color="#00ad7d"/></linearGradient><path class="st1" d="M44 22.9c0 9.5.4 19.2.4 19.2 0 1.1-.7 1.8-1.6 1.8H3.5c-.9 0-1.5-.8-1.6-1.8 0 0-1.1-8.3-1.1-20.9C.8 8.5 2 2.6 2 2.6c.1-1 .7-1.8 1.6-1.8h39.3c.9 0 1.6.8 1.6 1.8-.1 0-.5 10.9-.5 20.3z"/><linearGradient id="SVGID_3_" gradientUnits="userSpaceOnUse" x1="31.224" y1="39.563" x2="31.224" y2="4.747"><stop offset="0" stop-color="#00b387"/><stop offset="1" stop-color="#00a76d"/></linearGradient><path class="st2" d="M35.2 12.2c-2.8 1.6-3.7 1.8-6.7 3.6l.1-.3c1.6-1.7 2.3-2.5 3.3-4-2.8.2-6.9.5-9.8 1.1l.2-.3C25 11 29.9 9.7 32.4 9.4c-.6-.9-5.6-3.6-6.8-4.1l.1-.3c3.8.4 8.8 2.2 10.9 3.5.9-.3 1.9-.3 3.6-.5 0 0-.3 1-2.1 2.3.5 1.2-.6 8.1-1.6 9.9 0-2.8-.2-6.4-1.3-8z"/><linearGradient id="SVGID_4_" gradientUnits="userSpaceOnUse" x1="9.623" y1="39.565" x2="9.623" y2="4.739"><stop offset="0" stop-color="#00b387"/><stop offset="1" stop-color="#00a76d"/></linearGradient><path class="st3" d="M14.7 36.8l.1-.3c-1.5-.6-3-1-4.2-2.2.4-1.1.8-1.9 1.5-2.9l.1-.3c-1.3.2-2.4.7-3.5.9-.9-1.5-1.2-3.6-1.7-5.6v.2c-.2 2.3-.3 3.9 0 5.7-.9.3-1.7.3-2.5.6l-.1.3c1.2.7 2.1 1.3 3.5 1.9.7 1.5 1.5 2.6 2.7 3.8l.1-.3c-.2-.9-.5-1.6-.4-2.6 1.5.5 2.7.7 4.4.8z"/><linearGradient id="SVGID_5_" gradientUnits="userSpaceOnUse" x1="16.352" y1="39.557" x2="16.352" y2="4.753"><stop offset="0" stop-color="#00b387"/><stop offset="1" stop-color="#00a76d"/></linearGradient><path class="st4" d="M18.9 14s-.6 1.1-1.1 2.5h-.1c3.5.5 6.8 1.9 7.6 2.4l-.1.3c-3.6-.6-5.5-.6-6.9-.4-1.3.1-1.6.3-1.6.3-.8 1.7-1.2 4.5-1.4 5.5l-.1.3c-.7-1.6-1.6-4.8-1.6-4.8-1.8 1-6 4.9-6 4.9 2.3-4.6 4.7-6.7 4.7-6.7-.8-.8-2.9-1.2-4.5-1.3l.1-.3c1-.3 3-.4 4.3-.5h2.5c1.3-1.1 3.4-2.1 4.2-2.2z"/><linearGradient id="SVGID_6_" gradientUnits="userSpaceOnUse" x1="22.169" y1="39.563" x2="22.169" y2="4.747"><stop offset="0" stop-color="#00b387"/><stop offset="1" stop-color="#00a76d"/></linearGradient><path class="st5" d="M23.3 33.9c-.7 1-1.4 1.8-2.2 2.7-1.2.3-2.6.2-3.7.2l-.1.3c.8.4 1.6.7 2.5.9-.7.6-1.6 1.1-2.3 1.6l-.1.3c1.4-.3 3.3-.9 4.7-1.8.7 0 1.4 0 1.9-.1l.1-.3c-.1-.3-.4-.5-.5-1 1.3-1 2.2-1.9 3.3-3l.2-.3c-1.1.7-2.4 1.8-3.6 2.4-.1-.7-.2-1.2-.2-1.9z"/><g><path class="st6" d="M35.4 11.9c-2.8 1.6-3.7 1.8-6.7 3.6 1.8-1.9 2.4-2.7 3.5-4.4-2.8.1-6.9.5-9.8 1.1C24.9 10.8 30 9.3 32.6 9c-.6-.8-5.6-3.4-6.9-4 3.9.3 8.8 1.8 11.1 3.2.9-.3 1.9-.3 3.6-.5-.4.8-.4 1.3-2.1 2.4.5 1.2-.6 8.1-1.6 9.9 0-2.9-.3-6.5-1.3-8.1zM14.9 36.5c-1.6-.6-2.8-1.3-4-2.5.4-1.1.8-1.9 1.5-2.9-1.3.2-2.3.3-3.4.6-1-1.7-1.4-3.3-1.8-5.4-.2 2.3-.3 3.9 0 5.7-1 .3-1.8.5-2.6.9 1.2.7 2.2 1.3 3.5 1.9.7 1.5 1.5 2.6 2.7 3.8-.3-1-.4-1.8-.2-2.9 1.3.5 2.6.7 4.3.8zM19.1 13.7c-.5.7-1.1 1.9-1.2 2.4 4.1.6 7.5 2.7 7.5 2.7-3.6-.6-5.5-.6-6.9-.4-1.3.1-1.6.3-1.6.3-1 2.1-1.6 5.8-1.6 5.8-.7-1.6-1.6-4.8-1.6-4.8-1.8 1-6 4.9-6 4.9 2.3-4.6 4.7-6.7 4.7-6.7-.8-.8-2.9-1.2-4.5-1.3.8-.3 2.9-.7 4.5-.8h2.5c1.3-1 3.4-2 4.2-2.1zM23.5 33.6c-.7 1-1.4 1.8-2.2 2.7-1.4.4-2.5.5-3.9.5.8.4 1.6.7 2.5.9-.9.8-1.6 1.3-2.5 1.9 1.4-.3 3.3-.9 4.7-1.8.7 0 1.4 0 1.9-.1-.1-.4-.2-.7-.3-1.3 1.3-1 2.3-1.9 3.3-3-1.2.8-2.2 1.4-3.5 2v-1.8z"/></g><g><path class="st7" d="M57.1 23.4h153.5v2.3H57.1z"/><path d="M57.1 4.3c.1 1.6.2 5.5.2 7 0 1.3 0 5.8-.2 7.7v.2h7c3.4 0 7-1.1 7-4.1 0-1.9-1.4-3.3-4-4.1 1.9-.5 3.2-1.8 3.2-3.3 0-2.5-2.8-3.4-5.5-3.5h-7.7v.1zm5.4 1.5c2.9 0 4 .6 4 2.2 0 .4-.1.8-.4 1.1-.6.7-1.7 1-3 .9H63l-.8 2.1h.8c1.6 0 3 .5 3.7 1.3.3.4.5.9.5 1.4 0 1.7-1.5 2.5-4.3 2.5h-1.8c-.1-2.2-.1-5.2-.1-6 0-1 0-3.4.1-5.4.4-.1.9-.1 1.4-.1zM87.2 4.1h-3.4l.1 3.8c.1 1.9.1 3.8.2 5.7-.2-.6-.4-.9-1.4-2.4 0-.1-3.5-5.5-4.8-7H74v.1c.1 1.6.2 5.5.2 7 0 1.3 0 5.8-.2 7.7v.2h3.5v-.1c-.2-3.7-.2-7.4-.2-10.9.1.4.3.8.8 1.6.1.1 6.1 8.9 6.4 9.4v.1h2.8v-.2c-.2-1.9-.2-6.4-.2-7.7 0-1.5.1-5.4.2-7v-.1h-.1zM91.2 4.3c.1 1.6.2 5.5.2 7 0 1.3 0 5.8-.2 7.7v.2h4.2V19c-.1-1.4-.2-4-.2-6h1.4c5.5 0 8.2-1.5 8.2-4.5 0-3.5-3.7-4.3-6.9-4.3h-6.5l-.2.1zm5.1 1.6c2 0 3.3.4 4 1.2.3.4.4.8.4 1.4 0 2.2-2.4 2.6-4.5 2.6h-.8-.3V9.2 6.1c.3-.1.8-.2 1.2-.2zM112.6 4.3c.1 1.6.2 5.5.2 7 0 1.3 0 5.8-.2 7.7v.2h4.2V19c-.1-1.4-.2-4-.2-6h1.4c5.5 0 8.2-1.5 8.2-4.5 0-3.5-3.7-4.3-6.9-4.3h-6.5l-.2.1zm5.1 1.6c1.9 0 3.3.4 4 1.2.3.4.4.8.4 1.4 0 2.2-2.4 2.6-4.5 2.6h-.8-.3V9.2c0-1 0-2 .1-3.1.2-.1.7-.2 1.1-.2zM131.6 4.1c-.9 2.2-5.9 13.1-6.6 14.8l-.1.2h3.6V19c.3-1 .7-2.2 1.2-3.4h5.9c.6 1.6 1.1 2.8 1.3 3.4v.1h4.1l-6.7-15h-2.7zm1 4.4c.3.7 1.2 2.7 2.2 5.1h-2.1-2.2c.7-1.9 1.4-3.6 2.1-5.1zM142.7 4.3c.1 1.6.2 5.5.2 7 0 1.3 0 5.8-.2 7.7v.2h4.2V19c-.2-1.9-.2-6.4-.2-7.7 0-1 0-3.4.1-5.2.3 0 .8-.1 1.1-.1 1.9 0 3.3.4 4 1.2.3.4.5.8.5 1.4 0 1.7-1.6 2.6-3.1 2.7h-1.2l.2.3c1.5 2.2 3.7 5.9 4.6 7.7v.1h4.5l-.1-.2c-.2-.2-3.1-4.5-4.3-6.4 0 0 0-.1-.1-.1 2.3-.7 3.4-2 3.4-3.9 0-3.5-3.7-4.3-6.9-4.3h-6.5l-.2-.2zM163.2 4.1h-4v.1c.1 1.6.2 5.5.2 7 0 1.3 0 5.8-.2 7.7v.2h4.2v-.2c-.2-1.9-.2-6.4-.2-7.7 0-1.5.1-5.4.2-7v-.1h-.2zM167.1 4.3c.1 1.6.2 5.5.2 7 0 1.3 0 5.8-.2 7.7v.2h7c3.4 0 7-1.1 7-4.1 0-1.9-1.4-3.3-4-4.1 1.9-.5 3.2-1.8 3.2-3.3 0-2.5-2.8-3.4-5.5-3.5h-7.7v.1zm5.4 1.5c2.9 0 4 .6 4 2.2 0 .4-.1.8-.4 1.1-.5.7-1.7 1-3 .9h-.1l-.8 2.1h.8c1.6 0 3 .5 3.7 1.3.3.4.5.9.5 1.4 0 1.7-1.5 2.5-4.3 2.5h-1.8c-.1-2.2-.1-5.2-.1-6.1 0-1 0-3.4.1-5.4h1.4zM191.3 4.1h-2.8v.1c-.8 2.3-6.1 13.7-6.5 14.7l-.1.2h3.6V19c.3-1 .7-2.2 1.2-3.4h5.8c.6 1.6 1.1 2.8 1.3 3.4v.1h4.1l-6.6-15zm-1.7 4.4c.3.7 1.2 2.7 2.2 5.1h-2.1-2.2c.7-1.9 1.4-3.6 2.1-5.1zM199.2 8c0 2.6 2.7 3.7 5 4.6 1.8.7 3.7 1.5 3.7 2.7 0 .4-.1.7-.3.9-.4.5-1.3.7-2.7.7-1.4-.1-2.9-.5-4.7-1.3l-.7-.3V18.6l.5.1.3.1c.9.2 2.5.6 4.2.6 4.4 0 7-1.7 7-4.6 0-2.7-2.7-3.8-5.1-4.7-1.8-.7-3.6-1.4-3.6-2.6 0-.3 0-1.3 2.3-1.3 1.7 0 3.3.7 4.2 1.1l.9.4V4.2l-1-.2c-.8-.2-2.3-.4-3.7-.4-3.8 0-6.3 1.8-6.3 4.4z"/><g><path d="M105.3 29.7v2.1c-1.9-.1-5.4-.2-5.4-.2H99v3.5l4.4-.1v2H99v.3c0 1.5.1 3.7.2 5.2H95c.2-1.9.2-5.6.2-6.7 0-1.2 0-4.7-.1-6.1h10.2zM114.2 42.8c-4 0-7-2.7-7-6.7s3-6.7 7-6.7 7 2.7 7 6.7-3 6.7-7 6.7zm0-11.8c-1.8 0-3 1.8-3 5.1s1.2 5.1 3 5.1 3-1.8 3-5.1-1.1-5.1-3-5.1zM130.5 29.7c2.8 0 6.1 1 6.1 4 0 1.6-1.2 2.7-3 3.5.4.7 3.5 4.7 4.1 5.4h-4.6c-.8-1.5-2.3-4.2-3.9-6.5 1.8.2 3.4-.6 3.4-2.4 0-1.7-1.9-2.2-2.9-2.2h-1.5c-.1 1.6-.1 3.4-.1 4.3 0 1.1 0 4.8.2 6.7H124c.2-1.9.3-4.2.3-6.7 0-2.2 0-4.8-.2-6.1h6.4zM150.7 29.7v2.1c-1.9-.2-2.6-.3-4.1-.3-.1 1.5-.1 3.5-.1 4.3 0 1.1 0 4.8.2 6.7h-4.3c.2-1.9.2-5.6.2-6.7 0-.8-.1-2.9-.1-4.3-1.5 0-2.3.1-4.1.3v-2.1h12.3zM157.9 29.7c-.1 1.4-.2 4.9-.2 6.1 0 1.1 0 4.9.2 6.7h-4.2c.2-1.9.2-5.6.2-6.7 0-1.2-.1-4.7-.2-6.1h4.2zM167 29.3c1.6 0 3.2.2 4.2.5v3.3c-1.4-.8-2.8-1.5-4.6-1.5-1.4 0-1.5.6-1.5 1 0 2.2 7.3 2.2 7.3 6 0 2.5-2.3 4.1-6.3 4.1-1.8 0-3.4-.4-4.6-.8v-3.1c2.7 1.3 4.1 1.7 5.3 1.7 1 0 1.7-.5 1.7-1.3 0-2.4-7.3-2.2-7.3-6.4.1-2.2 2.4-3.5 5.8-3.5z"/></g></g></svg>